<?xml version="1.0" encoding="utf-8"?>
<!-- Generator: Adobe Illustrator 28.2.0, SVG Export Plug-In . SVG Version: 6.00 Build 0)  -->
<svg version="1.1" id="Layer_1" xmlns="http://www.w3.org/2000/svg" xmlns:xlink="http://www.w3.org/1999/xlink" x="0px" y="0px"
	 viewBox="0 0 2500 1664" style="enable-background:new 0 0 2500 1664;" xml:space="preserve">
<style type="text/css">
	.st0{fill:#FFF5E9;}
	.st1{fill:#2E406B;}
	.st2{fill:#82CEFF;}
	.st3{fill:#5CAFE2;}
	.st4{fill:#FFFFFF;}
	.st5{fill:#DD655F;}
	.st6{fill:#F57871;}
</style>
<path class="st0" d="M600.7,1188.09c0,0-525.85-198.25,131.17-604.77c269.78-166.93,7.97,473.95,330.9,354.53
	c322.93-119.42-33.37-662.47,384.8-707.48c418.17-45,906.49,300.25,365.39,949.08C1748.73,1256.48,600.7,1188.09,600.7,1188.09z"/>
<path class="st1" d="M1304.59,1413.31c0,0,186.12-24.73,238.77-67.69c0,0,520.39-30.11,625.41-70.13
	c105.01-40.01-446.58-115.52-446.58-115.52S521.42,1054.08,1304.59,1413.31z"/>
<path class="st2" d="M1109.88,327.52h669.99c0,0-32,144.09-20,208.09s127.52,752.45-258.6,794.23L1109.88,327.52z"/>
<path class="st1" d="M1501.27,1334.34c-1.83,0-3.51-1.12-4.19-2.86L1105.69,329.16c-0.54-1.38-0.36-2.95,0.48-4.17
	c0.84-1.23,2.23-1.96,3.72-1.96h669.99c1.37,0,2.66,0.62,3.51,1.68c0.85,1.06,1.18,2.46,0.88,3.79
	c-0.32,1.43-31.66,143.93-19.97,206.29c2.58,13.78,25.25,138.9,25.46,286.07c0.11,80.21-6.46,152.84-19.54,215.87
	c-16.12,77.69-42.29,141.3-77.78,189.09c-47.09,63.4-111.24,99.91-190.67,108.5C1501.59,1334.33,1501.43,1334.34,1501.27,1334.34z
	 M1116.47,332.02l387.73,992.96c75.25-8.98,136.14-44.14,181-104.53c63.65-85.7,95.8-220.14,95.55-399.58
	c-0.2-146.36-22.74-270.72-25.3-284.42c-10.84-57.83,13.06-177.09,18.85-204.42H1116.47z"/>
<path class="st1" d="M1759.87,535.62c-6.71-35.79,0.34-96.61,7.85-143.28l-198.93-12.06l-319.3,304.77l251.78,644.8
	c80.7-8.73,139.48-45.71,181.88-99.34c127.28-171.11,68.72-520.89,60.72-578.63C1735.87,594.13,1759.87,535.62,1759.87,535.62z"/>
<path class="st2" d="M1109.88,327.52l685.99,40.09c0,0-38,36-78,178s146.02,692-264.99,800l-721.01-194c0,0,300-272,270-480
	c-30-208-23.43-290.81-23.43-290.81L1109.88,327.52z"/>
<path class="st1" d="M1452.88,1350.12c-0.39,0-0.79-0.05-1.17-0.15l-721.01-194c-1.59-0.43-2.82-1.69-3.21-3.29
	c-0.39-1.6,0.13-3.28,1.35-4.39c0.75-0.68,75.59-68.88,145.77-161.5c64.45-85.05,138.07-208.65,122.8-314.53
	c-29.73-206.11-23.53-290.97-23.46-291.81c0.13-1.7,1.22-3.17,2.79-3.81l131.44-53.29c0.62-0.25,1.28-0.36,1.95-0.32l685.99,40.09
	c1.79,0.1,3.35,1.26,3.96,2.95c0.62,1.69,0.17,3.58-1.13,4.81c-0.36,0.35-37.75,37.47-76.76,175.95
	c-10.09,35.83-5.33,100.29,0.17,174.94c8.1,109.76,18.18,246.37-12.14,365.48c-16.51,64.87-43.97,119.04-81.6,161
	c-43.48,48.47-102.22,82.69-174.61,101.71C1453.65,1350.07,1453.26,1350.12,1452.88,1350.12z M740.87,1149.38l712.02,191.58
	c132.41-35.15,213.74-118.87,248.62-255.92c29.96-117.7,19.94-253.49,11.89-362.6c-5.57-75.49-10.38-140.69,0.14-178.04
	c30.88-109.62,60.5-156.53,73.03-172.82l-675.93-39.51l-127.86,51.84c-0.77,15.98-3.06,102.54,23.55,287.07
	c6.96,48.29-3.08,103.86-29.86,165.19c-21.29,48.76-53.17,101.31-94.76,156.17C822.55,1070.38,760.11,1131.21,740.87,1149.38z"/>
<path class="st3" d="M1661.87,701.14c2-170.47,56-260.51,56-260.51h-22.06l-561.24-21.01l-23.33,834.08l341.64,91.92
	C1677.88,1229.62,1659.87,871.62,1661.87,701.14z"/>
<path class="st4" d="M1304.59,1413.31c0,0,301.28-71.69,317.28-701.69c6.04-237.94,96-292,96-292l-607.99-92.09l-131.44,53.29
	c-19.81,42.61-38.13,111-51.8,217.36c-75.26,585.61-375.39,602.18-375.39,602.18L1304.59,1413.31z"/>
<path class="st1" d="M1304.59,1417.81c-0.41,0-0.82-0.06-1.22-0.17l-753.33-212.96c-2.12-0.6-3.49-2.64-3.25-4.83
	c0.24-2.19,2.03-3.88,4.22-4c0.18-0.01,18.83-1.19,47.41-11.7c26.37-9.71,66.84-29.58,109.88-69.16
	c76.25-70.13,175.26-216.82,213.89-517.39c12.55-97.63,30.1-171.21,52.18-218.68c0.48-1.03,1.33-1.85,2.39-2.27l131.44-53.29
	c0.75-0.3,1.57-0.4,2.36-0.28l607.99,92.09c1.88,0.28,3.37,1.71,3.74,3.58c0.37,1.86-0.47,3.75-2.1,4.73
	c-0.21,0.13-22.15,13.84-44.56,55.93c-20.77,39-46.18,110.97-49.26,232.33c-3.66,144.13-22.68,270.86-56.54,376.68
	c-27.15,84.85-63.85,156.55-109.09,213.11c-40.38,50.48-80.24,79.32-106.57,94.63c-28.74,16.71-47.75,21.34-48.54,21.53
	C1305.29,1417.76,1304.94,1417.81,1304.59,1417.81z M571.89,1201.5l732.74,207.14c4.37-1.23,21.61-6.58,45.63-20.62
	c25.67-15.01,64.55-43.29,104.01-92.81c69.87-87.69,154.89-260.14,163.1-583.71c3.14-123.8,29.36-197.34,50.8-237.24
	c15.01-27.93,29.73-43.78,38.69-51.76l-596.44-90.34l-128.65,52.15C960.44,431,943.4,503.13,931.11,598.74
	c-17.23,134.03-47.77,249.25-90.78,342.46c-34.51,74.78-77.09,135.67-126.56,180.98c-44.16,40.45-85.77,60.75-112.9,70.66
	C589.5,1196.98,579.69,1199.71,571.89,1201.5z"/>
<path class="st0" d="M1023.19,419.62c0,0,373.83,157.28,559.57,163.7c0,0-24.21,153.77,0,235.3
	C1582.76,818.62,1041.73,815.88,1023.19,419.62z"/>
<path class="st1" d="M1487.47,1261.16c-2.45,0-4.46-1.97-4.5-4.43c-0.04-2.48,1.94-4.53,4.43-4.57l27.6-0.45c0.02,0,0.05,0,0.08,0
	c2.45,0,4.46,1.97,4.5,4.43c0.04,2.48-1.94,4.53-4.43,4.57l-27.6,0.45C1487.52,1261.16,1487.49,1261.16,1487.47,1261.16z"/>
<path class="st1" d="M1555.84,1219.75c-0.22,0-0.44-0.02-0.66-0.05l-40.76-5.95c-2.46-0.36-4.16-2.64-3.8-5.1
	c0.36-2.46,2.66-4.16,5.1-3.8l40.76,5.95c2.46,0.36,4.16,2.64,3.8,5.1C1559.96,1218.14,1558.03,1219.75,1555.84,1219.75z"/>
<path class="st1" d="M1637.27,1026.02c-0.11,0-0.21,0-0.32-0.01l-52.42-3.66c-2.48-0.17-4.35-2.32-4.18-4.8
	c0.17-2.48,2.33-4.34,4.8-4.18l52.42,3.66c2.48,0.17,4.35,2.32,4.18,4.8C1641.59,1024.2,1639.62,1026.02,1637.27,1026.02z"/>
<path class="st1" d="M1648.22,884.1c0,0-38.52-0.01-38.52-0.01c-2.49,0-4.5-2.02-4.5-4.5c0-2.48,2.02-4.5,4.5-4.5l38.52,0.01
	c2.49,0,4.5,2.02,4.5,4.5C1652.72,882.09,1650.7,884.1,1648.22,884.1z"/>
<path class="st1" d="M1609.7,1127.04c-0.19,0-0.38-0.01-0.57-0.04l-53.87-6.85c-2.46-0.31-4.21-2.57-3.9-5.03
	c0.31-2.46,2.57-4.2,5.03-3.9l53.87,6.85c2.46,0.31,4.21,2.57,3.9,5.03C1613.87,1125.38,1611.93,1127.04,1609.7,1127.04z"/>
<path class="st1" d="M1594.45,1160.68c-0.23,0-0.46-0.02-0.7-0.05l-51.08-7.92c-2.46-0.38-4.14-2.68-3.76-5.14
	c0.38-2.46,2.69-4.14,5.14-3.76l51.08,7.92c2.46,0.38,4.14,2.68,3.76,5.14C1598.55,1159.09,1596.63,1160.68,1594.45,1160.68z"/>
<path class="st1" d="M1575.84,1192.6c-0.28,0-0.55-0.03-0.83-0.08l-46.05-8.64c-2.44-0.46-4.05-2.81-3.59-5.25s2.81-4.05,5.25-3.59
	l46.05,8.64c2.44,0.46,4.05,2.81,3.59,5.25C1579.86,1191.09,1577.97,1192.6,1575.84,1192.6z"/>
<path class="st1" d="M1630.19,1061.12c-0.11,0-0.23,0-0.34-0.01l-54.35-4.05c-2.48-0.18-4.34-2.34-4.15-4.82s2.35-4.34,4.82-4.15
	l54.35,4.05c2.48,0.18,4.34,2.34,4.15,4.82C1634.5,1059.32,1632.52,1061.12,1630.19,1061.12z"/>
<path class="st1" d="M1647.62,918.32h-42.62c-2.49,0-4.5-2.01-4.5-4.5c0-2.49,2.01-4.5,4.5-4.5h42.62c2.49,0,4.5,2.01,4.5,4.5
	C1652.12,916.31,1650.1,918.32,1647.62,918.32z"/>
<path class="st1" d="M1626.31,950.9h-23.29c-2.49,0-4.5-2.01-4.5-4.5c0-2.49,2.01-4.5,4.5-4.5h23.29c2.49,0,4.5,2.01,4.5,4.5
	C1630.81,948.89,1628.79,950.9,1626.31,950.9z"/>
<path class="st1" d="M1620.06,779.56c-2.38,0-4.37-1.87-4.49-4.28c-0.12-2.48,1.79-4.59,4.27-4.72l24.76-1.22
	c2.48-0.11,4.59,1.79,4.72,4.27c0.12,2.48-1.79,4.59-4.27,4.72l-24.76,1.22C1620.21,779.56,1620.14,779.56,1620.06,779.56z"/>
<path class="st1" d="M1591.21,1089.17c-0.12,0-0.25,0-0.37-0.01l-24.28-1.99c-2.48-0.2-4.32-2.38-4.12-4.85
	c0.2-2.48,2.37-4.32,4.85-4.12l24.28,1.99c2.48,0.2,4.32,2.38,4.12,4.85C1595.5,1087.39,1593.53,1089.17,1591.21,1089.17z"/>
<path class="st1" d="M1555.84,562.49c-0.24,0-0.49-0.02-0.74-0.06l-493.07-81.6c-2.45-0.41-4.11-2.72-3.7-5.17
	c0.41-2.45,2.72-4.11,5.17-3.7l493.07,81.6c2.45,0.41,4.11,2.72,3.71,5.17C1559.91,560.93,1558,562.49,1555.84,562.49z"/>
<path class="st1" d="M1033.56,476.06c-0.24,0-0.49-0.02-0.74-0.06l-21.82-3.61c-2.45-0.41-4.11-2.72-3.7-5.17
	c0.41-2.45,2.72-4.11,5.17-3.7l21.82,3.61c2.45,0.41,4.11,2.72,3.7,5.17C1037.63,474.5,1035.73,476.06,1033.56,476.06z"/>
<path class="st1" d="M1524.96,630.93c-0.27,0-0.54-0.02-0.81-0.07l-475.31-86.21c-2.45-0.44-4.07-2.79-3.62-5.23
	c0.44-2.44,2.78-4.07,5.23-3.62L1525.75,622c2.45,0.44,4.07,2.79,3.62,5.23C1528.98,629.4,1527.09,630.93,1524.96,630.93z"/>
<path class="st1" d="M1023.2,539.92c-0.27,0-0.54-0.02-0.81-0.07l-21.71-3.94c-2.45-0.44-4.07-2.79-3.62-5.23
	c0.44-2.45,2.78-4.07,5.23-3.62l21.71,3.94c2.45,0.44,4.07,2.79,3.62,5.23C1027.22,538.4,1025.33,539.92,1023.2,539.92z"/>
<path class="st1" d="M1314.26,1344.48c-0.39,0-0.79-0.05-1.19-0.16l-277.95-75.99c-2.4-0.66-3.81-3.13-3.15-5.53
	s3.13-3.81,5.53-3.15l277.95,75.99c2.4,0.66,3.81,3.13,3.15,5.53C1318.05,1343.17,1316.24,1344.48,1314.26,1344.48z"/>
<path class="st1" d="M1109.89,1184.1c-0.38,0-0.76-0.05-1.14-0.15L820,1108.81c-2.41-0.63-3.85-3.08-3.22-5.49
	c0.63-2.4,3.08-3.85,5.49-3.22l288.75,75.15c2.41,0.63,3.85,3.08,3.22,5.49C1113.71,1182.76,1111.89,1184.1,1109.89,1184.1z"/>
<path class="st1" d="M1425.38,1208.18c-0.37,0-0.74-0.04-1.11-0.14L854.7,1063.8c-2.41-0.61-3.87-3.06-3.26-5.47
	c0.61-2.41,3.05-3.87,5.47-3.26l569.57,144.25c2.41,0.61,3.87,3.06,3.26,5.47C1429.23,1206.83,1427.4,1208.18,1425.38,1208.18z"/>
<path class="st1" d="M1283.37,1115.07c-0.36,0-0.72-0.04-1.08-0.13l-400.19-98.32c-2.41-0.59-3.89-3.03-3.3-5.44
	c0.59-2.41,3.03-3.89,5.44-3.3l400.19,98.32c2.41,0.59,3.89,3.03,3.3,5.44C1287.24,1113.7,1285.4,1115.07,1283.37,1115.07z"/>
<path class="st1" d="M1470.93,1109.59c-0.35,0-0.7-0.04-1.05-0.12L904.72,973.81c-2.42-0.58-3.91-3.01-3.33-5.43
	c0.58-2.42,3.01-3.91,5.43-3.33l565.16,135.66c2.42,0.58,3.91,3.01,3.33,5.43C1474.8,1108.21,1472.96,1109.59,1470.93,1109.59z"/>
<path class="st1" d="M1490.46,1051.35c-0.34,0-0.68-0.04-1.02-0.12L926.59,920.38c-2.42-0.56-3.93-2.98-3.36-5.4
	c0.56-2.42,2.98-3.93,5.4-3.36l562.85,130.86c2.42,0.56,3.93,2.98,3.36,5.4C1494.36,1049.95,1492.5,1051.35,1490.46,1051.35z"/>
<path class="st1" d="M1332.47,902.06c-0.32,0-0.64-0.03-0.96-0.1L957.25,820.1c-2.43-0.53-3.97-2.93-3.43-5.36
	c0.53-2.43,2.93-3.96,5.36-3.43l374.25,81.85c2.43,0.53,3.97,2.93,3.44,5.36C1336.41,900.62,1334.54,902.06,1332.47,902.06z"/>
<path class="st1" d="M1318.8,651.9c-0.28,0-0.56-0.03-0.84-0.08l-323.53-60.9c-2.44-0.46-4.05-2.81-3.59-5.25
	c0.46-2.44,2.81-4.05,5.25-3.59l323.53,60.9c2.44,0.46,4.05,2.81,3.59,5.25C1322.82,650.4,1320.93,651.9,1318.8,651.9z"/>
<path class="st1" d="M1537.95,767.82c-0.29,0-0.58-0.03-0.88-0.09L987.03,659.16c-2.44-0.48-4.02-2.85-3.54-5.29
	c0.48-2.44,2.85-4.03,5.29-3.54l550.04,108.58c2.44,0.48,4.03,2.85,3.54,5.29C1541.93,766.34,1540.05,767.82,1537.95,767.82z"/>
<path class="st1" d="M1425.39,811c-0.3,0-0.6-0.03-0.91-0.09l-446.31-91.63c-2.43-0.5-4-2.88-3.5-5.31c0.5-2.44,2.88-4,5.31-3.5
	l446.31,91.63c2.43,0.5,4,2.88,3.5,5.31C1429.35,809.54,1427.48,811,1425.39,811z"/>
<path class="st1" d="M1524.96,892.25c-0.31,0-0.62-0.03-0.94-0.1L967.87,773.94c-2.43-0.52-3.98-2.91-3.47-5.34
	c0.52-2.43,2.91-3.98,5.34-3.47l556.14,118.21c2.43,0.52,3.98,2.91,3.47,5.34C1528.9,890.8,1527.04,892.25,1524.96,892.25z"/>
<g>
	<g>
		<path class="st2" d="M1241.97,1299.57c-3.68,3.34-9.38,3.05-12.71-0.63s-3.06-9.38,0.63-12.71l38.44-34.82
			c3.68-3.34,9.38-3.05,12.71,0.63s3.06,9.38-0.63,12.71L1241.97,1299.57z"/>
		<path class="st1" d="M1235.93,1306.4c-3.81,0-7.45-1.62-10.01-4.44c-2.42-2.67-3.66-6.13-3.48-9.73s1.75-6.92,4.42-9.34
			l38.44-34.82c2.49-2.25,5.71-3.49,9.06-3.49c3.81,0,7.45,1.62,10.01,4.44c5,5.52,4.58,14.07-0.94,19.07l-38.44,34.82
			C1242.51,1305.16,1239.29,1306.4,1235.93,1306.4z M1274.37,1253.58c-1.12,0-2.19,0.41-3.02,1.16l-38.44,34.82
			c-0.89,0.81-1.41,1.91-1.47,3.11c-0.06,1.2,0.35,2.35,1.16,3.24c0.86,0.95,2.05,1.48,3.34,1.48c1.12,0,2.19-0.41,3.02-1.16
			l38.44-34.82c1.84-1.67,1.98-4.52,0.31-6.36C1276.84,1254.11,1275.66,1253.58,1274.37,1253.58z"/>
	</g>
	<path class="st4" d="M1303.01,1264.44c-7.74,7.01-24.18,10.24-28.4,5.57l-12.08-13.34c-4.23-4.67,0.6-20.7,8.35-27.72l48.58-68.37
		c8.19-7.41,64.58,54.84,56.39,62.26L1303.01,1264.44z"/>
	<path class="st2" d="M1303.01,1264.44l72.83-41.6c1.24-1.13,0.99-3.53-0.36-6.75h-34.71l-66.18,53.93
		C1278.83,1274.68,1295.26,1271.45,1303.01,1264.44z"/>
	<g>
		<path class="st1" d="M1281.81,1276.7c-4.79,0-8.33-1.23-10.54-3.67l-12.08-13.34c-4.24-4.68-2.63-12.85-1.29-17.3
			c1.95-6.48,5.51-12.58,9.57-16.42l48.31-68c0.19-0.27,0.41-0.51,0.65-0.73c0.89-0.81,2.46-1.78,4.83-1.78
			c8.03,0,21.89,12.84,32.11,23.61c9.86,10.4,22.74,26.07,26.57,36.01c1.92,4.97,1.56,8.7-1.08,11.09
			c-0.24,0.22-0.51,0.41-0.79,0.57l-72.43,41.37C1299.14,1273.75,1288.81,1276.7,1281.81,1276.7z M1322.08,1164.64l-47.55,66.92
			c-0.19,0.27-0.41,0.51-0.65,0.73c-7.04,6.38-9.65,19.21-8.02,21.37l12.07,13.33c0.19,0.18,1.34,0.71,3.87,0.71
			c6.11,0,14.09-2.9,18.18-6.6c0.24-0.22,0.51-0.41,0.79-0.57l71.29-40.72c-0.85-3.91-7.68-15.26-21.6-30.62
			C1336.53,1173.81,1325.9,1165.87,1322.08,1164.64z"/>
	</g>
	<g>
		<path class="st5" d="M1727.78,950.94c-6.55,5.93-34.56,43.22-40.49,36.67s-5.43-16.67,1.12-22.6c0,0,128.6-104.91,168.67-142.99
			c16.34-15.53,61.74-65.72,61.74-65.72c6.55-5.93,16.67-5.43,22.6,1.12c5.93,6.55-9.19,29.91-15.74,35.84L1727.78,950.94z"/>
		<path class="st1" d="M1689.12,992.88c-2.02,0-3.85-0.8-5.17-2.25c-7.59-8.38-6.95-21.37,1.43-28.96c0.06-0.05,0.12-0.1,0.18-0.15
			c1.29-1.05,128.93-105.24,168.42-142.76c16.03-15.23,61.05-64.97,61.5-65.47c0.1-0.11,0.21-0.22,0.32-0.32
			c3.78-3.42,8.66-5.31,13.76-5.31c5.78,0,11.32,2.46,15.2,6.74c4.04,4.46,3.18,12.28-2.53,23.25c-3.83,7.35-9.52,15.32-13.52,18.95
			c-0.07,0.06-0.14,0.12-0.22,0.18l-197.78,157.58c-1.54,1.43-4.81,5.22-8.26,9.23C1705.37,983.44,1696.03,992.88,1689.12,992.88z
			 M1691.35,968.42c-4.32,3.99-4.89,10.56-1.5,15.22c5.44-2.29,19.56-18.69,25.78-25.92c4.03-4.68,7.21-8.38,9.13-10.12
			c0.07-0.06,0.14-0.12,0.22-0.18l197.78-157.58c2.74-2.53,7.65-9.11,11.26-15.92c4.83-9.12,4.43-12.96,4.06-13.48
			c-2.17-2.39-5.28-3.77-8.52-3.77c-2.79,0-5.46,1.01-7.56,2.84c-3.45,3.81-45.87,50.62-61.82,65.78
			C1820.91,862.6,1695.54,965,1691.35,968.42z"/>
	</g>
	<g>
		<path class="st5" d="M1923.71,753.28l-5.84-16.01l-39.34,35.63c0,0,16.97-2.94,9.5,16.97L1923.71,753.28z"/>
		<path class="st1" d="M1888.03,794.37c-0.83,0-1.67-0.23-2.41-0.7c-1.8-1.14-2.55-3.39-1.8-5.38c2.52-6.7,1.43-9.08,1.03-9.65
			c-0.87-1.25-3.2-1.39-4.16-1.39c-0.83,0-1.41,0.09-1.42,0.09c-1.96,0.31-3.92-0.7-4.78-2.5c-0.86-1.8-0.45-3.94,1.02-5.28
			l39.34-35.63c1.11-1.01,2.65-1.39,4.1-1.03c1.45,0.36,2.63,1.42,3.15,2.83l5.84,16.01c0.59,1.62,0.2,3.44-1.01,4.68l-35.68,36.59
			C1890.38,793.9,1889.21,794.37,1888.03,794.37z M1888.38,770.05c1.56,0.86,2.87,2.03,3.87,3.46c0.79,1.14,1.36,2.41,1.72,3.82
			l24.54-25.17l-2.58-7.07L1888.38,770.05z"/>
	</g>
	<path class="st6" d="M1932.55,696.99l-34.91-38.54c-7.41-8.19-20.06-8.81-28.25-1.4c0,0-226.25,205.59-225.99,206.44
		c-0.3,1.16-0.4,2.49-0.32,3.95l-323.63,293.14c-3.93,9.74-2.9,31.75,10.81,46.88c13.71,15.13,35.5,18.32,45.59,15.38l323.63-293.14
		c1.44,0.22,2.77,0.25,3.96,0.07c0.82,0.34,227.72-204.53,227.72-204.53C1939.34,717.82,1939.97,705.17,1932.55,696.99z"/>
	<path class="st6" d="M1703.43,929.76c-7.5,6.79-28.51-1.94-44.71-19.83c-16.2-17.89-22.82-39.65-15.32-46.44l232.72-212.54
		l61.76,68.19L1703.43,929.76z"/>
	<path class="st1" d="M1936.58,703.72l-32.26,0.46L1664.77,916l9.72,7.65l-333.71,292.45c12.61,7.65,27.3,9.02,35.06,6.75
		l323.63-293.14c1.44,0.22,2.77,0.25,3.96,0.07c0.82,0.34,227.72-204.53,227.72-204.53C1937.32,719.65,1939.2,711.1,1936.58,703.72z
		"/>
	<g>
		<path class="st1" d="M1367.8,1228.33c-11.95,0-28.96-4.69-40.88-17.85c-15.31-16.91-16-40.77-11.64-51.58
			c0.25-0.63,0.65-1.2,1.15-1.65l319.88-289.75c0.8-2.92,2.81-5.93,3.68-6.94c0.69-0.78,1.62-1.67,2.82-2.79
			c1.65-1.56,4.08-3.82,7.17-6.69c5.85-5.41,14.45-13.32,25.58-23.52c18.74-17.16,44.88-41.03,77.71-70.93
			c55.89-50.92,112.53-102.39,113.1-102.91c4.52-4.09,10.36-6.35,16.45-6.35c6.91,0,13.53,2.93,18.16,8.05l34.91,38.54
			c4.39,4.85,6.64,11.12,6.31,17.66c-0.32,6.54-3.17,12.56-8.02,16.95c-0.57,0.52-57.29,51.73-113.43,102.28
			c-32.97,29.69-59.29,53.35-78.23,70.32c-11.25,10.08-19.99,17.88-25.97,23.18c-10.5,9.31-11.17,9.91-12.82,9.92
			c-0.86,0.11-1.76,0.14-2.7,0.1l-322.16,291.81c-0.5,0.46-1.11,0.79-1.76,0.98C1374.44,1227.94,1371.31,1228.33,1367.8,1228.33z
			 M1323.28,1163.18c-3.11,9.23-1.31,28.44,10.3,41.26c9.96,10.99,24.65,14.89,34.21,14.89c2.19,0,4.19-0.2,5.84-0.57l322.81-292.4
			c1-0.91,2.35-1.32,3.69-1.12c0.57,0.09,1.1,0.13,1.58,0.13c13.07-11.05,152.43-136.68,226.42-203.49
			c3.06-2.77,4.87-6.58,5.07-10.72c0.21-4.14-1.21-8.1-3.99-11.17l-34.91-38.54c-2.93-3.24-7.12-5.09-11.49-5.09
			c-3.85,0-7.54,1.42-10.4,4.01c-75.51,68.61-219.08,199.29-225.48,205.89c-0.04,0.05-0.08,0.1-0.12,0.15
			c-0.66,0.77-1.64,2.7-1.84,3.47c-0.03,1.23-0.56,2.4-1.48,3.24L1323.28,1163.18z M1647.71,862.18c0.21,0.69,0.25,1.4,0.13,2.08
			C1647.95,863.65,1647.94,862.94,1647.71,862.18z"/>
	</g>
	<g>
		<path class="st1" d="M1696.36,936.56c-11.71,0-28.18-9.49-40.97-23.61c-8.16-9.01-14.37-19.32-17.5-29.03
			c-3.46-10.75-2.57-19.19,2.49-23.77l232.71-212.52c0.88-0.81,2.04-1.23,3.25-1.17c1.2,0.06,2.32,0.59,3.12,1.47l61.76,68.19
			c0.8,0.89,1.22,2.06,1.16,3.25c-0.06,1.19-0.6,2.32-1.49,3.12l-234.45,210.62C1703.95,935.37,1700.46,936.56,1696.36,936.56z
			 M1875.82,657.33l-229.38,209.49c-1.65,1.49-2.62,6.14,0.03,14.36c2.7,8.39,8.39,17.78,15.6,25.74
			c12.28,13.56,26.55,20.65,34.29,20.65c1.28,0,3.02-0.2,4.05-1.13l231.11-207.62L1875.82,657.33z"/>
	</g>
	<g>
		<path class="st4" d="M1937.88,719.14c-6.3,5.71-25.24-4.92-42.29-23.75c-17.06-18.83-25.77-38.72-19.47-44.43
			c6.3-5.71,25.24,4.92,42.29,23.75C1935.47,693.54,1944.19,713.43,1937.88,719.14z"/>
		<path class="st1" d="M1933.24,725.18c-10.17,0-26.25-10.51-40.99-26.78c-8.57-9.46-15.41-19.53-19.28-28.35
			c-5.79-13.21-3.12-19.49,0.13-22.44c1.36-1.23,3.8-2.71,7.66-2.71c10.17,0,26.25,10.51,40.99,26.78
			c8.57,9.46,15.41,19.53,19.28,28.35c5.79,13.21,3.12,19.49-0.13,22.44C1939.54,723.71,1937.11,725.18,1933.24,725.18z
			 M1880.76,653.91c-0.76,0-1.36,0.14-1.62,0.38c-0.6,0.55-1.52,3.95,2.07,12.16c3.49,7.96,9.78,17.16,17.71,25.92
			c14.16,15.64,27.98,23.82,34.32,23.82c0.77,0,1.36-0.14,1.62-0.38c0.6-0.55,1.52-3.95-2.08-12.15
			c-3.49-7.96-9.78-17.16-17.71-25.92C1900.92,662.09,1887.1,653.91,1880.76,653.91z"/>
	</g>
</g>
<path class="st1" d="M1229.26,1303.44c-0.58,0-1.16-0.11-1.73-0.35c-22.9-9.52-34.26-33.12-37.84-42.06l-48.63,5.03
	c-1.4,0.14-2.79-0.38-3.75-1.4s-1.39-2.45-1.15-3.84c2.18-12.66,12.91-28.7,21.15-39.5c-42.35,17.33-95.07,65.44-95.65,65.98
	c-1.21,1.11-2.94,1.48-4.5,0.94c-1.56-0.53-2.7-1.88-2.98-3.5c-2.95-17.27,9.45-39.53,36.85-66.15c4.82-4.68,9.67-9.08,14.26-13.05
	c-11.33,4.32-25.79,9.41-43.5,14.84c-47.18,14.48-64.39,64.52-64.56,65.03c-0.79,2.36-3.34,3.63-5.69,2.84
	c-2.36-0.79-3.63-3.34-2.84-5.69c0.75-2.24,18.9-54.96,70.45-70.78c48.85-14.99,73.1-27.55,73.34-27.68c2.1-1.1,4.69-0.38,5.93,1.64
	c1.23,2.02,0.69,4.66-1.25,6.02c-19.97,14.05-67.61,53.25-73.75,81.96c19.11-16.53,68.91-57.16,106.08-65.84
	c1.91-0.45,3.89,0.4,4.89,2.08c1,1.69,0.79,3.83-0.51,5.29c-0.23,0.26-20.71,23.34-27.19,41.17l45.57-4.71
	c2.11-0.22,4.09,1.07,4.75,3.1c0.1,0.29,9.98,29.97,34.01,39.96c2.29,0.95,3.38,3.59,2.43,5.88
	C1232.7,1302.4,1231.02,1303.44,1229.26,1303.44z"/>
<g>
	<g>
		<path class="st1" d="M854.26,965.58c11.36,24.99-41.04,73.25-117.03,107.79c-75.99,34.54-146.8,42.28-158.16,17.29l-7.03-15.47
			L847.23,950.1L854.26,965.58z"/>
		<path class="st1" d="M617.16,1109.81c-22.46,0-37.04-5.98-42.19-17.3l-7.03-15.47c-0.49-1.09-0.54-2.33-0.12-3.44
			c0.42-1.12,1.27-2.02,2.35-2.52l275.19-125.07c2.26-1.03,4.93-0.03,5.96,2.23l7.03,15.47c6.36,14-3.16,33.7-26.81,55.49
			c-22.45,20.67-55.28,41.36-92.46,58.26C694.53,1097.72,648.94,1109.81,617.16,1109.81z M578,1077.41l5.17,11.38
			c3.52,7.75,15.6,12.02,33.99,12.02c30.56,0,74.75-11.79,118.21-31.54c36.33-16.51,68.32-36.64,90.09-56.69
			c20.26-18.66,29.27-35.12,24.71-45.14l-5.17-11.38L578,1077.41z"/>
	</g>
	<g>
		<path class="st2" d="M544.09,1018.29l22.96,50.52c11.36,24.99,82.95,16.9,159.9-18.08c76.95-34.97,130.13-83.59,118.77-108.58
			l-22.96-50.52L544.09,1018.29z"/>
		<path class="st1" d="M604.88,1087.83c-22.34,0-36.84-5.93-41.93-17.15l-22.96-50.52c-0.49-1.09-0.54-2.33-0.12-3.44
			c0.42-1.12,1.27-2.02,2.35-2.52l278.67-126.65c1.09-0.49,2.32-0.53,3.44-0.12c1.12,0.42,2.02,1.27,2.52,2.35l22.96,50.52
			c6.37,14.01-3.34,33.8-27.33,55.73c-22.77,20.82-56.04,41.7-93.68,58.81C683.36,1075.49,637.03,1087.83,604.88,1087.83z
			 M550.04,1020.53l21.1,46.42c3.48,7.66,15.46,11.87,33.74,11.87c30.93,0,75.86-12.03,120.2-32.18
			c36.8-16.73,69.23-37.06,91.33-57.26c20.27-18.53,29.69-35.49,25.21-45.36l-21.1-46.43L550.04,1020.53z"/>
	</g>
	<g>
		<path class="st4" d="M822.75,891.64c11.36,24.99-41.82,73.6-118.77,108.58c-76.95,34.97-148.54,43.07-159.9,18.08
			c-11.36-24.99,41.82-73.6,118.77-108.58C739.81,874.74,811.4,866.65,822.75,891.64z"/>
		<path class="st1" d="M581.92,1037.3c-22.33,0-36.83-5.93-41.93-17.15c-6.37-14.01,3.34-33.8,27.33-55.73
			c22.77-20.82,56.04-41.7,93.67-58.81c45.45-20.66,91.78-32.99,123.93-32.99c22.33,0,36.83,5.93,41.93,17.15
			c6.37,14.01-3.34,33.8-27.33,55.73c-22.77,20.82-56.04,41.7-93.68,58.81C660.4,1024.97,614.07,1037.3,581.92,1037.3z
			 M784.92,881.63c-30.93,0-75.86,12.03-120.2,32.18c-36.8,16.72-69.23,37.06-91.33,57.26c-20.27,18.53-29.69,35.49-25.21,45.36
			c3.48,7.66,15.46,11.87,33.74,11.87c30.93,0,75.86-12.03,120.2-32.18c36.8-16.72,69.23-37.06,91.33-57.26
			c20.27-18.53,29.69-35.49,25.21-45.36C815.18,885.84,803.2,881.63,784.92,881.63z"/>
	</g>
	<path class="st6" d="M754.02,915.92c0,0-112.73-8.11-107.57-197.72c0.1-1.87,0.19-5.88,0.19-5.88
		c0.42-29.23-6.79-63.24-22.11-96.96c-34.89-76.77-98.6-122.91-142.29-103.05c-43.69,19.86-50.83,98.19-15.94,174.97
		c16.38,36.03,39.1,65.31,63.12,84.19c146.17,120.77,78.2,210.99,78.2,210.99c5.97,13.13,44.69,7.41,84.2-10.54
		C731.32,953.96,759.99,929.05,754.02,915.92z"/>
	<path class="st1" d="M750.13,931.2c4.22-5.87,5.77-11.16,3.9-15.28c0,0-112.73-8.11-107.57-197.72c0.1-1.87,0.19-5.88,0.19-5.88
		c0.42-29.23-6.79-63.24-22.11-96.96c-34.89-76.77-98.6-122.91-142.29-103.05c0,0,99.14-20.02,117.25,196.73
		C619.66,950.5,749.94,931.23,750.13,931.2z"/>
	<g>
		<path class="st1" d="M626.29,994.12c-12.15,0-19.81-3.3-22.76-9.8c-0.68-1.5-0.49-3.25,0.5-4.57
			c0.16-0.21,16.19-22.15,14.78-57.96c-1.88-47.74-33.77-98.51-92.22-146.82c-25.47-20.04-48.34-50.52-64.39-85.83
			c-17.19-37.83-24.97-77.28-21.89-111.1c3.16-34.73,17.39-59.53,40.06-69.83c7.32-3.33,15.31-5.01,23.74-5.01
			c43.79,0,95,45.36,124.51,110.3c14.97,32.93,22.96,68.05,22.52,98.88c0,0.2-0.09,4.06-0.19,5.99
			c-2.06,75.83,15.22,133.26,49.97,166.08c26.07,24.62,53.16,26.96,53.43,26.98c1.64,0.12,3.08,1.13,3.76,2.62
			c8.08,17.78-26.3,44.62-64.44,61.95C668.73,987.35,643.53,994.12,626.29,994.12z M613.15,982.29c2.36,1.8,7.02,2.83,13.14,2.83
			c16.02,0,39.83-6.47,63.67-17.31c39.03-17.74,60-38.48,60.36-47.84c-8.59-1.38-32-6.96-55.08-28.53
			c-16.52-15.43-29.43-35.9-38.38-60.85c-11.07-30.86-16.08-68.72-14.89-112.53c0-0.04,0-0.07,0-0.11c0.09-1.79,0.18-5.72,0.18-5.76
			c0.43-29.49-7.28-63.24-21.71-94.99c-14.03-30.86-32.94-57.34-54.7-76.59C545,522.3,523.11,512.2,504.12,512.2
			c-7.14,0-13.88,1.41-20.02,4.21c-19.6,8.91-31.96,31.09-34.82,62.45c-2.94,32.28,4.56,70.12,21.12,106.56
			c15.48,34.05,37.42,63.35,61.8,82.52c0.03,0.02,0.06,0.05,0.09,0.07c33.77,27.91,58.99,56.57,74.95,85.2
			c12.9,23.14,19.83,46.32,20.6,68.91C628.9,953.59,617.77,974.87,613.15,982.29z"/>
	</g>
</g>
<path class="st4" d="M522.69,587.86c4.32,32.98-0.55,115.86-18.27,115.86c-22.19,0-45.9-69.22-45.85-118.57
	c0.04-33.26,16.9-59.56,34.61-58.81C510.89,527.09,518,552.05,522.69,587.86z"/>
<path class="st4" d="M746.53,1014.46c4.89,6.31,27.93-3.37,51.45-21.61c23.52-18.24,38.62-38.15,33.73-44.45
	c-4.89-6.31-27.93,3.37-51.45,21.61C756.74,988.25,741.64,1008.15,746.53,1014.46z"/>
<path class="st3" d="M893.76,1250.65c-11.86,0-23.18-2.56-33.66-7.61c-44.23-21.31-59.72-81.17-34.53-133.43
	c18.66-38.72,54.86-63.74,92.21-63.74c11.86,0,23.18,2.56,33.66,7.61c21.56,10.39,36.99,30.09,43.45,55.47
	c6.39,25.09,3.22,52.78-8.92,77.96C967.31,1225.63,931.12,1250.65,893.76,1250.65z M917.77,1054.86
	c-33.92,0-66.94,23.02-84.11,58.65c-23.03,47.79-9.42,102.26,30.33,121.42c9.25,4.46,19.26,6.72,29.76,6.72
	c33.92,0,66.94-23.02,84.11-58.65c11.22-23.28,14.17-48.8,8.3-71.84c-5.79-22.76-19.51-40.36-38.64-49.58
	C938.28,1057.12,928.27,1054.86,917.77,1054.86z"/>
<path class="st3" d="M958.98,1173.9c-16.87,35.01-54.37,51.91-83.76,37.75c-29.39-14.16-39.53-54.03-22.66-89.04
	c16.87-35.01,54.37-51.92,83.76-37.75C965.7,1099.02,975.85,1138.89,958.98,1173.9z"/>
<path class="st1" d="M1036.31,384.77h-13.66c-2.49,0-4.5-2.01-4.5-4.5c0-2.49,2.01-4.5,4.5-4.5h13.66c2.49,0,4.5,2.01,4.5,4.5
	C1040.81,382.76,1038.8,384.77,1036.31,384.77z"/>
<path class="st1" d="M1091.75,358.02h-13.66c-2.49,0-4.5-2.01-4.5-4.5c0-2.49,2.01-4.5,4.5-4.5h13.66c2.49,0,4.5,2.01,4.5,4.5
	C1096.25,356,1094.24,358.02,1091.75,358.02z"/>
<path class="st1" d="M2062.26,1344.57c-1.03,11-10.79,19.07-21.78,18.04l-339.12-31.84c-11-1.03-19.08-10.78-18.04-21.78l1.34-14.29
	c1.03-11,10.79-19.08,21.78-18.04l339.12,31.84c11,1.03,19.07,10.79,18.04,21.78L2062.26,1344.57z"/>
<ellipse transform="matrix(0.8144 -0.5804 0.5804 0.8144 -88.6213 533.1851)" class="st0" cx="789.12" cy="405.12" rx="109.23" ry="54.94"/>
</svg>
