<?xml version="1.0" encoding="UTF-8"?>
<svg xmlns="http://www.w3.org/2000/svg" viewBox="0 0 1920 1080">
  <defs>
    <style>
      .cls-1 {
        fill: #0071bc;
      }

      .cls-1, .cls-2, .cls-3, .cls-4 {
        stroke-width: 0px;
      }

      .cls-5 {
        stroke: #c0c1c5;
      }

      .cls-5, .cls-6, .cls-7, .cls-8, .cls-9, .cls-10, .cls-11, .cls-12 {
        stroke-miterlimit: 10;
      }

      .cls-5, .cls-7 {
        stroke-width: 2.13px;
      }

      .cls-5, .cls-12 {
        fill: none;
      }

      .cls-13 {
        letter-spacing: -.05em;
      }

      .cls-6 {
        stroke-width: 3.56px;
      }

      .cls-6, .cls-7, .cls-8, .cls-9, .cls-10, .cls-11 {
        stroke: #fff;
      }

      .cls-6, .cls-7, .cls-9, .cls-11 {
        fill: gold;
      }

      .cls-2 {
        fill: #c0c1c5;
      }

      .cls-3, .cls-8, .cls-10 {
        fill: #666;
      }

      .cls-8, .cls-10 {
        stroke-width: 4.01px;
      }

      .cls-14 {
        fill: #000;
        font-family: Verdana, Verdana;
        font-size: 57.51px;
      }

      .cls-9 {
        stroke-width: 3.81px;
      }

      .cls-10 {
        opacity: .9;
      }

      .cls-4, .cls-15 {
        fill: #fff;
      }

      .cls-16 {
        fill: #575757;
        font-family: OpenSans-SemiBold, 'OpenSans SemiBold';
        font-size: 35.25px;
        font-weight: 600;
      }

      .cls-11 {
        stroke-width: 3.36px;
      }

      .cls-15 {
        font-family: SourceSansPro-Regular, 'Source Sans Pro';
        font-size: 53.8px;
      }

      .cls-12 {
        stroke: #0071bc;
        stroke-width: 4px;
      }
    </style>
  </defs>
  <g id="Background">
    <rect class="cls-4" width="1920" height="1080"/>
  </g>
  <g id="Design">
    <rect class="cls-10" x="1641.63" y="53.95" width="269.34" height="319.27"/>
    <g id="Elements">
      <g>
        <path class="cls-7" d="M308.27,930.95h133.41c37.51,0,67.97,30.46,67.97,67.97v51.48H240.3v-51.48c0-37.51,30.46-67.97,67.97-67.97Z"/>
        <path class="cls-6" d="M658.6,613.75h133.41c37.51,0,67.97,30.46,67.97,67.97v368.68h-269.34v-368.68c0-37.51,30.46-67.97,67.97-67.97Z"/>
        <path class="cls-11" d="M1008.93,772.35h133.41c37.51,0,67.97,30.46,67.97,67.97v210.08h-269.34v-210.08c0-37.51,30.46-67.97,67.97-67.97Z"/>
        <path class="cls-9" d="M1359.27,455.15h133.41c37.51,0,67.97,30.46,67.97,67.97v527.28h-269.34v-527.28c0-37.51,30.46-67.97,67.97-67.97Z"/>
        <path class="cls-8" d="M1709.6,296.55h133.41c37.51,0,67.97,30.46,67.97,67.97v685.88h-269.34V364.52c0-37.51,30.46-67.97,67.97-67.97Z"/>
      </g>
      <g>
        <ellipse class="cls-2" cx="179.2" cy="927.89" rx="17.61" ry="17.58"/>
        <ellipse class="cls-2" cx="179.2" cy="769.29" rx="17.61" ry="17.58"/>
        <ellipse class="cls-2" cx="179.2" cy="610.69" rx="17.61" ry="17.58"/>
        <ellipse class="cls-2" cx="179.2" cy="452.09" rx="17.61" ry="17.58"/>
        <ellipse class="cls-2" cx="179.2" cy="293.49" rx="17.61" ry="17.58"/>
        <ellipse class="cls-2" cx="179.2" cy="134.89" rx="17.61" ry="17.58"/>
        <ellipse class="cls-2" cx="179.2" cy="1050.4" rx="17.61" ry="17.58"/>
        <line class="cls-5" x1="1910.98" y1="1050.4" x2="179.2" y2="1050.4"/>
        <line class="cls-5" x1="179.2" y1="1050.4" x2="179.2" y2="134.89"/>
      </g>
    </g>
    <g id="Font">
      <g>
        <text class="cls-16" transform="translate(105.59 942.41)"><tspan x="0" y="0">50</tspan></text>
        <text class="cls-16" transform="translate(113.11 1058.79)"><tspan x="0" y="0">0</tspan></text>
        <text class="cls-16" transform="translate(88.75 782.99)"><tspan x="0" y="0">100</tspan></text>
        <text class="cls-16" transform="translate(88.75 623.95)"><tspan x="0" y="0">150</tspan></text>
        <text class="cls-16" transform="translate(88.75 464.9)"><tspan x="0" y="0">200</tspan></text>
        <text class="cls-16" transform="translate(88.75 305.86)"><tspan x="0" y="0">250</tspan></text>
        <text class="cls-16" transform="translate(88.75 146.82)"><tspan x="0" y="0">300</tspan></text>
      </g>
    </g>
    <g>
      <path class="cls-4" d="M1742.05,550.35h5.18l11.91,35.29h-4.8l-3.34-10.71h-12.88l-3.4,10.71h-4.58l11.91-35.29ZM1739.3,571.28h10.57l-1.67-5.33c-1.29-3.93-2.43-7.8-3.56-11.89h-.22c-1.08,4.09-2.21,7.96-3.45,11.89l-1.67,5.33Z"/>
      <path class="cls-4" d="M1763.72,559.5h3.67l.38,3.77h.16c2.48-2.47,5.18-4.41,8.79-4.41,5.55,0,8.03,3.55,8.03,10.22v16.57h-4.47v-15.98c0-4.9-1.51-6.94-4.96-6.94-2.64,0-4.53,1.34-7.12,3.98v18.94h-4.47v-26.15Z"/>
      <path class="cls-4" d="M1790.57,596.35l.97-3.5c.65.21,1.29.32,1.94.32,2.91,0,4.8-2.31,5.88-5.54l.59-1.94-10.51-26.2h4.64l5.28,14.42c.86,2.26,1.72,4.95,2.59,7.37h.21c.7-2.37,1.46-5.06,2.16-7.37l4.69-14.42h4.37l-9.87,28.3c-1.83,5.17-4.58,9.09-9.81,9.09-1.24,0-2.26-.22-3.13-.54Z"/>
      <path class="cls-4" d="M1663.8,637.19c0-8.5,5.39-13.77,11.37-13.77,3.02,0,5.01,1.13,7.33,3.01l-.22-4.47v-10.06h4.47v38.31h-3.67l-.38-3.07h-.16c-2.05,1.99-4.85,3.71-7.92,3.71-6.58,0-10.83-4.95-10.83-13.67ZM1682.29,643.54v-13.67c-2.21-1.99-4.21-2.69-6.36-2.69-4.15,0-7.49,3.98-7.49,9.95s2.59,9.95,7.17,9.95c2.43,0,4.53-1.18,6.68-3.55Z"/>
      <path class="cls-4" d="M1693.67,637.19c0-8.77,5.71-13.77,12.13-13.77s12.18,5,12.18,13.77-5.77,13.67-12.18,13.67-12.13-5-12.13-13.67ZM1713.34,637.19c0-6.03-3.02-10.06-7.55-10.06s-7.49,4.04-7.49,10.06,3.02,9.95,7.49,9.95,7.55-3.98,7.55-9.95Z"/>
      <path class="cls-4" d="M1722.89,637.19c0-8.77,5.88-13.77,12.62-13.77,3.45,0,5.82,1.35,7.66,3.07l-2.21,2.8c-1.46-1.35-3.13-2.15-5.23-2.15-4.74,0-8.19,4.04-8.19,10.06s3.23,9.95,8.03,9.95c2.43,0,4.58-1.08,6.15-2.48l1.94,2.85c-2.37,2.15-5.34,3.34-8.46,3.34-6.96,0-12.29-5-12.29-13.67Z"/>
      <path class="cls-4" d="M1749.03,640.63v-16.57h4.47v15.98c0,4.84,1.51,6.94,4.96,6.94,2.64,0,4.53-1.34,6.95-4.41v-18.51h4.47v26.15h-3.67l-.38-4.09h-.16c-2.43,2.85-5.01,4.73-8.63,4.73-5.55,0-8.03-3.55-8.03-10.22Z"/>
      <path class="cls-4" d="M1778.74,624.06h3.67l.38,3.77h.16c2.32-2.47,5.01-4.41,8.14-4.41,4.04,0,6.2,1.88,7.28,4.95,2.7-2.91,5.44-4.95,8.62-4.95,5.39,0,7.98,3.55,7.98,10.22v16.57h-4.47v-15.98c0-4.9-1.56-6.94-4.85-6.94-2.05,0-4.15,1.29-6.58,3.98v18.94h-4.47v-15.98c0-4.9-1.51-6.94-4.85-6.94-1.94,0-4.1,1.29-6.52,3.98v18.94h-4.47v-26.15Z"/>
      <path class="cls-4" d="M1821.49,637.14c0-8.5,5.77-13.72,11.75-13.72,6.68,0,10.51,4.74,10.51,12.27,0,.97-.05,1.78-.22,2.64h-17.63c.38,5.38,3.67,8.93,8.63,8.93,2.53,0,4.74-.7,6.58-1.94l1.56,2.85c-2.26,1.61-5.07,2.69-8.68,2.69-7.01,0-12.51-5.06-12.51-13.72ZM1839.76,634.88c0-5.17-2.43-7.91-6.42-7.91-3.67,0-6.9,2.91-7.44,7.91h13.85Z"/>
      <path class="cls-4" d="M1850.17,624.06h3.67l.38,3.77h.16c2.48-2.47,5.18-4.41,8.79-4.41,5.55,0,8.03,3.55,8.03,10.22v16.57h-4.47v-15.98c0-4.9-1.51-6.94-4.96-6.94-2.64,0-4.53,1.34-7.12,3.98v18.94h-4.47v-26.15Z"/>
      <path class="cls-4" d="M1880.41,642.09v-14.42h-3.88v-3.34l4.1-.27.54-8.39h3.72v8.39h7.12v3.61h-7.12v14.53c0,3.17,1.08,5,4.04,5,.97,0,1.94-.16,3.02-.65l.92,3.17c-1.4.65-3.18,1.13-4.96,1.13-5.61,0-7.49-3.55-7.49-8.77Z"/>
    </g>
    <g>
      <path class="cls-4" d="M1664.76,161.59h20.38v3.82h-15.85v11.03h13.37v3.82h-13.37v12.81h16.39v3.82h-20.92v-35.29Z"/>
      <path class="cls-4" d="M1695.98,183.22l-7.92-12.48h4.85l3.5,5.7c.81,1.45,1.67,2.91,2.53,4.36h.22c.81-1.45,1.56-2.91,2.37-4.36l3.18-5.7h4.69l-7.92,12.97,8.52,13.18h-4.85l-3.83-6.08c-.92-1.56-1.89-3.17-2.86-4.68h-.21c-.86,1.51-1.73,3.12-2.64,4.68l-3.5,6.08h-4.69l8.57-13.67Z"/>
      <path class="cls-4" d="M1714.63,188.76v-14.42h-3.88v-3.34l4.1-.27.54-8.39h3.72v8.39h7.12v3.6h-7.12v14.53c0,3.17,1.08,5,4.04,5,.97,0,1.94-.16,3.02-.65l.92,3.17c-1.4.65-3.18,1.13-4.96,1.13-5.61,0-7.49-3.55-7.49-8.77Z"/>
      <path class="cls-4" d="M1732.15,170.74h3.67l.38,4.73h.16c1.83-3.28,4.53-5.38,7.44-5.38,1.19,0,1.99.16,2.8.54l-.97,3.82c-.75-.22-1.35-.32-2.37-.32-2.21,0-4.85,1.56-6.63,5.97v16.79h-4.47v-26.15Z"/>
      <path class="cls-4" d="M1748,190.1c0-5.81,4.85-8.61,16.06-9.85-.05-3.28-1.13-6.46-5.39-6.46-3.02,0-5.77,1.34-7.82,2.69l-1.72-3.01c2.43-1.61,6.09-3.39,10.3-3.39,6.36,0,9.11,4.25,9.11,10.71v16.09h-3.67l-.43-3.12h-.16c-2.48,2.1-5.34,3.77-8.63,3.77-4.37,0-7.65-2.69-7.65-7.42ZM1764.07,190.54v-7.1c-8.84,1.02-11.7,3.01-11.7,6.4,0,2.91,2,4.04,4.53,4.04s4.64-1.13,7.17-3.34Z"/>
      <path class="cls-4" d="M1787.57,170.74h3.67l.38,3.01h.16c2.37-1.99,5.34-3.66,8.36-3.66,6.74,0,10.4,5.22,10.4,13.34,0,8.88-5.39,14.1-11.38,14.1-2.37,0-4.85-1.13-7.22-3.01l.11,4.57v8.82h-4.47v-37.18ZM1805.9,183.43c0-5.76-2-9.58-6.9-9.58-2.21,0-4.42,1.18-6.95,3.55v13.67c2.37,1.99,4.64,2.69,6.36,2.69,4.31,0,7.49-3.87,7.49-10.33Z"/>
      <path class="cls-4" d="M1815.12,190.1c0-5.81,4.85-8.61,16.06-9.85-.05-3.28-1.13-6.46-5.39-6.46-3.02,0-5.77,1.34-7.82,2.69l-1.72-3.01c2.43-1.61,6.09-3.39,10.3-3.39,6.36,0,9.11,4.25,9.11,10.71v16.09h-3.67l-.43-3.12h-.16c-2.48,2.1-5.34,3.77-8.63,3.77-4.37,0-7.65-2.69-7.65-7.42ZM1831.19,190.54v-7.1c-8.84,1.02-11.7,3.01-11.7,6.4,0,2.91,2,4.04,4.53,4.04s4.64-1.13,7.17-3.34Z"/>
      <path class="cls-4" d="M1841.92,201.89c0-2.21,1.46-4.3,3.83-5.92v-.22c-1.29-.81-2.32-2.21-2.32-4.25,0-2.21,1.51-3.93,2.86-4.84v-.21c-1.73-1.4-3.4-3.93-3.4-7.05,0-5.7,4.53-9.31,9.87-9.31,1.46,0,2.75.27,3.72.65h9.11v3.44h-5.34c1.24,1.18,2.1,3.12,2.1,5.33,0,5.6-4.26,9.09-9.6,9.09-1.29,0-2.7-.32-3.88-.91-.97.81-1.67,1.67-1.67,3.12,0,1.61,1.08,2.8,4.58,2.8h5.07c6.09,0,9.17,1.94,9.17,6.24,0,4.9-5.12,9.09-13.26,9.09-6.42,0-10.84-2.53-10.84-7.05ZM1861.65,200.54c0-2.42-1.83-3.23-5.28-3.23h-4.47c-1.02,0-2.26-.11-3.4-.43-1.89,1.35-2.7,2.91-2.7,4.41,0,2.8,2.86,4.52,7.6,4.52s8.25-2.58,8.25-5.27ZM1858.3,179.4c0-3.77-2.48-6.08-5.55-6.08s-5.55,2.26-5.55,6.08,2.53,6.19,5.55,6.19,5.55-2.37,5.55-6.19Z"/>
      <path class="cls-4" d="M1868.44,183.81c0-8.5,5.77-13.72,11.75-13.72,6.68,0,10.51,4.73,10.51,12.27,0,.97-.05,1.78-.22,2.64h-17.63c.38,5.38,3.67,8.93,8.62,8.93,2.53,0,4.74-.7,6.58-1.94l1.56,2.85c-2.26,1.61-5.07,2.69-8.68,2.69-7.01,0-12.51-5.06-12.51-13.72ZM1886.72,181.55c0-5.17-2.43-7.91-6.42-7.91-3.67,0-6.9,2.91-7.44,7.91h13.85Z"/>
    </g>
  </g>
  <g id="Dimensions">
    <path class="cls-12" d="M240.3,441.6v-34.24h1306.5v34.17"/>
    <text class="cls-14" transform="translate(60.12 658.72) rotate(-90)"><tspan class="cls-13" x="0" y="0">W</tspan><tspan x="54.05" y="0">ord count</tspan></text>
    <text class="cls-15" transform="translate(340.2 1013.57)"><tspan x="0" y="0">ID</tspan></text>
    <g>
      <path class="cls-4" d="M671.14,757.22h10.51c7.17,0,12.18,2.42,12.18,8.61,0,3.5-1.89,6.62-5.18,7.69v.21c4.2.81,7.17,3.61,7.17,8.45,0,6.94-5.5,10.33-13.37,10.33h-11.32v-35.29ZM680.9,772.23c5.98,0,8.46-2.21,8.46-5.81,0-4.09-2.8-5.6-8.3-5.6h-5.39v11.41h5.23ZM681.82,788.91c6.04,0,9.54-2.15,9.54-6.89,0-4.36-3.4-6.35-9.54-6.35h-6.15v13.24h6.15Z"/>
      <path class="cls-4" d="M701.71,758.08c0-1.72,1.24-2.91,2.96-2.91s2.97,1.18,2.97,2.91-1.24,2.91-2.97,2.91-2.96-1.13-2.96-2.91ZM702.41,766.36h4.47v26.15h-4.47v-26.15Z"/>
      <path class="cls-4" d="M715.73,766.36h3.67l.38,4.74h.16c1.83-3.28,4.53-5.38,7.44-5.38,1.19,0,1.99.16,2.8.54l-.97,3.82c-.75-.21-1.35-.32-2.37-.32-2.21,0-4.85,1.56-6.63,5.97v16.79h-4.47v-26.15Z"/>
      <path class="cls-4" d="M735.24,784.39v-14.42h-3.88v-3.34l4.1-.27.54-8.39h3.72v8.39h7.12v3.61h-7.12v14.53c0,3.17,1.08,5,4.04,5,.97,0,1.94-.16,3.02-.65l.92,3.17c-1.4.65-3.18,1.13-4.96,1.13-5.61,0-7.49-3.55-7.49-8.77Z"/>
      <path class="cls-4" d="M752.76,754.2h4.47v10.44l-.16,5.38c2.43-2.37,5.07-4.3,8.68-4.3,5.55,0,8.03,3.55,8.03,10.22v16.57h-4.47v-15.98c0-4.9-1.51-6.94-4.96-6.94-2.64,0-4.53,1.34-7.12,3.98v18.94h-4.47v-38.31Z"/>
      <path class="cls-4" d="M608.96,839.43c0-11.35,6.68-18.29,15.69-18.29,4.31,0,7.66,2.04,9.76,4.36l-2.48,2.8c-1.89-1.94-4.2-3.17-7.22-3.17-6.63,0-11.05,5.43-11.05,14.2s4.21,14.42,10.89,14.42c3.4,0,5.93-1.34,8.19-3.82l2.48,2.69c-2.86,3.28-6.31,5.11-10.84,5.11-8.84,0-15.42-6.78-15.42-18.29Z"/>
      <path class="cls-4" d="M639.42,844c0-8.5,5.77-13.72,11.75-13.72,6.69,0,10.51,4.74,10.51,12.27,0,.97-.05,1.78-.22,2.64h-17.63c.38,5.38,3.67,8.93,8.63,8.93,2.53,0,4.74-.7,6.58-1.94l1.56,2.85c-2.26,1.61-5.07,2.69-8.68,2.69-7.01,0-12.51-5.06-12.51-13.72ZM657.69,841.74c0-5.17-2.43-7.91-6.42-7.91-3.67,0-6.9,2.91-7.44,7.91h13.85Z"/>
      <path class="cls-4" d="M668.1,830.93h3.67l.38,4.74h.16c1.83-3.28,4.53-5.38,7.44-5.38,1.19,0,1.99.16,2.8.54l-.97,3.82c-.75-.21-1.35-.32-2.37-.32-2.21,0-4.85,1.56-6.63,5.97v16.79h-4.47v-26.15Z"/>
      <path class="cls-4" d="M687.61,848.95v-14.42h-3.88v-3.34l4.1-.27.54-8.39h3.72v8.39h7.12v3.61h-7.12v14.53c0,3.17,1.08,5,4.04,5,.97,0,1.94-.16,3.02-.65l.92,3.17c-1.4.65-3.18,1.13-4.96,1.13-5.61,0-7.49-3.55-7.49-8.77Z"/>
      <path class="cls-4" d="M704.43,822.64c0-1.72,1.24-2.91,2.96-2.91s2.97,1.18,2.97,2.91-1.24,2.91-2.97,2.91-2.96-1.13-2.96-2.91ZM705.13,830.93h4.47v26.15h-4.47v-26.15Z"/>
      <path class="cls-4" d="M719.2,834.54h-3.56v-3.34l3.56-.27v-4.09c0-5.33,2.43-8.72,7.66-8.72,1.62,0,3.29.38,4.37.86l-.97,3.28c-1.02-.32-1.99-.54-2.91-.54-2.48,0-3.67,1.78-3.67,5.11v4.09h5.5v3.61h-5.5v22.54h-4.47v-22.54Z"/>
      <path class="cls-4" d="M733.49,822.64c0-1.72,1.24-2.91,2.96-2.91s2.97,1.18,2.97,2.91-1.24,2.91-2.97,2.91-2.96-1.13-2.96-2.91ZM734.19,830.93h4.47v26.15h-4.47v-26.15Z"/>
      <path class="cls-4" d="M745.57,844.06c0-8.77,5.88-13.77,12.61-13.77,3.45,0,5.82,1.35,7.65,3.07l-2.21,2.8c-1.46-1.35-3.13-2.15-5.23-2.15-4.74,0-8.19,4.04-8.19,10.06s3.23,9.95,8.03,9.95c2.43,0,4.58-1.08,6.15-2.48l1.94,2.85c-2.37,2.15-5.34,3.34-8.46,3.34-6.95,0-12.29-5-12.29-13.67Z"/>
      <path class="cls-4" d="M769.93,850.3c0-5.81,4.85-8.61,16.06-9.85-.05-3.28-1.13-6.46-5.39-6.46-3.02,0-5.77,1.34-7.82,2.69l-1.73-3.01c2.43-1.61,6.09-3.39,10.3-3.39,6.36,0,9.11,4.25,9.11,10.71v16.09h-3.67l-.43-3.12h-.16c-2.48,2.1-5.34,3.77-8.63,3.77-4.37,0-7.66-2.69-7.66-7.42ZM786,850.73v-7.1c-8.84,1.02-11.7,3.01-11.7,6.4,0,2.91,1.99,4.04,4.53,4.04s4.64-1.13,7.17-3.34Z"/>
      <path class="cls-4" d="M798.72,848.95v-14.42h-3.88v-3.34l4.1-.27.54-8.39h3.72v8.39h7.12v3.61h-7.12v14.53c0,3.17,1.08,5,4.04,5,.97,0,1.94-.16,3.02-.65l.92,3.17c-1.4.65-3.18,1.13-4.96,1.13-5.61,0-7.49-3.55-7.49-8.77Z"/>
      <path class="cls-4" d="M813.55,844c0-8.5,5.77-13.72,11.75-13.72,6.69,0,10.51,4.74,10.51,12.27,0,.97-.05,1.78-.22,2.64h-17.63c.38,5.38,3.67,8.93,8.63,8.93,2.53,0,4.74-.7,6.58-1.94l1.56,2.85c-2.26,1.61-5.07,2.69-8.68,2.69-7.01,0-12.51-5.06-12.51-13.72ZM831.82,841.74c0-5.17-2.43-7.91-6.42-7.91-3.67,0-6.9,2.91-7.44,7.91h13.85Z"/>
    </g>
    <g>
      <path class="cls-4" d="M1011.84,881.05v-20.71h4.53v20.82c0,8.45,3.56,11.14,8.19,11.14s8.36-2.69,8.36-11.14v-20.82h4.37v20.71c0,11.3-5.5,15.23-12.72,15.23s-12.72-3.93-12.72-15.23Z"/>
      <path class="cls-4" d="M1047.15,887.51v-14.42h-3.88v-3.34l4.1-.27.54-8.39h3.72v8.39h7.12v3.61h-7.12v14.53c0,3.17,1.08,5,4.04,5,.97,0,1.94-.16,3.02-.65l.92,3.17c-1.4.65-3.18,1.13-4.96,1.13-5.61,0-7.49-3.55-7.49-8.77Z"/>
      <path class="cls-4" d="M1063.97,861.2c0-1.72,1.24-2.91,2.96-2.91s2.96,1.18,2.96,2.91-1.24,2.91-2.96,2.91-2.96-1.13-2.96-2.91ZM1064.67,869.48h4.47v26.15h-4.47v-26.15Z"/>
      <path class="cls-4" d="M1077.98,890.36v-33.04h4.47v33.36c0,1.4.59,1.88,1.29,1.88.27,0,.49,0,.92-.11l.59,3.34c-.65.32-1.46.48-2.59.48-3.34,0-4.69-2.15-4.69-5.92Z"/>
      <path class="cls-4" d="M1091.03,861.2c0-1.72,1.24-2.91,2.96-2.91s2.96,1.18,2.96,2.91-1.24,2.91-2.96,2.91-2.96-1.13-2.96-2.91ZM1091.73,869.48h4.47v26.15h-4.47v-26.15Z"/>
      <path class="cls-4" d="M1105.8,887.51v-14.42h-3.88v-3.34l4.1-.27.54-8.39h3.72v8.39h7.12v3.61h-7.12v14.53c0,3.17,1.08,5,4.04,5,.97,0,1.94-.16,3.02-.65l.92,3.17c-1.4.65-3.18,1.13-4.96,1.13-5.61,0-7.49-3.55-7.49-8.77Z"/>
      <path class="cls-4" d="M1120.68,906.34l.97-3.5c.65.21,1.29.32,1.94.32,2.91,0,4.8-2.31,5.88-5.54l.59-1.94-10.51-26.2h4.64l5.28,14.42c.86,2.26,1.72,4.95,2.59,7.37h.21c.7-2.37,1.46-5.06,2.16-7.37l4.69-14.42h4.37l-9.87,28.3c-1.83,5.17-4.58,9.09-9.81,9.09-1.24,0-2.26-.22-3.13-.54Z"/>
      <path class="cls-4" d="M1044.24,924.9h10.51c7.17,0,12.18,2.42,12.18,8.61,0,3.5-1.89,6.62-5.18,7.69v.21c4.21.81,7.17,3.61,7.17,8.45,0,6.94-5.5,10.33-13.37,10.33h-11.32v-35.29ZM1053.99,939.91c5.98,0,8.46-2.21,8.46-5.81,0-4.09-2.8-5.6-8.3-5.6h-5.39v11.41h5.23ZM1054.91,956.59c6.04,0,9.54-2.15,9.54-6.89,0-4.36-3.4-6.35-9.54-6.35h-6.15v13.24h6.15Z"/>
      <path class="cls-4" d="M1074.8,925.76c0-1.72,1.24-2.91,2.96-2.91s2.96,1.18,2.96,2.91-1.24,2.91-2.96,2.91-2.96-1.13-2.96-2.91ZM1075.5,934.05h4.47v26.15h-4.47v-26.15Z"/>
      <path class="cls-4" d="M1088.82,954.92v-33.04h4.47v33.36c0,1.4.59,1.88,1.29,1.88.27,0,.49,0,.92-.11l.59,3.34c-.65.32-1.46.48-2.59.48-3.34,0-4.69-2.15-4.69-5.92Z"/>
      <path class="cls-4" d="M1102.57,954.92v-33.04h4.47v33.36c0,1.4.59,1.88,1.29,1.88.27,0,.49,0,.92-.11l.59,3.34c-.65.32-1.46.48-2.59.48-3.34,0-4.69-2.15-4.69-5.92Z"/>
    </g>
    <g>
      <path class="cls-4" d="M1343.65,666.72h8.84c10.89,0,16.71,6.29,16.71,17.49s-5.82,17.81-16.5,17.81h-9.06v-35.29ZM1352.17,698.3c8.25,0,12.35-5.17,12.35-14.1s-4.1-13.77-12.35-13.77h-3.99v27.87h3.99Z"/>
      <path class="cls-4" d="M1374.49,688.99c0-8.77,5.71-13.77,12.13-13.77s12.18,5,12.18,13.77-5.77,13.67-12.18,13.67-12.13-5-12.13-13.67ZM1394.16,688.99c0-6.03-3.02-10.06-7.55-10.06s-7.49,4.04-7.49,10.06,3.02,9.95,7.49,9.95,7.55-3.98,7.55-9.95Z"/>
      <path class="cls-4" d="M1403.71,688.99c0-8.77,5.88-13.77,12.62-13.77,3.45,0,5.82,1.35,7.66,3.07l-2.21,2.8c-1.46-1.35-3.13-2.15-5.23-2.15-4.74,0-8.19,4.04-8.19,10.06s3.23,9.95,8.03,9.95c2.43,0,4.58-1.08,6.15-2.48l1.94,2.85c-2.37,2.15-5.34,3.34-8.46,3.34-6.96,0-12.29-5-12.29-13.67Z"/>
      <path class="cls-4" d="M1430.45,693.89v-14.42h-3.88v-3.34l4.1-.27.54-8.39h3.72v8.39h7.12v3.61h-7.12v14.53c0,3.17,1.08,5,4.04,5,.97,0,1.94-.16,3.02-.65l.92,3.17c-1.4.65-3.18,1.13-4.96,1.13-5.61,0-7.49-3.55-7.49-8.77Z"/>
      <path class="cls-4" d="M1445.27,688.99c0-8.77,5.71-13.77,12.13-13.77s12.18,5,12.18,13.77-5.77,13.67-12.18,13.67-12.13-5-12.13-13.67ZM1464.95,688.99c0-6.03-3.02-10.06-7.55-10.06s-7.49,4.04-7.49,10.06,3.02,9.95,7.49,9.95,7.55-3.98,7.55-9.95Z"/>
      <path class="cls-4" d="M1476.43,675.86h3.67l.38,4.74h.16c1.83-3.28,4.53-5.38,7.44-5.38,1.19,0,1.99.16,2.8.54l-.97,3.82c-.75-.21-1.35-.32-2.37-.32-2.21,0-4.85,1.56-6.63,5.97v16.79h-4.47v-26.15Z"/>
      <path class="cls-4" d="M1492.07,698.89l2.05-2.58c2.26,1.88,4.64,2.85,7.87,2.85,3.45,0,5.12-1.78,5.12-4.04,0-2.69-2.91-3.82-5.88-4.9-3.94-1.4-7.71-3.28-7.71-7.59s3.34-7.42,9.06-7.42c3.29,0,6.09,1.24,8.14,2.96l-2.05,2.58c-1.83-1.34-3.72-2.1-6.04-2.1-3.34,0-4.8,1.83-4.8,3.77,0,2.37,2.26,3.34,5.55,4.47,4.1,1.45,8.03,3.23,8.03,7.96,0,4.25-3.4,7.8-9.6,7.8-3.83,0-7.33-1.4-9.76-3.77Z"/>
      <path class="cls-4" d="M1379.37,740.43h3.67l.38,3.77h.16c2.48-2.47,5.18-4.41,8.79-4.41,5.55,0,8.03,3.55,8.03,10.22v16.57h-4.47v-15.98c0-4.9-1.51-6.94-4.96-6.94-2.64,0-4.53,1.34-7.12,3.98v18.94h-4.47v-26.15Z"/>
      <path class="cls-4" d="M1406.91,753.56c0-8.77,5.71-13.77,12.13-13.77s12.18,5,12.18,13.77-5.77,13.67-12.18,13.67-12.13-5-12.13-13.67ZM1426.59,753.56c0-6.03-3.02-10.06-7.55-10.06s-7.49,4.04-7.49,10.06,3.02,9.95,7.49,9.95,7.55-3.98,7.55-9.95Z"/>
      <path class="cls-4" d="M1437.91,758.46v-14.42h-3.88v-3.34l4.1-.27.54-8.39h3.72v8.39h7.12v3.61h-7.12v14.53c0,3.17,1.08,5,4.04,5,.97,0,1.94-.16,3.02-.65l.92,3.17c-1.4.65-3.18,1.13-4.96,1.13-5.61,0-7.49-3.55-7.49-8.77Z"/>
      <path class="cls-4" d="M1452.74,753.5c0-8.5,5.77-13.72,11.75-13.72,6.68,0,10.51,4.74,10.51,12.27,0,.97-.05,1.78-.22,2.64h-17.63c.38,5.38,3.67,8.93,8.63,8.93,2.53,0,4.74-.7,6.58-1.94l1.56,2.85c-2.26,1.61-5.07,2.69-8.68,2.69-7.01,0-12.51-5.06-12.51-13.72ZM1471.01,751.25c0-5.17-2.43-7.91-6.42-7.91-3.67,0-6.9,2.91-7.44,7.91h13.85Z"/>
    </g>
    <g>
      <path class="cls-1" d="M759.18,278.26l-10.87,41.73h-6.26l-8.79-34.64-8.59,34.64h-6.12l-11.06-41.73h5.7l8.79,34.69,8.65-34.69h5.64l8.73,35.03,8.73-35.03h5.45Z"/>
      <path class="cls-1" d="M772.63,283.45h-5.95v-5.46h5.95v5.46ZM772.29,319.99h-5.28v-31.3h5.28v31.3Z"/>
      <path class="cls-1" d="M799.02,319.71c-.99.26-2.07.48-3.24.64-1.17.17-2.21.25-3.13.25-3.2,0-5.63-.86-7.3-2.58-1.67-1.72-2.5-4.47-2.5-8.27v-16.65h-3.57v-4.43h3.57v-9h5.28v9h10.89v4.43h-10.89v14.26c0,1.64.04,2.93.11,3.85.07.92.34,1.79.79,2.59.41.75.98,1.29,1.7,1.64.72.35,1.82.52,3.3.52.86,0,1.76-.13,2.7-.38.94-.25,1.61-.46,2.02-.63h.28v4.74Z"/>
      <path class="cls-1" d="M831.62,319.99h-5.28v-17.82c0-1.44-.08-2.79-.25-4.05-.17-1.26-.48-2.25-.93-2.96-.47-.78-1.14-1.37-2.02-1.75-.88-.38-2.02-.57-3.43-.57s-2.95.35-4.52,1.06c-1.57.71-3.08,1.62-4.52,2.72v23.37h-5.28v-43.6h5.28v15.78c1.65-1.36,3.35-2.43,5.11-3.19,1.76-.77,3.57-1.15,5.42-1.15,3.39,0,5.97,1.02,7.75,3.05,1.78,2.04,2.67,4.97,2.67,8.8v20.32Z"/>
      <path class="cls-1" d="M894.72,316.96c-1.03.45-1.96.87-2.79,1.26-.83.39-1.92.8-3.27,1.23-1.14.35-2.38.66-3.72.91-1.34.25-2.81.38-4.42.38-3.03,0-5.79-.43-8.27-1.28-2.48-.85-4.64-2.18-6.47-3.99-1.8-1.77-3.2-4.03-4.21-6.77-1.01-2.74-1.52-5.92-1.52-9.54,0-3.44.49-6.51,1.46-9.22s2.38-5,4.21-6.87c1.78-1.81,3.93-3.19,6.44-4.15,2.52-.95,5.31-1.43,8.38-1.43,2.25,0,4.49.27,6.73.81,2.24.54,4.72,1.5,7.45,2.86v6.59h-.42c-2.3-1.92-4.59-3.33-6.85-4.2-2.27-.88-4.69-1.32-7.27-1.32-2.12,0-4.02.34-5.71,1.02-1.69.68-3.21,1.74-4.53,3.18-1.29,1.4-2.3,3.17-3.02,5.31s-1.08,4.61-1.08,7.41.4,5.46,1.19,7.57c.8,2.11,1.82,3.83,3.07,5.16,1.31,1.38,2.84,2.41,4.59,3.07,1.75.66,3.6,1,5.55,1,2.68,0,5.18-.46,7.52-1.37,2.34-.92,4.53-2.29,6.57-4.12h.39v6.5Z"/>
      <path class="cls-1" d="M928.41,304.89h-23.11c0,1.92.29,3.6.87,5.03s1.38,2.6,2.39,3.52c.97.9,2.13,1.57,3.47,2.02,1.34.45,2.81.67,4.42.67,2.13,0,4.28-.42,6.44-1.27s3.7-1.69,4.62-2.51h.28v5.74c-1.78.75-3.59,1.37-5.45,1.88s-3.8.76-5.84.76c-5.21,0-9.27-1.41-12.19-4.22-2.92-2.81-4.38-6.81-4.38-11.98s1.4-9.18,4.2-12.19c2.8-3.01,6.48-4.51,11.05-4.51,4.23,0,7.49,1.23,9.79,3.7,2.29,2.47,3.44,5.97,3.44,10.51v2.86ZM923.27,300.85c-.02-2.76-.71-4.9-2.09-6.42-1.38-1.51-3.47-2.27-6.28-2.27s-5.08.83-6.75,2.49c-1.68,1.66-2.62,3.73-2.85,6.19h17.97Z"/>
      <path class="cls-1" d="M955.98,294.43h-.28c-.79-.19-1.55-.32-2.29-.41s-1.61-.13-2.62-.13c-1.63,0-3.2.36-4.72,1.08-1.52.72-2.98,1.65-4.38,2.79v22.22h-5.28v-31.3h5.28v4.62c2.1-1.68,3.95-2.87,5.54-3.57,1.6-.7,3.23-1.05,4.9-1.05.92,0,1.58.02,1.99.07.41.05,1.03.14,1.85.27v5.41Z"/>
      <path class="cls-1" d="M977.24,319.71c-.99.26-2.07.48-3.24.64s-2.21.25-3.13.25c-3.2,0-5.63-.86-7.3-2.58s-2.5-4.47-2.5-8.27v-16.65h-3.57v-4.43h3.57v-9h5.28v9h10.89v4.43h-10.89v14.26c0,1.64.04,2.93.11,3.85.07.92.34,1.79.79,2.59.41.75.98,1.29,1.7,1.64.72.35,1.82.52,3.3.52.86,0,1.76-.13,2.7-.38.94-.25,1.61-.46,2.02-.63h.28v4.74Z"/>
      <path class="cls-1" d="M988.95,319.99h-5.28v-43.6h5.28v43.6Z"/>
      <path class="cls-1" d="M1005.07,283.45h-5.95v-5.46h5.95v5.46ZM1004.73,319.99h-5.28v-31.3h5.28v31.3Z"/>
      <path class="cls-1" d="M1041.4,319.99h-5.28v-17.82c0-1.44-.08-2.79-.25-4.05-.17-1.26-.48-2.25-.93-2.96-.47-.78-1.14-1.37-2.02-1.75s-2.02-.57-3.43-.57-2.95.35-4.52,1.06c-1.57.71-3.08,1.62-4.52,2.72v23.37h-5.28v-31.3h5.28v3.48c1.65-1.36,3.35-2.43,5.11-3.19,1.76-.77,3.57-1.15,5.42-1.15,3.39,0,5.97,1.02,7.75,3.05,1.78,2.04,2.67,4.97,2.67,8.8v20.32Z"/>
      <path class="cls-1" d="M1077,316.43c0,5.31-1.21,9.2-3.62,11.69-2.42,2.48-6.13,3.73-11.15,3.73-1.67,0-3.29-.12-4.87-.35-1.58-.23-3.14-.56-4.68-.99v-5.38h.28c.86.34,2.23.75,4.1,1.25,1.87.49,3.74.74,5.62.74s3.29-.22,4.46-.64c1.18-.43,2.1-1.03,2.75-1.79.66-.73,1.12-1.61,1.4-2.63.28-1.03.42-2.18.42-3.45v-2.86c-1.59,1.27-3.11,2.22-4.56,2.84-1.45.63-3.3.94-5.54.94-3.74,0-6.72-1.35-8.92-4.05-2.2-2.7-3.3-6.51-3.3-11.42,0-2.69.38-5.01,1.14-6.96.76-1.95,1.79-3.64,3.1-5.06,1.22-1.33,2.7-2.36,4.44-3.1,1.74-.74,3.47-1.11,5.19-1.11,1.82,0,3.34.18,4.56.55,1.23.36,2.52.92,3.89,1.67l.34-1.35h4.94v27.74ZM1071.72,311.39v-17.07c-1.4-.63-2.71-1.09-3.92-1.36-1.21-.27-2.41-.41-3.61-.41-2.9,0-5.19.97-6.85,2.91-1.67,1.94-2.5,4.76-2.5,8.46s.62,6.17,1.85,7.99c1.24,1.81,3.29,2.72,6.15,2.72,1.53,0,3.07-.29,4.62-.88,1.54-.59,2.96-1.38,4.25-2.37Z"/>
      <path class="cls-1" d="M467.36,357.56l-18.31,42.85h-5.64l5.84-13.06-12.5-29.79h5.73l9.63,23.2,9.72-23.2h5.53Z"/>
      <path class="cls-1" d="M500.49,373.22c0,5.1-1.31,9.13-3.93,12.08-2.62,2.95-6.13,4.43-10.53,4.43s-7.96-1.48-10.57-4.43c-2.61-2.95-3.92-6.98-3.92-12.08s1.31-9.13,3.92-12.09,6.14-4.44,10.57-4.44,7.91,1.48,10.53,4.44c2.62,2.96,3.93,6.99,3.93,12.09ZM495.04,373.22c0-4.05-.8-7.07-2.39-9.04-1.59-1.97-3.8-2.96-6.63-2.96s-5.09.99-6.67,2.96c-1.58,1.97-2.37,4.98-2.37,9.04s.8,6.9,2.39,8.93c1.59,2.03,3.81,3.04,6.65,3.04s5.01-1,6.61-3.01c1.6-2.01,2.4-4.99,2.4-8.95Z"/>
      <path class="cls-1" d="M534.66,388.86h-5.28v-3.48c-1.78,1.4-3.48,2.48-5.11,3.22-1.63.75-3.43,1.12-5.39,1.12-3.29,0-5.86-1-7.69-3.01-1.83-2.01-2.75-4.96-2.75-8.84v-20.32h5.28v17.82c0,1.59.07,2.95.23,4.08.15,1.13.47,2.1.95,2.9.51.82,1.16,1.42,1.97,1.79.8.37,1.97.56,3.51.56,1.37,0,2.86-.35,4.48-1.06,1.62-.71,3.13-1.62,4.53-2.72v-23.37h5.28v31.3Z"/>
      <path class="cls-1" d="M592,373.22c0,5.1-1.31,9.13-3.93,12.08-2.62,2.95-6.13,4.43-10.53,4.43s-7.96-1.48-10.57-4.43c-2.61-2.95-3.92-6.98-3.92-12.08s1.31-9.13,3.92-12.09,6.14-4.44,10.57-4.44,7.91,1.48,10.53,4.44c2.62,2.96,3.93,6.99,3.93,12.09ZM586.55,373.22c0-4.05-.8-7.07-2.39-9.04-1.59-1.97-3.8-2.96-6.63-2.96s-5.09.99-6.67,2.96c-1.58,1.97-2.37,4.98-2.37,9.04s.8,6.9,2.39,8.93c1.59,2.03,3.81,3.04,6.65,3.04s5.01-1,6.61-3.01c1.6-2.01,2.4-4.99,2.4-8.95Z"/>
      <path class="cls-1" d="M626.4,388.86h-5.28v-17.82c0-1.44-.08-2.79-.25-4.05-.17-1.26-.48-2.25-.93-2.96-.47-.78-1.14-1.37-2.02-1.75-.88-.38-2.02-.57-3.43-.57s-2.95.35-4.52,1.06c-1.57.71-3.08,1.62-4.52,2.72v23.37h-5.28v-31.3h5.28v3.48c1.65-1.36,3.35-2.43,5.11-3.19,1.76-.77,3.57-1.15,5.42-1.15,3.39,0,5.97,1.02,7.75,3.05,1.78,2.04,2.67,4.97,2.67,8.8v20.32Z"/>
      <path class="cls-1" d="M641.89,388.86h-5.28v-43.6h5.28v43.6Z"/>
      <path class="cls-1" d="M679.46,357.56l-18.31,42.85h-5.64l5.84-13.06-12.5-29.79h5.73l9.63,23.2,9.72-23.2h5.53Z"/>
      <path class="cls-1" d="M734.19,372.83c0,2.54-.36,4.86-1.09,6.96-.73,2.1-1.76,3.88-3.09,5.34-1.24,1.38-2.69,2.45-4.37,3.21-1.68.76-3.45,1.14-5.32,1.14-1.63,0-3.1-.18-4.42-.53-1.32-.35-2.66-.91-4.03-1.65v13.12h-5.28v-42.85h5.28v3.28c1.4-1.18,2.98-2.16,4.73-2.96,1.75-.79,3.62-1.19,5.6-1.19,3.78,0,6.72,1.42,8.83,4.27,2.11,2.85,3.16,6.81,3.16,11.87ZM728.74,372.97c0-3.77-.65-6.59-1.94-8.46-1.29-1.87-3.28-2.8-5.95-2.8-1.52,0-3.04.33-4.58.98-1.54.65-3,1.51-4.41,2.58v17.74c1.5.67,2.78,1.13,3.86,1.37,1.08.24,2.3.36,3.66.36,2.94,0,5.23-.99,6.88-2.97,1.65-1.98,2.47-4.91,2.47-8.8Z"/>
      <path class="cls-1" d="M766.79,388.86h-5.25v-3.33c-.47.32-1.1.76-1.9,1.33-.8.57-1.57,1.02-2.32,1.36-.88.43-1.89.79-3.03,1.08-1.14.29-2.48.43-4.02.43-2.83,0-5.22-.93-7.19-2.8-1.97-1.87-2.95-4.25-2.95-7.15,0-2.37.51-4.29,1.53-5.76,1.02-1.47,2.48-2.62,4.37-3.46,1.91-.84,4.2-1.41,6.88-1.71,2.68-.3,5.55-.52,8.62-.67v-.81c0-1.2-.21-2.19-.63-2.97-.42-.78-1.02-1.4-1.81-1.85-.75-.43-1.65-.72-2.7-.87s-2.14-.22-3.29-.22c-1.39,0-2.93.18-4.63.55-1.7.36-3.46.89-5.28,1.58h-.28v-5.35c1.03-.28,2.52-.59,4.46-.92,1.95-.34,3.87-.5,5.76-.5,2.21,0,4.13.18,5.77.55,1.64.36,3.06.99,4.25,1.86,1.18.86,2.08,1.97,2.7,3.33.62,1.36.93,3.05.93,5.07v21.24ZM761.54,381.15v-8.72c-1.61.09-3.51.23-5.69.42-2.18.19-3.91.46-5.18.81-1.52.43-2.74,1.1-3.68,2-.94.91-1.4,2.15-1.4,3.74,0,1.79.54,3.14,1.63,4.05,1.09.91,2.74,1.36,4.97,1.36,1.85,0,3.55-.36,5.08-1.08,1.53-.72,2.96-1.58,4.27-2.59Z"/>
      <path class="cls-1" d="M803.63,357.56l-18.31,42.85h-5.64l5.84-13.06-12.5-29.79h5.73l9.63,23.2,9.72-23.2h5.53Z"/>
      <path class="cls-1" d="M847.63,350.36h-.28c-.58-.17-1.34-.34-2.27-.52s-1.76-.27-2.47-.27c-2.27,0-3.91.5-4.93,1.5-1.02,1-1.53,2.81-1.53,5.42v1.06h9.52v4.43h-9.35v26.87h-5.28v-26.87h-3.57v-4.43h3.57v-1.04c0-3.72.93-6.57,2.78-8.56,1.85-1.99,4.53-2.98,8.03-2.98,1.18,0,2.24.06,3.19.17.94.11,1.81.24,2.6.39v4.82Z"/>
      <path class="cls-1" d="M877.7,373.22c0,5.1-1.31,9.13-3.93,12.08-2.62,2.95-6.13,4.43-10.53,4.43s-7.96-1.48-10.57-4.43c-2.61-2.95-3.92-6.98-3.92-12.08s1.31-9.13,3.92-12.09,6.14-4.44,10.57-4.44,7.91,1.48,10.53,4.44c2.62,2.96,3.93,6.99,3.93,12.09ZM872.25,373.22c0-4.05-.8-7.07-2.39-9.04-1.59-1.97-3.8-2.96-6.63-2.96s-5.09.99-6.67,2.96c-1.58,1.97-2.37,4.98-2.37,9.04s.8,6.9,2.39,8.93c1.59,2.03,3.81,3.04,6.65,3.04s5.01-1,6.61-3.01c1.6-2.01,2.4-4.99,2.4-8.95Z"/>
      <path class="cls-1" d="M905.44,363.3h-.28c-.79-.19-1.55-.32-2.29-.41-.74-.08-1.61-.13-2.62-.13-1.63,0-3.2.36-4.72,1.08-1.52.72-2.98,1.65-4.38,2.79v22.22h-5.28v-31.3h5.28v4.62c2.1-1.68,3.94-2.87,5.55-3.57,1.6-.7,3.23-1.05,4.9-1.05.92,0,1.58.02,1.99.07.41.05,1.03.14,1.85.27v5.41Z"/>
      <path class="cls-1" d="M970.08,357.56l-8.17,31.3h-4.89l-8.06-24.13-8,24.13h-4.86l-8.25-31.3h5.5l5.76,24.24,7.83-24.24h4.35l8.03,24.24,5.45-24.24h5.31Z"/>
      <path class="cls-1" d="M1003.92,388.86h-5.28v-17.82c0-1.44-.08-2.79-.25-4.05-.17-1.26-.48-2.25-.93-2.96-.47-.78-1.14-1.37-2.02-1.75s-2.02-.57-3.43-.57-2.95.35-4.52,1.06c-1.57.71-3.08,1.62-4.52,2.72v23.37h-5.28v-43.6h5.28v15.78c1.65-1.36,3.35-2.43,5.11-3.19,1.76-.77,3.57-1.15,5.42-1.15,3.39,0,5.97,1.02,7.75,3.05,1.78,2.04,2.67,4.97,2.67,8.8v20.32Z"/>
      <path class="cls-1" d="M1038.45,388.86h-5.25v-3.33c-.47.32-1.1.76-1.9,1.33-.8.57-1.57,1.02-2.32,1.36-.88.43-1.89.79-3.03,1.08-1.14.29-2.48.43-4.02.43-2.83,0-5.22-.93-7.19-2.8-1.96-1.87-2.95-4.25-2.95-7.15,0-2.37.51-4.29,1.53-5.76,1.02-1.47,2.48-2.62,4.37-3.46,1.91-.84,4.2-1.41,6.88-1.71,2.68-.3,5.55-.52,8.62-.67v-.81c0-1.2-.21-2.19-.63-2.97s-1.03-1.4-1.81-1.85c-.75-.43-1.65-.72-2.7-.87-1.05-.15-2.14-.22-3.29-.22-1.39,0-2.93.18-4.63.55-1.7.36-3.46.89-5.28,1.58h-.28v-5.35c1.03-.28,2.52-.59,4.46-.92,1.95-.34,3.87-.5,5.76-.5,2.21,0,4.13.18,5.77.55,1.64.36,3.06.99,4.25,1.86,1.18.86,2.08,1.97,2.7,3.33.62,1.36.93,3.05.93,5.07v21.24ZM1033.2,381.15v-8.72c-1.61.09-3.51.23-5.69.42-2.18.19-3.91.46-5.18.81-1.52.43-2.74,1.1-3.68,2-.94.91-1.4,2.15-1.4,3.74,0,1.79.54,3.14,1.63,4.05,1.08.91,2.74,1.36,4.97,1.36,1.85,0,3.55-.36,5.08-1.08s2.96-1.58,4.27-2.59Z"/>
      <path class="cls-1" d="M1064.9,388.58c-.99.26-2.07.48-3.24.64s-2.21.25-3.13.25c-3.2,0-5.63-.86-7.3-2.58s-2.5-4.47-2.5-8.27v-16.65h-3.57v-4.43h3.57v-9h5.28v9h10.89v4.43h-10.89v14.26c0,1.64.04,2.93.11,3.85.07.92.34,1.79.79,2.59.41.75.98,1.29,1.7,1.64.72.35,1.82.52,3.3.52.86,0,1.76-.13,2.7-.38.94-.25,1.61-.46,2.02-.63h.28v4.74Z"/>
      <path class="cls-1" d="M1118.62,357.56l-18.31,42.85h-5.64l5.84-13.06-12.5-29.79h5.73l9.63,23.2,9.71-23.2h5.53Z"/>
      <path class="cls-1" d="M1151.75,373.22c0,5.1-1.31,9.13-3.93,12.08-2.62,2.95-6.13,4.43-10.53,4.43s-7.96-1.48-10.57-4.43c-2.61-2.95-3.92-6.98-3.92-12.08s1.31-9.13,3.92-12.09,6.13-4.44,10.57-4.44,7.91,1.48,10.53,4.44c2.62,2.96,3.93,6.99,3.93,12.09ZM1146.3,373.22c0-4.05-.8-7.07-2.39-9.04-1.59-1.97-3.8-2.96-6.63-2.96s-5.09.99-6.67,2.96c-1.58,1.97-2.37,4.98-2.37,9.04s.79,6.9,2.39,8.93c1.59,2.03,3.81,3.04,6.65,3.04s5.01-1,6.61-3.01c1.6-2.01,2.4-4.99,2.4-8.95Z"/>
      <path class="cls-1" d="M1185.92,388.86h-5.28v-3.48c-1.78,1.4-3.48,2.48-5.11,3.22-1.63.75-3.43,1.12-5.39,1.12-3.29,0-5.86-1-7.69-3.01-1.83-2.01-2.75-4.96-2.75-8.84v-20.32h5.28v17.82c0,1.59.07,2.95.22,4.08.15,1.13.47,2.1.95,2.9.51.82,1.16,1.42,1.97,1.79.8.37,1.97.56,3.51.56,1.37,0,2.86-.35,4.48-1.06,1.62-.71,3.13-1.62,4.54-2.72v-23.37h5.28v31.3Z"/>
      <path class="cls-1" d="M1242.75,388.86h-5.28v-17.82c0-1.44-.08-2.79-.25-4.05-.17-1.26-.48-2.25-.93-2.96-.47-.78-1.14-1.37-2.02-1.75s-2.02-.57-3.43-.57-2.95.35-4.52,1.06c-1.57.71-3.08,1.62-4.52,2.72v23.37h-5.28v-31.3h5.28v3.48c1.65-1.36,3.35-2.43,5.11-3.19,1.76-.77,3.57-1.15,5.42-1.15,3.39,0,5.97,1.02,7.75,3.05,1.78,2.04,2.67,4.97,2.67,8.8v20.32Z"/>
      <path class="cls-1" d="M1279.17,373.76h-23.11c0,1.92.29,3.6.87,5.03s1.38,2.6,2.39,3.52c.97.9,2.13,1.57,3.47,2.02,1.34.45,2.81.67,4.42.67,2.13,0,4.28-.42,6.44-1.27s3.7-1.69,4.62-2.51h.28v5.74c-1.78.75-3.59,1.37-5.45,1.88-1.85.5-3.8.76-5.84.76-5.2,0-9.27-1.41-12.19-4.22-2.92-2.81-4.38-6.81-4.38-11.98s1.4-9.18,4.2-12.19c2.8-3.01,6.48-4.51,11.05-4.51,4.23,0,7.49,1.23,9.79,3.7,2.29,2.47,3.44,5.97,3.44,10.51v2.86ZM1274.03,369.72c-.02-2.76-.72-4.9-2.09-6.42-1.38-1.51-3.47-2.27-6.28-2.27s-5.08.83-6.75,2.49c-1.68,1.66-2.62,3.73-2.85,6.19h17.97Z"/>
      <path class="cls-1" d="M1313.43,373.76h-23.11c0,1.92.29,3.6.87,5.03s1.38,2.6,2.39,3.52c.97.9,2.13,1.57,3.47,2.02,1.34.45,2.81.67,4.42.67,2.13,0,4.28-.42,6.44-1.27s3.7-1.69,4.62-2.51h.28v5.74c-1.78.75-3.59,1.37-5.45,1.88-1.85.5-3.8.76-5.84.76-5.2,0-9.27-1.41-12.19-4.22-2.92-2.81-4.38-6.81-4.38-11.98s1.4-9.18,4.2-12.19c2.8-3.01,6.48-4.51,11.05-4.51,4.23,0,7.49,1.23,9.79,3.7,2.29,2.47,3.44,5.97,3.44,10.51v2.86ZM1308.29,369.72c-.02-2.76-.72-4.9-2.09-6.42-1.38-1.51-3.47-2.27-6.28-2.27s-5.08.83-6.75,2.49c-1.68,1.66-2.62,3.73-2.85,6.19h17.97Z"/>
      <path class="cls-1" d="M1346.87,388.86h-5.28v-3.28c-1.52,1.31-3.1,2.33-4.75,3.05-1.65.73-3.43,1.09-5.36,1.09-3.74,0-6.72-1.44-8.92-4.32-2.2-2.88-3.3-6.87-3.3-11.97,0-2.65.38-5.02,1.14-7.09.76-2.07,1.78-3.84,3.07-5.3,1.27-1.42,2.76-2.5,4.45-3.25s3.45-1.12,5.27-1.12c1.65,0,3.11.17,4.38.52,1.27.35,2.61.88,4.02,1.61v-13.56h5.28v43.6ZM1341.59,381.15v-17.96c-1.42-.63-2.7-1.07-3.82-1.32s-2.35-.36-3.68-.36c-2.96,0-5.26,1.03-6.91,3.08-1.65,2.06-2.47,4.97-2.47,8.74s.64,6.54,1.91,8.48c1.27,1.93,3.31,2.9,6.12,2.9,1.5,0,3.01-.33,4.55-.99,1.53-.66,2.97-1.52,4.3-2.56Z"/>
    </g>
    <g>
      <path class="cls-3" d="M1245.95,142.59c1.7,1.87,3.01,4.16,3.92,6.87.91,2.71,1.36,5.78,1.36,9.22s-.46,6.52-1.39,9.23-2.22,4.98-3.89,6.8c-1.72,1.89-3.76,3.31-6.11,4.26-2.35.95-5.03,1.43-8.04,1.43s-5.61-.49-8.02-1.46c-2.41-.97-4.45-2.38-6.14-4.23-1.68-1.85-2.98-4.12-3.89-6.81-.91-2.69-1.36-5.76-1.36-9.22s.45-6.45,1.35-9.15,2.21-5.01,3.93-6.94c1.65-1.83,3.69-3.23,6.14-4.2,2.44-.97,5.11-1.46,7.99-1.46s5.69.49,8.07,1.47c2.39.98,4.41,2.38,6.08,4.19ZM1245.44,158.67c0-5.42-1.22-9.6-3.65-12.54-2.43-2.94-5.76-4.41-9.97-4.41s-7.59,1.47-10.01,4.41c-2.42,2.94-3.64,7.12-3.64,12.54s1.24,9.66,3.71,12.57c2.47,2.91,5.78,4.36,9.94,4.36s7.46-1.45,9.93-4.36c2.46-2.9,3.69-7.09,3.69-12.57Z"/>
      <path class="cls-3" d="M1275.91,179.24c-.99.26-2.07.48-3.24.64s-2.21.25-3.13.25c-3.2,0-5.63-.86-7.3-2.58s-2.5-4.47-2.5-8.27v-16.65h-3.57v-4.43h3.57v-9h5.28v9h10.89v4.43h-10.89v14.26c0,1.64.04,2.93.11,3.85.07.92.34,1.79.79,2.59.41.75.98,1.29,1.7,1.64.72.35,1.82.52,3.3.52.86,0,1.76-.13,2.7-.38.94-.25,1.61-.46,2.02-.63h.28v4.74Z"/>
      <path class="cls-3" d="M1308.51,179.52h-5.28v-17.82c0-1.44-.08-2.79-.25-4.05-.17-1.26-.48-2.25-.93-2.96-.47-.78-1.14-1.37-2.02-1.75s-2.02-.57-3.43-.57-2.95.35-4.52,1.06c-1.57.71-3.08,1.62-4.52,2.72v23.37h-5.28v-43.6h5.28v15.78c1.65-1.36,3.35-2.43,5.11-3.19,1.76-.77,3.57-1.15,5.42-1.15,3.39,0,5.97,1.02,7.75,3.05,1.78,2.04,2.67,4.97,2.67,8.8v20.32Z"/>
      <path class="cls-3" d="M1344.93,164.42h-23.11c0,1.92.29,3.6.87,5.03s1.38,2.6,2.39,3.52c.97.9,2.13,1.57,3.47,2.02,1.34.45,2.81.67,4.42.67,2.13,0,4.28-.42,6.44-1.27s3.7-1.69,4.62-2.51h.28v5.74c-1.78.75-3.59,1.37-5.45,1.88-1.85.5-3.8.76-5.84.76-5.2,0-9.27-1.41-12.19-4.22-2.92-2.81-4.38-6.81-4.38-11.98s1.4-9.18,4.2-12.19c2.8-3.01,6.48-4.51,11.05-4.51,4.23,0,7.49,1.23,9.79,3.7,2.29,2.47,3.44,5.97,3.44,10.51v2.86ZM1339.79,160.38c-.02-2.76-.72-4.9-2.09-6.42-1.38-1.51-3.47-2.27-6.28-2.27s-5.08.83-6.75,2.49c-1.68,1.66-2.62,3.73-2.85,6.19h17.97Z"/>
      <path class="cls-3" d="M1372.5,153.96h-.28c-.79-.19-1.55-.32-2.29-.41s-1.61-.13-2.62-.13c-1.63,0-3.2.36-4.72,1.08-1.52.72-2.98,1.65-4.38,2.79v22.22h-5.28v-31.3h5.28v4.62c2.1-1.68,3.95-2.87,5.54-3.57,1.6-.7,3.23-1.05,4.9-1.05.92,0,1.58.02,1.99.07.41.05,1.03.14,1.85.27v5.41Z"/>
      <path class="cls-3" d="M1399.88,170.5c0,2.86-1.18,5.2-3.55,7.03-2.37,1.83-5.6,2.75-9.7,2.75-2.32,0-4.45-.28-6.39-.83-1.94-.55-3.56-1.15-4.87-1.81v-5.91h.28c1.67,1.25,3.52,2.25,5.56,2.98,2.04.74,4,1.11,5.87,1.11,2.32,0,4.14-.37,5.45-1.12,1.31-.75,1.96-1.92,1.96-3.53,0-1.23-.36-2.17-1.07-2.8-.71-.63-2.08-1.18-4.1-1.63-.75-.17-1.73-.36-2.93-.59-1.21-.22-2.31-.47-3.3-.73-2.75-.73-4.7-1.8-5.85-3.21-1.15-1.41-1.73-3.14-1.73-5.2,0-1.29.27-2.5.8-3.64.53-1.14,1.34-2.16,2.43-3.05,1.05-.88,2.38-1.57,4-2.09,1.62-.51,3.43-.77,5.43-.77,1.87,0,3.77.23,5.69.69,1.92.46,3.51,1.01,4.79,1.67v5.63h-.28c-1.35-.99-2.99-1.83-4.91-2.51-1.93-.68-3.82-1.02-5.67-1.02s-3.56.37-4.88,1.11c-1.33.74-1.99,1.84-1.99,3.29,0,1.29.4,2.26,1.21,2.91.79.65,2.06,1.19,3.82,1.6.97.22,2.06.45,3.27.67,1.21.22,2.21.43,3.02.62,2.45.56,4.34,1.52,5.67,2.89,1.33,1.38,1.99,3.21,1.99,5.49Z"/>
      <path class="cls-3" d="M1450.84,177.56c-1.76.84-3.43,1.49-5.01,1.96-1.58.47-3.26.7-5.04.7-2.27,0-4.34-.33-6.23-1-1.89-.66-3.51-1.67-4.86-3.01-1.37-1.35-2.42-3.04-3.17-5.1-.75-2.05-1.12-4.46-1.12-7.2,0-5.12,1.41-9.14,4.23-12.05s6.54-4.37,11.16-4.37c1.8,0,3.56.25,5.29.76,1.73.5,3.32,1.12,4.76,1.85v5.86h-.28c-1.61-1.25-3.27-2.21-4.98-2.89s-3.38-1.01-5.01-1.01c-3,0-5.36,1-7.09,3.01-1.73,2.01-2.6,4.96-2.6,8.84s.85,6.67,2.54,8.7c1.69,2.03,4.08,3.04,7.15,3.04,1.07,0,2.15-.14,3.26-.42s2.1-.64,2.98-1.09c.77-.39,1.49-.81,2.16-1.25.67-.44,1.21-.82,1.6-1.14h.28v5.8Z"/>
      <path class="cls-3" d="M1483.83,179.52h-5.28v-17.82c0-1.44-.08-2.79-.25-4.05-.17-1.26-.48-2.25-.93-2.96-.47-.78-1.14-1.37-2.02-1.75s-2.02-.57-3.43-.57-2.95.35-4.52,1.06c-1.57.71-3.08,1.62-4.52,2.72v23.37h-5.28v-43.6h5.28v15.78c1.65-1.36,3.35-2.43,5.11-3.19,1.76-.77,3.57-1.15,5.42-1.15,3.39,0,5.97,1.02,7.75,3.05,1.78,2.04,2.67,4.97,2.67,8.8v20.32Z"/>
      <path class="cls-3" d="M1518.37,179.52h-5.25v-3.33c-.47.32-1.1.76-1.9,1.33-.8.57-1.57,1.02-2.32,1.36-.88.43-1.89.79-3.03,1.08-1.14.29-2.48.43-4.02.43-2.83,0-5.22-.93-7.19-2.8-1.96-1.87-2.95-4.25-2.95-7.15,0-2.37.51-4.29,1.53-5.76,1.02-1.47,2.48-2.62,4.37-3.46,1.91-.84,4.2-1.41,6.88-1.71,2.68-.3,5.55-.52,8.62-.67v-.81c0-1.2-.21-2.19-.63-2.97s-1.03-1.4-1.81-1.85c-.75-.43-1.65-.72-2.7-.87-1.05-.15-2.14-.22-3.29-.22-1.39,0-2.93.18-4.63.55-1.7.36-3.46.89-5.28,1.58h-.28v-5.35c1.03-.28,2.52-.59,4.46-.92,1.95-.34,3.87-.5,5.76-.5,2.21,0,4.13.18,5.77.55,1.64.36,3.06.99,4.25,1.86,1.18.86,2.08,1.97,2.7,3.33.62,1.36.93,3.05.93,5.07v21.24ZM1513.12,171.81v-8.72c-1.61.09-3.51.23-5.69.42-2.18.19-3.91.46-5.18.81-1.52.43-2.74,1.1-3.68,2-.94.91-1.4,2.15-1.4,3.74,0,1.79.54,3.14,1.63,4.05,1.08.91,2.74,1.36,4.97,1.36,1.85,0,3.55-.36,5.08-1.08s2.96-1.58,4.27-2.59Z"/>
      <path class="cls-3" d="M1548.11,153.96h-.28c-.79-.19-1.55-.32-2.29-.41s-1.61-.13-2.62-.13c-1.63,0-3.2.36-4.72,1.08-1.52.72-2.98,1.65-4.38,2.79v22.22h-5.28v-31.3h5.28v4.62c2.1-1.68,3.95-2.87,5.54-3.57,1.6-.7,3.23-1.05,4.9-1.05.92,0,1.58.02,1.99.07.41.05,1.03.14,1.85.27v5.41Z"/>
      <path class="cls-3" d="M1578.51,175.96c0,5.31-1.21,9.2-3.62,11.69-2.42,2.48-6.13,3.73-11.15,3.73-1.67,0-3.29-.12-4.87-.35-1.58-.23-3.14-.56-4.68-.99v-5.38h.28c.86.34,2.23.75,4.1,1.25,1.87.49,3.74.74,5.62.74s3.29-.22,4.46-.64c1.18-.43,2.1-1.03,2.75-1.79.66-.73,1.12-1.61,1.4-2.63.28-1.03.42-2.18.42-3.45v-2.86c-1.59,1.27-3.11,2.22-4.56,2.84-1.45.63-3.3.94-5.54.94-3.74,0-6.72-1.35-8.92-4.05-2.2-2.7-3.3-6.51-3.3-11.42,0-2.69.38-5.01,1.14-6.96.76-1.95,1.79-3.64,3.1-5.06,1.22-1.33,2.7-2.36,4.44-3.1,1.74-.74,3.47-1.11,5.19-1.11,1.82,0,3.34.18,4.56.55,1.23.36,2.52.92,3.89,1.67l.34-1.35h4.94v27.74ZM1573.24,170.92v-17.07c-1.4-.63-2.71-1.09-3.92-1.36-1.21-.27-2.41-.41-3.61-.41-2.9,0-5.19.97-6.85,2.91-1.67,1.94-2.5,4.76-2.5,8.46s.62,6.17,1.85,7.99c1.24,1.81,3.29,2.72,6.15,2.72,1.53,0,3.07-.29,4.62-.88,1.54-.59,2.96-1.38,4.25-2.37Z"/>
      <path class="cls-3" d="M1615.16,164.42h-23.11c0,1.92.29,3.6.87,5.03s1.38,2.6,2.39,3.52c.97.9,2.13,1.57,3.47,2.02,1.34.45,2.81.67,4.42.67,2.13,0,4.28-.42,6.44-1.27s3.7-1.69,4.62-2.51h.28v5.74c-1.78.75-3.59,1.37-5.45,1.88-1.85.5-3.8.76-5.84.76-5.2,0-9.27-1.41-12.19-4.22-2.92-2.81-4.38-6.81-4.38-11.98s1.4-9.18,4.2-12.19c2.8-3.01,6.48-4.51,11.05-4.51,4.23,0,7.49,1.23,9.79,3.7,2.29,2.47,3.44,5.97,3.44,10.51v2.86ZM1610.02,160.38c-.02-2.76-.72-4.9-2.09-6.42-1.38-1.51-3.47-2.27-6.28-2.27s-5.08.83-6.75,2.49c-1.68,1.66-2.62,3.73-2.85,6.19h17.97Z"/>
      <path class="cls-3" d="M1318.72,232.36c0,2.54-.37,4.86-1.09,6.96-.73,2.1-1.76,3.88-3.09,5.34-1.24,1.38-2.69,2.45-4.37,3.21-1.68.76-3.45,1.14-5.32,1.14-1.63,0-3.1-.18-4.42-.53-1.32-.35-2.66-.91-4.03-1.65v13.12h-5.28v-42.85h5.28v3.28c1.4-1.18,2.98-2.16,4.73-2.96,1.75-.79,3.62-1.19,5.6-1.19,3.78,0,6.72,1.42,8.83,4.27,2.11,2.85,3.16,6.81,3.16,11.87ZM1313.27,232.5c0-3.77-.65-6.59-1.94-8.46-1.29-1.87-3.28-2.8-5.95-2.8-1.52,0-3.04.33-4.58.98-1.54.65-3,1.51-4.41,2.58v17.74c1.5.67,2.78,1.13,3.86,1.37,1.08.24,2.3.36,3.66.36,2.94,0,5.23-.99,6.88-2.97,1.65-1.98,2.47-4.91,2.47-8.8Z"/>
      <path class="cls-3" d="M1353.2,233.29h-23.11c0,1.92.29,3.6.87,5.03s1.38,2.6,2.39,3.52c.97.9,2.13,1.57,3.47,2.02,1.34.45,2.81.67,4.42.67,2.13,0,4.28-.42,6.44-1.27s3.7-1.69,4.62-2.51h.28v5.74c-1.78.75-3.59,1.37-5.45,1.88-1.85.5-3.8.76-5.84.76-5.2,0-9.27-1.41-12.19-4.22-2.92-2.81-4.38-6.81-4.38-11.98s1.4-9.18,4.2-12.19c2.8-3.01,6.48-4.51,11.05-4.51,4.23,0,7.49,1.23,9.79,3.7,2.29,2.47,3.44,5.97,3.44,10.51v2.86ZM1348.06,229.25c-.02-2.76-.72-4.9-2.09-6.42-1.38-1.51-3.47-2.27-6.28-2.27s-5.08.83-6.75,2.49c-1.68,1.66-2.62,3.73-2.85,6.19h17.97Z"/>
      <path class="cls-3" d="M1380.77,222.83h-.28c-.79-.19-1.55-.32-2.29-.41s-1.61-.13-2.62-.13c-1.63,0-3.2.36-4.72,1.08-1.52.72-2.98,1.65-4.38,2.79v22.22h-5.28v-31.3h5.28v4.62c2.1-1.68,3.95-2.87,5.54-3.57,1.6-.7,3.23-1.05,4.9-1.05.92,0,1.58.02,1.99.07.41.05,1.03.14,1.85.27v5.41Z"/>
      <path class="cls-3" d="M1433.56,232.36c0,2.54-.37,4.86-1.09,6.96-.73,2.1-1.76,3.88-3.09,5.34-1.24,1.38-2.69,2.45-4.37,3.21-1.68.76-3.45,1.14-5.32,1.14-1.63,0-3.1-.18-4.42-.53-1.32-.35-2.66-.91-4.03-1.65v13.12h-5.28v-42.85h5.28v3.28c1.4-1.18,2.98-2.16,4.73-2.96,1.75-.79,3.62-1.19,5.6-1.19,3.78,0,6.72,1.42,8.83,4.27,2.11,2.85,3.16,6.81,3.16,11.87ZM1428.11,232.5c0-3.77-.65-6.59-1.94-8.46-1.29-1.87-3.28-2.8-5.95-2.8-1.52,0-3.04.33-4.58.98-1.54.65-3,1.51-4.41,2.58v17.74c1.5.67,2.78,1.13,3.86,1.37,1.08.24,2.3.36,3.66.36,2.94,0,5.23-.99,6.88-2.97,1.65-1.98,2.47-4.91,2.47-8.8Z"/>
      <path class="cls-3" d="M1466.16,248.39h-5.25v-3.33c-.47.32-1.1.76-1.9,1.33-.8.57-1.57,1.02-2.32,1.36-.88.43-1.89.79-3.03,1.08-1.14.29-2.48.43-4.02.43-2.83,0-5.22-.93-7.19-2.8-1.96-1.87-2.95-4.25-2.95-7.15,0-2.37.51-4.29,1.53-5.76,1.02-1.47,2.48-2.62,4.37-3.46,1.91-.84,4.2-1.41,6.88-1.71,2.68-.3,5.55-.52,8.62-.67v-.81c0-1.2-.21-2.19-.63-2.97s-1.03-1.4-1.81-1.85c-.75-.43-1.65-.72-2.7-.87-1.05-.15-2.14-.22-3.29-.22-1.39,0-2.93.18-4.63.55-1.7.36-3.46.89-5.28,1.58h-.28v-5.35c1.03-.28,2.52-.59,4.46-.92,1.95-.34,3.87-.5,5.76-.5,2.21,0,4.13.18,5.77.55,1.64.36,3.06.99,4.25,1.86,1.18.86,2.08,1.97,2.7,3.33.62,1.36.93,3.05.93,5.07v21.24ZM1460.91,240.68v-8.72c-1.61.09-3.51.23-5.69.42-2.18.19-3.91.46-5.18.81-1.52.43-2.74,1.1-3.68,2-.94.91-1.4,2.15-1.4,3.74,0,1.79.54,3.14,1.63,4.05,1.08.91,2.74,1.36,4.97,1.36,1.85,0,3.55-.36,5.08-1.08s2.96-1.58,4.27-2.59Z"/>
      <path class="cls-3" d="M1501.76,244.83c0,5.31-1.21,9.2-3.62,11.69-2.42,2.48-6.13,3.73-11.15,3.73-1.67,0-3.29-.12-4.87-.35-1.58-.23-3.14-.56-4.68-.99v-5.38h.28c.86.34,2.23.75,4.1,1.25,1.87.49,3.74.74,5.62.74s3.29-.22,4.46-.64c1.18-.43,2.1-1.03,2.75-1.79.66-.73,1.12-1.61,1.4-2.63.28-1.03.42-2.18.42-3.45v-2.86c-1.59,1.27-3.11,2.22-4.56,2.84-1.45.63-3.3.94-5.54.94-3.74,0-6.72-1.35-8.92-4.05-2.2-2.7-3.3-6.51-3.3-11.42,0-2.69.38-5.01,1.14-6.96.76-1.95,1.79-3.64,3.1-5.06,1.22-1.33,2.7-2.36,4.44-3.1,1.74-.74,3.47-1.11,5.19-1.11,1.82,0,3.34.18,4.56.55,1.23.36,2.52.92,3.89,1.67l.34-1.35h4.94v27.74ZM1496.48,239.79v-17.07c-1.4-.63-2.71-1.09-3.92-1.36-1.21-.27-2.41-.41-3.61-.41-2.9,0-5.19.97-6.85,2.91-1.67,1.94-2.5,4.76-2.5,8.46s.62,6.17,1.85,7.99c1.24,1.81,3.29,2.72,6.15,2.72,1.53,0,3.07-.29,4.62-.88,1.54-.59,2.96-1.38,4.25-2.37Z"/>
      <path class="cls-3" d="M1538.4,233.29h-23.11c0,1.92.29,3.6.87,5.03s1.38,2.6,2.39,3.52c.97.9,2.13,1.57,3.47,2.02,1.34.45,2.81.67,4.42.67,2.13,0,4.28-.42,6.44-1.27s3.7-1.69,4.62-2.51h.28v5.74c-1.78.75-3.59,1.37-5.45,1.88-1.85.5-3.8.76-5.84.76-5.2,0-9.27-1.41-12.19-4.22-2.92-2.81-4.38-6.81-4.38-11.98s1.4-9.18,4.2-12.19c2.8-3.01,6.48-4.51,11.05-4.51,4.23,0,7.49,1.23,9.79,3.7,2.29,2.47,3.44,5.97,3.44,10.51v2.86ZM1533.26,229.25c-.02-2.76-.72-4.9-2.09-6.42-1.38-1.51-3.47-2.27-6.28-2.27s-5.08.83-6.75,2.49c-1.68,1.66-2.62,3.73-2.85,6.19h17.97Z"/>
    </g>
  </g>
</svg>