<?xml version="1.0" encoding="UTF-8"?>
<svg xmlns="http://www.w3.org/2000/svg" viewBox="0 0 1920 1080">
  <defs>
    <style>
      .cls-1 {
        fill: #0071bc;
      }

      .cls-1, .cls-2, .cls-3, .cls-4 {
        stroke-width: 0px;
      }

      .cls-5 {
        stroke: #c0c1c5;
      }

      .cls-5, .cls-6, .cls-7, .cls-8, .cls-9, .cls-10, .cls-11, .cls-12 {
        stroke-miterlimit: 10;
      }

      .cls-5, .cls-7 {
        stroke-width: 2.13px;
      }

      .cls-5, .cls-12 {
        fill: none;
      }

      .cls-13 {
        letter-spacing: -.05em;
      }

      .cls-6 {
        stroke-width: 3.56px;
      }

      .cls-6, .cls-7, .cls-8, .cls-9, .cls-10, .cls-11 {
        stroke: #fff;
      }

      .cls-6, .cls-7, .cls-9, .cls-11 {
        fill: gold;
      }

      .cls-2 {
        fill: #c0c1c5;
      }

      .cls-3, .cls-8, .cls-10 {
        fill: #666;
      }

      .cls-8, .cls-10 {
        stroke-width: 4.01px;
      }

      .cls-14 {
        fill: #000;
        font-size: 57.51px;
      }

      .cls-14, .cls-15 {
        font-family: Verdana, Verdana;
      }

      .cls-9 {
        stroke-width: 3.81px;
      }

      .cls-10 {
        opacity: .9;
      }

      .cls-4, .cls-15 {
        fill: #fff;
      }

      .cls-15 {
        font-size: 44px;
      }

      .cls-16 {
        fill: #575757;
        font-family: OpenSans-SemiBold, 'OpenSans SemiBold';
        font-size: 35.25px;
        font-weight: 600;
      }

      .cls-11 {
        stroke-width: 3.36px;
      }

      .cls-12 {
        stroke: #0071bc;
        stroke-width: 4px;
      }
    </style>
  </defs>
  <g id="Background">
    <rect class="cls-4" width="1920" height="1080"/>
  </g>
  <g id="Design">
    <rect class="cls-10" x="1641.63" y="53.95" width="269.34" height="319.27"/>
    <g id="Elements">
      <g>
        <path class="cls-7" d="M308.27,930.95h133.41c37.51,0,67.97,30.46,67.97,67.97v51.48H240.3v-51.48c0-37.51,30.46-67.97,67.97-67.97Z"/>
        <path class="cls-6" d="M658.6,613.75h133.41c37.51,0,67.97,30.46,67.97,67.97v368.68h-269.34v-368.68c0-37.51,30.46-67.97,67.97-67.97Z"/>
        <path class="cls-11" d="M1008.93,772.35h133.41c37.51,0,67.97,30.46,67.97,67.97v210.08h-269.34v-210.08c0-37.51,30.46-67.97,67.97-67.97Z"/>
        <path class="cls-9" d="M1359.27,455.15h133.41c37.51,0,67.97,30.46,67.97,67.97v527.28h-269.34v-527.28c0-37.51,30.46-67.97,67.97-67.97Z"/>
        <path class="cls-8" d="M1709.6,296.55h133.41c37.51,0,67.97,30.46,67.97,67.97v685.88h-269.34V364.52c0-37.51,30.46-67.97,67.97-67.97Z"/>
      </g>
      <g>
        <ellipse class="cls-2" cx="179.2" cy="927.89" rx="17.61" ry="17.58"/>
        <ellipse class="cls-2" cx="179.2" cy="769.29" rx="17.61" ry="17.58"/>
        <ellipse class="cls-2" cx="179.2" cy="610.69" rx="17.61" ry="17.58"/>
        <ellipse class="cls-2" cx="179.2" cy="452.09" rx="17.61" ry="17.58"/>
        <ellipse class="cls-2" cx="179.2" cy="293.49" rx="17.61" ry="17.58"/>
        <ellipse class="cls-2" cx="179.2" cy="134.89" rx="17.61" ry="17.58"/>
        <ellipse class="cls-2" cx="179.2" cy="1050.4" rx="17.61" ry="17.58"/>
        <line class="cls-5" x1="1910.98" y1="1050.4" x2="179.2" y2="1050.4"/>
        <line class="cls-5" x1="179.2" y1="1001.13" x2="179.2" y2="85.63"/>
      </g>
    </g>
    <g id="Font">
      <g>
        <text class="cls-16" transform="translate(105.59 942.41)"><tspan x="0" y="0">50</tspan></text>
        <text class="cls-16" transform="translate(113.11 1058.79)"><tspan x="0" y="0">0</tspan></text>
        <text class="cls-16" transform="translate(88.75 782.99)"><tspan x="0" y="0">100</tspan></text>
        <text class="cls-16" transform="translate(88.75 623.95)"><tspan x="0" y="0">150</tspan></text>
        <text class="cls-16" transform="translate(88.75 464.9)"><tspan x="0" y="0">200</tspan></text>
        <text class="cls-16" transform="translate(88.75 305.86)"><tspan x="0" y="0">250</tspan></text>
        <text class="cls-16" transform="translate(88.75 146.82)"><tspan x="0" y="0">300</tspan></text>
      </g>
    </g>
    <g>
      <path class="cls-4" d="M1757.37,585.64h-4.54l-3.14-8.92h-13.86l-3.14,8.92h-4.33l11.67-31.99h5.68l11.67,31.99ZM1748.37,573.08l-5.62-15.71-5.64,15.71h11.26Z"/>
      <path class="cls-4" d="M1782.02,585.64h-4.05v-13.66c0-1.1-.06-2.14-.19-3.1s-.37-1.72-.71-2.27c-.36-.6-.88-1.05-1.55-1.34-.67-.29-1.55-.44-2.63-.44s-2.26.27-3.47.82c-1.21.54-2.36,1.24-3.47,2.08v17.92h-4.05v-24h4.05v2.66c1.26-1.04,2.57-1.86,3.92-2.45,1.35-.59,2.73-.88,4.16-.88,2.6,0,4.58.78,5.94,2.34,1.36,1.56,2.04,3.81,2.04,6.75v15.58Z"/>
      <path class="cls-4" d="M1810.17,561.65l-14.04,32.85h-4.33l4.48-10.01-9.58-22.84h4.39l7.38,17.79,7.45-17.79h4.24Z"/>
      <path class="cls-4" d="M1691.12,638.44h-4.05v-2.51c-1.16,1-2.38,1.78-3.64,2.34s-2.63.84-4.11.84c-2.87,0-5.15-1.1-6.83-3.31-1.69-2.21-2.53-5.26-2.53-9.17,0-2.03.29-3.85.87-5.44.58-1.59,1.37-2.94,2.36-4.06.98-1.09,2.11-1.92,3.41-2.49,1.3-.57,2.64-.86,4.04-.86,1.26,0,2.38.13,3.36.4.98.27,2,.68,3.08,1.24v-10.4h4.05v33.43ZM1687.07,632.54v-13.77c-1.09-.49-2.07-.82-2.93-1.01-.86-.19-1.8-.28-2.82-.28-2.27,0-4.03.79-5.3,2.36-1.26,1.58-1.89,3.81-1.89,6.7s.49,5.02,1.46,6.5,2.54,2.22,4.69,2.22c1.15,0,2.31-.25,3.49-.76,1.18-.51,2.27-1.16,3.29-1.97Z"/>
      <path class="cls-4" d="M1719.58,626.46c0,3.91-1,7-3.01,9.26-2.01,2.26-4.7,3.39-8.07,3.39s-6.1-1.13-8.1-3.39c-2-2.26-3-5.35-3-9.26s1-7,3-9.27c2-2.27,4.7-3.41,8.1-3.41s6.06,1.14,8.07,3.41c2.01,2.27,3.01,5.36,3.01,9.27ZM1715.4,626.46c0-3.11-.61-5.42-1.83-6.93-1.22-1.51-2.91-2.27-5.08-2.27s-3.9.76-5.11,2.27c-1.21,1.51-1.82,3.82-1.82,6.93s.61,5.29,1.83,6.84c1.22,1.55,2.92,2.33,5.1,2.33s3.84-.77,5.07-2.31c1.23-1.54,1.84-3.83,1.84-6.86Z"/>
      <path class="cls-4" d="M1743.62,636.94c-1.35.64-2.63,1.15-3.84,1.5s-2.5.54-3.86.54c-1.74,0-3.33-.25-4.78-.76-1.45-.51-2.69-1.28-3.72-2.31-1.05-1.03-1.86-2.33-2.43-3.91-.57-1.58-.86-3.42-.86-5.52,0-3.92,1.08-7,3.24-9.24s5.01-3.35,8.56-3.35c1.38,0,2.73.19,4.06.58,1.33.39,2.54.86,3.65,1.42v4.49h-.21c-1.24-.96-2.51-1.7-3.82-2.21-1.31-.52-2.59-.77-3.84-.77-2.3,0-4.11.77-5.44,2.31-1.33,1.54-1.99,3.8-1.99,6.78s.65,5.12,1.95,6.67c1.3,1.55,3.12,2.33,5.48,2.33.82,0,1.65-.11,2.5-.32s1.61-.49,2.28-.84c.59-.3,1.14-.62,1.66-.96.52-.34.93-.63,1.23-.87h.21v4.45Z"/>
      <path class="cls-4" d="M1768.75,638.44h-4.05v-2.66c-1.36,1.07-2.67,1.9-3.92,2.47-1.25.57-2.63.86-4.13.86-2.53,0-4.49-.77-5.9-2.31-1.41-1.54-2.11-3.8-2.11-6.78v-15.58h4.05v13.66c0,1.22.06,2.26.17,3.13.12.87.36,1.61.73,2.22.39.63.89,1.09,1.51,1.38.62.29,1.51.43,2.69.43,1.05,0,2.19-.27,3.43-.82,1.24-.54,2.4-1.24,3.48-2.08v-17.92h4.05v24Z"/>
      <path class="cls-4" d="M1811.8,638.44h-4.05v-13.66c0-1.03-.05-2.03-.14-2.99-.09-.96-.29-1.73-.59-2.3-.33-.62-.8-1.08-1.42-1.4-.62-.31-1.51-.47-2.67-.47s-2.27.28-3.4.85c-1.13.57-2.27,1.29-3.4,2.16.04.33.08.71.11,1.15.03.44.04.87.04,1.3v15.36h-4.05v-13.66c0-1.06-.05-2.07-.14-3.02-.09-.95-.29-1.71-.59-2.29-.33-.62-.8-1.08-1.42-1.39-.62-.31-1.51-.46-2.67-.46s-2.21.27-3.33.82c-1.11.54-2.22,1.24-3.33,2.08v17.92h-4.05v-24h4.05v2.66c1.26-1.04,2.52-1.86,3.78-2.45,1.26-.59,2.59-.88,4.01-.88,1.64,0,3.02.34,4.17,1.03,1.14.69,1.99,1.64,2.55,2.86,1.64-1.38,3.13-2.37,4.48-2.98,1.35-.61,2.79-.91,4.33-.91,2.64,0,4.59.8,5.84,2.4,1.26,1.6,1.88,3.83,1.88,6.69v15.58Z"/>
      <path class="cls-4" d="M1839.72,626.86h-17.72c0,1.48.22,2.76.67,3.86.45,1.1,1.05,2,1.83,2.7.75.69,1.63,1.2,2.66,1.55s2.16.52,3.39.52c1.64,0,3.28-.33,4.94-.98,1.66-.65,2.84-1.29,3.54-1.92h.22v4.4c-1.36.57-2.76,1.05-4.18,1.44s-2.91.58-4.48.58c-3.99,0-7.1-1.08-9.34-3.23-2.24-2.16-3.36-5.22-3.36-9.18s1.07-7.04,3.22-9.35c2.15-2.31,4.97-3.46,8.47-3.46,3.24,0,5.74.95,7.5,2.84s2.64,4.58,2.64,8.06v2.19ZM1835.78,623.77c-.01-2.12-.55-3.76-1.6-4.92-1.05-1.16-2.66-1.74-4.81-1.74s-3.89.64-5.18,1.91c-1.28,1.28-2.01,2.86-2.18,4.75h13.78Z"/>
      <path class="cls-4" d="M1865.96,638.44h-4.05v-13.66c0-1.1-.06-2.14-.19-3.1s-.37-1.72-.71-2.27c-.36-.6-.88-1.05-1.55-1.34-.67-.29-1.55-.44-2.63-.44s-2.26.27-3.47.82c-1.21.54-2.36,1.24-3.47,2.08v17.92h-4.05v-24h4.05v2.66c1.26-1.04,2.57-1.86,3.92-2.45,1.35-.59,2.73-.88,4.16-.88,2.6,0,4.58.78,5.94,2.34,1.36,1.56,2.04,3.81,2.04,6.75v15.58Z"/>
      <path class="cls-4" d="M1886.24,638.23c-.76.2-1.59.37-2.49.49s-1.7.19-2.4.19c-2.45,0-4.32-.66-5.6-1.98-1.28-1.32-1.92-3.43-1.92-6.34v-12.76h-2.73v-3.39h2.73v-6.9h4.05v6.9h8.35v3.39h-8.35v10.94c0,1.26.03,2.25.09,2.95.06.71.26,1.37.6,1.99.32.57.75.99,1.3,1.26.55.27,1.4.4,2.53.4.66,0,1.35-.1,2.07-.29.72-.19,1.23-.35,1.55-.48h.21v3.63Z"/>
    </g>
    <g>
      <path class="cls-4" d="M1682.21,196.88h-21.12v-31.99h21.12v3.78h-16.86v8.77h16.86v3.78h-16.86v11.88h16.86v3.78Z"/>
      <path class="cls-4" d="M1709.46,196.88h-5.1l-6.82-9.22-6.87,9.22h-4.71l9.39-11.97-9.3-12.03h5.1l6.78,9.07,6.8-9.07h4.74l-9.45,11.82,9.45,12.18Z"/>
      <path class="cls-4" d="M1727.22,196.67c-.76.2-1.59.37-2.49.49s-1.7.19-2.4.19c-2.45,0-4.32-.66-5.6-1.98-1.28-1.32-1.92-3.43-1.92-6.34v-12.76h-2.73v-3.39h2.73v-6.9h4.05v6.9h8.35v3.39h-8.35v10.94c0,1.26.03,2.25.09,2.95.06.71.26,1.37.6,1.99.32.57.75.99,1.3,1.26.55.27,1.4.4,2.53.4.66,0,1.35-.1,2.07-.29.72-.19,1.23-.35,1.55-.48h.21v3.63Z"/>
      <path class="cls-4" d="M1747.12,177.29h-.21c-.6-.14-1.19-.25-1.75-.31-.57-.06-1.24-.1-2.01-.1-1.25,0-2.45.28-3.62.83-1.16.55-2.28,1.26-3.36,2.14v17.04h-4.05v-24h4.05v3.54c1.61-1.29,3.02-2.2,4.25-2.74,1.23-.54,2.48-.81,3.76-.81.7,0,1.21.02,1.53.05.32.04.79.1,1.42.2v4.15Z"/>
      <path class="cls-4" d="M1768.84,196.88h-4.03v-2.56c-.36.24-.84.58-1.45,1.02-.61.44-1.2.78-1.78,1.04-.67.33-1.45.6-2.33.83-.88.22-1.9.33-3.08.33-2.17,0-4-.72-5.51-2.15-1.51-1.43-2.26-3.26-2.26-5.48,0-1.82.39-3.29,1.17-4.42.78-1.12,1.9-2.01,3.35-2.65,1.46-.64,3.22-1.08,5.27-1.31,2.05-.23,4.25-.4,6.61-.52v-.62c0-.92-.16-1.68-.48-2.28-.32-.6-.79-1.07-1.39-1.42-.57-.33-1.26-.55-2.07-.67-.8-.11-1.64-.17-2.52-.17-1.06,0-2.25.14-3.55.42-1.31.28-2.65.68-4.05,1.21h-.21v-4.1c.79-.21,1.93-.45,3.42-.71,1.49-.26,2.96-.39,4.41-.39,1.69,0,3.17.14,4.42.42,1.25.28,2.34.76,3.26,1.43.9.66,1.59,1.51,2.07,2.56.47,1.05.71,2.34.71,3.89v16.29ZM1764.81,190.98v-6.68c-1.23.07-2.69.18-4.36.32-1.67.14-3,.35-3.97.62-1.16.33-2.1.84-2.82,1.54-.72.69-1.08,1.65-1.08,2.87,0,1.38.42,2.41,1.25,3.1.83.69,2.1,1.04,3.81,1.04,1.42,0,2.72-.28,3.9-.83,1.18-.55,2.27-1.21,3.27-1.99Z"/>
      <path class="cls-4" d="M1813.29,184.59c0,1.95-.28,3.73-.84,5.34s-1.35,2.98-2.37,4.09c-.95,1.06-2.06,1.88-3.35,2.46-1.29.58-2.64.87-4.08.87-1.25,0-2.38-.14-3.39-.41s-2.04-.69-3.09-1.27v10.05h-4.05v-32.85h4.05v2.51c1.08-.9,2.29-1.66,3.63-2.27,1.34-.61,2.77-.91,4.29-.91,2.9,0,5.16,1.09,6.77,3.28,1.61,2.18,2.42,5.22,2.42,9.1ZM1809.11,184.7c0-2.89-.5-5.06-1.49-6.49-.99-1.43-2.51-2.15-4.56-2.15-1.16,0-2.33.25-3.51.75-1.18.5-2.3,1.16-3.38,1.98v13.6c1.15.52,2.13.87,2.96,1.05.83.19,1.76.28,2.81.28,2.25,0,4.01-.76,5.27-2.28,1.26-1.52,1.89-3.77,1.89-6.75Z"/>
      <path class="cls-4" d="M1838.28,196.88h-4.03v-2.56c-.36.24-.84.58-1.45,1.02-.61.44-1.2.78-1.78,1.04-.67.33-1.45.6-2.33.83-.88.22-1.9.33-3.08.33-2.17,0-4-.72-5.51-2.15-1.51-1.43-2.26-3.26-2.26-5.48,0-1.82.39-3.29,1.17-4.42.78-1.12,1.9-2.01,3.35-2.65,1.46-.64,3.22-1.08,5.27-1.31,2.05-.23,4.25-.4,6.61-.52v-.62c0-.92-.16-1.68-.48-2.28-.32-.6-.79-1.07-1.39-1.42-.57-.33-1.26-.55-2.07-.67-.8-.11-1.64-.17-2.52-.17-1.06,0-2.25.14-3.55.42-1.31.28-2.65.68-4.05,1.21h-.21v-4.1c.79-.21,1.93-.45,3.42-.71,1.49-.26,2.96-.39,4.41-.39,1.69,0,3.17.14,4.42.42,1.25.28,2.34.76,3.26,1.43.9.66,1.59,1.51,2.07,2.56.47,1.05.71,2.34.71,3.89v16.29ZM1834.26,190.98v-6.68c-1.23.07-2.69.18-4.36.32-1.67.14-3,.35-3.97.62-1.16.33-2.1.84-2.82,1.54-.72.69-1.08,1.65-1.08,2.87,0,1.38.42,2.41,1.25,3.1.83.69,2.1,1.04,3.81,1.04,1.42,0,2.72-.28,3.9-.83,1.18-.55,2.27-1.21,3.27-1.99Z"/>
      <path class="cls-4" d="M1865.58,194.16c0,4.07-.92,7.05-2.78,8.96-1.85,1.9-4.7,2.86-8.55,2.86-1.28,0-2.52-.09-3.74-.27-1.21-.18-2.41-.43-3.58-.76v-4.12h.21c.66.26,1.71.58,3.14.96,1.43.38,2.87.57,4.3.57s2.52-.17,3.42-.49c.9-.33,1.61-.79,2.11-1.38.5-.56.86-1.23,1.08-2.02.21-.79.32-1.67.32-2.64v-2.19c-1.22.97-2.39,1.7-3.5,2.18-1.11.48-2.53.72-4.25.72-2.87,0-5.15-1.03-6.83-3.1-1.69-2.07-2.53-4.99-2.53-8.75,0-2.06.29-3.84.87-5.34.58-1.5,1.37-2.79,2.38-3.88.93-1.02,2.07-1.81,3.4-2.37,1.33-.57,2.66-.85,3.98-.85,1.39,0,2.56.14,3.5.42.94.28,1.93.71,2.98,1.28l.26-1.03h3.79v21.27ZM1861.53,190.29v-13.08c-1.08-.49-2.08-.83-3-1.04-.93-.21-1.85-.31-2.77-.31-2.22,0-3.98.75-5.25,2.23-1.28,1.49-1.92,3.65-1.92,6.49s.47,4.73,1.42,6.12c.95,1.39,2.52,2.08,4.71,2.08,1.18,0,2.36-.23,3.54-.68,1.18-.45,2.27-1.06,3.26-1.82Z"/>
      <path class="cls-4" d="M1893.67,185.3h-17.72c0,1.48.22,2.76.67,3.86.45,1.1,1.05,1.99,1.83,2.7.75.69,1.63,1.2,2.66,1.55s2.16.52,3.39.52c1.64,0,3.28-.33,4.94-.98,1.66-.65,2.84-1.29,3.54-1.92h.22v4.4c-1.36.57-2.76,1.05-4.18,1.44s-2.91.58-4.48.58c-3.99,0-7.1-1.08-9.34-3.23-2.24-2.16-3.36-5.22-3.36-9.18s1.07-7.04,3.22-9.35c2.15-2.31,4.97-3.46,8.47-3.46,3.24,0,5.74.95,7.5,2.84s2.64,4.58,2.64,8.06v2.19ZM1889.73,182.21c-.01-2.12-.55-3.76-1.6-4.92-1.05-1.16-2.66-1.74-4.81-1.74s-3.89.64-5.18,1.91c-1.28,1.27-2.01,2.86-2.18,4.75h13.78Z"/>
    </g>
  </g>
  <g id="Dimensions">
    <path class="cls-12" d="M240.3,441.6v-34.24h1306.5v34.17"/>
    <text class="cls-14" transform="translate(60.12 707.98) rotate(-90)"><tspan class="cls-13" x="0" y="0">W</tspan><tspan x="54.05" y="0">ord count</tspan></text>
    <text class="cls-15" transform="translate(340.64 1008.7)"><tspan x="0" y="0">ID</tspan></text>
    <g>
      <path class="cls-4" d="M697.26,777.8c0,1.59-.3,2.99-.9,4.21-.6,1.22-1.41,2.22-2.43,3.01-1.21.95-2.53,1.62-3.97,2.02-1.44.4-3.28.6-5.5.6h-11.37v-31.99h9.49c2.34,0,4.09.09,5.25.26s2.27.53,3.34,1.07c1.18.62,2.03,1.41,2.56,2.37.53.97.8,2.12.8,3.47,0,1.52-.39,2.81-1.16,3.88-.77,1.07-1.81,1.92-3.1,2.57v.17c2.17.44,3.87,1.39,5.12,2.85,1.25,1.45,1.87,3.29,1.87,5.51ZM690.09,763.39c0-.77-.13-1.42-.39-1.96-.26-.53-.67-.96-1.25-1.29-.67-.39-1.49-.63-2.45-.72-.96-.09-2.15-.14-3.57-.14h-5.08v9.24h5.51c1.33,0,2.4-.07,3.19-.2.79-.14,1.52-.42,2.2-.85.67-.43,1.15-.98,1.43-1.67.28-.68.42-1.49.42-2.42ZM692.82,777.97c0-1.29-.19-2.31-.58-3.07-.39-.76-1.09-1.4-2.11-1.93-.69-.36-1.52-.59-2.51-.7s-2.18-.16-3.58-.16h-6.69v11.9h5.64c1.87,0,3.39-.1,4.59-.29,1.19-.19,2.17-.55,2.93-1.06.8-.56,1.39-1.2,1.77-1.91.37-.72.56-1.64.56-2.77Z"/>
      <path class="cls-4" d="M707.33,759.63h-4.56v-4.19h4.56v4.19ZM707.07,787.64h-4.05v-24h4.05v24Z"/>
      <path class="cls-4" d="M730.09,768.05h-.22c-.6-.14-1.19-.25-1.75-.31-.57-.06-1.24-.1-2.01-.1-1.25,0-2.45.28-3.62.83-1.16.55-2.28,1.26-3.36,2.14v17.04h-4.05v-24h4.05v3.54c1.61-1.29,3.02-2.2,4.25-2.74s2.48-.81,3.76-.81c.7,0,1.21.02,1.53.05.32.04.79.1,1.42.2v4.15Z"/>
      <path class="cls-4" d="M746.38,787.43c-.76.2-1.59.37-2.49.49s-1.7.19-2.4.19c-2.45,0-4.32-.66-5.6-1.98-1.28-1.32-1.92-3.43-1.92-6.34v-12.76h-2.73v-3.39h2.73v-6.9h4.05v6.9h8.35v3.39h-8.35v10.94c0,1.26.03,2.25.09,2.95.06.71.26,1.37.6,1.99.32.57.75.99,1.3,1.26.55.27,1.4.4,2.53.4.66,0,1.35-.1,2.07-.29s1.23-.35,1.55-.48h.22v3.63Z"/>
      <path class="cls-4" d="M771.37,787.64h-4.05v-13.66c0-1.1-.06-2.14-.19-3.1-.13-.97-.37-1.72-.71-2.27-.36-.6-.88-1.05-1.55-1.34-.67-.29-1.55-.44-2.63-.44s-2.26.27-3.47.82c-1.21.54-2.36,1.24-3.47,2.08v17.92h-4.05v-33.43h4.05v12.1c1.26-1.04,2.57-1.86,3.92-2.45,1.35-.59,2.73-.88,4.15-.88,2.6,0,4.58.78,5.94,2.34,1.36,1.56,2.04,3.81,2.04,6.75v15.58Z"/>
      <path class="cls-4" d="M638.04,838.12c-.79.34-1.5.67-2.14.97-.64.3-1.47.62-2.51.95-.88.27-1.83.5-2.85.7-1.03.19-2.16.29-3.39.29-2.32,0-4.44-.33-6.34-.98-1.9-.65-3.56-1.67-4.96-3.06-1.38-1.36-2.45-3.09-3.23-5.19-.77-2.1-1.16-4.54-1.16-7.32,0-2.63.37-4.99,1.12-7.07.75-2.08,1.82-3.83,3.23-5.26,1.36-1.39,3.01-2.45,4.94-3.18,1.93-.73,4.07-1.1,6.43-1.1,1.72,0,3.44.21,5.16.62,1.71.42,3.62,1.15,5.72,2.19v5.05h-.32c-1.77-1.47-3.52-2.55-5.25-3.22-1.74-.67-3.6-1.01-5.58-1.01-1.62,0-3.08.26-4.38.78-1.3.52-2.46,1.34-3.48,2.44-.99,1.07-1.76,2.43-2.31,4.07-.55,1.64-.83,3.53-.83,5.68s.3,4.18.92,5.8c.61,1.62,1.4,2.94,2.36,3.95,1,1.06,2.18,1.84,3.52,2.35,1.34.51,2.76.76,4.25.76,2.05,0,3.97-.35,5.77-1.05,1.79-.7,3.47-1.75,5.04-3.16h.3v4.98Z"/>
      <path class="cls-4" d="M663.87,828.86h-17.72c0,1.48.22,2.76.67,3.86.44,1.1,1.05,2,1.83,2.7.75.69,1.63,1.2,2.66,1.55,1.03.34,2.16.52,3.39.52,1.64,0,3.28-.33,4.94-.98,1.66-.65,2.84-1.29,3.54-1.92h.21v4.4c-1.36.57-2.76,1.05-4.18,1.44-1.42.39-2.91.58-4.48.58-3.99,0-7.1-1.08-9.34-3.23-2.24-2.16-3.36-5.22-3.36-9.18s1.07-7.04,3.22-9.35c2.15-2.31,4.97-3.46,8.47-3.46,3.24,0,5.74.95,7.5,2.84,1.76,1.89,2.64,4.58,2.64,8.06v2.19ZM659.93,825.77c-.01-2.12-.55-3.76-1.6-4.92s-2.66-1.74-4.81-1.74-3.89.64-5.18,1.91c-1.28,1.28-2.01,2.86-2.19,4.75h13.78Z"/>
      <path class="cls-4" d="M685.01,820.85h-.22c-.6-.14-1.19-.25-1.75-.31-.57-.06-1.24-.1-2.01-.1-1.25,0-2.45.28-3.62.83-1.16.55-2.28,1.26-3.36,2.14v17.04h-4.05v-24h4.05v3.54c1.61-1.29,3.02-2.2,4.25-2.74s2.48-.81,3.76-.81c.7,0,1.21.02,1.53.05.32.04.79.1,1.42.2v4.15Z"/>
      <path class="cls-4" d="M701.31,840.23c-.76.2-1.59.37-2.49.49s-1.7.19-2.4.19c-2.45,0-4.32-.66-5.6-1.98-1.28-1.32-1.92-3.43-1.92-6.34v-12.76h-2.73v-3.39h2.73v-6.9h4.05v6.9h8.35v3.39h-8.35v10.94c0,1.26.03,2.25.09,2.95.06.71.26,1.37.6,1.99.32.57.75.99,1.3,1.26.55.27,1.4.4,2.53.4.66,0,1.35-.1,2.07-.29s1.23-.35,1.55-.48h.22v3.63Z"/>
      <path class="cls-4" d="M710.54,812.43h-4.56v-4.19h4.56v4.19ZM710.28,840.44h-4.05v-24h4.05v24Z"/>
      <path class="cls-4" d="M731.23,810.92h-.22c-.44-.13-1.03-.26-1.74-.4-.72-.14-1.35-.2-1.89-.2-1.74,0-3,.38-3.78,1.15-.78.77-1.17,2.15-1.17,4.16v.82h7.3v3.39h-7.17v20.6h-4.05v-20.6h-2.73v-3.39h2.73v-.79c0-2.85.71-5.04,2.13-6.56,1.42-1.53,3.47-2.29,6.16-2.29.9,0,1.72.04,2.44.13s1.39.19,1.99.3v3.7Z"/>
      <path class="cls-4" d="M738.14,812.43h-4.56v-4.19h4.56v4.19ZM737.88,840.44h-4.05v-24h4.05v24Z"/>
      <path class="cls-4" d="M763.67,838.94c-1.35.64-2.63,1.15-3.84,1.5s-2.5.54-3.86.54c-1.74,0-3.33-.25-4.78-.76s-2.69-1.28-3.72-2.31c-1.05-1.03-1.86-2.33-2.43-3.91-.57-1.58-.86-3.42-.86-5.52,0-3.92,1.08-7,3.24-9.24,2.16-2.23,5.01-3.35,8.56-3.35,1.38,0,2.73.19,4.06.58,1.33.39,2.54.86,3.65,1.42v4.49h-.22c-1.23-.96-2.51-1.7-3.82-2.21-1.31-.52-2.59-.77-3.84-.77-2.3,0-4.11.77-5.44,2.31-1.33,1.54-1.99,3.8-1.99,6.78s.65,5.12,1.95,6.67c1.3,1.55,3.12,2.33,5.48,2.33.82,0,1.65-.11,2.5-.32s1.61-.49,2.28-.84c.59-.3,1.14-.62,1.66-.96.52-.34.93-.63,1.23-.87h.22v4.45Z"/>
      <path class="cls-4" d="M787.54,840.44h-4.03v-2.56c-.36.24-.84.58-1.45,1.02-.61.44-1.2.78-1.78,1.04-.67.33-1.45.6-2.32.83-.88.22-1.9.33-3.08.33-2.17,0-4-.72-5.51-2.15-1.51-1.43-2.26-3.26-2.26-5.48,0-1.82.39-3.29,1.17-4.42.78-1.12,1.9-2.01,3.35-2.65,1.46-.64,3.22-1.08,5.27-1.31,2.05-.23,4.25-.4,6.61-.52v-.62c0-.92-.16-1.68-.48-2.28-.32-.6-.79-1.07-1.39-1.42-.57-.33-1.26-.55-2.07-.67-.8-.11-1.64-.17-2.52-.17-1.06,0-2.25.14-3.55.42-1.31.28-2.66.68-4.05,1.21h-.22v-4.1c.79-.21,1.93-.45,3.42-.71s2.96-.39,4.41-.39c1.69,0,3.17.14,4.42.42s2.34.76,3.26,1.43c.9.66,1.59,1.51,2.07,2.56.47,1.05.71,2.34.71,3.89v16.29ZM783.52,834.54v-6.68c-1.23.07-2.69.18-4.36.32-1.67.14-3,.35-3.97.62-1.16.33-2.1.84-2.82,1.54-.72.7-1.08,1.65-1.08,2.87,0,1.38.42,2.41,1.25,3.1.83.7,2.1,1.04,3.81,1.04,1.42,0,2.72-.28,3.9-.83,1.18-.55,2.27-1.21,3.27-1.99Z"/>
      <path class="cls-4" d="M807.82,840.23c-.76.2-1.59.37-2.49.49s-1.7.19-2.4.19c-2.45,0-4.32-.66-5.6-1.98-1.28-1.32-1.92-3.43-1.92-6.34v-12.76h-2.73v-3.39h2.73v-6.9h4.05v6.9h8.35v3.39h-8.35v10.94c0,1.26.03,2.25.09,2.95.06.71.26,1.37.6,1.99.32.57.75.99,1.3,1.26.55.27,1.4.4,2.53.4.66,0,1.35-.1,2.07-.29s1.23-.35,1.55-.48h.22v3.63Z"/>
      <path class="cls-4" d="M832.83,828.86h-17.72c0,1.48.22,2.76.67,3.86.44,1.1,1.05,2,1.83,2.7.75.69,1.63,1.2,2.66,1.55,1.03.34,2.16.52,3.39.52,1.64,0,3.28-.33,4.94-.98,1.66-.65,2.84-1.29,3.54-1.92h.21v4.4c-1.36.57-2.76,1.05-4.18,1.44-1.42.39-2.91.58-4.48.58-3.99,0-7.1-1.08-9.34-3.23-2.24-2.16-3.36-5.22-3.36-9.18s1.07-7.04,3.22-9.35c2.15-2.31,4.97-3.46,8.47-3.46,3.24,0,5.74.95,7.5,2.84,1.76,1.89,2.64,4.58,2.64,8.06v2.19ZM828.89,825.77c-.01-2.12-.55-3.76-1.6-4.92s-2.66-1.74-4.81-1.74-3.89.64-5.18,1.91c-1.28,1.28-2.01,2.86-2.19,4.75h13.78Z"/>
    </g>
    <g>
      <path class="cls-4" d="M1039.48,877.91c0,2.32-.25,4.34-.76,6.07-.51,1.73-1.35,3.16-2.51,4.31-1.11,1.09-2.4,1.88-3.88,2.38-1.48.5-3.2.75-5.17.75s-3.76-.27-5.25-.79c-1.49-.53-2.75-1.31-3.77-2.34-1.16-1.17-2-2.59-2.51-4.25-.51-1.66-.76-3.7-.76-6.12v-19.14h4.26v19.36c0,1.73.12,3.1.36,4.1.24,1,.63,1.91,1.19,2.73.63.93,1.49,1.63,2.57,2.11,1.08.47,2.39.71,3.91.71s2.84-.23,3.92-.7c1.08-.46,1.94-1.17,2.58-2.12.56-.82.96-1.75,1.19-2.8.24-1.05.36-2.36.36-3.92v-19.46h4.26v19.14Z"/>
      <path class="cls-4" d="M1059.78,890.55c-.76.2-1.59.37-2.49.49s-1.7.19-2.4.19c-2.45,0-4.32-.66-5.6-1.98-1.28-1.32-1.92-3.43-1.92-6.34v-12.76h-2.73v-3.39h2.73v-6.9h4.05v6.9h8.35v3.39h-8.35v10.94c0,1.26.03,2.25.09,2.95.06.71.26,1.37.6,1.99.32.57.75.99,1.3,1.26.55.27,1.4.4,2.53.4.66,0,1.35-.1,2.07-.29.72-.19,1.23-.35,1.55-.48h.21v3.63Z"/>
      <path class="cls-4" d="M1069.02,862.75h-4.56v-4.19h4.56v4.19ZM1068.76,890.76h-4.05v-24h4.05v24Z"/>
      <path class="cls-4" d="M1080.86,890.76h-4.05v-33.43h4.05v33.43Z"/>
      <path class="cls-4" d="M1093.21,862.75h-4.56v-4.19h4.56v4.19ZM1092.96,890.76h-4.05v-24h4.05v24Z"/>
      <path class="cls-4" d="M1113.45,890.55c-.76.2-1.59.37-2.49.49s-1.7.19-2.4.19c-2.45,0-4.32-.66-5.6-1.98-1.28-1.32-1.92-3.43-1.92-6.34v-12.76h-2.73v-3.39h2.73v-6.9h4.05v6.9h8.35v3.39h-8.35v10.94c0,1.26.03,2.25.09,2.95.06.71.26,1.37.6,1.99.32.57.75.99,1.3,1.26.55.27,1.4.4,2.53.4.66,0,1.35-.1,2.07-.29.72-.19,1.23-.35,1.55-.48h.21v3.63Z"/>
      <path class="cls-4" d="M1138.92,866.76l-14.04,32.85h-4.33l4.48-10.01-9.58-22.84h4.39l7.38,17.79,7.45-17.79h4.24Z"/>
      <path class="cls-4" d="M1070.86,933.72c0,1.59-.3,2.99-.9,4.21-.6,1.22-1.41,2.22-2.43,3.01-1.21.95-2.53,1.62-3.97,2.02-1.44.4-3.28.6-5.5.6h-11.37v-31.99h9.49c2.34,0,4.09.09,5.25.26,1.16.17,2.28.53,3.34,1.07,1.18.62,2.03,1.41,2.56,2.37.53.97.8,2.12.8,3.47,0,1.52-.39,2.81-1.16,3.88-.78,1.07-1.81,1.92-3.1,2.57v.17c2.17.44,3.88,1.39,5.12,2.85,1.25,1.45,1.87,3.29,1.87,5.51ZM1063.69,919.31c0-.77-.13-1.42-.39-1.96-.26-.53-.67-.96-1.25-1.29-.67-.39-1.49-.63-2.45-.72-.96-.09-2.15-.14-3.57-.14h-5.08v9.24h5.51c1.33,0,2.4-.07,3.19-.2.79-.14,1.52-.42,2.2-.85s1.15-.98,1.43-1.67c.28-.68.42-1.49.42-2.42ZM1066.42,933.89c0-1.29-.19-2.31-.58-3.07-.39-.76-1.09-1.4-2.11-1.93-.69-.36-1.53-.59-2.51-.7-.98-.11-2.18-.16-3.58-.16h-6.7v11.9h5.64c1.87,0,3.39-.1,4.58-.29s2.17-.55,2.93-1.06c.8-.56,1.39-1.2,1.76-1.91.37-.72.56-1.64.56-2.77Z"/>
      <path class="cls-4" d="M1080.93,915.55h-4.56v-4.19h4.56v4.19ZM1080.67,943.56h-4.05v-24h4.05v24Z"/>
      <path class="cls-4" d="M1092.77,943.56h-4.05v-33.43h4.05v33.43Z"/>
      <path class="cls-4" d="M1104.87,943.56h-4.05v-33.43h4.05v33.43Z"/>
    </g>
    <g>
      <path class="cls-4" d="M1372.55,681.18c0,2.91-.63,5.54-1.9,7.91-1.27,2.36-2.96,4.2-5.07,5.5-1.46.9-3.1,1.55-4.9,1.96-1.8.4-4.17.6-7.11.6h-8.09v-31.99h8.01c3.13,0,5.61.23,7.46.68,1.84.45,3.4,1.07,4.68,1.86,2.18,1.36,3.88,3.17,5.1,5.44,1.22,2.26,1.83,4.95,1.83,8.06ZM1368.1,681.12c0-2.51-.44-4.62-1.31-6.34-.88-1.72-2.18-3.07-3.92-4.06-1.26-.72-2.6-1.21-4.03-1.49s-3.12-.42-5.1-.42h-4v24.69h4c2.05,0,3.84-.15,5.37-.45s2.93-.86,4.21-1.68c1.59-1.02,2.79-2.36,3.58-4.02.8-1.66,1.19-3.74,1.19-6.23Z"/>
      <path class="cls-4" d="M1399.61,685.16c0,3.91-1,7-3.01,9.26-2.01,2.26-4.7,3.39-8.07,3.39s-6.1-1.13-8.1-3.39c-2-2.26-3-5.35-3-9.26s1-7,3-9.27c2-2.27,4.7-3.41,8.1-3.41s6.06,1.14,8.07,3.41c2.01,2.27,3.01,5.36,3.01,9.27ZM1395.44,685.16c0-3.11-.61-5.42-1.83-6.93-1.22-1.51-2.91-2.27-5.08-2.27s-3.9.76-5.11,2.27c-1.21,1.51-1.82,3.82-1.82,6.93s.61,5.29,1.83,6.84c1.22,1.55,2.92,2.33,5.1,2.33s3.84-.77,5.07-2.31c1.23-1.54,1.84-3.83,1.84-6.86Z"/>
      <path class="cls-4" d="M1423.66,695.64c-1.35.64-2.63,1.15-3.84,1.5s-2.5.54-3.86.54c-1.74,0-3.33-.25-4.78-.76-1.45-.51-2.69-1.28-3.72-2.31-1.05-1.03-1.86-2.33-2.43-3.91-.57-1.58-.86-3.42-.86-5.52,0-3.92,1.08-7,3.24-9.24s5.01-3.35,8.56-3.35c1.38,0,2.73.19,4.06.58,1.33.39,2.54.86,3.65,1.42v4.49h-.21c-1.24-.96-2.51-1.7-3.82-2.21-1.31-.52-2.59-.77-3.84-.77-2.3,0-4.11.77-5.44,2.31-1.33,1.54-1.99,3.8-1.99,6.78s.65,5.12,1.95,6.67c1.3,1.55,3.12,2.33,5.48,2.33.82,0,1.65-.11,2.5-.32s1.61-.49,2.28-.84c.59-.3,1.14-.62,1.66-.96.52-.34.93-.63,1.23-.87h.21v4.45Z"/>
      <path class="cls-4" d="M1441.33,696.93c-.76.2-1.59.37-2.49.49s-1.7.19-2.4.19c-2.45,0-4.32-.66-5.6-1.98-1.28-1.32-1.92-3.43-1.92-6.34v-12.76h-2.73v-3.39h2.73v-6.9h4.05v6.9h8.35v3.39h-8.35v10.94c0,1.26.03,2.25.09,2.95.06.71.26,1.37.6,1.99.32.57.75.99,1.3,1.26.55.27,1.4.4,2.53.4.66,0,1.35-.1,2.07-.29.72-.19,1.23-.35,1.55-.48h.21v3.63Z"/>
      <path class="cls-4" d="M1466.71,685.16c0,3.91-1,7-3.01,9.26-2.01,2.26-4.7,3.39-8.07,3.39s-6.1-1.13-8.1-3.39c-2-2.26-3-5.35-3-9.26s1-7,3-9.27c2-2.27,4.7-3.41,8.1-3.41s6.06,1.14,8.07,3.41c2.01,2.27,3.01,5.36,3.01,9.27ZM1462.54,685.16c0-3.11-.61-5.42-1.83-6.93-1.22-1.51-2.91-2.27-5.08-2.27s-3.9.76-5.11,2.27c-1.21,1.51-1.82,3.82-1.82,6.93s.61,5.29,1.83,6.84c1.22,1.55,2.92,2.33,5.1,2.33s3.84-.77,5.07-2.31c1.23-1.54,1.84-3.83,1.84-6.86Z"/>
      <path class="cls-4" d="M1487.98,677.55h-.21c-.6-.14-1.19-.25-1.75-.31-.57-.06-1.24-.1-2.01-.1-1.25,0-2.45.28-3.62.83-1.16.55-2.28,1.26-3.36,2.14v17.04h-4.05v-24h4.05v3.54c1.61-1.29,3.02-2.2,4.25-2.74,1.23-.54,2.48-.81,3.76-.81.7,0,1.21.02,1.53.05.32.04.79.1,1.42.2v4.15Z"/>
      <path class="cls-4" d="M1508.97,690.23c0,2.19-.91,3.99-2.72,5.39-1.82,1.4-4.29,2.11-7.44,2.11-1.78,0-3.41-.21-4.9-.63s-2.73-.88-3.73-1.39v-4.53h.21c1.28.96,2.7,1.72,4.26,2.29,1.56.57,3.06.85,4.5.85,1.78,0,3.17-.29,4.18-.86,1-.57,1.51-1.47,1.51-2.71,0-.95-.27-1.66-.82-2.15-.55-.49-1.59-.9-3.14-1.25-.57-.13-1.32-.28-2.25-.45s-1.77-.36-2.53-.56c-2.11-.56-3.61-1.38-4.49-2.46-.88-1.08-1.32-2.41-1.32-3.99,0-.99.2-1.92.61-2.79.41-.87,1.03-1.65,1.86-2.34.8-.67,1.83-1.21,3.07-1.6,1.24-.39,2.63-.59,4.17-.59,1.43,0,2.89.18,4.36.53,1.47.35,2.69.78,3.67,1.28v4.32h-.22c-1.03-.76-2.29-1.4-3.77-1.92-1.48-.52-2.93-.78-4.35-.78s-2.73.28-3.75.85c-1.02.57-1.53,1.41-1.53,2.52,0,.99.31,1.73.93,2.23.6.5,1.58.91,2.93,1.22.75.17,1.58.34,2.51.52s1.7.33,2.31.47c1.88.43,3.33,1.17,4.35,2.21,1.02,1.06,1.53,2.46,1.53,4.21Z"/>
      <path class="cls-4" d="M1400.92,749.94h-4.05v-13.66c0-1.1-.06-2.14-.19-3.1s-.37-1.72-.71-2.27c-.36-.6-.88-1.05-1.55-1.34-.67-.29-1.55-.44-2.63-.44s-2.26.27-3.47.82c-1.21.54-2.36,1.24-3.47,2.08v17.92h-4.05v-24h4.05v2.66c1.26-1.04,2.57-1.86,3.92-2.45,1.35-.59,2.73-.88,4.16-.88,2.6,0,4.58.78,5.94,2.34,1.36,1.56,2.04,3.81,2.04,6.75v15.58Z"/>
      <path class="cls-4" d="M1429.2,737.96c0,3.91-1,7-3.01,9.26-2.01,2.26-4.7,3.39-8.07,3.39s-6.1-1.13-8.1-3.39c-2-2.26-3-5.35-3-9.26s1-7,3-9.27c2-2.27,4.7-3.41,8.1-3.41s6.06,1.14,8.07,3.41c2.01,2.27,3.01,5.36,3.01,9.27ZM1425.02,737.96c0-3.11-.61-5.42-1.83-6.93-1.22-1.51-2.91-2.27-5.08-2.27s-3.9.76-5.11,2.27c-1.21,1.51-1.82,3.82-1.82,6.93s.61,5.29,1.83,6.84c1.22,1.55,2.92,2.33,5.1,2.33s3.84-.77,5.07-2.31c1.23-1.54,1.84-3.83,1.84-6.86Z"/>
      <path class="cls-4" d="M1447.95,749.73c-.76.2-1.59.37-2.49.49s-1.7.19-2.4.19c-2.45,0-4.32-.66-5.6-1.98-1.28-1.32-1.92-3.43-1.92-6.34v-12.76h-2.73v-3.39h2.73v-6.9h4.05v6.9h8.35v3.39h-8.35v10.94c0,1.26.03,2.25.09,2.95.06.71.26,1.37.6,1.99.32.57.75.99,1.3,1.26.55.27,1.4.4,2.53.4.66,0,1.35-.1,2.07-.29.72-.19,1.23-.35,1.55-.48h.21v3.63Z"/>
      <path class="cls-4" d="M1472.96,738.36h-17.72c0,1.48.22,2.76.67,3.86.45,1.1,1.05,2,1.83,2.7.75.69,1.63,1.2,2.66,1.55s2.16.52,3.39.52c1.64,0,3.28-.33,4.94-.98,1.66-.65,2.84-1.29,3.54-1.92h.22v4.4c-1.36.57-2.76,1.05-4.18,1.44s-2.91.58-4.48.58c-3.99,0-7.1-1.08-9.34-3.23-2.24-2.16-3.36-5.22-3.36-9.18s1.07-7.04,3.22-9.35c2.15-2.31,4.97-3.46,8.47-3.46,3.24,0,5.74.95,7.5,2.84s2.64,4.58,2.64,8.06v2.19ZM1469.03,735.27c-.01-2.12-.55-3.76-1.6-4.92-1.05-1.16-2.66-1.74-4.81-1.74s-3.89.64-5.18,1.91c-1.28,1.28-2.01,2.86-2.18,4.75h13.78Z"/>
    </g>
    <g>
      <path class="cls-1" d="M759.18,278.26l-10.87,41.73h-6.26l-8.79-34.64-8.59,34.64h-6.12l-11.06-41.73h5.7l8.79,34.69,8.65-34.69h5.64l8.73,35.03,8.73-35.03h5.45Z"/>
      <path class="cls-1" d="M772.63,283.45h-5.95v-5.46h5.95v5.46ZM772.29,319.99h-5.28v-31.3h5.28v31.3Z"/>
      <path class="cls-1" d="M799.02,319.71c-.99.26-2.07.48-3.24.64-1.17.17-2.21.25-3.13.25-3.2,0-5.63-.86-7.3-2.58-1.67-1.72-2.5-4.47-2.5-8.27v-16.65h-3.57v-4.43h3.57v-9h5.28v9h10.89v4.43h-10.89v14.26c0,1.64.04,2.93.11,3.85.07.92.34,1.79.79,2.59.41.75.98,1.29,1.7,1.64.72.35,1.82.52,3.3.52.86,0,1.76-.13,2.7-.38.94-.25,1.61-.46,2.02-.63h.28v4.74Z"/>
      <path class="cls-1" d="M831.62,319.99h-5.28v-17.82c0-1.44-.08-2.79-.25-4.05-.17-1.26-.48-2.25-.93-2.96-.47-.78-1.14-1.37-2.02-1.75-.88-.38-2.02-.57-3.43-.57s-2.95.35-4.52,1.06c-1.57.71-3.08,1.62-4.52,2.72v23.37h-5.28v-43.6h5.28v15.78c1.65-1.36,3.35-2.43,5.11-3.19,1.76-.77,3.57-1.15,5.42-1.15,3.39,0,5.97,1.02,7.75,3.05,1.78,2.04,2.67,4.97,2.67,8.8v20.32Z"/>
      <path class="cls-1" d="M894.72,316.96c-1.03.45-1.96.87-2.79,1.26-.83.39-1.92.8-3.27,1.23-1.14.35-2.38.66-3.72.91-1.34.25-2.81.38-4.42.38-3.03,0-5.79-.43-8.27-1.28-2.48-.85-4.64-2.18-6.47-3.99-1.8-1.77-3.2-4.03-4.21-6.77-1.01-2.74-1.52-5.92-1.52-9.54,0-3.44.49-6.51,1.46-9.22s2.38-5,4.21-6.87c1.78-1.81,3.93-3.19,6.44-4.15,2.52-.95,5.31-1.43,8.38-1.43,2.25,0,4.49.27,6.73.81,2.24.54,4.72,1.5,7.45,2.86v6.59h-.42c-2.3-1.92-4.59-3.33-6.85-4.2-2.27-.88-4.69-1.32-7.27-1.32-2.12,0-4.02.34-5.71,1.02-1.69.68-3.21,1.74-4.53,3.18-1.29,1.4-2.3,3.17-3.02,5.31s-1.08,4.61-1.08,7.41.4,5.46,1.19,7.57c.8,2.11,1.82,3.83,3.07,5.16,1.31,1.38,2.84,2.41,4.59,3.07,1.75.66,3.6,1,5.55,1,2.68,0,5.18-.46,7.52-1.37,2.34-.92,4.53-2.29,6.57-4.12h.39v6.5Z"/>
      <path class="cls-1" d="M928.41,304.89h-23.11c0,1.92.29,3.6.87,5.03s1.38,2.6,2.39,3.52c.97.9,2.13,1.57,3.47,2.02,1.34.45,2.81.67,4.42.67,2.13,0,4.28-.42,6.44-1.27s3.7-1.69,4.62-2.51h.28v5.74c-1.78.75-3.59,1.37-5.45,1.88s-3.8.76-5.84.76c-5.21,0-9.27-1.41-12.19-4.22-2.92-2.81-4.38-6.81-4.38-11.98s1.4-9.18,4.2-12.19c2.8-3.01,6.48-4.51,11.05-4.51,4.23,0,7.49,1.23,9.79,3.7,2.29,2.47,3.44,5.97,3.44,10.51v2.86ZM923.27,300.85c-.02-2.76-.71-4.9-2.09-6.42-1.38-1.51-3.47-2.27-6.28-2.27s-5.08.83-6.75,2.49c-1.68,1.66-2.62,3.73-2.85,6.19h17.97Z"/>
      <path class="cls-1" d="M955.98,294.43h-.28c-.79-.19-1.55-.32-2.29-.41s-1.61-.13-2.62-.13c-1.63,0-3.2.36-4.72,1.08-1.52.72-2.98,1.65-4.38,2.79v22.22h-5.28v-31.3h5.28v4.62c2.1-1.68,3.95-2.87,5.54-3.57,1.6-.7,3.23-1.05,4.9-1.05.92,0,1.58.02,1.99.07.41.05,1.03.14,1.85.27v5.41Z"/>
      <path class="cls-1" d="M977.24,319.71c-.99.26-2.07.48-3.24.64s-2.21.25-3.13.25c-3.2,0-5.63-.86-7.3-2.58s-2.5-4.47-2.5-8.27v-16.65h-3.57v-4.43h3.57v-9h5.28v9h10.89v4.43h-10.89v14.26c0,1.64.04,2.93.11,3.85.07.92.34,1.79.79,2.59.41.75.98,1.29,1.7,1.64.72.35,1.82.52,3.3.52.86,0,1.76-.13,2.7-.38.94-.25,1.61-.46,2.02-.63h.28v4.74Z"/>
      <path class="cls-1" d="M988.95,319.99h-5.28v-43.6h5.28v43.6Z"/>
      <path class="cls-1" d="M1005.07,283.45h-5.95v-5.46h5.95v5.46ZM1004.73,319.99h-5.28v-31.3h5.28v31.3Z"/>
      <path class="cls-1" d="M1041.4,319.99h-5.28v-17.82c0-1.44-.08-2.79-.25-4.05-.17-1.26-.48-2.25-.93-2.96-.47-.78-1.14-1.37-2.02-1.75s-2.02-.57-3.43-.57-2.95.35-4.52,1.06c-1.57.71-3.08,1.62-4.52,2.72v23.37h-5.28v-31.3h5.28v3.48c1.65-1.36,3.35-2.43,5.11-3.19,1.76-.77,3.57-1.15,5.42-1.15,3.39,0,5.97,1.02,7.75,3.05,1.78,2.04,2.67,4.97,2.67,8.8v20.32Z"/>
      <path class="cls-1" d="M1077,316.43c0,5.31-1.21,9.2-3.62,11.69-2.42,2.48-6.13,3.73-11.15,3.73-1.67,0-3.29-.12-4.87-.35-1.58-.23-3.14-.56-4.68-.99v-5.38h.28c.86.34,2.23.75,4.1,1.25,1.87.49,3.74.74,5.62.74s3.29-.22,4.46-.64c1.18-.43,2.1-1.03,2.75-1.79.66-.73,1.12-1.61,1.4-2.63.28-1.03.42-2.18.42-3.45v-2.86c-1.59,1.27-3.11,2.22-4.56,2.84-1.45.63-3.3.94-5.54.94-3.74,0-6.72-1.35-8.92-4.05-2.2-2.7-3.3-6.51-3.3-11.42,0-2.69.38-5.01,1.14-6.96.76-1.95,1.79-3.64,3.1-5.06,1.22-1.33,2.7-2.36,4.44-3.1,1.74-.74,3.47-1.11,5.19-1.11,1.82,0,3.34.18,4.56.55,1.23.36,2.52.92,3.89,1.67l.34-1.35h4.94v27.74ZM1071.72,311.39v-17.07c-1.4-.63-2.71-1.09-3.92-1.36-1.21-.27-2.41-.41-3.61-.41-2.9,0-5.19.97-6.85,2.91-1.67,1.94-2.5,4.76-2.5,8.46s.62,6.17,1.85,7.99c1.24,1.81,3.29,2.72,6.15,2.72,1.53,0,3.07-.29,4.62-.88,1.54-.59,2.96-1.38,4.25-2.37Z"/>
      <path class="cls-1" d="M467.36,357.56l-18.31,42.85h-5.64l5.84-13.06-12.5-29.79h5.73l9.63,23.2,9.72-23.2h5.53Z"/>
      <path class="cls-1" d="M500.49,373.22c0,5.1-1.31,9.13-3.93,12.08-2.62,2.95-6.13,4.43-10.53,4.43s-7.96-1.48-10.57-4.43c-2.61-2.95-3.92-6.98-3.92-12.08s1.31-9.13,3.92-12.09,6.14-4.44,10.57-4.44,7.91,1.48,10.53,4.44c2.62,2.96,3.93,6.99,3.93,12.09ZM495.04,373.22c0-4.05-.8-7.07-2.39-9.04-1.59-1.97-3.8-2.96-6.63-2.96s-5.09.99-6.67,2.96c-1.58,1.97-2.37,4.98-2.37,9.04s.8,6.9,2.39,8.93c1.59,2.03,3.81,3.04,6.65,3.04s5.01-1,6.61-3.01c1.6-2.01,2.4-4.99,2.4-8.95Z"/>
      <path class="cls-1" d="M534.66,388.86h-5.28v-3.48c-1.78,1.4-3.48,2.48-5.11,3.22-1.63.75-3.43,1.12-5.39,1.12-3.29,0-5.86-1-7.69-3.01-1.83-2.01-2.75-4.96-2.75-8.84v-20.32h5.28v17.82c0,1.59.07,2.95.23,4.08.15,1.13.47,2.1.95,2.9.51.82,1.16,1.42,1.97,1.79.8.37,1.97.56,3.51.56,1.37,0,2.86-.35,4.48-1.06,1.62-.71,3.13-1.62,4.53-2.72v-23.37h5.28v31.3Z"/>
      <path class="cls-1" d="M592,373.22c0,5.1-1.31,9.13-3.93,12.08-2.62,2.95-6.13,4.43-10.53,4.43s-7.96-1.48-10.57-4.43c-2.61-2.95-3.92-6.98-3.92-12.08s1.31-9.13,3.92-12.09,6.14-4.44,10.57-4.44,7.91,1.48,10.53,4.44c2.62,2.96,3.93,6.99,3.93,12.09ZM586.55,373.22c0-4.05-.8-7.07-2.39-9.04-1.59-1.97-3.8-2.96-6.63-2.96s-5.09.99-6.67,2.96c-1.58,1.97-2.37,4.98-2.37,9.04s.8,6.9,2.39,8.93c1.59,2.03,3.81,3.04,6.65,3.04s5.01-1,6.61-3.01c1.6-2.01,2.4-4.99,2.4-8.95Z"/>
      <path class="cls-1" d="M626.4,388.86h-5.28v-17.82c0-1.44-.08-2.79-.25-4.05-.17-1.26-.48-2.25-.93-2.96-.47-.78-1.14-1.37-2.02-1.75-.88-.38-2.02-.57-3.43-.57s-2.95.35-4.52,1.06c-1.57.71-3.08,1.62-4.52,2.72v23.37h-5.28v-31.3h5.28v3.48c1.65-1.36,3.35-2.43,5.11-3.19,1.76-.77,3.57-1.15,5.42-1.15,3.39,0,5.97,1.02,7.75,3.05,1.78,2.04,2.67,4.97,2.67,8.8v20.32Z"/>
      <path class="cls-1" d="M641.89,388.86h-5.28v-43.6h5.28v43.6Z"/>
      <path class="cls-1" d="M679.46,357.56l-18.31,42.85h-5.64l5.84-13.06-12.5-29.79h5.73l9.63,23.2,9.72-23.2h5.53Z"/>
      <path class="cls-1" d="M734.19,372.83c0,2.54-.36,4.86-1.09,6.96-.73,2.1-1.76,3.88-3.09,5.34-1.24,1.38-2.69,2.45-4.37,3.21-1.68.76-3.45,1.14-5.32,1.14-1.63,0-3.1-.18-4.42-.53-1.32-.35-2.66-.91-4.03-1.65v13.12h-5.28v-42.85h5.28v3.28c1.4-1.18,2.98-2.16,4.73-2.96,1.75-.79,3.62-1.19,5.6-1.19,3.78,0,6.72,1.42,8.83,4.27,2.11,2.85,3.16,6.81,3.16,11.87ZM728.74,372.97c0-3.77-.65-6.59-1.94-8.46-1.29-1.87-3.28-2.8-5.95-2.8-1.52,0-3.04.33-4.58.98-1.54.65-3,1.51-4.41,2.58v17.74c1.5.67,2.78,1.13,3.86,1.37,1.08.24,2.3.36,3.66.36,2.94,0,5.23-.99,6.88-2.97,1.65-1.98,2.47-4.91,2.47-8.8Z"/>
      <path class="cls-1" d="M766.79,388.86h-5.25v-3.33c-.47.32-1.1.76-1.9,1.33-.8.57-1.57,1.02-2.32,1.36-.88.43-1.89.79-3.03,1.08-1.14.29-2.48.43-4.02.43-2.83,0-5.22-.93-7.19-2.8-1.97-1.87-2.95-4.25-2.95-7.15,0-2.37.51-4.29,1.53-5.76,1.02-1.47,2.48-2.62,4.37-3.46,1.91-.84,4.2-1.41,6.88-1.71,2.68-.3,5.55-.52,8.62-.67v-.81c0-1.2-.21-2.19-.63-2.97-.42-.78-1.02-1.4-1.81-1.85-.75-.43-1.65-.72-2.7-.87s-2.14-.22-3.29-.22c-1.39,0-2.93.18-4.63.55-1.7.36-3.46.89-5.28,1.58h-.28v-5.35c1.03-.28,2.52-.59,4.46-.92,1.95-.34,3.87-.5,5.76-.5,2.21,0,4.13.18,5.77.55,1.64.36,3.06.99,4.25,1.86,1.18.86,2.08,1.97,2.7,3.33.62,1.36.93,3.05.93,5.07v21.24ZM761.54,381.15v-8.72c-1.61.09-3.51.23-5.69.42-2.18.19-3.91.46-5.18.81-1.52.43-2.74,1.1-3.68,2-.94.91-1.4,2.15-1.4,3.74,0,1.79.54,3.14,1.63,4.05,1.09.91,2.74,1.36,4.97,1.36,1.85,0,3.55-.36,5.08-1.08,1.53-.72,2.96-1.58,4.27-2.59Z"/>
      <path class="cls-1" d="M803.63,357.56l-18.31,42.85h-5.64l5.84-13.06-12.5-29.79h5.73l9.63,23.2,9.72-23.2h5.53Z"/>
      <path class="cls-1" d="M847.63,350.36h-.28c-.58-.17-1.34-.34-2.27-.52s-1.76-.27-2.47-.27c-2.27,0-3.91.5-4.93,1.5-1.02,1-1.53,2.81-1.53,5.42v1.06h9.52v4.43h-9.35v26.87h-5.28v-26.87h-3.57v-4.43h3.57v-1.04c0-3.72.93-6.57,2.78-8.56,1.85-1.99,4.53-2.98,8.03-2.98,1.18,0,2.24.06,3.19.17.94.11,1.81.24,2.6.39v4.82Z"/>
      <path class="cls-1" d="M877.7,373.22c0,5.1-1.31,9.13-3.93,12.08-2.62,2.95-6.13,4.43-10.53,4.43s-7.96-1.48-10.57-4.43c-2.61-2.95-3.92-6.98-3.92-12.08s1.31-9.13,3.92-12.09,6.14-4.44,10.57-4.44,7.91,1.48,10.53,4.44c2.62,2.96,3.93,6.99,3.93,12.09ZM872.25,373.22c0-4.05-.8-7.07-2.39-9.04-1.59-1.97-3.8-2.96-6.63-2.96s-5.09.99-6.67,2.96c-1.58,1.97-2.37,4.98-2.37,9.04s.8,6.9,2.39,8.93c1.59,2.03,3.81,3.04,6.65,3.04s5.01-1,6.61-3.01c1.6-2.01,2.4-4.99,2.4-8.95Z"/>
      <path class="cls-1" d="M905.44,363.3h-.28c-.79-.19-1.55-.32-2.29-.41-.74-.08-1.61-.13-2.62-.13-1.63,0-3.2.36-4.72,1.08-1.52.72-2.98,1.65-4.38,2.79v22.22h-5.28v-31.3h5.28v4.62c2.1-1.68,3.94-2.87,5.55-3.57,1.6-.7,3.23-1.05,4.9-1.05.92,0,1.58.02,1.99.07.41.05,1.03.14,1.85.27v5.41Z"/>
      <path class="cls-1" d="M970.08,357.56l-8.17,31.3h-4.89l-8.06-24.13-8,24.13h-4.86l-8.25-31.3h5.5l5.76,24.24,7.83-24.24h4.35l8.03,24.24,5.45-24.24h5.31Z"/>
      <path class="cls-1" d="M1003.92,388.86h-5.28v-17.82c0-1.44-.08-2.79-.25-4.05-.17-1.26-.48-2.25-.93-2.96-.47-.78-1.14-1.37-2.02-1.75s-2.02-.57-3.43-.57-2.95.35-4.52,1.06c-1.57.71-3.08,1.62-4.52,2.72v23.37h-5.28v-43.6h5.28v15.78c1.65-1.36,3.35-2.43,5.11-3.19,1.76-.77,3.57-1.15,5.42-1.15,3.39,0,5.97,1.02,7.75,3.05,1.78,2.04,2.67,4.97,2.67,8.8v20.32Z"/>
      <path class="cls-1" d="M1038.45,388.86h-5.25v-3.33c-.47.32-1.1.76-1.9,1.33-.8.57-1.57,1.02-2.32,1.36-.88.43-1.89.79-3.03,1.08-1.14.29-2.48.43-4.02.43-2.83,0-5.22-.93-7.19-2.8-1.96-1.87-2.95-4.25-2.95-7.15,0-2.37.51-4.29,1.53-5.76,1.02-1.47,2.48-2.62,4.37-3.46,1.91-.84,4.2-1.41,6.88-1.71,2.68-.3,5.55-.52,8.62-.67v-.81c0-1.2-.21-2.19-.63-2.97s-1.03-1.4-1.81-1.85c-.75-.43-1.65-.72-2.7-.87-1.05-.15-2.14-.22-3.29-.22-1.39,0-2.93.18-4.63.55-1.7.36-3.46.89-5.28,1.58h-.28v-5.35c1.03-.28,2.52-.59,4.46-.92,1.95-.34,3.87-.5,5.76-.5,2.21,0,4.13.18,5.77.55,1.64.36,3.06.99,4.25,1.86,1.18.86,2.08,1.97,2.7,3.33.62,1.36.93,3.05.93,5.07v21.24ZM1033.2,381.15v-8.72c-1.61.09-3.51.23-5.69.42-2.18.19-3.91.46-5.18.81-1.52.43-2.74,1.1-3.68,2-.94.91-1.4,2.15-1.4,3.74,0,1.79.54,3.14,1.63,4.05,1.08.91,2.74,1.36,4.97,1.36,1.85,0,3.55-.36,5.08-1.08s2.96-1.58,4.27-2.59Z"/>
      <path class="cls-1" d="M1064.9,388.58c-.99.26-2.07.48-3.24.64s-2.21.25-3.13.25c-3.2,0-5.63-.86-7.3-2.58s-2.5-4.47-2.5-8.27v-16.65h-3.57v-4.43h3.57v-9h5.28v9h10.89v4.43h-10.89v14.26c0,1.64.04,2.93.11,3.85.07.92.34,1.79.79,2.59.41.75.98,1.29,1.7,1.64.72.35,1.82.52,3.3.52.86,0,1.76-.13,2.7-.38.94-.25,1.61-.46,2.02-.63h.28v4.74Z"/>
      <path class="cls-1" d="M1118.62,357.56l-18.31,42.85h-5.64l5.84-13.06-12.5-29.79h5.73l9.63,23.2,9.71-23.2h5.53Z"/>
      <path class="cls-1" d="M1151.75,373.22c0,5.1-1.31,9.13-3.93,12.08-2.62,2.95-6.13,4.43-10.53,4.43s-7.96-1.48-10.57-4.43c-2.61-2.95-3.92-6.98-3.92-12.08s1.31-9.13,3.92-12.09,6.13-4.44,10.57-4.44,7.91,1.48,10.53,4.44c2.62,2.96,3.93,6.99,3.93,12.09ZM1146.3,373.22c0-4.05-.8-7.07-2.39-9.04-1.59-1.97-3.8-2.96-6.63-2.96s-5.09.99-6.67,2.96c-1.58,1.97-2.37,4.98-2.37,9.04s.79,6.9,2.39,8.93c1.59,2.03,3.81,3.04,6.65,3.04s5.01-1,6.61-3.01c1.6-2.01,2.4-4.99,2.4-8.95Z"/>
      <path class="cls-1" d="M1185.92,388.86h-5.28v-3.48c-1.78,1.4-3.48,2.48-5.11,3.22-1.63.75-3.43,1.12-5.39,1.12-3.29,0-5.86-1-7.69-3.01-1.83-2.01-2.75-4.96-2.75-8.84v-20.32h5.28v17.82c0,1.59.07,2.95.22,4.08.15,1.13.47,2.1.95,2.9.51.82,1.16,1.42,1.97,1.79.8.37,1.97.56,3.51.56,1.37,0,2.86-.35,4.48-1.06,1.62-.71,3.13-1.62,4.54-2.72v-23.37h5.28v31.3Z"/>
      <path class="cls-1" d="M1242.75,388.86h-5.28v-17.82c0-1.44-.08-2.79-.25-4.05-.17-1.26-.48-2.25-.93-2.96-.47-.78-1.14-1.37-2.02-1.75s-2.02-.57-3.43-.57-2.95.35-4.52,1.06c-1.57.71-3.08,1.62-4.52,2.72v23.37h-5.28v-31.3h5.28v3.48c1.65-1.36,3.35-2.43,5.11-3.19,1.76-.77,3.57-1.15,5.42-1.15,3.39,0,5.97,1.02,7.75,3.05,1.78,2.04,2.67,4.97,2.67,8.8v20.32Z"/>
      <path class="cls-1" d="M1279.17,373.76h-23.11c0,1.92.29,3.6.87,5.03s1.38,2.6,2.39,3.52c.97.9,2.13,1.57,3.47,2.02,1.34.45,2.81.67,4.42.67,2.13,0,4.28-.42,6.44-1.27s3.7-1.69,4.62-2.51h.28v5.74c-1.78.75-3.59,1.37-5.45,1.88-1.85.5-3.8.76-5.84.76-5.2,0-9.27-1.41-12.19-4.22-2.92-2.81-4.38-6.81-4.38-11.98s1.4-9.18,4.2-12.19c2.8-3.01,6.48-4.51,11.05-4.51,4.23,0,7.49,1.23,9.79,3.7,2.29,2.47,3.44,5.97,3.44,10.51v2.86ZM1274.03,369.72c-.02-2.76-.72-4.9-2.09-6.42-1.38-1.51-3.47-2.27-6.28-2.27s-5.08.83-6.75,2.49c-1.68,1.66-2.62,3.73-2.85,6.19h17.97Z"/>
      <path class="cls-1" d="M1313.43,373.76h-23.11c0,1.92.29,3.6.87,5.03s1.38,2.6,2.39,3.52c.97.9,2.13,1.57,3.47,2.02,1.34.45,2.81.67,4.42.67,2.13,0,4.28-.42,6.44-1.27s3.7-1.69,4.62-2.51h.28v5.74c-1.78.75-3.59,1.37-5.45,1.88-1.85.5-3.8.76-5.84.76-5.2,0-9.27-1.41-12.19-4.22-2.92-2.81-4.38-6.81-4.38-11.98s1.4-9.18,4.2-12.19c2.8-3.01,6.48-4.51,11.05-4.51,4.23,0,7.49,1.23,9.79,3.7,2.29,2.47,3.44,5.97,3.44,10.51v2.86ZM1308.29,369.72c-.02-2.76-.72-4.9-2.09-6.42-1.38-1.51-3.47-2.27-6.28-2.27s-5.08.83-6.75,2.49c-1.68,1.66-2.62,3.73-2.85,6.19h17.97Z"/>
      <path class="cls-1" d="M1346.87,388.86h-5.28v-3.28c-1.52,1.31-3.1,2.33-4.75,3.05-1.65.73-3.43,1.09-5.36,1.09-3.74,0-6.72-1.44-8.92-4.32-2.2-2.88-3.3-6.87-3.3-11.97,0-2.65.38-5.02,1.14-7.09.76-2.07,1.78-3.84,3.07-5.3,1.27-1.42,2.76-2.5,4.45-3.25s3.45-1.12,5.27-1.12c1.65,0,3.11.17,4.38.52,1.27.35,2.61.88,4.02,1.61v-13.56h5.28v43.6ZM1341.59,381.15v-17.96c-1.42-.63-2.7-1.07-3.82-1.32s-2.35-.36-3.68-.36c-2.96,0-5.26,1.03-6.91,3.08-1.65,2.06-2.47,4.97-2.47,8.74s.64,6.54,1.91,8.48c1.27,1.93,3.31,2.9,6.12,2.9,1.5,0,3.01-.33,4.55-.99,1.53-.66,2.97-1.52,4.3-2.56Z"/>
    </g>
    <g>
      <path class="cls-3" d="M1245.95,142.59c1.7,1.87,3.01,4.16,3.92,6.87.91,2.71,1.36,5.78,1.36,9.22s-.46,6.52-1.39,9.23-2.22,4.98-3.89,6.8c-1.72,1.89-3.76,3.31-6.11,4.26-2.35.95-5.03,1.43-8.04,1.43s-5.61-.49-8.02-1.46c-2.41-.97-4.45-2.38-6.14-4.23-1.68-1.85-2.98-4.12-3.89-6.81-.91-2.69-1.36-5.76-1.36-9.22s.45-6.45,1.35-9.15,2.21-5.01,3.93-6.94c1.65-1.83,3.69-3.23,6.14-4.2,2.44-.97,5.11-1.46,7.99-1.46s5.69.49,8.07,1.47c2.39.98,4.41,2.38,6.08,4.19ZM1245.44,158.67c0-5.42-1.22-9.6-3.65-12.54-2.43-2.94-5.76-4.41-9.97-4.41s-7.59,1.47-10.01,4.41c-2.42,2.94-3.64,7.12-3.64,12.54s1.24,9.66,3.71,12.57c2.47,2.91,5.78,4.36,9.94,4.36s7.46-1.45,9.93-4.36c2.46-2.9,3.69-7.09,3.69-12.57Z"/>
      <path class="cls-3" d="M1275.91,179.24c-.99.26-2.07.48-3.24.64s-2.21.25-3.13.25c-3.2,0-5.63-.86-7.3-2.58s-2.5-4.47-2.5-8.27v-16.65h-3.57v-4.43h3.57v-9h5.28v9h10.89v4.43h-10.89v14.26c0,1.64.04,2.93.11,3.85.07.92.34,1.79.79,2.59.41.75.98,1.29,1.7,1.64.72.35,1.82.52,3.3.52.86,0,1.76-.13,2.7-.38.94-.25,1.61-.46,2.02-.63h.28v4.74Z"/>
      <path class="cls-3" d="M1308.51,179.52h-5.28v-17.82c0-1.44-.08-2.79-.25-4.05-.17-1.26-.48-2.25-.93-2.96-.47-.78-1.14-1.37-2.02-1.75s-2.02-.57-3.43-.57-2.95.35-4.52,1.06c-1.57.71-3.08,1.62-4.52,2.72v23.37h-5.28v-43.6h5.28v15.78c1.65-1.36,3.35-2.43,5.11-3.19,1.76-.77,3.57-1.15,5.42-1.15,3.39,0,5.97,1.02,7.75,3.05,1.78,2.04,2.67,4.97,2.67,8.8v20.32Z"/>
      <path class="cls-3" d="M1344.93,164.42h-23.11c0,1.92.29,3.6.87,5.03s1.38,2.6,2.39,3.52c.97.9,2.13,1.57,3.47,2.02,1.34.45,2.81.67,4.42.67,2.13,0,4.28-.42,6.44-1.27s3.7-1.69,4.62-2.51h.28v5.74c-1.78.75-3.59,1.37-5.45,1.88-1.85.5-3.8.76-5.84.76-5.2,0-9.27-1.41-12.19-4.22-2.92-2.81-4.38-6.81-4.38-11.98s1.4-9.18,4.2-12.19c2.8-3.01,6.48-4.51,11.05-4.51,4.23,0,7.49,1.23,9.79,3.7,2.29,2.47,3.44,5.97,3.44,10.51v2.86ZM1339.79,160.38c-.02-2.76-.72-4.9-2.09-6.42-1.38-1.51-3.47-2.27-6.28-2.27s-5.08.83-6.75,2.49c-1.68,1.66-2.62,3.73-2.85,6.19h17.97Z"/>
      <path class="cls-3" d="M1372.5,153.96h-.28c-.79-.19-1.55-.32-2.29-.41s-1.61-.13-2.62-.13c-1.63,0-3.2.36-4.72,1.08-1.52.72-2.98,1.65-4.38,2.79v22.22h-5.28v-31.3h5.28v4.62c2.1-1.68,3.95-2.87,5.54-3.57,1.6-.7,3.23-1.05,4.9-1.05.92,0,1.58.02,1.99.07.41.05,1.03.14,1.85.27v5.41Z"/>
      <path class="cls-3" d="M1399.88,170.5c0,2.86-1.18,5.2-3.55,7.03-2.37,1.83-5.6,2.75-9.7,2.75-2.32,0-4.45-.28-6.39-.83-1.94-.55-3.56-1.15-4.87-1.81v-5.91h.28c1.67,1.25,3.52,2.25,5.56,2.98,2.04.74,4,1.11,5.87,1.11,2.32,0,4.14-.37,5.45-1.12,1.31-.75,1.96-1.92,1.96-3.53,0-1.23-.36-2.17-1.07-2.8-.71-.63-2.08-1.18-4.1-1.63-.75-.17-1.73-.36-2.93-.59-1.21-.22-2.31-.47-3.3-.73-2.75-.73-4.7-1.8-5.85-3.21-1.15-1.41-1.73-3.14-1.73-5.2,0-1.29.27-2.5.8-3.64.53-1.14,1.34-2.16,2.43-3.05,1.05-.88,2.38-1.57,4-2.09,1.62-.51,3.43-.77,5.43-.77,1.87,0,3.77.23,5.69.69,1.92.46,3.51,1.01,4.79,1.67v5.63h-.28c-1.35-.99-2.99-1.83-4.91-2.51-1.93-.68-3.82-1.02-5.67-1.02s-3.56.37-4.88,1.11c-1.33.74-1.99,1.84-1.99,3.29,0,1.29.4,2.26,1.21,2.91.79.65,2.06,1.19,3.82,1.6.97.22,2.06.45,3.27.67,1.21.22,2.21.43,3.02.62,2.45.56,4.34,1.52,5.67,2.89,1.33,1.38,1.99,3.21,1.99,5.49Z"/>
      <path class="cls-3" d="M1450.84,177.56c-1.76.84-3.43,1.49-5.01,1.96-1.58.47-3.26.7-5.04.7-2.27,0-4.34-.33-6.23-1-1.89-.66-3.51-1.67-4.86-3.01-1.37-1.35-2.42-3.04-3.17-5.1-.75-2.05-1.12-4.46-1.12-7.2,0-5.12,1.41-9.14,4.23-12.05s6.54-4.37,11.16-4.37c1.8,0,3.56.25,5.29.76,1.73.5,3.32,1.12,4.76,1.85v5.86h-.28c-1.61-1.25-3.27-2.21-4.98-2.89s-3.38-1.01-5.01-1.01c-3,0-5.36,1-7.09,3.01-1.73,2.01-2.6,4.96-2.6,8.84s.85,6.67,2.54,8.7c1.69,2.03,4.08,3.04,7.15,3.04,1.07,0,2.15-.14,3.26-.42s2.1-.64,2.98-1.09c.77-.39,1.49-.81,2.16-1.25.67-.44,1.21-.82,1.6-1.14h.28v5.8Z"/>
      <path class="cls-3" d="M1483.83,179.52h-5.28v-17.82c0-1.44-.08-2.79-.25-4.05-.17-1.26-.48-2.25-.93-2.96-.47-.78-1.14-1.37-2.02-1.75s-2.02-.57-3.43-.57-2.95.35-4.52,1.06c-1.57.71-3.08,1.62-4.52,2.72v23.37h-5.28v-43.6h5.28v15.78c1.65-1.36,3.35-2.43,5.11-3.19,1.76-.77,3.57-1.15,5.42-1.15,3.39,0,5.97,1.02,7.75,3.05,1.78,2.04,2.67,4.97,2.67,8.8v20.32Z"/>
      <path class="cls-3" d="M1518.37,179.52h-5.25v-3.33c-.47.32-1.1.76-1.9,1.33-.8.57-1.57,1.02-2.32,1.36-.88.43-1.89.79-3.03,1.08-1.14.29-2.48.43-4.02.43-2.83,0-5.22-.93-7.19-2.8-1.96-1.87-2.95-4.25-2.95-7.15,0-2.37.51-4.29,1.53-5.76,1.02-1.47,2.48-2.62,4.37-3.46,1.91-.84,4.2-1.41,6.88-1.71,2.68-.3,5.55-.52,8.62-.67v-.81c0-1.2-.21-2.19-.63-2.97s-1.03-1.4-1.81-1.85c-.75-.43-1.65-.72-2.7-.87-1.05-.15-2.14-.22-3.29-.22-1.39,0-2.93.18-4.63.55-1.7.36-3.46.89-5.28,1.58h-.28v-5.35c1.03-.28,2.52-.59,4.46-.92,1.95-.34,3.87-.5,5.76-.5,2.21,0,4.13.18,5.77.55,1.64.36,3.06.99,4.25,1.86,1.18.86,2.08,1.97,2.7,3.33.62,1.36.93,3.05.93,5.07v21.24ZM1513.12,171.81v-8.72c-1.61.09-3.51.23-5.69.42-2.18.19-3.91.46-5.18.81-1.52.43-2.74,1.1-3.68,2-.94.91-1.4,2.15-1.4,3.74,0,1.79.54,3.14,1.63,4.05,1.08.91,2.74,1.36,4.97,1.36,1.85,0,3.55-.36,5.08-1.08s2.96-1.58,4.27-2.59Z"/>
      <path class="cls-3" d="M1548.11,153.96h-.28c-.79-.19-1.55-.32-2.29-.41s-1.61-.13-2.62-.13c-1.63,0-3.2.36-4.72,1.08-1.52.72-2.98,1.65-4.38,2.79v22.22h-5.28v-31.3h5.28v4.62c2.1-1.68,3.95-2.87,5.54-3.57,1.6-.7,3.23-1.05,4.9-1.05.92,0,1.58.02,1.99.07.41.05,1.03.14,1.85.27v5.41Z"/>
      <path class="cls-3" d="M1578.51,175.96c0,5.31-1.21,9.2-3.62,11.69-2.42,2.48-6.13,3.73-11.15,3.73-1.67,0-3.29-.12-4.87-.35-1.58-.23-3.14-.56-4.68-.99v-5.38h.28c.86.34,2.23.75,4.1,1.25,1.87.49,3.74.74,5.62.74s3.29-.22,4.46-.64c1.18-.43,2.1-1.03,2.75-1.79.66-.73,1.12-1.61,1.4-2.63.28-1.03.42-2.18.42-3.45v-2.86c-1.59,1.27-3.11,2.22-4.56,2.84-1.45.63-3.3.94-5.54.94-3.74,0-6.72-1.35-8.92-4.05-2.2-2.7-3.3-6.51-3.3-11.42,0-2.69.38-5.01,1.14-6.96.76-1.95,1.79-3.64,3.1-5.06,1.22-1.33,2.7-2.36,4.44-3.1,1.74-.74,3.47-1.11,5.19-1.11,1.82,0,3.34.18,4.56.55,1.23.36,2.52.92,3.89,1.67l.34-1.35h4.94v27.74ZM1573.24,170.92v-17.07c-1.4-.63-2.71-1.09-3.92-1.36-1.21-.27-2.41-.41-3.61-.41-2.9,0-5.19.97-6.85,2.91-1.67,1.94-2.5,4.76-2.5,8.46s.62,6.17,1.85,7.99c1.24,1.81,3.29,2.72,6.15,2.72,1.53,0,3.07-.29,4.62-.88,1.54-.59,2.96-1.38,4.25-2.37Z"/>
      <path class="cls-3" d="M1615.16,164.42h-23.11c0,1.92.29,3.6.87,5.03s1.38,2.6,2.39,3.52c.97.9,2.13,1.57,3.47,2.02,1.34.45,2.81.67,4.42.67,2.13,0,4.28-.42,6.44-1.27s3.7-1.69,4.62-2.51h.28v5.74c-1.78.75-3.59,1.37-5.45,1.88-1.85.5-3.8.76-5.84.76-5.2,0-9.27-1.41-12.19-4.22-2.92-2.81-4.38-6.81-4.38-11.98s1.4-9.18,4.2-12.19c2.8-3.01,6.48-4.51,11.05-4.51,4.23,0,7.49,1.23,9.79,3.7,2.29,2.47,3.44,5.97,3.44,10.51v2.86ZM1610.02,160.38c-.02-2.76-.72-4.9-2.09-6.42-1.38-1.51-3.47-2.27-6.28-2.27s-5.08.83-6.75,2.49c-1.68,1.66-2.62,3.73-2.85,6.19h17.97Z"/>
      <path class="cls-3" d="M1318.72,232.36c0,2.54-.37,4.86-1.09,6.96-.73,2.1-1.76,3.88-3.09,5.34-1.24,1.38-2.69,2.45-4.37,3.21-1.68.76-3.45,1.14-5.32,1.14-1.63,0-3.1-.18-4.42-.53-1.32-.35-2.66-.91-4.03-1.65v13.12h-5.28v-42.85h5.28v3.28c1.4-1.18,2.98-2.16,4.73-2.96,1.75-.79,3.62-1.19,5.6-1.19,3.78,0,6.72,1.42,8.83,4.27,2.11,2.85,3.16,6.81,3.16,11.87ZM1313.27,232.5c0-3.77-.65-6.59-1.94-8.46-1.29-1.87-3.28-2.8-5.95-2.8-1.52,0-3.04.33-4.58.98-1.54.65-3,1.51-4.41,2.58v17.74c1.5.67,2.78,1.13,3.86,1.37,1.08.24,2.3.36,3.66.36,2.94,0,5.23-.99,6.88-2.97,1.65-1.98,2.47-4.91,2.47-8.8Z"/>
      <path class="cls-3" d="M1353.2,233.29h-23.11c0,1.92.29,3.6.87,5.03s1.38,2.6,2.39,3.52c.97.9,2.13,1.57,3.47,2.02,1.34.45,2.81.67,4.42.67,2.13,0,4.28-.42,6.44-1.27s3.7-1.69,4.62-2.51h.28v5.74c-1.78.75-3.59,1.37-5.45,1.88-1.85.5-3.8.76-5.84.76-5.2,0-9.27-1.41-12.19-4.22-2.92-2.81-4.38-6.81-4.38-11.98s1.4-9.18,4.2-12.19c2.8-3.01,6.48-4.51,11.05-4.51,4.23,0,7.49,1.23,9.79,3.7,2.29,2.47,3.44,5.97,3.44,10.51v2.86ZM1348.06,229.25c-.02-2.76-.72-4.9-2.09-6.42-1.38-1.51-3.47-2.27-6.28-2.27s-5.08.83-6.75,2.49c-1.68,1.66-2.62,3.73-2.85,6.19h17.97Z"/>
      <path class="cls-3" d="M1380.77,222.83h-.28c-.79-.19-1.55-.32-2.29-.41s-1.61-.13-2.62-.13c-1.63,0-3.2.36-4.72,1.08-1.52.72-2.98,1.65-4.38,2.79v22.22h-5.28v-31.3h5.28v4.62c2.1-1.68,3.95-2.87,5.54-3.57,1.6-.7,3.23-1.05,4.9-1.05.92,0,1.58.02,1.99.07.41.05,1.03.14,1.85.27v5.41Z"/>
      <path class="cls-3" d="M1433.56,232.36c0,2.54-.37,4.86-1.09,6.96-.73,2.1-1.76,3.88-3.09,5.34-1.24,1.38-2.69,2.45-4.37,3.21-1.68.76-3.45,1.14-5.32,1.14-1.63,0-3.1-.18-4.42-.53-1.32-.35-2.66-.91-4.03-1.65v13.12h-5.28v-42.85h5.28v3.28c1.4-1.18,2.98-2.16,4.73-2.96,1.75-.79,3.62-1.19,5.6-1.19,3.78,0,6.72,1.42,8.83,4.27,2.11,2.85,3.16,6.81,3.16,11.87ZM1428.11,232.5c0-3.77-.65-6.59-1.94-8.46-1.29-1.87-3.28-2.8-5.95-2.8-1.52,0-3.04.33-4.58.98-1.54.65-3,1.51-4.41,2.58v17.74c1.5.67,2.78,1.13,3.86,1.37,1.08.24,2.3.36,3.66.36,2.94,0,5.23-.99,6.88-2.97,1.65-1.98,2.47-4.91,2.47-8.8Z"/>
      <path class="cls-3" d="M1466.16,248.39h-5.25v-3.33c-.47.32-1.1.76-1.9,1.33-.8.57-1.57,1.02-2.32,1.36-.88.43-1.89.79-3.03,1.08-1.14.29-2.48.43-4.02.43-2.83,0-5.22-.93-7.19-2.8-1.96-1.87-2.95-4.25-2.95-7.15,0-2.37.51-4.29,1.53-5.76,1.02-1.47,2.48-2.62,4.37-3.46,1.91-.84,4.2-1.41,6.88-1.71,2.68-.3,5.55-.52,8.62-.67v-.81c0-1.2-.21-2.19-.63-2.97s-1.03-1.4-1.81-1.85c-.75-.43-1.65-.72-2.7-.87-1.05-.15-2.14-.22-3.29-.22-1.39,0-2.93.18-4.63.55-1.7.36-3.46.89-5.28,1.58h-.28v-5.35c1.03-.28,2.52-.59,4.46-.92,1.95-.34,3.87-.5,5.76-.5,2.21,0,4.13.18,5.77.55,1.64.36,3.06.99,4.25,1.86,1.18.86,2.08,1.97,2.7,3.33.62,1.36.93,3.05.93,5.07v21.24ZM1460.91,240.68v-8.72c-1.61.09-3.51.23-5.69.42-2.18.19-3.91.46-5.18.81-1.52.43-2.74,1.1-3.68,2-.94.91-1.4,2.15-1.4,3.74,0,1.79.54,3.14,1.63,4.05,1.08.91,2.74,1.36,4.97,1.36,1.85,0,3.55-.36,5.08-1.08s2.96-1.58,4.27-2.59Z"/>
      <path class="cls-3" d="M1501.76,244.83c0,5.31-1.21,9.2-3.62,11.69-2.42,2.48-6.13,3.73-11.15,3.73-1.67,0-3.29-.12-4.87-.35-1.58-.23-3.14-.56-4.68-.99v-5.38h.28c.86.34,2.23.75,4.1,1.25,1.87.49,3.74.74,5.62.74s3.29-.22,4.46-.64c1.18-.43,2.1-1.03,2.75-1.79.66-.73,1.12-1.61,1.4-2.63.28-1.03.42-2.18.42-3.45v-2.86c-1.59,1.27-3.11,2.22-4.56,2.84-1.45.63-3.3.94-5.54.94-3.74,0-6.72-1.35-8.92-4.05-2.2-2.7-3.3-6.51-3.3-11.42,0-2.69.38-5.01,1.14-6.96.76-1.95,1.79-3.64,3.1-5.06,1.22-1.33,2.7-2.36,4.44-3.1,1.74-.74,3.47-1.11,5.19-1.11,1.82,0,3.34.18,4.56.55,1.23.36,2.52.92,3.89,1.67l.34-1.35h4.94v27.74ZM1496.48,239.79v-17.07c-1.4-.63-2.71-1.09-3.92-1.36-1.21-.27-2.41-.41-3.61-.41-2.9,0-5.19.97-6.85,2.91-1.67,1.94-2.5,4.76-2.5,8.46s.62,6.17,1.85,7.99c1.24,1.81,3.29,2.72,6.15,2.72,1.53,0,3.07-.29,4.62-.88,1.54-.59,2.96-1.38,4.25-2.37Z"/>
      <path class="cls-3" d="M1538.4,233.29h-23.11c0,1.92.29,3.6.87,5.03s1.38,2.6,2.39,3.52c.97.9,2.13,1.57,3.47,2.02,1.34.45,2.81.67,4.42.67,2.13,0,4.28-.42,6.44-1.27s3.7-1.69,4.62-2.51h.28v5.74c-1.78.75-3.59,1.37-5.45,1.88-1.85.5-3.8.76-5.84.76-5.2,0-9.27-1.41-12.19-4.22-2.92-2.81-4.38-6.81-4.38-11.98s1.4-9.18,4.2-12.19c2.8-3.01,6.48-4.51,11.05-4.51,4.23,0,7.49,1.23,9.79,3.7,2.29,2.47,3.44,5.97,3.44,10.51v2.86ZM1533.26,229.25c-.02-2.76-.72-4.9-2.09-6.42-1.38-1.51-3.47-2.27-6.28-2.27s-5.08.83-6.75,2.49c-1.68,1.66-2.62,3.73-2.85,6.19h17.97Z"/>
    </g>
  </g>
</svg>