<?xml version="1.0" encoding="UTF-8"?>
<svg xmlns="http://www.w3.org/2000/svg" viewBox="0 0 1945.27 1080">
  <defs>
    <style>
      .cls-1 {
        font-size: 42px;
      }

      .cls-1, .cls-2 {
        font-family: SourceSansPro-Regular, 'Source Sans Pro';
      }

      .cls-1, .cls-3 {
        fill: #fff;
      }

      .cls-4 {
        stroke: #2e3192;
        stroke-width: 4px;
      }

      .cls-4, .cls-5 {
        fill: none;
      }

      .cls-4, .cls-5, .cls-6, .cls-7, .cls-8, .cls-9, .cls-10 {
        stroke-miterlimit: 10;
      }

      .cls-5 {
        stroke: #c0c1c5;
      }

      .cls-5, .cls-7 {
        stroke-width: 2.13px;
      }

      .cls-6 {
        stroke-width: 3.56px;
      }

      .cls-6, .cls-7, .cls-8, .cls-9, .cls-10 {
        stroke: #fff;
      }

      .cls-6, .cls-7, .cls-9, .cls-10 {
        fill: gold;
      }

      .cls-11 {
        fill: #c0c1c5;
      }

      .cls-11, .cls-3, .cls-12 {
        stroke-width: 0px;
      }

      .cls-8 {
        fill: #666;
        stroke-width: 4.01px;
      }

      .cls-13 {
        letter-spacing: 0em;
      }

      .cls-14 {
        fill: #575757;
        font-family: OpenSans-SemiBold, 'OpenSans SemiBold';
        font-size: 35.28px;
        font-weight: 600;
      }

      .cls-2 {
        font-size: 48px;
      }

      .cls-2, .cls-12 {
        fill: #1b1464;
      }

      .cls-9 {
        stroke-width: 3.81px;
      }

      .cls-15 {
        letter-spacing: -.02em;
      }

      .cls-10 {
        stroke-width: 3.36px;
      }
    </style>
  </defs>
  <g id="Background">
    <rect class="cls-3" width="1920" height="1080"/>
  </g>
  <g id="Design">
    <g id="Elements">
      <g>
        <path class="cls-7" d="M512.55,917.47h88.89c37.51,0,67.97,30.46,67.97,67.97v55.45h-224.82v-55.45c0-37.51,30.46-67.97,67.97-67.97Z"/>
        <path class="cls-6" d="M804.98,599.09h88.89c37.51,0,67.97,30.46,67.97,67.97v373.83h-224.82v-373.83c0-37.51,30.46-67.97,67.97-67.97Z"/>
        <path class="cls-10" d="M1097.4,758.28h88.89c37.51,0,67.97,30.46,67.97,67.97v214.64h-224.82v-214.64c0-37.51,30.46-67.97,67.97-67.97Z"/>
        <path class="cls-9" d="M1389.83,439.89h88.89c37.51,0,67.97,30.46,67.97,67.97v533.03h-224.82V507.86c0-37.51,30.46-67.97,67.97-67.97Z"/>
        <path class="cls-8" d="M1682.25,280.7h88.89c37.51,0,67.97,30.46,67.97,67.97v692.22h-224.82V348.67c0-37.51,30.46-67.97,67.97-67.97Z"/>
      </g>
      <g>
        <circle class="cls-11" cx="271.4" cy="917.47" r="17.64"/>
        <circle class="cls-11" cx="271.4" cy="758.28" r="17.64"/>
        <circle class="cls-11" cx="271.4" cy="599.09" r="17.64"/>
        <circle class="cls-11" cx="271.4" cy="439.89" r="17.64"/>
        <circle class="cls-11" cx="271.4" cy="280.7" r="17.64"/>
        <circle class="cls-11" cx="271.4" cy="121.51" r="17.64"/>
        <circle class="cls-11" cx="271.4" cy="1040.89" r="17.64"/>
        <line class="cls-5" x1="1839.11" y1="1040.89" x2="271.4" y2="1040.89"/>
        <line class="cls-5" x1="271.4" y1="1040.89" x2="271.4" y2="21.47"/>
      </g>
    </g>
    <g id="Font">
      <g>
        <text class="cls-14" transform="translate(176.27 931.7)"><tspan x="0" y="0">50</tspan></text>
        <text class="cls-14" transform="translate(195.64 1053.25)"><tspan x="0" y="0">0</tspan></text>
        <text class="cls-14" transform="translate(159.44 772.12)"><tspan x="0" y="0">100</tspan></text>
        <text class="cls-14" transform="translate(159.44 612.93)"><tspan x="0" y="0">150</tspan></text>
        <text class="cls-14" transform="translate(159.44 453.74)"><tspan x="0" y="0">200</tspan></text>
        <text class="cls-14" transform="translate(159.44 294.55)"><tspan x="0" y="0">250</tspan></text>
        <text class="cls-14" transform="translate(159.44 135.35)"><tspan x="0" y="0">300</tspan></text>
      </g>
    </g>
    <g>
      <path class="cls-3" d="M1704.07,624.63h4.03l9.28,27.56h-3.74l-2.6-8.36h-10.04l-2.65,8.36h-3.57l9.28-27.56ZM1701.93,640.97h8.23l-1.3-4.16c-1.01-3.07-1.89-6.09-2.77-9.28h-.17c-.84,3.19-1.72,6.22-2.69,9.28l-1.3,4.16Z"/>
      <path class="cls-3" d="M1720.96,631.77h2.86l.29,2.94h.13c1.93-1.93,4.03-3.44,6.85-3.44,4.33,0,6.26,2.77,6.26,7.98v12.94h-3.49v-12.48c0-3.82-1.18-5.42-3.86-5.42-2.06,0-3.53,1.05-5.54,3.11v14.79h-3.49v-20.42Z"/>
      <path class="cls-3" d="M1741.87,660.55l.76-2.73c.5.17,1.01.25,1.51.25,2.27,0,3.74-1.81,4.58-4.33l.46-1.51-8.19-20.46h3.61l4.12,11.26c.67,1.76,1.34,3.86,2.02,5.75h.17c.55-1.85,1.13-3.95,1.68-5.75l3.65-11.26h3.4l-7.69,22.1c-1.43,4.03-3.57,7.1-7.65,7.1-.97,0-1.76-.17-2.44-.42Z"/>
      <path class="cls-3" d="M1643.11,692.42c0-6.64,4.2-10.75,8.86-10.75,2.35,0,3.91.88,5.71,2.35l-.17-3.49v-7.86h3.49v29.91h-2.86l-.29-2.39h-.13c-1.6,1.55-3.78,2.9-6.17,2.9-5.12,0-8.44-3.86-8.44-10.67ZM1657.52,697.38v-10.67c-1.72-1.55-3.28-2.1-4.96-2.1-3.23,0-5.84,3.11-5.84,7.77s2.02,7.77,5.59,7.77c1.89,0,3.53-.92,5.21-2.77Z"/>
      <path class="cls-3" d="M1666.38,692.42c0-6.85,4.45-10.75,9.45-10.75s9.49,3.91,9.49,10.75-4.5,10.67-9.49,10.67-9.45-3.91-9.45-10.67ZM1681.71,692.42c0-4.71-2.35-7.86-5.88-7.86s-5.84,3.15-5.84,7.86,2.35,7.77,5.84,7.77,5.88-3.11,5.88-7.77Z"/>
      <path class="cls-3" d="M1689.14,692.42c0-6.85,4.58-10.75,9.83-10.75,2.69,0,4.54,1.05,5.97,2.39l-1.72,2.18c-1.13-1.05-2.44-1.68-4.08-1.68-3.7,0-6.38,3.15-6.38,7.86s2.52,7.77,6.26,7.77c1.89,0,3.57-.84,4.79-1.93l1.51,2.23c-1.85,1.68-4.16,2.6-6.6,2.6-5.42,0-9.58-3.91-9.58-10.67Z"/>
      <path class="cls-3" d="M1709.51,695.11v-12.94h3.49v12.48c0,3.78,1.18,5.42,3.87,5.42,2.06,0,3.53-1.05,5.42-3.44v-14.45h3.49v20.42h-2.86l-.29-3.19h-.13c-1.89,2.23-3.91,3.7-6.72,3.7-4.33,0-6.26-2.77-6.26-7.98Z"/>
      <path class="cls-3" d="M1732.65,682.17h2.86l.29,2.94h.13c1.81-1.93,3.91-3.44,6.34-3.44,3.15,0,4.83,1.47,5.67,3.87,2.1-2.27,4.24-3.87,6.72-3.87,4.2,0,6.22,2.77,6.22,7.98v12.94h-3.49v-12.48c0-3.82-1.22-5.42-3.78-5.42-1.6,0-3.23,1.01-5.12,3.11v14.79h-3.49v-12.48c0-3.82-1.18-5.42-3.78-5.42-1.51,0-3.19,1.01-5.08,3.11v14.79h-3.49v-20.42Z"/>
      <path class="cls-3" d="M1765.96,692.38c0-6.64,4.49-10.71,9.16-10.71,5.21,0,8.19,3.7,8.19,9.58,0,.76-.04,1.39-.17,2.06h-13.74c.29,4.2,2.86,6.97,6.72,6.97,1.97,0,3.7-.55,5.12-1.51l1.22,2.23c-1.76,1.26-3.95,2.1-6.76,2.1-5.46,0-9.75-3.95-9.75-10.71ZM1780.2,690.62c0-4.03-1.89-6.18-5-6.18-2.86,0-5.38,2.27-5.8,6.18h10.8Z"/>
      <path class="cls-3" d="M1788.3,682.17h2.86l.29,2.94h.13c1.93-1.93,4.03-3.44,6.85-3.44,4.33,0,6.26,2.77,6.26,7.98v12.94h-3.49v-12.48c0-3.82-1.18-5.42-3.86-5.42-2.06,0-3.53,1.05-5.54,3.11v14.79h-3.49v-20.42Z"/>
      <path class="cls-3" d="M1811.87,696.25v-11.26h-3.03v-2.6l3.19-.21.42-6.55h2.9v6.55h5.54v2.81h-5.54v11.34c0,2.48.84,3.91,3.15,3.91.76,0,1.51-.13,2.35-.5l.71,2.48c-1.09.5-2.48.88-3.86.88-4.37,0-5.84-2.77-5.84-6.85Z"/>
    </g>
  </g>
  <g id="Dimensions">
    <line class="cls-4" x1="444.58" y1="408.09" x2="1535.13" y2="408.09"/>
    <line class="cls-4" x1="446.89" y1="452.74" x2="446.89" y2="408.09"/>
    <line class="cls-4" x1="1532.82" y1="452.74" x2="1532.82" y2="408.09"/>
    <text class="cls-2" transform="translate(140.58 692.7) rotate(-90)"><tspan x="0" y="0">Wo</tspan><tspan class="cls-13" x="63.74" y="0">r</tspan><tspan x="79.97" y="0">d </tspan><tspan class="cls-15" x="116.21" y="0">c</tspan><tspan x="137.09" y="0">ount</tspan></text>
    <text class="cls-1" transform="translate(529.29 999.95)"><tspan x="0" y="0">ID</tspan></text>
    <g>
      <path class="cls-3" d="M809.82,795.51h8.19c5.59,0,9.49,1.89,9.49,6.72,0,2.73-1.47,5.17-4.03,6.01v.17c3.28.63,5.59,2.81,5.59,6.59,0,5.42-4.28,8.07-10.42,8.07h-8.82v-27.56ZM817.42,807.23c4.66,0,6.6-1.72,6.6-4.54,0-3.19-2.18-4.37-6.47-4.37h-4.2v8.91h4.07ZM818.13,820.26c4.7,0,7.44-1.68,7.44-5.38,0-3.4-2.65-4.96-7.44-4.96h-4.79v10.33h4.79Z"/>
      <path class="cls-3" d="M833.63,796.19c0-1.34.97-2.27,2.31-2.27s2.31.92,2.31,2.27-.97,2.27-2.31,2.27-2.31-.88-2.31-2.27ZM834.18,802.65h3.49v20.42h-3.49v-20.42Z"/>
      <path class="cls-3" d="M844.55,802.65h2.86l.29,3.7h.13c1.43-2.56,3.53-4.2,5.8-4.2.92,0,1.55.13,2.18.42l-.76,2.98c-.59-.17-1.05-.25-1.85-.25-1.72,0-3.78,1.22-5.17,4.66v13.11h-3.49v-20.42Z"/>
      <path class="cls-3" d="M859.75,816.73v-11.26h-3.02v-2.6l3.19-.21.42-6.55h2.9v6.55h5.54v2.81h-5.54v11.34c0,2.48.84,3.91,3.15,3.91.76,0,1.51-.13,2.35-.5l.71,2.48c-1.09.5-2.48.88-3.86.88-4.37,0-5.84-2.77-5.84-6.85Z"/>
      <path class="cls-3" d="M873.4,793.16h3.49v8.15l-.13,4.2c1.89-1.85,3.95-3.36,6.76-3.36,4.33,0,6.26,2.77,6.26,7.98v12.94h-3.49v-12.48c0-3.82-1.18-5.42-3.86-5.42-2.06,0-3.53,1.05-5.54,3.11v14.79h-3.49v-29.91Z"/>
      <path class="cls-3" d="M761.37,859.69c0-8.86,5.21-14.28,12.22-14.28,3.36,0,5.96,1.6,7.6,3.4l-1.93,2.18c-1.47-1.51-3.28-2.48-5.63-2.48-5.17,0-8.61,4.24-8.61,11.09s3.28,11.26,8.49,11.26c2.65,0,4.62-1.05,6.38-2.98l1.93,2.1c-2.23,2.56-4.92,3.99-8.44,3.99-6.89,0-12.01-5.29-12.01-14.28Z"/>
      <path class="cls-3" d="M785.1,863.26c0-6.64,4.5-10.71,9.16-10.71,5.21,0,8.19,3.7,8.19,9.58,0,.76-.04,1.39-.17,2.06h-13.74c.29,4.2,2.86,6.97,6.72,6.97,1.97,0,3.7-.55,5.12-1.51l1.22,2.23c-1.76,1.26-3.95,2.1-6.76,2.1-5.46,0-9.75-3.95-9.75-10.71ZM799.34,861.5c0-4.03-1.89-6.18-5-6.18-2.86,0-5.38,2.27-5.8,6.18h10.8Z"/>
      <path class="cls-3" d="M807.44,853.05h2.86l.29,3.7h.13c1.43-2.56,3.53-4.2,5.8-4.2.92,0,1.55.13,2.18.42l-.76,2.98c-.59-.17-1.05-.25-1.85-.25-1.72,0-3.78,1.22-5.17,4.66v13.11h-3.49v-20.42Z"/>
      <path class="cls-3" d="M822.65,867.13v-11.26h-3.02v-2.6l3.19-.21.42-6.55h2.9v6.55h5.54v2.81h-5.54v11.34c0,2.48.84,3.91,3.15,3.91.76,0,1.51-.13,2.35-.5l.71,2.48c-1.09.5-2.48.88-3.86.88-4.37,0-5.84-2.77-5.84-6.85Z"/>
      <path class="cls-3" d="M835.75,846.59c0-1.34.97-2.27,2.31-2.27s2.31.92,2.31,2.27-.97,2.27-2.31,2.27-2.31-.88-2.31-2.27ZM836.3,853.05h3.49v20.42h-3.49v-20.42Z"/>
      <path class="cls-3" d="M847.26,855.87h-2.77v-2.6l2.77-.21v-3.19c0-4.16,1.89-6.8,5.96-6.8,1.26,0,2.56.29,3.4.67l-.76,2.56c-.8-.25-1.55-.42-2.27-.42-1.93,0-2.86,1.39-2.86,3.99v3.19h4.28v2.81h-4.28v17.6h-3.49v-17.6Z"/>
      <path class="cls-3" d="M858.39,846.59c0-1.34.97-2.27,2.31-2.27s2.31.92,2.31,2.27-.97,2.27-2.31,2.27-2.31-.88-2.31-2.27ZM858.94,853.05h3.49v20.42h-3.49v-20.42Z"/>
      <path class="cls-3" d="M867.8,863.3c0-6.85,4.58-10.75,9.83-10.75,2.69,0,4.54,1.05,5.96,2.39l-1.72,2.18c-1.13-1.05-2.44-1.68-4.07-1.68-3.7,0-6.39,3.15-6.39,7.86s2.52,7.77,6.26,7.77c1.89,0,3.57-.84,4.79-1.93l1.51,2.23c-1.85,1.68-4.16,2.6-6.59,2.6-5.42,0-9.58-3.91-9.58-10.67Z"/>
      <path class="cls-3" d="M886.78,868.18c0-4.54,3.78-6.72,12.52-7.69-.04-2.56-.88-5.04-4.2-5.04-2.35,0-4.5,1.05-6.09,2.1l-1.34-2.35c1.89-1.26,4.75-2.65,8.02-2.65,4.96,0,7.1,3.32,7.1,8.36v12.56h-2.86l-.34-2.44h-.13c-1.93,1.64-4.16,2.94-6.72,2.94-3.4,0-5.96-2.1-5.96-5.8ZM899.3,868.51v-5.54c-6.89.8-9.12,2.35-9.12,5,0,2.27,1.55,3.15,3.53,3.15s3.61-.88,5.59-2.6Z"/>
      <path class="cls-3" d="M909.21,867.13v-11.26h-3.02v-2.6l3.19-.21.42-6.55h2.9v6.55h5.54v2.81h-5.54v11.34c0,2.48.84,3.91,3.15,3.91.76,0,1.51-.13,2.35-.5l.71,2.48c-1.09.5-2.48.88-3.86.88-4.37,0-5.84-2.77-5.84-6.85Z"/>
      <path class="cls-3" d="M920.76,863.26c0-6.64,4.5-10.71,9.16-10.71,5.21,0,8.19,3.7,8.19,9.58,0,.76-.04,1.39-.17,2.06h-13.74c.29,4.2,2.86,6.97,6.72,6.97,1.97,0,3.7-.55,5.12-1.51l1.22,2.23c-1.76,1.26-3.95,2.1-6.76,2.1-5.46,0-9.75-3.95-9.75-10.71ZM935,861.5c0-4.03-1.89-6.18-5-6.18-2.86,0-5.38,2.27-5.8,6.18h10.8Z"/>
    </g>
    <g>
      <path class="cls-3" d="M1092.14,897.93v-16.17h3.53v16.26c0,6.59,2.77,8.7,6.38,8.7s6.51-2.1,6.51-8.7v-16.26h3.4v16.17c0,8.82-4.29,11.89-9.91,11.89s-9.91-3.07-9.91-11.89Z"/>
      <path class="cls-3" d="M1119.65,902.97v-11.26h-3.03v-2.6l3.19-.21.42-6.55h2.9v6.55h5.54v2.81h-5.54v11.34c0,2.48.84,3.91,3.15,3.91.76,0,1.51-.13,2.35-.5l.71,2.48c-1.09.5-2.48.88-3.86.88-4.37,0-5.84-2.77-5.84-6.85Z"/>
      <path class="cls-3" d="M1132.75,882.43c0-1.34.97-2.27,2.31-2.27s2.31.92,2.31,2.27-.97,2.27-2.31,2.27-2.31-.88-2.31-2.27ZM1133.3,888.9h3.49v20.42h-3.49v-20.42Z"/>
      <path class="cls-3" d="M1143.67,905.2v-25.79h3.49v26.04c0,1.09.46,1.47,1.01,1.47.21,0,.38,0,.71-.08l.46,2.6c-.5.25-1.13.38-2.02.38-2.6,0-3.66-1.68-3.66-4.62Z"/>
      <path class="cls-3" d="M1153.84,882.43c0-1.34.97-2.27,2.31-2.27s2.31.92,2.31,2.27-.97,2.27-2.31,2.27-2.31-.88-2.31-2.27ZM1154.38,888.9h3.49v20.42h-3.49v-20.42Z"/>
      <path class="cls-3" d="M1165.35,902.97v-11.26h-3.03v-2.6l3.19-.21.42-6.55h2.9v6.55h5.54v2.81h-5.54v11.34c0,2.48.84,3.91,3.15,3.91.76,0,1.51-.13,2.35-.5l.71,2.48c-1.09.5-2.48.88-3.86.88-4.37,0-5.84-2.77-5.84-6.85Z"/>
      <path class="cls-3" d="M1176.94,917.67l.76-2.73c.5.17,1.01.25,1.51.25,2.27,0,3.74-1.81,4.58-4.33l.46-1.51-8.19-20.46h3.61l4.12,11.26c.67,1.76,1.34,3.86,2.02,5.75h.17c.55-1.85,1.13-3.95,1.68-5.75l3.65-11.26h3.4l-7.69,22.1c-1.43,4.03-3.57,7.1-7.65,7.1-.97,0-1.76-.17-2.44-.42Z"/>
      <path class="cls-3" d="M1117.38,932.16h8.19c5.59,0,9.49,1.89,9.49,6.72,0,2.73-1.47,5.17-4.03,6.01v.17c3.28.63,5.59,2.81,5.59,6.59,0,5.42-4.29,8.07-10.42,8.07h-8.82v-27.56ZM1124.99,943.88c4.66,0,6.6-1.72,6.6-4.54,0-3.19-2.18-4.37-6.47-4.37h-4.2v8.91h4.07ZM1125.7,956.9c4.7,0,7.43-1.68,7.43-5.38,0-3.4-2.65-4.96-7.43-4.96h-4.79v10.33h4.79Z"/>
      <path class="cls-3" d="M1141.2,932.83c0-1.34.97-2.27,2.31-2.27s2.31.92,2.31,2.27-.97,2.27-2.31,2.27-2.31-.88-2.31-2.27ZM1141.74,939.3h3.49v20.42h-3.49v-20.42Z"/>
      <path class="cls-3" d="M1152.12,955.6v-25.79h3.49v26.04c0,1.09.46,1.47,1.01,1.47.21,0,.38,0,.71-.08l.46,2.6c-.5.25-1.13.38-2.02.38-2.6,0-3.66-1.68-3.66-4.62Z"/>
      <path class="cls-3" d="M1162.83,955.6v-25.79h3.49v26.04c0,1.09.46,1.47,1.01,1.47.21,0,.38,0,.71-.08l.46,2.6c-.5.25-1.13.38-2.02.38-2.6,0-3.66-1.68-3.66-4.62Z"/>
    </g>
    <g>
      <path class="cls-3" d="M1370.14,719.82h6.89c8.49,0,13.02,4.92,13.02,13.65s-4.54,13.9-12.85,13.9h-7.06v-27.56ZM1376.78,744.48c6.43,0,9.62-4.03,9.62-11.01s-3.19-10.75-9.62-10.75h-3.11v21.76h3.11Z"/>
      <path class="cls-3" d="M1394.16,737.21c0-6.85,4.45-10.75,9.45-10.75s9.49,3.91,9.49,10.75-4.5,10.67-9.49,10.67-9.45-3.91-9.45-10.67ZM1409.5,737.21c0-4.71-2.35-7.86-5.88-7.86s-5.84,3.15-5.84,7.86,2.35,7.77,5.84,7.77,5.88-3.11,5.88-7.77Z"/>
      <path class="cls-3" d="M1416.93,737.21c0-6.85,4.58-10.75,9.83-10.75,2.69,0,4.54,1.05,5.97,2.39l-1.72,2.18c-1.13-1.05-2.44-1.68-4.08-1.68-3.7,0-6.38,3.15-6.38,7.86s2.52,7.77,6.26,7.77c1.89,0,3.57-.84,4.79-1.93l1.51,2.23c-1.85,1.68-4.16,2.6-6.6,2.6-5.42,0-9.58-3.91-9.58-10.67Z"/>
      <path class="cls-3" d="M1437.76,741.04v-11.26h-3.03v-2.6l3.19-.21.42-6.55h2.9v6.55h5.54v2.81h-5.54v11.34c0,2.48.84,3.91,3.15,3.91.76,0,1.51-.13,2.35-.5l.71,2.48c-1.09.5-2.48.88-3.86.88-4.37,0-5.84-2.77-5.84-6.85Z"/>
      <path class="cls-3" d="M1449.31,737.21c0-6.85,4.45-10.75,9.45-10.75s9.49,3.91,9.49,10.75-4.5,10.67-9.49,10.67-9.45-3.91-9.45-10.67ZM1464.64,737.21c0-4.71-2.35-7.86-5.88-7.86s-5.84,3.15-5.84,7.86,2.35,7.77,5.84,7.77,5.88-3.11,5.88-7.77Z"/>
      <path class="cls-3" d="M1473.58,726.96h2.86l.29,3.7h.13c1.43-2.56,3.53-4.2,5.8-4.2.92,0,1.55.13,2.18.42l-.76,2.98c-.59-.17-1.05-.25-1.85-.25-1.72,0-3.78,1.22-5.17,4.66v13.11h-3.49v-20.42Z"/>
      <path class="cls-3" d="M1485.76,744.94l1.6-2.02c1.76,1.47,3.61,2.23,6.13,2.23,2.69,0,3.99-1.39,3.99-3.15,0-2.1-2.27-2.98-4.58-3.82-3.07-1.09-6.01-2.56-6.01-5.92s2.6-5.8,7.06-5.8c2.56,0,4.75.97,6.34,2.31l-1.6,2.02c-1.43-1.05-2.9-1.64-4.71-1.64-2.6,0-3.74,1.43-3.74,2.94,0,1.85,1.76,2.6,4.33,3.49,3.19,1.13,6.26,2.52,6.26,6.22,0,3.32-2.65,6.09-7.48,6.09-2.98,0-5.71-1.09-7.6-2.94Z"/>
      <path class="cls-3" d="M1397.96,777.37h2.86l.29,2.94h.13c1.93-1.93,4.03-3.45,6.85-3.45,4.33,0,6.26,2.77,6.26,7.98v12.94h-3.49v-12.48c0-3.82-1.18-5.42-3.86-5.42-2.06,0-3.53,1.05-5.54,3.11v14.79h-3.49v-20.42Z"/>
      <path class="cls-3" d="M1419.42,787.62c0-6.85,4.45-10.75,9.45-10.75s9.49,3.91,9.49,10.75-4.5,10.67-9.49,10.67-9.45-3.91-9.45-10.67ZM1434.76,787.62c0-4.71-2.35-7.86-5.88-7.86s-5.84,3.15-5.84,7.86,2.35,7.77,5.84,7.77,5.88-3.11,5.88-7.77Z"/>
      <path class="cls-3" d="M1443.58,791.44v-11.26h-3.03v-2.6l3.19-.21.42-6.55h2.9v6.55h5.54v2.81h-5.54v11.34c0,2.48.84,3.91,3.15,3.91.76,0,1.51-.13,2.35-.5l.71,2.48c-1.09.5-2.48.88-3.86.88-4.37,0-5.84-2.77-5.84-6.85Z"/>
      <path class="cls-3" d="M1455.12,787.57c0-6.64,4.49-10.71,9.16-10.71,5.21,0,8.19,3.7,8.19,9.58,0,.76-.04,1.39-.17,2.06h-13.74c.29,4.2,2.86,6.97,6.72,6.97,1.97,0,3.7-.55,5.12-1.51l1.22,2.23c-1.76,1.26-3.95,2.1-6.76,2.1-5.46,0-9.75-3.95-9.75-10.71ZM1469.36,785.81c0-4.03-1.89-6.18-5-6.18-2.86,0-5.38,2.27-5.8,6.18h10.8Z"/>
    </g>
    <g>
      <path class="cls-12" d="M588.3,301.22h4.18l3.26,17.14c.62,3.41,1.15,6.77,1.73,10.32h.19c.62-3.55,1.34-6.91,2.11-10.32l4.37-17.14h3.98l4.27,17.14c.77,3.36,1.58,6.77,2.26,10.32h.19c.53-3.55,1.1-6.91,1.68-10.32l3.36-17.14h3.89l-6.58,31.49h-4.99l-4.66-19.01c-.58-2.5-.96-4.66-1.39-7.39h-.19c-.48,2.74-.96,4.9-1.49,7.39l-4.56,19.01h-4.94l-6.67-31.49Z"/>
      <path class="cls-12" d="M628.86,298.53h3.98v9.31l-.14,4.8c2.16-2.11,4.51-3.84,7.73-3.84,4.94,0,7.15,3.17,7.15,9.12v14.79h-3.98v-14.26c0-4.37-1.34-6.19-4.42-6.19-2.35,0-4.03,1.2-6.34,3.55v16.9h-3.98v-34.18Z"/>
      <path class="cls-12" d="M653.53,326.66c0-5.18,4.32-7.68,14.31-8.79-.05-2.93-1.01-5.76-4.8-5.76-2.69,0-5.14,1.2-6.96,2.4l-1.54-2.69c2.16-1.44,5.42-3.02,9.17-3.02,5.66,0,8.11,3.79,8.11,9.55v14.35h-3.26l-.38-2.78h-.14c-2.21,1.87-4.75,3.36-7.68,3.36-3.89,0-6.82-2.4-6.82-6.62ZM667.83,327.04v-6.34c-7.87.91-10.42,2.69-10.42,5.71,0,2.59,1.78,3.6,4.03,3.6s4.13-1.01,6.38-2.98Z"/>
      <path class="cls-12" d="M679.16,325.46v-12.87h-3.46v-2.98l3.65-.24.48-7.49h3.31v7.49h6.34v3.22h-6.34v12.96c0,2.83.96,4.46,3.6,4.46.86,0,1.73-.14,2.69-.58l.82,2.83c-1.25.58-2.83,1.01-4.42,1.01-4.99,0-6.67-3.17-6.67-7.82Z"/>
      <path class="cls-12" d="M702.63,321.04c0-7.58,5.14-12.24,10.46-12.24,5.95,0,9.36,4.22,9.36,10.95,0,.86-.05,1.58-.19,2.35h-15.7c.34,4.8,3.26,7.97,7.68,7.97,2.26,0,4.22-.62,5.86-1.73l1.39,2.54c-2.02,1.44-4.51,2.4-7.73,2.4-6.24,0-11.14-4.51-11.14-12.24ZM718.91,319.03c0-4.61-2.16-7.06-5.71-7.06-3.26,0-6.14,2.59-6.62,7.06h12.34Z"/>
      <path class="cls-12" d="M725.05,309.38h4.13l4.37,13.2c.72,2.3,1.44,4.66,2.16,6.91h.19c.67-2.26,1.44-4.61,2.16-6.91l4.37-13.2h3.94l-8.26,23.33h-4.66l-8.4-23.33Z"/>
      <path class="cls-12" d="M748.95,321.04c0-7.58,5.14-12.24,10.47-12.24,5.95,0,9.36,4.22,9.36,10.95,0,.86-.05,1.58-.19,2.35h-15.7c.34,4.8,3.26,7.97,7.68,7.97,2.26,0,4.22-.62,5.86-1.73l1.39,2.54c-2.02,1.44-4.51,2.4-7.73,2.4-6.24,0-11.14-4.51-11.14-12.24ZM765.22,319.03c0-4.61-2.16-7.06-5.71-7.06-3.26,0-6.14,2.59-6.62,7.06h12.34Z"/>
      <path class="cls-12" d="M774.49,309.38h3.26l.34,4.22h.14c1.63-2.93,4.03-4.8,6.62-4.8,1.06,0,1.78.14,2.5.48l-.86,3.41c-.67-.19-1.2-.29-2.11-.29-1.97,0-4.32,1.39-5.9,5.33v14.98h-3.98v-23.33Z"/>
      <path class="cls-12" d="M798.44,342.26l.86-3.12c.58.19,1.15.29,1.73.29,2.59,0,4.27-2.06,5.23-4.94l.53-1.73-9.36-23.38h4.13l4.7,12.87c.77,2.02,1.54,4.42,2.3,6.58h.19c.62-2.11,1.3-4.51,1.92-6.58l4.18-12.87h3.89l-8.78,25.25c-1.63,4.61-4.08,8.11-8.74,8.11-1.1,0-2.02-.19-2.78-.48Z"/>
      <path class="cls-12" d="M821.33,321.09c0-7.82,5.09-12.29,10.8-12.29s10.85,4.46,10.85,12.29-5.14,12.19-10.85,12.19-10.8-4.46-10.8-12.19ZM838.85,321.09c0-5.38-2.69-8.98-6.72-8.98s-6.67,3.6-6.67,8.98,2.69,8.88,6.67,8.88,6.72-3.55,6.72-8.88Z"/>
      <path class="cls-12" d="M848.74,324.16v-14.79h3.98v14.26c0,4.32,1.34,6.19,4.42,6.19,2.35,0,4.03-1.2,6.19-3.94v-16.51h3.98v23.33h-3.26l-.34-3.65h-.14c-2.16,2.54-4.46,4.22-7.68,4.22-4.94,0-7.15-3.17-7.15-9.12Z"/>
      <path class="cls-12" d="M875.19,309.38h3.26l.34,4.22h.14c1.63-2.93,4.03-4.8,6.62-4.8,1.06,0,1.78.14,2.5.48l-.86,3.41c-.67-.19-1.2-.29-2.11-.29-1.97,0-4.32,1.39-5.9,5.33v14.98h-3.98v-23.33Z"/>
      <path class="cls-12" d="M898.71,309.38h4.08l3.41,13.54c.53,2.11,1.01,4.13,1.39,6.62h.19c.48-2.5.91-4.51,1.44-6.62l3.5-13.54h4.27l3.55,13.54c.53,2.11,1.06,4.13,1.54,6.62h.19c.48-2.5.86-4.51,1.39-6.62l3.41-13.54h3.79l-6.29,23.33h-5.04l-3.17-12.53c-.58-2.16-1.01-4.18-1.54-6.91h-.19c-.43,2.74-.86,4.8-1.49,6.91l-3.12,12.53h-4.8l-6.53-23.33Z"/>
      <path class="cls-12" d="M934.04,321.09c0-7.82,5.09-12.29,10.8-12.29s10.85,4.46,10.85,12.29-5.14,12.19-10.85,12.19-10.8-4.46-10.8-12.19ZM951.56,321.09c0-5.38-2.69-8.98-6.72-8.98s-6.67,3.6-6.67,8.98,2.69,8.88,6.67,8.88,6.72-3.55,6.72-8.88Z"/>
      <path class="cls-12" d="M961.78,309.38h3.26l.34,4.22h.14c1.63-2.93,4.03-4.8,6.62-4.8,1.06,0,1.78.14,2.5.48l-.86,3.41c-.67-.19-1.2-.29-2.11-.29-1.97,0-4.32,1.39-5.9,5.33v14.98h-3.98v-23.33Z"/>
      <path class="cls-12" d="M976.32,321.09c0-7.58,4.8-12.29,10.13-12.29,2.69,0,4.46,1.01,6.53,2.69l-.19-3.98v-8.98h3.98v34.18h-3.26l-.34-2.74h-.14c-1.82,1.78-4.32,3.31-7.06,3.31-5.86,0-9.65-4.42-9.65-12.19ZM992.79,326.75v-12.19c-1.97-1.78-3.74-2.4-5.66-2.4-3.7,0-6.67,3.55-6.67,8.88s2.3,8.88,6.38,8.88c2.16,0,4.03-1.06,5.95-3.17Z"/>
      <path class="cls-12" d="M1012.51,321.09c0-7.82,5.23-12.29,11.23-12.29,3.07,0,5.18,1.2,6.82,2.74l-1.97,2.5c-1.3-1.2-2.79-1.92-4.66-1.92-4.22,0-7.3,3.6-7.3,8.98s2.88,8.88,7.15,8.88c2.16,0,4.08-.96,5.47-2.21l1.73,2.54c-2.11,1.92-4.75,2.98-7.54,2.98-6.19,0-10.95-4.46-10.95-12.19Z"/>
      <path class="cls-12" d="M1033.39,321.09c0-7.82,5.09-12.29,10.8-12.29s10.85,4.46,10.85,12.29-5.14,12.19-10.85,12.19-10.8-4.46-10.8-12.19ZM1050.92,321.09c0-5.38-2.69-8.98-6.72-8.98s-6.67,3.6-6.67,8.98,2.69,8.88,6.67,8.88,6.72-3.55,6.72-8.88Z"/>
      <path class="cls-12" d="M1060.8,324.16v-14.79h3.98v14.26c0,4.32,1.34,6.19,4.42,6.19,2.35,0,4.03-1.2,6.19-3.94v-16.51h3.98v23.33h-3.26l-.34-3.65h-.14c-2.16,2.54-4.46,4.22-7.68,4.22-4.94,0-7.15-3.17-7.15-9.12Z"/>
      <path class="cls-12" d="M1087.25,309.38h3.26l.34,3.36h.14c2.21-2.21,4.61-3.94,7.82-3.94,4.95,0,7.15,3.17,7.15,9.12v14.79h-3.98v-14.26c0-4.37-1.34-6.19-4.42-6.19-2.35,0-4.03,1.2-6.34,3.55v16.9h-3.98v-23.33Z"/>
      <path class="cls-12" d="M1114.18,325.46v-12.87h-3.46v-2.98l3.65-.24.48-7.49h3.31v7.49h6.34v3.22h-6.34v12.96c0,2.83.96,4.46,3.6,4.46.86,0,1.73-.14,2.69-.58l.82,2.83c-1.25.58-2.83,1.01-4.42,1.01-4.99,0-6.67-3.17-6.67-7.82Z"/>
      <path class="cls-12" d="M1136.59,309.38h4.08l3.41,13.54c.53,2.11,1.01,4.13,1.39,6.62h.19c.48-2.5.91-4.51,1.44-6.62l3.5-13.54h4.27l3.55,13.54c.53,2.11,1.06,4.13,1.54,6.62h.19c.48-2.5.86-4.51,1.39-6.62l3.41-13.54h3.79l-6.29,23.33h-5.04l-3.17-12.53c-.58-2.16-1.01-4.18-1.54-6.91h-.19c-.43,2.74-.86,4.8-1.49,6.91l-3.12,12.53h-4.8l-6.53-23.33Z"/>
      <path class="cls-12" d="M1173.22,301.98c0-1.54,1.1-2.59,2.64-2.59s2.64,1.06,2.64,2.59-1.1,2.59-2.64,2.59-2.64-1.01-2.64-2.59ZM1173.84,309.38h3.98v23.33h-3.98v-23.33Z"/>
      <path class="cls-12" d="M1186.37,325.46v-12.87h-3.46v-2.98l3.65-.24.48-7.49h3.31v7.49h6.34v3.22h-6.34v12.96c0,2.83.96,4.46,3.6,4.46.86,0,1.73-.14,2.69-.58l.82,2.83c-1.25.58-2.83,1.01-4.42,1.01-4.99,0-6.67-3.17-6.67-7.82Z"/>
      <path class="cls-12" d="M1201.97,298.53h3.98v9.31l-.14,4.8c2.16-2.11,4.51-3.84,7.73-3.84,4.95,0,7.15,3.17,7.15,9.12v14.79h-3.98v-14.26c0-4.37-1.34-6.19-4.42-6.19-2.35,0-4.03,1.2-6.34,3.55v16.9h-3.98v-34.18Z"/>
      <path class="cls-12" d="M1236.24,316.96c0-10.13,5.95-16.32,13.97-16.32,3.84,0,6.82,1.82,8.69,3.89l-2.21,2.5c-1.68-1.73-3.74-2.83-6.43-2.83-5.9,0-9.84,4.85-9.84,12.67s3.74,12.87,9.7,12.87c3.02,0,5.28-1.2,7.3-3.41l2.21,2.4c-2.54,2.93-5.62,4.56-9.65,4.56-7.87,0-13.73-6.05-13.73-16.32Z"/>
      <path class="cls-12" d="M1263.36,321.04c0-7.58,5.14-12.24,10.46-12.24,5.95,0,9.36,4.22,9.36,10.95,0,.86-.05,1.58-.19,2.35h-15.7c.34,4.8,3.26,7.97,7.68,7.97,2.26,0,4.22-.62,5.86-1.73l1.39,2.54c-2.02,1.44-4.51,2.4-7.73,2.4-6.24,0-11.14-4.51-11.14-12.24ZM1279.63,319.03c0-4.61-2.16-7.06-5.71-7.06-3.26,0-6.14,2.59-6.62,7.06h12.34Z"/>
      <path class="cls-12" d="M1288.89,309.38h3.26l.34,4.22h.14c1.63-2.93,4.03-4.8,6.62-4.8,1.06,0,1.78.14,2.5.48l-.86,3.41c-.67-.19-1.2-.29-2.11-.29-1.97,0-4.32,1.39-5.9,5.33v14.98h-3.98v-23.33Z"/>
      <path class="cls-12" d="M1306.27,325.46v-12.87h-3.46v-2.98l3.65-.24.48-7.49h3.31v7.49h6.34v3.22h-6.34v12.96c0,2.83.96,4.46,3.6,4.46.86,0,1.73-.14,2.69-.58l.82,2.83c-1.25.58-2.83,1.01-4.42,1.01-4.99,0-6.67-3.17-6.67-7.82Z"/>
      <path class="cls-12" d="M1321.87,328v-29.47h3.98v29.76c0,1.25.53,1.68,1.15,1.68.24,0,.43,0,.82-.1l.53,2.98c-.58.29-1.3.43-2.3.43-2.98,0-4.18-1.92-4.18-5.28Z"/>
      <path class="cls-12" d="M1333.49,301.98c0-1.54,1.1-2.59,2.64-2.59s2.64,1.06,2.64,2.59-1.1,2.59-2.64,2.59-2.64-1.01-2.64-2.59ZM1334.11,309.38h3.98v23.33h-3.98v-23.33Z"/>
      <path class="cls-12" d="M1345.96,309.38h3.26l.34,3.36h.14c2.21-2.21,4.61-3.94,7.82-3.94,4.95,0,7.15,3.17,7.15,9.12v14.79h-3.98v-14.26c0-4.37-1.34-6.19-4.42-6.19-2.35,0-4.03,1.2-6.34,3.55v16.9h-3.98v-23.33Z"/>
      <path class="cls-12" d="M1370.44,337.17c0-1.97,1.3-3.84,3.41-5.28v-.19c-1.15-.72-2.06-1.97-2.06-3.79,0-1.97,1.34-3.5,2.54-4.32v-.19c-1.54-1.25-3.02-3.5-3.02-6.29,0-5.09,4.03-8.3,8.78-8.3,1.3,0,2.45.24,3.31.58h8.11v3.07h-4.75c1.1,1.06,1.87,2.78,1.87,4.75,0,4.99-3.79,8.11-8.54,8.11-1.15,0-2.4-.29-3.46-.82-.86.72-1.49,1.49-1.49,2.78,0,1.44.96,2.5,4.08,2.5h4.51c5.42,0,8.16,1.73,8.16,5.57,0,4.37-4.56,8.11-11.81,8.11-5.71,0-9.65-2.26-9.65-6.29ZM1388.01,335.97c0-2.16-1.63-2.88-4.7-2.88h-3.98c-.91,0-2.02-.1-3.02-.38-1.68,1.2-2.4,2.59-2.4,3.94,0,2.5,2.54,4.03,6.77,4.03s7.34-2.3,7.34-4.7ZM1385.04,317.1c0-3.36-2.21-5.42-4.95-5.42s-4.94,2.02-4.94,5.42,2.26,5.52,4.94,5.52,4.95-2.11,4.95-5.52Z"/>
      <path class="cls-12" d="M679.88,399.86l.86-3.12c.58.19,1.15.29,1.73.29,2.59,0,4.27-2.06,5.23-4.94l.53-1.73-9.36-23.38h4.13l4.7,12.87c.77,2.02,1.54,4.42,2.3,6.58h.19c.62-2.11,1.3-4.51,1.92-6.58l4.18-12.87h3.89l-8.78,25.25c-1.63,4.61-4.08,8.11-8.74,8.11-1.1,0-2.02-.19-2.78-.48Z"/>
      <path class="cls-12" d="M702.77,378.69c0-7.82,5.09-12.29,10.8-12.29s10.85,4.46,10.85,12.29-5.14,12.19-10.85,12.19-10.8-4.46-10.8-12.19ZM720.3,378.69c0-5.38-2.69-8.98-6.72-8.98s-6.67,3.6-6.67,8.98,2.69,8.88,6.67,8.88,6.72-3.55,6.72-8.88Z"/>
      <path class="cls-12" d="M730.18,381.76v-14.79h3.98v14.26c0,4.32,1.34,6.19,4.42,6.19,2.35,0,4.03-1.2,6.19-3.94v-16.51h3.98v23.33h-3.26l-.34-3.65h-.14c-2.16,2.54-4.46,4.22-7.68,4.22-4.94,0-7.15-3.17-7.15-9.12Z"/>
      <path class="cls-12" d="M764.5,378.69c0-7.82,5.09-12.29,10.8-12.29s10.85,4.46,10.85,12.29-5.14,12.19-10.85,12.19-10.8-4.46-10.8-12.19ZM782.02,378.69c0-5.38-2.69-8.98-6.72-8.98s-6.67,3.6-6.67,8.98,2.69,8.88,6.67,8.88,6.72-3.55,6.72-8.88Z"/>
      <path class="cls-12" d="M792.25,366.98h3.26l.34,3.36h.14c2.21-2.21,4.61-3.94,7.82-3.94,4.94,0,7.15,3.17,7.15,9.12v14.79h-3.98v-14.26c0-4.37-1.34-6.19-4.42-6.19-2.35,0-4.03,1.2-6.34,3.55v16.9h-3.98v-23.33Z"/>
      <path class="cls-12" d="M818.5,385.6v-29.47h3.98v29.76c0,1.25.53,1.68,1.15,1.68.24,0,.43,0,.82-.1l.53,2.98c-.58.29-1.3.43-2.3.43-2.98,0-4.18-1.92-4.18-5.28Z"/>
      <path class="cls-12" d="M828.39,399.86l.86-3.12c.58.19,1.15.29,1.73.29,2.59,0,4.27-2.06,5.23-4.94l.53-1.73-9.36-23.38h4.13l4.7,12.87c.77,2.02,1.54,4.42,2.3,6.58h.19c.62-2.11,1.3-4.51,1.92-6.58l4.18-12.87h3.89l-8.79,25.25c-1.63,4.61-4.08,8.11-8.74,8.11-1.1,0-2.02-.19-2.78-.48Z"/>
      <path class="cls-12" d="M862.8,366.98h3.26l.34,2.69h.14c2.11-1.78,4.75-3.26,7.44-3.26,6,0,9.27,4.66,9.27,11.91,0,7.92-4.8,12.58-10.13,12.58-2.11,0-4.32-1.01-6.43-2.69l.1,4.08v7.87h-3.98v-33.17ZM879.13,378.31c0-5.14-1.78-8.54-6.14-8.54-1.97,0-3.94,1.06-6.19,3.17v12.19c2.11,1.78,4.13,2.4,5.66,2.4,3.84,0,6.67-3.46,6.67-9.22Z"/>
      <path class="cls-12" d="M887.33,384.26c0-5.18,4.32-7.68,14.31-8.79-.05-2.93-1.01-5.76-4.8-5.76-2.69,0-5.14,1.2-6.96,2.4l-1.54-2.69c2.16-1.44,5.42-3.02,9.17-3.02,5.66,0,8.11,3.79,8.11,9.55v14.35h-3.26l-.38-2.78h-.14c-2.21,1.87-4.75,3.36-7.68,3.36-3.89,0-6.82-2.4-6.82-6.62ZM901.64,384.64v-6.34c-7.87.91-10.42,2.69-10.42,5.71,0,2.59,1.78,3.6,4.03,3.6s4.13-1.01,6.38-2.98Z"/>
      <path class="cls-12" d="M910.61,399.86l.86-3.12c.58.19,1.15.29,1.73.29,2.59,0,4.27-2.06,5.23-4.94l.53-1.73-9.36-23.38h4.13l4.7,12.87c.77,2.02,1.54,4.42,2.3,6.58h.19c.62-2.11,1.3-4.51,1.92-6.58l4.18-12.87h3.89l-8.78,25.25c-1.63,4.61-4.08,8.11-8.74,8.11-1.1,0-2.02-.19-2.78-.48Z"/>
      <path class="cls-12" d="M945.7,370.19h-3.17v-2.98l3.17-.24v-3.65c0-4.75,2.16-7.78,6.82-7.78,1.44,0,2.93.34,3.89.77l-.86,2.93c-.91-.29-1.78-.48-2.59-.48-2.21,0-3.26,1.58-3.26,4.56v3.65h4.9v3.22h-4.9v20.11h-3.98v-20.11Z"/>
      <path class="cls-12" d="M956.83,378.69c0-7.82,5.09-12.29,10.8-12.29s10.85,4.46,10.85,12.29-5.14,12.19-10.85,12.19-10.8-4.46-10.8-12.19ZM974.36,378.69c0-5.38-2.69-8.98-6.72-8.98s-6.67,3.6-6.67,8.98,2.69,8.88,6.67,8.88,6.72-3.55,6.72-8.88Z"/>
      <path class="cls-12" d="M984.58,366.98h3.26l.34,4.22h.14c1.63-2.93,4.03-4.8,6.62-4.8,1.06,0,1.78.14,2.5.48l-.86,3.41c-.67-.19-1.2-.29-2.11-.29-1.97,0-4.32,1.39-5.9,5.33v14.98h-3.98v-23.33Z"/>
      <path class="cls-12" d="M1008.1,366.98h4.08l3.41,13.54c.53,2.11,1.01,4.13,1.39,6.62h.19c.48-2.5.91-4.51,1.44-6.62l3.5-13.54h4.27l3.55,13.54c.53,2.11,1.06,4.13,1.54,6.62h.19c.48-2.5.86-4.51,1.39-6.62l3.41-13.54h3.79l-6.29,23.33h-5.04l-3.17-12.53c-.58-2.16-1.01-4.18-1.54-6.91h-.19c-.43,2.74-.86,4.8-1.49,6.91l-3.12,12.53h-4.8l-6.53-23.33Z"/>
      <path class="cls-12" d="M1045.34,356.13h3.98v9.31l-.14,4.8c2.16-2.11,4.51-3.84,7.73-3.84,4.95,0,7.15,3.17,7.15,9.12v14.79h-3.98v-14.26c0-4.37-1.34-6.19-4.42-6.19-2.35,0-4.03,1.2-6.34,3.55v16.9h-3.98v-34.18Z"/>
      <path class="cls-12" d="M1070.01,384.26c0-5.18,4.32-7.68,14.31-8.79-.05-2.93-1.01-5.76-4.8-5.76-2.69,0-5.14,1.2-6.96,2.4l-1.54-2.69c2.16-1.44,5.42-3.02,9.17-3.02,5.67,0,8.11,3.79,8.11,9.55v14.35h-3.26l-.38-2.78h-.14c-2.21,1.87-4.75,3.36-7.68,3.36-3.89,0-6.82-2.4-6.82-6.62ZM1084.32,384.64v-6.34c-7.87.91-10.42,2.69-10.42,5.71,0,2.59,1.78,3.6,4.03,3.6s4.13-1.01,6.38-2.98Z"/>
      <path class="cls-12" d="M1095.65,383.06v-12.87h-3.46v-2.98l3.65-.24.48-7.49h3.31v7.49h6.34v3.22h-6.34v12.96c0,2.83.96,4.46,3.6,4.46.86,0,1.73-.14,2.69-.58l.82,2.83c-1.25.58-2.83,1.01-4.42,1.01-4.99,0-6.67-3.17-6.67-7.82Z"/>
      <path class="cls-12" d="M1118.49,399.86l.86-3.12c.58.19,1.15.29,1.73.29,2.59,0,4.27-2.06,5.23-4.94l.53-1.73-9.36-23.38h4.13l4.71,12.87c.77,2.02,1.54,4.42,2.3,6.58h.19c.62-2.11,1.3-4.51,1.92-6.58l4.18-12.87h3.89l-8.78,25.25c-1.63,4.61-4.08,8.11-8.74,8.11-1.1,0-2.02-.19-2.78-.48Z"/>
      <path class="cls-12" d="M1141.39,378.69c0-7.82,5.09-12.29,10.8-12.29s10.85,4.46,10.85,12.29-5.14,12.19-10.85,12.19-10.8-4.46-10.8-12.19ZM1158.91,378.69c0-5.38-2.69-8.98-6.72-8.98s-6.67,3.6-6.67,8.98,2.69,8.88,6.67,8.88,6.72-3.55,6.72-8.88Z"/>
      <path class="cls-12" d="M1168.8,381.76v-14.79h3.98v14.26c0,4.32,1.34,6.19,4.42,6.19,2.35,0,4.03-1.2,6.19-3.94v-16.51h3.98v23.33h-3.26l-.34-3.65h-.14c-2.16,2.54-4.46,4.22-7.68,4.22-4.94,0-7.15-3.17-7.15-9.12Z"/>
      <path class="cls-12" d="M1204.84,366.98h3.26l.34,3.36h.14c2.21-2.21,4.61-3.94,7.82-3.94,4.95,0,7.15,3.17,7.15,9.12v14.79h-3.98v-14.26c0-4.37-1.34-6.19-4.42-6.19-2.35,0-4.03,1.2-6.34,3.55v16.9h-3.98v-23.33Z"/>
      <path class="cls-12" d="M1229.37,378.64c0-7.58,5.14-12.24,10.46-12.24,5.95,0,9.36,4.22,9.36,10.95,0,.86-.05,1.58-.19,2.35h-15.7c.34,4.8,3.26,7.97,7.68,7.97,2.26,0,4.22-.62,5.86-1.73l1.39,2.54c-2.02,1.44-4.51,2.4-7.73,2.4-6.24,0-11.14-4.51-11.14-12.24ZM1245.64,376.62c0-4.61-2.16-7.06-5.71-7.06-3.26,0-6.14,2.59-6.62,7.06h12.34Z"/>
      <path class="cls-12" d="M1253.18,378.64c0-7.58,5.14-12.24,10.46-12.24,5.95,0,9.36,4.22,9.36,10.95,0,.86-.05,1.58-.19,2.35h-15.7c.34,4.8,3.26,7.97,7.68,7.97,2.26,0,4.22-.62,5.86-1.73l1.39,2.54c-2.02,1.44-4.51,2.4-7.73,2.4-6.24,0-11.14-4.51-11.14-12.24ZM1269.45,376.62c0-4.61-2.16-7.06-5.71-7.06-3.26,0-6.14,2.59-6.62,7.06h12.34Z"/>
      <path class="cls-12" d="M1277.03,378.69c0-7.58,4.8-12.29,10.13-12.29,2.69,0,4.46,1.01,6.53,2.69l-.19-3.98v-8.98h3.98v34.18h-3.26l-.34-2.74h-.14c-1.82,1.78-4.32,3.31-7.06,3.31-5.86,0-9.65-4.42-9.65-12.19ZM1293.5,384.35v-12.19c-1.97-1.78-3.74-2.4-5.67-2.4-3.7,0-6.67,3.55-6.67,8.88s2.3,8.88,6.38,8.88c2.16,0,4.03-1.06,5.95-3.17Z"/>
    </g>
    <g>
      <path class="cls-12" d="M1592.25,183.28c0-10.08,5.52-16.18,13.44-16.18s13.49,6.14,13.49,16.18-5.57,16.47-13.49,16.47-13.44-6.34-13.44-16.47ZM1615,183.28c0-7.82-3.7-12.63-9.31-12.63s-9.26,4.8-9.26,12.63,3.65,12.91,9.26,12.91,9.31-5.04,9.31-12.91Z"/>
      <path class="cls-12" d="M1626.23,191.92v-12.87h-3.46v-2.98l3.65-.24.48-7.49h3.31v7.49h6.34v3.22h-6.34v12.96c0,2.83.96,4.46,3.6,4.46.86,0,1.73-.14,2.69-.58l.82,2.83c-1.25.58-2.83,1.01-4.42,1.01-4.99,0-6.67-3.17-6.67-7.82Z"/>
      <path class="cls-12" d="M1641.83,164.99h3.98v9.31l-.14,4.8c2.16-2.11,4.51-3.84,7.73-3.84,4.95,0,7.15,3.17,7.15,9.12v14.79h-3.98v-14.26c0-4.37-1.34-6.19-4.42-6.19-2.35,0-4.03,1.2-6.34,3.55v16.9h-3.98v-34.18Z"/>
      <path class="cls-12" d="M1666.21,187.5c0-7.58,5.14-12.24,10.46-12.24,5.95,0,9.36,4.22,9.36,10.95,0,.86-.05,1.58-.19,2.35h-15.7c.34,4.8,3.26,7.97,7.68,7.97,2.26,0,4.22-.62,5.86-1.73l1.39,2.54c-2.02,1.44-4.51,2.4-7.73,2.4-6.24,0-11.14-4.51-11.14-12.24ZM1682.48,185.48c0-4.61-2.16-7.06-5.71-7.06-3.26,0-6.14,2.59-6.62,7.06h12.34Z"/>
      <path class="cls-12" d="M1691.75,175.83h3.26l.34,4.22h.14c1.63-2.93,4.03-4.8,6.62-4.8,1.06,0,1.78.14,2.5.48l-.86,3.41c-.67-.19-1.2-.29-2.11-.29-1.97,0-4.32,1.39-5.9,5.33v14.98h-3.98v-23.33Z"/>
      <path class="cls-12" d="M1716.32,187.55c0-7.82,5.23-12.29,11.23-12.29,3.07,0,5.18,1.2,6.82,2.74l-1.97,2.5c-1.3-1.2-2.79-1.92-4.66-1.92-4.22,0-7.3,3.6-7.3,8.98s2.88,8.88,7.15,8.88c2.16,0,4.08-.96,5.47-2.21l1.73,2.54c-2.11,1.92-4.75,2.98-7.54,2.98-6.19,0-10.95-4.46-10.95-12.19Z"/>
      <path class="cls-12" d="M1739.94,164.99h3.98v9.31l-.14,4.8c2.16-2.11,4.51-3.84,7.73-3.84,4.95,0,7.15,3.17,7.15,9.12v14.79h-3.98v-14.26c0-4.37-1.34-6.19-4.42-6.19-2.35,0-4.03,1.2-6.34,3.55v16.9h-3.98v-34.18Z"/>
      <path class="cls-12" d="M1764.61,193.12c0-5.18,4.32-7.68,14.31-8.79-.05-2.93-1.01-5.76-4.8-5.76-2.69,0-5.14,1.2-6.96,2.4l-1.54-2.69c2.16-1.44,5.42-3.02,9.17-3.02,5.67,0,8.11,3.79,8.11,9.55v14.35h-3.26l-.38-2.78h-.14c-2.21,1.87-4.75,3.36-7.68,3.36-3.89,0-6.82-2.4-6.82-6.62ZM1778.92,193.5v-6.34c-7.87.91-10.42,2.69-10.42,5.71,0,2.59,1.78,3.6,4.03,3.6s4.13-1.01,6.38-2.98Z"/>
      <path class="cls-12" d="M1790.24,175.83h3.26l.34,4.22h.14c1.63-2.93,4.03-4.8,6.62-4.8,1.06,0,1.78.14,2.5.48l-.86,3.41c-.67-.19-1.2-.29-2.11-.29-1.97,0-4.32,1.39-5.9,5.33v14.98h-3.98v-23.33Z"/>
      <path class="cls-12" d="M1804.69,203.63c0-1.97,1.3-3.84,3.41-5.28v-.19c-1.15-.72-2.06-1.97-2.06-3.79,0-1.97,1.34-3.5,2.54-4.32v-.19c-1.54-1.25-3.02-3.5-3.02-6.29,0-5.09,4.03-8.3,8.78-8.3,1.3,0,2.45.24,3.31.58h8.11v3.07h-4.75c1.1,1.06,1.87,2.78,1.87,4.75,0,4.99-3.79,8.11-8.54,8.11-1.15,0-2.4-.29-3.46-.82-.86.72-1.49,1.49-1.49,2.78,0,1.44.96,2.5,4.08,2.5h4.51c5.42,0,8.16,1.73,8.16,5.57,0,4.37-4.56,8.11-11.81,8.11-5.71,0-9.65-2.26-9.65-6.29ZM1822.26,202.43c0-2.16-1.63-2.88-4.7-2.88h-3.98c-.91,0-2.02-.1-3.02-.38-1.68,1.2-2.4,2.59-2.4,3.94,0,2.5,2.54,4.03,6.77,4.03s7.34-2.3,7.34-4.7ZM1819.28,183.56c0-3.36-2.21-5.42-4.95-5.42s-4.94,2.02-4.94,5.42,2.26,5.52,4.94,5.52,4.95-2.11,4.95-5.52Z"/>
      <path class="cls-12" d="M1828.3,187.5c0-7.58,5.14-12.24,10.46-12.24,5.95,0,9.36,4.22,9.36,10.95,0,.86-.05,1.58-.19,2.35h-15.7c.34,4.8,3.26,7.97,7.68,7.97,2.26,0,4.22-.62,5.86-1.73l1.39,2.54c-2.02,1.44-4.51,2.4-7.73,2.4-6.24,0-11.14-4.51-11.14-12.24ZM1844.58,185.48c0-4.61-2.16-7.06-5.71-7.06-3.26,0-6.14,2.59-6.62,7.06h12.34Z"/>
      <path class="cls-12" d="M1636.62,233.43h3.26l.34,2.69h.14c2.11-1.78,4.75-3.26,7.44-3.26,6,0,9.26,4.66,9.26,11.91,0,7.92-4.8,12.58-10.13,12.58-2.11,0-4.32-1.01-6.43-2.69l.1,4.08v7.87h-3.98v-33.17ZM1652.94,244.76c0-5.14-1.78-8.54-6.14-8.54-1.97,0-3.94,1.06-6.19,3.17v12.19c2.11,1.78,4.13,2.4,5.66,2.4,3.84,0,6.67-3.46,6.67-9.22Z"/>
      <path class="cls-12" d="M1661.53,245.1c0-7.58,5.14-12.24,10.46-12.24,5.95,0,9.36,4.22,9.36,10.95,0,.86-.05,1.58-.19,2.35h-15.7c.34,4.8,3.26,7.97,7.68,7.97,2.26,0,4.22-.62,5.86-1.73l1.39,2.54c-2.02,1.44-4.51,2.4-7.73,2.4-6.24,0-11.14-4.51-11.14-12.24ZM1677.8,243.08c0-4.61-2.16-7.06-5.71-7.06-3.26,0-6.14,2.59-6.62,7.06h12.34Z"/>
      <path class="cls-12" d="M1687.07,233.43h3.26l.34,4.22h.14c1.63-2.93,4.03-4.8,6.62-4.8,1.06,0,1.78.14,2.5.48l-.86,3.41c-.67-.19-1.2-.29-2.11-.29-1.97,0-4.32,1.39-5.9,5.33v14.98h-3.98v-23.33Z"/>
      <path class="cls-12" d="M1713.37,233.43h3.26l.34,2.69h.14c2.11-1.78,4.75-3.26,7.44-3.26,6,0,9.26,4.66,9.26,11.91,0,7.92-4.8,12.58-10.13,12.58-2.11,0-4.32-1.01-6.43-2.69l.1,4.08v7.87h-3.98v-33.17ZM1729.69,244.76c0-5.14-1.78-8.54-6.14-8.54-1.97,0-3.94,1.06-6.19,3.17v12.19c2.11,1.78,4.13,2.4,5.66,2.4,3.84,0,6.67-3.46,6.67-9.22Z"/>
      <path class="cls-12" d="M1737.9,250.72c0-5.18,4.32-7.68,14.31-8.79-.05-2.93-1.01-5.76-4.8-5.76-2.69,0-5.14,1.2-6.96,2.4l-1.54-2.69c2.16-1.44,5.42-3.02,9.17-3.02,5.67,0,8.11,3.79,8.11,9.55v14.35h-3.26l-.38-2.78h-.14c-2.21,1.87-4.75,3.36-7.68,3.36-3.89,0-6.82-2.4-6.82-6.62ZM1752.2,251.1v-6.34c-7.87.91-10.42,2.69-10.42,5.71,0,2.59,1.78,3.6,4.03,3.6s4.13-1.01,6.38-2.98Z"/>
      <path class="cls-12" d="M1761.75,261.23c0-1.97,1.3-3.84,3.41-5.28v-.19c-1.15-.72-2.06-1.97-2.06-3.79,0-1.97,1.34-3.5,2.54-4.32v-.19c-1.54-1.25-3.02-3.5-3.02-6.29,0-5.09,4.03-8.3,8.78-8.3,1.3,0,2.45.24,3.31.58h8.11v3.07h-4.75c1.1,1.06,1.87,2.78,1.87,4.75,0,4.99-3.79,8.11-8.54,8.11-1.15,0-2.4-.29-3.46-.82-.86.72-1.49,1.49-1.49,2.78,0,1.44.96,2.5,4.08,2.5h4.51c5.42,0,8.16,1.73,8.16,5.57,0,4.37-4.56,8.11-11.81,8.11-5.71,0-9.65-2.26-9.65-6.29ZM1779.32,260.03c0-2.16-1.63-2.88-4.7-2.88h-3.98c-.91,0-2.02-.1-3.02-.38-1.68,1.2-2.4,2.59-2.4,3.94,0,2.5,2.54,4.03,6.77,4.03s7.34-2.3,7.34-4.7ZM1776.35,241.16c0-3.36-2.21-5.42-4.95-5.42s-4.94,2.02-4.94,5.42,2.26,5.52,4.94,5.52,4.95-2.11,4.95-5.52Z"/>
      <path class="cls-12" d="M1785.37,245.1c0-7.58,5.14-12.24,10.46-12.24,5.95,0,9.36,4.22,9.36,10.95,0,.86-.05,1.58-.19,2.35h-15.7c.34,4.8,3.26,7.97,7.68,7.97,2.26,0,4.22-.62,5.86-1.73l1.39,2.54c-2.02,1.44-4.51,2.4-7.73,2.4-6.24,0-11.14-4.51-11.14-12.24ZM1801.64,243.08c0-4.61-2.16-7.06-5.71-7.06-3.26,0-6.14,2.59-6.62,7.06h12.34Z"/>
    </g>
  </g>
</svg>