<?xml version="1.0" encoding="UTF-8"?>
<svg xmlns="http://www.w3.org/2000/svg" xmlns:xlink="http://www.w3.org/1999/xlink" viewBox="0 0 1920 1080">
  <defs>
    <style>
      .cls-1 {
        fill: url(#linear-gradient);
      }

      .cls-1, .cls-2, .cls-3, .cls-4, .cls-5, .cls-6 {
        stroke-width: 0px;
      }

      .cls-7 {
        stroke: #c0c1c5;
      }

      .cls-7, .cls-8, .cls-9, .cls-10, .cls-11, .cls-12, .cls-13, .cls-14 {
        stroke-miterlimit: 10;
      }

      .cls-7, .cls-9 {
        stroke-width: 2.13px;
      }

      .cls-7, .cls-12 {
        fill: none;
      }

      .cls-15 {
        letter-spacing: -.05em;
      }

      .cls-8 {
        stroke-width: 3.56px;
      }

      .cls-8, .cls-9, .cls-10, .cls-11, .cls-12, .cls-13, .cls-14 {
        stroke: #fff;
      }

      .cls-8, .cls-9, .cls-11, .cls-14 {
        fill: gold;
      }

      .cls-2 {
        fill: #c0c1c5;
      }

      .cls-10, .cls-12, .cls-13 {
        stroke-width: 4.01px;
      }

      .cls-10, .cls-13 {
        fill: #666;
      }

      .cls-3 {
        fill: url(#linear-gradient-2);
      }

      .cls-16 {
        fill: #000;
        font-size: 57.51px;
      }

      .cls-16, .cls-17 {
        font-family: Verdana, Verdana;
      }

      .cls-4 {
        fill: url(#linear-gradient-3);
      }

      .cls-11 {
        stroke-width: 3.81px;
      }

      .cls-13 {
        opacity: .9;
      }

      .cls-5 {
        fill: #333;
      }

      .cls-6, .cls-17 {
        fill: #fff;
      }

      .cls-17 {
        font-size: 44px;
      }

      .cls-18 {
        fill: #575757;
        font-family: OpenSans-SemiBold, 'OpenSans SemiBold';
        font-size: 35.25px;
        font-weight: 600;
      }

      .cls-19 {
        fill: #4d4d4d;
        font-family: Verdana-Bold, Verdana;
        font-size: 58px;
        font-weight: 700;
      }

      .cls-14 {
        stroke-width: 3.36px;
      }
    </style>
    <linearGradient id="linear-gradient" x1="730.96" y1="83.96" x2="698.17" y2="17.6" gradientTransform="translate(0 1082) scale(1 -1)" gradientUnits="userSpaceOnUse">
      <stop offset="0" stop-color="#fae390"/>
      <stop offset=".53" stop-color="#f5c514"/>
      <stop offset=".79" stop-color="#f7d24a"/>
    </linearGradient>
    <linearGradient id="linear-gradient-2" x1="754.93" y1="72.11" x2="722.13" y2="5.76" xlink:href="#linear-gradient"/>
    <linearGradient id="linear-gradient-3" x1="697.61" y1="18.37" x2="701.9" y2="23.32" xlink:href="#linear-gradient"/>
  </defs>
  <g id="Background">
    <rect class="cls-6" width="1920" height="1080"/>
  </g>
  <g id="Design">
    <rect class="cls-13" x="1637.61" y="19.63" width="269.34" height="287.59"/>
    <g id="Elements">
      <g>
        <path class="cls-9" d="M304.24,864.95h133.41c37.51,0,67.97,30.46,67.97,67.97v51.48H236.27v-51.48c0-37.51,30.46-67.97,67.97-67.97Z"/>
        <path class="cls-8" d="M654.57,547.75h133.41c37.51,0,67.97,30.46,67.97,67.97v368.68h-269.34v-368.68c0-37.51,30.46-67.97,67.97-67.97Z"/>
        <path class="cls-14" d="M1004.91,706.35h133.41c37.51,0,67.97,30.46,67.97,67.97v210.08h-269.34v-210.08c0-37.51,30.46-67.97,67.97-67.97Z"/>
        <path class="cls-11" d="M1355.24,389.15h133.41c37.51,0,67.97,30.46,67.97,67.97v527.28h-269.34V457.12c0-37.51,30.46-67.97,67.97-67.97Z"/>
        <path class="cls-10" d="M1705.57,230.55h133.41c37.51,0,67.97,30.46,67.97,67.97v685.88h-269.34V298.52c0-37.51,30.46-67.97,67.97-67.97Z"/>
      </g>
      <g>
        <ellipse class="cls-2" cx="175.17" cy="861.89" rx="17.61" ry="17.58"/>
        <ellipse class="cls-2" cx="175.17" cy="703.29" rx="17.61" ry="17.58"/>
        <ellipse class="cls-2" cx="175.17" cy="544.69" rx="17.61" ry="17.58"/>
        <ellipse class="cls-2" cx="175.17" cy="386.09" rx="17.61" ry="17.58"/>
        <ellipse class="cls-2" cx="175.17" cy="227.49" rx="17.61" ry="17.58"/>
        <ellipse class="cls-2" cx="175.17" cy="68.89" rx="17.61" ry="17.58"/>
        <ellipse class="cls-2" cx="175.17" cy="984.4" rx="17.61" ry="17.58"/>
        <line class="cls-7" x1="1906.95" y1="984.4" x2="175.17" y2="984.4"/>
        <line class="cls-7" x1="175.17" y1="972.08" x2="175.17" y2="7.32"/>
      </g>
    </g>
    <g id="Font">
      <g>
        <text class="cls-18" transform="translate(101.57 876.41)"><tspan x="0" y="0">50</tspan></text>
        <text class="cls-18" transform="translate(109.08 992.79)"><tspan x="0" y="0">0</tspan></text>
        <text class="cls-18" transform="translate(84.72 716.99)"><tspan x="0" y="0">100</tspan></text>
        <text class="cls-18" transform="translate(84.72 557.95)"><tspan x="0" y="0">150</tspan></text>
        <text class="cls-18" transform="translate(84.72 398.9)"><tspan x="0" y="0">200</tspan></text>
        <text class="cls-18" transform="translate(84.72 239.86)"><tspan x="0" y="0">250</tspan></text>
        <text class="cls-18" transform="translate(84.72 80.82)"><tspan x="0" y="0">300</tspan></text>
      </g>
    </g>
    <g>
      <path class="cls-6" d="M1753.34,519.64h-4.54l-3.14-8.92h-13.86l-3.14,8.92h-4.33l11.67-31.99h5.68l11.67,31.99ZM1744.35,507.08l-5.62-15.71-5.64,15.71h11.26Z"/>
      <path class="cls-6" d="M1777.99,519.64h-4.05v-13.66c0-1.1-.06-2.14-.19-3.1s-.37-1.72-.71-2.27c-.36-.6-.88-1.05-1.55-1.34-.67-.29-1.55-.44-2.63-.44s-2.26.27-3.47.82c-1.21.54-2.36,1.24-3.47,2.08v17.92h-4.05v-24h4.05v2.66c1.26-1.04,2.57-1.86,3.92-2.45,1.35-.59,2.73-.88,4.16-.88,2.6,0,4.58.78,5.94,2.34,1.36,1.56,2.04,3.81,2.04,6.75v15.58Z"/>
      <path class="cls-6" d="M1806.15,495.65l-14.04,32.85h-4.33l4.48-10.01-9.58-22.84h4.39l7.38,17.79,7.45-17.79h4.24Z"/>
      <path class="cls-6" d="M1687.09,572.44h-4.05v-2.51c-1.16,1-2.38,1.78-3.64,2.34s-2.63.84-4.11.84c-2.87,0-5.15-1.1-6.83-3.31-1.69-2.21-2.53-5.26-2.53-9.17,0-2.03.29-3.85.87-5.44.58-1.59,1.37-2.94,2.36-4.06.98-1.09,2.11-1.92,3.41-2.49,1.3-.57,2.64-.86,4.04-.86,1.26,0,2.38.13,3.36.4.98.27,2,.68,3.08,1.24v-10.4h4.05v33.43ZM1683.05,566.54v-13.77c-1.09-.49-2.07-.82-2.93-1.01-.86-.19-1.8-.28-2.82-.28-2.27,0-4.03.79-5.3,2.36-1.26,1.58-1.89,3.81-1.89,6.7s.49,5.02,1.46,6.5,2.54,2.22,4.69,2.22c1.15,0,2.31-.25,3.49-.76,1.18-.51,2.27-1.16,3.29-1.97Z"/>
      <path class="cls-6" d="M1715.55,560.46c0,3.91-1,7-3.01,9.26-2.01,2.26-4.7,3.39-8.07,3.39s-6.1-1.13-8.1-3.39c-2-2.26-3-5.35-3-9.26s1-7,3-9.27c2-2.27,4.7-3.41,8.1-3.41s6.06,1.14,8.07,3.41c2.01,2.27,3.01,5.36,3.01,9.27ZM1711.38,560.46c0-3.11-.61-5.42-1.83-6.93-1.22-1.51-2.91-2.27-5.08-2.27s-3.9.76-5.11,2.27c-1.21,1.51-1.82,3.82-1.82,6.93s.61,5.29,1.83,6.84c1.22,1.55,2.92,2.33,5.1,2.33s3.84-.77,5.07-2.31c1.23-1.54,1.84-3.83,1.84-6.86Z"/>
      <path class="cls-6" d="M1739.6,570.94c-1.35.64-2.63,1.15-3.84,1.5s-2.5.54-3.86.54c-1.74,0-3.33-.25-4.78-.76-1.45-.51-2.69-1.28-3.72-2.31-1.05-1.03-1.86-2.33-2.43-3.91-.57-1.58-.86-3.42-.86-5.52,0-3.92,1.08-7,3.24-9.24s5.01-3.35,8.56-3.35c1.38,0,2.73.19,4.06.58,1.33.39,2.54.86,3.65,1.42v4.49h-.21c-1.24-.96-2.51-1.7-3.82-2.21-1.31-.52-2.59-.77-3.84-.77-2.3,0-4.11.77-5.44,2.31-1.33,1.54-1.99,3.8-1.99,6.78s.65,5.12,1.95,6.67c1.3,1.55,3.12,2.33,5.48,2.33.82,0,1.65-.11,2.5-.32s1.61-.49,2.28-.84c.59-.3,1.14-.62,1.66-.96.52-.34.93-.63,1.23-.87h.21v4.45Z"/>
      <path class="cls-6" d="M1764.72,572.44h-4.05v-2.66c-1.36,1.07-2.67,1.9-3.92,2.47-1.25.57-2.63.86-4.13.86-2.53,0-4.49-.77-5.9-2.31-1.41-1.54-2.11-3.8-2.11-6.78v-15.58h4.05v13.66c0,1.22.06,2.26.17,3.13.12.87.36,1.61.73,2.22.39.63.89,1.09,1.51,1.38.62.29,1.51.43,2.69.43,1.05,0,2.19-.27,3.43-.82,1.24-.54,2.4-1.24,3.48-2.08v-17.92h4.05v24Z"/>
      <path class="cls-6" d="M1807.77,572.44h-4.05v-13.66c0-1.03-.05-2.03-.14-2.99-.09-.96-.29-1.73-.59-2.3-.33-.62-.8-1.08-1.42-1.4-.62-.31-1.51-.47-2.67-.47s-2.27.28-3.4.85c-1.13.57-2.27,1.29-3.4,2.16.04.33.08.71.11,1.15.03.44.04.87.04,1.3v15.36h-4.05v-13.66c0-1.06-.05-2.07-.14-3.02-.09-.95-.29-1.71-.59-2.29-.33-.62-.8-1.08-1.42-1.39-.62-.31-1.51-.46-2.67-.46s-2.21.27-3.33.82c-1.11.54-2.22,1.24-3.33,2.08v17.92h-4.05v-24h4.05v2.66c1.26-1.04,2.52-1.86,3.78-2.45,1.26-.59,2.59-.88,4.01-.88,1.64,0,3.02.34,4.17,1.03,1.14.69,1.99,1.64,2.55,2.86,1.64-1.38,3.13-2.37,4.48-2.98,1.35-.61,2.79-.91,4.33-.91,2.64,0,4.59.8,5.84,2.4,1.26,1.6,1.88,3.83,1.88,6.69v15.58Z"/>
      <path class="cls-6" d="M1835.69,560.86h-17.72c0,1.48.22,2.76.67,3.86.45,1.1,1.05,2,1.83,2.7.75.69,1.63,1.2,2.66,1.55s2.16.52,3.39.52c1.64,0,3.28-.33,4.94-.98,1.66-.65,2.84-1.29,3.54-1.92h.22v4.4c-1.36.57-2.76,1.05-4.18,1.44s-2.91.58-4.48.58c-3.99,0-7.1-1.08-9.34-3.23-2.24-2.16-3.36-5.22-3.36-9.18s1.07-7.04,3.22-9.35c2.15-2.31,4.97-3.46,8.47-3.46,3.24,0,5.74.95,7.5,2.84s2.64,4.58,2.64,8.06v2.19ZM1831.75,557.77c-.01-2.12-.55-3.76-1.6-4.92-1.05-1.16-2.66-1.74-4.81-1.74s-3.89.64-5.18,1.91c-1.28,1.28-2.01,2.86-2.18,4.75h13.78Z"/>
      <path class="cls-6" d="M1861.94,572.44h-4.05v-13.66c0-1.1-.06-2.14-.19-3.1s-.37-1.72-.71-2.27c-.36-.6-.88-1.05-1.55-1.34-.67-.29-1.55-.44-2.63-.44s-2.26.27-3.47.82c-1.21.54-2.36,1.24-3.47,2.08v17.92h-4.05v-24h4.05v2.66c1.26-1.04,2.57-1.86,3.92-2.45,1.35-.59,2.73-.88,4.16-.88,2.6,0,4.58.78,5.94,2.34,1.36,1.56,2.04,3.81,2.04,6.75v15.58Z"/>
      <path class="cls-6" d="M1882.21,572.23c-.76.2-1.59.37-2.49.49s-1.7.19-2.4.19c-2.45,0-4.32-.66-5.6-1.98-1.28-1.32-1.92-3.43-1.92-6.34v-12.76h-2.73v-3.39h2.73v-6.9h4.05v6.9h8.35v3.39h-8.35v10.94c0,1.26.03,2.25.09,2.95.06.71.26,1.37.6,1.99.32.57.75.99,1.3,1.26.55.27,1.4.4,2.53.4.66,0,1.35-.1,2.07-.29.72-.19,1.23-.35,1.55-.48h.21v3.63Z"/>
    </g>
    <g>
      <path class="cls-6" d="M1722.95,88.89c-.79.34-1.5.67-2.14.97s-1.47.62-2.51.95c-.88.27-1.83.5-2.85.7-1.03.19-2.16.29-3.39.29-2.33,0-4.44-.33-6.34-.98-1.9-.65-3.56-1.67-4.96-3.06-1.38-1.36-2.45-3.09-3.23-5.19-.77-2.1-1.16-4.54-1.16-7.32,0-2.64.37-4.99,1.12-7.07.75-2.08,1.82-3.83,3.23-5.26,1.36-1.39,3.01-2.45,4.94-3.18,1.93-.73,4.07-1.1,6.43-1.1,1.72,0,3.44.21,5.16.62,1.71.42,3.62,1.15,5.72,2.19v5.05h-.32c-1.77-1.48-3.52-2.55-5.25-3.22-1.74-.67-3.59-1.01-5.58-1.01-1.62,0-3.08.26-4.38.78-1.3.52-2.46,1.34-3.48,2.44-.99,1.07-1.76,2.43-2.31,4.07-.55,1.64-.83,3.53-.83,5.68s.3,4.18.92,5.8c.61,1.62,1.4,2.94,2.36,3.95,1,1.06,2.18,1.84,3.52,2.35,1.34.51,2.76.76,4.25.76,2.05,0,3.98-.35,5.77-1.05,1.79-.7,3.47-1.75,5.04-3.16h.3v4.98Z"/>
      <path class="cls-6" d="M1749.15,79.22c0,3.91-1,7-3.01,9.26-2.01,2.26-4.7,3.39-8.07,3.39s-6.1-1.13-8.1-3.39c-2-2.26-3-5.35-3-9.26s1-7,3-9.27c2-2.27,4.7-3.41,8.1-3.41s6.06,1.14,8.07,3.41c2.01,2.27,3.01,5.36,3.01,9.27ZM1744.97,79.22c0-3.11-.61-5.42-1.83-6.93-1.22-1.51-2.91-2.27-5.08-2.27s-3.9.76-5.11,2.27c-1.21,1.51-1.82,3.82-1.82,6.93s.61,5.29,1.83,6.84c1.22,1.55,2.92,2.33,5.1,2.33s3.84-.77,5.07-2.31c1.23-1.54,1.84-3.83,1.84-6.86Z"/>
      <path class="cls-6" d="M1775.35,91.21h-4.05v-2.66c-1.36,1.07-2.67,1.9-3.92,2.47-1.25.57-2.63.86-4.13.86-2.53,0-4.49-.77-5.9-2.31-1.41-1.54-2.11-3.8-2.11-6.78v-15.58h4.05v13.66c0,1.22.06,2.26.17,3.13.12.87.36,1.61.73,2.22.39.63.89,1.09,1.51,1.38.62.29,1.51.43,2.69.43,1.05,0,2.19-.27,3.43-.82,1.24-.54,2.4-1.24,3.48-2.08v-17.92h4.05v24Z"/>
      <path class="cls-6" d="M1803.42,91.21h-4.05v-13.66c0-1.1-.06-2.14-.19-3.1s-.37-1.72-.71-2.27c-.36-.6-.88-1.05-1.55-1.34-.67-.29-1.55-.44-2.63-.44s-2.26.27-3.47.82c-1.21.54-2.36,1.24-3.47,2.08v17.92h-4.05v-24h4.05v2.66c1.26-1.05,2.57-1.86,3.92-2.45,1.35-.59,2.73-.88,4.16-.88,2.6,0,4.58.78,5.94,2.34,1.36,1.56,2.04,3.81,2.04,6.75v15.58Z"/>
      <path class="cls-6" d="M1823.7,90.99c-.76.2-1.59.37-2.49.49s-1.7.19-2.4.19c-2.45,0-4.32-.66-5.6-1.98-1.28-1.32-1.92-3.43-1.92-6.34v-12.76h-2.73v-3.39h2.73v-6.9h4.05v6.9h8.35v3.39h-8.35v10.94c0,1.26.03,2.25.09,2.95.06.71.26,1.37.6,1.99.32.57.75.99,1.3,1.26.55.27,1.4.4,2.53.4.66,0,1.35-.1,2.07-.29.72-.19,1.23-.35,1.55-.48h.21v3.63Z"/>
      <path class="cls-6" d="M1845.76,84.29c0,2.19-.91,3.99-2.72,5.39-1.82,1.4-4.29,2.11-7.44,2.11-1.78,0-3.41-.21-4.9-.63s-2.73-.88-3.73-1.39v-4.53h.21c1.28.96,2.7,1.72,4.26,2.29,1.56.57,3.06.85,4.5.85,1.78,0,3.17-.29,4.18-.86,1-.57,1.51-1.48,1.51-2.71,0-.95-.27-1.66-.82-2.15-.55-.49-1.59-.9-3.14-1.25-.57-.13-1.32-.28-2.25-.45s-1.77-.36-2.53-.56c-2.11-.56-3.61-1.38-4.49-2.46-.88-1.08-1.32-2.41-1.32-3.99,0-.99.2-1.92.61-2.79.41-.87,1.03-1.65,1.86-2.34.8-.67,1.83-1.21,3.07-1.6,1.24-.39,2.63-.59,4.17-.59,1.43,0,2.89.18,4.36.53,1.47.35,2.69.78,3.67,1.28v4.32h-.22c-1.03-.76-2.29-1.4-3.77-1.92-1.48-.52-2.93-.78-4.35-.78s-2.73.28-3.75.85c-1.02.57-1.53,1.41-1.53,2.52,0,.99.31,1.73.93,2.23.6.5,1.58.91,2.93,1.22.75.17,1.58.34,2.51.52s1.7.33,2.31.47c1.88.43,3.33,1.17,4.35,2.21,1.02,1.06,1.53,2.46,1.53,4.21Z"/>
      <path class="cls-6" d="M1703.8,144.01h-4.03v-2.56c-.36.24-.84.58-1.45,1.02-.61.44-1.2.78-1.78,1.04-.67.33-1.45.6-2.33.83-.88.22-1.9.33-3.08.33-2.17,0-4-.72-5.51-2.15-1.51-1.43-2.26-3.26-2.26-5.48,0-1.82.39-3.29,1.17-4.42.78-1.12,1.9-2.01,3.35-2.65,1.46-.64,3.22-1.08,5.27-1.31,2.05-.23,4.25-.4,6.61-.52v-.62c0-.92-.16-1.68-.48-2.28-.32-.6-.79-1.07-1.39-1.42-.57-.33-1.26-.55-2.07-.67-.8-.11-1.64-.17-2.52-.17-1.06,0-2.25.14-3.55.42-1.31.28-2.65.68-4.05,1.21h-.21v-4.1c.79-.21,1.93-.45,3.42-.71,1.49-.26,2.96-.39,4.41-.39,1.69,0,3.17.14,4.42.42,1.25.28,2.34.76,3.26,1.43.9.66,1.59,1.51,2.07,2.56.47,1.05.71,2.34.71,3.89v16.29ZM1699.78,138.1v-6.68c-1.23.07-2.69.18-4.36.32-1.67.14-3,.35-3.97.62-1.16.33-2.1.84-2.82,1.54-.72.69-1.08,1.65-1.08,2.87,0,1.38.42,2.41,1.25,3.1.83.69,2.1,1.04,3.81,1.04,1.42,0,2.72-.28,3.9-.83,1.18-.55,2.27-1.21,3.27-1.99Z"/>
      <path class="cls-6" d="M1728.78,137.09c0,2.19-.91,3.99-2.72,5.39-1.82,1.4-4.29,2.11-7.44,2.11-1.78,0-3.41-.21-4.9-.63s-2.73-.88-3.73-1.39v-4.53h.21c1.28.96,2.7,1.72,4.26,2.29,1.56.57,3.06.85,4.5.85,1.78,0,3.17-.29,4.18-.86,1-.57,1.51-1.48,1.51-2.71,0-.95-.27-1.66-.82-2.15-.55-.49-1.59-.9-3.14-1.25-.57-.13-1.32-.28-2.25-.45s-1.77-.36-2.53-.56c-2.11-.56-3.61-1.38-4.49-2.46-.88-1.08-1.32-2.41-1.32-3.99,0-.99.2-1.92.61-2.79.41-.87,1.03-1.65,1.86-2.34.8-.67,1.83-1.21,3.07-1.6,1.24-.39,2.63-.59,4.17-.59,1.43,0,2.89.18,4.36.53,1.47.35,2.69.78,3.67,1.28v4.32h-.22c-1.03-.76-2.29-1.4-3.77-1.92-1.48-.52-2.93-.78-4.35-.78s-2.73.28-3.75.85c-1.02.57-1.53,1.41-1.53,2.52,0,.99.31,1.73.93,2.23.6.5,1.58.91,2.93,1.22.75.17,1.58.34,2.51.52s1.7.33,2.31.47c1.88.43,3.33,1.17,4.35,2.21,1.02,1.06,1.53,2.46,1.53,4.21Z"/>
      <path class="cls-6" d="M1770.19,132.43h-17.72c0,1.48.22,2.76.67,3.86.45,1.1,1.05,1.99,1.83,2.7.75.69,1.63,1.2,2.66,1.55s2.16.52,3.39.52c1.64,0,3.28-.33,4.94-.98,1.66-.65,2.84-1.29,3.54-1.92h.22v4.4c-1.36.57-2.76,1.05-4.18,1.44s-2.91.58-4.48.58c-3.99,0-7.1-1.08-9.34-3.23-2.24-2.16-3.36-5.22-3.36-9.18s1.07-7.04,3.22-9.35c2.15-2.31,4.97-3.46,8.47-3.46,3.24,0,5.74.95,7.5,2.84s2.64,4.58,2.64,8.06v2.19ZM1766.25,129.33c-.01-2.12-.55-3.76-1.6-4.92-1.05-1.16-2.66-1.74-4.81-1.74s-3.89.64-5.18,1.91c-1.28,1.27-2.01,2.86-2.18,4.75h13.78Z"/>
      <path class="cls-6" d="M1797.14,144.01h-5.1l-6.82-9.22-6.87,9.22h-4.71l9.39-11.97-9.3-12.03h5.1l6.78,9.07,6.8-9.07h4.74l-9.45,11.82,9.45,12.18Z"/>
      <path class="cls-6" d="M1814.9,143.79c-.76.2-1.59.37-2.49.49s-1.7.19-2.4.19c-2.45,0-4.32-.66-5.6-1.98-1.28-1.32-1.92-3.43-1.92-6.34v-12.76h-2.73v-3.39h2.73v-6.9h4.05v6.9h8.35v3.39h-8.35v10.94c0,1.26.03,2.25.09,2.95.06.71.26,1.37.6,1.99.32.57.75.99,1.3,1.26.55.27,1.4.4,2.53.4.66,0,1.35-.1,2.07-.29.72-.19,1.23-.35,1.55-.48h.21v3.63Z"/>
      <path class="cls-6" d="M1834.79,124.42h-.21c-.6-.14-1.19-.25-1.75-.31-.57-.06-1.24-.1-2.01-.1-1.25,0-2.45.28-3.62.83-1.16.55-2.28,1.26-3.36,2.14v17.04h-4.05v-24h4.05v3.54c1.61-1.29,3.02-2.2,4.25-2.74,1.23-.54,2.48-.81,3.76-.81.7,0,1.21.02,1.53.05.32.04.79.1,1.42.2v4.15Z"/>
      <path class="cls-6" d="M1856.52,144.01h-4.03v-2.56c-.36.24-.84.58-1.45,1.02-.61.44-1.2.78-1.78,1.04-.67.33-1.45.6-2.33.83-.88.22-1.9.33-3.08.33-2.17,0-4-.72-5.51-2.15-1.51-1.43-2.26-3.26-2.26-5.48,0-1.82.39-3.29,1.17-4.42.78-1.12,1.9-2.01,3.35-2.65,1.46-.64,3.22-1.08,5.27-1.31,2.05-.23,4.25-.4,6.61-.52v-.62c0-.92-.16-1.68-.48-2.28-.32-.6-.79-1.07-1.39-1.42-.57-.33-1.26-.55-2.07-.67-.8-.11-1.64-.17-2.52-.17-1.06,0-2.25.14-3.55.42-1.31.28-2.65.68-4.05,1.21h-.21v-4.1c.79-.21,1.93-.45,3.42-.71,1.49-.26,2.96-.39,4.41-.39,1.69,0,3.17.14,4.42.42,1.25.28,2.34.76,3.26,1.43.9.66,1.59,1.51,2.07,2.56.47,1.05.71,2.34.71,3.89v16.29ZM1852.49,138.1v-6.68c-1.23.07-2.69.18-4.36.32-1.67.14-3,.35-3.97.62-1.16.33-2.1.84-2.82,1.54-.72.69-1.08,1.65-1.08,2.87,0,1.38.42,2.41,1.25,3.1.83.69,2.1,1.04,3.81,1.04,1.42,0,2.72-.28,3.9-.83,1.18-.55,2.27-1.21,3.27-1.99Z"/>
      <path class="cls-6" d="M1749.79,184.52c0,1.95-.28,3.73-.84,5.34s-1.35,2.98-2.37,4.09c-.95,1.06-2.06,1.88-3.35,2.46-1.29.58-2.64.87-4.08.87-1.25,0-2.38-.14-3.39-.41s-2.04-.69-3.09-1.27v10.05h-4.05v-32.85h4.05v2.51c1.08-.9,2.29-1.66,3.63-2.27,1.34-.61,2.77-.91,4.29-.91,2.9,0,5.16,1.09,6.77,3.28,1.61,2.18,2.42,5.22,2.42,9.1ZM1745.61,184.63c0-2.89-.5-5.06-1.49-6.49-.99-1.43-2.51-2.15-4.56-2.15-1.16,0-2.33.25-3.51.75-1.18.5-2.3,1.16-3.38,1.98v13.6c1.15.52,2.13.87,2.96,1.05.83.19,1.76.28,2.81.28,2.25,0,4.01-.76,5.27-2.28,1.26-1.52,1.89-3.77,1.89-6.75Z"/>
      <path class="cls-6" d="M1774.78,196.81h-4.03v-2.56c-.36.24-.84.58-1.45,1.02-.61.44-1.2.78-1.78,1.04-.67.33-1.45.6-2.33.83-.88.22-1.9.33-3.08.33-2.17,0-4-.72-5.51-2.15-1.51-1.43-2.26-3.26-2.26-5.48,0-1.82.39-3.29,1.17-4.42.78-1.12,1.9-2.01,3.35-2.65,1.46-.64,3.22-1.08,5.27-1.31,2.05-.23,4.25-.4,6.61-.52v-.62c0-.92-.16-1.68-.48-2.28-.32-.6-.79-1.07-1.39-1.42-.57-.33-1.26-.55-2.07-.67-.8-.11-1.64-.17-2.52-.17-1.06,0-2.25.14-3.55.42-1.31.28-2.65.68-4.05,1.21h-.21v-4.1c.79-.21,1.93-.45,3.42-.71,1.49-.26,2.96-.39,4.41-.39,1.69,0,3.17.14,4.42.42,1.25.28,2.34.76,3.26,1.43.9.66,1.59,1.51,2.07,2.56.47,1.05.71,2.34.71,3.89v16.29ZM1770.75,190.9v-6.68c-1.23.07-2.69.18-4.36.32-1.67.14-3,.35-3.97.62-1.16.33-2.1.84-2.82,1.54-.72.69-1.08,1.65-1.08,2.87,0,1.38.42,2.41,1.25,3.1.83.69,2.1,1.04,3.81,1.04,1.42,0,2.72-.28,3.9-.83,1.18-.55,2.27-1.21,3.27-1.99Z"/>
      <path class="cls-6" d="M1802.07,194.08c0,4.07-.92,7.05-2.78,8.96-1.85,1.9-4.7,2.86-8.55,2.86-1.28,0-2.52-.09-3.74-.27-1.21-.18-2.41-.43-3.58-.76v-4.12h.21c.66.26,1.71.58,3.14.96,1.43.38,2.87.57,4.3.57s2.52-.17,3.42-.49c.9-.33,1.61-.79,2.11-1.38.5-.56.86-1.23,1.08-2.02.21-.79.32-1.67.32-2.64v-2.19c-1.22.97-2.39,1.7-3.5,2.18-1.11.48-2.53.72-4.25.72-2.87,0-5.15-1.03-6.83-3.1-1.69-2.07-2.53-4.99-2.53-8.75,0-2.06.29-3.84.87-5.34.58-1.5,1.37-2.79,2.38-3.88.93-1.02,2.07-1.81,3.4-2.37,1.33-.57,2.66-.85,3.98-.85,1.39,0,2.56.14,3.5.42.94.28,1.93.71,2.98,1.28l.26-1.03h3.79v21.27ZM1798.03,190.21v-13.08c-1.08-.49-2.08-.83-3-1.04-.93-.21-1.85-.31-2.77-.31-2.22,0-3.98.75-5.25,2.23-1.28,1.49-1.92,3.65-1.92,6.49s.47,4.73,1.42,6.12c.95,1.39,2.52,2.08,4.71,2.08,1.18,0,2.36-.23,3.54-.68,1.18-.45,2.27-1.06,3.26-1.82Z"/>
      <path class="cls-6" d="M1830.17,185.23h-17.72c0,1.48.22,2.76.67,3.86.45,1.1,1.05,1.99,1.83,2.7.75.69,1.63,1.2,2.66,1.55s2.16.52,3.39.52c1.64,0,3.28-.33,4.94-.98,1.66-.65,2.84-1.29,3.54-1.92h.22v4.4c-1.36.57-2.76,1.05-4.18,1.44s-2.91.58-4.48.58c-3.99,0-7.1-1.08-9.34-3.23-2.24-2.16-3.36-5.22-3.36-9.18s1.07-7.04,3.22-9.35c2.15-2.31,4.97-3.46,8.47-3.46,3.24,0,5.74.95,7.5,2.84s2.64,4.58,2.64,8.06v2.19ZM1826.23,182.14c-.01-2.12-.55-3.76-1.6-4.92-1.05-1.16-2.66-1.74-4.81-1.74s-3.89.64-5.18,1.91c-1.28,1.27-2.01,2.86-2.18,4.75h13.78Z"/>
    </g>
    <g>
      <path class="cls-1" d="M724.99,1012.47c-1.1-.2-2.2-.3-3.4-.3-1.1,0-2.3.1-3.4.3-1.1.2-2.2.5-3.3.9-1.1.4-2.1.9-3.1,1.4-1,.6-1.9,1.2-2.8,1.9-.9.7-1.7,1.5-2.4,2.4-.7.9-1.4,1.8-1.9,2.8-.6,1-1,2-1.4,3.1-.4,1-.7,2.1-.9,3.3-.1.4-.1.9-.2,1.3-.1.7-.1,1.4-.1,2.1,0,1.1.1,2.3.3,3.4.2,1,.4,1.9.7,2.8,0,.1.1.3.1.4.4,1.1.9,2.1,1.4,3.1.6,1,1.2,1.9,1.9,2.8,0,.1.1.1.1.2.7.8,1.4,1.6,2.3,2.2.7.6,1.4,1.1,2.1,1.5.2.1.4.3.7.4,1,.6,2,1,3.1,1.4,1,.4,2.1.7,3.3.9,1.1.2,2.2.3,3.4.3,1.1,0,2.3-.1,3.4-.3l2.1,11.6c-1.8.3-3.6.5-5.4.5s-3.7-.2-5.4-.5c-1.8-.3-3.5-.8-5.2-1.4h-.1c-1.7-.6-3.4-1.4-5-2.3s-3-1.9-4.4-3.1h0c-1.4-1.2-2.7-2.5-3.9-3.9s-2.2-2.9-3.1-4.5c-.9-1.6-1.7-3.2-2.3-5-.6-1.7-1.1-3.5-1.4-5.3-.1-.7-.2-1.4-.3-2.1-.1-1.1-.2-2.2-.2-3.4,0-1.9.2-3.7.5-5.4.2-1,.4-2,.7-3,.2-.8.5-1.5.7-2.3.6-1.7,1.4-3.4,2.3-5,.9-1.6,2-3.1,3.1-4.5,1.2-1.4,2.5-2.7,3.9-3.9,1.4-1.2,2.9-2.2,4.5-3.1s3.2-1.7,5-2.3c1.7-.6,3.5-1.1,5.3-1.4,1.8-.3,3.6-.5,5.4-.5s3.7.2,5.4.5l-2.1,12Z"/>
      <path class="cls-3" d="M756.29,1061.47l-10,3.3-3.3,7.3c-4.2-1.7-7.7-5-9.8-9-.2-.3-.3-.7-.5-1l-.4-1-.6-1.7c-.5-1.7-.8-3.5-.7-5.3.1-4.5,1.5-6.3,3-7.7.8-.8,1.6-1.5,2.3-2.3l.1-.1c.7-.9,1.4-1.8,1.9-2.8.6-1,1-2,1.4-3.1,0-.1.1-.2.1-.4.3-.9.6-1.9.7-2.9.2-1.1.3-2.2.3-3.4,0-.7,0-1.4-.1-2,0-.5-.1-.9-.2-1.4-.2-1.1-.5-2.2-.9-3.3s-.9-2.1-1.4-3.1c-.6-1-1.2-1.9-1.9-2.8-.7-.9-1.5-1.7-2.4-2.4-.9-.7-1.8-1.4-2.8-1.9-1-.6-2-1-3.1-1.4l4.1-11.3c1.7.6,3.4,1.4,5,2.3s3.1,2,4.5,3.1c1.4,1.2,2.7,2.5,3.9,3.9s2.2,2.9,3.1,4.5c.9,1.6,1.7,3.2,2.3,5,.3.7.5,1.5.7,2.3.3,1,.5,2,.7,3,.3,1.8.5,3.6.5,5.4,0,1.1-.1,2.2-.2,3.3-.1.7-.2,1.4-.3,2.1-.3,1.8-.8,3.6-1.4,5.3s-1.4,3.4-2.3,5c-.9,1.6-2,3.1-3.1,4.5-.8.9-1.6,1.8-2.5,2.6h0c-.8.7-.7,1.9.1,2.6q.1.1.2.2c3.3,2.7,7.6,4.4,12.3,4.4.3.2.5.2.7.2Z"/>
      <path class="cls-4" d="M710.09,1063.07c-2.1,4-5.6,7.3-9.9,9l-3.3-7.3-10-3.4h.7c4.6,0,8.9-1.6,12.2-4.3.1,0,.1.1.2.1,1.5,1.3,3.1,2.4,4.8,3.4s3.4,1.8,5.3,2.5Z"/>
    </g>
    <g>
      <path class="cls-5" d="M786.79,1011.77c-4.1,0-7.3,1.5-9.5,4.6-2.2,3.1-3.4,7.4-3.4,12.9,0,11.4,4.3,17.2,12.9,17.2,3.6,0,8-.9,13.1-2.7v9.1c-4.2,1.8-8.9,2.6-14.1,2.6-7.5,0-13.2-2.3-17.1-6.8-4-4.5-5.9-11-5.9-19.5,0-5.3,1-10,2.9-14s4.7-7.1,8.4-9.2c3.6-2.1,7.9-3.2,12.8-3.2s10,1.2,15,3.6l-3.5,8.8c-1.9-.9-3.8-1.7-5.8-2.4-2-.6-3.9-1-5.8-1Z"/>
      <path class="cls-5" d="M833.09,1055.47c-6.3,0-11.3-1.7-14.8-5.2-3.6-3.5-5.3-8.4-5.3-14.8s1.6-11.7,4.9-15.2c3.3-3.6,7.8-5.4,13.6-5.4,5.5,0,9.9,1.6,12.9,4.7s4.6,7.5,4.6,13.1v5.2h-25.3c.1,3,1,5.4,2.7,7.1,1.7,1.7,4,2.6,7.1,2.6,2.4,0,4.6-.2,6.7-.7,2.1-.5,4.3-1.3,6.6-2.4v8.3c-1.9.9-3.9,1.6-6,2.1-2,.4-4.6.6-7.7.6ZM831.59,1022.47c-2.3,0-4,.7-5.3,2.2-1.3,1.4-2,3.5-2.2,6.1h15c0-2.6-.7-4.7-2.1-6.1-1.3-1.5-3.1-2.2-5.4-2.2Z"/>
      <path class="cls-5" d="M885.09,1014.87c1.4,0,2.7.1,3.6.3l-.8,10c-.9-.2-1.9-.4-3.2-.4-3.4,0-6.1.9-8,2.6-1.9,1.8-2.9,4.2-2.9,7.4v20h-10.7v-39.2h8.1l1.6,6.6h.5c1.2-2.2,2.9-4,4.9-5.3,2.2-1.4,4.4-2,6.9-2Z"/>
      <path class="cls-5" d="M917.69,1046.97c1.9,0,4.1-.4,6.7-1.2v8c-2.7,1.2-5.9,1.8-9.8,1.8-4.3,0-7.4-1.1-9.4-3.2-2-2.2-2.9-5.4-2.9-9.7v-19.1h-5.1v-4.5l5.9-3.6,3.1-8.3h6.8v8.4h11v8h-11v18.9c0,1.5.4,2.6,1.3,3.4.9.7,2,1.1,3.4,1.1Z"/>
      <path class="cls-5" d="M948.49,1054.77h-10.7v-54.6h10.7v54.6Z"/>
      <path class="cls-5" d="M964.59,1005.37c0-3.5,1.9-5.2,5.8-5.2s5.8,1.7,5.8,5.2c0,1.7-.5,3-1.5,3.9s-2.4,1.4-4.4,1.4c-3.7,0-5.7-1.7-5.7-5.3ZM975.79,1054.77h-10.7v-39.2h10.7v39.2Z"/>
      <path class="cls-5" d="M1028.59,1054.77h-10.7v-22.9c0-2.8-.5-5-1.5-6.4s-2.6-2.1-4.8-2.1c-3,0-5.2,1-6.5,3s-2,5.3-2,9.9v18.5h-10.7v-39.2h8.2l1.4,5h.6c1.2-1.9,2.8-3.3,4.9-4.3s4.5-1.5,7.1-1.5c4.6,0,8,1.2,10.4,3.7s3.5,6,3.5,10.7v25.6h.1Z"/>
      <path class="cls-5" d="M1079.29,1054.87c0,5.6-1.6,9.9-4.9,12.8s-8.2,4.4-14.7,4.4c-5.7,0-10.6-.8-14.7-2.3v-8.6c4.7,2,9.8,3,15.3,3s8.2-3,8.2-8.9v-.8l.3-4.8h-.3c-2.5,3.9-6.2,5.8-11.1,5.8s-8.3-1.8-10.9-5.4-3.9-8.6-3.9-14.8,1.3-11.4,4-15c2.7-3.6,6.4-5.4,11.1-5.4s8.6,1.9,11.4,5.8h.3l.9-5h9.1v39.2h-.1ZM1061.29,1047.07c2.9,0,4.9-.8,6.2-2.5,1.2-1.6,1.9-4.3,1.9-8v-1.3c0-4.2-.6-7.2-1.9-9s-3.4-2.8-6.3-2.8c-5,0-7.5,4-7.5,11.9,0,3.9.6,6.9,1.9,8.8,1.1,2,3,2.9,5.7,2.9Z"/>
    </g>
    <text class="cls-19" transform="translate(1662.66 1045.61)"><tspan x="0" y="0">Others</tspan></text>
  </g>
  <g id="Dimensions">
    <text class="cls-16" transform="translate(56.09 654.29) rotate(-90)"><tspan class="cls-15" x="0" y="0">W</tspan><tspan x="54.05" y="0">ord count</tspan></text>
    <text class="cls-17" transform="translate(336.61 942.7)"><tspan x="0" y="0">ID</tspan></text>
    <g>
      <path class="cls-6" d="M693.23,711.8c0,1.59-.3,2.99-.9,4.21-.6,1.22-1.41,2.22-2.43,3.01-1.21.95-2.53,1.62-3.97,2.02-1.44.4-3.28.6-5.5.6h-11.37v-31.99h9.49c2.34,0,4.09.09,5.25.26s2.27.53,3.34,1.07c1.18.62,2.03,1.41,2.56,2.37.53.97.8,2.12.8,3.47,0,1.52-.39,2.81-1.16,3.88-.77,1.07-1.81,1.92-3.1,2.57v.17c2.17.44,3.87,1.39,5.12,2.85,1.25,1.45,1.87,3.29,1.87,5.51ZM686.06,697.39c0-.77-.13-1.42-.39-1.96-.26-.53-.67-.96-1.25-1.29-.67-.39-1.49-.63-2.45-.72-.96-.09-2.15-.14-3.57-.14h-5.08v9.24h5.51c1.33,0,2.4-.07,3.19-.2.79-.14,1.52-.42,2.2-.85.67-.43,1.15-.98,1.43-1.67.28-.68.42-1.49.42-2.42ZM688.8,711.97c0-1.29-.19-2.31-.58-3.07-.39-.76-1.09-1.4-2.11-1.93-.69-.36-1.52-.59-2.51-.7s-2.18-.16-3.58-.16h-6.69v11.9h5.64c1.87,0,3.39-.1,4.59-.29,1.19-.19,2.17-.55,2.93-1.06.8-.56,1.39-1.2,1.77-1.91.37-.72.56-1.64.56-2.77Z"/>
      <path class="cls-6" d="M703.31,693.63h-4.56v-4.19h4.56v4.19ZM703.05,721.64h-4.05v-24h4.05v24Z"/>
      <path class="cls-6" d="M726.06,702.05h-.22c-.6-.14-1.19-.25-1.75-.31-.57-.06-1.24-.1-2.01-.1-1.25,0-2.45.28-3.62.83-1.16.55-2.28,1.26-3.36,2.14v17.04h-4.05v-24h4.05v3.54c1.61-1.29,3.02-2.2,4.25-2.74s2.48-.81,3.76-.81c.7,0,1.21.02,1.53.05.32.04.79.1,1.42.2v4.15Z"/>
      <path class="cls-6" d="M742.36,721.43c-.76.2-1.59.37-2.49.49s-1.7.19-2.4.19c-2.45,0-4.32-.66-5.6-1.98-1.28-1.32-1.92-3.43-1.92-6.34v-12.76h-2.73v-3.39h2.73v-6.9h4.05v6.9h8.35v3.39h-8.35v10.94c0,1.26.03,2.25.09,2.95.06.71.26,1.37.6,1.99.32.57.75.99,1.3,1.26.55.27,1.4.4,2.53.4.66,0,1.35-.1,2.07-.29s1.23-.35,1.55-.48h.22v3.63Z"/>
      <path class="cls-6" d="M767.35,721.64h-4.05v-13.66c0-1.1-.06-2.14-.19-3.1-.13-.97-.37-1.72-.71-2.27-.36-.6-.88-1.05-1.55-1.34-.67-.29-1.55-.44-2.63-.44s-2.26.27-3.47.82c-1.21.54-2.36,1.24-3.47,2.08v17.92h-4.05v-33.43h4.05v12.1c1.26-1.04,2.57-1.86,3.92-2.45,1.35-.59,2.73-.88,4.15-.88,2.6,0,4.58.78,5.94,2.34,1.36,1.56,2.04,3.81,2.04,6.75v15.58Z"/>
      <path class="cls-6" d="M634.01,772.12c-.79.34-1.5.67-2.14.97-.64.3-1.47.62-2.51.95-.88.27-1.83.5-2.85.7-1.03.19-2.16.29-3.39.29-2.32,0-4.44-.33-6.34-.98-1.9-.65-3.56-1.67-4.96-3.06-1.38-1.36-2.45-3.09-3.23-5.19-.77-2.1-1.16-4.54-1.16-7.32,0-2.63.37-4.99,1.12-7.07.75-2.08,1.82-3.83,3.23-5.26,1.36-1.39,3.01-2.45,4.94-3.18,1.93-.73,4.07-1.1,6.43-1.1,1.72,0,3.44.21,5.16.62,1.71.42,3.62,1.15,5.72,2.19v5.05h-.32c-1.77-1.47-3.52-2.55-5.25-3.22-1.74-.67-3.6-1.01-5.58-1.01-1.62,0-3.08.26-4.38.78-1.3.52-2.46,1.34-3.48,2.44-.99,1.07-1.76,2.43-2.31,4.07-.55,1.64-.83,3.53-.83,5.68s.3,4.18.92,5.8c.61,1.62,1.4,2.94,2.36,3.95,1,1.06,2.18,1.84,3.52,2.35,1.34.51,2.76.76,4.25.76,2.05,0,3.97-.35,5.77-1.05,1.79-.7,3.47-1.75,5.04-3.16h.3v4.98Z"/>
      <path class="cls-6" d="M659.84,762.86h-17.72c0,1.48.22,2.76.67,3.86.44,1.1,1.05,2,1.83,2.7.75.69,1.63,1.2,2.66,1.55,1.03.34,2.16.52,3.39.52,1.64,0,3.28-.33,4.94-.98,1.66-.65,2.84-1.29,3.54-1.92h.21v4.4c-1.36.57-2.76,1.05-4.18,1.44-1.42.39-2.91.58-4.48.58-3.99,0-7.1-1.08-9.34-3.23-2.24-2.16-3.36-5.22-3.36-9.18s1.07-7.04,3.22-9.35c2.15-2.31,4.97-3.46,8.47-3.46,3.24,0,5.74.95,7.5,2.84,1.76,1.89,2.64,4.58,2.64,8.06v2.19ZM655.9,759.77c-.01-2.12-.55-3.76-1.6-4.92s-2.66-1.74-4.81-1.74-3.89.64-5.18,1.91c-1.28,1.28-2.01,2.86-2.19,4.75h13.78Z"/>
      <path class="cls-6" d="M680.98,754.85h-.22c-.6-.14-1.19-.25-1.75-.31-.57-.06-1.24-.1-2.01-.1-1.25,0-2.45.28-3.62.83-1.16.55-2.28,1.26-3.36,2.14v17.04h-4.05v-24h4.05v3.54c1.61-1.29,3.02-2.2,4.25-2.74s2.48-.81,3.76-.81c.7,0,1.21.02,1.53.05.32.04.79.1,1.42.2v4.15Z"/>
      <path class="cls-6" d="M697.28,774.23c-.76.2-1.59.37-2.49.49s-1.7.19-2.4.19c-2.45,0-4.32-.66-5.6-1.98-1.28-1.32-1.92-3.43-1.92-6.34v-12.76h-2.73v-3.39h2.73v-6.9h4.05v6.9h8.35v3.39h-8.35v10.94c0,1.26.03,2.25.09,2.95.06.71.26,1.37.6,1.99.32.57.75.99,1.3,1.26.55.27,1.4.4,2.53.4.66,0,1.35-.1,2.07-.29s1.23-.35,1.55-.48h.22v3.63Z"/>
      <path class="cls-6" d="M706.51,746.43h-4.56v-4.19h4.56v4.19ZM706.25,774.44h-4.05v-24h4.05v24Z"/>
      <path class="cls-6" d="M727.2,744.92h-.22c-.44-.13-1.03-.26-1.74-.4-.72-.14-1.35-.2-1.89-.2-1.74,0-3,.38-3.78,1.15-.78.77-1.17,2.15-1.17,4.16v.82h7.3v3.39h-7.17v20.6h-4.05v-20.6h-2.73v-3.39h2.73v-.79c0-2.85.71-5.04,2.13-6.56,1.42-1.53,3.47-2.29,6.16-2.29.9,0,1.72.04,2.44.13s1.39.19,1.99.3v3.7Z"/>
      <path class="cls-6" d="M734.11,746.43h-4.56v-4.19h4.56v4.19ZM733.85,774.44h-4.05v-24h4.05v24Z"/>
      <path class="cls-6" d="M759.64,772.94c-1.35.64-2.63,1.15-3.84,1.5s-2.5.54-3.86.54c-1.74,0-3.33-.25-4.78-.76s-2.69-1.28-3.72-2.31c-1.05-1.03-1.86-2.33-2.43-3.91-.57-1.58-.86-3.42-.86-5.52,0-3.92,1.08-7,3.24-9.24,2.16-2.23,5.01-3.35,8.56-3.35,1.38,0,2.73.19,4.06.58,1.33.39,2.54.86,3.65,1.42v4.49h-.22c-1.23-.96-2.51-1.7-3.82-2.21-1.31-.52-2.59-.77-3.84-.77-2.3,0-4.11.77-5.44,2.31-1.33,1.54-1.99,3.8-1.99,6.78s.65,5.12,1.95,6.67c1.3,1.55,3.12,2.33,5.48,2.33.82,0,1.65-.11,2.5-.32s1.61-.49,2.28-.84c.59-.3,1.14-.62,1.66-.96.52-.34.93-.63,1.23-.87h.22v4.45Z"/>
      <path class="cls-6" d="M783.52,774.44h-4.03v-2.56c-.36.24-.84.58-1.45,1.02-.61.44-1.2.78-1.78,1.04-.67.33-1.45.6-2.32.83-.88.22-1.9.33-3.08.33-2.17,0-4-.72-5.51-2.15-1.51-1.43-2.26-3.26-2.26-5.48,0-1.82.39-3.29,1.17-4.42.78-1.12,1.9-2.01,3.35-2.65,1.46-.64,3.22-1.08,5.27-1.31,2.05-.23,4.25-.4,6.61-.52v-.62c0-.92-.16-1.68-.48-2.28-.32-.6-.79-1.07-1.39-1.42-.57-.33-1.26-.55-2.07-.67-.8-.11-1.64-.17-2.52-.17-1.06,0-2.25.14-3.55.42-1.31.28-2.66.68-4.05,1.21h-.22v-4.1c.79-.21,1.93-.45,3.42-.71s2.96-.39,4.41-.39c1.69,0,3.17.14,4.42.42s2.34.76,3.26,1.43c.9.66,1.59,1.51,2.07,2.56.47,1.05.71,2.34.71,3.89v16.29ZM779.49,768.54v-6.68c-1.23.07-2.69.18-4.36.32-1.67.14-3,.35-3.97.62-1.16.33-2.1.84-2.82,1.54-.72.7-1.08,1.65-1.08,2.87,0,1.38.42,2.41,1.25,3.1.83.7,2.1,1.04,3.81,1.04,1.42,0,2.72-.28,3.9-.83,1.18-.55,2.27-1.21,3.27-1.99Z"/>
      <path class="cls-6" d="M803.79,774.23c-.76.2-1.59.37-2.49.49s-1.7.19-2.4.19c-2.45,0-4.32-.66-5.6-1.98-1.28-1.32-1.92-3.43-1.92-6.34v-12.76h-2.73v-3.39h2.73v-6.9h4.05v6.9h8.35v3.39h-8.35v10.94c0,1.26.03,2.25.09,2.95.06.71.26,1.37.6,1.99.32.57.75.99,1.3,1.26.55.27,1.4.4,2.53.4.66,0,1.35-.1,2.07-.29s1.23-.35,1.55-.48h.22v3.63Z"/>
      <path class="cls-6" d="M828.81,762.86h-17.72c0,1.48.22,2.76.67,3.86.44,1.1,1.05,2,1.83,2.7.75.69,1.63,1.2,2.66,1.55,1.03.34,2.16.52,3.39.52,1.64,0,3.28-.33,4.94-.98,1.66-.65,2.84-1.29,3.54-1.92h.21v4.4c-1.36.57-2.76,1.05-4.18,1.44-1.42.39-2.91.58-4.48.58-3.99,0-7.1-1.08-9.34-3.23-2.24-2.16-3.36-5.22-3.36-9.18s1.07-7.04,3.22-9.35c2.15-2.31,4.97-3.46,8.47-3.46,3.24,0,5.74.95,7.5,2.84,1.76,1.89,2.64,4.58,2.64,8.06v2.19ZM824.87,759.77c-.01-2.12-.55-3.76-1.6-4.92s-2.66-1.74-4.81-1.74-3.89.64-5.18,1.91c-1.28,1.28-2.01,2.86-2.19,4.75h13.78Z"/>
    </g>
    <g>
      <path class="cls-6" d="M1035.46,811.91c0,2.32-.25,4.34-.76,6.07-.51,1.73-1.35,3.16-2.51,4.31-1.11,1.09-2.4,1.88-3.88,2.38-1.48.5-3.2.75-5.17.75s-3.76-.27-5.25-.79c-1.49-.53-2.75-1.31-3.77-2.34-1.16-1.17-2-2.59-2.51-4.25-.51-1.66-.76-3.7-.76-6.12v-19.14h4.26v19.36c0,1.73.12,3.1.36,4.1.24,1,.63,1.91,1.19,2.73.63.93,1.49,1.63,2.57,2.11,1.08.47,2.39.71,3.91.71s2.84-.23,3.92-.7c1.08-.46,1.94-1.17,2.58-2.12.56-.82.96-1.75,1.19-2.8.24-1.05.36-2.36.36-3.92v-19.46h4.26v19.14Z"/>
      <path class="cls-6" d="M1055.76,824.55c-.76.2-1.59.37-2.49.49s-1.7.19-2.4.19c-2.45,0-4.32-.66-5.6-1.98-1.28-1.32-1.92-3.43-1.92-6.34v-12.76h-2.73v-3.39h2.73v-6.9h4.05v6.9h8.35v3.39h-8.35v10.94c0,1.26.03,2.25.09,2.95.06.71.26,1.37.6,1.99.32.57.75.99,1.3,1.26.55.27,1.4.4,2.53.4.66,0,1.35-.1,2.07-.29.72-.19,1.23-.35,1.55-.48h.21v3.63Z"/>
      <path class="cls-6" d="M1064.99,796.75h-4.56v-4.19h4.56v4.19ZM1064.73,824.76h-4.05v-24h4.05v24Z"/>
      <path class="cls-6" d="M1076.83,824.76h-4.05v-33.43h4.05v33.43Z"/>
      <path class="cls-6" d="M1089.19,796.75h-4.56v-4.19h4.56v4.19ZM1088.93,824.76h-4.05v-24h4.05v24Z"/>
      <path class="cls-6" d="M1109.42,824.55c-.76.2-1.59.37-2.49.49s-1.7.19-2.4.19c-2.45,0-4.32-.66-5.6-1.98-1.28-1.32-1.92-3.43-1.92-6.34v-12.76h-2.73v-3.39h2.73v-6.9h4.05v6.9h8.35v3.39h-8.35v10.94c0,1.26.03,2.25.09,2.95.06.71.26,1.37.6,1.99.32.57.75.99,1.3,1.26.55.27,1.4.4,2.53.4.66,0,1.35-.1,2.07-.29.72-.19,1.23-.35,1.55-.48h.21v3.63Z"/>
      <path class="cls-6" d="M1134.89,800.76l-14.04,32.85h-4.33l4.48-10.01-9.58-22.84h4.39l7.38,17.79,7.45-17.79h4.24Z"/>
      <path class="cls-6" d="M1066.83,867.72c0,1.59-.3,2.99-.9,4.21-.6,1.22-1.41,2.22-2.43,3.01-1.21.95-2.53,1.62-3.97,2.02-1.44.4-3.28.6-5.5.6h-11.37v-31.99h9.49c2.34,0,4.09.09,5.25.26,1.16.17,2.28.53,3.34,1.07,1.18.62,2.03,1.41,2.56,2.37.53.97.8,2.12.8,3.47,0,1.52-.39,2.81-1.16,3.88-.78,1.07-1.81,1.92-3.1,2.57v.17c2.17.44,3.88,1.39,5.12,2.85,1.25,1.45,1.87,3.29,1.87,5.51ZM1059.66,853.31c0-.77-.13-1.42-.39-1.96-.26-.53-.67-.96-1.25-1.29-.67-.39-1.49-.63-2.45-.72-.96-.09-2.15-.14-3.57-.14h-5.08v9.24h5.51c1.33,0,2.4-.07,3.19-.2.79-.14,1.52-.42,2.2-.85s1.15-.98,1.43-1.67c.28-.68.42-1.49.42-2.42ZM1062.4,867.89c0-1.29-.19-2.31-.58-3.07-.39-.76-1.09-1.4-2.11-1.93-.69-.36-1.53-.59-2.51-.7-.98-.11-2.18-.16-3.58-.16h-6.7v11.9h5.64c1.87,0,3.39-.1,4.58-.29s2.17-.55,2.93-1.06c.8-.56,1.39-1.2,1.76-1.91.37-.72.56-1.64.56-2.77Z"/>
      <path class="cls-6" d="M1076.91,849.55h-4.56v-4.19h4.56v4.19ZM1076.65,877.56h-4.05v-24h4.05v24Z"/>
      <path class="cls-6" d="M1088.75,877.56h-4.05v-33.43h4.05v33.43Z"/>
      <path class="cls-6" d="M1100.84,877.56h-4.05v-33.43h4.05v33.43Z"/>
    </g>
    <g>
      <path class="cls-6" d="M1368.53,615.18c0,2.91-.63,5.54-1.9,7.91-1.27,2.36-2.96,4.2-5.07,5.5-1.46.9-3.1,1.55-4.9,1.96-1.8.4-4.17.6-7.11.6h-8.09v-31.99h8.01c3.13,0,5.61.23,7.46.68,1.84.45,3.4,1.07,4.68,1.86,2.18,1.36,3.88,3.17,5.1,5.44,1.22,2.26,1.83,4.95,1.83,8.06ZM1364.07,615.12c0-2.51-.44-4.62-1.31-6.34-.88-1.72-2.18-3.07-3.92-4.06-1.26-.72-2.6-1.21-4.03-1.49s-3.12-.42-5.1-.42h-4v24.69h4c2.05,0,3.84-.15,5.37-.45s2.93-.86,4.21-1.68c1.59-1.02,2.79-2.36,3.58-4.02.8-1.66,1.19-3.74,1.19-6.23Z"/>
      <path class="cls-6" d="M1395.59,619.16c0,3.91-1,7-3.01,9.26-2.01,2.26-4.7,3.39-8.07,3.39s-6.1-1.13-8.1-3.39c-2-2.26-3-5.35-3-9.26s1-7,3-9.27c2-2.27,4.7-3.41,8.1-3.41s6.06,1.14,8.07,3.41c2.01,2.27,3.01,5.36,3.01,9.27ZM1391.41,619.16c0-3.11-.61-5.42-1.83-6.93-1.22-1.51-2.91-2.27-5.08-2.27s-3.9.76-5.11,2.27c-1.21,1.51-1.82,3.82-1.82,6.93s.61,5.29,1.83,6.84c1.22,1.55,2.92,2.33,5.1,2.33s3.84-.77,5.07-2.31c1.23-1.54,1.84-3.83,1.84-6.86Z"/>
      <path class="cls-6" d="M1419.63,629.64c-1.35.64-2.63,1.15-3.84,1.5s-2.5.54-3.86.54c-1.74,0-3.33-.25-4.78-.76-1.45-.51-2.69-1.28-3.72-2.31-1.05-1.03-1.86-2.33-2.43-3.91-.57-1.58-.86-3.42-.86-5.52,0-3.92,1.08-7,3.24-9.24s5.01-3.35,8.56-3.35c1.38,0,2.73.19,4.06.58,1.33.39,2.54.86,3.65,1.42v4.49h-.21c-1.24-.96-2.51-1.7-3.82-2.21-1.31-.52-2.59-.77-3.84-.77-2.3,0-4.11.77-5.44,2.31-1.33,1.54-1.99,3.8-1.99,6.78s.65,5.12,1.95,6.67c1.3,1.55,3.12,2.33,5.48,2.33.82,0,1.65-.11,2.5-.32s1.61-.49,2.28-.84c.59-.3,1.14-.62,1.66-.96.52-.34.93-.63,1.23-.87h.21v4.45Z"/>
      <path class="cls-6" d="M1437.3,630.93c-.76.2-1.59.37-2.49.49s-1.7.19-2.4.19c-2.45,0-4.32-.66-5.6-1.98-1.28-1.32-1.92-3.43-1.92-6.34v-12.76h-2.73v-3.39h2.73v-6.9h4.05v6.9h8.35v3.39h-8.35v10.94c0,1.26.03,2.25.09,2.95.06.71.26,1.37.6,1.99.32.57.75.99,1.3,1.26.55.27,1.4.4,2.53.4.66,0,1.35-.1,2.07-.29.72-.19,1.23-.35,1.55-.48h.21v3.63Z"/>
      <path class="cls-6" d="M1462.68,619.16c0,3.91-1,7-3.01,9.26-2.01,2.26-4.7,3.39-8.07,3.39s-6.1-1.13-8.1-3.39c-2-2.26-3-5.35-3-9.26s1-7,3-9.27c2-2.27,4.7-3.41,8.1-3.41s6.06,1.14,8.07,3.41c2.01,2.27,3.01,5.36,3.01,9.27ZM1458.51,619.16c0-3.11-.61-5.42-1.83-6.93-1.22-1.51-2.91-2.27-5.08-2.27s-3.9.76-5.11,2.27c-1.21,1.51-1.82,3.82-1.82,6.93s.61,5.29,1.83,6.84c1.22,1.55,2.92,2.33,5.1,2.33s3.84-.77,5.07-2.31c1.23-1.54,1.84-3.83,1.84-6.86Z"/>
      <path class="cls-6" d="M1483.95,611.55h-.21c-.6-.14-1.19-.25-1.75-.31-.57-.06-1.24-.1-2.01-.1-1.25,0-2.45.28-3.62.83-1.16.55-2.28,1.26-3.36,2.14v17.04h-4.05v-24h4.05v3.54c1.61-1.29,3.02-2.2,4.25-2.74,1.23-.54,2.48-.81,3.76-.81.7,0,1.21.02,1.53.05.32.04.79.1,1.42.2v4.15Z"/>
      <path class="cls-6" d="M1504.94,624.23c0,2.19-.91,3.99-2.72,5.39-1.82,1.4-4.29,2.11-7.44,2.11-1.78,0-3.41-.21-4.9-.63s-2.73-.88-3.73-1.39v-4.53h.21c1.28.96,2.7,1.72,4.26,2.29,1.56.57,3.06.85,4.5.85,1.78,0,3.17-.29,4.18-.86,1-.57,1.51-1.47,1.51-2.71,0-.95-.27-1.66-.82-2.15-.55-.49-1.59-.9-3.14-1.25-.57-.13-1.32-.28-2.25-.45s-1.77-.36-2.53-.56c-2.11-.56-3.61-1.38-4.49-2.46-.88-1.08-1.32-2.41-1.32-3.99,0-.99.2-1.92.61-2.79.41-.87,1.03-1.65,1.86-2.34.8-.67,1.83-1.21,3.07-1.6,1.24-.39,2.63-.59,4.17-.59,1.43,0,2.89.18,4.36.53,1.47.35,2.69.78,3.67,1.28v4.32h-.22c-1.03-.76-2.29-1.4-3.77-1.92-1.48-.52-2.93-.78-4.35-.78s-2.73.28-3.75.85c-1.02.57-1.53,1.41-1.53,2.52,0,.99.31,1.73.93,2.23.6.5,1.58.91,2.93,1.22.75.17,1.58.34,2.51.52s1.7.33,2.31.47c1.88.43,3.33,1.17,4.35,2.21,1.02,1.06,1.53,2.46,1.53,4.21Z"/>
      <path class="cls-6" d="M1396.89,683.94h-4.05v-13.66c0-1.1-.06-2.14-.19-3.1s-.37-1.72-.71-2.27c-.36-.6-.88-1.05-1.55-1.34-.67-.29-1.55-.44-2.63-.44s-2.26.27-3.47.82c-1.21.54-2.36,1.24-3.47,2.08v17.92h-4.05v-24h4.05v2.66c1.26-1.04,2.57-1.86,3.92-2.45,1.35-.59,2.73-.88,4.16-.88,2.6,0,4.58.78,5.94,2.34,1.36,1.56,2.04,3.81,2.04,6.75v15.58Z"/>
      <path class="cls-6" d="M1425.17,671.96c0,3.91-1,7-3.01,9.26-2.01,2.26-4.7,3.39-8.07,3.39s-6.1-1.13-8.1-3.39c-2-2.26-3-5.35-3-9.26s1-7,3-9.27c2-2.27,4.7-3.41,8.1-3.41s6.06,1.14,8.07,3.41c2.01,2.27,3.01,5.36,3.01,9.27ZM1421,671.96c0-3.11-.61-5.42-1.83-6.93-1.22-1.51-2.91-2.27-5.08-2.27s-3.9.76-5.11,2.27c-1.21,1.51-1.82,3.82-1.82,6.93s.61,5.29,1.83,6.84c1.22,1.55,2.92,2.33,5.1,2.33s3.84-.77,5.07-2.31c1.23-1.54,1.84-3.83,1.84-6.86Z"/>
      <path class="cls-6" d="M1443.92,683.73c-.76.2-1.59.37-2.49.49s-1.7.19-2.4.19c-2.45,0-4.32-.66-5.6-1.98-1.28-1.32-1.92-3.43-1.92-6.34v-12.76h-2.73v-3.39h2.73v-6.9h4.05v6.9h8.35v3.39h-8.35v10.94c0,1.26.03,2.25.09,2.95.06.71.26,1.37.6,1.99.32.57.75.99,1.3,1.26.55.27,1.4.4,2.53.4.66,0,1.35-.1,2.07-.29.72-.19,1.23-.35,1.55-.48h.21v3.63Z"/>
      <path class="cls-6" d="M1468.94,672.36h-17.72c0,1.48.22,2.76.67,3.86.45,1.1,1.05,2,1.83,2.7.75.69,1.63,1.2,2.66,1.55s2.16.52,3.39.52c1.64,0,3.28-.33,4.94-.98,1.66-.65,2.84-1.29,3.54-1.92h.22v4.4c-1.36.57-2.76,1.05-4.18,1.44s-2.91.58-4.48.58c-3.99,0-7.1-1.08-9.34-3.23-2.24-2.16-3.36-5.22-3.36-9.18s1.07-7.04,3.22-9.35c2.15-2.31,4.97-3.46,8.47-3.46,3.24,0,5.74.95,7.5,2.84s2.64,4.58,2.64,8.06v2.19ZM1465,669.27c-.01-2.12-.55-3.76-1.6-4.92-1.05-1.16-2.66-1.74-4.81-1.74s-3.89.64-5.18,1.91c-1.28,1.28-2.01,2.86-2.18,4.75h13.78Z"/>
    </g>
    <path class="cls-12" d="M1653.39,21.63v15.35"/>
    <path class="cls-12" d="M1675.18,21.63v15.35"/>
    <path class="cls-12" d="M1696.98,21.63v15.35"/>
    <path class="cls-12" d="M1718.77,21.63v15.35"/>
    <path class="cls-12" d="M1740.56,21.63v15.35"/>
    <path class="cls-12" d="M1762.36,21.63v15.35"/>
    <path class="cls-12" d="M1784.15,21.63v15.35"/>
    <path class="cls-12" d="M1805.94,21.63v15.35"/>
    <path class="cls-12" d="M1827.74,21.63v15.35"/>
    <path class="cls-12" d="M1849.53,21.63v15.35"/>
    <path class="cls-12" d="M1871.33,21.63v15.35"/>
    <path class="cls-12" d="M1893.12,21.63v15.35"/>
  </g>
</svg>