<?xml version="1.0" encoding="UTF-8"?>
<svg xmlns="http://www.w3.org/2000/svg" xmlns:xlink="http://www.w3.org/1999/xlink" viewBox="0 0 1920 1080">
  <defs>
    <style>
      .cls-1 {
        fill: url(#linear-gradient);
      }

      .cls-1, .cls-2, .cls-3, .cls-4, .cls-5, .cls-6 {
        stroke-width: 0px;
      }

      .cls-7 {
        stroke: #c0c1c5;
      }

      .cls-7, .cls-8, .cls-9, .cls-10, .cls-11, .cls-12, .cls-13, .cls-14 {
        stroke-miterlimit: 10;
      }

      .cls-7, .cls-9 {
        stroke-width: 2.13px;
      }

      .cls-7, .cls-12 {
        fill: none;
      }

      .cls-15 {
        fill: #575757;
        font-family: OpenSans-SemiBold, 'OpenSans SemiBold';
        font-size: 35.25px;
        font-weight: 600;
      }

      .cls-16 {
        letter-spacing: -.05em;
      }

      .cls-8 {
        stroke-width: 3.56px;
      }

      .cls-8, .cls-9, .cls-10, .cls-11, .cls-12, .cls-13, .cls-14 {
        stroke: #fff;
      }

      .cls-8, .cls-9, .cls-11, .cls-14 {
        fill: gold;
      }

      .cls-2 {
        fill: #c0c1c5;
      }

      .cls-10, .cls-12, .cls-13 {
        stroke-width: 4.01px;
      }

      .cls-10, .cls-13 {
        fill: #666;
      }

      .cls-3 {
        fill: url(#linear-gradient-2);
      }

      .cls-17 {
        fill: #000;
        font-size: 57.51px;
      }

      .cls-17, .cls-18 {
        font-family: Verdana, Verdana;
      }

      .cls-4 {
        fill: url(#linear-gradient-3);
      }

      .cls-11 {
        stroke-width: 3.81px;
      }

      .cls-13 {
        opacity: .9;
      }

      .cls-5 {
        fill: #333;
      }

      .cls-6, .cls-18 {
        fill: #fff;
      }

      .cls-18 {
        font-size: 44px;
      }

      .cls-19 {
        fill: #4d4d4d;
        font-family: Verdana-Bold, Verdana;
        font-size: 58px;
        font-weight: 700;
      }

      .cls-14 {
        stroke-width: 3.36px;
      }
    </style>
    <linearGradient id="linear-gradient" x1="730.96" y1="83.96" x2="698.17" y2="17.6" gradientTransform="translate(0 1082) scale(1 -1)" gradientUnits="userSpaceOnUse">
      <stop offset="0" stop-color="#fae390"/>
      <stop offset=".53" stop-color="#f5c514"/>
      <stop offset=".79" stop-color="#f7d24a"/>
    </linearGradient>
    <linearGradient id="linear-gradient-2" x1="754.93" y1="72.11" x2="722.13" y2="5.76" xlink:href="#linear-gradient"/>
    <linearGradient id="linear-gradient-3" x1="697.61" y1="18.37" x2="701.9" y2="23.32" xlink:href="#linear-gradient"/>
  </defs>
  <g id="Background">
    <rect class="cls-6" width="1920" height="1080"/>
  </g>
  <g id="Design">
    <rect class="cls-13" x="1637.61" y="19.63" width="269.34" height="287.59"/>
    <g id="Elements">
      <g>
        <path class="cls-9" d="M304.24,864.95h133.41c37.51,0,67.97,30.46,67.97,67.97v51.48H236.27v-51.48c0-37.51,30.46-67.97,67.97-67.97Z"/>
        <path class="cls-8" d="M654.57,547.75h133.41c37.51,0,67.97,30.46,67.97,67.97v368.68h-269.34v-368.68c0-37.51,30.46-67.97,67.97-67.97Z"/>
        <path class="cls-14" d="M1004.91,706.35h133.41c37.51,0,67.97,30.46,67.97,67.97v210.08h-269.34v-210.08c0-37.51,30.46-67.97,67.97-67.97Z"/>
        <path class="cls-11" d="M1355.24,389.15h133.41c37.51,0,67.97,30.46,67.97,67.97v527.28h-269.34V457.12c0-37.51,30.46-67.97,67.97-67.97Z"/>
        <path class="cls-10" d="M1705.57,230.55h133.41c37.51,0,67.97,30.46,67.97,67.97v685.88h-269.34V298.52c0-37.51,30.46-67.97,67.97-67.97Z"/>
      </g>
      <g>
        <ellipse class="cls-2" cx="175.17" cy="861.89" rx="17.61" ry="17.58"/>
        <ellipse class="cls-2" cx="175.17" cy="703.29" rx="17.61" ry="17.58"/>
        <ellipse class="cls-2" cx="175.17" cy="544.69" rx="17.61" ry="17.58"/>
        <ellipse class="cls-2" cx="175.17" cy="386.09" rx="17.61" ry="17.58"/>
        <ellipse class="cls-2" cx="175.17" cy="227.49" rx="17.61" ry="17.58"/>
        <ellipse class="cls-2" cx="175.17" cy="68.89" rx="17.61" ry="17.58"/>
        <ellipse class="cls-2" cx="175.17" cy="984.4" rx="17.61" ry="17.58"/>
        <line class="cls-7" x1="1906.95" y1="984.4" x2="175.17" y2="984.4"/>
        <line class="cls-7" x1="175.17" y1="972.08" x2="175.17" y2="7.32"/>
      </g>
    </g>
    <g id="Font">
      <g>
        <text class="cls-15" transform="translate(101.57 876.41)"><tspan x="0" y="0">50</tspan></text>
        <text class="cls-15" transform="translate(109.08 992.79)"><tspan x="0" y="0">0</tspan></text>
        <text class="cls-15" transform="translate(84.72 716.99)"><tspan x="0" y="0">100</tspan></text>
        <text class="cls-15" transform="translate(84.72 557.95)"><tspan x="0" y="0">150</tspan></text>
        <text class="cls-15" transform="translate(84.72 398.9)"><tspan x="0" y="0">200</tspan></text>
        <text class="cls-15" transform="translate(84.72 239.86)"><tspan x="0" y="0">250</tspan></text>
        <text class="cls-15" transform="translate(84.72 80.82)"><tspan x="0" y="0">300</tspan></text>
      </g>
    </g>
    <g>
      <path class="cls-6" d="M1745.55,491.43h-11.45v28.21h-4.26v-28.21h-11.45v-3.78h27.17v3.78Z"/>
      <path class="cls-6" d="M1765.29,507.66c0,3.91-1,7-3.01,9.26-2.01,2.26-4.7,3.39-8.07,3.39s-6.1-1.13-8.1-3.39c-2-2.26-3-5.35-3-9.26s1-7,3-9.27c2-2.27,4.7-3.41,8.1-3.41s6.06,1.14,8.07,3.41c2.01,2.27,3.01,5.36,3.01,9.27ZM1761.11,507.66c0-3.11-.61-5.42-1.83-6.93-1.22-1.51-2.91-2.27-5.08-2.27s-3.9.76-5.11,2.27c-1.21,1.51-1.82,3.82-1.82,6.93s.61,5.29,1.83,6.84c1.22,1.55,2.92,2.33,5.1,2.33s3.84-.77,5.07-2.31c1.23-1.54,1.84-3.83,1.84-6.86Z"/>
      <path class="cls-6" d="M1791.49,519.64h-4.05v-2.66c-1.36,1.07-2.67,1.9-3.92,2.47-1.25.57-2.63.86-4.13.86-2.53,0-4.49-.77-5.9-2.31-1.41-1.54-2.11-3.8-2.11-6.78v-15.58h4.05v13.66c0,1.22.06,2.26.17,3.13.12.87.36,1.61.73,2.22.39.63.89,1.09,1.51,1.38.62.29,1.51.43,2.69.43,1.05,0,2.19-.27,3.43-.82,1.24-.54,2.4-1.24,3.48-2.08v-17.92h4.05v24Z"/>
      <path class="cls-6" d="M1811.94,519.43c-.76.2-1.59.37-2.49.49-.9.13-1.7.19-2.4.19-2.45,0-4.32-.66-5.6-1.98-1.28-1.32-1.92-3.43-1.92-6.34v-12.76h-2.73v-3.39h2.73v-6.9h4.05v6.9h8.35v3.39h-8.35v10.94c0,1.26.03,2.25.09,2.95.06.71.26,1.37.6,1.99.32.57.75.99,1.3,1.26.55.27,1.4.4,2.53.4.66,0,1.35-.1,2.07-.29.72-.19,1.23-.35,1.55-.48h.21v3.63Z"/>
      <path class="cls-6" d="M1687.09,572.44h-4.05v-2.51c-1.16,1-2.38,1.78-3.64,2.34s-2.63.84-4.11.84c-2.87,0-5.15-1.1-6.83-3.31-1.69-2.21-2.53-5.26-2.53-9.17,0-2.03.29-3.85.87-5.44.58-1.59,1.37-2.94,2.36-4.06.98-1.09,2.11-1.92,3.41-2.49,1.3-.57,2.64-.86,4.04-.86,1.26,0,2.38.13,3.36.4.98.27,2,.68,3.08,1.24v-10.4h4.05v33.43ZM1683.05,566.54v-13.77c-1.09-.49-2.07-.82-2.93-1.01-.86-.19-1.8-.28-2.82-.28-2.27,0-4.03.79-5.3,2.36-1.26,1.58-1.89,3.81-1.89,6.7s.49,5.02,1.46,6.5,2.54,2.22,4.69,2.22c1.15,0,2.31-.25,3.49-.76,1.18-.51,2.27-1.16,3.29-1.97Z"/>
      <path class="cls-6" d="M1715.55,560.46c0,3.91-1,7-3.01,9.26-2.01,2.26-4.7,3.39-8.07,3.39s-6.1-1.13-8.1-3.39c-2-2.26-3-5.35-3-9.26s1-7,3-9.27c2-2.27,4.7-3.41,8.1-3.41s6.06,1.14,8.07,3.41c2.01,2.27,3.01,5.36,3.01,9.27ZM1711.38,560.46c0-3.11-.61-5.42-1.83-6.93-1.22-1.51-2.91-2.27-5.08-2.27s-3.9.76-5.11,2.27c-1.21,1.51-1.82,3.82-1.82,6.93s.61,5.29,1.83,6.84c1.22,1.55,2.92,2.33,5.1,2.33s3.84-.77,5.07-2.31c1.23-1.54,1.84-3.83,1.84-6.86Z"/>
      <path class="cls-6" d="M1739.6,570.94c-1.35.64-2.63,1.15-3.84,1.5s-2.5.54-3.86.54c-1.74,0-3.33-.25-4.78-.76-1.45-.51-2.69-1.28-3.72-2.31-1.05-1.03-1.86-2.33-2.43-3.91-.57-1.58-.86-3.42-.86-5.52,0-3.92,1.08-7,3.24-9.24s5.01-3.35,8.56-3.35c1.38,0,2.73.19,4.06.58,1.33.39,2.54.86,3.65,1.42v4.49h-.21c-1.23-.96-2.51-1.7-3.82-2.21s-2.59-.77-3.84-.77c-2.3,0-4.11.77-5.44,2.31-1.33,1.54-1.99,3.8-1.99,6.78s.65,5.12,1.95,6.67c1.3,1.55,3.12,2.33,5.48,2.33.82,0,1.65-.11,2.5-.32s1.61-.49,2.28-.84c.59-.3,1.14-.62,1.66-.96.52-.34.93-.63,1.23-.87h.21v4.45Z"/>
      <path class="cls-6" d="M1764.72,572.44h-4.05v-2.66c-1.36,1.07-2.67,1.9-3.92,2.47-1.25.57-2.63.86-4.13.86-2.53,0-4.49-.77-5.9-2.31-1.41-1.54-2.11-3.8-2.11-6.78v-15.58h4.05v13.66c0,1.22.06,2.26.17,3.13.12.87.36,1.61.73,2.22.39.63.89,1.09,1.51,1.38.62.29,1.51.43,2.69.43,1.05,0,2.19-.27,3.43-.82,1.24-.54,2.4-1.24,3.48-2.08v-17.92h4.05v24Z"/>
      <path class="cls-6" d="M1807.77,572.44h-4.05v-13.66c0-1.03-.05-2.03-.14-2.99-.09-.96-.29-1.73-.59-2.3-.33-.62-.8-1.08-1.42-1.4-.62-.31-1.51-.47-2.67-.47s-2.27.28-3.4.85c-1.13.57-2.27,1.29-3.4,2.16.04.33.08.71.11,1.15.03.44.04.87.04,1.3v15.36h-4.05v-13.66c0-1.06-.05-2.07-.14-3.02-.09-.95-.29-1.71-.59-2.29-.33-.62-.8-1.08-1.42-1.39-.62-.31-1.51-.46-2.67-.46s-2.21.27-3.33.82c-1.11.54-2.22,1.24-3.33,2.08v17.92h-4.05v-24h4.05v2.66c1.26-1.04,2.52-1.86,3.78-2.45,1.26-.59,2.59-.88,4.01-.88,1.64,0,3.02.34,4.17,1.03,1.14.69,1.99,1.64,2.55,2.86,1.64-1.38,3.13-2.37,4.48-2.98,1.35-.61,2.79-.91,4.33-.91,2.64,0,4.59.8,5.84,2.4,1.26,1.6,1.88,3.83,1.88,6.69v15.58Z"/>
      <path class="cls-6" d="M1835.69,560.86h-17.72c0,1.48.22,2.76.67,3.86.45,1.1,1.05,2,1.83,2.7.75.69,1.63,1.2,2.66,1.55,1.03.34,2.16.52,3.39.52,1.64,0,3.28-.33,4.94-.98,1.66-.65,2.84-1.29,3.54-1.92h.22v4.4c-1.36.57-2.76,1.05-4.18,1.44-1.42.39-2.91.58-4.48.58-3.99,0-7.1-1.08-9.34-3.23-2.24-2.16-3.36-5.22-3.36-9.18s1.07-7.04,3.22-9.35c2.15-2.31,4.97-3.46,8.47-3.46,3.24,0,5.74.95,7.5,2.84s2.64,4.58,2.64,8.06v2.19ZM1831.75,557.77c-.01-2.12-.55-3.76-1.6-4.92-1.06-1.16-2.66-1.74-4.81-1.74s-3.89.64-5.18,1.91c-1.28,1.28-2.01,2.86-2.18,4.75h13.78Z"/>
      <path class="cls-6" d="M1861.94,572.44h-4.05v-13.66c0-1.1-.07-2.14-.19-3.1s-.37-1.72-.71-2.27c-.36-.6-.88-1.05-1.55-1.34-.67-.29-1.55-.44-2.63-.44s-2.26.27-3.47.82c-1.21.54-2.36,1.24-3.47,2.08v17.92h-4.05v-24h4.05v2.66c1.26-1.04,2.57-1.86,3.92-2.45,1.35-.59,2.73-.88,4.16-.88,2.6,0,4.58.78,5.94,2.34,1.36,1.56,2.04,3.81,2.04,6.75v15.58Z"/>
      <path class="cls-6" d="M1882.21,572.23c-.76.2-1.59.37-2.49.49-.9.13-1.7.19-2.4.19-2.45,0-4.32-.66-5.6-1.98-1.28-1.32-1.92-3.43-1.92-6.34v-12.76h-2.73v-3.39h2.73v-6.9h4.05v6.9h8.35v3.39h-8.35v10.94c0,1.26.03,2.25.09,2.95.06.71.26,1.37.6,1.99.32.57.75.99,1.3,1.26.55.27,1.4.4,2.53.4.66,0,1.35-.1,2.07-.29.72-.19,1.23-.35,1.55-.48h.21v3.63Z"/>
    </g>
    <g>
      <path class="cls-6" d="M1726.61,80.52c-.57.25-1.09.48-1.56.7-.46.22-1.07.45-1.82.69-.64.2-1.33.37-2.07.51-.75.14-1.57.21-2.47.21-1.69,0-3.23-.24-4.61-.71s-2.59-1.22-3.61-2.23c-1-.99-1.79-2.25-2.35-3.77-.56-1.53-.84-3.3-.84-5.32,0-1.92.27-3.63.81-5.14.54-1.51,1.33-2.79,2.35-3.83.99-1.01,2.19-1.78,3.59-2.31,1.4-.53,2.96-.8,4.67-.8,1.25,0,2.5.15,3.75.45,1.25.3,2.63.83,4.16,1.59v3.67h-.24c-1.28-1.07-2.56-1.85-3.82-2.34-1.26-.49-2.62-.73-4.06-.73-1.18,0-2.24.19-3.19.57-.95.38-1.79.97-2.53,1.77-.72.78-1.28,1.77-1.68,2.96-.4,1.19-.6,2.57-.6,4.13s.22,3.04.67,4.22c.44,1.18,1.01,2.14,1.71,2.88.73.77,1.58,1.34,2.56,1.71.98.37,2.01.55,3.09.55,1.49,0,2.89-.25,4.2-.77,1.3-.51,2.53-1.28,3.66-2.3h.22v3.62Z"/>
      <path class="cls-6" d="M1745.66,73.49c0,2.84-.73,5.09-2.19,6.73-1.46,1.65-3.42,2.47-5.87,2.47s-4.44-.82-5.89-2.47c-1.46-1.65-2.18-3.89-2.18-6.73s.73-5.09,2.18-6.74c1.46-1.65,3.42-2.48,5.89-2.48s4.41.83,5.87,2.48c1.46,1.65,2.19,3.9,2.19,6.74ZM1742.62,73.49c0-2.26-.44-3.94-1.33-5.04-.89-1.1-2.12-1.65-3.69-1.65s-2.84.55-3.72,1.65c-.88,1.1-1.32,2.78-1.32,5.04s.44,3.85,1.33,4.98c.89,1.13,2.12,1.7,3.71,1.7s2.79-.56,3.69-1.68c.89-1.12,1.34-2.78,1.34-4.99Z"/>
      <path class="cls-6" d="M1775.74,82.21h-2.94v-9.94c0-.75-.03-1.47-.1-2.17-.07-.7-.21-1.25-.43-1.67-.24-.45-.58-.79-1.03-1.02-.45-.23-1.1-.34-1.94-.34s-1.65.21-2.47.62c-.82.41-1.65.94-2.47,1.57.03.24.06.52.08.84.02.32.03.63.03.95v11.17h-2.94v-9.94c0-.77-.03-1.5-.1-2.2-.07-.69-.21-1.25-.43-1.66-.24-.45-.58-.78-1.03-1.01-.45-.22-1.1-.34-1.94-.34s-1.61.2-2.42.59c-.81.4-1.62.9-2.42,1.52v13.03h-2.94v-17.45h2.94v1.94c.92-.76,1.83-1.35,2.75-1.78.91-.43,1.89-.64,2.92-.64,1.19,0,2.2.25,3.03.75.83.5,1.45,1.19,1.86,2.08,1.19-1,2.28-1.72,3.26-2.16.98-.44,2.03-.66,3.15-.66,1.92,0,3.34.58,4.25,1.74.91,1.16,1.37,2.78,1.37,4.87v11.33Z"/>
      <path class="cls-6" d="M1796.79,73.27c0,1.42-.2,2.71-.61,3.88s-.98,2.16-1.72,2.98c-.69.77-1.5,1.37-2.43,1.79-.93.42-1.92.63-2.97.63-.91,0-1.73-.1-2.47-.3-.74-.2-1.48-.5-2.25-.92v7.31h-2.94v-23.89h2.94v1.83c.78-.66,1.66-1.21,2.64-1.65.98-.44,2.02-.66,3.12-.66,2.11,0,3.75.79,4.92,2.38,1.17,1.59,1.76,3.79,1.76,6.62ZM1793.76,73.35c0-2.1-.36-3.68-1.08-4.72-.72-1.04-1.83-1.56-3.32-1.56-.85,0-1.7.18-2.55.55-.86.36-1.68.84-2.46,1.44v9.89c.83.38,1.55.63,2.15.77.6.14,1.28.2,2.04.2,1.64,0,2.92-.55,3.84-1.66.92-1.1,1.38-2.74,1.38-4.91Z"/>
      <path class="cls-6" d="M1810.46,82.05c-.55.15-1.16.27-1.81.36-.65.09-1.23.14-1.75.14-1.79,0-3.14-.48-4.07-1.44-.93-.96-1.39-2.49-1.39-4.61v-9.28h-1.99v-2.47h1.99v-5.02h2.94v5.02h6.07v2.47h-6.07v7.95c0,.92.02,1.63.06,2.15s.19,1,.44,1.45c.23.42.54.72.95.91.4.19,1.01.29,1.84.29.48,0,.98-.07,1.5-.21.52-.14.9-.26,1.13-.35h.16v2.64Z"/>
      <path class="cls-6" d="M1828.65,73.79h-12.88c0,1.07.16,2.01.49,2.8.32.8.77,1.45,1.33,1.96.54.5,1.19.88,1.93,1.12s1.57.38,2.47.38c1.19,0,2.39-.24,3.59-.71,1.21-.47,2.06-.94,2.58-1.4h.16v3.2c-.99.42-2,.77-3.04,1.05s-2.12.42-3.26.42c-2.9,0-5.17-.78-6.79-2.35-1.63-1.57-2.44-3.79-2.44-6.68s.78-5.12,2.34-6.8c1.56-1.68,3.61-2.52,6.16-2.52,2.36,0,4.18.69,5.46,2.06,1.28,1.38,1.92,3.33,1.92,5.86v1.59ZM1825.79,71.54c-.01-1.54-.4-2.73-1.17-3.58-.77-.84-1.93-1.27-3.5-1.27s-2.83.46-3.76,1.39c-.93.93-1.46,2.08-1.59,3.45h10.02Z"/>
      <path class="cls-6" d="M1724.85,119.52c-.98.47-1.91.83-2.79,1.09s-1.82.39-2.81.39c-1.26,0-2.42-.19-3.48-.55-1.05-.37-1.96-.93-2.71-1.68-.76-.75-1.35-1.7-1.77-2.84-.42-1.15-.63-2.48-.63-4.02,0-2.85.79-5.09,2.36-6.72s3.65-2.44,6.22-2.44c1,0,1.99.14,2.95.42.96.28,1.85.62,2.65,1.03v3.27h-.16c-.9-.7-1.82-1.23-2.78-1.61s-1.89-.56-2.79-.56c-1.67,0-2.99.56-3.95,1.68-.96,1.12-1.45,2.76-1.45,4.93s.47,3.72,1.42,4.85c.95,1.13,2.27,1.7,3.98,1.7.6,0,1.2-.08,1.82-.23s1.17-.36,1.66-.61c.43-.22.83-.45,1.21-.7.38-.24.67-.46.89-.63h.16v3.23Z"/>
      <path class="cls-6" d="M1743.53,111.89c0,2.84-.73,5.09-2.19,6.73-1.46,1.65-3.42,2.47-5.87,2.47s-4.44-.82-5.89-2.47c-1.46-1.65-2.18-3.89-2.18-6.73s.73-5.09,2.18-6.74c1.46-1.65,3.42-2.48,5.89-2.48s4.41.83,5.87,2.48c1.46,1.65,2.19,3.9,2.19,6.74ZM1740.5,111.89c0-2.26-.44-3.94-1.33-5.04-.89-1.1-2.12-1.65-3.69-1.65s-2.84.55-3.72,1.65c-.88,1.1-1.32,2.78-1.32,5.04s.44,3.85,1.33,4.98c.89,1.13,2.12,1.7,3.71,1.7s2.79-.56,3.69-1.68c.89-1.12,1.34-2.78,1.34-4.99Z"/>
      <path class="cls-6" d="M1773.61,120.61h-2.94v-9.94c0-.75-.03-1.47-.1-2.17-.07-.7-.21-1.25-.43-1.67-.24-.45-.58-.79-1.03-1.02-.45-.23-1.1-.34-1.94-.34s-1.65.21-2.47.62c-.82.41-1.65.94-2.47,1.57.03.24.06.52.08.84.02.32.03.63.03.95v11.17h-2.94v-9.94c0-.77-.03-1.5-.1-2.2-.07-.69-.21-1.25-.43-1.66-.24-.45-.58-.78-1.03-1.01-.45-.22-1.1-.34-1.94-.34s-1.61.2-2.42.59c-.81.4-1.62.9-2.42,1.52v13.03h-2.94v-17.45h2.94v1.94c.92-.76,1.83-1.35,2.75-1.78.91-.43,1.89-.64,2.92-.64,1.19,0,2.2.25,3.03.75.83.5,1.45,1.19,1.86,2.08,1.19-1,2.28-1.72,3.26-2.16.98-.44,2.03-.66,3.15-.66,1.92,0,3.34.58,4.25,1.74.91,1.16,1.37,2.78,1.37,4.87v11.33Z"/>
      <path class="cls-6" d="M1804.79,120.61h-2.94v-9.94c0-.75-.03-1.47-.1-2.17-.07-.7-.21-1.25-.43-1.67-.24-.45-.58-.79-1.03-1.02-.45-.23-1.1-.34-1.94-.34s-1.65.21-2.47.62c-.82.41-1.65.94-2.47,1.57.03.24.06.52.08.84.02.32.03.63.03.95v11.17h-2.94v-9.94c0-.77-.03-1.5-.1-2.2-.07-.69-.21-1.25-.43-1.66-.24-.45-.58-.78-1.03-1.01-.45-.22-1.1-.34-1.94-.34s-1.61.2-2.42.59c-.81.4-1.62.9-2.42,1.52v13.03h-2.94v-17.45h2.94v1.94c.92-.76,1.83-1.35,2.75-1.78.91-.43,1.89-.64,2.92-.64,1.19,0,2.2.25,3.03.75.83.5,1.45,1.19,1.86,2.08,1.19-1,2.28-1.72,3.26-2.16.98-.44,2.03-.66,3.15-.66,1.92,0,3.34.58,4.25,1.74.91,1.16,1.37,2.78,1.37,4.87v11.33Z"/>
      <path class="cls-6" d="M1825.1,112.19h-12.88c0,1.07.16,2.01.49,2.8.32.8.77,1.45,1.33,1.96.54.5,1.19.88,1.93,1.12s1.57.38,2.47.38c1.19,0,2.39-.24,3.59-.71,1.21-.47,2.06-.94,2.58-1.4h.16v3.2c-.99.42-2,.77-3.04,1.05s-2.12.42-3.26.42c-2.9,0-5.17-.78-6.79-2.35-1.63-1.57-2.44-3.79-2.44-6.68s.78-5.12,2.34-6.8c1.56-1.68,3.61-2.52,6.16-2.52,2.36,0,4.18.69,5.46,2.06,1.28,1.38,1.92,3.33,1.92,5.86v1.59ZM1822.23,109.94c-.01-1.54-.4-2.73-1.17-3.58-.77-.84-1.93-1.27-3.5-1.27s-2.83.46-3.76,1.39c-.93.93-1.46,2.08-1.59,3.45h10.02Z"/>
      <path class="cls-6" d="M1710.61,159.01h-2.94v-1.94c-.99.78-1.94,1.38-2.85,1.8-.91.42-1.91.62-3.01.62-1.84,0-3.27-.56-4.29-1.68-1.02-1.12-1.53-2.76-1.53-4.93v-11.33h2.94v9.94c0,.89.04,1.64.12,2.27.08.63.26,1.17.53,1.62.28.46.65.79,1.1,1,.45.21,1.1.31,1.96.31.76,0,1.59-.2,2.5-.59.9-.4,1.75-.9,2.53-1.52v-13.03h2.94v17.45Z"/>
      <path class="cls-6" d="M1731.02,159.01h-2.94v-9.94c0-.8-.05-1.55-.14-2.26s-.27-1.25-.52-1.65c-.26-.44-.64-.76-1.13-.98-.49-.21-1.13-.32-1.91-.32s-1.64.2-2.52.59c-.88.4-1.72.9-2.52,1.52v13.03h-2.94v-17.45h2.94v1.94c.92-.76,1.87-1.35,2.85-1.78.98-.43,1.99-.64,3.02-.64,1.89,0,3.33.57,4.32,1.7.99,1.14,1.49,2.77,1.49,4.91v11.33Z"/>
      <path class="cls-6" d="M1751.33,150.59h-12.88c0,1.07.16,2.01.49,2.8.32.8.77,1.45,1.33,1.96.54.5,1.19.88,1.93,1.12s1.57.38,2.47.38c1.19,0,2.39-.24,3.59-.71,1.21-.47,2.06-.94,2.58-1.4h.16v3.2c-.99.42-2,.77-3.04,1.05s-2.12.42-3.26.42c-2.9,0-5.17-.78-6.79-2.35-1.63-1.57-2.44-3.79-2.44-6.68s.78-5.12,2.34-6.8c1.56-1.68,3.61-2.52,6.16-2.52,2.36,0,4.18.69,5.46,2.06,1.28,1.38,1.92,3.33,1.92,5.86v1.59ZM1748.46,148.34c-.01-1.54-.4-2.73-1.17-3.58-.77-.84-1.93-1.27-3.5-1.27s-2.83.46-3.76,1.39c-.93.93-1.46,2.08-1.59,3.45h10.02Z"/>
      <path class="cls-6" d="M1782.45,150.07c0,1.42-.2,2.71-.61,3.88s-.98,2.16-1.72,2.98c-.69.77-1.5,1.37-2.43,1.79-.93.42-1.92.63-2.97.63-.91,0-1.73-.1-2.47-.3-.74-.2-1.48-.5-2.25-.92v7.31h-2.94v-23.89h2.94v1.83c.78-.66,1.66-1.21,2.64-1.65.98-.44,2.02-.66,3.12-.66,2.11,0,3.75.79,4.92,2.38,1.17,1.59,1.76,3.79,1.76,6.62ZM1779.42,150.15c0-2.1-.36-3.68-1.08-4.72-.72-1.04-1.83-1.56-3.32-1.56-.85,0-1.7.18-2.55.55-.86.36-1.68.84-2.46,1.44v9.89c.83.38,1.55.63,2.15.77.6.14,1.28.2,2.04.2,1.64,0,2.92-.55,3.84-1.66.92-1.1,1.38-2.74,1.38-4.91Z"/>
      <path class="cls-6" d="M1800.63,159.01h-2.93v-1.86c-.26.18-.61.42-1.06.74-.44.32-.87.57-1.29.76-.49.24-1.05.44-1.69.6-.64.16-1.38.24-2.24.24-1.58,0-2.91-.52-4.01-1.56-1.1-1.04-1.64-2.37-1.64-3.98,0-1.32.28-2.39.85-3.21.57-.82,1.38-1.46,2.43-1.93,1.06-.47,2.34-.79,3.84-.95,1.49-.17,3.09-.29,4.81-.38v-.45c0-.67-.12-1.22-.35-1.66-.24-.44-.57-.78-1.01-1.03-.42-.24-.92-.4-1.5-.48-.58-.08-1.2-.12-1.83-.12-.77,0-1.63.1-2.58.3-.95.2-1.93.5-2.94.88h-.16v-2.98c.57-.16,1.4-.33,2.49-.52,1.09-.19,2.16-.28,3.21-.28,1.23,0,2.3.1,3.22.3.91.2,1.7.55,2.37,1.04.66.48,1.16,1.1,1.5,1.86.34.76.52,1.7.52,2.83v11.84ZM1797.7,154.71v-4.86c-.9.05-1.95.13-3.17.23-1.22.1-2.18.26-2.89.45-.85.24-1.53.61-2.05,1.12-.52.51-.78,1.2-.78,2.09,0,1,.3,1.75.91,2.26.61.51,1.53.76,2.77.76,1.03,0,1.98-.2,2.83-.6.86-.4,1.65-.88,2.38-1.45Z"/>
      <path class="cls-6" d="M1820.48,157.02c0,2.96-.67,5.13-2.02,6.52-1.35,1.39-3.42,2.08-6.21,2.08-.93,0-1.83-.07-2.72-.2-.88-.13-1.75-.32-2.61-.55v-3h.16c.48.19,1.24.42,2.29.7,1.04.28,2.09.41,3.13.41s1.83-.12,2.49-.36c.66-.24,1.17-.57,1.54-1,.37-.41.63-.9.78-1.47.16-.57.24-1.21.24-1.92v-1.59c-.89.71-1.74,1.24-2.54,1.59-.81.35-1.84.52-3.09.52-2.09,0-3.74-.75-4.97-2.26-1.23-1.5-1.84-3.63-1.84-6.37,0-1.5.21-2.79.63-3.88.42-1.09,1-2.03,1.73-2.82.68-.74,1.5-1.31,2.47-1.73.97-.41,1.94-.62,2.9-.62,1.01,0,1.86.1,2.54.3s1.41.51,2.17.93l.19-.75h2.76v15.47ZM1817.54,154.21v-9.52c-.78-.35-1.51-.61-2.18-.76-.67-.15-1.34-.23-2.01-.23-1.62,0-2.89.54-3.82,1.62-.93,1.08-1.39,2.66-1.39,4.72s.34,3.44,1.03,4.45c.69,1.01,1.83,1.52,3.43,1.52.86,0,1.71-.16,2.58-.49s1.65-.77,2.37-1.32Z"/>
      <path class="cls-6" d="M1840.91,150.59h-12.88c0,1.07.16,2.01.49,2.8.32.8.77,1.45,1.33,1.96.54.5,1.19.88,1.93,1.12s1.57.38,2.47.38c1.19,0,2.39-.24,3.59-.71,1.21-.47,2.06-.94,2.58-1.4h.16v3.2c-.99.42-2,.77-3.04,1.05s-2.12.42-3.26.42c-2.9,0-5.17-.78-6.79-2.35-1.63-1.57-2.44-3.79-2.44-6.68s.78-5.12,2.34-6.8c1.56-1.68,3.61-2.52,6.16-2.52,2.36,0,4.18.69,5.46,2.06,1.28,1.38,1.92,3.33,1.92,5.86v1.59ZM1838.05,148.34c-.01-1.54-.4-2.73-1.17-3.58-.77-.84-1.93-1.27-3.5-1.27s-2.83.46-3.76,1.39c-.93.93-1.46,2.08-1.59,3.45h10.02Z"/>
      <path class="cls-6" d="M1664.42,192.38c0,1.59-.66,2.9-1.98,3.92-1.32,1.02-3.12,1.53-5.41,1.53-1.29,0-2.48-.15-3.56-.46s-1.99-.64-2.72-1.01v-3.3h.16c.93.7,1.96,1.25,3.1,1.66,1.14.41,2.23.62,3.27.62,1.29,0,2.31-.21,3.04-.62.73-.42,1.1-1.07,1.1-1.97,0-.69-.2-1.21-.59-1.56-.4-.35-1.16-.66-2.29-.91-.42-.09-.96-.2-1.64-.33s-1.29-.26-1.84-.41c-1.53-.41-2.62-1-3.26-1.79-.64-.79-.96-1.75-.96-2.9,0-.72.15-1.4.45-2.03.3-.64.75-1.2,1.35-1.7.58-.49,1.33-.88,2.23-1.16.9-.29,1.91-.43,3.03-.43,1.04,0,2.1.13,3.17.38,1.07.26,1.96.57,2.67.93v3.14h-.16c-.75-.55-1.66-1.02-2.74-1.4-1.08-.38-2.13-.57-3.16-.57s-1.98.21-2.72.62c-.74.41-1.11,1.02-1.11,1.84,0,.72.22,1.26.67,1.62.44.36,1.15.66,2.13.89.54.12,1.15.25,1.82.38s1.23.24,1.68.34c1.37.31,2.42.85,3.16,1.61.74.77,1.11,1.79,1.11,3.06Z"/>
      <path class="cls-6" d="M1683.13,197.41h-2.94v-1.94c-.99.78-1.94,1.38-2.85,1.8-.91.42-1.91.62-3.01.62-1.84,0-3.27-.56-4.29-1.68-1.02-1.12-1.53-2.76-1.53-4.93v-11.33h2.94v9.94c0,.89.04,1.64.12,2.27.08.63.26,1.17.53,1.62.28.46.65.79,1.1,1,.45.21,1.1.31,1.96.31.76,0,1.59-.2,2.5-.59.9-.4,1.75-.9,2.53-1.52v-13.03h2.94v17.45Z"/>
      <path class="cls-6" d="M1704.31,188.47c0,1.42-.2,2.71-.61,3.88s-.98,2.16-1.72,2.98c-.69.77-1.5,1.37-2.43,1.79-.93.42-1.92.63-2.97.63-.91,0-1.73-.1-2.47-.3-.74-.2-1.48-.5-2.25-.92v7.31h-2.94v-23.89h2.94v1.83c.78-.66,1.66-1.21,2.64-1.65.98-.44,2.02-.66,3.12-.66,2.11,0,3.75.79,4.92,2.38,1.17,1.59,1.76,3.79,1.76,6.62ZM1701.28,188.55c0-2.1-.36-3.68-1.08-4.72-.72-1.04-1.83-1.56-3.32-1.56-.85,0-1.7.18-2.55.55-.86.36-1.68.84-2.46,1.44v9.89c.83.38,1.55.63,2.15.77.6.14,1.28.2,2.04.2,1.64,0,2.92-.55,3.84-1.66.92-1.1,1.38-2.74,1.38-4.91Z"/>
      <path class="cls-6" d="M1724.29,188.47c0,1.42-.2,2.71-.61,3.88s-.98,2.16-1.72,2.98c-.69.77-1.5,1.37-2.43,1.79-.93.42-1.92.63-2.97.63-.91,0-1.73-.1-2.47-.3-.74-.2-1.48-.5-2.25-.92v7.31h-2.94v-23.89h2.94v1.83c.78-.66,1.66-1.21,2.64-1.65.98-.44,2.02-.66,3.12-.66,2.11,0,3.75.79,4.92,2.38,1.17,1.59,1.76,3.79,1.76,6.62ZM1721.25,188.55c0-2.1-.36-3.68-1.08-4.72-.72-1.04-1.83-1.56-3.32-1.56-.85,0-1.7.18-2.55.55-.86.36-1.68.84-2.46,1.44v9.89c.83.38,1.55.63,2.15.77.6.14,1.28.2,2.04.2,1.64,0,2.92-.55,3.84-1.66.92-1.1,1.38-2.74,1.38-4.91Z"/>
      <path class="cls-6" d="M1731.85,197.41h-2.94v-24.31h2.94v24.31Z"/>
      <path class="cls-6" d="M1752.31,188.99h-12.88c0,1.07.16,2.01.49,2.8.32.8.77,1.45,1.33,1.96.54.5,1.19.88,1.93,1.12s1.57.38,2.47.38c1.19,0,2.39-.24,3.59-.71,1.21-.47,2.06-.94,2.58-1.4h.16v3.2c-.99.42-2,.77-3.04,1.05s-2.12.42-3.26.42c-2.9,0-5.17-.78-6.79-2.35-1.63-1.57-2.44-3.79-2.44-6.68s.78-5.12,2.34-6.8c1.56-1.68,3.61-2.52,6.16-2.52,2.36,0,4.18.69,5.46,2.06,1.28,1.38,1.92,3.33,1.92,5.86v1.59ZM1749.45,186.74c-.01-1.54-.4-2.73-1.17-3.58-.77-.84-1.93-1.27-3.5-1.27s-2.83.46-3.76,1.39c-.93.93-1.46,2.08-1.59,3.45h10.02ZM1749.81,171.22l-4.27,5.84h-2.33l2.8-5.84h3.8Z"/>
      <path class="cls-6" d="M1782.29,197.41h-2.94v-9.94c0-.75-.03-1.47-.1-2.17-.07-.7-.21-1.25-.43-1.67-.24-.45-.58-.79-1.03-1.02-.45-.23-1.1-.34-1.94-.34s-1.65.21-2.47.62c-.82.41-1.65.94-2.47,1.57.03.24.06.52.08.84.02.32.03.63.03.95v11.17h-2.94v-9.94c0-.77-.03-1.5-.1-2.2-.07-.69-.21-1.25-.43-1.66-.24-.45-.58-.78-1.03-1.01-.45-.22-1.1-.34-1.94-.34s-1.61.2-2.42.59c-.81.4-1.62.9-2.42,1.52v13.03h-2.94v-17.45h2.94v1.94c.92-.76,1.83-1.35,2.75-1.78.91-.43,1.89-.64,2.92-.64,1.19,0,2.2.25,3.03.75.83.5,1.45,1.19,1.86,2.08,1.19-1,2.28-1.72,3.26-2.16.98-.44,2.03-.66,3.15-.66,1.92,0,3.34.58,4.25,1.74.91,1.16,1.37,2.78,1.37,4.87v11.33Z"/>
      <path class="cls-6" d="M1802.6,188.99h-12.88c0,1.07.16,2.01.49,2.8.32.8.77,1.45,1.33,1.96.54.5,1.19.88,1.93,1.12s1.57.38,2.47.38c1.19,0,2.39-.24,3.59-.71,1.21-.47,2.06-.94,2.58-1.4h.16v3.2c-.99.42-2,.77-3.04,1.05s-2.12.42-3.26.42c-2.9,0-5.17-.78-6.79-2.35-1.63-1.57-2.44-3.79-2.44-6.68s.78-5.12,2.34-6.8c1.56-1.68,3.61-2.52,6.16-2.52,2.36,0,4.18.69,5.46,2.06,1.28,1.38,1.92,3.33,1.92,5.86v1.59ZM1799.74,186.74c-.01-1.54-.4-2.73-1.17-3.58-.77-.84-1.93-1.27-3.5-1.27s-2.83.46-3.76,1.39c-.93.93-1.46,2.08-1.59,3.45h10.02Z"/>
      <path class="cls-6" d="M1821.69,197.41h-2.94v-9.94c0-.8-.05-1.55-.14-2.26s-.27-1.25-.52-1.65c-.26-.44-.64-.76-1.13-.98-.49-.21-1.13-.32-1.91-.32s-1.64.2-2.52.59c-.88.4-1.72.9-2.52,1.52v13.03h-2.94v-17.45h2.94v1.94c.92-.76,1.87-1.35,2.85-1.78.98-.43,1.99-.64,3.02-.64,1.89,0,3.33.57,4.32,1.7.99,1.14,1.49,2.77,1.49,4.91v11.33Z"/>
      <path class="cls-6" d="M1836.43,197.25c-.55.15-1.16.27-1.81.36-.65.09-1.23.14-1.75.14-1.79,0-3.14-.48-4.07-1.44-.93-.96-1.39-2.49-1.39-4.61v-9.28h-1.99v-2.47h1.99v-5.02h2.94v5.02h6.07v2.47h-6.07v7.95c0,.92.02,1.63.06,2.15s.19,1,.44,1.45c.23.42.54.72.95.91.4.19,1.01.29,1.84.29.48,0,.98-.07,1.5-.21.52-.14.9-.26,1.13-.35h.16v2.64Z"/>
      <path class="cls-6" d="M1853.58,197.41h-2.93v-1.86c-.26.18-.61.42-1.06.74-.44.32-.87.57-1.29.76-.49.24-1.05.44-1.69.6-.64.16-1.38.24-2.24.24-1.58,0-2.91-.52-4.01-1.56-1.1-1.04-1.64-2.37-1.64-3.98,0-1.32.28-2.39.85-3.21.57-.82,1.38-1.46,2.43-1.93,1.06-.47,2.34-.79,3.84-.95,1.49-.17,3.09-.29,4.81-.38v-.45c0-.67-.12-1.22-.35-1.66-.24-.44-.57-.78-1.01-1.03-.42-.24-.92-.4-1.5-.48-.58-.08-1.2-.12-1.83-.12-.77,0-1.63.1-2.58.3-.95.2-1.93.5-2.94.88h-.16v-2.98c.57-.16,1.4-.33,2.49-.52,1.09-.19,2.16-.28,3.21-.28,1.23,0,2.3.1,3.22.3.91.2,1.7.55,2.37,1.04.66.48,1.16,1.1,1.5,1.86.34.76.52,1.7.52,2.83v11.84ZM1850.65,193.11v-4.86c-.9.05-1.95.13-3.17.23-1.22.1-2.18.26-2.89.45-.85.24-1.53.61-2.05,1.12-.52.51-.78,1.2-.78,2.09,0,1,.3,1.75.91,2.26.61.51,1.53.76,2.77.76,1.03,0,1.98-.2,2.83-.6.86-.4,1.65-.88,2.38-1.45Z"/>
      <path class="cls-6" d="M1862.41,177.03h-3.32v-3.05h3.32v3.05ZM1862.22,197.41h-2.94v-17.45h2.94v17.45Z"/>
      <path class="cls-6" d="M1878.96,183.16h-.16c-.44-.1-.86-.18-1.28-.23s-.9-.07-1.46-.07c-.91,0-1.79.2-2.63.6-.85.4-1.66.92-2.44,1.55v12.39h-2.94v-17.45h2.94v2.58c1.17-.94,2.2-1.6,3.09-1.99s1.8-.59,2.73-.59c.51,0,.88.01,1.11.04.23.03.57.08,1.03.15v3.02Z"/>
      <path class="cls-6" d="M1896.36,188.99h-12.88c0,1.07.16,2.01.49,2.8.32.8.77,1.45,1.33,1.96.54.5,1.19.88,1.93,1.12s1.57.38,2.47.38c1.19,0,2.39-.24,3.59-.71,1.21-.47,2.06-.94,2.58-1.4h.16v3.2c-.99.42-2,.77-3.04,1.05s-2.12.42-3.26.42c-2.9,0-5.17-.78-6.79-2.35-1.63-1.57-2.44-3.79-2.44-6.68s.78-5.12,2.34-6.8c1.56-1.68,3.61-2.52,6.16-2.52,2.36,0,4.18.69,5.46,2.06,1.28,1.38,1.92,3.33,1.92,5.86v1.59ZM1893.5,186.74c-.01-1.54-.4-2.73-1.17-3.58-.77-.84-1.93-1.27-3.5-1.27s-2.83.46-3.76,1.39c-.93.93-1.46,2.08-1.59,3.45h10.02Z"/>
    </g>
    <g>
      <path class="cls-1" d="M724.99,1012.47c-1.1-.2-2.2-.3-3.4-.3-1.1,0-2.3.1-3.4.3-1.1.2-2.2.5-3.3.9-1.1.4-2.1.9-3.1,1.4-1,.6-1.9,1.2-2.8,1.9-.9.7-1.7,1.5-2.4,2.4-.7.9-1.4,1.8-1.9,2.8-.6,1-1,2-1.4,3.1-.4,1-.7,2.1-.9,3.3-.1.4-.1.9-.2,1.3-.1.7-.1,1.4-.1,2.1,0,1.1.1,2.3.3,3.4.2,1,.4,1.9.7,2.8,0,.1.1.3.1.4.4,1.1.9,2.1,1.4,3.1.6,1,1.2,1.9,1.9,2.8,0,.1.1.1.1.2.7.8,1.4,1.6,2.3,2.2.7.6,1.4,1.1,2.1,1.5.2.1.4.3.7.4,1,.6,2,1,3.1,1.4,1,.4,2.1.7,3.3.9,1.1.2,2.2.3,3.4.3,1.1,0,2.3-.1,3.4-.3l2.1,11.6c-1.8.3-3.6.5-5.4.5s-3.7-.2-5.4-.5c-1.8-.3-3.5-.8-5.2-1.4h-.1c-1.7-.6-3.4-1.4-5-2.3-1.6-.9-3-1.9-4.4-3.1h0c-1.4-1.2-2.7-2.5-3.9-3.9-1.2-1.4-2.2-2.9-3.1-4.5-.9-1.6-1.7-3.2-2.3-5-.6-1.7-1.1-3.5-1.4-5.3-.1-.7-.2-1.4-.3-2.1-.1-1.1-.2-2.2-.2-3.4,0-1.9.2-3.7.5-5.4.2-1,.4-2,.7-3,.2-.8.5-1.5.7-2.3.6-1.7,1.4-3.4,2.3-5,.9-1.6,2-3.1,3.1-4.5,1.2-1.4,2.5-2.7,3.9-3.9,1.4-1.2,2.9-2.2,4.5-3.1s3.2-1.7,5-2.3c1.7-.6,3.5-1.1,5.3-1.4,1.8-.3,3.6-.5,5.4-.5s3.7.2,5.4.5l-2.1,12Z"/>
      <path class="cls-3" d="M756.29,1061.47l-10,3.3-3.3,7.3c-4.2-1.7-7.7-5-9.8-9-.2-.3-.3-.7-.5-1l-.4-1-.6-1.7c-.5-1.7-.8-3.5-.7-5.3.1-4.5,1.5-6.3,3-7.7.8-.8,1.6-1.5,2.3-2.3l.1-.1c.7-.9,1.4-1.8,1.9-2.8.6-1,1-2,1.4-3.1,0-.1.1-.2.1-.4.3-.9.6-1.9.7-2.9.2-1.1.3-2.2.3-3.4,0-.7,0-1.4-.1-2,0-.5-.1-.9-.2-1.4-.2-1.1-.5-2.2-.9-3.3s-.9-2.1-1.4-3.1c-.6-1-1.2-1.9-1.9-2.8-.7-.9-1.5-1.7-2.4-2.4-.9-.7-1.8-1.4-2.8-1.9-1-.6-2-1-3.1-1.4l4.1-11.3c1.7.6,3.4,1.4,5,2.3s3.1,2,4.5,3.1c1.4,1.2,2.7,2.5,3.9,3.9s2.2,2.9,3.1,4.5c.9,1.6,1.7,3.2,2.3,5,.3.7.5,1.5.7,2.3.3,1,.5,2,.7,3,.3,1.8.5,3.6.5,5.4,0,1.1-.1,2.2-.2,3.3-.1.7-.2,1.4-.3,2.1-.3,1.8-.8,3.6-1.4,5.3s-1.4,3.4-2.3,5c-.9,1.6-2,3.1-3.1,4.5-.8.9-1.6,1.8-2.5,2.6h0c-.8.7-.7,1.9.1,2.6q.1.1.2.2c3.3,2.7,7.6,4.4,12.3,4.4.3.2.5.2.7.2Z"/>
      <path class="cls-4" d="M710.09,1063.07c-2.1,4-5.6,7.3-9.9,9l-3.3-7.3-10-3.4h.7c4.6,0,8.9-1.6,12.2-4.3.1,0,.1.1.2.1,1.5,1.3,3.1,2.4,4.8,3.4s3.4,1.8,5.3,2.5Z"/>
    </g>
    <g>
      <path class="cls-5" d="M786.79,1011.77c-4.1,0-7.3,1.5-9.5,4.6-2.2,3.1-3.4,7.4-3.4,12.9,0,11.4,4.3,17.2,12.9,17.2,3.6,0,8-.9,13.1-2.7v9.1c-4.2,1.8-8.9,2.6-14.1,2.6-7.5,0-13.2-2.3-17.1-6.8-4-4.5-5.9-11-5.9-19.5,0-5.3,1-10,2.9-14s4.7-7.1,8.4-9.2c3.6-2.1,7.9-3.2,12.8-3.2s10,1.2,15,3.6l-3.5,8.8c-1.9-.9-3.8-1.7-5.8-2.4-2-.6-3.9-1-5.8-1Z"/>
      <path class="cls-5" d="M833.09,1055.47c-6.3,0-11.3-1.7-14.8-5.2-3.6-3.5-5.3-8.4-5.3-14.8s1.6-11.7,4.9-15.2c3.3-3.6,7.8-5.4,13.6-5.4,5.5,0,9.9,1.6,12.9,4.7s4.6,7.5,4.6,13.1v5.2h-25.3c.1,3,1,5.4,2.7,7.1,1.7,1.7,4,2.6,7.1,2.6,2.4,0,4.6-.2,6.7-.7,2.1-.5,4.3-1.3,6.6-2.4v8.3c-1.9.9-3.9,1.6-6,2.1-2,.4-4.6.6-7.7.6ZM831.59,1022.47c-2.3,0-4,.7-5.3,2.2-1.3,1.4-2,3.5-2.2,6.1h15c0-2.6-.7-4.7-2.1-6.1-1.3-1.5-3.1-2.2-5.4-2.2Z"/>
      <path class="cls-5" d="M885.09,1014.87c1.4,0,2.7.1,3.6.3l-.8,10c-.9-.2-1.9-.4-3.2-.4-3.4,0-6.1.9-8,2.6-1.9,1.8-2.9,4.2-2.9,7.4v20h-10.7v-39.2h8.1l1.6,6.6h.5c1.2-2.2,2.9-4,4.9-5.3,2.2-1.4,4.4-2,6.9-2Z"/>
      <path class="cls-5" d="M917.69,1046.97c1.9,0,4.1-.4,6.7-1.2v8c-2.7,1.2-5.9,1.8-9.8,1.8-4.3,0-7.4-1.1-9.4-3.2-2-2.2-2.9-5.4-2.9-9.7v-19.1h-5.1v-4.5l5.9-3.6,3.1-8.3h6.8v8.4h11v8h-11v18.9c0,1.5.4,2.6,1.3,3.4.9.7,2,1.1,3.4,1.1Z"/>
      <path class="cls-5" d="M948.49,1054.77h-10.7v-54.6h10.7v54.6Z"/>
      <path class="cls-5" d="M964.59,1005.37c0-3.5,1.9-5.2,5.8-5.2s5.8,1.7,5.8,5.2c0,1.7-.5,3-1.5,3.9s-2.4,1.4-4.4,1.4c-3.7,0-5.7-1.7-5.7-5.3ZM975.79,1054.77h-10.7v-39.2h10.7v39.2Z"/>
      <path class="cls-5" d="M1028.59,1054.77h-10.7v-22.9c0-2.8-.5-5-1.5-6.4s-2.6-2.1-4.8-2.1c-3,0-5.2,1-6.5,3s-2,5.3-2,9.9v18.5h-10.7v-39.2h8.2l1.4,5h.6c1.2-1.9,2.8-3.3,4.9-4.3s4.5-1.5,7.1-1.5c4.6,0,8,1.2,10.4,3.7,2.4,2.5,3.5,6,3.5,10.7v25.6h.1Z"/>
      <path class="cls-5" d="M1079.29,1054.87c0,5.6-1.6,9.9-4.9,12.8s-8.2,4.4-14.7,4.4c-5.7,0-10.6-.8-14.7-2.3v-8.6c4.7,2,9.8,3,15.3,3s8.2-3,8.2-8.9v-.8l.3-4.8h-.3c-2.5,3.9-6.2,5.8-11.1,5.8s-8.3-1.8-10.9-5.4c-2.6-3.6-3.9-8.6-3.9-14.8s1.3-11.4,4-15c2.7-3.6,6.4-5.4,11.1-5.4s8.6,1.9,11.4,5.8h.3l.9-5h9.1v39.2h-.1ZM1061.29,1047.07c2.9,0,4.9-.8,6.2-2.5,1.2-1.6,1.9-4.3,1.9-8v-1.3c0-4.2-.6-7.2-1.9-9-1.3-1.8-3.4-2.8-6.3-2.8-5,0-7.5,4-7.5,11.9,0,3.9.6,6.9,1.9,8.8,1.1,2,3,2.9,5.7,2.9Z"/>
    </g>
    <text class="cls-19" transform="translate(1664.8 1045.61)"><tspan x="0" y="0">Autres</tspan></text>
  </g>
  <g id="Dimensions">
    <text class="cls-17" transform="translate(56.09 730.45) rotate(-90)"><tspan x="0" y="0">Nombre de mots</tspan></text>
    <text class="cls-18" transform="translate(336.61 942.7)"><tspan x="0" y="0">ID</tspan></text>
    <g>
      <path class="cls-6" d="M647.14,719.32c-.79.34-1.5.67-2.14.97-.64.3-1.47.62-2.51.95-.88.27-1.83.5-2.85.7s-2.16.29-3.39.29c-2.33,0-4.44-.33-6.34-.98-1.9-.65-3.56-1.67-4.96-3.06-1.38-1.36-2.45-3.09-3.23-5.19-.77-2.1-1.16-4.54-1.16-7.32,0-2.63.37-4.99,1.12-7.07.75-2.08,1.82-3.83,3.23-5.26,1.36-1.39,3.01-2.45,4.94-3.18,1.93-.73,4.07-1.1,6.43-1.1,1.72,0,3.44.21,5.16.62,1.71.42,3.62,1.15,5.72,2.19v5.05h-.32c-1.77-1.47-3.52-2.55-5.25-3.22-1.74-.67-3.6-1.01-5.58-1.01-1.62,0-3.08.26-4.38.78-1.3.52-2.46,1.34-3.48,2.44-.99,1.07-1.76,2.43-2.31,4.07-.55,1.64-.83,3.53-.83,5.68s.3,4.18.92,5.8c.61,1.62,1.4,2.94,2.36,3.95,1,1.06,2.18,1.84,3.52,2.35,1.34.51,2.76.76,4.25.76,2.05,0,3.98-.35,5.77-1.05,1.79-.7,3.47-1.75,5.04-3.16h.3v4.98Z"/>
      <path class="cls-6" d="M672.97,710.06h-17.72c0,1.48.22,2.76.67,3.86.44,1.1,1.05,2,1.83,2.7.75.69,1.63,1.2,2.66,1.55,1.03.34,2.16.52,3.39.52,1.64,0,3.28-.33,4.94-.98,1.66-.65,2.84-1.29,3.54-1.92h.22v4.4c-1.36.57-2.76,1.05-4.18,1.44s-2.91.58-4.48.58c-3.99,0-7.1-1.08-9.34-3.23-2.24-2.16-3.36-5.22-3.36-9.18s1.07-7.04,3.22-9.35c2.15-2.31,4.97-3.46,8.47-3.46,3.24,0,5.74.95,7.5,2.84,1.76,1.89,2.64,4.58,2.64,8.06v2.19ZM669.04,706.97c-.01-2.12-.55-3.76-1.6-4.92s-2.66-1.74-4.81-1.74-3.89.64-5.18,1.91c-1.28,1.28-2.01,2.86-2.19,4.75h13.78Z"/>
      <path class="cls-6" d="M694.11,702.05h-.22c-.6-.14-1.19-.25-1.75-.31-.57-.06-1.24-.1-2.01-.1-1.25,0-2.45.28-3.62.83-1.16.55-2.28,1.26-3.36,2.14v17.04h-4.05v-24h4.05v3.54c1.61-1.29,3.02-2.2,4.25-2.74s2.48-.81,3.76-.81c.7,0,1.21.02,1.53.05.32.04.79.1,1.42.2v4.15Z"/>
      <path class="cls-6" d="M710.41,721.43c-.76.2-1.59.37-2.49.49-.9.13-1.7.19-2.4.19-2.45,0-4.32-.66-5.6-1.98-1.28-1.32-1.92-3.43-1.92-6.34v-12.76h-2.73v-3.39h2.73v-6.9h4.05v6.9h8.35v3.39h-8.35v10.94c0,1.26.03,2.25.09,2.95.06.71.26,1.37.6,1.99.32.57.75.99,1.3,1.26.55.27,1.4.4,2.53.4.66,0,1.35-.1,2.07-.29.72-.19,1.23-.35,1.55-.48h.22v3.63Z"/>
      <path class="cls-6" d="M719.64,693.63h-4.56v-4.19h4.56v4.19ZM719.39,721.64h-4.05v-24h4.05v24Z"/>
      <path class="cls-6" d="M740.33,692.12h-.21c-.45-.13-1.03-.26-1.74-.4-.72-.14-1.35-.2-1.89-.2-1.74,0-3,.38-3.78,1.15-.78.77-1.17,2.15-1.17,4.16v.82h7.3v3.39h-7.17v20.6h-4.05v-20.6h-2.73v-3.39h2.73v-.79c0-2.85.71-5.04,2.13-6.56,1.42-1.53,3.47-2.29,6.16-2.29.9,0,1.72.04,2.44.13s1.39.19,1.99.3v3.7Z"/>
      <path class="cls-6" d="M747.24,693.63h-4.56v-4.19h4.56v4.19ZM746.98,721.64h-4.05v-24h4.05v24Z"/>
      <path class="cls-6" d="M772.77,720.14c-1.35.64-2.63,1.15-3.84,1.5-1.21.36-2.5.54-3.86.54-1.74,0-3.33-.25-4.78-.76-1.45-.51-2.69-1.28-3.72-2.31-1.05-1.03-1.86-2.33-2.43-3.91-.57-1.58-.86-3.42-.86-5.52,0-3.92,1.08-7,3.24-9.24,2.16-2.23,5.01-3.35,8.56-3.35,1.38,0,2.73.19,4.06.58s2.54.86,3.65,1.42v4.49h-.22c-1.23-.96-2.51-1.7-3.82-2.21-1.31-.52-2.59-.77-3.84-.77-2.3,0-4.11.77-5.44,2.31-1.33,1.54-1.99,3.8-1.99,6.78s.65,5.12,1.95,6.67c1.3,1.55,3.12,2.33,5.48,2.33.82,0,1.65-.11,2.5-.32s1.61-.49,2.28-.84c.59-.3,1.14-.62,1.66-.96.52-.34.93-.63,1.23-.87h.22v4.45Z"/>
      <path class="cls-6" d="M796.65,721.64h-4.03v-2.56c-.36.24-.84.58-1.45,1.02-.61.44-1.2.78-1.78,1.04-.67.33-1.45.6-2.32.83-.88.22-1.9.33-3.08.33-2.17,0-4-.72-5.51-2.15-1.51-1.43-2.26-3.26-2.26-5.48,0-1.82.39-3.29,1.17-4.42.78-1.12,1.9-2.01,3.35-2.65,1.46-.64,3.22-1.08,5.27-1.31,2.05-.23,4.25-.4,6.61-.52v-.62c0-.92-.16-1.68-.48-2.28-.32-.6-.79-1.07-1.39-1.42-.57-.33-1.26-.55-2.07-.67-.8-.11-1.64-.17-2.52-.17-1.06,0-2.25.14-3.55.42-1.31.28-2.66.68-4.05,1.21h-.22v-4.1c.79-.21,1.93-.45,3.42-.71,1.49-.26,2.96-.39,4.41-.39,1.69,0,3.17.14,4.42.42s2.34.76,3.26,1.43c.9.66,1.59,1.51,2.07,2.56.47,1.05.71,2.34.71,3.89v16.29ZM792.62,715.73v-6.68c-1.23.07-2.69.18-4.36.32-1.67.14-3,.35-3.97.62-1.16.33-2.1.84-2.82,1.54-.72.7-1.08,1.65-1.08,2.87,0,1.38.42,2.41,1.25,3.1.83.7,2.1,1.04,3.81,1.04,1.42,0,2.72-.28,3.9-.83,1.18-.55,2.27-1.21,3.27-1.99Z"/>
      <path class="cls-6" d="M816.92,721.43c-.76.2-1.59.37-2.49.49-.9.13-1.7.19-2.4.19-2.45,0-4.32-.66-5.6-1.98-1.28-1.32-1.92-3.43-1.92-6.34v-12.76h-2.73v-3.39h2.73v-6.9h4.05v6.9h8.35v3.39h-8.35v10.94c0,1.26.03,2.25.09,2.95.06.71.26,1.37.6,1.99.32.57.75.99,1.3,1.26.55.27,1.4.4,2.53.4.66,0,1.35-.1,2.07-.29.72-.19,1.23-.35,1.55-.48h.22v3.63Z"/>
      <path class="cls-6" d="M714.58,774.44h-4.05v-2.51c-1.16,1-2.38,1.78-3.64,2.34-1.26.56-2.63.84-4.11.84-2.87,0-5.15-1.1-6.83-3.31-1.69-2.21-2.53-5.26-2.53-9.17,0-2.03.29-3.85.87-5.44s1.37-2.94,2.36-4.06c.98-1.09,2.11-1.92,3.41-2.49,1.3-.57,2.64-.86,4.04-.86,1.26,0,2.38.13,3.36.4.98.27,2,.68,3.08,1.24v-10.4h4.05v33.43ZM710.53,768.54v-13.77c-1.09-.49-2.07-.82-2.93-1.01-.86-.19-1.8-.28-2.82-.28-2.27,0-4.03.79-5.3,2.36-1.26,1.58-1.89,3.81-1.89,6.7s.49,5.02,1.46,6.5,2.54,2.22,4.69,2.22c1.15,0,2.31-.25,3.49-.76,1.18-.51,2.27-1.16,3.29-1.97Z"/>
      <path class="cls-6" d="M742.67,762.86h-17.72c0,1.48.22,2.76.67,3.86.44,1.1,1.05,2,1.83,2.7.75.69,1.63,1.2,2.66,1.55,1.03.34,2.16.52,3.39.52,1.64,0,3.28-.33,4.94-.98,1.66-.65,2.84-1.29,3.54-1.92h.22v4.4c-1.36.57-2.76,1.05-4.18,1.44s-2.91.58-4.48.58c-3.99,0-7.1-1.08-9.34-3.23-2.24-2.16-3.36-5.22-3.36-9.18s1.07-7.04,3.22-9.35c2.15-2.31,4.97-3.46,8.47-3.46,3.24,0,5.74.95,7.5,2.84,1.76,1.89,2.64,4.58,2.64,8.06v2.19ZM738.73,759.77c-.01-2.12-.55-3.76-1.6-4.92s-2.66-1.74-4.81-1.74-3.89.64-5.18,1.91c-1.28,1.28-2.01,2.86-2.19,4.75h13.78Z"/>
      <path class="cls-6" d="M634.03,827.24h-4.05v-13.66c0-1.1-.06-2.14-.19-3.1-.13-.97-.37-1.72-.71-2.27-.36-.6-.88-1.05-1.55-1.34-.67-.29-1.55-.44-2.63-.44s-2.26.27-3.47.82c-1.21.54-2.36,1.24-3.47,2.08v17.92h-4.05v-24h4.05v2.66c1.26-1.04,2.57-1.86,3.92-2.45,1.35-.59,2.73-.88,4.15-.88,2.6,0,4.58.78,5.94,2.34,1.36,1.56,2.04,3.81,2.04,6.75v15.58Z"/>
      <path class="cls-6" d="M660.51,827.24h-4.03v-2.56c-.36.24-.84.58-1.45,1.02-.61.44-1.2.78-1.78,1.04-.67.33-1.45.6-2.32.83-.88.22-1.9.33-3.08.33-2.17,0-4-.72-5.51-2.15-1.51-1.43-2.26-3.26-2.26-5.48,0-1.82.39-3.29,1.17-4.42.78-1.12,1.9-2.01,3.35-2.65,1.46-.64,3.22-1.08,5.27-1.31,2.05-.23,4.25-.4,6.61-.52v-.62c0-.92-.16-1.68-.48-2.28-.32-.6-.79-1.07-1.39-1.42-.57-.33-1.26-.55-2.07-.67-.8-.11-1.64-.17-2.52-.17-1.06,0-2.25.14-3.55.42-1.31.28-2.66.68-4.05,1.21h-.22v-4.1c.79-.21,1.93-.45,3.42-.71,1.49-.26,2.96-.39,4.41-.39,1.69,0,3.17.14,4.42.42s2.34.76,3.26,1.43c.9.66,1.59,1.51,2.07,2.56.47,1.05.71,2.34.71,3.89v16.29ZM656.48,821.33v-6.68c-1.23.07-2.69.18-4.36.32-1.67.14-3,.35-3.97.62-1.16.33-2.1.84-2.82,1.54-.72.7-1.08,1.65-1.08,2.87,0,1.38.42,2.41,1.25,3.1.83.7,2.1,1.04,3.81,1.04,1.42,0,2.72-.28,3.9-.83,1.18-.55,2.27-1.21,3.27-1.99Z"/>
      <path class="cls-6" d="M672.65,799.23h-4.56v-4.19h4.56v4.19ZM672.39,827.24h-4.05v-24h4.05v24Z"/>
      <path class="cls-6" d="M697.58,820.33c0,2.19-.91,3.99-2.72,5.39-1.82,1.4-4.29,2.11-7.44,2.11-1.78,0-3.41-.21-4.9-.63s-2.73-.88-3.73-1.39v-4.53h.21c1.28.96,2.7,1.72,4.26,2.29,1.56.57,3.06.85,4.5.85,1.78,0,3.17-.29,4.18-.86,1-.57,1.51-1.47,1.51-2.71,0-.95-.27-1.66-.82-2.15-.55-.49-1.59-.9-3.14-1.25-.57-.13-1.32-.28-2.25-.45s-1.77-.36-2.53-.56c-2.11-.56-3.61-1.38-4.49-2.46-.88-1.08-1.32-2.41-1.32-3.99,0-.99.2-1.92.61-2.79.41-.87,1.03-1.65,1.86-2.34.8-.67,1.83-1.21,3.07-1.6,1.24-.39,2.63-.59,4.17-.59,1.44,0,2.89.18,4.36.53,1.47.35,2.69.78,3.67,1.28v4.32h-.22c-1.03-.76-2.29-1.4-3.77-1.92-1.48-.52-2.93-.78-4.35-.78s-2.73.28-3.75.85c-1.02.57-1.53,1.41-1.53,2.52,0,.99.31,1.73.93,2.23.6.5,1.58.91,2.93,1.22.75.17,1.58.34,2.51.52.93.17,1.7.33,2.31.47,1.88.43,3.33,1.17,4.35,2.21,1.02,1.06,1.53,2.46,1.53,4.21Z"/>
      <path class="cls-6" d="M720.55,820.33c0,2.19-.91,3.99-2.72,5.39-1.82,1.4-4.29,2.11-7.44,2.11-1.78,0-3.41-.21-4.9-.63s-2.73-.88-3.73-1.39v-4.53h.21c1.28.96,2.7,1.72,4.26,2.29,1.56.57,3.06.85,4.5.85,1.78,0,3.17-.29,4.18-.86,1-.57,1.51-1.47,1.51-2.71,0-.95-.27-1.66-.82-2.15-.55-.49-1.59-.9-3.14-1.25-.57-.13-1.32-.28-2.25-.45s-1.77-.36-2.53-.56c-2.11-.56-3.61-1.38-4.49-2.46-.88-1.08-1.32-2.41-1.32-3.99,0-.99.2-1.92.61-2.79.41-.87,1.03-1.65,1.86-2.34.8-.67,1.83-1.21,3.07-1.6,1.24-.39,2.63-.59,4.17-.59,1.44,0,2.89.18,4.36.53,1.47.35,2.69.78,3.67,1.28v4.32h-.22c-1.03-.76-2.29-1.4-3.77-1.92-1.48-.52-2.93-.78-4.35-.78s-2.73.28-3.75.85c-1.02.57-1.53,1.41-1.53,2.52,0,.99.31,1.73.93,2.23.6.5,1.58.91,2.93,1.22.75.17,1.58.34,2.51.52.93.17,1.7.33,2.31.47,1.88.43,3.33,1.17,4.35,2.21,1.02,1.06,1.53,2.46,1.53,4.21Z"/>
      <path class="cls-6" d="M745.03,827.24h-4.03v-2.56c-.36.24-.84.58-1.45,1.02-.61.44-1.2.78-1.78,1.04-.67.33-1.45.6-2.32.83-.88.22-1.9.33-3.08.33-2.17,0-4-.72-5.51-2.15-1.51-1.43-2.26-3.26-2.26-5.48,0-1.82.39-3.29,1.17-4.42.78-1.12,1.9-2.01,3.35-2.65,1.46-.64,3.22-1.08,5.27-1.31,2.05-.23,4.25-.4,6.61-.52v-.62c0-.92-.16-1.68-.48-2.28-.32-.6-.79-1.07-1.39-1.42-.57-.33-1.26-.55-2.07-.67-.8-.11-1.64-.17-2.52-.17-1.06,0-2.25.14-3.55.42-1.31.28-2.66.68-4.05,1.21h-.22v-4.1c.79-.21,1.93-.45,3.42-.71,1.49-.26,2.96-.39,4.41-.39,1.69,0,3.17.14,4.42.42s2.34.76,3.26,1.43c.9.66,1.59,1.51,2.07,2.56.47,1.05.71,2.34.71,3.89v16.29ZM741,821.33v-6.68c-1.23.07-2.69.18-4.36.32-1.67.14-3,.35-3.97.62-1.16.33-2.1.84-2.82,1.54-.72.7-1.08,1.65-1.08,2.87,0,1.38.42,2.41,1.25,3.1.83.7,2.1,1.04,3.81,1.04,1.42,0,2.72-.28,3.9-.83,1.18-.55,2.27-1.21,3.27-1.99Z"/>
      <path class="cls-6" d="M772.92,827.24h-4.05v-13.66c0-1.1-.06-2.14-.19-3.1-.13-.97-.37-1.72-.71-2.27-.36-.6-.88-1.05-1.55-1.34-.67-.29-1.55-.44-2.63-.44s-2.26.27-3.47.82c-1.21.54-2.36,1.24-3.47,2.08v17.92h-4.05v-24h4.05v2.66c1.26-1.04,2.57-1.86,3.92-2.45,1.35-.59,2.73-.88,4.15-.88,2.6,0,4.58.78,5.94,2.34,1.36,1.56,2.04,3.81,2.04,6.75v15.58Z"/>
      <path class="cls-6" d="M798.5,825.74c-1.35.64-2.63,1.15-3.84,1.5-1.21.36-2.5.54-3.86.54-1.74,0-3.33-.25-4.78-.76-1.45-.51-2.69-1.28-3.72-2.31-1.05-1.03-1.86-2.33-2.43-3.91-.57-1.58-.86-3.42-.86-5.52,0-3.92,1.08-7,3.24-9.24,2.16-2.23,5.01-3.35,8.56-3.35,1.38,0,2.73.19,4.06.58s2.54.86,3.65,1.42v4.49h-.22c-1.23-.96-2.51-1.7-3.82-2.21-1.31-.52-2.59-.77-3.84-.77-2.3,0-4.11.77-5.44,2.31-1.33,1.54-1.99,3.8-1.99,6.78s.65,5.12,1.95,6.67c1.3,1.55,3.12,2.33,5.48,2.33.82,0,1.65-.11,2.5-.32s1.61-.49,2.28-.84c.59-.3,1.14-.62,1.66-.96.52-.34.93-.63,1.23-.87h.22v4.45Z"/>
      <path class="cls-6" d="M823.81,815.66h-17.72c0,1.48.22,2.76.67,3.86.44,1.1,1.05,2,1.83,2.7.75.69,1.63,1.2,2.66,1.55,1.03.34,2.16.52,3.39.52,1.64,0,3.28-.33,4.94-.98,1.66-.65,2.84-1.29,3.54-1.92h.22v4.4c-1.36.57-2.76,1.05-4.18,1.44s-2.91.58-4.48.58c-3.99,0-7.1-1.08-9.34-3.23-2.24-2.16-3.36-5.22-3.36-9.18s1.07-7.04,3.22-9.35c2.15-2.31,4.97-3.46,8.47-3.46,3.24,0,5.74.95,7.5,2.84,1.76,1.89,2.64,4.58,2.64,8.06v2.19ZM819.87,812.57c-.01-2.12-.55-3.76-1.6-4.92s-2.66-1.74-4.81-1.74-3.89.64-5.18,1.91c-1.28,1.28-2.01,2.86-2.19,4.75h13.78Z"/>
    </g>
    <text class="cls-18" transform="translate(990.12 824.76)"><tspan class="cls-16" x="0" y="0">F</tspan><tspan x="23.14" y="0">acture</tspan></text>
    <text class="cls-18" transform="translate(1312.85 631.14)"><tspan x="0" y="0">Certificat </tspan><tspan x="14.72" y="52.8">médical</tspan></text>
    <path class="cls-12" d="M1653.39,21.63v15.35"/>
    <path class="cls-12" d="M1675.18,21.63v15.35"/>
    <path class="cls-12" d="M1696.98,21.63v15.35"/>
    <path class="cls-12" d="M1718.77,21.63v15.35"/>
    <path class="cls-12" d="M1740.56,21.63v15.35"/>
    <path class="cls-12" d="M1762.36,21.63v15.35"/>
    <path class="cls-12" d="M1784.15,21.63v15.35"/>
    <path class="cls-12" d="M1805.94,21.63v15.35"/>
    <path class="cls-12" d="M1827.74,21.63v15.35"/>
    <path class="cls-12" d="M1849.53,21.63v15.35"/>
    <path class="cls-12" d="M1871.33,21.63v15.35"/>
    <path class="cls-12" d="M1893.12,21.63v15.35"/>
  </g>
</svg>