<?xml version="1.0" encoding="UTF-8"?>
<svg id="Layer_2" data-name="Layer 2" xmlns="http://www.w3.org/2000/svg" viewBox="0 0 712.51 652.72">
  <defs>
    <style>
      .cls-1 {
        fill: #67baeb;
      }

      .cls-1, .cls-2, .cls-3, .cls-4, .cls-5, .cls-6, .cls-7, .cls-8, .cls-9, .cls-10, .cls-11, .cls-12 {
        stroke-width: 0px;
      }

      .cls-2 {
        fill: #de3226;
      }

      .cls-3 {
        fill: #f4a93f;
      }

      .cls-4 {
        fill: #46a1f8;
      }

      .cls-5 {
        fill: #323150;
      }

      .cls-6 {
        fill: #fad564;
      }

      .cls-7 {
        fill: #f44533;
      }

      .cls-8 {
        fill: #83d0fb;
      }

      .cls-9 {
        fill: #64639c;
      }

      .cls-10 {
        fill: #b11a31;
      }

      .cls-11 {
        fill: #f4c23f;
      }

      .cls-12 {
        fill: #4d4c78;
      }
    </style>
  </defs>
  <g id="SVGRepo_iconCarrier" data-name="SVGRepo iconCarrier">
    <path class="cls-1" d="M356.06,543.34h0c-27.57,0-49.93-14.7-49.95-32.85v-148.96c35.24,12.2,69.54-13,99.86,0v148.96c0,18.14-22.35,32.85-49.91,32.85h0Z"/>
    <path class="cls-4" d="M378.77,532.37h0c-27.57,0-49.93-14.7-49.95-32.85v-134.55c-7.49.08-15.1-.8-22.71-3.44v148.96c.02,18.15,22.38,32.85,49.95,32.85h0c15.55,0,30.21-4.76,39.65-12.89-5.43,1.28-11.16,1.94-16.94,1.93Z"/>
    <path class="cls-5" d="M357.7,557.27c-32.59,0-59.08-26.5-59.08-59.08V37.39c-.02-4.29,3.44-7.78,7.73-7.8.03,0,.05,0,.08,0h102.56c4.29-.02,7.78,3.44,7.8,7.73,0,.03,0,.05,0,.08v460.8c0,32.59-26.5,59.08-59.08,59.08ZM314.22,45.19v453c0,24.01,19.45,43.48,43.46,43.49,24.01,0,43.48-19.45,43.49-43.46V45.19h-86.95Z"/>
    <path class="cls-5" d="M421.78,45.19h-128.16c-12.48,0-22.6-10.12-22.6-22.6S281.14,0,293.62,0h128.16c12.48,0,22.6,10.12,22.6,22.6s-10.12,22.6-22.6,22.6ZM293.62,15.61c-3.86,0-6.99,3.13-6.99,6.99s3.13,6.99,6.99,6.99h128.16c3.86,0,6.99-3.13,6.99-6.99s-3.13-6.99-6.99-6.99h-128.16Z"/>
    <path class="cls-5" d="M405.54,99.98h-27c-4.31,0-7.8-3.49-7.8-7.8s3.49-7.8,7.8-7.8h27c4.31,0,7.8,3.49,7.8,7.8s-3.49,7.8-7.8,7.8Z"/>
    <path class="cls-5" d="M405.54,167.06h-27c-4.31,0-7.8-3.49-7.8-7.8s3.49-7.8,7.8-7.8h27c4.31,0,7.8,3.49,7.8,7.8s-3.49,7.8-7.8,7.8Z"/>
    <path class="cls-5" d="M405.54,234.15h-27c-4.31,0-7.8-3.49-7.8-7.8s3.49-7.8,7.8-7.8h27c4.31,0,7.8,3.49,7.8,7.8s-3.49,7.8-7.8,7.8Z"/>
    <path class="cls-5" d="M405.54,301.23h-27c-4.31,0-7.8-3.49-7.8-7.8s3.49-7.8,7.8-7.8h27c4.31,0,7.8,3.49,7.8,7.8s-3.49,7.8-7.8,7.8Z"/>
    <path class="cls-5" d="M405.54,368.31h-27c-4.31,0-7.8-3.49-7.8-7.8s3.49-7.8,7.8-7.8h27c4.31,0,7.8,3.49,7.8,7.8s-3.49,7.8-7.8,7.8Z"/>
    <path class="cls-5" d="M405.54,435.36h-27c-4.31,0-7.8-3.49-7.8-7.8s3.49-7.8,7.8-7.8h27c4.31,0,7.8,3.49,7.8,7.8s-3.49,7.8-7.8,7.8Z"/>
    <path class="cls-5" d="M405.54,502.44h-27c-4.31,0-7.8-3.49-7.8-7.8s3.49-7.8,7.8-7.8h27c4.31,0,7.8,3.49,7.8,7.8s-3.49,7.8-7.8,7.8Z"/>
    <circle class="cls-4" cx="358.44" cy="446.28" r="7.53" transform="translate(-143.5 171.14) rotate(-22.5)"/>
    <circle class="cls-4" cx="345.21" cy="374.01" r="5.7"/>
    <circle class="cls-8" cx="375.14" cy="400" r="9.17"/>
    <circle class="cls-8" cx="345.76" cy="408.39" r="3.16"/>
    <circle class="cls-8" cx="344.23" cy="493.93" r="4.72"/>
    <path class="cls-2" d="M169.4,543.34h0c-27.57,0-49.91-30.34-49.91-67.76h0V168.28c35.24,25.17,69.5-26.81,99.86,0v307.3c-.02,37.43-22.38,67.76-49.95,67.76Z"/>
    <path class="cls-10" d="M192.12,520.72h0c-27.57,0-49.91-30.33-49.91-67.75h0V175.46c-7.53.16-15.1-1.64-22.71-7.1v307.23c0,37.42,22.35,67.75,49.91,67.75h0c15.56.03,30.24-9.81,39.69-26.59-5.45,2.65-11.19,4-16.98,3.97Z"/>
    <path class="cls-5" d="M171.08,557.27c-32.59,0-59.12-26.5-59.12-59.08V37.39c0-4.31,3.49-7.8,7.8-7.8h102.6c4.31,0,7.8,3.49,7.8,7.8v460.8c0,32.59-26.54,59.08-59.08,59.08ZM127.57,45.19v453c0,23.96,19.51,43.47,43.51,43.47,23.99-.04,43.43-19.48,43.47-43.47V45.19h-86.99Z"/>
    <path class="cls-5" d="M235.12,45.19H107c-12.48,0-22.6-10.12-22.6-22.6S94.53,0,107,0h128.12c12.48,0,22.6,10.12,22.6,22.6s-10.12,22.6-22.6,22.6ZM107,15.61c-3.86,0-6.99,3.13-6.99,6.99s3.13,6.99,6.99,6.99h128.12c3.86,0,6.99-3.13,6.99-6.99s-3.13-6.99-6.99-6.99H107Z"/>
    <path class="cls-5" d="M218.93,99.98h-27c-4.31,0-7.8-3.49-7.8-7.8s3.49-7.8,7.8-7.8h27c4.31,0,7.8,3.49,7.8,7.8s-3.49,7.8-7.8,7.8h0Z"/>
    <path class="cls-5" d="M218.93,167.06h-27c-4.31,0-7.8-3.49-7.8-7.8s3.49-7.8,7.8-7.8h27c4.31,0,7.8,3.49,7.8,7.8s-3.49,7.8-7.8,7.8h0Z"/>
    <path class="cls-5" d="M218.93,234.15h-27c-4.31,0-7.8-3.49-7.8-7.8s3.49-7.8,7.8-7.8h27c4.31,0,7.8,3.49,7.8,7.8s-3.49,7.8-7.8,7.8h0Z"/>
    <path class="cls-5" d="M218.93,301.23h-27c-4.31,0-7.8-3.49-7.8-7.8s3.49-7.8,7.8-7.8h27c4.31,0,7.8,3.49,7.8,7.8s-3.49,7.8-7.8,7.8h0Z"/>
    <path class="cls-5" d="M218.93,368.31h-27c-4.31,0-7.8-3.49-7.8-7.8s3.49-7.8,7.8-7.8h27c4.31,0,7.8,3.49,7.8,7.8s-3.49,7.8-7.8,7.8h0Z"/>
    <path class="cls-5" d="M218.93,435.36h-27c-4.31,0-7.8-3.49-7.8-7.8s3.49-7.8,7.8-7.8h27c4.31,0,7.8,3.49,7.8,7.8s-3.49,7.8-7.8,7.8h0Z"/>
    <path class="cls-5" d="M218.93,502.44h-27c-4.31,0-7.8-3.49-7.8-7.8s3.49-7.8,7.8-7.8h27c4.31,0,7.8,3.49,7.8,7.8s-3.49,7.8-7.8,7.8h0Z"/>
    <circle class="cls-10" cx="171.82" cy="446.28" r="7.53"/>
    <circle class="cls-10" cx="158.6" cy="374.01" r="5.7"/>
    <circle class="cls-10" cx="190.52" cy="333" r="11.2"/>
    <circle class="cls-7" cx="174.36" cy="309.19" r="4.96"/>
    <circle class="cls-7" cx="188.53" cy="400" r="9.17"/>
    <circle class="cls-7" cx="159.14" cy="408.39" r="3.16"/>
    <circle class="cls-7" cx="157.58" cy="493.93" r="4.72"/>
    <path class="cls-11" d="M542.67,543.34h0c-27.57,0-49.93-22.34-49.95-49.91v-226.34c35.24,18.54,69.54-19.75,99.9,0v226.34c-.02,27.57-22.38,49.91-49.95,49.91Z"/>
    <path class="cls-3" d="M565.39,526.67h0c-27.57,0-49.93-22.34-49.95-49.91v-204.45c-7.49.12-15.06-1.21-22.71-5.23v226.34c.02,27.57,22.38,49.91,49.95,49.91h0c15.56.02,30.24-7.23,39.69-19.59-5.45,1.95-11.19,2.94-16.98,2.93Z"/>
    <path class="cls-5" d="M544.31,557.27c-32.59,0-59.08-26.5-59.08-59.08V37.39c0-4.31,3.49-7.8,7.8-7.8h102.56c4.29-.02,7.78,3.44,7.8,7.73,0,.03,0,.05,0,.08v460.8c0,32.59-26.5,59.08-59.08,59.08ZM500.84,45.19v453c0,24.01,19.46,43.47,43.47,43.47s43.47-19.46,43.47-43.47V45.19h-86.95Z"/>
    <path class="cls-5" d="M608.39,45.19h-128.12c-12.48,0-22.6-10.12-22.6-22.6S467.79,0,480.27,0h128.12c12.48,0,22.6,10.12,22.6,22.6s-10.12,22.6-22.6,22.6h0ZM480.27,15.61c-3.86,0-6.99,3.13-6.99,6.99s3.13,6.99,6.99,6.99h128.12c3.86,0,6.99-3.13,6.99-6.99s-3.13-6.99-6.99-6.99h-128.12Z"/>
    <path class="cls-5" d="M592.2,99.98h-27.04c-4.31,0-7.8-3.49-7.8-7.8s3.49-7.8,7.8-7.8h27.04c4.31,0,7.8,3.49,7.8,7.8s-3.49,7.8-7.8,7.8Z"/>
    <path class="cls-5" d="M592.2,167.06h-27.04c-4.31,0-7.8-3.49-7.8-7.8s3.49-7.8,7.8-7.8h27.04c4.31,0,7.8,3.49,7.8,7.8s-3.49,7.8-7.8,7.8Z"/>
    <path class="cls-5" d="M592.2,234.15h-27.04c-4.31,0-7.8-3.49-7.8-7.8s3.49-7.8,7.8-7.8h27.04c4.31,0,7.8,3.49,7.8,7.8s-3.49,7.8-7.8,7.8Z"/>
    <path class="cls-5" d="M592.2,301.23h-27.04c-4.31,0-7.8-3.49-7.8-7.8s3.49-7.8,7.8-7.8h27.04c4.31,0,7.8,3.49,7.8,7.8s-3.49,7.8-7.8,7.8Z"/>
    <path class="cls-5" d="M592.2,368.31h-27.04c-4.31,0-7.8-3.49-7.8-7.8s3.49-7.8,7.8-7.8h27.04c4.31,0,7.8,3.49,7.8,7.8s-3.49,7.8-7.8,7.8Z"/>
    <path class="cls-5" d="M592.2,435.36h-27.04c-4.31,0-7.8-3.49-7.8-7.8s3.49-7.8,7.8-7.8h27.04c4.31,0,7.8,3.49,7.8,7.8s-3.49,7.8-7.8,7.8Z"/>
    <path class="cls-5" d="M592.2,502.44h-27.04c-4.31,0-7.8-3.49-7.8-7.8s3.49-7.8,7.8-7.8h27.04c4.31,0,7.8,3.49,7.8,7.8s-3.49,7.8-7.8,7.8Z"/>
    <path class="cls-12" d="M73.95,602.5h-32.04c-4.29.02-7.78-3.44-7.8-7.73,0-.03,0-.05,0-.08V114.69c0-4.31,3.49-7.8,7.8-7.8h32.04c4.3.02,7.78,3.5,7.8,7.8v480c0,4.31-3.49,7.8-7.8,7.8Z"/>
    <path class="cls-12" d="M673.48,602.5h-32.04c-4.31,0-7.8-3.49-7.8-7.8V114.69c.02-4.3,3.5-7.78,7.8-7.8h32.04c4.31,0,7.8,3.49,7.8,7.8v480c.02,4.29-3.44,7.78-7.73,7.8-.03,0-.05,0-.08,0Z"/>
    <path class="cls-5" d="M57.17,576.55c-3.86,0-6.99-3.13-6.99-6.99h0V139.82c0-3.86,3.13-6.99,6.99-6.99h24.59v-18.15c-.02-4.3-3.5-7.78-7.8-7.8h-32.04c-4.31,0-7.8,3.49-7.8,7.8v480c-.02,4.29,3.44,7.78,7.73,7.8.03,0,.05,0,.08,0h32.04c4.31,0,7.8-3.49,7.8-7.8v-18.15h-24.59Z"/>
    <path class="cls-5" d="M658.65,576.55c-3.86,0-6.99-3.13-6.99-6.99h0V139.82c0-3.86,3.13-6.99,6.99-6.99h22.63v-18.15c0-4.31-3.49-7.8-7.8-7.8h-32.04c-4.3.02-7.78,3.5-7.8,7.8v480c0,4.31,3.49,7.8,7.8,7.8h32.04c4.29.02,7.78-3.44,7.8-7.73,0-.03,0-.05,0-.08v-18.15h-22.63Z"/>
    <path class="cls-12" d="M702.09,122.5H7.8C3.52,122.52.02,119.06,0,114.77c0-.03,0-.05,0-.08v-32.04C0,78.34,3.49,74.85,7.8,74.85h694.28c4.3.02,7.78,3.5,7.8,7.8v32.04c0,4.31-3.49,7.8-7.8,7.8Z"/>
    <path class="cls-5" d="M35.51,106.89c-4.31,0-7.8-3.49-7.8-7.8v-24.23H7.8C3.49,74.85,0,78.34,0,82.65v32.04c-.02,4.29,3.44,7.78,7.73,7.8.03,0,.05,0,.08,0h694.28c4.31,0,7.8-3.49,7.8-7.8v-7.8H35.51Z"/>
    <path class="cls-12" d="M704.7,652.72H10.69c-4.31,0-7.8-3.49-7.8-7.8v-50.22c0-4.31,3.49-7.8,7.8-7.8h694.01c4.31,0,7.8,3.49,7.8,7.8v50.22c0,4.31-3.49,7.8-7.8,7.8h0Z"/>
    <path class="cls-5" d="M45.03,632.66c-4.3-.02-7.78-3.5-7.8-7.8v-37.97H10.69c-4.31,0-7.8,3.49-7.8,7.8v50.22c0,4.31,3.49,7.8,7.8,7.8h694.01c4.31,0,7.8-3.49,7.8-7.8v-12.25H45.03Z"/>
    <rect class="cls-9" x="171.08" y="586.89" width="478.13" height="27.73" rx="13.85" ry="13.85"/>
    <path class="cls-9" d="M672.1,214.4h0c5.08,0,9.19,4.12,9.19,9.21v261.81c0,5.09-4.11,9.21-9.19,9.21h0c-5.08,0-9.19-4.12-9.19-9.21V223.61c0-5.09,4.11-9.21,9.19-9.21Z"/>
    <rect class="cls-9" x="63.38" y="247.22" width="18.38" height="296.11" rx="9.17" ry="9.17"/>
    <rect class="cls-9" x="143.45" y="74.85" width="473.95" height="23.83" rx="11.9" ry="11.9"/>
    <circle class="cls-3" cx="545.05" cy="446.28" r="7.53"/>
    <circle class="cls-3" cx="531.86" cy="374.01" r="5.7"/>
    <circle class="cls-3" cx="563.79" cy="333" r="11.2"/>
    <circle class="cls-6" cx="547.63" cy="309.19" r="4.96"/>
    <circle class="cls-6" cx="561.76" cy="400" r="9.17"/>
    <circle class="cls-6" cx="532.37" cy="408.39" r="3.16"/>
    <circle class="cls-6" cx="530.85" cy="493.93" r="4.72"/>
  </g>
  <circle class="cls-7" cx="162.3" cy="256.39" r="9.17"/>
  <circle class="cls-10" cx="186.19" cy="276.86" r="5.7"/>
  <circle class="cls-10" cx="175.36" cy="197.08" r="7.53"/>
</svg>