<?xml version="1.0" encoding="UTF-8"?>
<svg version="1.1" xmlns="http://www.w3.org/2000/svg" width="1117" height="295">
<path d="M0 0 C4.47235491 3.50977972 8.76958545 7.20369238 13 11 C13.79148438 11.70640625 14.58296875 12.4128125 15.3984375 13.140625 C38.84914572 35.32143928 53.6514668 68.56441558 55.1262207 100.75512695 C55.49454689 114.7620455 55.0694592 128.30123118 52 142 C51.76651855 143.04945801 51.76651855 143.04945801 51.52832031 144.12011719 C45.95234863 167.94877063 33.08296137 187.9368542 17 206 C16.36835938 206.71671875 15.73671875 207.4334375 15.0859375 208.171875 C-7.29453839 232.03123696 -41.53018841 246.22419352 -73.9375 247.27734375 C-111.36682807 247.99502603 -146.14718025 237.79911762 -174 212 C-174.86455811 211.20916016 -174.86455811 211.20916016 -175.74658203 210.40234375 C-202.22072094 185.9446626 -217.26972644 151.99580464 -218.85766602 116.0637207 C-220.02678475 78.93386295 -207.19176949 43.93974024 -182.015625 16.60546875 C-134.89804116 -32.95148965 -55.38059325 -41.38815613 0 0 Z " fill="#FCFDFD" transform="translate(219,37)"/>
<path d="M0 0 C0.77375977 0.00870117 1.54751953 0.01740234 2.34472656 0.02636719 C8.30467413 0.17231532 14.16602099 0.76063699 20.0625 1.625 C20.84778076 1.73408691 21.63306152 1.84317383 22.44213867 1.95556641 C27.49728001 2.78853754 30.79925101 4.1594154 34.8125 7.375 C35.8125 9.375 35.8125 9.375 35.75 12.3125 C35.54157405 15.55101934 35.54157405 15.55101934 37.8125 18.375 C35.3375 19.365 35.3375 19.365 32.8125 20.375 C32.8125 21.035 32.8125 21.695 32.8125 22.375 C25.78576485 21.87156013 18.79309091 21.33312032 11.8125 20.375 C11.8125 21.035 11.8125 21.695 11.8125 22.375 C15.1125 22.705 18.4125 23.035 21.8125 23.375 C20.8125 26.375 19.8125 29.375 18.8125 32.375 C20.1325 32.705 21.4525 33.035 22.8125 33.375 C22.8125 34.035 22.8125 34.695 22.8125 35.375 C19.1825 34.715 15.5525 34.055 11.8125 33.375 C12.4725 35.685 13.1325 37.995 13.8125 40.375 C8.1875 40.625 8.1875 40.625 4.8125 38.375 C5.41433749 36.35454558 6.08556096 34.35388961 6.8125 32.375 C7.8025 31.88 7.8025 31.88 8.8125 31.375 C9.1425 30.385 9.4725 29.395 9.8125 28.375 C5.32046685 30.17340638 5.32046685 30.17340638 2.4375 33.875 C1.69123219 36.43058108 1.69123219 36.43058108 1.8125 39.375 C3.4625 40.035 5.1125 40.695 6.8125 41.375 C5.8225 42.365 5.8225 42.365 4.8125 43.375 C2.8325 42.715 0.8525 42.055 -1.1875 41.375 C-1.5175 42.365 -1.8475 43.355 -2.1875 44.375 C-2.8475 43.715 -3.5075 43.055 -4.1875 42.375 C-5.1775 43.365 -5.1775 43.365 -6.1875 44.375 C-8.22583424 43.1010411 -10.22602126 41.76438077 -12.1875 40.375 C-12.1875 39.715 -12.1875 39.055 -12.1875 38.375 C-13.91695653 38.51735457 -15.64605654 38.66404382 -17.375 38.8125 C-18.33792969 38.89371094 -19.30085938 38.97492187 -20.29296875 39.05859375 C-22.97399602 39.35166151 -25.5537986 39.80203754 -28.1875 40.375 C-28.5175 41.365 -28.8475 42.355 -29.1875 43.375 C-31.8046875 44.875 -31.8046875 44.875 -35.0625 46.375 C-38.71689888 48.06570984 -41.42785929 49.45915322 -44.1875 52.375 C-44.8475 52.375 -45.5075 52.375 -46.1875 52.375 C-45.6925 54.355 -45.6925 54.355 -45.1875 56.375 C-43.5375 56.045 -41.8875 55.715 -40.1875 55.375 C-40.1875 56.035 -40.1875 56.695 -40.1875 57.375 C-41.13625 57.436875 -42.085 57.49875 -43.0625 57.5625 C-44.09375 57.830625 -45.125 58.09875 -46.1875 58.375 C-46.5896875 59.550625 -46.5896875 59.550625 -47 60.75 C-48.1875 63.375 -48.1875 63.375 -50.30078125 64.37109375 C-52.5833413 65.11301451 -54.86100218 65.786195 -57.1875 66.375 C-56.67596191 62.02692625 -55.86613478 58.40372348 -54.1875 54.375 C-54.1875 53.385 -54.1875 52.395 -54.1875 51.375 C-54.868125 52.035 -55.54875 52.695 -56.25 53.375 C-59.83207375 55.81385872 -61.94269536 55.70792585 -66.1875 55.375 C-66.8475 57.025 -67.5075 58.675 -68.1875 60.375 C-66.8675 61.035 -65.5475 61.695 -64.1875 62.375 C-64.8475 63.365 -65.5075 64.355 -66.1875 65.375 C-63.2175 66.365 -63.2175 66.365 -60.1875 67.375 C-63.25640187 68.90945094 -65.88844266 67.92484289 -69.1875 67.375 C-68.5996875 68.7053125 -68.5996875 68.7053125 -68 70.0625 C-67.1875 73.375 -67.1875 73.375 -68.5625 76.25 C-69.09875 76.95125 -69.635 77.6525 -70.1875 78.375 C-71.30125 77.9109375 -71.30125 77.9109375 -72.4375 77.4375 C-74.6998958 76.56339253 -76.83724079 75.93243327 -79.1875 75.375 C-83.75204252 81.21016066 -83.75204252 81.21016066 -85.1875 88.375 C-84.8297386 90.65150745 -84.8297386 90.65150745 -84.1875 92.375 C-85.363125 92.4678125 -85.363125 92.4678125 -86.5625 92.5625 C-87.861875 92.9646875 -87.861875 92.9646875 -89.1875 93.375 C-90.43464403 95.78452023 -90.43464403 95.78452023 -91.1875 98.375 C-93.1875 100.375 -93.1875 100.375 -96.9375 101.4375 C-102.39628829 103.4090043 -104.6529078 107.35333919 -107.1875 112.375 C-108.4117517 115.33042012 -109.40121286 118.27510536 -110.1875 121.375 C-110.496875 122.56029297 -110.496875 122.56029297 -110.8125 123.76953125 C-112.24056425 133.69160264 -107.86524069 145.34730553 -102.1875 153.375 C-98.65732253 155.9424018 -95.85953675 156.45505714 -91.625 156.75 C-87.92169539 157.04351655 -87.26207194 157.3144103 -84.1875 159.8125 C-82.1875 162.375 -82.1875 162.375 -81.1875 164.375 C-80.341875 164.705 -79.49625 165.035 -78.625 165.375 C-77.820625 166.035 -77.01625 166.695 -76.1875 167.375 C-76.0703125 169.44140625 -76.0703125 169.44140625 -76.25 171.9375 C-76.56515128 177.47284932 -74.80245457 180.48004125 -71.6953125 184.953125 C-68.78952196 189.62045696 -68.02265953 193.76923602 -67.96191406 199.23632812 C-68.0105322 206.8796613 -68.0105322 206.8796613 -64.4375 213.375 C-63.89351562 213.87128906 -63.34953125 214.36757812 -62.7890625 214.87890625 C-61.00367369 216.54672067 -60.01016492 218.1901074 -58.8125 220.3125 C-55.44510434 225.8670787 -51.14939546 230.79532242 -45.375 233.875 C-39.48399992 234.79907844 -33.58715324 235.55034036 -28.125 232.875 C-27.485625 232.38 -26.84625 231.885 -26.1875 231.375 C-25.5275 231.375 -24.8675 231.375 -24.1875 231.375 C-23.89875 230.735625 -23.61 230.09625 -23.3125 229.4375 C-22.1875 227.375 -22.1875 227.375 -20.1875 226.375 C-20.6825 222.91 -20.6825 222.91 -21.1875 219.375 C-19.5642313 218.7041288 -17.93882422 218.03842971 -16.3125 217.375 C-15.40757813 217.00375 -14.50265625 216.6325 -13.5703125 216.25 C-11.1875 215.375 -11.1875 215.375 -9.1875 215.375 C-9.30208693 213.93663249 -9.42959116 212.49929034 -9.5625 211.0625 C-9.66691406 209.86173828 -9.66691406 209.86173828 -9.7734375 208.63671875 C-10.08314426 206.10275559 -10.08314426 206.10275559 -12.1875 203.375 C-12.55859375 201.2890625 -12.55859375 201.2890625 -12.625 199 C-12.68494141 197.87464844 -12.68494141 197.87464844 -12.74609375 196.7265625 C-11.53782773 191.64001604 -6.32842551 188.63862696 -2.37817383 185.53198242 C3.89366302 180.54440039 8.08938958 176.09946668 10.8125 168.375 C11.245625 167.17875 11.67875 165.9825 12.125 164.75 C12.4653125 163.574375 12.4653125 163.574375 12.8125 162.375 C11.81669922 162.5915625 11.81669922 162.5915625 10.80078125 162.8125 C9.91777344 162.998125 9.03476563 163.18375 8.125 163.375 C7.25488281 163.560625 6.38476562 163.74625 5.48828125 163.9375 C2.8159109 164.3744423 0.50834926 164.66892564 -2.1875 164.375 C-2.8475 163.385 -3.5075 162.395 -4.1875 161.375 C-0.65041091 159.44567868 2.6673027 158.69051729 6.59375 157.9375 C10.69580356 156.89754276 12.42421524 155.95742714 14.8125 152.375 C15.905625 152.00375 16.99875 151.6325 18.125 151.25 C22.4614342 149.56612367 23.84537848 146.54808912 25.8671875 142.53125 C26.90003112 140.26456101 26.90003112 140.26456101 27.8125 137.375 C24.8425 135.395 24.8425 135.395 21.8125 133.375 C22.1425 132.385 22.4725 131.395 22.8125 130.375 C23.328125 130.54 23.84375 130.705 24.375 130.875 C28.84620902 131.79217108 32.98546926 131.54610981 37.4375 130.625 C40.8125 130.375 40.8125 130.375 43.5625 132.125 C44.86495828 133.42745828 46.14822948 134.75101702 47.375 136.125 C48.99807554 137.81245248 48.99807554 137.81245248 52.8125 137.375 C53.1425 136.715 53.4725 136.055 53.8125 135.375 C54.14121094 136.59123047 54.14121094 136.59123047 54.4765625 137.83203125 C56.66127764 145.46077233 59.15143994 152.86194541 63.8125 159.375 C64.8025 159.705 65.7925 160.035 66.8125 160.375 C67.4725 159.385 68.1325 158.395 68.8125 157.375 C69.1425 159.685 69.4725 161.995 69.8125 164.375 C70.8025 164.045 71.7925 163.715 72.8125 163.375 C72.4825 161.065 72.1525 158.755 71.8125 156.375 C70.8225 156.045 69.8325 155.715 68.8125 155.375 C69.4725 155.375 70.1325 155.375 70.8125 155.375 C70.69390625 154.48296875 70.5753125 153.5909375 70.453125 152.671875 C70.32421875 151.50140625 70.1953125 150.3309375 70.0625 149.125 C69.85367188 147.38476562 69.85367188 147.38476562 69.640625 145.609375 C69.85604678 141.5555288 70.87816214 141.02419903 73.8125 138.375 C74.93104543 136.18340022 75.96977504 133.94974709 76.9375 131.6875 C79.60286827 125.47981586 79.60286827 125.47981586 81.8125 124.375 C82.8025 122.89 82.8025 122.89 83.8125 121.375 C89.59711538 125.43653846 89.59711538 125.43653846 90.6875 130.1875 C90.72875 131.239375 90.77 132.29125 90.8125 133.375 C93.2875 131.395 93.2875 131.395 95.8125 129.375 C98.44713787 135.22060277 100.37381481 139.91987966 99.8125 146.375 C100.8025 146.705 101.7925 147.035 102.8125 147.375 C103.47916667 149.04166667 104.14583333 150.70833333 104.8125 152.375 C105.8025 152.705 106.7925 153.035 107.8125 153.375 C107.8125 151.065 107.8125 148.755 107.8125 146.375 C107.214375 146.21 106.61625 146.045 106 145.875 C102.6455686 143.57481847 101.86503322 140.20239353 100.8125 136.375 C100.8125 135.715 100.8125 135.055 100.8125 134.375 C105.5625 135.125 105.5625 135.125 107.8125 137.375 C110.46072029 131.77299555 111.22348608 128.37397463 109.5625 122.36328125 C108.67180599 120.00201431 107.55836785 118.20022548 105.8125 116.375 C106.4725 116.375 107.1325 116.375 107.8125 116.375 C107.77769531 115.75753906 107.74289063 115.14007813 107.70703125 114.50390625 C107.50520274 108.18955703 108.44040596 103.22051745 110.8125 97.375 C111.4725 97.375 112.1325 97.375 112.8125 97.375 C111.80757105 94.0917241 110.75246409 90.82674916 109.6875 87.5625 C109.26210938 86.1693457 109.26210938 86.1693457 108.828125 84.74804688 C107.07558743 79.11464747 107.07558743 79.11464747 102.625 75.5 C101.2328125 74.943125 101.2328125 74.943125 99.8125 74.375 C98.72842141 71.62270339 98.91116585 69.38430828 98.8125 66.375 C97.8225 66.375 96.8325 66.375 95.8125 66.375 C95.4825 64.725 95.1525 63.075 94.8125 61.375 C98.70056767 63.74164989 100.90080187 65.27850401 102.8125 69.375 C104.8460948 70.64304566 104.8460948 70.64304566 106.8125 71.375 C106.461875 70.6325 106.11125 69.89 105.75 69.125 C104.7404902 66.16377125 104.93269116 65.25437439 105.8125 62.375 C113.95428272 77.17072697 120.74272806 93.2111017 120.8125 110.375 C120.4825 109.715 120.1525 109.055 119.8125 108.375 C119.1525 108.375 118.4925 108.375 117.8125 108.375 C117.4825 106.065 117.1525 103.755 116.8125 101.375 C116.1525 101.375 115.4925 101.375 114.8125 101.375 C115.18045957 107.08471741 115.96555257 111.30000676 118.8125 116.375 C118.8125 117.035 118.8125 117.695 118.8125 118.375 C119.4725 118.375 120.1325 118.375 120.8125 118.375 C121.94730527 121.98493172 121.91265767 125.3592327 121.875 129.125 C121.86597656 130.29546875 121.85695313 131.4659375 121.84765625 132.671875 C121.83025391 134.00992188 121.83025391 134.00992188 121.8125 135.375 C121.1525 135.705 120.4925 136.035 119.8125 136.375 C119.8125 134.395 119.8125 132.415 119.8125 130.375 C118.8225 130.045 117.8325 129.715 116.8125 129.375 C116.874375 130.32375 116.93625 131.2725 117 132.25 C117.03060541 137.21827831 115.38825543 141.7133902 113.8125 146.375 C113.1525 146.375 112.4925 146.375 111.8125 146.375 C112.1425 150.005 112.4725 153.635 112.8125 157.375 C114.4625 156.385 116.1125 155.395 117.8125 154.375 C117.75 157.125 117.75 157.125 116.8125 160.375 C114.58738786 162.14011299 112.40812397 163.14797776 109.8125 164.375 C109.8125 162.065 109.8125 159.755 109.8125 157.375 C108.1728125 156.941875 108.1728125 156.941875 106.5 156.5 C102.8125 155.375 102.8125 155.375 99.8125 153.375 C98.4925 153.375 97.1725 153.375 95.8125 153.375 C97.88535078 158.03891425 100.93127293 161.51380082 104.5625 165.0625 C106.8125 167.375 106.8125 167.375 106.8125 169.375 C109.1225 168.385 111.4325 167.395 113.8125 166.375 C106.08155773 193.91648184 84.08506611 217.2169686 59.8125 231.375 C49.28672731 237.14512269 38.37463512 241.21165868 26.8125 244.375 C24.91177734 244.90480469 24.91177734 244.90480469 22.97265625 245.4453125 C7.48669547 249.23476967 -10.69819111 248.50867521 -26.1875 245.375 C-27.45722656 245.11847656 -28.72695312 244.86195313 -30.03515625 244.59765625 C-60.13833231 238.0194732 -88.42912383 218.53918427 -105.20703125 192.6640625 C-123.29840853 162.6188166 -130.82838691 129.16398763 -122.68359375 94.34667969 C-117.29147291 72.91618365 -104.64626739 45.14076633 -85.1875 33.375 C-84.630625 32.59125 -84.07375 31.8075 -83.5 31 C-80.46249218 27.55201815 -77.00313618 25.96096631 -72.95703125 23.859375 C-66.63509165 20.60548841 -66.63509165 20.60548841 -62.1875 15.375 C-59.18004929 15.01556187 -56.19396697 14.9306644 -53.16796875 14.81640625 C-49.82830268 14.32180302 -48.79414207 13.41066333 -46.1875 11.375 C-43.88200354 10.562095 -41.54371257 9.83895284 -39.1875 9.1875 C-37.970625 8.84332031 -36.75375 8.49914063 -35.5 8.14453125 C-32.1875 7.375 -32.1875 7.375 -28.1875 7.375 C-28.1875 8.035 -28.1875 8.695 -28.1875 9.375 C-33.1875 11.375 -38.1875 13.375 -43.1875 15.375 C-44.03828125 15.72949219 -44.8890625 16.08398438 -45.765625 16.44921875 C-48.1875 17.375 -48.1875 17.375 -51.9375 18.1875 C-56.75048059 19.34956946 -61.22149966 21.39638564 -65.1875 24.375 C-66.45481223 26.4376439 -66.45481223 26.4376439 -67.1875 28.375 C-66.20007813 28.03082031 -65.21265625 27.68664062 -64.1953125 27.33203125 C-60.05366943 26.1473674 -56.28672899 26.55904919 -52.0625 27.0625 C-43.70172066 27.82672107 -37.79266813 25.93107172 -30.1875 22.375 C-25.95434516 20.81707313 -22.71158275 20.15956749 -18.1875 20.375 C-18.1875 19.055 -18.1875 17.735 -18.1875 16.375 C-17.5275 16.375 -16.8675 16.375 -16.1875 16.375 C-17.1775 15.055 -18.1675 13.735 -19.1875 12.375 C-18.6925 11.9625 -18.1975 11.55 -17.6875 11.125 C-15.75363908 9.25297662 -15.75363908 9.25297662 -16.1875 5.375 C-15.5275 5.375 -14.8675 5.375 -14.1875 5.375 C-14.1875 4.715 -14.1875 4.055 -14.1875 3.375 C-9.4182558 0.54489905 -5.44334554 -0.10279484 0 0 Z " fill="#054D7F" transform="translate(139.1875,23.625)"/>
<path d="M0 0 C45.21 0 90.42 0 137 0 C137 9.57 137 19.14 137 29 C104 29 71 29 37 29 C37 43.52 37 58.04 37 73 C68.35 73 99.7 73 132 73 C132 82.57 132 92.14 132 102 C100.65 102 69.3 102 37 102 C37 119.16 37 136.32 37 154 C71.65 154 106.3 154 142 154 C141.11653522 163.71811258 139.60423613 173.3745832 138 183 C92.46 183 46.92 183 0 183 C0 122.61 0 62.22 0 0 Z " fill="#85A4C0" transform="translate(291,42)"/>
<path d="M0 0 C1.20245361 -0.0100708 2.40490723 -0.0201416 3.64379883 -0.03051758 C15.15650815 0.08009857 26.47933476 1.67704676 36.75 7.125 C37.75812744 7.64936646 37.75812744 7.64936646 38.78662109 8.18432617 C48.75044229 13.58250523 55.27155352 21.54952311 59.03515625 32.328125 C59.52429598 35.36416469 59.39435865 38.36770729 59.375 41.4375 C54.64312906 41.6856617 49.91507329 41.86654293 45.17822266 41.98681641 C43.56947864 42.03695824 41.96118719 42.10509943 40.35400391 42.19189453 C35.20791805 42.46274116 30.4257352 42.55880092 25.375 41.4375 C22.89106936 39.04875255 21.77256357 36.98563925 20.41259766 33.83789062 C19.05428794 30.69556096 17.490615 29.68815183 14.375 28.375 C13.07755859 27.82585937 13.07755859 27.82585937 11.75390625 27.265625 C8.89707814 26.27112983 6.40244279 25.63074103 3.375 25.4375 C2.71113281 25.38722656 2.04726563 25.33695313 1.36328125 25.28515625 C-5.61230679 24.98081122 -12.29924014 26.24736546 -18.1875 30.125 C-20.20892157 33.3768521 -21.01727039 36.60751459 -20.625 40.4375 C-17.9510383 46.00664847 -14.69716946 47.11589357 -9.14257812 49.25439453 C-3.62974129 51.10858715 1.96300219 52.53344822 7.61633301 53.89016724 C48.5612895 63.77306793 48.5612895 63.77306793 59.375 79.4375 C64.72547973 89.00891375 65.02807016 102.42985817 62.25 112.9375 C58.34966597 123.73564699 49.23115502 131.81273488 39.125 136.75 C16.6207403 146.41343941 -10.87567367 145.94995979 -33.625 137.4375 C-44.4573865 133.08895923 -53.23813978 125.9164986 -58.625 115.4375 C-61.0040167 109.62706669 -62.625 104.75393754 -62.625 98.4375 C-50.745 98.4375 -38.865 98.4375 -26.625 98.4375 C-25.305 101.0775 -23.985 103.7175 -22.625 106.4375 C-18.32458172 111.69356679 -12.9631357 114.3247881 -6.625 116.4375 C-3.42169579 116.71629899 -0.21411447 116.71501327 3 116.75 C3.86496094 116.77900391 4.72992187 116.80800781 5.62109375 116.83789062 C11.89066035 116.89898835 17.00813223 115.8042207 22.375 112.4375 C25.79555556 107.87675925 25.89807531 103.92979072 25.375 98.4375 C24.07398103 94.44151317 21.85714538 92.9081032 18.3125 90.9375 C11.46851897 87.76276313 4.1991445 86.01687681 -3.07324219 84.10986328 C-32.64632855 76.31764363 -32.64632855 76.31764363 -45.625 67.4375 C-46.9553125 66.57125 -46.9553125 66.57125 -48.3125 65.6875 C-55.12323144 59.06084238 -57.60117131 50.21546042 -57.875 40.9375 C-57.52549478 29.7339161 -53.60447875 20.87381893 -45.375 13.125 C-32.06525876 2.15494793 -16.70970548 0.0904608 0 0 Z " fill="#85A4C0" transform="translate(976.625,85.5625)"/>
<path d="M0 0 C10.10029147 7.92439171 17.223793 16.58816425 21 29 C21.33 31.97 21.66 34.94 22 38 C10.12 38 -1.76 38 -14 38 C-15.32 34.7 -16.64 31.4 -18 28 C-22.0423348 22.97439457 -27.57816961 19.19767707 -34 18 C-44.30095448 17.20861685 -51.88522055 18.38672123 -60.75 23.625 C-71.43944318 34.90830114 -73.3478625 50.00677934 -73.21484375 64.94921875 C-72.73090105 77.4145006 -69.94101419 89.55048089 -60.8125 98.4375 C-54.81420213 103.36965522 -47.84655948 105.63537309 -40.0703125 105.2890625 C-32.62633449 104.24971463 -25.09971385 102.03856948 -20.375 95.8828125 C-17.96267625 92.34551084 -15.91778153 88.83556305 -14 85 C-2.12 85 9.76 85 22 85 C19.63977828 96.80110861 19.63977828 96.80110861 16.5 102.5 C16.15179199 103.13800537 15.80358398 103.77601074 15.44482422 104.43334961 C7.62884248 118.09152818 -5.3811255 126.44028371 -20.3125 130.65234375 C-41.1738505 135.61415802 -64.21403128 133.91426186 -82.8125 122.75 C-97.6899413 112.62021276 -106.08466526 97.87470831 -109.8125 80.4375 C-113.63439963 59.12236685 -110.97994237 36.82073813 -99.3046875 18.3125 C-97.63925524 16.0815954 -95.89362266 14.03989414 -94 12 C-93.31035156 11.23171875 -92.62070312 10.4634375 -91.91015625 9.671875 C-69.93513991 -13.65485588 -26.52824303 -18.49186647 0 0 Z " fill="#85A4C0" transform="translate(708,96)"/>
<path d="M0 0 C10.10029147 7.92439171 17.223793 16.58816425 21 29 C21.33 31.97 21.66 34.94 22 38 C10.12 38 -1.76 38 -14 38 C-15.32 34.7 -16.64 31.4 -18 28 C-22.0423348 22.97439457 -27.57816961 19.19767707 -34 18 C-44.30095448 17.20861685 -51.88522055 18.38672123 -60.75 23.625 C-71.43944318 34.90830114 -73.3478625 50.00677934 -73.21484375 64.94921875 C-72.73090105 77.4145006 -69.94101419 89.55048089 -60.8125 98.4375 C-54.81420213 103.36965522 -47.84655948 105.63537309 -40.0703125 105.2890625 C-32.62633449 104.24971463 -25.09971385 102.03856948 -20.375 95.8828125 C-17.96267625 92.34551084 -15.91778153 88.83556305 -14 85 C-2.12 85 9.76 85 22 85 C19.63977828 96.80110861 19.63977828 96.80110861 16.5 102.5 C16.15179199 103.13800537 15.80358398 103.77601074 15.44482422 104.43334961 C7.62884248 118.09152818 -5.3811255 126.44028371 -20.3125 130.65234375 C-41.1738505 135.61415802 -64.21403128 133.91426186 -82.8125 122.75 C-97.6899413 112.62021276 -106.08466526 97.87470831 -109.8125 80.4375 C-113.63439963 59.12236685 -110.97994237 36.82073813 -99.3046875 18.3125 C-97.63925524 16.0815954 -95.89362266 14.03989414 -94 12 C-93.31035156 11.23171875 -92.62070312 10.4634375 -91.91015625 9.671875 C-69.93513991 -13.65485588 -26.52824303 -18.49186647 0 0 Z " fill="#85A4C0" transform="translate(558,96)"/>
<path d="M0 0 C11.88 0 23.76 0 36 0 C36 12.54 36 25.08 36 38 C45.9 38 55.8 38 66 38 C66 46.58 66 55.16 66 64 C56.1 64 46.2 64 36 64 C36.06300321 73.78847141 36.13848559 83.57663088 36.23571491 93.36482334 C36.28037212 97.91027096 36.31963842 102.45562992 36.34643555 107.0012207 C36.37251502 111.39100752 36.41295006 115.78045228 36.46318626 120.17002678 C36.47982364 121.84164094 36.49135737 123.51331422 36.49761391 125.18499947 C36.50728932 127.53328116 36.53538814 129.88069392 36.56762695 132.22875977 C36.56619186 132.91424896 36.56475677 133.59973816 36.5632782 134.30599976 C36.65916887 139.27024827 37.75098678 142.65784618 40 147 C44.07502993 149.66702142 49.06699299 149.43338159 53.8125 149.625 C56.514375 149.74875 59.21625 149.8725 62 150 C62 157.92 62 165.84 62 174 C54.10133559 175.9746661 47.65852524 176.33286898 39.625 176.3125 C38.36171875 176.32861328 37.0984375 176.34472656 35.796875 176.36132812 C25.69078433 176.36658077 16.79875084 175.3504224 8.75390625 168.80078125 C1.6029414 161.4586993 -0.31705934 152.08722248 -0.22705078 142.21899414 C-0.22734283 141.36941132 -0.22763489 140.51982849 -0.22793579 139.64450073 C-0.22655105 136.85794587 -0.2110304 134.07166396 -0.1953125 131.28515625 C-0.19157932 129.34460089 -0.18873379 127.40404364 -0.18673706 125.46348572 C-0.17912459 120.37208798 -0.15949667 115.28080552 -0.1373291 110.18945312 C-0.11681917 104.98764607 -0.10772435 99.78582027 -0.09765625 94.58398438 C-0.07624845 84.38926429 -0.04108583 74.1946598 0 64 C-7.92 64 -15.84 64 -24 64 C-24 55.42 -24 46.84 -24 38 C-16.08 38 -8.16 38 0 38 C0 25.46 0 12.92 0 0 Z " fill="#85A4C0" transform="translate(765,51)"/>
<path d="M0 0 C11.88 0 23.76 0 36 0 C36 44.88 36 89.76 36 136 C24.12 136 12.24 136 0 136 C0 91.12 0 46.24 0 0 Z " fill="#85A4C0" transform="translate(856,89)"/>
<path d="M0 0 C11.88 0 23.76 0 36 0 C36 10.89 36 21.78 36 33 C24.12 33 12.24 33 0 33 C0 22.11 0 11.22 0 0 Z " fill="#85A4C0" transform="translate(856,31)"/>
<path d="M0 0 C1.32 0.33 2.64 0.66 4 1 C4.103125 2.051875 4.20625 3.10375 4.3125 4.1875 C4.99317231 7.96213738 5.62326013 10.02907516 8 13 C10.57099402 14.34689915 10.57099402 14.34689915 13 15 C13 14.01 13 13.02 13 12 C10.525 11.505 10.525 11.505 8 11 C8 10.01 8 9.02 8 8 C8.99 8 9.98 8 11 8 C10.67 6.35 10.34 4.7 10 3 C10.66 3 11.32 3 12 3 C12.33 2.34 12.66 1.68 13 1 C13.66666667 3.66666667 14.33333333 6.33333333 15 9 C15.5775 9.144375 16.155 9.28875 16.75 9.4375 C18.11317704 9.77829426 19.47051003 10.14602036 20.8125 10.5625 C23.88504188 11.17700838 26.87676408 11.06006223 30 11 C29.25 17.75 29.25 17.75 27 20 C21.65124377 21.15253928 16.00496214 22.16066108 11.1875 19.125 C10.135625 18.42375 9.08375 17.7225 8 17 C5.63416932 16.41088011 3.4408189 16.19925052 1 16 C1 16.99 1 17.98 1 19 C-3.04161955 17.65515286 -5.38678154 15.9494838 -8.3125 12.875 C-9.00988281 12.15054688 -9.70726563 11.42609375 -10.42578125 10.6796875 C-10.94527344 10.12539062 -11.46476562 9.57109375 -12 9 C-11.34 7.35 -10.68 5.7 -10 4 C-9.2575 4.391875 -8.515 4.78375 -7.75 5.1875 C-5.01601865 6.34321853 -5.01601865 6.34321853 -2.75 4.8125 C-0.76670351 3.01920304 -0.76670351 3.01920304 0 0 Z " fill="#165988" transform="translate(90,120)"/>
<path d="M0 0 C0.99 0.33 1.98 0.66 3 1 C4.0866187 4.17627005 4.25445083 6.32850322 3.05859375 9.484375 C1.04196641 13.55374838 -0.98013815 17.57645481 -4 21 C-7.0625 21.4375 -7.0625 21.4375 -10 21 C-12.27608233 17.5858765 -12.16488977 16.84289339 -11.6875 12.9375 C-11.58824219 12.05964844 -11.48898438 11.18179688 -11.38671875 10.27734375 C-11 8 -11 8 -10 6 C-8.88625 5.525625 -7.7725 5.05125 -6.625 4.5625 C-3.56642783 3.24414993 -2.03127817 2.50922597 0 0 Z " fill="#F7F9FB" transform="translate(144,233)"/>
<path d="M0 0 C0.64995297 1.41478135 1.29478722 2.83191487 1.9375 4.25 C2.29714844 5.03890625 2.65679687 5.8278125 3.02734375 6.640625 C3.90033279 8.75823698 4.51338508 10.76669362 5 13 C1.625 13.125 1.625 13.125 -2 13 C-2.66 12.34 -3.32 11.68 -4 11 C-3.01 8.36 -2.02 5.72 -1 3 C-1.66 2.67 -2.32 2.34 -3 2 C-3 2.99 -3 3.98 -3 5 C-3.66 5 -4.32 5 -5 5 C-5.33 6.98 -5.66 8.96 -6 11 C-10.29 10.34 -14.58 9.68 -19 9 C-17.68 7.68 -16.36 6.36 -15 5 C-13.68 5.66 -12.36 6.32 -11 7 C-11 6.34 -11 5.68 -11 5 C-11.66 4.34 -12.32 3.68 -13 3 C-8.51925805 -0.36055646 -5.39449293 -0.27429625 0 0 Z " fill="#0A5081" transform="translate(82,108)"/>
<path d="M0 0 C0.66 0 1.32 0 2 0 C2.27263672 0.95712891 2.27263672 0.95712891 2.55078125 1.93359375 C2.80214844 2.75988281 3.05351563 3.58617187 3.3125 4.4375 C3.55613281 5.26121094 3.79976563 6.08492187 4.05078125 6.93359375 C4.36402344 7.61550781 4.67726563 8.29742187 5 9 C5.99 9.33 6.98 9.66 8 10 C8.061875 11.051875 8.12375 12.10375 8.1875 13.1875 C9.148717 17.69782593 10.64211492 18.96971347 14 22 C15.375 24.0625 15.375 24.0625 16 26 C15.70814606 27.34302277 15.37901884 28.6789271 15 30 C10.38644072 24.75084348 6.51171731 20.11805028 4.65234375 13.3125 C3.64733419 9.74983137 2.17817144 6.38747226 0.76953125 2.96875 C0 1 0 1 0 0 Z " fill="#125685" transform="translate(116,151)"/>
<path d="M0 0 C0.66 0.33 1.32 0.66 2 1 C1.71848913 2.31471568 1.42446661 3.62675767 1.125 4.9375 C0.96257812 5.66839844 0.80015625 6.39929688 0.6328125 7.15234375 C0 9 0 9 -2 10 C-2.474375 10.825 -2.94875 11.65 -3.4375 12.5 C-5 15 -5 15 -8 16 C-10.00875442 15.72428861 -12.01178687 15.39764263 -14 15 C-12.42883704 13.27172074 -11.20738677 12.09365854 -9.0625 11.125 C-5.02193177 8.92105369 -2.88977376 5.07028195 -1 1 C-0.67 0.67 -0.34 0.34 0 0 Z " fill="#1B5C8A" transform="translate(111,74)"/>
<path d="M0 0 C5.62775683 3.1799558 10.70024145 6.12694031 15 11 C12.525 10.01 12.525 10.01 10 9 C10.33 10.32 10.66 11.64 11 13 C7.64138305 11.56590028 5.64125061 9.80630679 3.25 7.0625 C2.63640625 6.37285156 2.0228125 5.68320312 1.390625 4.97265625 C0 3 0 3 0 0 Z " fill="#1F5F8C" transform="translate(200,41)"/>
<path d="M0 0 C2.54404202 1.13068534 4.23858527 2.21924052 6.3125 4.125 C9.72460063 6.50553532 11.92829904 6.31934909 16 6 C13.75 8.5 13.75 8.5 11 11 C9.68 11 8.36 11 7 11 C6.34 10.01 5.68 9.02 5 8 C4.34 8 3.68 8 3 8 C0.95830515 5.09451118 0 3.59857954 0 0 Z " fill="#175988" transform="translate(144,147)"/>
<path d="M0 0 C-0.375 1.9375 -0.375 1.9375 -1 4 C-1.99 4.495 -1.99 4.495 -3 5 C-3.95067299 8.28414305 -4.10102197 9.69693408 -3 13 C-4.98 12.34 -6.96 11.68 -9 11 C-9.40060526 7.49470398 -9.15413141 6.2260594 -7.125 3.25 C-4.49072613 0.46076885 -3.84107382 0 0 0 Z " fill="#E8EEF3" transform="translate(149,52)"/>
<path d="M0 0 C2 2 2 2 2 4 C2.31478446 5.33783393 2.64587656 6.67203709 3 8 C3.99 8 4.98 8 6 8 C5.34 9.32 4.68 10.64 4 12 C1.36 11.34 -1.28 10.68 -4 10 C-4 9.01 -4 8.02 -4 7 C-3.01 7 -2.02 7 -1 7 C-1.33 5.35 -1.66 3.7 -2 2 C-1.34 2 -0.68 2 0 2 C0 1.34 0 0.68 0 0 Z " fill="#397199" transform="translate(102,121)"/>
<path d="M0 0 C0.99 0 1.98 0 3 0 C3.28875 0.928125 3.5775 1.85625 3.875 2.8125 C4.8875 6.09791667 4.8875 6.09791667 7 9 C7 9.99 7 10.98 7 12 C3.625 12.125 3.625 12.125 0 12 C-0.66 11.34 -1.32 10.68 -2 10 C-1.77183594 9.44570312 -1.54367188 8.89140625 -1.30859375 8.3203125 C-1.02113281 7.59585938 -0.73367187 6.87140625 -0.4375 6.125 C-0.14746094 5.40570313 0.14257812 4.68640625 0.44140625 3.9453125 C1.2537118 1.94350596 1.2537118 1.94350596 0 0 Z " fill="#155887" transform="translate(80,109)"/>
<path d="M0 0 C3.26954202 0.56371414 4.82575883 1.49962266 7 4 C5.875 5.5 5.875 5.5 4 7 C0.8125 7.1875 0.8125 7.1875 -2 7 C-2.33 5.68 -2.66 4.36 -3 3 C-2.34 3 -1.68 3 -1 3 C-0.67 2.01 -0.34 1.02 0 0 Z " fill="#F7F9FB" transform="translate(86,55)"/>
<path d="M0 0 C-0.33 0.66 -0.66 1.32 -1 2 C-1.66 2 -2.32 2 -3 2 C-3 2.99 -3 3.98 -3 5 C-5.31 5.33 -7.62 5.66 -10 6 C-10 4.35 -10 2.7 -10 1 C-6.42181037 -1.33958553 -4.07775191 -0.9267618 0 0 Z " fill="#E3EBF1" transform="translate(131,48)"/>
<path d="M0 0 C0 0.66 0 1.32 0 2 C-4.58335908 3.92205381 -9.27934033 5.45730076 -14 7 C-14.33 6.34 -14.66 5.68 -15 5 C-15.99 4.67 -16.98 4.34 -18 4 C-15.75194998 3.32678716 -13.50147776 2.66165877 -11.25 2 C-9.99703125 1.62875 -8.7440625 1.2575 -7.453125 0.875 C-4 0 -4 0 0 0 Z " fill="#266490" transform="translate(111,31)"/>
<path d="M0 0 C4.0081803 3.67416528 6.52591615 7.14346504 9 12 C9 12.66 9 13.32 9 14 C6.75 13.5625 6.75 13.5625 4 12 C1.69732552 8.1744705 0 4.49189194 0 0 Z " fill="#1D5E8B" transform="translate(231,70)"/>
<path d="M0 0 C1 3 1 3 0 6 C-2.21701147 7.58965571 -4.57862473 8.72327486 -7 10 C-6.34 7.03 -5.68 4.06 -5 1 C-4.67 1.66 -4.34 2.32 -4 3 C-2.68 2.01 -1.36 1.02 0 0 Z " fill="#1A5C8A" transform="translate(256,178)"/>
<path d="M0 0 C0.66 0 1.32 0 2 0 C4 3 4 3 3.625 5.6875 C3.41875 6.450625 3.2125 7.21375 3 8 C1.68 8 0.36 8 -1 8 C-1.04241723 5.66705225 -1.04092937 3.33297433 -1 1 C-0.67 0.67 -0.34 0.34 0 0 Z " fill="#F5F7F9" transform="translate(209,180)"/>
<path d="M0 0 C0.66 0 1.32 0 2 0 C2.27263672 0.95712891 2.27263672 0.95712891 2.55078125 1.93359375 C2.80214844 2.75988281 3.05351563 3.58617187 3.3125 4.4375 C3.55613281 5.26121094 3.79976563 6.08492187 4.05078125 6.93359375 C4.36402344 7.61550781 4.67726563 8.29742187 5 9 C5.99 9.33 6.98 9.66 8 10 C7.67 11.98 7.34 13.96 7 16 C6.731875 15.443125 6.46375 14.88625 6.1875 14.3125 C5.02592309 11.95482625 5.02592309 11.95482625 3.5 9.6875 C1.74955767 6.55129083 0.88447109 3.46984812 0 0 Z " fill="#366F98" transform="translate(116,151)"/>
<path d="M0 0 C0.99 0.33 1.98 0.66 3 1 C2.57692877 2.31722179 2.13602514 3.62872664 1.6875 4.9375 C1.44386719 5.66839844 1.20023437 6.39929688 0.94921875 7.15234375 C0 9 0 9 -3 10 C-2.67 7.69 -2.34 5.38 -2 3 C-1.34 3 -0.68 3 0 3 C0 2.01 0 1.02 0 0 Z " fill="#DFE8EF" transform="translate(79,110)"/>
<path d="M0 0 C1.258125 -0.04125 2.51625 -0.0825 3.8125 -0.125 C4.52019531 -0.14820313 5.22789062 -0.17140625 5.95703125 -0.1953125 C8 0 8 0 11 2 C7.67438135 3.76062164 6.40826005 4.10784228 2.6875 3.125 C1.800625 2.75375 0.91375 2.3825 0 2 C0 1.34 0 0.68 0 0 Z " fill="#DAE5EC" transform="translate(151,44)"/>
<path d="M0 0 C0 0.99 0 1.98 0 3 C-3.50776784 4.60355101 -6.14354879 5.22036864 -10 5 C-5.16129032 0 -5.16129032 0 0 0 Z " fill="#135786" transform="translate(96,36)"/>
<path d="M0 0 C0.99 0 1.98 0 3 0 C3 0.99 3 1.98 3 3 C3.99 3 4.98 3 6 3 C6 3.66 6 4.32 6 5 C3.125 5.125 3.125 5.125 0 5 C-0.66 4.34 -1.32 3.68 -2 3 C-1.34 2.01 -0.68 1.02 0 0 Z " fill="#E8EEF3" transform="translate(167,35)"/>
<path d="M0 0 C1.98 0.66 3.96 1.32 6 2 C6 2.99 6 3.98 6 5 C4.02 4.34 2.04 3.68 0 3 C0 2.01 0 1.02 0 0 Z " fill="#D9E4EB" transform="translate(97,130)"/>
</svg>
