<?xml version="1.0" encoding="UTF-8"?>
<svg id="Layer_1" xmlns="http://www.w3.org/2000/svg" version="1.1" viewBox="0 0 1200 630">
  <!-- Generator: Adobe Illustrator 29.2.1, SVG Export Plug-In . SVG Version: 2.1.0 Build 116)  -->
  <defs>
    <style>
      .st0 {
        fill: #404472;
      }

      .st1 {
        fill: #404473;
      }

      .st2 {
        fill: #50547e;
      }

      .st3 {
        fill: #434775;
      }

      .st4 {
        fill: #4c507b;
      }

      .st5 {
        fill: #444876;
      }

      .st6 {
        fill: #4a4e7a;
      }

      .st7 {
        fill: #414573;
      }

      .st8 {
        fill: #ee7144;
      }

      .st9 {
        fill: #fefefe;
      }

      .st10 {
        fill: #535680;
      }

      .st11 {
        fill: #6fccd9;
      }
    </style>
  </defs>
  <path class="st9" d="M264,165c.8.2,1.7.4,2.5.7,33.2,8.8,64.2,34.9,82.5,63.3.5.7.9,1.4,1.4,2.2,13.7,21.6,23.7,47.8,23.8,73.7,0,.7,0,1.5,0,2.2,0,1.5,0,3.1,0,4.6,0,2.3,0,4.6,0,6.9.1,36.5-13.4,71.8-37.2,99.4-.8.9-1.6,1.9-2.5,2.9-25.7,29.3-63.5,49-102.5,52.1-16.4.7-32.9.7-49-3-.8-.2-1.6-.4-2.4-.5-40.5-9.3-75.7-35.6-97.8-70.4-5.7-9.3-10.1-18.8-13.7-29q-.3-.9-.7-1.9c-1.6-4.7-3-9.4-4.3-14.1q-.3-1-.6-2.1c-10.4-37.6-2.5-80.9,16.2-114.5,6.8-11.6,15-21.8,24.4-31.4.9-.9,1.7-1.8,2.6-2.8,7.1-7.4,14.9-13.5,23.4-19.2.6-.4,1.2-.8,1.8-1.2,38.6-25.5,88.3-31.9,132.2-17.8Z"/>
  <path class="st1" d="M795.3,239.6c.9,0,1.8,0,2.7,0,1,0,1.9,0,2.9,0,1,0,2,0,3,0,2.1,0,4.2,0,6.3,0,3.2,0,6.4-.1,9.6-.2,2,0,4.1,0,6.1,0,1,0,1.9,0,2.9-.1q6.4,0,9,2.5c1.4,2.1,2.4,4.2,3.4,6.5q.5,1,1,2.1c1,2.1,2,4.3,2.9,6.5q.5,1.2,1.1,2.4c1.1,2.6,2.3,5.2,3.4,7.9.8,1.8,1.6,3.6,2.4,5.5,1.2,2.8,2.4,5.6,3.6,8.4,2.7,6.2,5.4,12.3,8.1,18.5.4.8.7,1.6,1.1,2.4,1.3,3,2.7,6,4,9.1.9,2,1.8,4.1,2.7,6.2q.8,1.7,1.6,3.5t1.1,4.7c2.6-2.3,3.8-4.4,5.1-7.6.4-1,.8-2,1.3-3,.5-1.1.9-2.2,1.4-3.4.8-1.8,1.5-3.6,2.3-5.5.9-2.1,1.8-4.3,2.7-6.4,4-9.6,8.1-19.1,12.2-28.7,1-2.3,2-4.7,3-7,1.4-3.3,2.8-6.6,4.3-10q.6-1.5,1.3-3.1c.4-.9.8-1.9,1.2-2.8.3-.8.7-1.6,1.1-2.5,1.2-2.2,2.1-3.6,4.1-5.1q2-.4,4.3-.4c.9,0,1.7,0,2.6,0,.9,0,1.9,0,2.9,0,1,0,1.9,0,2.9,0,2,0,4.1,0,6.1,0,3.1,0,6.3,0,9.4,0,2,0,4,0,6,0,.9,0,1.9,0,2.9,0q1.3,0,2.6,0,1.2,0,2.3,0,1.9.1,3.9,1.1.6,2.6,0,6c-2.2,1.8-4.4,3.1-6.8,4.5-2.5,1.7-3.1,2.7-4.2,5.5q-.3,2.2-.3,4.5c0,.9,0,1.8,0,2.7,0,1,0,1.9,0,2.9,0,1,0,2.1,0,3.1,0,3.4,0,6.8,0,10.2,0,2.4,0,4.7,0,7.1,0,5,0,9.9,0,14.9,0,6.4,0,12.7,0,19.1,0,4.9,0,9.8,0,14.7,0,2.3,0,4.7,0,7,0,3.3,0,6.6,0,9.9,0,1,0,1.9,0,2.9,0,6.5.4,14.4,4.8,19.6,2.2,1.9,4.6,3.4,7,4.9q1.6,1.5,2.1,4.1c-.1.8-.3,1.6-.4,2.4-3.3,2.2-4.2,2.3-8,2.3-1,0-2,0-3.1,0-1.1,0-2.2,0-3.3,0q-1.7,0-3.4,0c-2.4,0-4.7,0-7.1,0-3.6,0-7.3,0-10.9,0-2.3,0-4.6,0-6.9,0q-1.6,0-3.3,0-1.5,0-3.1,0c-.9,0-1.8,0-2.7,0q-2.2-.3-4.2-2.3-.4-2.4,0-5,2.2-2,5-4c5.9-5.3,7.7-10.2,8.1-18.1,0-2.5,0-5,.1-7.5,0-.9,0-1.9,0-2.9,0-3.1,0-6.2,0-9.3,0-2.2,0-4.3,0-6.5,0-5.7.1-11.4.2-17.1,0-5.8.1-11.6.2-17.4.1-11.4.2-22.8.3-34.2h-2c-.4,1.2-.7,2.4-1.1,3.6-2.1,6.2-4.8,12.2-7.4,18.2-1.6,3.6-3.1,7.1-4.7,10.7q-.5,1.1-1,2.2c-3,6.8-5.9,13.6-8.9,20.5-4.1,9.5-8.1,19-12.2,28.5-.6,1.4-1.2,2.7-1.7,4.1-.8,1.9-1.6,3.7-2.4,5.6-.5,1.1-.9,2.1-1.4,3.3q-1.1,2.4-2.1,3.4c-2.1.2-4.2.4-6.3.4-1.2,0-2.3.1-3.5.2q-3.2-.6-5.1-3c-2.9-4.6-4.8-9.7-6.9-14.7-.5-1.1-.9-2.2-1.4-3.3-1.5-3.5-3-7.1-4.5-10.6-1.9-4.6-3.8-9.1-5.8-13.7-.5-1.2-1-2.3-1.5-3.5-7.2-17-14.6-33.9-22.1-50.9,0,11.6-.2,23.3-.2,34.9,0,5.4,0,10.8,0,16.2,0,5.2,0,10.5,0,15.7,0,2,0,4,0,6q-.4,18,6.5,34.2c3.5,2.5,7.1,4.7,10.8,6.8q2.1,1.2,3.1,2.2.2,2.4,0,5c-3.2,2.1-3.9,2.3-7.5,2.3-.9,0-1.8,0-2.8,0-1,0-2,0-3,0q-1.5,0-3.1,0c-2.1,0-4.3,0-6.4,0-3.3,0-6.6,0-9.8,0-2.1,0-4.2,0-6.2,0-1,0-2,0-3,0q-1.4,0-2.8,0c-.8,0-1.6,0-2.4,0q-2-.3-4-2.3-.4-2.4,0-5,1.6-1.7,3.8-3.2c8.1-6.7,9-15.4,10.1-25.4.7-8.2.5-16.5.5-24.7,0-2.1,0-4.2,0-6.4,0-4.4,0-8.8,0-13.3,0-5.7,0-11.3,0-17,0-4.4,0-8.7,0-13.1,0-2.1,0-4.2,0-6.3,0-2.9,0-5.8,0-8.7,0-.9,0-1.7,0-2.6q0-4.6-2.4-8.3c-.7-.3-1.4-.7-2.1-1-.7-.4-1.4-.8-2.1-1.2q-1-.5-2.1-1c-.7-.3-1.4-.7-2.1-1-.5-.3-1.1-.5-1.6-.8q-.1-2.9,0-6c2.4-2.4,3-2.3,6.3-2.4Z"/>
  <path class="st0" d="M525.8,237.6c.9,0,1.8,0,2.7-.1,3.8.8,5.2,2.5,7.6,5.5.5,3,.6,5.3.5,8.3,0,.8,0,1.6,0,2.4,0,2.5,0,5-.1,7.5,0,1.7,0,3.4,0,5.1q-.1,12.3-1.3,14.7-1.9.6-4.3.9t-2.4.4q-2.3-.2-4.4-1.8c-2.3-2.9-3.7-5.9-5.2-9.3-3.2-6.8-6.5-10.9-13.1-14.4-8.3-2.2-17-2-25.6-2.2-1.4,0-2.7,0-4.1-.1-3.3-.1-6.6-.2-9.9-.3,0,6.7,0,13.4,0,20,0,2.3,0,4.5,0,6.8,0,3.3,0,6.5,0,9.8,0,1,0,2,0,3.1,0,.9,0,1.9,0,2.9,0,.8,0,1.7,0,2.5q0,1.9,1.1,2.9c1.5,0,3.1,0,4.6,0,1,0,1.9,0,3,0,1.1,0,2.1,0,3.2,0,2.2,0,4.4,0,6.7,0,3.5,0,7,0,10.6,0,3.4,0,6.8,0,10.2,0,1.1,0,2.1,0,3.2,0q1.5,0,3,0,1.3,0,2.6,0,2.1.2,4.1,2.2,0,2.7-.2,5.9c0,1.1-.2,2.1-.2,3.2-.6,3.1-1.1,3.9-3.6,5.8q-1.9.4-4,.3-1.2,0-2.4,0-1.3,0-2.6,0c-.9,0-1.8,0-2.7,0-2.8,0-5.7,0-8.5-.1-2.8,0-5.7,0-8.5,0-1.8,0-3.5,0-5.3,0-4.8,0-9.3.2-14,1,0,6.7-.1,13.5-.2,20.2,0,2.3,0,4.6,0,6.9,0,3.3,0,6.6,0,9.9,0,1,0,2,0,3.1q-.1,7,3.3,12.9c9.9,4.1,26.4,1.5,36-2,.7-.3,1.5-.5,2.2-.8,8.6-3.7,14.1-11.2,19.1-18.9,1.7-2.4,3.4-4.4,5.6-6.3,3.3-.5,5.2-.4,8.2,1.2q1.8,1.8,2.3,4c-.2,7.2-1.2,14-2.7,21-.2,1-.4,2.1-.6,3.2-1.5,7.1-2.8,12.3-9.1,16.5q-3.2.2-7,.2-1.9,0-3.8,0c-3,0-5.9-.3-8.9-.7-7.4-.7-14.7-.7-22.1-.7-2.6,0-5.2,0-7.8,0-7.4,0-14.8-.1-22.2-.2-4.5,0-9.1,0-13.6-.1-1.7,0-3.5,0-5.2,0-2.4,0-4.8,0-7.2,0-.7,0-1.4,0-2.2,0q-4.9,0-7.1-2.3-.4-2.4,0-5c2.1-1.8,4.3-3.1,6.6-4.6,6.2-6.4,7-15.8,6.9-24.3,0-1,0-2.1,0-3.1,0-3.4,0-6.7,0-10.1,0-2.3,0-4.7,0-7,0-4.9,0-9.8,0-14.7,0-6.3,0-12.6,0-18.8,0-4.8,0-9.7,0-14.5,0-2.3,0-4.6,0-6.9,0-3.2,0-6.5,0-9.7,0-1,0-1.9,0-2.9,0-5.8-.8-8.9-4.5-13.4q-2.1-1.9-4.2-3.4c-.7-.5-1.4-1-2.1-1.5-.5-.4-1.1-.7-1.6-1.1q.4-2.4,1-5c3.1-1.6,6.4-1.2,9.8-1.2.8,0,1.6,0,2.4,0,1.8,0,3.5,0,5.3,0,2.8,0,5.6,0,8.3,0,5.9,0,11.8-.1,17.7-.2,6.8,0,13.7-.1,20.5-.2,2.7,0,5.5,0,8.2,0,1.7,0,3.4,0,5.1,0q1.1,0,2.3,0c4.5,0,9-.4,13.5-.9,2.6-.3,5.1-.5,7.7-.6Z"/>
  <path class="st7" d="M1075,245c4,3.4,6.7,7.8,7.2,13.1,0,2.5.1,4.9.1,7.4,0,.8,0,1.7,0,2.5,0,5.1-.6,8.6-3.4,13q-1,1-3.8,1.4c-3.4-.4-4.6-1-6.9-3.6-1.7-2.3-3.2-4.7-4.7-7.2-6-9.6-12.8-15-23.6-18.6-12.5-.9-22.6.6-32.4,8.8q-1.6,1.2-3.6,1.2c-.3.6-.5,1.2-.8,1.8-1.2,2.2-2.5,4.2-4,6.2-12.2,18.2-11.9,39.4-8.2,60.2,3.1,15.4,11,29.6,24,38.8,6.9,4.2,13.4,5.4,21.3,5.5.8,0,1.5,0,2.3,0,5-.1,10.7-.8,14.4-4.5.1-2.5.2-4.9.2-7.4,0-.7,0-1.5,0-2.2,0-1.6,0-3.1,0-4.7,0-2.4,0-4.8,0-7.2,0-1.5,0-3.1,0-4.6q0-1.1,0-2.2c0-4.8-.3-8.8-3.8-12.3-3.1-1.8-6.2-3.2-9.5-4.6q-1.9-.9-2.9-1.9t0-5q2-2,4.3-2.2c.9,0,1.9,0,2.9,0,1.1,0,2.1,0,3.3,0,1.2,0,2.3,0,3.5,0q1.8,0,3.6,0c2.5,0,5,0,7.6,0,3.9,0,7.7,0,11.6,0,2.4,0,4.9,0,7.3,0,1.2,0,2.3,0,3.5,0,1.1,0,2.1,0,3.3,0,.9,0,1.9,0,2.9,0q2.3.1,4.3,1.1.6,2.6,0,6c-2.2,1.8-4.4,3.1-6.8,4.5-2.6,1.8-3.1,2.6-4.2,5.5-.2,2.9-.3,5.6-.3,8.5,0,1.7,0,3.4,0,5.1,0,2.7,0,5.3,0,8,0,2.6,0,5.1,0,7.7,0,.8,0,1.6,0,2.4,0,5.2-1.1,8.2-4.6,12.4-18.3,13.3-40.5,15.3-62.5,12.7-13-2.2-25.7-9-35.5-17.7q-1-.9-2-1.8c-15.3-14.1-20.9-34-22.2-54.1-.6-19.9,5.8-39.3,19.2-54.1q.9-1,1.9-2.1c23.4-24.7,66.9-33.2,97.1-15.9Z"/>
  <path class="st5" d="M264,165c.8.2,1.7.4,2.5.7,33.2,8.8,64.2,34.9,82.5,63.3.5.7.9,1.4,1.4,2.2,13.7,21.6,23.7,47.8,23.8,73.7,0,.7,0,1.5,0,2.2,0,1.5,0,3.1,0,4.6,0,2.3,0,4.6,0,6.9.1,36.5-13.4,71.8-37.2,99.4-.8.9-1.6,1.9-2.5,2.9-25.7,29.3-63.5,49-102.5,52.1-16.4.7-32.9.7-49-3-.8-.2-1.6-.4-2.4-.5-40.5-9.3-75.7-35.6-97.8-70.4-5.7-9.3-10.1-18.8-13.7-29q-.3-.9-.7-1.9c-1.6-4.7-3-9.4-4.3-14.1q-.3-1-.6-2.1c-10.4-37.6-2.5-80.9,16.2-114.5,6.8-11.6,15-21.8,24.4-31.4.9-.9,1.7-1.8,2.6-2.8,7.1-7.4,14.9-13.5,23.4-19.2.6-.4,1.2-.8,1.8-1.2,38.6-25.5,88.3-31.9,132.2-17.8ZM117.1,205.1q-2.1,1.9-5.2,4.3c-4.6,4.1-8.2,8.8-11.9,13.6-.7.9-1.5,1.8-2.2,2.8-24.7,31.4-33.5,71.1-29,110.4,4.8,36.5,24.9,72.7,53.9,95.5,19.5,14.9,40.2,25.4,64.3,30.3.7.1,1.4.3,2.2.5,37.7,7.5,76.9-.3,109-21.3,32.7-22,56.1-54.7,64.8-93.2l.9-3.6c7.7-35.2.6-74.9-18.4-105.4-4.7-7.3-9.9-14.3-15.5-21-.8-.9-1.5-1.8-2.3-2.7-5.7-6.5-11.8-12-18.7-17.3-.9-.7-1.7-1.4-2.6-2.1-56.2-42.3-137.7-39.1-189.3,9.1Z"/>
  <path class="st7" d="M660,246c3,2.8,5.9,5.9,6.1,10.1,0,2.7,0,5.5,0,8.2,0,1,0,1.9,0,2.9q0,8.8-2.2,12.8c-1.6,1.6-3.1,1.3-5.3,1.4-.8,0-1.6,0-2.4.1-3.4-.8-4.4-2.7-6.3-5.5-1.1-1.8-2.1-3.5-3.2-5.3-5.3-8.3-11.4-14.1-20.9-17.1-10-2.1-19.8-1.1-28.7,4-9.6,6.4-16.5,15.4-20.2,26.4-.4,1.1-.7,2.1-1.1,3.2-4.8,16-5.2,34.9.1,50.8.3.9.6,1.9.9,2.9,2.2,6.6,5.3,12.3,9.1,18.1q.9,1.3,1.8,2.7c8.3,8.6,18.4,13.4,30.3,13.8,9.7-.3,16.6-3.3,23.6-9.9,3.9-4.4,6.9-9.3,10-14.2,1.8-2.8,3.7-5.2,6.3-7.4q3-.5,6,0c2.8,2.2,3.8,3.5,5,7,.8,9.7.2,20.3-5.8,28.4-9.5,9.6-24.4,11.6-37.2,11.9-2.5,0-4.9,0-7.4,0-1.2,0-2.4,0-3.7,0-11.4,0-22-1.7-32.2-7.2-.7-.4-1.4-.7-2.1-1.1-4.9-2.6-9.4-5.5-13.6-9.1-1-.7-1.9-1.4-2.9-2.1-12.7-10.9-21.4-29.4-23.1-45.9-1.6-23.7,3.2-44.8,19-63,.6-.8,1.2-1.6,1.9-2.5,21-25,70.6-33.1,98.1-14.5Z"/>
  <path class="st7" d="M781.3,239.6c2.3,3.2,2.3,5.5,2.4,9.4q0,1,0,2.1c0,2.3.1,4.6.2,6.9,0,.9,0,1.7,0,2.6,0,2.7.1,5.4.2,8.1,0,.9,0,1.7,0,2.6,0,3.5,0,6-1.6,9.2-2.4,2-4.7,2-7.7,2.1-3.2-1-4.2-2.9-6-5.6-1.5-2.9-2.9-5.9-4.3-8.9-2.6-5.5-5.7-8-11-10.8-8.4-3-17.3-2.5-26.1-2.4q-1.9,0-3.9,0c-1.2,0-2.4,0-3.7,0-1.1,0-2.2,0-3.4,0q-2.5-.2-3.6,1.1c0,1.6-.1,3.2-.1,4.8q0,1.5,0,3.1c0,1.1,0,2.2,0,3.4,0,1.1,0,2.3,0,3.4,0,2.4,0,4.8,0,7.2,0,3.7,0,7.3,0,11,0,2.3,0,4.6,0,6.9,0,1.1,0,2.2,0,3.4,0,1,0,2,0,3.1,0,.9,0,1.8,0,2.7q-.1,2,1.1,3c1.5,0,3.1,0,4.6,0,1,0,1.9,0,3,0,1.1,0,2.1,0,3.2,0,2.2,0,4.4,0,6.7,0,3.5,0,7,0,10.6,0,3.4,0,6.8,0,10.2,0,1.1,0,2.1,0,3.2,0q1.5,0,3,0t2.6,0,4.1,2.2c.3,5.1.2,9.3-2,14-2.9,1.9-5.2,2.2-8.7,2.2q-1.4,0-2.8,0c-1,0-2,0-3,0q-1.5,0-3.1,0c-3.2,0-6.5,0-9.7,0-2.2,0-4.4,0-6.6,0-5.4,0-10.8,0-16.2,0,0,4.8,0,9.6-.1,14.4,0,1.6,0,3.3,0,4.9q-.8,16.3,5.2,30.7c2.1,1.5,4.2,3,6.4,4.4q1.6,1.6,2.1,4.2c-.1.8-.3,1.6-.4,2.4-3.2,2.2-4.1,2.3-7.9,2.3q-1.5,0-3,0c-1.1,0-2.1,0-3.2,0q-1.6,0-3.3,0c-2.3,0-4.6,0-7,0-3.6,0-7.1,0-10.7,0-2.3,0-4.5,0-6.8,0-1.1,0-2.1,0-3.2,0-1,0-2,0-3,0q-1.3,0-2.6,0c-2.7-.5-3.6-1.2-5.2-3.4q-.2-2.3,1-5c1.9-1.6,4-3.1,6.1-4.5,3.3-2.5,4.6-5,5.5-9,.6-4.6.6-9.2.6-13.8,0-1,0-2.1,0-3.1,0-3.4,0-6.8,0-10.1,0-2.4,0-4.7,0-7.1,0-4.9,0-9.9,0-14.8,0-6.3,0-12.6,0-18.9,0-4.9,0-9.7,0-14.6,0-2.3,0-4.7,0-7,0-3.3,0-6.5,0-9.8q0-1.4,0-2.9c0-5.2-.4-8.9-3.4-13.4q-2-1.6-4.2-2.6-2.1-1.2-3.8-2.4-.6-2.7,0-5c2.9-2.9,5-2.3,9.1-2.3.7,0,1.5,0,2.2,0,2.4,0,4.8,0,7.3,0,1.7,0,3.4,0,5.1,0,4.5,0,8.9,0,13.4-.1,7.1,0,14.2-.1,21.3-.2,2.5,0,4.9,0,7.4,0,8.4,0,16.7-.3,25-1q15.1-1.1,18.7,1.3Z"/>
  <path class="st4" d="M199.1,297.7c.8,0,1.6,0,2.5,0q1.3,0,2.7,0c.9,0,1.8,0,2.8,0,1.9,0,3.9,0,5.8,0,3,0,5.9,0,8.8-.1,1.9,0,3.8,0,5.6,0,.9,0,1.8,0,2.7,0,4.3,0,7.1.3,10.5,3,3,3.1,3.6,4.4,3.6,8.6,0,.8,0,1.7,0,2.5,0,.9,0,1.8,0,2.8q0,1.5,0,2.9c0,3.2,0,6.4,0,9.6,0,2.2,0,4.5,0,6.7,0,4.7,0,9.3,0,14,0,6,0,12,0,18,0,4.6,0,9.2,0,13.8,0,2.2,0,4.4,0,6.6,0,3.1,0,6.2,0,9.3q0,1.4,0,2.8c0,4.8-.2,8-3.4,11.9-4.3,3.6-8.6,3.5-14,3.4-.9,0-1.7,0-2.6,0-1.8,0-3.7,0-5.5,0-2.8,0-5.6,0-8.4,0-1.8,0-3.6,0-5.3,0-.8,0-1.7,0-2.5,0-5.3,0-8.5-.9-12.7-4.5-1.8-2.9-2.2-5-2.2-8.4,0-.9,0-1.7,0-2.6,0-.9,0-1.8,0-2.8,0-.9,0-1.9,0-2.9,0-3,0-6.1,0-9.1,0-2.1,0-4.1,0-6.2,0-5,0-10.1,0-15.1h8c.3,13.9.7,27.7,1,42q19.3.5,39,1v-99c-12.9.3-25.7.7-39,1-.3,10.6-.7,21.1-1,32h-8c0-4.6-.2-9.2-.2-13.8,0-1.6,0-3.1,0-4.7,0-2.2,0-4.5,0-6.7,0-.7,0-1.4,0-2.1,0-5,1.3-7.8,4.5-11.7,3-2,3.7-2.3,7.1-2.3Z"/>
  <path class="st11" d="M139.2,297.9q1.3,0,2.6,0c.9,0,1.9,0,2.8,0,1,0,1.9,0,2.9,0,3,0,6.1,0,9.1,0,2.1,0,4.1,0,6.2,0,5.1,0,10.1,0,15.2,0v7c-13.2.3-26.4.7-40,1-.3,13.2-.7,26.4-1,40h89v8c-11.6.1-23.3.2-34.9.3-5.4,0-10.8,0-16.2.1-5.2,0-10.4,0-15.6,0-2,0-4,0-6,0-2.8,0-5.6,0-8.4,0-.8,0-1.6,0-2.5,0-4.1,0-6.7-.4-10-3-3-3.2-3.6-4.5-3.7-8.7,0-.8,0-1.7,0-2.6,0-.9,0-1.8,0-2.8,0-.9,0-1.9,0-2.8,0-2,0-4,0-6,0-3,0-6.1-.1-9.1,0-1.9,0-3.9,0-5.8,0-.9,0-1.8,0-2.8,0-4.2.1-6.5,2.4-10.1,2.9-2.7,4.4-3.1,8.3-3.1Z"/>
  <path class="st3" d="M216.4,218.6c.8,0,1.7,0,2.5,0,8.8.2,15.9,2.5,22.5,8.6,7.5,9,8.3,19.4,7.8,30.6-.8,7.6-4.4,14.8-10.2,19.8-9.8,7-19.4,7.6-31,6.5-7.4-1.2-13.8-5-18.5-10.9-4.5-6.7-5.8-13.5-5.8-21.5q0-1.1,0-2.3c.2-9,2.5-16.2,8.8-23,6.8-6.4,14.8-8,23.9-7.8ZM196.1,233.9c-5.5,6.9-5.8,13.5-5.1,22.1,1.2,6.9,3.5,12.5,9,17,7.3,4.9,15.3,5,23.8,3.5,5.4-1.4,9.4-3.3,13.2-7.5,4.9-8.7,6.7-17.9,3.9-27.6-2.2-5.7-5.6-10.4-10.9-13.5-12-4.8-25.2-3.3-33.9,6Z"/>
  <path class="st8" d="M254,298c5.9,0,11.8-.1,17.7-.2,2,0,4,0,6,0,2.9,0,5.8,0,8.6,0,.9,0,1.8,0,2.7,0,4.8,0,8.1.1,12,3.3,2.1,3.1,2.3,3.8,2.3,7.3,0,.9,0,1.7,0,2.6,0,.9,0,1.9,0,2.8q0,1.4,0,2.9c0,2,0,4.1,0,6.1,0,3.1,0,6.2.1,9.3,0,2,0,4,0,5.9,0,.9,0,1.9,0,2.8,0,4.6-.1,6.5-3,10.3-3.2,2.4-4.7,3.1-8.7,3.1q-1.3,0-2.5,0t-2.8,0c-.9,0-1.9,0-2.8,0-3,0-6,0-8.9,0-2,0-4,0-6,0-4.9,0-9.9,0-14.8,0v-8c13.5-.3,27.1-.7,41-1,.3-12.9.7-25.7,1-39h-42v-8Z"/>
  <path class="st6" d="M1126,241h5c.4,1.1.8,2.1,1.3,3.2.6,1.4,1.1,2.8,1.7,4.2.3.7.6,1.4.8,2.1q1.2,3.5,3.2,6.4c2-4.9,4-9.9,6-15h6v23h-4c-.3-5.3-.7-10.6-1-16-2,5.3-4,10.6-6,16-1.3-.3-2.6-.7-4-1-2.1-4.2-3.4-8.6-5-13-.3,4.6-.7,9.2-1,14h-3v-24Z"/>
  <path class="st2" d="M1103,242h19v2h-7v21h-4v-21h-8v-2Z"/>
  <path class="st10" d="M1144,242h6v23h-4c-.3-5.3-.7-10.6-1-16-1,1-2,2-3,3-1.4-4.2.2-6.1,2-10Z"/>
</svg>