<?xml version="1.0" encoding="UTF-8"?>
<svg xmlns="http://www.w3.org/2000/svg" xmlns:xlink="http://www.w3.org/1999/xlink" viewBox="0 0 1475.05 1116.42">
  <defs>
    <style>
      .cls-1 {
        fill: #ff525a;
      }

      .cls-1, .cls-2, .cls-3, .cls-4, .cls-5, .cls-6, .cls-7, .cls-8, .cls-9, .cls-10, .cls-11, .cls-12, .cls-13, .cls-14, .cls-15, .cls-16, .cls-17, .cls-18, .cls-19, .cls-20, .cls-21, .cls-22, .cls-23, .cls-24, .cls-25, .cls-26, .cls-27, .cls-28, .cls-29, .cls-30, .cls-31, .cls-32, .cls-33, .cls-34, .cls-35, .cls-36, .cls-37, .cls-38, .cls-39, .cls-40, .cls-41, .cls-42, .cls-43, .cls-44, .cls-45, .cls-46, .cls-47, .cls-48, .cls-49, .cls-50, .cls-51, .cls-52, .cls-53, .cls-54, .cls-55, .cls-56, .cls-57, .cls-58, .cls-59 {
        stroke-width: 0px;
      }

      .cls-2 {
        fill: #2b778f;
        opacity: .07;
      }

      .cls-2, .cls-29, .cls-34, .cls-36, .cls-37 {
        mix-blend-mode: multiply;
      }

      .cls-3 {
        fill: #d9444f;
      }

      .cls-4 {
        fill: url(#linear-gradient);
      }

      .cls-5 {
        fill: #5f5363;
      }

      .cls-6 {
        fill: #0099ce;
      }

      .cls-7 {
        fill: #5eb258;
      }

      .cls-8 {
        fill: #5e6280;
      }

      .cls-9 {
        fill: #ecf3fa;
      }

      .cls-10 {
        fill: #e2bca5;
      }

      .cls-11 {
        fill: #00b9e3;
      }

      .cls-12 {
        fill: #f9baa9;
      }

      .cls-13 {
        fill: #add036;
      }

      .cls-60 {
        isolation: isolate;
      }

      .cls-14 {
        fill: #8a553a;
      }

      .cls-15 {
        fill: #f6d9b7;
      }

      .cls-16 {
        fill: #b55e50;
      }

      .cls-17 {
        fill: #f3eef3;
      }

      .cls-18 {
        fill: #59559d;
      }

      .cls-19, .cls-61, .cls-56 {
        mix-blend-mode: overlay;
      }

      .cls-19, .cls-48, .cls-56 {
        fill: #fff;
      }

      .cls-20 {
        fill: #494865;
      }

      .cls-21 {
        fill: #c9dafc;
      }

      .cls-22 {
        fill: #4fa050;
      }

      .cls-23 {
        fill: #d95675;
      }

      .cls-24 {
        fill: #74462e;
      }

      .cls-25 {
        fill: #9ca9af;
      }

      .cls-26 {
        fill: #76c059;
      }

      .cls-27 {
        fill: #f1f1f2;
      }

      .cls-28 {
        fill: #ef6583;
      }

      .cls-29 {
        fill: #7b4196;
        opacity: .15;
      }

      .cls-30 {
        fill: #5f65a6;
      }

      .cls-31 {
        fill: #f177a2;
      }

      .cls-32 {
        fill: #7270df;
      }

      .cls-33 {
        fill: #018cf1;
      }

      .cls-34 {
        fill: #2c788f;
        opacity: .08;
      }

      .cls-35 {
        fill: #ff8798;
      }

      .cls-36 {
        fill: #26a9e0;
        opacity: .46;
      }

      .cls-37 {
        fill: #009345;
        opacity: .1;
      }

      .cls-38 {
        fill: #f6a3a8;
      }

      .cls-39 {
        fill: #f9b9a8;
      }

      .cls-40 {
        fill: #edeced;
      }

      .cls-41 {
        fill: #524556;
      }

      .cls-42 {
        fill: #fcd9bb;
      }

      .cls-43 {
        fill: #fcb87a;
      }

      .cls-44 {
        fill: #f2a355;
      }

      .cls-45 {
        fill: #b8bcfc;
      }

      .cls-46 {
        fill: #fecc5d;
      }

      .cls-47 {
        fill: #5e71b5;
      }

      .cls-49 {
        fill: #d2d2d2;
      }

      .cls-50 {
        fill: #415393;
      }

      .cls-51 {
        fill: #3d3e5a;
      }

      .cls-52 {
        fill: #4e5ea6;
      }

      .cls-53 {
        fill: #bec0c0;
      }

      .cls-54 {
        fill: #5a74b7;
      }

      .cls-55 {
        fill: #81e77a;
      }

      .cls-56 {
        opacity: .3;
      }

      .cls-57 {
        fill: #f28d55;
      }

      .cls-58 {
        fill: #ff7a90;
      }

      .cls-59 {
        fill: #e5e2e6;
      }
    </style>
    <linearGradient id="linear-gradient" x1="-5530.4" y1="6.98" x2="-5530.4" y2="419.94" gradientTransform="translate(6745.01)" gradientUnits="userSpaceOnUse">
      <stop offset="0" stop-color="#52afe7"/>
      <stop offset="1" stop-color="#2c78e7"/>
    </linearGradient>
  </defs>
  <g class="cls-60">
    <g id="Object">
      <g>
        <g>
          <polygon class="cls-24" points="734.71 375.64 734.71 447.92 717.06 437.77 717.06 365.48 734.71 375.64"/>
          <polygon class="cls-14" points="734.71 375.63 734.71 447.91 752.46 437.67 752.46 365.39 734.71 375.63"/>
          <g>
            <polygon class="cls-7" points="734.57 343.58 734.57 406.7 661.54 364.68 661.54 301.56 734.57 343.58"/>
            <polygon class="cls-26" points="661.54 301.56 734.57 343.58 807.97 301.21 734.95 259.2 661.54 301.56"/>
            <polygon class="cls-22" points="734.57 343.54 734.57 406.66 807.97 364.29 807.97 301.17 734.57 343.54"/>
          </g>
          <g>
            <polygon class="cls-7" points="734.57 267.72 734.57 330.84 661.54 288.81 661.54 225.69 734.57 267.72"/>
            <polygon class="cls-26" points="661.54 225.69 734.57 267.72 807.97 225.35 734.95 183.33 661.54 225.69"/>
            <polygon class="cls-22" points="734.57 267.67 734.57 330.79 807.97 288.42 807.97 225.31 734.57 267.67"/>
          </g>
          <g>
            <polygon class="cls-7" points="734.57 191.85 734.57 254.97 661.54 212.94 661.54 149.83 734.57 191.85"/>
            <polygon class="cls-26" points="661.54 149.83 734.57 191.85 807.97 149.48 734.95 107.46 661.54 149.83"/>
            <polygon class="cls-22" points="734.57 191.81 734.57 254.93 807.97 212.56 807.97 149.44 734.57 191.81"/>
          </g>
        </g>
        <g>
          <polygon class="cls-45" points="232.77 381.23 179.58 597.15 552.31 381.95 605.5 166.03 232.77 381.23"/>
          <polygon class="cls-48" points="552.31 381.95 709.09 472.68 336.37 687.88 179.58 597.15 552.31 381.95"/>
          <polygon class="cls-48" points="247.05 389.42 336.54 687.88 709.09 472.13 619.77 174.21 247.05 389.42"/>
          <polygon class="cls-58" points="605.5 165.97 619.77 174.21 247.05 389.42 232.77 381.17 605.5 165.97"/>
          <path class="cls-21" d="M179.58,597.15l156.95,90.73-89.49-298.46-14.28-8.24-53.19,215.98ZM314.7,660.26l-120.18-69.47,44.8-181.93,75.38,251.4Z"/>
          <polygon class="cls-28" points="639.26 239.21 266.7 454.96 247.05 389.42 619.77 174.21 639.26 239.21"/>
          <path class="cls-45" d="M637.33,317.76l42.33,141.19-327.96,189.99-42.33-141.19,327.96-189.99M641.32,307.69l-339.9,196.91,46.3,154.41,339.9-196.91-46.29-154.41h0Z"/>
          <polygon class="cls-46" points="599.67 348.41 607.78 375.46 641.55 355.91 633.45 328.91 599.67 348.41"/>
          <polygon class="cls-45" points="559.45 371.69 567.56 398.74 601.33 379.19 593.23 352.19 559.45 371.69"/>
          <polygon class="cls-45" points="519.23 394.97 527.34 422.02 561.11 402.47 553.02 375.46 519.23 394.97"/>
          <polygon class="cls-45" points="479.02 418.25 487.13 445.3 520.89 425.74 512.8 398.74 479.02 418.25"/>
          <polygon class="cls-45" points="438.8 441.52 446.91 468.58 480.68 449.02 472.58 422.02 438.8 441.52"/>
          <polygon class="cls-45" points="398.58 464.8 406.69 491.85 440.46 472.3 432.36 445.3 398.58 464.8"/>
          <polygon class="cls-35" points="358.37 488.08 366.48 515.13 400.24 495.58 392.15 468.58 358.37 488.08"/>
          <polygon class="cls-35" points="318.15 511.36 326.26 538.41 360.02 518.86 351.93 491.85 318.15 511.36"/>
          <polygon class="cls-45" points="610.05 381.46 618.16 408.51 651.93 388.95 643.83 361.95 610.05 381.46"/>
          <polygon class="cls-45" points="569.84 404.73 577.95 431.78 611.71 412.23 603.62 385.23 569.84 404.73"/>
          <polygon class="cls-28" points="529.62 428.01 537.73 455.06 571.5 435.51 563.4 408.51 529.62 428.01"/>
          <polygon class="cls-45" points="489.4 451.29 497.51 478.34 531.28 458.79 523.18 431.78 489.4 451.29"/>
          <polygon class="cls-45" points="449.18 474.57 457.29 501.62 491.06 482.06 482.97 455.06 449.18 474.57"/>
          <polygon class="cls-45" points="408.97 497.85 417.08 524.9 450.84 505.34 442.75 478.34 408.97 497.85"/>
          <polygon class="cls-35" points="368.75 521.12 376.86 548.17 410.63 528.62 402.53 501.62 368.75 521.12"/>
          <polygon class="cls-35" points="328.53 544.4 336.64 571.45 370.41 551.9 362.31 524.9 328.53 544.4"/>
          <polygon class="cls-45" points="620.44 414.5 628.55 441.55 662.32 422 654.22 394.99 620.44 414.5"/>
          <polygon class="cls-28" points="580.22 437.78 588.33 464.83 622.1 445.27 614 418.27 580.22 437.78"/>
          <polygon class="cls-45" points="540 461.05 548.11 488.11 581.88 468.55 573.78 441.55 540 461.05"/>
          <polygon class="cls-46" points="499.79 484.33 507.9 511.38 541.66 491.83 533.57 464.83 499.79 484.33"/>
          <polygon class="cls-46" points="459.57 507.61 467.68 534.66 501.45 515.11 493.35 488.11 459.57 507.61"/>
          <polygon class="cls-45" points="419.35 530.89 427.46 557.94 461.23 538.38 453.13 511.38 419.35 530.89"/>
          <polygon class="cls-35" points="379.13 554.17 387.25 581.22 421.01 561.66 412.92 534.66 379.13 554.17"/>
          <polygon class="cls-35" points="338.92 577.44 347.03 604.49 380.79 584.94 372.7 557.94 338.92 577.44"/>
          <polygon class="cls-45" points="630.82 447.54 638.93 474.59 672.7 455.04 664.6 428.04 630.82 447.54"/>
          <polygon class="cls-45" points="590.61 470.82 598.72 497.87 632.48 478.32 624.39 451.31 590.61 470.82"/>
          <polygon class="cls-45" points="550.39 494.1 558.5 521.15 592.27 501.59 584.17 474.59 550.39 494.1"/>
          <polygon class="cls-45" points="510.17 517.37 518.28 544.43 552.05 524.87 543.95 497.87 510.17 517.37"/>
          <polygon class="cls-45" points="469.95 540.65 478.06 567.7 511.83 548.15 503.74 521.15 469.95 540.65"/>
          <polygon class="cls-45" points="429.74 563.93 437.85 590.98 471.61 571.43 463.52 544.43 429.74 563.93"/>
          <polygon class="cls-35" points="389.52 587.21 397.63 614.26 431.4 594.7 423.3 567.7 389.52 587.21"/>
          <polygon class="cls-35" points="349.3 610.49 357.41 637.54 391.18 617.98 383.08 590.98 349.3 610.49"/>
          <polygon class="cls-45" points="635.6 291.22 510.66 363.58 504.07 341.59 629.07 269.42 635.6 291.22"/>
        </g>
        <g>
          <g>
            <polygon class="cls-45" points="980.24 1019.51 980.24 1059.39 1459.03 782.46 1459.03 743.01 980.24 1019.51"/>
            <polygon class="cls-48" points="1459.03 743.01 980.24 1019.51 494.87 739.56 973.22 462.82 1459.03 743.01"/>
            <polygon class="cls-21" points="980.24 1019.51 980.24 1059.39 494.87 779.44 494.87 739.56 980.24 1019.51"/>
          </g>
          <polygon class="cls-11" points="973.84 506.08 1378.78 739.62 979.69 970.1 575.11 736.75 973.84 506.08"/>
          <polygon class="cls-45" points="973.84 519.68 586.89 743.55 575.11 736.75 973.84 506.08 1378.78 739.62 1367 746.43 973.84 519.68"/>
        </g>
        <g>
          <g>
            <polygon class="cls-45" points="980.24 898.56 980.24 938.43 1459.03 661.5 1459.03 622.05 980.24 898.56"/>
            <polygon class="cls-48" points="1459.03 622.05 980.24 898.56 494.87 618.61 973.22 341.87 1459.03 622.05"/>
            <polygon class="cls-21" points="980.24 898.56 980.24 938.43 494.87 658.48 494.87 618.61 980.24 898.56"/>
          </g>
          <polygon class="cls-13" points="973.84 385.12 1378.78 618.67 979.69 849.15 575.11 615.8 973.84 385.12"/>
          <polygon class="cls-45" points="973.84 398.72 586.89 622.59 575.11 615.8 973.84 385.12 1378.78 618.67 1367 625.47 973.84 398.72"/>
        </g>
        <g>
          <g>
            <polygon class="cls-21" points="835.24 551.64 724.15 486.83 724.15 564.82 835.24 629.46 835.24 551.64"/>
            <polygon class="cls-42" points="858.66 408.48 724.15 486.83 835.23 551.65 969.91 473.2 858.66 408.48"/>
            <polygon class="cls-45" points="929.59 496.71 835.23 551.65 835.24 629.46 929.59 574.7 929.59 496.71"/>
          </g>
          <g>
            <polygon class="cls-21" points="929.35 418.9 819.26 354.64 819.26 372.63 929.35 436.71 929.35 418.9"/>
            <polygon class="cls-48" points="967.44 268.51 819.25 354.65 929.34 418.91 1077.84 332.51 967.44 268.51"/>
            <polygon class="cls-45" points="1077.85 332.51 929.34 418.91 929.35 496.72 1077.85 410.5 1077.85 332.51"/>
          </g>
          <polygon class="cls-41" points="841.63 441.35 841.63 385.64 911.97 426.37 911.97 482.19 841.63 441.35"/>
          <polygon class="cls-36" points="897.4 515.54 897.4 495.08 835.23 531.2 835.23 551.65 897.4 515.54 897.4 515.54"/>
          <polygon class="cls-36" points="841.63 418.37 841.63 397.92 724.15 466.38 724.15 486.83 786.31 450.72 841.63 418.37"/>
          <g>
            <g>
              <polygon class="cls-27" points="835.23 611.81 759.82 567.95 756.12 570.1 835.23 616.12 835.23 611.81"/>
              <polygon class="cls-41" points="759.82 567.95 759.82 521.89 835.23 565.64 835.23 611.81 759.82 567.95"/>
              <polygon class="cls-45" points="756.12 519.76 756.12 570.1 759.82 567.95 759.82 521.89 756.12 519.76"/>
            </g>
            <g>
              <polygon class="cls-27" points="835.23 611.81 862.83 595.89 866.53 598.03 835.23 616.12 835.23 611.81"/>
              <polygon class="cls-5" points="862.83 595.89 862.83 549.9 835.23 565.64 835.23 611.81 862.83 595.89"/>
              <polygon class="cls-21" points="866.53 547.77 866.53 598.03 862.83 595.89 862.83 549.9 866.53 547.77"/>
            </g>
          </g>
          <g>
            <polygon class="cls-45" points="862.13 397.51 862.13 454.59 863.32 453.9 863.32 398.2 862.13 397.51"/>
            <polygon class="cls-21" points="862.13 454.58 860.87 453.84 860.87 396.78 862.13 397.51 862.13 454.58"/>
          </g>
          <g>
            <polygon class="cls-45" points="882.96 409.57 882.96 466.65 884.15 465.96 884.15 410.26 882.96 409.57"/>
            <polygon class="cls-21" points="882.96 466.64 881.7 465.91 881.7 408.84 882.96 409.57 882.96 466.64"/>
          </g>
          <g>
            <polygon class="cls-52" points="922.85 428.6 1104.9 321.86 1104.9 501.57 922.85 608.24 922.85 428.6"/>
            <polygon class="cls-47" points="1079.51 307.09 1104.9 321.86 922.85 428.6 897.4 413.79 1079.51 307.09"/>
            <polygon class="cls-50" points="897.4 413.79 922.85 428.6 922.85 608.24 897.4 593.5 897.4 413.79"/>
          </g>
          <g>
            <polygon class="cls-21" points="1199.76 546.28 982.35 419.39 982.35 573.41 1199.76 699.96 1199.76 546.28"/>
            <polygon class="cls-48" points="1104.96 348.05 982.33 419.41 1199.74 546.3 1322.67 474.77 1104.96 348.05"/>
            <polygon class="cls-45" points="1322.67 474.77 1199.74 546.3 1199.76 699.96 1322.67 628.79 1322.67 474.77"/>
          </g>
          <g>
            <g>
              <polygon class="cls-27" points="1199.76 695.65 1133 656.81 1129.31 658.95 1199.76 699.96 1199.76 695.65"/>
              <polygon class="cls-41" points="1133 656.81 1133 601.76 1199.76 640.49 1199.76 695.65 1133 656.81"/>
              <polygon class="cls-45" points="1129.31 599.62 1129.31 658.95 1133 656.81 1133 601.76 1129.31 599.62"/>
            </g>
            <g>
              <polygon class="cls-27" points="1199.76 695.65 1299.5 637.92 1303.2 640.06 1199.76 699.96 1199.76 695.65"/>
              <polygon class="cls-5" points="1299.5 637.92 1299.5 582.95 1199.76 640.49 1199.76 695.65 1299.5 637.92"/>
              <polygon class="cls-21" points="1303.2 580.81 1303.2 640.06 1299.5 637.92 1299.5 582.95 1303.2 580.81"/>
            </g>
          </g>
          <g>
            <g>
              <polygon class="cls-27" points="1199.76 619.5 1133 580.66 1129.31 582.8 1199.76 623.81 1199.76 619.5"/>
              <polygon class="cls-41" points="1133 580.66 1133 525.61 1199.76 564.34 1199.76 619.5 1133 580.66"/>
              <polygon class="cls-45" points="1129.31 523.48 1129.31 582.8 1133 580.66 1133 525.61 1129.31 523.48"/>
            </g>
            <g>
              <polygon class="cls-27" points="1199.76 619.5 1261.21 583.95 1264.9 586.09 1199.76 623.81 1199.76 619.5"/>
              <polygon class="cls-5" points="1261.21 583.95 1261.21 528.97 1199.76 564.34 1199.76 619.5 1261.21 583.95"/>
              <polygon class="cls-21" points="1264.9 526.84 1264.9 586.09 1261.21 583.95 1261.21 528.97 1264.9 526.84"/>
            </g>
          </g>
          <g>
            <g>
              <polygon class="cls-41" points="1047.1 540.01 1047.1 610.83 1001.59 584.58 1001.59 513.76 1047.1 540.01"/>
              <polygon class="cls-17" points="1047.1 605.33 1047.1 610.83 1001.59 584.58 1006.31 581.87 1047.1 605.33"/>
              <polygon class="cls-45" points="1001.59 513.76 1001.59 584.58 1006.31 581.87 1006.31 516.49 1001.59 513.76"/>
            </g>
            <g>
              <polygon class="cls-41" points="998.31 511.92 998.31 578.94 989.52 573.87 989.52 506.85 998.31 511.92"/>
              <polygon class="cls-17" points="998.31 576.98 998.31 578.94 989.52 573.87 991.16 572.93 998.31 576.98"/>
              <polygon class="cls-45" points="989.52 506.85 989.52 573.88 991.16 572.93 991.16 507.79 989.52 506.85"/>
            </g>
            <g>
              <polygon class="cls-41" points="1059.62 547.31 1059.62 614.33 1050.82 609.26 1050.82 542.24 1059.62 547.31"/>
              <polygon class="cls-17" points="1059.62 612.37 1059.62 614.33 1050.82 609.26 1052.47 608.32 1059.62 612.37"/>
              <polygon class="cls-59" points="1050.82 542.24 1050.82 609.26 1052.47 608.32 1052.47 543.18 1050.82 542.24"/>
            </g>
          </g>
          <g>
            <polygon class="cls-50" points="1091.24 492.52 1046.22 466.24 1046.22 639.08 1091.24 665.28 1091.24 492.52"/>
            <polygon class="cls-47" points="1071.61 451.47 1046.21 466.24 1091.23 492.52 1116.69 477.71 1071.61 451.47"/>
            <polygon class="cls-52" points="1116.69 477.71 1091.23 492.52 1091.24 665.28 1116.69 650.54 1116.69 477.71"/>
          </g>
          <polygon class="cls-36" points="835.23 531.2 724.15 466.38 724.15 486.84 835.23 551.65 835.23 531.2"/>
          <g>
            <polygon class="cls-25" points="1089.86 371.69 1163.39 414.61 1180.65 404.25 1107.12 361.73 1089.86 371.69"/>
            <polygon class="cls-21" points="1107.12 361.73 1107.12 364.18 1178.48 405.55 1180.65 404.25 1107.12 361.73"/>
            <polygon class="cls-15" points="1107.12 364.18 1092.11 373 1143.66 403.13 1158.93 394.24 1107.12 364.18"/>
            <polygon class="cls-10" points="1143.66 403.13 1146.01 404.5 1158.93 396.98 1158.93 394.24 1143.66 403.13"/>
          </g>
          <g>
            <polygon class="cls-6" points="1125.39 412.2 1072.12 442.92 1045.53 427.59 1098.8 396.88 1125.39 412.2"/>
            <polygon class="cls-45" points="1045.53 427.59 1045.53 429.37 1072.12 444.7 1072.12 442.92 1045.53 427.59"/>
            <polygon class="cls-21" points="1125.39 413.98 1125.39 412.2 1072.12 442.92 1072.12 444.7 1125.39 413.98"/>
            <path class="cls-48" d="M1045.53,427.59l26.59,15.32,53.27-30.72-26.59-15.32-53.26,30.72ZM1072.12,442.01l-25.02-14.41,51.69-29.81,25.02,14.41-51.69,29.81Z"/>
            <polygon class="cls-48" points="1104.54 400.59 1051.71 431.09 1052.47 431.52 1105.24 400.99 1104.54 400.59"/>
            <polygon class="cls-48" points="1110.79 403.99 1057.97 434.49 1058.72 434.93 1111.49 404.39 1110.79 403.99"/>
            <polygon class="cls-48" points="1091.27 401.32 1117.6 416.52 1117.22 416.73 1090.93 401.52 1091.27 401.32"/>
            <polygon class="cls-48" points="1084.02 405.5 1110.35 420.7 1109.97 420.91 1083.67 405.7 1084.02 405.5"/>
            <polygon class="cls-48" points="1076.76 409.68 1103.09 424.88 1102.71 425.1 1076.42 409.88 1076.76 409.68"/>
            <polygon class="cls-48" points="1069.51 413.86 1095.83 429.06 1095.46 429.28 1069.16 414.06 1069.51 413.86"/>
            <polygon class="cls-48" points="1062.25 418.04 1088.58 433.24 1088.2 433.46 1061.91 418.24 1062.25 418.04"/>
            <polygon class="cls-48" points="1055 422.22 1081.32 437.42 1080.95 437.64 1054.65 422.42 1055 422.22"/>
            <polygon class="cls-48" points="1117.84 408.12 1065.01 438.62 1065.77 439.06 1118.54 408.52 1117.84 408.12"/>
          </g>
          <g>
            <polygon class="cls-6" points="1167.67 436.62 1114.41 467.34 1087.82 452.02 1141.08 421.3 1167.67 436.62"/>
            <polygon class="cls-45" points="1087.82 452.02 1087.82 453.8 1114.41 469.12 1114.41 467.34 1087.82 452.02"/>
            <polygon class="cls-21" points="1167.67 438.4 1167.67 436.62 1114.41 467.34 1114.41 469.12 1167.67 438.4"/>
            <path class="cls-48" d="M1087.82,452.02l26.59,15.32,53.27-30.72-26.59-15.32-53.26,30.72ZM1114.41,466.43l-25.02-14.41,51.69-29.81,25.02,14.41-51.69,29.81Z"/>
            <polygon class="cls-48" points="1146.83 425.01 1094 455.51 1094.76 455.94 1147.52 425.41 1146.83 425.01"/>
            <polygon class="cls-48" points="1153.08 428.41 1100.25 458.91 1101.01 459.35 1153.77 428.81 1153.08 428.41"/>
            <polygon class="cls-48" points="1133.56 425.74 1159.89 440.94 1159.51 441.15 1133.21 425.94 1133.56 425.74"/>
            <polygon class="cls-48" points="1126.3 429.92 1152.63 445.12 1152.25 445.34 1125.96 430.12 1126.3 429.92"/>
            <polygon class="cls-48" points="1119.05 434.1 1145.38 449.3 1145 449.52 1118.7 434.3 1119.05 434.1"/>
            <polygon class="cls-48" points="1111.79 438.28 1138.12 453.48 1137.74 453.7 1111.45 438.48 1111.79 438.28"/>
            <polygon class="cls-48" points="1104.54 442.46 1130.86 457.66 1130.49 457.88 1104.19 442.66 1104.54 442.46"/>
            <polygon class="cls-48" points="1097.28 446.64 1123.61 461.84 1123.23 462.06 1096.94 446.84 1097.28 446.64"/>
            <polygon class="cls-48" points="1160.13 432.54 1107.3 463.04 1108.06 463.48 1160.82 432.94 1160.13 432.54"/>
          </g>
          <g>
            <polygon class="cls-6" points="1209.96 461.04 1156.69 491.76 1130.1 476.44 1183.37 445.72 1209.96 461.04"/>
            <polygon class="cls-45" points="1130.1 476.44 1130.1 478.22 1156.69 493.54 1156.69 491.76 1130.1 476.44"/>
            <polygon class="cls-21" points="1209.96 462.82 1209.96 461.04 1156.69 491.76 1156.69 493.54 1209.96 462.82"/>
            <path class="cls-48" d="M1130.1,476.44l26.59,15.32,53.27-30.72-26.59-15.32-53.26,30.72ZM1156.69,490.85l-25.02-14.41,51.69-29.81,25.02,14.41-51.69,29.81Z"/>
            <polygon class="cls-48" points="1189.11 449.43 1136.29 479.93 1137.04 480.36 1189.81 449.83 1189.11 449.43"/>
            <polygon class="cls-48" points="1195.36 452.83 1142.54 483.33 1143.3 483.77 1196.06 453.23 1195.36 452.83"/>
            <polygon class="cls-48" points="1175.85 450.16 1202.17 465.36 1201.79 465.58 1175.5 450.36 1175.85 450.16"/>
            <polygon class="cls-48" points="1168.59 454.34 1194.92 469.54 1194.54 469.76 1168.24 454.54 1168.59 454.34"/>
            <polygon class="cls-48" points="1161.33 458.52 1187.66 473.72 1187.28 473.94 1160.99 458.72 1161.33 458.52"/>
            <polygon class="cls-48" points="1154.08 462.7 1180.41 477.9 1180.03 478.12 1153.73 462.9 1154.08 462.7"/>
            <polygon class="cls-48" points="1146.82 466.88 1173.15 482.08 1172.77 482.3 1146.48 467.08 1146.82 466.88"/>
            <polygon class="cls-48" points="1139.57 471.06 1165.89 486.26 1165.52 486.48 1139.22 471.26 1139.57 471.06"/>
            <polygon class="cls-48" points="1202.41 456.96 1149.59 487.46 1150.34 487.9 1203.11 457.36 1202.41 456.96"/>
          </g>
          <g>
            <polygon class="cls-6" points="1252.24 485.46 1198.98 516.18 1172.39 500.86 1225.65 470.14 1252.24 485.46"/>
            <polygon class="cls-45" points="1172.39 500.86 1172.39 502.64 1198.98 517.96 1198.98 516.18 1172.39 500.86"/>
            <polygon class="cls-21" points="1252.24 487.24 1252.24 485.46 1198.98 516.18 1198.98 517.96 1252.24 487.24"/>
            <path class="cls-48" d="M1172.39,500.86l26.59,15.32,53.27-30.72-26.59-15.32-53.26,30.72ZM1198.98,515.27l-25.02-14.41,51.69-29.81,25.02,14.41-51.69,29.81Z"/>
            <polygon class="cls-48" points="1231.4 473.85 1178.57 504.35 1179.33 504.79 1232.09 474.25 1231.4 473.85"/>
            <polygon class="cls-48" points="1237.65 477.25 1184.82 507.75 1185.58 508.19 1238.34 477.65 1237.65 477.25"/>
            <polygon class="cls-48" points="1218.13 474.58 1244.46 489.78 1244.08 490 1217.78 474.78 1218.13 474.58"/>
            <polygon class="cls-48" points="1210.87 478.76 1237.2 493.96 1236.82 494.18 1210.53 478.96 1210.87 478.76"/>
            <polygon class="cls-48" points="1203.62 482.94 1229.95 498.14 1229.57 498.36 1203.27 483.14 1203.62 482.94"/>
            <polygon class="cls-48" points="1196.36 487.12 1222.69 502.32 1222.31 502.54 1196.02 487.32 1196.36 487.12"/>
            <polygon class="cls-48" points="1189.11 491.3 1215.44 506.5 1215.06 506.72 1188.76 491.5 1189.11 491.3"/>
            <polygon class="cls-48" points="1181.85 495.48 1208.18 510.68 1207.8 510.9 1181.51 495.68 1181.85 495.48"/>
            <polygon class="cls-48" points="1244.7 481.38 1191.87 511.88 1192.63 512.32 1245.39 481.79 1244.7 481.38"/>
          </g>
          <g>
            <polygon class="cls-45" points="1027.53 528.73 1027.53 595.46 1028.71 594.77 1028.71 529.42 1027.53 528.73"/>
            <polygon class="cls-21" points="1027.53 595.44 1026.26 594.71 1026.26 528 1027.53 528.73 1027.53 595.44"/>
          </g>
          <g>
            <polygon class="cls-45" points="1277.68 595.53 1277.68 651.95 1276.5 651.26 1276.5 596.22 1277.68 595.53"/>
            <polygon class="cls-21" points="1277.68 651.94 1278.94 651.21 1278.94 594.8 1277.68 595.53 1277.68 651.94"/>
          </g>
          <g>
            <polygon class="cls-45" points="1153.12 613.42 1153.12 669.84 1154.3 669.15 1154.3 614.11 1153.12 613.42"/>
            <polygon class="cls-21" points="1153.12 669.83 1151.85 669.1 1151.85 612.69 1153.12 613.42 1153.12 669.83"/>
          </g>
          <polygon class="cls-56" points="1226.11 549.17 1261.21 583.95 1261.21 528.97 1226.11 549.17"/>
        </g>
        <g>
          <polygon class="cls-29" points="1021.41 799.09 980.62 822.56 939.63 798.89 980.41 775.42 1021.41 799.09"/>
          <polygon class="cls-24" points="980.54 764.46 980.54 804.83 990.4 799.16 990.4 758.79 980.54 764.46"/>
          <polygon class="cls-14" points="980.54 764.46 980.54 804.83 970.63 799.11 970.63 758.74 980.54 764.46"/>
          <g>
            <polygon class="cls-7" points="980.62 746.56 980.62 781.81 1021.41 758.34 1021.41 723.09 980.62 746.56"/>
            <polygon class="cls-26" points="1021.41 723.09 980.62 746.56 939.63 722.9 980.41 699.43 1021.41 723.09"/>
            <polygon class="cls-22" points="980.62 746.53 980.62 781.79 939.63 758.12 939.63 722.87 980.62 746.53"/>
          </g>
          <g>
            <polygon class="cls-7" points="980.62 704.19 980.62 739.44 1021.41 715.97 1021.41 680.72 980.62 704.19"/>
            <polygon class="cls-26" points="1021.41 680.72 980.62 704.19 939.63 680.52 980.41 657.06 1021.41 680.72"/>
            <polygon class="cls-22" points="980.62 704.16 980.62 739.41 939.63 715.75 939.63 680.5 980.62 704.16"/>
          </g>
          <g>
            <polygon class="cls-7" points="980.62 661.81 980.62 697.07 1021.41 673.6 1021.41 638.34 980.62 661.81"/>
            <polygon class="cls-26" points="1021.41 638.34 980.62 661.81 939.63 638.15 980.41 614.68 1021.41 638.34"/>
            <polygon class="cls-22" points="980.62 661.79 980.62 697.04 939.63 673.38 939.63 638.13 980.62 661.79"/>
          </g>
        </g>
        <g>
          <polygon class="cls-37" points="784.56 682.34 800.8 691.69 817.13 682.27 800.88 672.92 784.56 682.34"/>
          <g>
            <polygon class="cls-24" points="800.83 664.31 800.83 686.14 794.44 682.47 794.44 660.64 800.83 664.31"/>
            <polygon class="cls-14" points="800.83 664.31 800.83 686.14 807.24 682.43 807.24 660.61 800.83 664.31"/>
            <polygon class="cls-57" points="800.8 600.26 800.8 672.08 784.56 662.73 784.56 590.91 800.8 600.26"/>
            <polygon class="cls-43" points="784.56 590.91 800.8 600.26 817.13 590.83 800.88 581.48 784.56 590.91"/>
            <polygon class="cls-44" points="800.8 600.25 800.8 672.07 817.13 662.65 817.13 590.82 800.8 600.25"/>
          </g>
        </g>
        <g>
          <polygon class="cls-49" points="710.71 624.31 710.71 630.61 703.43 626.42 703.43 620.12 710.71 624.31"/>
          <polygon class="cls-40" points="703.43 620.12 710.71 624.31 718.04 620.09 710.75 615.9 703.43 620.12"/>
          <polygon class="cls-53" points="710.71 624.31 710.71 630.61 718.04 626.38 718.04 620.08 710.71 624.31"/>
        </g>
        <g>
          <polygon class="cls-49" points="1068.48 720.1 1068.48 726.39 1061.19 722.2 1061.19 715.9 1068.48 720.1"/>
          <polygon class="cls-40" points="1061.19 715.9 1068.48 720.1 1075.8 715.87 1068.52 711.68 1061.19 715.9"/>
          <polygon class="cls-53" points="1068.48 720.09 1068.48 726.39 1075.8 722.16 1075.8 715.87 1068.48 720.09"/>
        </g>
        <g>
          <polygon class="cls-49" points="863.76 699.31 863.76 705.6 856.47 701.41 856.47 695.12 863.76 699.31"/>
          <polygon class="cls-40" points="856.47 695.12 863.76 699.31 871.08 695.08 863.8 690.89 856.47 695.12"/>
          <polygon class="cls-53" points="863.76 699.3 863.76 705.6 871.08 701.37 871.08 695.08 863.76 699.3"/>
        </g>
        <g>
          <path class="cls-34" d="M393.1,966.37c0,15.63,31.27,28.3,69.84,28.3s69.84-12.67,69.84-28.3-31.26-28.3-69.84-28.3-69.84,12.67-69.84,28.3Z"/>
          <g>
            <path class="cls-39" d="M359.86,611.08c.16.16.35.32.51.48h-.02s-.28,4.06-9.87,11.69c-.21-.19-.93.05-1.14-.14-11.72-5.15-14.83-8.06-18.98-13.79-4.16-5.74-5.21-8.12-2.67-13.7,2.54-5.58,8-2.4,8-2.4,7.27,8.59,13.35,11.42,13.35,11.42,0,0,1.05-2.58-2.32-6.66-3.37-4.07-.1-5.25-.1-5.25,0,0,2.2-.24,5.94,5.11,3.74,5.34,7.3,13.22,7.3,13.24Z"/>
            <path class="cls-39" d="M360.35,610.35c46,33.89,87.38,29.9,87.38,29.9l-8.78,20.87c-55.63-4.4-90.27-39.56-90.27-39.56l11.67-11.21Z"/>
            <path class="cls-20" d="M438.95,636.92s-58.01-7.98-78.58-28.45c0,0-13.51,3.85-11.69,17.52,0,0,43.02,35.13,90.12,41.74l.15-30.81Z"/>
            <path class="cls-54" d="M412.46,958.17c3.6-3.02,17.09-8.35,18.72-9.54,1.62-1.2,1-7.16,1-7.16l23.43.11c2.44,12.24-.09,23.2-.09,23.2-14.27,4.71-36.9,8.43-42.22,7.09-5.31-1.34-4.44-10.68-.84-13.7Z"/>
            <path class="cls-18" d="M410.08,968.69c24.93-.15,41.04-5.63,46.04-7.62-.3,2.32-.62,3.71-.62,3.71-14.27,4.71-36.9,8.43-42.22,7.09-1.65-.42-2.65-1.65-3.21-3.18Z"/>
            <path class="cls-54" d="M463.79,969.74c3.32-3.33,16.28-9.85,17.79-11.18,1.51-1.34.35-7.22.35-7.22l23.35-1.99c3.52,11.97,1.99,23.12,1.99,23.12-13.79,5.97-36,11.7-41.41,10.85-5.41-.85-5.38-10.24-2.06-13.57Z"/>
            <path class="cls-18" d="M462.39,980.6c23.27-2.07,39.78-9.01,45.14-11.55-.1,2.13-.27,3.42-.27,3.42-13.79,5.97-36,11.7-41.41,10.85-1.63-.26-2.76-1.3-3.46-2.71Z"/>
            <path class="cls-38" d="M488.89,636.59c-5.26-2.16-5.71-3.82-5.71-3.82-1.45-5.7-1.7-10.92-1.7-10.92l-24.01,5.09c.49,1.82.5,4.82.33,7.89-1.02.15-1.85,0-1.85,0l-3.93,4.52-1.44,10.87,18.78,8.16,15.3-8.04s9.48-11.6,4.21-13.76Z"/>
            <path class="cls-20" d="M436.49,756.26s-5.62,103.39-6.7,189.82c0,0,11.34,5.58,29.71,1.98,0,0,1.6-115.97,8.99-163.03l6.22-17.38-3.27-10.75-32.44-8.43-2.52,7.79Z"/>
            <path class="cls-20" d="M505.83,754.01s-.92,105.13-.92,116.78,3.88,83.2,3.88,83.2c0,0-6.6,7.57-30.42,4.66l-4.81-78.64-6.52-98.9,2.21-15.48,36.57-11.61Z"/>
            <path class="cls-51" d="M475.46,759.38s-14.52,2.67-27.91-3.64l1.88-7.28,26.03,3.48v7.44Z"/>
            <path class="cls-46" d="M484.22,634l-.4.98c-27.8,14.32-26.02-.15-26.02-.15h-1.85s-5.58,7.69-5.58,7.69l-4.59-.94,3.79,120.55c14.55,6.47,25.87,3.88,25.87,3.88l8.46-41.63,7.19-82.8-6.9-7.59Z"/>
            <path class="cls-20" d="M438.95,636.92l18.89-2.92-.89,7.92-1.71,19.6s-5,54.6-3.89,110.24c.08,4.1-4.01,7-7.84,5.55-3.5-1.33-7.26-2.99-9.32-4.6,0,0-6.06-65.13,4.75-135.79Z"/>
            <path class="cls-20" d="M483.42,633.18c23.45,8.51,34.7,18,34.7,18-10.13,33.76-9.93,124.15-9.93,124.15-3.03,2.38-17.78,5.07-27.18,6.58-4.24.68-8.1-2.54-8.24-6.84-3.23-102.06,10.64-141.89,10.64-141.89Z"/>
            <path class="cls-39" d="M490.53,617.7s-4.68,18.86-23.29,17.89c-21.47-1.12-22.1-27.72-19.05-40.03,2.85-11.51,17.95-24.58,32.59-14.99,10.99,7.2,14.46,19.85,9.75,37.12Z"/>
            <path class="cls-8" d="M473.22,606.44s1.2,8.47.52,14.33l3.5-.85s.91-6.74.84-8.49c-.08-1.74,4.48-2.45,4.79,2.18.3,4.63-2.36,8.59-4.26,9.93l2.99,7.8s12.45-7.06,13.12-25.45c.68-18.44-8.95-30.27-23.12-30.51,0,0-23.7-1.31-27.2,23.63,0,0,6.61,6.33,28.8,7.44Z"/>
            <path class="cls-39" d="M534.59,770.56c.73-20.26-7.3-56.85-24.4-82.84l15.65-14.85s23.92,40.25,25.01,97.84c4.22,12.09,3.91,15.69,2.55,22.65-1.37,6.95-2.39,9.35-8.21,11.29-5.81,1.94-7.21-4.22-7.21-4.22,1.34-11.17-.73-17.56-.73-17.56,0,0-2.61.99-3.29,6.23-.68,5.24-3.78,3.65-3.78,3.65,0,0-1.67-1.44-.3-7.83,1.37-6.38,4.71-14.35,4.71-14.36Z"/>
            <path class="cls-20" d="M500.63,675.9c.37-11.47,2.76-34.93,17.49-24.72,0,0,33.97,48.44,36.19,118.22-7.42,3.33-12.36,2.03-22.06,0-6.96-55.35-21.48-75.43-25.55-82.2-2.75-4.57-6.17-8.09-6.06-11.29Z"/>
          </g>
        </g>
        <g>
          <path class="cls-3" d="M597.36,862.56c-3.13-7.45-26.86-4.29-37.03-2.59-10.17,1.7-8.59,10.68-8.59,10.68l20.25,62.58c32.76,4.3,29.72-7.36,31.62-25.32,1.9-17.95-3.13-37.9-6.25-45.35Z"/>
          <path class="cls-39" d="M551.66,897.04l-8.2-2.41c-.62,1-9.64,37.69-9.64,37.69,0,0-3.31,4.72-2.31,10.73,1.25,7.52,6.62,6.38,6.62,6.38,0,0,2.71-.43,2.81-2.88.05-1.17-2.46-2.91-3.31-5.11-.85-2.21.15-2.96,2.15-1.8,1.65.95,2.16,2.91,3.06,2.51.9-.4,1-2.51.1-3.41-.9-.9-2-3.75-2-4.72,0-1.4,7.12-18.54,7.12-18.54l3.61-18.44Z"/>
          <path class="cls-46" d="M548.68,867.49s-4.99,10.41-10.71,29.81l14.58,2.71-3.88-32.51Z"/>
          <path class="cls-2" d="M508.51,1036.37c0,12.04,24.09,21.8,53.81,21.8s53.81-9.76,53.81-21.8-24.09-21.8-53.81-21.8-53.81,9.76-53.81,21.8Z"/>
          <path class="cls-12" d="M640.98,845.09c-30.58,21.2-56.99,19.23-56.99,19.23l5.6,13.73c31.12-.82,56.3-23.96,56.3-23.96l-4.91-9Z"/>
          <path class="cls-39" d="M587.84,923.38l-21.96-10.32s-.28,14.01,3.56,30.51l7.8,82.52s1.4,5.08,12.9,2.07c1.76-.46,2.25-2.66,2.17-4.48l-4.47-100.3Z"/>
          <path class="cls-16" d="M593.59,1024.24c-.18-.67-.8-1.14-1.49-1.09l-15.31,1.11c-.77.06-1.37.7-1.36,1.48.03,1.7-.05,4.46-.81,5.13-1.12.99-9.59,4.82-12.04,7.28-2.45,2.46-2.48,9.41,1.52,10.04,4,.63,20.43-3.61,30.63-8.02,0,0,1.04-7.54-1.15-15.93Z"/>
          <path class="cls-39" d="M549.79,914.52s-2.87,17.5-2.35,31.46l-2.93,73.52s-2.23,5.39,11.33,3.93c1.5-.16,2.67-1.4,2.74-2.9l10.04-105.07-18.83-.94Z"/>
          <path class="cls-16" d="M560.35,1020.12c-.12-.77-.78-1.34-1.55-1.34l-14.27-.07c-.92,0-1.67.75-1.66,1.67.01,1.35-.12,3.1-.82,3.62-1.2.88-11.18,4.83-13.85,7.06-2.66,2.23-3.31,9.15.62,10.14,3.93.99,20.67-1.76,31.23-5.25,0,0,1.69-7.33.31-15.83Z"/>
          <path class="cls-33" d="M590.64,919.58l-42.59-3.1-6.9,59.59c8.5,5.6,23.9,3.3,23.9,3.3l1-30.1,1.2,31.7c16.4,1.2,27.74-4.8,27.74-4.8l-4.35-56.59Z"/>
          <path class="cls-12" d="M709.64,763.97s-18.7,49.52-49.73,75.31l-9.65-7.11s32.08-27.18,52.93-91.68l6.45,23.48Z"/>
          <path class="cls-12" d="M633.03,838.21s-1.4,3.51,2.47,1.66c0,0,4.07-1.4,7.05-2.02.04,0,.65.04.19.62,0,0,0,.01,0,.02-2.62,1.33-5.83,5.88-9.04,12.5,0,0-1.19,4.21,2.58,7.29,3.6,2.94,6.67,1.05,7.9-2.26,1.65-4.43,3.62-6.95,6.96-8.84,2.21-1.25,7.21-3.64,9.22-8.52l-9.88-6.53s-10.68.21-17.45,6.09Z"/>
          <path class="cls-8" d="M682.01,727.48l6.12-32.51s-33.6,13.91-6.12,32.51Z"/>
          <path class="cls-2" d="M625.53,1082.34c0,18.82,37.66,34.08,84.11,34.08s84.11-15.26,84.11-34.08-37.65-34.08-84.11-34.08-84.11,15.26-84.11,34.08Z"/>
          <path class="cls-8" d="M680.5,718.19s7.63,25.71.63,60.39c0,0,21.59-13.9,28.79-19.6l-29.42-40.79Z"/>
          <path class="cls-38" d="M736.7,852.21s-4.68,2.49-8.56.46c0,0-.1,6.26,0,6.47.1.2,9.58,7.74,9.58,7.74l3.67,1.53s0-4.13,2.85-9.06l-7.53-7.13Z"/>
          <path class="cls-39" d="M667.87,1055.87c16.4-4.71,16.19-12.3,16.19-12.3,0,0,14.96-5.74,18.65-.41,0,0,2.06,8.39,2.57,16.44.17,2.69-1.3,5.24-3.7,6.46-5.84,2.96-18.28,7.77-36.22,6.91-3.84-.18-7.39-2.83-8.2-6.6-.76-3.5.94-7.7,10.71-10.51Z"/>
          <path class="cls-1" d="M667.87,1055.87c.92-.27,1.78-.54,2.6-.82-.4,2.59.83,5.34,7.24,6.24,13.13,1.83,26.04-13.21,26.05-13.21,0,0,8.41,11.24-1.18,17.37v-.09c-.32.25-.62.52-.99.71-5.84,2.96-18.28,7.77-36.22,6.91-3.84-.18-7.39-2.83-8.2-6.6-.76-3.5.94-7.7,10.71-10.51Z"/>
          <path class="cls-33" d="M681.19,842.1s-6.96,25.83-6.14,45.91l4.71,75.63,4.31,79.93s12.19,2.67,18.65-.41l-.16-78.93,6.53-69.66-4.43-46.46-23.47-6.02Z"/>
          <path class="cls-33" d="M729.15,851.94s15.17,14.76,12.3,43.45l-9.84,84.08s8.61,51.61,11.89,87.27c0,0-7.38,7.79-18.86,2.05l-17.62-90.96-5.53-74.65-3.42-51.24h31.09Z"/>
          <path class="cls-1" d="M710.46,750.91s18.69,5.72,27.71,14.74c0,0,3.28,19.88-3.28,41.61-6.56,21.73-5.74,44.68-5.74,44.68,0,0-29.93,8.61-47.96-9.84,0,0-2.85-31.14-5.72-43.44-2.66-11.41-1.27-17.15,9.37-37.02,1.68-3.13,4.61-5.42,8.05-6.29l17.56-4.44Z"/>
          <path class="cls-38" d="M697.76,744.91s1.03,6.49,1.03,11c0,0,10.46,8.88,18.86-2.39l-2.46-14.14-17.42,5.53Z"/>
          <path class="cls-39" d="M721.37,728.12s-.84,17.81-17.57,20.44c-19.31,3.04-24.54-20.72-24-32.34.51-10.87,11.64-25.44,26.37-19.58,11.04,4.39,16.36,15.09,15.21,31.48Z"/>
          <path class="cls-39" d="M743.5,1066.74s4.51,9.43,3.48,20.91c0,0-11.48,26.44-29.92,26.85-18.45.41-3.9-19.37-2.26-21.73,1.64-2.36,9.02-11.48,9.84-23.98l18.86-2.05Z"/>
          <path class="cls-1" d="M720.03,1084.59h0c-3.56,9.21-.57,11.53-.57,11.53,12.93,6.72,26.51-21.78,26.52-21.8.83,3.63,1.45,8.28,1,13.33,0,0-11.48,26.44-29.92,26.85-18.45.41-3.9-19.37-2.26-21.73.82-1.18,3.07-4.04,5.22-8.18Z"/>
          <path class="cls-38" d="M693.69,755.15l34.09,3.1s-12.11,15.48-34.52,25.66c0,0-8.14-9.72.43-28.76Z"/>
          <path class="cls-39" d="M768.26,811.49c-9.11-21.53-30.09-45.85-30.09-45.85-10.08,11.81-7.54,23.81-7.54,23.81l21.48,27.01-16.17,35.47c2.34,8.15,9.05,9.34,9.05,9.34l22.84-42.03c1.3-2.39,1.49-5.25.43-7.76Z"/>
          <path class="cls-39" d="M733.85,854.71s1.86,1.12,2.31,2.5c1.65,5,3.04,4.64,4.58,7.01.97,1.48,1.28,3.07,1.15,4.81-.08,1.08-.26,3.03-1.46,3.52-2.44.99-7.2-1.97-7.26-4.48-.05-2.01-.66-4.02-1.88-5.62-1.28-1.69-.92-2.7.04-4.49.17-.32,2.01-3.51,2.51-3.25Z"/>
          <path class="cls-33" d="M741.54,882.29l-66.56,1.78,2.52,160.57c56.19,47.58,94.23,24.96,94.23,24.96-20.46-69.63-30.19-187.32-30.19-187.32Z"/>
          <path class="cls-38" d="M716.23,752.67h-12.6l-9.94,2.48,13.5,10.15,20.6-7.04c-3.25-2.09-11.55-5.58-11.55-5.58Z"/>
          <path class="cls-8" d="M690.92,720.41s9.23.03,16.79-3.03c0,0,6.54,20.78,6.13,43.38,0,0,8.49-3.05,16.63-13.65,0,0,4.15-53.73-28.44-54.95,0,0-29.03-1.47-24.45,27.05,0,0,7.98,1.32,13.34,1.2Z"/>
          <path class="cls-8" d="M704.04,706.7l-16.7-1.14-6.84,7.57s5.08,16.18,28,17.63c22.92,1.45-4.46-24.06-4.46-24.06Z"/>
          <path class="cls-8" d="M728.32,719.48l-19.24,8s3.93,23.43-4.47,42.05c-6.4,14.18-9.4,29.7,1.4,31.15,10.8,1.45,6.65-33.79,24.34-40.95,0,0,2.55-23.61-2.03-40.25Z"/>
          <path class="cls-46" d="M543.92,929.06c-.18-2.57,1.88-23.18,1.88-23.18-.36-14.97,2.04-32.72,2.23-37.27.03-.66.56-1.23,1.32-1.43l11.54-2.54,15.48-2.29,7.03.55c3.1.17,7.4,1.16,8.18,3.38,1.21,3.44,1.83,5.91,1.28,10.8-.4,3.55-1.62,16.07-1.37,21.25.68,13.85,1.63,16.24,1.84,30.2,0,0,.14,1.04-1.46,2.11-12.27,9.03-45.59,2.87-45.59,2.87-2.92-.2-2.23-2.43-2.37-4.45Z"/>
          <path class="cls-38" d="M577.9,862.73l-.79-3.81-15.05,3.89-.47,3.59c-.19,1.43.78,2.78,2.2,3.05,6.53,1.25,11.06-1.85,13.15-3.75.82-.75,1.19-1.88.96-2.97Z"/>
          <path class="cls-12" d="M583.69,849.89s-2.31,14.43-17.44,15.3c-17.46,1.01-20.05-18.72-18.55-28.14,1.4-8.81,12.8-18.69,25.4-12.81,9.45,4.41,13.05,12.39,10.59,25.64Z"/>
          <path class="cls-8" d="M573.1,824.25c-12.6-5.88-23.99,4-25.4,12.81-.17,1.09-.29,2.32-.33,3.63,12.07-2.39,20.97.14,20.97.14l.79,3.03,2.67,2.91c-.19,2.96-.11,4.5-.46,6.13l3.08,1.16s.86-9.7,3.24-10.03c2.38-.33,4.67,1.9,3.43,4.38-1.24,2.48-.86,5.21-3.43,6.12,0,0-.18,3.43.3,5.89,4.77-4.5,5.74-10.53,5.74-10.53,2.46-13.25-1.14-21.23-10.59-25.64Z"/>
          <path class="cls-46" d="M607.2,859.42c-11,2.27-26.62,3.25-26.62,3.25l7.17,21.32,24.77-8.5c1.02-10.65-5.32-16.07-5.32-16.07Z"/>
          <path class="cls-12" d="M651.93,836.09h-8.5l-4.3,3.17v8.8l6.76,6.03s6.96-.5,8.7-5.93c1.74-5.43-2.66-12.08-2.66-12.08Z"/>
          <path class="cls-1" d="M584.94,862.34s-1.61-1.26-4.36.33c0,0-8.61,24.52,11.31,42.12l.43-7.5s-11.83-19.24-7.37-34.95Z"/>
          <path class="cls-1" d="M550.73,866.87s-3.48,17.37-4.96,36.44c0,0,8.21-15.88,10.74-37.71,0,0-1.9-1.64-5.78,1.27Z"/>
        </g>
        <g>
          <g>
            <path class="cls-21" d="M977.03,10.26l13.8-7.94h.02c4.48-2.77,10.36-3.29,15.58-.28l452.42,260.94c10.03,5.79,16.21,16.48,16.21,28.06v209.93c0,4.04-2.27,7.28-5.39,8.94v.02s-13.89,8.01-13.89,8.01l-2.2-5.77,4.01-3.72-462.97-267.04c-6.74-3.89-10.89-11.07-10.89-18.85V15.16c0-.21.03-.42.04-.63l-6.72-4.28Z"/>
            <path class="cls-45" d="M1423.8,304.48l47.95-27.66c-2.79-5.7-7.23-10.55-12.91-13.83l-5.34-3.08-29.68,17.17-.02,27.4Z"/>
            <path class="cls-45" d="M1475,289.45l-21.58,12.48v204.12l4.16,2.4-4.01,3.72,2.2,5.77,13.89-8.01v-.02c3.12-1.66,5.39-4.9,5.39-8.94v-209.93c0-.53-.03-1.06-.05-1.59Z"/>
            <path class="cls-48" d="M992.41,10.11l452.42,260.94c10.03,5.78,16.21,16.48,16.21,28.06v209.93c0,7.8-8.45,12.68-15.2,8.78l-465.25-268.35c-6.74-3.89-10.89-11.07-10.89-18.85V23.23c0-11.66,12.62-18.95,22.72-13.12Z"/>
            <polygon class="cls-4" points="981.44 233.3 1447.77 502.28 1447.77 289.01 981.44 20.04 981.44 233.3"/>
          </g>
          <g class="cls-61">
            <path class="cls-48" d="M1069.45,88.55c0-.81.49-.93,1.14-.55.01,0,.03.02.04.03.76.45,1.28,1.27,1.33,2.15l3.05,1.76c-.11-2.6-1.8-5.02-4.32-6.47-2.42-1.4-4.22-1.03-4.22,1.48-.05,4.69,5.73,6.7,5.73,9.16,0,.78-.53.94-1.35.47-.79-.46-1.35-1.27-1.43-2.34l-3-1.73c.07,2.73,2.01,5.27,4.5,6.71,2.7,1.56,4.22.58,4.22-1.65.01-4.44-5.7-6.7-5.69-9.01Z"/>
            <path class="cls-48" d="M1083.68,101.11c0,1.57-.71,2.07-2.05,1.3-1.33-.77-2-2.07-2-3.64l.02-7.94-2.81-1.62-.02,7.92c-.01,3.67,2.07,6.69,4.76,8.24,2.66,1.54,4.91,1.01,4.92-2.65l.02-7.92-2.81-1.62-.02,7.94Z"/>
            <polygon class="cls-48" points="1095.99 108.5 1091.31 97.56 1088.5 95.93 1088.46 109.21 1091.27 110.83 1091.29 102.64 1095.98 113.55 1098.79 115.17 1098.83 101.9 1096.02 100.27 1095.99 108.5"/>
          </g>
          <g class="cls-61">
            <polygon class="cls-48" points="1124.36 125.82 1121.14 114.75 1117.82 112.84 1117.78 126.11 1120.6 127.74 1120.62 119.76 1123.2 129.24 1125.47 130.55 1128.07 124.08 1128.05 132.04 1130.86 133.67 1130.9 120.39 1127.59 118.48 1124.36 125.82"/>
            <path class="cls-48" d="M1138.39,124.52c-3.27-1.89-5.95-.63-5.96,3.36-.01,3.99,2.65,8.35,5.92,10.24,3.27,1.89,5.92.59,5.93-3.4.01-3.99-2.6-8.3-5.89-10.2ZM1138.36,135.17c-1.88-1.08-3.06-3.3-3.05-5.62,0-2.36,1.19-3.17,3.07-2.09,1.84,1.06,3.04,3.25,3.03,5.61,0,2.33-1.21,3.16-3.06,2.1Z"/>
            <polygon class="cls-48" points="1153.36 141.59 1148.67 130.65 1145.86 129.03 1145.82 142.3 1148.64 143.93 1148.66 135.74 1153.34 146.64 1156.16 148.27 1156.19 134.99 1153.38 133.37 1153.36 141.59"/>
          </g>
          <g class="cls-61">
            <polygon class="cls-48" points="1178.42 150.38 1181.48 152.15 1181.45 162.83 1184.26 164.46 1184.29 153.77 1187.35 155.54 1187.36 152.95 1178.42 147.79 1178.42 150.38"/>
            <path class="cls-48" d="M1195.56,165.64c0,1.57-.71,2.07-2.05,1.3-1.33-.77-2.01-2.07-2-3.64l.02-7.94-2.81-1.62-.02,7.92c-.01,3.67,2.07,6.69,4.76,8.24,2.66,1.54,4.91,1.01,4.92-2.65l.02-7.92-2.81-1.62-.02,7.94Z"/>
            <polygon class="cls-48" points="1200.34 173.74 1207.41 177.82 1207.42 175.23 1203.16 172.77 1203.17 169.86 1206.94 172.04 1206.94 169.54 1203.17 167.36 1203.18 164.68 1207.44 167.14 1207.45 164.55 1200.37 160.46 1200.34 173.74"/>
          </g>
          <g class="cls-61">
            <polygon class="cls-48" points="1242.2 194.28 1240.25 183.47 1237.16 181.69 1235.07 190.16 1233.44 179.54 1230.43 177.8 1233.32 192.77 1236.73 194.74 1238.66 187.1 1240.48 196.9 1243.88 198.87 1246.93 187.33 1243.9 185.58 1242.2 194.28"/>
            <polygon class="cls-48" points="1248.31 201.42 1255.39 205.51 1255.39 202.92 1251.13 200.46 1251.14 197.55 1254.91 199.72 1254.92 197.23 1251.15 195.05 1251.15 192.37 1255.42 194.83 1255.42 192.23 1248.35 188.15 1248.31 201.42"/>
            <path class="cls-48" d="M1261.58,195.79l-4.33-2.5-.04,13.28,4.33,2.5c3.69,2.13,6.06.79,6.08-3.14.01-3.95-2.35-8.01-6.04-10.13ZM1261.37,206.16l-1.33-.77.02-7.72,1.33.77c2.12,1.23,3.37,3.38,3.36,5.82,0,2.44-1.26,3.12-3.39,1.89Z"/>
          </g>
          <g class="cls-61">
            <polygon class="cls-48" points="1287.12 213.13 1290.18 214.9 1290.15 225.58 1292.97 227.2 1293 216.52 1296.06 218.29 1296.06 215.7 1287.13 210.54 1287.12 213.13"/>
            <polygon class="cls-48" points="1304.66 225.87 1300.28 223.34 1300.29 218.14 1297.48 216.51 1297.44 229.79 1300.25 231.41 1300.27 225.95 1304.65 228.47 1304.63 233.94 1307.45 235.57 1307.48 222.29 1304.67 220.67 1304.66 225.87"/>
            <path class="cls-48" d="M1315.97,235.14c0,1.57-.71,2.07-2.05,1.3-1.33-.77-2-2.07-2-3.64l.02-7.94-2.81-1.62-.02,7.92c-.01,3.67,2.07,6.69,4.76,8.24,2.66,1.54,4.91,1.01,4.92-2.65l.02-7.92-2.81-1.62-.02,7.94Z"/>
          </g>
          <g class="cls-61">
            <polygon class="cls-48" points="1346.88 258.4 1349.69 260.03 1349.71 254.66 1353.23 256.69 1353.24 254.18 1349.72 252.14 1349.72 249.34 1354.43 252.06 1354.44 249.47 1346.92 245.13 1346.88 258.4"/>
            <path class="cls-48" d="M1364.88,259.68c0-2.31-1.4-5-4.23-6.63l-4.72-2.73-.04,13.28,2.81,1.62v-5.01s.69.39.69.39l2.39,6.4,3.18,1.83-2.65-6.8c1.78.42,2.57-.69,2.58-2.36ZM1360.46,258.93l-1.74-1.01v-3.29s1.75,1.01,1.75,1.01c1.05.61,1.54,1.54,1.54,2.52,0,1.04-.5,1.38-1.55.77Z"/>
            <polygon class="cls-48" points="1366.61 269.79 1369.42 271.42 1369.46 258.14 1366.65 256.52 1366.61 269.79"/>
          </g>
          <g class="cls-61">
            <path class="cls-48" d="M1402.23,280.53c0-.81.49-.93,1.14-.55.02,0,.03.02.04.03.76.46,1.28,1.27,1.33,2.15l3.04,1.76c-.11-2.6-1.8-5.02-4.32-6.47-2.42-1.4-4.22-1.03-4.22,1.48-.05,4.69,5.73,6.7,5.73,9.16,0,.78-.53.94-1.35.47-.79-.46-1.35-1.27-1.43-2.34l-2.99-1.73c.07,2.73,2.01,5.27,4.5,6.71,2.7,1.56,4.22.58,4.22-1.65.01-4.44-5.7-6.7-5.69-9.01Z"/>
            <path class="cls-48" d="M1413.1,283.19l-4.22,10.86,2.95,1.7.7-1.95,4.31,2.49.68,2.74,2.98,1.72-4.14-15.69-3.26-1.88ZM1413.28,291.74l1.43-4.04,1.42,5.69-2.85-1.64Z"/>
            <polygon class="cls-48" points="1420.19 287.28 1420.19 289.87 1423.25 291.64 1423.22 302.33 1426.03 303.95 1426.06 293.27 1429.12 295.03 1429.13 292.44 1420.19 287.28"/>
          </g>
          <polygon class="cls-31" points="1055.39 101.49 1107.11 131.42 1107.11 168.74 1055.39 138.81 1055.39 101.49"/>
          <polygon class="cls-31" points="1055.39 142.5 1107.11 172.43 1107.11 209.75 1055.39 179.82 1055.39 142.5"/>
          <polygon class="cls-31" points="1055.39 183.52 1107.11 213.45 1107.11 250.77 1055.39 220.83 1055.39 183.52"/>
          <polygon class="cls-31" points="1055.39 224.53 1107.11 254.46 1107.11 291.78 1055.39 261.85 1055.39 224.53"/>
          <polygon class="cls-19" points="1110.2 133.17 1161.92 163.1 1161.92 200.42 1110.2 170.49 1110.2 133.17"/>
          <polygon class="cls-19" points="1110.2 174.18 1161.92 204.12 1161.92 241.43 1110.2 211.5 1110.2 174.18"/>
          <polygon class="cls-19" points="1110.2 215.2 1161.92 245.13 1161.92 282.45 1110.2 252.52 1110.2 215.2"/>
          <polygon class="cls-19" points="1110.2 256.21 1161.92 286.14 1161.92 323.46 1110.2 293.53 1110.2 256.21"/>
          <polygon class="cls-55" points="1165.01 164.85 1216.73 194.78 1216.73 232.1 1165.01 202.17 1165.01 164.85"/>
          <polygon class="cls-19" points="1165.01 205.87 1216.73 235.8 1216.73 273.12 1165.01 243.18 1165.01 205.87"/>
          <polygon class="cls-19" points="1165.01 246.88 1216.73 276.81 1216.73 314.13 1165.01 284.2 1165.01 246.88"/>
          <polygon class="cls-55" points="1165.01 287.89 1216.73 317.83 1216.73 355.14 1165.01 325.21 1165.01 287.89"/>
          <polygon class="cls-19" points="1219.82 196.54 1271.54 226.47 1271.54 263.78 1219.82 233.85 1219.82 196.54"/>
          <polygon class="cls-31" points="1219.82 237.55 1271.54 267.48 1271.54 304.8 1219.82 274.87 1219.82 237.55"/>
          <polygon class="cls-19" points="1219.82 278.56 1271.54 308.49 1271.54 345.81 1219.82 315.88 1219.82 278.56"/>
          <polygon class="cls-19" points="1219.82 319.58 1271.54 349.51 1271.54 386.83 1219.82 356.89 1219.82 319.58"/>
          <polygon class="cls-19" points="1274.63 228.22 1326.35 258.15 1326.35 295.47 1274.63 265.53 1274.63 228.22"/>
          <polygon class="cls-19" points="1274.63 269.23 1326.35 299.16 1326.35 336.48 1274.63 306.55 1274.63 269.23"/>
          <polygon class="cls-31" points="1274.63 310.24 1326.35 340.18 1326.35 377.49 1274.63 347.56 1274.63 310.24"/>
          <polygon class="cls-19" points="1274.63 351.26 1326.35 381.19 1326.35 418.51 1274.63 388.58 1274.63 351.26"/>
          <polygon class="cls-55" points="1329.44 259.9 1381.16 289.83 1381.16 327.15 1329.44 297.22 1329.44 259.9"/>
          <polygon class="cls-19" points="1329.44 300.91 1381.16 330.84 1381.16 368.16 1329.44 338.23 1329.44 300.91"/>
          <polygon class="cls-19" points="1329.44 341.93 1381.16 371.86 1381.16 409.18 1329.44 379.24 1329.44 341.93"/>
          <polygon class="cls-19" points="1329.44 382.94 1381.16 412.87 1381.16 450.19 1329.44 420.26 1329.44 382.94"/>
          <polygon class="cls-19" points="1384.25 291.58 1435.96 321.51 1435.96 358.83 1384.25 328.9 1384.25 291.58"/>
          <polygon class="cls-19" points="1384.25 332.6 1435.96 362.53 1435.96 399.84 1384.25 369.91 1384.25 332.6"/>
          <polygon class="cls-19" points="1384.25 373.61 1435.96 403.54 1435.96 440.86 1384.25 410.93 1384.25 373.61"/>
          <polygon class="cls-19" points="1384.25 414.62 1435.96 444.55 1435.96 481.87 1384.25 451.94 1384.25 414.62"/>
          <g>
            <polygon class="cls-19" points="994.22 77.29 1039.44 103.46 1039.44 92.31 994.22 66.15 994.22 77.29"/>
            <polygon class="cls-19" points="994.22 83.9 1039.44 110.06 1039.44 106.98 994.22 80.82 994.22 83.9"/>
            <polygon class="cls-19" points="994.22 106.05 1039.44 132.22 1039.44 121.07 994.22 94.91 994.22 106.05"/>
            <polygon class="cls-19" points="994.22 112.66 1039.44 138.82 1039.44 135.74 994.22 109.58 994.22 112.66"/>
            <polygon class="cls-19" points="994.22 134.82 1039.44 160.98 1039.44 149.84 994.22 123.68 994.22 134.82"/>
            <polygon class="cls-19" points="994.22 141.42 1039.44 167.58 1039.44 164.51 994.22 138.34 994.22 141.42"/>
            <polygon class="cls-19" points="994.22 163.58 1039.44 189.74 1039.44 178.6 994.22 152.44 994.22 163.58"/>
            <polygon class="cls-19" points="994.22 170.18 1039.44 196.35 1039.44 193.27 994.22 167.1 994.22 170.18"/>
            <polygon class="cls-19" points="994.22 192.34 1039.44 218.51 1039.44 207.36 994.22 181.2 994.22 192.34"/>
            <polygon class="cls-19" points="994.22 198.94 1039.44 225.11 1039.44 222.03 994.22 195.87 994.22 198.94"/>
            <polygon class="cls-19" points="994.22 221.1 1039.44 247.27 1039.44 236.12 994.22 209.96 994.22 221.1"/>
            <polygon class="cls-19" points="994.22 227.71 1039.44 253.87 1039.44 250.79 994.22 224.63 994.22 227.71"/>
          </g>
        </g>
        <g>
          <g>
            <path class="cls-45" d="M36.23,426.51L.38,405.68c7.14,21.43,19.77,34.18,32.79,41.74l35.85,20.83c-13.02-7.57-25.65-20.31-32.79-41.74Z"/>
            <polygon class="cls-21" points="112.79 212.8 76.94 191.97 153.95 182.84 189.8 203.67 112.79 212.8"/>
            <polygon class="cls-21" points="36.23 426.51 .38 405.68 0 271.72 35.85 292.56 36.23 426.51"/>
            <polygon class="cls-9" points="35.85 292.56 0 271.72 76.94 191.97 112.79 212.8 35.85 292.56"/>
            <path class="cls-32" d="M189.8,203.67l-77.01,9.13-76.94,79.76.38,133.96c18.56,55.73,74.32,52.74,77.25,52.59,2.93-3.23,58.52-64.53,76.7-141.47l-.38-133.96Z"/>
          </g>
          <polygon class="cls-48" points="153 271.73 168.71 283.47 101.68 389.04 61.22 359.06 74.36 338.27 99.11 356.6 153 271.73"/>
          <path class="cls-48" d="M189.8,203.67l-77.01,9.13-76.94,79.76.38,133.96c16.43,49.36,62.05,52.66,74.31,52.66,1.58,0,2.61-.06,2.95-.07,2.93-3.23,58.52-64.53,76.7-141.47l-.38-133.96ZM109.89,471.31c-5.55-.06-18.46-.94-31.61-7.08-16.31-7.61-27.81-20.74-34.19-39.03l-.37-129.48,72.78-75.45,65.47-7.76.35,124.2c-16.04,66.66-60.84,121.29-72.43,134.59Z"/>
          <g>
            <polygon class="cls-30" points="164.44 280.28 97.4 385.87 101.68 389.04 168.71 283.47 164.44 280.28"/>
            <polygon class="cls-30" points="94.12 352.9 74.36 338.27 73.14 340.2 92.9 354.83 99.11 356.6 94.12 352.9"/>
          </g>
        </g>
        <g class="cls-61">
          <polygon class="cls-48" points="1445.97 506.83 1352.95 452.93 1352.95 458.55 1445.97 512.45 1445.97 506.83"/>
          <polygon class="cls-48" points="1406.25 472.81 1352.95 441.94 1352.95 447.57 1406.25 478.43 1406.25 472.81"/>
        </g>
        <g>
          <path class="cls-28" d="M566.21,672.81c.1-3.1,1.17-7.03,4.12-8.63,4.39-2.37,8.87,2.72,11.34,5.77,2.02,2.49,3.81,5.15,5.88,7.61,1.85,2.2,3.54.98,5.94.5,2.7-.54,5.51-.18,7.9,1.24,6.01,3.57,9.7,13.35,9.32,20.34.09.9-1.25,17.58-20.3,22.87-1.21.33-2.51-.09-3.26-1.1-22.75-30.38-21.02-47.79-20.93-48.6Z"/>
          <path class="cls-28" d="M619.26,623.7c.08-2.62.99-5.95,3.48-7.3,3.71-2,7.51,2.3,9.59,4.88,1.71,2.11,3.23,4.36,4.98,6.44,1.56,1.86,2.99.83,5.02.42,2.29-.46,4.67-.15,6.69,1.05,5.09,3.02,8.21,11.3,7.89,17.21.07.76-1.06,14.88-17.18,19.35-1.02.28-2.13-.08-2.76-.93-19.25-25.72-17.79-40.45-17.72-41.14Z"/>
          <path class="cls-28" d="M570.16,596.86c.05-1.62.61-3.68,2.15-4.51,2.29-1.24,4.64,1.42,5.93,3.02,1.05,1.3,1.99,2.69,3.07,3.98.97,1.15,1.85.51,3.1.26,1.41-.28,2.88-.09,4.13.65,3.14,1.86,5.07,6.98,4.87,10.63.05.47-.65,9.19-10.61,11.95-.63.17-1.31-.05-1.71-.57-11.89-15.88-10.99-24.98-10.94-25.41Z"/>
          <path class="cls-28" d="M592.19,542.26c.05-1.62.61-3.68,2.15-4.51,2.29-1.24,4.64,1.42,5.93,3.02,1.05,1.3,1.99,2.69,3.07,3.98.97,1.15,1.85.51,3.1.26,1.41-.28,2.88-.09,4.13.65,3.14,1.86,5.07,6.98,4.87,10.63.05.47-.65,9.19-10.61,11.95-.63.17-1.31-.05-1.71-.57-11.89-15.88-10.99-24.98-10.94-25.41Z"/>
          <path class="cls-28" d="M600.07,758.77c.05-1.62.61-3.68,2.15-4.51,2.29-1.24,4.64,1.42,5.93,3.02,1.05,1.3,1.99,2.69,3.07,3.98.97,1.15,1.85.51,3.1.26,1.41-.28,2.88-.09,4.13.65,3.14,1.86,5.07,6.98,4.87,10.63.05.47-.65,9.19-10.61,11.95-.63.17-1.31-.05-1.71-.57-11.89-15.88-10.99-24.98-10.94-25.41Z"/>
        </g>
        <g>
          <path class="cls-58" d="M594.29,25.34l-10.33-5.94h-.01c-3.35-2.08-7.75-2.46-11.66-.21l-141.3,81.49c-7.51,4.33-12.13,12.34-12.13,21.01v100.98c0,3.02,1.7,5.45,4.04,6.69h0s10.4,6.01,10.4,6.01l1.65-4.32-3-2.79,149.2-86.05c5.04-2.91,8.15-8.29,8.15-14.11V29.01c0-.16-.03-.31-.03-.47l5.03-3.2Z"/>
          <path class="cls-23" d="M418.89,120.49l16.16,9.34v96.62l-3.11,1.79,3,2.79-1.65,4.32-10.4-5.99h0c-2.34-1.25-4.04-3.68-4.04-6.71v-100.98c0-.4.02-.8.04-1.19Z"/>
          <path class="cls-28" d="M582.77,25.23l-141.3,81.49c-7.51,4.33-12.13,12.34-12.13,21.01v100.98c0,5.84,6.32,9.49,11.38,6.57l150.91-87.04c5.04-2.91,8.15-8.29,8.15-14.11V35.05c0-8.73-9.45-14.18-17.01-9.82Z"/>
        </g>
        <g>
          <polygon class="cls-48" points="458.71 204.84 443.31 213.73 443.31 207.63 458.71 198.74 458.71 204.84"/>
          <polygon class="cls-48" points="478.65 193.38 463.26 202.27 463.26 196.17 478.65 187.28 478.65 193.38"/>
          <polygon class="cls-48" points="498.59 181.91 483.2 190.8 483.2 184.7 498.59 175.81 498.59 181.91"/>
          <polygon class="cls-48" points="458.71 175.53 443.31 184.42 443.31 168.8 458.71 159.91 458.71 175.53"/>
          <polygon class="cls-48" points="463.26 157.33 478.65 148.44 478.65 164.07 463.26 172.96 463.26 157.33"/>
          <polygon class="cls-48" points="483.2 145.87 498.59 136.98 498.59 152.61 483.2 161.5 483.2 145.87"/>
          <polygon class="cls-48" points="458.71 154.46 443.31 163.35 443.31 147.72 458.71 138.83 458.71 154.46"/>
          <polygon class="cls-48" points="463.26 136.25 478.65 127.36 478.65 142.99 463.26 151.88 463.26 136.25"/>
          <polygon class="cls-48" points="483.2 124.79 498.59 115.9 498.59 131.53 483.2 140.42 483.2 124.79"/>
          <polygon class="cls-48" points="458.71 117.75 458.71 133.38 443.31 142.27 443.31 126.64 458.71 117.75"/>
          <polygon class="cls-48" points="463.26 115.18 478.65 106.29 478.65 121.91 463.26 130.8 463.26 115.18"/>
          <polygon class="cls-48" points="483.2 103.71 498.59 94.82 498.59 110.45 483.2 119.34 483.2 103.71"/>
          <polygon class="cls-48" points="498.59 170.88 443.31 202.83 443.31 200.18 498.59 168.23 498.59 170.88"/>
          <polygon class="cls-48" points="498.59 165.46 443.31 197.41 443.31 194.76 498.59 162.8 498.59 165.46"/>
          <polygon class="cls-48" points="498.59 160.03 443.31 191.99 443.31 189.34 498.59 157.38 498.59 160.03"/>
          <polygon class="cls-48" points="585.98 55.21 511.47 98.35 511.47 96.18 585.98 53.03 585.98 55.21"/>
          <polygon class="cls-48" points="585.98 76.46 511.47 119.61 511.47 117.44 585.98 74.29 585.98 76.46"/>
          <polygon class="cls-48" points="585.98 101.98 511.47 145.12 511.47 142.95 585.98 99.8 585.98 101.98"/>
          <polygon class="cls-48" points="531.73 126.96 585.98 95.55 585.98 97.72 531.73 129.14 531.73 126.96"/>
          <polygon class="cls-48" points="529.58 130.38 511.47 140.87 511.47 138.69 529.58 128.21 529.58 130.38"/>
          <polygon class="cls-48" points="561 105.76 585.98 91.3 585.98 93.47 561 107.93 561 105.76"/>
          <polygon class="cls-48" points="558.85 109.18 511.47 136.62 511.47 134.44 558.85 107 558.85 109.18"/>
          <polygon class="cls-48" points="561 101.51 585.98 87.04 585.98 89.22 561 103.68 561 101.51"/>
          <polygon class="cls-48" points="558.85 104.93 511.47 132.37 511.47 130.19 558.85 102.75 558.85 104.93"/>
          <polygon class="cls-48" points="552.73 102.04 585.98 82.79 585.98 84.97 552.73 104.22 552.73 102.04"/>
          <polygon class="cls-48" points="550.58 105.46 511.47 128.11 511.47 125.94 550.58 103.29 550.58 105.46"/>
          <polygon class="cls-48" points="561 93 585.98 78.54 585.98 80.72 561 95.18 561 93"/>
          <polygon class="cls-48" points="558.85 96.42 511.47 123.86 511.47 121.69 558.85 94.25 558.85 96.42"/>
          <polygon class="cls-48" points="552.73 89.29 585.98 70.04 585.98 72.21 552.73 91.46 552.73 89.29"/>
          <polygon class="cls-48" points="571.93 73.92 585.98 65.79 585.98 67.96 571.93 76.09 571.93 73.92"/>
          <polygon class="cls-48" points="569.78 77.34 511.47 111.11 511.47 108.93 569.78 75.16 569.78 77.34"/>
          <polygon class="cls-48" points="531.73 92.95 585.98 61.53 585.98 63.71 531.73 95.12 531.73 92.95"/>
          <polygon class="cls-48" points="529.58 96.37 511.47 106.86 511.47 104.68 529.58 94.19 529.58 96.37"/>
          <polygon class="cls-48" points="555.74 76.97 511.47 102.6 511.47 100.43 555.74 74.79 555.74 76.97"/>
          <polygon class="cls-48" points="557.89 73.55 585.98 57.28 585.98 59.46 557.89 75.72 557.89 73.55"/>
          <polygon class="cls-48" points="541.02 74.81 585.98 48.78 585.98 50.95 541.02 76.99 541.02 74.81"/>
          <polygon class="cls-48" points="538.87 78.23 511.47 94.1 511.47 91.93 538.87 76.06 538.87 78.23"/>
          <polygon class="cls-48" points="565.36 56.47 585.98 44.53 585.98 46.7 565.36 58.64 565.36 56.47"/>
          <polygon class="cls-48" points="563.21 59.89 511.47 89.85 511.47 87.67 563.21 57.71 563.21 59.89"/>
          <polygon class="cls-48" points="529.58 104.87 511.47 115.36 511.47 113.18 529.58 102.7 529.58 104.87"/>
          <polygon class="cls-48" points="550.58 90.53 550.58 92.71 531.73 103.63 531.73 101.45 550.58 90.53"/>
        </g>
      </g>
    </g>
  </g>
</svg>