<?xml version="1.0" encoding="UTF-8"?>
<svg id="Layer_1" xmlns="http://www.w3.org/2000/svg" viewBox="0 0 428.34 367.85">
  <defs>
    <style>
      .cls-1 {
        fill: #054072;
      }

      .cls-2 {
        fill: #f9fbfc;
      }

      .cls-3 {
        fill: #023e70;
      }

      .cls-4 {
        fill: #003e70;
      }

      .cls-5 {
        fill: #033f70;
      }
    </style>
  </defs>
  <path class="cls-3" d="M3.76,183.85c0-13.59.02-27.18-.03-40.77,0-1.45.18-2.06,1.9-2.05,12.24.09,24.49-.09,36.73.1,10.32.17,19.55,3.41,26.81,11.1,5.28,5.59,8.21,12.4,9.5,19.89,1.99,11.55,1.46,22.93-3.37,33.78-5.33,12-14.77,18.58-27.66,20.45-2.41.35-4.82.42-7.24.42-11.57,0-23.14-.04-34.71.04-1.64.01-1.97-.47-1.96-2.01.06-13.66.03-27.31.04-40.97ZM22.68,183.9c0,8.41.04,16.82-.04,25.23-.02,1.56.45,1.89,1.91,1.86,5.11-.09,10.23,0,15.34-.04,9.31-.07,16.39-5.18,19.19-14.08,2.55-8.11,2.32-16.35.1-24.46-2.54-9.29-8.99-14.32-18.61-15.2-5.38-.49-10.76-.12-16.13-.32-1.41-.05-1.81.36-1.8,1.78.07,8.41.03,16.82.03,25.23Z"/>
  <path class="cls-5" d="M65.71,78.19c-4.53,5.55-9.81,9.32-16.5,10.81-12.76,2.83-30.71-1.25-40.81-15.59C-3.15,57.01-2.77,31.05,9.42,15.22,16.62,5.87,26.36,1.16,37.96.18c10.04-.84,19.43,1.15,27.63,7.29,7.13,5.33,11.24,12.49,12.59,21.29.21,1.35-.18,1.6-1.41,1.58-5.05-.05-10.1-.04-15.14,0-.88,0-1.37-.22-1.61-1.08-2.31-8.22-7.82-12.73-16.24-13.29-9.46-.63-16.75,3.08-21.15,11.76-2.96,5.85-3.78,12.14-3.67,18.6.06,3.78.57,7.5,1.71,11.12,3.73,11.93,12.63,17.72,25.05,16.28,9.58-1.12,15.56-7.18,16.72-16.75.17-1.41-.26-1.51-1.4-1.5-5.25.05-10.5-.02-15.75.05-1.33.02-1.7-.36-1.67-1.68.09-3.63.08-7.27,0-10.9-.02-1.23.33-1.6,1.58-1.59,10.97.05,21.94.05,32.92,0,1.21,0,1.61.26,1.6,1.55-.04,14.47-.03,28.94,0,43.42,0,1.05-.16,1.55-1.4,1.52-3.16-.09-6.33-.07-9.49,0-.93.02-1.26-.25-1.42-1.18-.48-2.73-1.09-5.43-1.71-8.46Z"/>
  <path class="cls-5" d="M69.99,308.99c-2.56,0-5.12-.03-7.67.02-.93.01-1.38-.2-1.66-1.24-2.32-8.72-10.43-14.33-19.57-13.82-9.85.55-16.41,5.55-19.66,14.67-3.61,10.11-3.66,20.36.56,30.31,4.89,11.51,15.6,14.74,25.56,12.39,7.9-1.87,11.71-7.81,13.51-15.28.77-3.19.72-3.21,3.97-3.21,4.44,0,8.88.04,13.33-.03,1.25-.02,1.57.27,1.42,1.57-2.13,18.59-14.99,32.06-34,33.33-14.17.94-26.47-3.03-35.79-14.23-5.85-7.04-8.8-15.34-9.63-24.37-1.12-12.18.76-23.77,7.81-34.07,6.88-10.06,16.64-15.34,28.65-16.68,8.91-.99,17.47.2,25.38,4.57,9.72,5.37,15.15,13.77,16.86,24.69.18,1.15-.11,1.4-1.18,1.38-2.62-.05-5.25-.02-7.87-.02Z"/>
  <path class="cls-5" d="M400.73,87.8c-5.45,0-10.77-.03-16.08.03-.98.01-1.29-.41-1.46-1.22-.29-1.43-.6-2.86-.96-4.57-3.41,3.18-7.24,5.25-11.6,6.32-5.51,1.36-11.03,1.57-16.57.23-9.31-2.26-14.7-9.94-13.71-19.51.87-8.45,5.03-13.21,13.66-15.62,5.79-1.62,11.79-1.92,17.69-2.82,1.93-.29,3.85-.64,5.67-1.34,2.43-.94,4.21-2.47,4.22-5.3.02-3.11-.61-6.13-3.84-7.36-4.53-1.73-9.21-1.85-13.73.2-2.59,1.18-3.99,3.44-4.37,6.15-.23,1.66-.98,1.87-2.38,1.85-4.37-.06-8.75-.09-13.12,0-1.62.04-2.03-.37-1.78-2.02,1.23-8.21,5.95-13.63,13.57-16.29,10.41-3.63,21.03-3.59,31.48-.18,7.81,2.55,11.29,7.81,11.3,15.96,0,10.16,0,20.32,0,30.48,0,5.04.09,10.06,2,14.97ZM381.6,57.59c-3.13,1.9-6.34,2.27-9.52,2.73-3.58.52-7.21.88-10.48,2.63-3.36,1.79-4.73,4.95-4.03,9.06.5,2.97,2.75,5.01,6.27,5.68,2.47.47,4.92.49,7.41.07,5.65-.96,9.32-4.61,10.1-10.22.44-3.19.3-6.41.25-9.94Z"/>
  <path class="cls-5" d="M326.43,226.8c-5.59,0-10.97-.02-16.34.02-.96,0-1.11-.61-1.26-1.24-.34-1.43-.61-2.87-.95-4.55-4.39,4.23-9.61,6.34-15.37,7.1-4.35.57-8.71.57-13.01-.57-9.4-2.49-14.53-10.18-13.48-19.87.81-7.45,4.79-12.14,11.75-14.57,5.71-1.99,11.69-2.35,17.61-3.16,2.6-.36,5.19-.69,7.66-1.64,2.35-.9,4.11-2.35,4.18-5.1.08-3.02-.39-6.02-3.47-7.35-4.69-2.03-9.56-2.09-14.25.09-2.48,1.15-3.8,3.4-4.19,6.06-.23,1.54-.89,1.89-2.35,1.86-4.44-.1-8.88-.12-13.32,0-1.7.05-1.82-.57-1.62-1.98,1.17-7.92,5.59-13.35,12.96-16.1,10.63-3.96,21.52-3.85,32.23-.4,7.65,2.46,11.16,7.83,11.18,15.87.03,10.09,0,20.18.01,30.27,0,2.55-.06,5.11.24,7.66.29,2.53.67,5.04,1.78,7.58ZM307.29,196.64c-3.8,2.21-7.78,2.41-11.65,3.01-2.99.46-5.97.95-8.65,2.47-3.12,1.78-4.37,4.75-3.76,8.8.45,3,2.47,4.96,5.95,5.71,2.86.62,5.73.6,8.59-.01,4.55-.98,7.52-3.71,8.79-8.16,1.08-3.78.67-7.67.74-11.82Z"/>
  <path class="cls-5" d="M128.31,60.89c-6.86,0-13.72.03-20.59-.03-1.44-.01-1.97.38-1.6,1.84.27,1.04.35,2.12.58,3.17,1.29,5.88,4.85,9.46,10.83,10.42,4.29.69,8.44.26,12.25-2.07,1.28-.78,2.75-1.61,3.27-2.91,1.24-3.08,3.61-2.92,6.19-2.82,3.02.11,6.05.06,9.08.01,1.17-.02,1.31.27.95,1.39-3.69,11.48-13.45,18.97-25.53,19.5-4.72.21-9.39-.04-13.95-1.48-8.6-2.73-14.88-8.16-18.09-16.55-4.71-12.3-4.12-24.37,3.81-35.26,10.96-15.06,34.81-16.41,46.91-2.82,6.21,6.97,8.4,15.44,8.41,24.6,0,3.02,0,3.02-2.96,3.02-6.53,0-13.05,0-19.58,0h0ZM119.78,50.11c4.17,0,8.34.01,12.5-.01.57,0,1.48.33,1.22-.93-.91-4.3-2.27-8.37-6.4-10.68-8.66-4.84-19.21.26-20.93,10.01-.23,1.28-.01,1.66,1.31,1.64,4.1-.06,8.2-.02,12.3-.02Z"/>
  <path class="cls-5" d="M266.22,60.9c-6.87,0-13.73.04-20.6-.03-1.51-.02-2.06.3-1.72,1.92.31,1.51.47,3.04.94,4.52,1.54,4.85,4.73,7.86,9.76,8.83,4.65.9,9.09.52,13.19-2.09,1.38-.88,2.84-1.84,3.47-3.29.93-2.17,2.45-2.35,4.45-2.27,3.36.13,6.73.07,10.09.02,1.21-.02,1.68.1,1.18,1.55-4.1,11.93-13.88,19.07-26.47,19.39-5.86.15-11.56-.48-16.89-3.03-8.51-4.07-13.67-10.9-15.8-19.99-2.47-10.55-1.52-20.73,4.99-29.66,8.23-11.29,19.81-14.7,33.05-11.84,12.5,2.7,18.96,11.65,21.8,23.6.83,3.49.96,7.05.96,10.62,0,1.37-.38,1.82-1.81,1.8-6.86-.08-13.73-.04-20.6-.03ZM257.48,50.11c4.17,0,8.34.02,12.51-.02.52,0,1.59.46,1.32-.82-.89-4.14-2.15-8.12-6-10.54-8.44-5.3-19.72-.13-21.36,9.69-.23,1.4.05,1.75,1.43,1.72,4.03-.08,8.07-.03,12.11-.02Z"/>
  <path class="cls-5" d="M126.2,199.97c-6.93,0-13.86.03-20.79-.03-1.29-.01-1.56.39-1.49,1.6.41,6.47,3.62,11.33,8.75,13.09,6.57,2.25,14.03.61,18.06-3.97.13-.15.33-.29.38-.47.83-2.78,2.98-2.67,5.27-2.59,3.29.12,6.59.07,9.89.01,1.1-.02,1.17.3.87,1.27-3.54,11.29-13.3,18.84-25.13,19.47-4.87.26-9.68.1-14.37-1.4-9.19-2.94-15.53-8.94-18.7-18.05-3.21-9.23-3.14-18.5.75-27.55,5.25-12.23,17.77-19.33,31.06-18.3,15.61,1.2,24.61,12.07,27.18,25.42.62,3.25.85,6.52.83,9.83,0,1.36-.49,1.68-1.77,1.67-6.93-.05-13.86-.03-20.79-.03ZM117.64,189.13c4.17,0,8.33,0,12.5,0,.63,0,1.49.22,1.23-.94-.9-3.99-2.09-7.83-5.72-10.27-8.24-5.52-20.21-.21-21.67,9.59-.17,1.12-.05,1.69,1.36,1.66,4.1-.1,8.2-.04,12.3-.04Z"/>
  <path class="cls-5" d="M118.17,302.08c10.56.18,20.02,3.77,26.34,13.45,8.59,13.16,6.51,34.02-4.49,43.94-8.99,8.11-19.76,9.49-31.16,7.06-10.55-2.25-17.69-8.69-21.35-18.84-2.23-6.19-2.59-12.62-1.63-19.09.83-5.67,2.79-10.93,6.44-15.43,6.52-8.03,15.27-11,25.86-11.09ZM132.61,334.39c.05-3.47-.47-7.52-2.19-11.33-2.52-5.57-6.99-8.12-13.01-8.09-5.97.03-10.45,2.62-12.7,8.2-3.11,7.74-3.12,15.64.03,23.38,2.21,5.42,6.61,7.98,12.36,8.11,5.79.13,10.33-2.14,13.02-7.47,1.92-3.8,2.49-7.91,2.49-12.8Z"/>
  <path class="cls-5" d="M245.78,312.26c.98-.4,1.21-1.16,1.65-1.71,4.1-5.1,9.43-7.88,15.93-8.35,3.16-.23,6.33-.09,9.43.63,8.53,1.99,13.29,7.53,14.52,16.68.39,2.88.49,5.76.5,8.65.02,11.91-.02,23.82.04,35.73,0,1.52-.29,2.11-1.96,2.06-4.44-.12-8.88-.12-13.32,0-1.61.04-1.85-.52-1.84-1.95.05-11.3.02-22.61.02-33.91,0-1.55-.11-3.08-.33-4.62-1.11-7.58-5.56-10.91-13.12-9.75-6.45.99-9.82,5.14-10.38,12.83-.56,7.73-.18,15.47-.27,23.2-.05,4.17-.04,8.34,0,12.51.01,1.13-.14,1.71-1.51,1.68-4.71-.08-9.42-.06-14.13-.01-1.14.01-1.48-.35-1.47-1.5.03-19.71.04-39.43,0-59.14,0-1.33.47-1.53,1.63-1.52,4.37.06,8.75.08,13.12,0,1.3-.02,1.58.41,1.54,1.61-.09,2.25-.03,4.5-.03,6.89Z"/>
  <path class="cls-3" d="M173.78,173.7c7.66-11.48,20.5-12.55,30.69-8.7,6.36,2.4,9.24,7.67,10.5,14,.62,3.11.83,6.26.83,9.43,0,12.18-.03,24.36.04,36.53,0,1.53-.39,1.92-1.89,1.88-4.37-.1-8.75-.12-13.12,0-1.64.05-2.14-.33-2.12-2.06.09-10.29.06-20.59.03-30.88,0-2.15-.12-4.3-.29-6.45-.68-8.5-5.86-12.36-14.2-10.64-5.36,1.11-8.33,4.69-9.23,11.04-.35,2.47-.43,4.95-.42,7.44.01,9.89-.03,19.78.05,29.67.01,1.56-.44,1.89-1.91,1.86-4.57-.09-9.15-.06-13.72-.01-1.12.01-1.49-.28-1.49-1.45.04-19.71.04-39.43,0-59.14,0-1.3.44-1.57,1.63-1.56,4.37.06,8.75.08,13.12,0,1.32-.02,1.57.47,1.53,1.65-.08,2.26-.02,4.53-.02,7.37Z"/>
  <path class="cls-3" d="M177.33,47.78c-.08.27-.16.55-.24.82-.71,1.45-.87,3.01-.87,4.6,0,10.36,0,20.71,0,31.07q0,3.11-3.18,3.11c-3.3,0-6.59,0-9.89,0-3.03,0-3.09-.05-3.09-3,0-18.63,0-37.25-.01-55.88,0-.95.08-1.87.42-2.76.27,0,.54,0,.8,0,.04.25.1.51.4.51.3,0,.36-.27.41-.51,4.44,0,8.88,0,13.32,0,.23,2.63-.46,5.31.39,7.92.63.96.84.05,1.07-.28,6.92-9.91,19.53-11.28,29.55-7.49,7.22,2.73,9.93,8.76,11.02,15.85.43,2.81.47,5.63.47,8.46.01,11.91-.02,23.83.04,35.74,0,1.48-.3,1.95-1.86,1.91-4.51-.12-9.02-.11-13.53,0-1.46.03-1.75-.42-1.74-1.8.06-11.24.03-22.48.04-33.72,0-2.84-.27-5.64-1.18-8.35-1.29-3.83-3.92-5.95-7.97-6.36-2.79-.29-5.48.1-8.14.93-1.16.03-2.5-.2-2.48,1.63-.26.26-.52.52-.79.78-.13.17-.27.33-.4.5-.25.38-.51.75-.76,1.13-.41.13-.48.45-.46.82,0,0,.01-.02.01-.02-.39.17-.44.49-.4.85,0,0,.02-.04.02-.04-.45.23-.45.63-.39,1.06l-.04.13c-1.49.51-.79,1.51-.54,2.41Z"/>
  <path class="cls-3" d="M198.8,348.18c1.59-4.07,1.97-8.33,1.97-12.66-.01-9.96.03-19.92-.04-29.88-.01-1.5.35-1.93,1.88-1.89,4.51.11,9.02.08,13.53.01,1.22-.02,1.73.18,1.73,1.6-.05,19.65-.04,39.3-.01,58.95,0,1.2-.26,1.64-1.55,1.62-4.37-.08-8.75-.07-13.12,0-1.24.02-1.64-.33-1.59-1.59.09-2.27.03-4.55.03-6.8-.68-.23-.76.31-.96.59-4.34,6.05-10.34,9.09-17.67,9.39-4.73.19-9.42-.37-13.7-2.65-2.78-1.49-5.08-3.49-6.41-6.44,0-.36-.05-.68-.43-.84-.39-.21-.4-.59-.43-.96.05-.42.06-.83-.41-1.04,0,0,.03.04.03.04.04-.48.17-.99-.44-1.24,0,0,.03.04.03.04.03-.9.38-1.89-.69-2.49-.12-.55-.23-1.1-.35-1.64.38-.85.67-1.69-.26-2.4-.05-.41-.1-.82-.15-1.23.45-.52.29-1.15.29-1.74.01-4.04,0-8.07,0-12.11,0-8.47,0-16.95,0-25.42,0-2.76.38-3.11,3.15-3.11,3.43,0,6.86,0,10.29,0q2.7,0,2.71,2.67c0,11.64-.05,23.27.05,34.91.01,1.75-.29,3.74,1.22,5.21,0,0-.02-.03-.02-.03-.03.34.01.65.33.86.11.07.13.17.08.29-.03.37,0,.71.35.93.15.24.3.47.45.71-.02.37.02.72.43.88,0,0-.03-.04-.03-.04.16.13.32.27.47.4,0,0-.04-.04-.04-.04.15.16.29.32.44.47.11.11.23.23.34.34-.02,1.13.67,1.36,1.61,1.28,0,0-.01-.01-.01-.01.62,1.34,1.84.68,2.81.85h0c4.07,1.81,7.73.34,11.36-1.41.63-.3.84-.81.71-1.48,0,0-.02.02-.02.02.14-.15.28-.3.42-.45,0,0-.04.04-.03.04.13-.16.27-.32.4-.48,0,0-.05.05-.05.05.44-.05.52-.37.54-.74h0c.88-.07.81-.7.77-1.32Z"/>
  <path class="cls-5" d="M350.08,325.66c-2.29,0-4.58-.03-6.86.02-.94.02-1.36-.2-1.6-1.23-1.19-5.24-4.35-8.58-9.81-9.28-6.53-.84-11.3,1.34-14.01,6.79-4.13,8.3-4.22,16.87-.41,25.31,2.42,5.36,7.38,7.98,12.93,7.36,6.31-.7,10.39-4.3,11.75-10.68.33-1.57.91-1.9,2.36-1.87,4.31.09,8.62.08,12.92,0,1.32-.02,1.58.39,1.41,1.62-1.83,12.8-11.84,22.31-24.74,23.59-6.19.61-12.26.24-18.02-2.19-10.13-4.28-15.9-12.14-17.73-22.81-1.4-8.19-.57-16.24,3.14-23.8,4.04-8.24,10.58-13.47,19.54-15.41,9.46-2.05,18.63-1.22,26.98,4.07,6.22,3.94,9.66,9.74,10.53,17.07.14,1.16-.11,1.53-1.31,1.48-2.35-.09-4.71-.03-7.07-.03Z"/>
  <path class="cls-1" d="M249.26,193.26c0,5.04-.08,10.09.03,15.13.08,3.89,1.3,5.08,5.14,5.59,1.89.25,3.76.08,5.63-.19,1.15-.16,1.72-.02,1.68,1.38-.1,3.43-.03,6.86-.04,10.29,0,.71.2,1.54-.94,1.64-6.18.53-12.37.98-18.45-.58-6.99-1.79-10.19-6.16-10.24-13.95-.06-11.43-.05-22.87.02-34.3,0-1.62-.29-2.26-2.05-2.13-2.27.17-4.57,0-6.86.06-1.03.03-1.43-.25-1.4-1.34.07-2.89.09-5.79-.01-8.68-.05-1.36.53-1.54,1.66-1.51,2.35.06,4.71-.04,7.06.04,1.24.05,1.6-.34,1.58-1.59-.07-5.04.03-10.09-.06-15.13-.03-1.45.27-2,1.85-1.96,4.5.11,9.01.1,13.52,0,1.56-.04,1.9.49,1.87,1.96-.09,4.98.02,9.96-.07,14.93-.02,1.41.36,1.85,1.79,1.8,3.02-.1,6.05,0,9.08-.05,1.14-.02,1.72.2,1.67,1.53-.09,2.82-.1,5.65,0,8.47.04,1.33-.51,1.55-1.66,1.53-3.03-.06-6.06.05-9.08-.05-1.39-.05-1.83.31-1.8,1.76.09,5.11.04,10.22.04,15.34.02,0,.03,0,.05,0Z"/>
  <path class="cls-3" d="M399.97,323.06c0-13.65.04-27.31-.04-40.96,0-1.71.45-2.12,2.11-2.07,4.23.13,8.48.13,12.71,0,1.77-.05,2.37.34,2.35,2.26-.1,11.64-.05,23.27-.05,34.91,0,15.54-.03,31.07.04,46.61,0,1.69-.47,2.14-2.13,2.09-4.3-.12-8.61-.12-12.91,0-1.65.05-2.13-.36-2.12-2.08.08-13.59.04-27.17.05-40.76Z"/>
  <path class="cls-5" d="M313.99,36.72c.32-.56.62-1.13.96-1.68,4.44-7.22,10.9-10.94,19.37-11,3.12-.02,3.12.13,3.12,3.18,0,3.9-.05,7.8.02,11.7.02,1.26-.25,1.52-1.56,1.32-2.93-.45-5.9-.56-8.83.05-6.92,1.45-10.43,6.12-11.88,12.68-.57,2.57-.68,5.19-.69,7.82,0,8.41-.03,16.81.03,25.22,0,1.34-.25,1.86-1.73,1.83-4.64-.1-9.28-.07-13.92-.01-1.09.01-1.51-.24-1.5-1.43.03-19.77.03-39.54,0-59.31,0-1.18.39-1.47,1.51-1.45,4.44.05,8.88.06,13.31,0,1.19-.02,1.48.4,1.46,1.51-.06,3.15-.02,6.3-.02,9.45.12.05.24.09.36.14Z"/>
  <path class="cls-4" d="M427.03,2.17c.27,0,.54,0,.81,0,0,26.03,0,52.06,0,78.09,0,1.48,0,2.96,0,4.44-.02,2.48-.2,2.67-2.61,2.68-3.63,0-7.26,0-10.9,0-2.45,0-2.64-.18-2.65-2.63-.01-6.73,0-13.45,0-20.18,0-19.84.04-39.68-.05-59.53,0-2.13.63-2.61,2.61-2.52,3.56.15,7.13.06,10.69.03.71,0,1.5.27,2.1-.39Z"/>
  <path class="cls-1" d="M384.94,334.83c0,9.69-.04,19.38.04,29.07.01,1.61-.45,2.04-2.03,2-4.44-.11-8.88-.08-13.32-.01-1.32.02-1.89-.22-1.89-1.74.05-19.58.04-39.16,0-58.74,0-1.38.45-1.67,1.73-1.65,4.57.07,9.15.07,13.73-.01,1.42-.03,1.79.41,1.78,1.81-.06,9.76-.03,19.51-.03,29.27Z"/>
  <path class="cls-1" d="M376.24,294.18c-2.35,0-4.71-.05-7.06.02-1.04.03-1.41-.28-1.39-1.35.05-3.77.05-7.53,0-11.3-.02-1.1.27-1.53,1.46-1.51,4.77.06,9.55.05,14.32,0,1.05-.01,1.4.3,1.39,1.37-.05,3.77-.06,7.53,0,11.3.02,1.13-.3,1.53-1.47,1.5-2.42-.08-4.84-.02-7.26-.03Z"/>
  <path class="cls-1" d="M353.92,183.9c0,13.59-.04,27.19.05,40.78.01,1.87-.55,2.19-2.24,2.15-4.44-.12-8.88-.09-13.32-.01-1.24.02-1.58-.31-1.58-1.57.04-27.52.04-55.05,0-82.57,0-1.39.47-1.64,1.72-1.62,4.51.07,9.02.09,13.53-.01,1.51-.04,1.89.35,1.88,1.88-.07,13.66-.04,27.32-.04,40.98ZM337.37,183.88v1.61c0,12.91,0,25.83,0,38.74,0,1.1-.18,2.14,1.55,2.1,4.17-.09,8.34-.05,12.51-.02,1.19,0,1.59-.49,1.73-1.67.24-2-.04-3.98-.04-5.96,0-24.95-.02-49.91.04-74.86,0-1.84-.47-2.44-2.35-2.37-3.63.15-7.26.04-10.9.04q-2.54,0-2.55,2.63c0,13.25,0,26.5,0,39.75Z"/>
  <path class="cls-5" d="M427.03,2.17c-.6.65-1.39.38-2.1.39-3.56.03-7.13.12-10.69-.03-1.98-.09-2.62.39-2.61,2.52.09,19.84.05,39.68.05,59.53,0,6.73,0,13.45,0,20.18,0,2.45.2,2.63,2.65,2.63,3.63,0,7.26,0,10.9,0,2.4,0,2.59-.2,2.61-2.68.01-1.48,0-2.96,0-4.44,0-26.03,0-52.06,0-78.09.82.43.39,1.19.39,1.78.02,27.32,0,54.64.05,81.96,0,1.44-.24,1.96-1.83,1.92-4.57-.12-9.15-.09-13.73,0-1.28.02-1.54-.38-1.54-1.59.03-27.52.03-55.05.02-82.57,0-.94-.06-1.66,1.3-1.63,4.84.11,9.68.09,14.53.13Z"/>
  <path class="cls-1" d="M160.47,25.74c-.34.89-.42,1.81-.42,2.76.01,18.63.01,37.25.01,55.88,0,2.96.05,3,3.09,3,3.3,0,6.59,0,9.89,0q3.17,0,3.18-3.11c0-10.36,0-20.71,0-31.07,0-1.58.16-3.14.87-4.6-.76,12.35-.24,24.72-.32,37.08-.01,1.81-.48,2.21-2.21,2.16-4.43-.13-8.87-.1-13.31-.01-1.37.03-1.63-.42-1.63-1.69.04-19.62.02-39.25.06-58.87,0-.53-.63-1.63.79-1.53Z"/>
  <path class="cls-5" d="M177.49,347.05c-1.51-1.47-1.2-3.46-1.22-5.21-.1-11.63-.05-23.27-.05-34.91q0-2.67-2.71-2.67c-3.43,0-6.86,0-10.29,0-2.78,0-3.15.36-3.15,3.11,0,8.47,0,16.95,0,25.42,0,4.04,0,8.07,0,12.11,0,.59.16,1.22-.29,1.74-.38-4.97-.17-9.95-.19-14.93-.04-8.68.02-17.36-.04-26.04-.01-1.45.27-1.97,1.85-1.93,4.51.12,9.02.11,13.52,0,1.45-.03,1.76.41,1.75,1.79-.06,10.63,0,21.27-.05,31.9-.01,3.24.22,6.43.87,9.6Z"/>
  <path class="cls-5" d="M196.76,351.05c.14.67-.08,1.17-.71,1.48-3.63,1.74-7.29,3.22-11.36,1.41,2.32,0,4.64.23,6.96-.3,1.94-.45,3.55-1.43,5.1-2.59Z"/>
  <path class="cls-1" d="M175.79,33.66c-.85-2.6-.16-5.28-.39-7.92,1.02.68.4,1.69.44,2.52.09,1.79-.02,3.6-.06,5.4Z"/>
  <path class="cls-1" d="M181.08,40.17c-.02-1.83,1.31-1.6,2.48-1.63-.83.54-1.65,1.09-2.48,1.63Z"/>
  <path class="cls-1" d="M177.33,47.78c-.25-.9-.95-1.9.54-2.41-.18.8-.36,1.6-.54,2.41Z"/>
  <path class="cls-5" d="M184.7,353.94c-.97-.16-2.19.49-2.81-.85.99.09,1.91.43,2.81.85Z"/>
  <path class="cls-5" d="M159.91,347.88c.93.71.64,1.55.26,2.4-.09-.8-.17-1.6-.26-2.4Z"/>
  <path class="cls-5" d="M160.52,351.92c1.07.6.72,1.59.69,2.49-.48-.76-.66-1.61-.69-2.49Z"/>
  <path class="cls-5" d="M181.9,353.1c-.94.07-1.63-.15-1.61-1.28.61.33,1.26.62,1.61,1.28Z"/>
  <path class="cls-5" d="M198.8,348.18c.04.61.11,1.25-.77,1.32.26-.44.51-.88.77-1.32Z"/>
  <path class="cls-1" d="M162.08,25.74c-.04.25-.1.51-.41.51-.3,0-.36-.27-.4-.51.27,0,.54,0,.81,0Z"/>
  <path class="cls-5" d="M161.18,354.38c.61.25.48.76.44,1.24-.43-.31-.4-.79-.44-1.24Z"/>
  <path class="cls-1" d="M177.91,45.24c-.06-.42-.06-.83.39-1.06-.03.39-.03.79-.39,1.06Z"/>
  <path class="cls-1" d="M178.28,44.23c-.04-.36.01-.69.4-.85-.02.34-.05.67-.4.85Z"/>
  <path class="cls-1" d="M178.67,43.4c-.02-.37.06-.69.46-.82-.05.33-.13.65-.46.82Z"/>
  <path class="cls-5" d="M177.8,347.87c-.32-.21-.36-.52-.33-.86.31.21.37.51.33.86Z"/>
  <path class="cls-5" d="M178.23,349.09c-.36-.22-.38-.56-.35-.93.32.23.44.54.35.93Z"/>
  <path class="cls-5" d="M198.03,349.49c-.02.36-.1.68-.54.74.18-.25.36-.49.54-.74Z"/>
  <path class="cls-5" d="M179.11,350.68c-.41-.16-.45-.51-.43-.88.38.18.37.55.43.88Z"/>
  <path class="cls-5" d="M162.44,357.59c.38.16.44.48.43.84-.31-.2-.42-.49-.43-.84Z"/>
  <path class="cls-5" d="M161.6,355.58c.47.22.46.62.41,1.04-.37-.26-.39-.65-.41-1.04Z"/>
  <path class="cls-1" d="M179.9,41.45c.13-.17.27-.33.4-.5-.13.17-.27.33-.4.5Z"/>
  <path class="cls-5" d="M197.54,350.18c-.13.16-.27.32-.4.48.13-.16.27-.32.4-.48Z"/>
  <path class="cls-5" d="M179.55,351.04c-.16-.13-.32-.27-.47-.4.16.13.32.27.47.4Z"/>
  <path class="cls-5" d="M197.17,350.63c-.14.15-.28.3-.42.45.14-.15.28-.3.42-.45Z"/>
  <path class="cls-5" d="M179.95,351.48c-.15-.16-.29-.32-.44-.47.15.16.29.32.44.47Z"/>
  <path class="cls-2" d="M381.6,57.59c.05,3.53.19,6.74-.25,9.94-.78,5.62-4.44,9.26-10.1,10.22-2.49.42-4.95.4-7.41-.07-3.52-.67-5.77-2.71-6.27-5.68-.7-4.11.67-7.27,4.03-9.06,3.27-1.74,6.9-2.11,10.48-2.63,3.18-.46,6.39-.83,9.52-2.73Z"/>
  <path class="cls-4" d="M337.37,183.88c0-13.25,0-26.5,0-39.75q0-2.62,2.55-2.63c3.63,0,7.27.1,10.9-.04,1.88-.08,2.35.52,2.35,2.37-.06,24.95-.04,49.91-.04,74.86,0,1.99.28,3.96.04,5.96-.14,1.18-.54,1.68-1.73,1.67-4.17-.03-8.34-.07-12.51.02-1.73.04-1.55-1.01-1.55-2.1,0-12.91,0-25.83,0-38.74v-1.61Z"/>
</svg>