<?xml version="1.0" encoding="UTF-8"?>
<svg id="Layer_1" xmlns="http://www.w3.org/2000/svg" viewBox="0 0 1194.62 1010.04">
  <defs>
    <style>
      .cls-1 {
        fill: #203052;
      }

      .cls-2 {
        fill: #213053;
      }
    </style>
  </defs>
  <path class="cls-1" d="M139.75,575.14c18.37-34.9,35.51-69.62,52.39-104.47,14.35-29.61,28.64-59.26,42.99-88.87.88-1.82,1.14-4.11,4.22-4.12,3.19,0,4.84.23,5.28,4.27,3.7,34.26,7.71,68.48,11.67,102.72,3.83,33.07,7.71,66.14,11.56,99.21,1.81,15.54,3.51,31.1,5.43,46.63.42,3.42-.28,4.61-3.99,4.51-9.82-.26-19.66-.19-29.49-.03-3.05.05-4.34-.59-4.57-4.01-3.16-47.03-7.42-93.96-12.15-140.85-1.08-10.74-2.35-21.45-4.43-32.42-.83,1.68-1.68,3.34-2.48,5.03-26.57,56-53.15,112.01-79.69,168.02-1.08,2.28-1.76,4.3-5.15,4.31-3.41,0-4.08-2.13-5.17-4.35-27.78-56.16-55.56-112.32-83.38-168.46-.77-1.56-1.11-3.47-3.23-4.82-1.1,16.68-2.3,33.01-3.25,49.36-2.43,41.57-4.77,83.15-7.06,124.73-.14,2.53-.85,3.5-3.48,3.45-7.5-.14-15-.19-22.49.02-3.09.08-3.49-1.05-3.2-3.79,2.28-21.36,4.43-42.73,6.61-64.09,2.86-27.99,5.64-55.99,8.57-83.98,3.53-33.78,7.15-67.55,10.81-101.31.16-1.49-.88-4.29,2.22-3.97,2.81.3,6.18-1.74,8.21,2.48,5.4,11.23,11.15,22.3,16.8,33.42,27.05,53.22,55.44,105.72,84.31,157.96.56,1,1.21,1.95,2.14,3.44Z"/>
  <path class="cls-1" d="M238.59,194.17c0,15.66-.09,31.32.08,46.97.04,3.34-.88,4.86-4.2,6-20.43,6.98-40.49,15.2-61.86,19.02-37.77,6.76-74.45,3.68-108.62-14.85C28.72,232.2,9.38,201.58,3.4,162.37c-4.03-26.47-1.88-52.53,8.36-77.48C25.58,51.27,50.01,27.95,84.12,16.32,131,.34,177.75,3.18,223.56,21.85c2.76,1.12,5.38,2.61,7.99,4.07,6.72,3.76,6.75,3.96,5.25,11.75-1.27,6.57-3.45,12.82-6.44,18.8-2.26,4.52-6.36,5.21-9.65,1.27-30.77-36.84-93.26-41.33-129.26-20.08-24.38,14.38-38.77,36.09-45.43,62.98-9.08,36.67-6.81,72.39,14.48,104.62,22.45,33.99,55.3,47.41,95.43,43.83,15.2-1.35,29.71-5.39,43.57-11.85,3.07-1.43,4.35-3.14,4.28-6.78-.51-27.81-.89-55.63-2.33-83.42-.2-3.89.64-5.18,4.74-5.05,9.65.31,19.33.26,28.98.02,3.66-.09,4.8.77,4.74,4.67-.26,15.82-.11,31.64-.11,47.47-.41,0-.81,0-1.22,0Z"/>
  <path class="cls-1" d="M628.71,613.08c-24.9,38.72-86.58,30.7-111.81,2.92-31.75-34.97-36.07-102.56,6-139.46,23.12-20.28,50.34-25.23,79.82-16.83,10.84,3.09,19.66,9.59,26.92,18.65,1.32-1.68.73-3.52.71-5.16-.34-32.64-.67-65.29-1.2-97.92-.06-3.88.85-5.12,4.85-4.96,8.15.32,16.33.31,24.48,0,4.02-.15,5.34.77,5.27,5.13-1.18,72.11-1.61,144.22-.49,216.34.2,12.82.47,25.65.98,38.46.14,3.55-.44,4.94-4.44,4.79-9.15-.34-18.32-.23-27.48-.04-3.19.07-3.88-.96-3.72-4.02.31-5.79.09-11.61.09-17.9ZM631.38,542.17c.12-9.36-1.3-22.03-5.32-34.34-7.08-21.68-23-34.08-44.59-33.95-19.2.11-32.36,10.84-40.79,26.83-15.45,29.3-15.13,59.84-3.35,90.19,6.88,17.71,19.76,29.01,39.75,29.9,20.85.93,35.08-9.23,44.28-27.26,7.66-15.01,10.07-31.18,10.01-51.37Z"/>
  <path class="cls-1" d="M14.06,878.56c.25-35.05,9.9-66.62,34.79-92.34,19.78-20.43,44.23-32.24,72.02-36.9,34.21-5.74,67.67-2.96,99.67,11.31,5.6,2.5,10.79,5.88,16.25,8.69,2.08,1.07,2.77,2.44,2.55,4.75-.84,9.07-3.5,17.58-7.82,25.56-1.76,3.26-6.11,2.98-8.87-.47-8.34-10.46-18.55-18.59-30.56-24.4-38.83-18.78-103.26-14.59-128.08,49.67-13.24,34.28-13.57,69,.4,103.22,24.26,59.41,82.09,73.68,129.98,55.56,18.84-7.13,35.37-17.77,46.63-35.12,1.31-2.02,2.96-1.99,4.73-1.7,2.3.37,1.39,2.4,1.34,3.66-.21,5.32-.54,10.64-1.03,15.94-.43,4.64-3.62,7.77-6.66,10.83-12.61,12.67-27.84,21.1-44.81,26.09-40.32,11.88-79.9,9.17-117.38-9.84-33.72-17.1-52.01-46.47-59.96-82.77-2.29-10.44-3.41-21.02-3.21-31.74Z"/>
  <path class="cls-1" d="M357.06,826.06c39.62.05,69.87,18.65,83.29,51.84,12.59,31.15,10.74,61.92-5.64,91.34-10.36,18.59-26.33,30.65-46.85,36.38-20.53,5.73-41.17,5.69-61.59-.42-22.25-6.66-38.61-20.74-48.51-41.65-13.28-28.05-14.47-56.95-2.52-85.65,13.06-31.38,37.83-47.42,71.08-51.21,3.8-.43,7.65-.45,10.75-.62ZM411.23,917.13c-.23-15.72-2.54-31.25-9.69-45.73-8.96-18.14-22.88-29.35-43.81-29.33-20.68.02-35.08,10.8-43.43,29.02-13.66,29.81-13.5,60.43-1.53,90.62,7.87,19.84,23,30.95,45.05,30.94,22.06,0,36.47-11.46,45.14-30.97,6.26-14.08,7.98-29.08,8.26-44.55Z"/>
  <path class="cls-1" d="M718.26,854.41c7.57-10.9,16.9-18.64,28.68-23.16,17.11-6.57,34.52-7.04,51.84-1.21,23.68,7.98,38.63,28.75,39.3,54.18.26,9.99.12,20-.2,29.99-.92,28.82-1.32,57.64.25,86.44.18,3.29-.33,4.73-4.12,4.61-9.16-.28-18.33-.22-27.49-.03-3.31.07-4.14-.91-4.03-4.26.97-31.81,1.73-63.62,2.56-95.43.2-7.86-.37-15.68-2.24-23.31-3.65-14.91-11.17-26.92-26.87-31.27-16.62-4.6-31.37-.33-43.63,11.65-13.77,13.46-17.11,30.74-16.8,49.07.49,29.32,1.05,58.64,1.9,87.95.14,4.81-1.35,5.79-5.76,5.63-8.65-.33-17.33-.22-25.99-.03-3.14.07-3.89-.9-3.79-4,1.88-55.13,2.25-110.27.35-165.41-.14-3.96.51-5.5,4.94-5.31,9.15.39,18.33.27,27.49.04,3.23-.08,3.83.96,3.71,3.95-.26,6.3-.08,12.62-.08,19.91Z"/>
  <path class="cls-1" d="M601.76,981.52c-22.08,32-65.75,33.9-90.5,19.87-18.12-10.28-27.38-26.34-28.98-46.7-1.21-15.44-.37-30.98.21-46.44.91-24.16.56-48.29-.56-72.42-.22-4.71,1.19-5.46,5.37-5.3,8.15.32,16.33.32,24.48,0,4.33-.17,5.8.69,5.65,5.53-.99,31.46-1.6,62.93-2.32,94.39-.17,7.51.42,14.92,1.92,22.32,7.67,38.04,46.16,41.44,67.73,22.87,12.97-11.16,18.9-25.74,19.3-42.3.77-32.3-.74-64.6-1.51-96.9-.12-4.9.96-6.2,5.81-5.95,8.31.43,16.66.41,24.97,0,4.45-.22,5.03,1.33,4.9,5.29-.65,19.47-.83,38.96-1.44,58.43-1.09,35.31.3,70.61.85,105.9.06,3.72-.44,5.31-4.7,5.14-8.98-.35-17.99-.24-26.98-.04-3.43.08-4.58-.73-4.34-4.43.41-6.24.11-12.53.11-19.29Z"/>
  <path class="cls-1" d="M507.6,114.19c8.41-12.34,19.37-20.57,33.13-24.83,16.93-5.25,33.89-5.15,50.37,1.57,22.41,9.13,34.25,26.56,35.9,50.27,1.04,14.91.44,29.99-.13,44.96-.93,24.67-.54,49.31.5,73.95.18,4.21-1.15,4.89-4.86,4.78-8.49-.25-17-.3-25.49.02-4.06.15-5.24-.74-5.11-5.08.96-31.64,1.59-63.29,2.33-94.94.18-7.69-.42-15.29-2.08-22.82-8.19-37.12-45.73-40.55-67.13-22.76-13.32,11.07-19.34,25.84-19.74,42.6-.79,32.32.7,64.63,1.56,96.94.13,4.69-.6,6.37-5.69,6.09-8.47-.48-17-.32-25.48-.04-3.68.12-4.73-.73-4.59-4.6.65-18.81.82-37.64,1.39-56.46,1.12-36.33-.13-72.64-.81-108.95-.07-3.52.75-4.58,4.3-4.49,9.33.23,18.66.19,27.99.02,3.09-.06,3.92.78,3.74,3.96-.35,6.31-.1,12.65-.1,19.82Z"/>
  <path class="cls-2" d="M397.22,548.06c-18.66,0-37.32,0-55.98,0-2.07,0-4.4-.68-4.14,3.01,1.22,17.39,4.89,34.01,15.95,48.02,14.15,17.92,33.47,22.98,55.26,21.15,5.31-.44,10.52-1.57,15.58-3.31,11.95-4.11,22.33-10.4,29.27-21.3,1.42-2.24,3.19-2.07,5.12-1.89,2.17.19,1.73,2.11,1.92,3.49,2.04,14.64-1.27,21.72-14.34,29.33-18.93,11.02-39.63,14.01-61.14,12.65-17.05-1.08-33.16-5.44-47.38-15.26-22.04-15.22-33.17-36.97-35.65-63.04-2.46-25.79,2.81-50.18,18-71.57,17.99-25.33,43.27-35.24,73.78-33.07,26.12,1.86,46.64,12.61,58.42,37.03,4.75,9.85,7.16,20.37,8.28,31.18.53,5.13.76,10.3.86,15.45.12,6.36-1.72,8.09-8.32,8.1-18.49.03-36.99.01-55.48.01ZM381.68,531.12c13.81,0,27.63-.11,41.44.08,3.28.04,4.24-.95,4.31-4.14.15-6.67.06-13.29-1.25-19.87-3.99-19.99-16.3-32.8-34.46-34.94-13.12-1.55-24.62,2.83-34.27,11.72-12.52,11.55-17.54,26.62-19.85,42.98-.47,3.36.22,4.29,3.64,4.25,13.48-.17,26.96-.07,40.44-.07Z"/>
  <path class="cls-1" d="M761.16,177.91c-18.49,0-36.99.14-55.48-.11-4.2-.06-4.95,1.32-4.6,5.08,1.95,20.74,7.16,40.08,23.79,54.28,25.72,21.98,72.29,16.28,91.89-11.22,1.57-2.21,3.22-2.63,5.43-2.29,2.41.36,1.71,2.47,1.99,3.98,2.37,12.74-2.48,21.87-13.57,28.35-18.33,10.71-38.23,14.04-59.05,13.2-20.44-.82-39.45-6.14-55.58-19.29-18.56-15.13-28.15-35.27-30.38-58.7-2.47-25.97,2.69-50.52,18.04-72.04,18.67-26.19,44.93-35.74,76.29-32.84,20.87,1.93,38.67,9.82,50.69,27.8,11.88,17.77,14.57,37.95,14.25,58.71-.07,4.34-4.11,5.06-7.72,5.07-18.66.04-37.32.02-55.98.02ZM746.11,160.91c13.64,0,27.29-.11,40.93.08,3.25.04,4.25-.9,4.3-4.12.1-6.67.07-13.29-1.26-19.87-3.9-19.36-15.82-32.36-33-34.75-15.45-2.15-28.46,3.37-38.91,14.77-10.31,11.24-14.55,25.05-16.62,39.81-.48,3.4.31,4.19,3.64,4.15,13.64-.17,27.28-.07,40.93-.07Z"/>
  <path class="cls-1" d="M372.2,177.91c-18.65,0-37.31,0-55.96,0-2.17,0-4.31-.51-4.01,3.11,1.33,15.59,4.28,30.7,13.15,43.95,13.29,19.87,32.76,26.65,55.71,25.34,9.72-.55,19.03-3.01,27.71-7.56,7.78-4.08,14.68-9.25,19.33-16.84,1.45-2.38,3.27-2.53,5.44-2.26,2.53.31,1.63,2.56,1.91,3.98,2.21,11.5-1.33,20.5-11.4,26.97-14.7,9.44-30.93,13.53-48.14,14.5-19.09,1.08-37.65-1.23-54.74-10.24-28.87-15.21-42.3-40.4-44.59-72.01-1.45-19.95,2.55-39.1,11.74-56.96,16.27-31.61,47.85-47.77,83.22-43.64,28.14,3.29,48.28,16.58,58.4,43.62,2.63,7.04,4.19,14.36,5.15,21.8.79,6.11,1.23,12.25,1.11,18.43-.12,6.09-1.74,7.8-8.07,7.81-18.65.03-37.31.01-55.96.01ZM357.5,160.91c13.66,0,27.32-.09,40.98.07,2.98.04,3.96-.75,4.21-3.76.61-7.39.13-14.7-1.66-21.81-3.81-15.16-11.38-27.6-27.46-32.03-16.15-4.46-30.32.16-42.13,11.7-11.75,11.48-16.53,26.16-18.48,42.08-.41,3.35.59,3.84,3.57,3.81,13.66-.14,27.32-.06,40.98-.06Z"/>
  <path class="cls-2" d="M1126.25,618.46c0,3.86-.09,7.31.03,10.74.07,1.97-1.19,2.6-2.61,3.11-8.7,3.09-17.54,5.09-26.9,3.97-9.97-1.19-16.49-6.46-19.69-15.93-.32-.94-.73-1.84-1.13-2.84-2.21.47-3.24,2.32-4.68,3.55-21.38,18.34-45.89,22.78-72.41,15-17.43-5.11-28.2-17.41-30.75-35.66-2.7-19.33,2.98-35.57,19.78-46.84,10.67-7.16,22.84-10.63,35.08-13.84,15.43-4.05,31.13-6.99,46.34-11.93,3.26-1.06,4.44-2.52,4.24-5.97-.33-5.81.31-11.7-.83-17.44-3.73-18.71-19.36-30.08-39.56-29.18-17.6.79-30.59,9.16-39.71,23.88-1.54,2.48-2.94,4.27-6.15,3.69-3.22-.59-2.51-3.43-3.25-5.42-.4-1.08-.59-2.25-.79-3.4-1.91-10.49.67-18.46,10.65-24.33,23.38-13.75,48.1-17.44,73.99-10.43,23.21,6.28,37.9,26.23,38.02,51,.14,29.15-.64,58.3-.98,87.45-.05,4.32-.23,8.66.76,12.93,2.33,10.02,7.59,12.84,17.25,9.17.91-.35,1.81-.71,3.3-1.3ZM1073.47,571.38c0-5.5,0-10.99,0-16.49q0-10.52-10.05-8.33c-.32.07-.67.07-.99.14-14.36,3.46-29.03,5.92-42.25,13.03-9.47,5.09-15.61,12.64-17.65,23.43-4.19,22.1,9.59,38.44,31.96,37.64,13.96-.5,24.23-8.05,33.75-17.35,3.84-3.75,5.76-7.62,5.35-13.11-.47-6.29-.11-12.65-.11-18.98Z"/>
  <path class="cls-2" d="M1125.89,248.91c.36,14.27,2.95,12.11-11.68,15.97-6,1.58-12.08,2-18.32,1.08-8.46-1.24-14.53-5.34-17.83-13.33-.76-1.83-1.51-3.66-2.35-5.72-1.62,1.43-3.08,2.77-4.59,4.06-21.38,18.35-45.87,22.7-72.41,14.87-17.29-5.1-27.93-17.26-30.55-35.25-2.8-19.27,2.67-35.64,19.49-46.95,12.95-8.71,27.9-12.24,42.77-15.87,13.08-3.19,26.24-6.06,39.09-10.14,2.99-.95,4.22-2.37,4.05-5.64-.32-5.98.36-12.04-.89-17.94-4.1-19.44-21.58-31.18-42.24-28.89-16.47,1.82-28.56,10.14-37.15,23.96-1.39,2.23-2.5,4.11-5.69,3.68-3.42-.47-2.68-3.3-3.48-5.25-.38-.91-.53-1.92-.72-2.9-2-10.55.08-18.86,10.3-24.94,23.65-14.08,48.67-17.74,74.88-10.42,22.83,6.37,37.26,26.36,37.36,51,.11,29.15-.65,58.31-.98,87.46-.05,4.48-.2,8.97.93,13.41,2.4,9.41,7.54,12.11,16.77,8.68,1.04-.39,1.94-1.42,3.24-.91ZM1073.47,201.3c0-7.83-.13-15.67.06-23.49.08-3.15-1.11-3.63-3.8-2.98-8.56,2.07-17.19,3.9-25.73,6.07-10.34,2.63-20.57,5.68-29.29,12.17-11.67,8.68-15.98,24.59-10.78,39.11,4.49,12.52,15.64,19.31,30.95,18.53,13.68-.69,23.91-8.1,33.28-17.32,3.81-3.75,5.86-7.57,5.42-13.1-.5-6.29-.12-12.65-.12-18.99Z"/>
  <path class="cls-1" d="M910.99,916.83c-.28,9.59.86,18.83,3.45,27.84,10.86,37.75,46.4,55.33,83.97,41.5,11.29-4.16,21.33-10.22,27.9-20.75,1.28-2.04,2.96-1.82,4.73-1.7,2.22.14,1.81,2.01,2,3.39,1.76,13.04-2.61,22.93-14.21,29.86-12.62,7.54-26.32,10.97-40.71,12.18-25.13,2.11-49.16-1.42-69.39-17.58-29.79-23.79-39.67-55.62-32.91-92.28,8.07-43.77,39.53-70.31,84.01-72.77,18.6-1.03,36.94-.07,54.46,7.14,5.71,2.35,10.94,5.58,16.12,8.92,1.89,1.22,2.72,2.51,2.41,4.88-1.02,7.71-3.62,14.84-7.47,21.53-1.93,3.34-5.89,3.55-7.86.32-12.56-20.62-30.77-30.07-54.71-26.5-23.99,3.58-38.52,18.81-46.59,40.88-3.93,10.74-5.44,21.92-5.18,33.14Z"/>
  <path class="cls-1" d="M826.91,547.48c-.11,9.88.9,19.65,3.59,29.16,10.37,36.59,44.15,53.26,80.11,39.51,11.36-4.34,21.59-10.48,28.86-20.55,1.53-2.12,3.23-1.99,5.16-1.86,2.35.16,1.55,2.24,1.75,3.5,2.11,13.47-1.8,21.89-14.06,29.18-18.7,11.11-39.23,14.17-60.58,12.8-17.8-1.15-34.37-6.11-48.65-17.23-16.18-12.6-25.68-29.41-30.31-49.13-5.38-22.89-4.36-45.46,5.76-66.85,14.42-30.46,40.06-45.2,72.56-49.19,20.53-2.52,40.53-.32,59.43,8.77,2.1,1.01,4.16,2.08,6.18,3.25,9.52,5.5,9.85,6.52,6.68,17.36-1.32,4.51-3.32,8.69-5.51,12.8-1.96,3.66-5.78,3.81-8.2.42-.39-.54-.71-1.13-1.06-1.69-22.95-37.25-70.39-28.66-88.4-1.11-10.15,15.52-13.34,32.75-13.29,50.87Z"/>
  <path class="cls-1" d="M1192.89,873.22c.12,42.82.28,85.64,1.73,128.44.11,3.12-1.07,3.59-3.71,3.56-9-.11-18-.22-26.99.04-3.8.11-5.1-.73-4.93-4.87,1.53-37.8,1.53-75.63,1.59-113.45.08-46.98-.62-93.97-1.17-140.95-.05-4.24.63-5.85,5.28-5.59,7.97.43,16,.37,23.98.02,4.26-.19,5.55.77,5.47,5.34-.6,37.32-.89,74.64-1.25,111.96-.05,5.16,0,10.33,0,15.49Z"/>
  <path class="cls-1" d="M1193.97,132.56c-1.01,42.99-.8,85.97.52,128.94.08,2.72-.61,3.4-3.23,3.36-9.33-.14-18.67-.22-27.99.03-3.48.09-4.46-.75-4.33-4.35,1.43-37.8,1.33-75.63,1.66-113.44.41-46.98-.49-93.97-1.22-140.94-.07-4.73.85-6.4,5.86-6.12,7.97.45,16,.37,23.98.02,4.13-.18,4.84,1.27,4.83,5.06-.13,42.48-.08,84.97-.08,127.45Z"/>
  <path class="cls-1" d="M1159.5,502.73c0-42.31.08-84.61-.12-126.92-.02-4.41.95-5.73,5.43-5.52,8.14.39,16.33.35,24.48,0,4.08-.17,4.88,1.2,4.8,5-1.15,61.12-1.56,122.25-.93,183.39.25,24.15.79,48.3,1.44,72.44.09,3.3-.88,3.91-3.83,3.86-8.99-.15-18-.25-26.98.03-3.87.12-5-.84-4.85-4.88,1.59-42.45,1.09-84.94,1.94-127.41-.46,0-.93,0-1.39,0Z"/>
  <path class="cls-1" d="M897.62,115.54c5-9.75,11.53-17.58,20.59-22.98,9.61-5.72,19.9-8.59,31.04-5.63,8.36,2.22,10.13,5.35,8.55,13.65-1.38,7.21-3.53,14.18-6.75,20.8-.87,1.79-1.89,2.87-4.13,2.81-1.97-.05-2.85-.84-3.77-2.49-4.61-8.32-10.47-10.71-20.07-8.48-9.06,2.11-15.27,7.86-19.67,15.71-5.66,10.09-8.1,21.15-8.26,32.57-.46,32.49.74,64.96,1.69,97.43.14,4.86-.9,6.24-5.8,5.99-8.64-.44-17.32-.28-25.98-.04-3.32.09-4.12-.89-4.01-4.15.57-17.65.77-35.31,1.33-52.95,1.2-37.65-.04-75.29-.74-112.93-.07-3.55.82-4.54,4.33-4.46,9.32.23,18.66.19,27.99.01,3.14-.06,3.89.9,3.75,4-.3,6.81-.09,13.64-.09,21.13Z"/>
  <path class="cls-1" d="M1072.21,910.28c.34-20.2-.69-47.49-1.21-74.79-.07-3.78.68-5.12,4.76-4.96,8.98.34,17.99.29,26.97.02,3.69-.11,4.73.77,4.62,4.61-.58,21.3-1.02,42.61-1.16,63.93-.21,33.47.4,66.93,1.8,100.37.18,4.35-.49,6.08-5.38,5.86-9.47-.44-18.98-.23-28.47-.07-3.05.05-3.94-.8-3.8-3.95,1.29-27.95,1.65-55.91,1.87-91Z"/>
  <path class="cls-1" d="M714.31,561.19c.18-40.31-.14-67.63-1.18-94.93-.19-5.05,1.32-6.04,5.98-5.83,8.81.39,17.66.27,26.48.03,3.4-.09,4.08.98,4,4.23-1.13,44.97-1.68,89.94-.41,134.92.3,10.49.53,20.98,1.03,31.47.14,3.04-.57,4.01-3.76,3.94-9.99-.21-19.99-.17-29.99-.02-2.94.04-3.92-.51-3.79-3.84,1.06-27.63,1.65-55.28,1.63-69.95Z"/>
  <path class="cls-2" d="M753.18,401.77c-.07,12.08-9.9,21.99-21.81,21.96-12.04-.03-22.24-10.32-22.13-22.34.1-11.79,10.26-21.65,22.27-21.61,12.07.04,21.74,9.85,21.68,21.99Z"/>
  <path class="cls-2" d="M1089.4,793.79c-12.18.07-22.3-9.93-22.29-22.05,0-11.83,10.01-21.78,22.01-21.86,11.96-.09,21.93,9.82,21.95,21.82.02,12.09-9.72,22.02-21.66,22.09Z"/>
</svg>