<?xml version="1.0" encoding="UTF-8"?>
<svg id="Layer_1" xmlns="http://www.w3.org/2000/svg" version="1.1" viewBox="0 0 923.1 394.7">
  <!-- Generator: Adobe Illustrator 29.2.1, SVG Export Plug-In . SVG Version: 2.1.0 Build 116)  -->
  <defs>
    <style>
      .st0 {
        fill: #7f3f98;
      }
    </style>
  </defs>
  <path class="st0" d="M0,0h13.3v391.8H0V0Z"/>
  <path d="M145,17.9v7.9c4,.2,6.9,1,8.5,1.3-.8-4.6-4-8.1-8.5-9.2M140.2,12.3c0,2.7-.6,4.4-1.3,5.6,0,0,1.3-.4,3.1-.4s2.9.4,3.1.4c-.8-1.2-1.3-2.9-1.3-5.6,6,0,7.3,2.7,7.3,5h1.2V3.8h-1.2c0,2.3-1.5,5-7.3,5,0-6,2.7-7.3,5-7.3V.4h-13.4v1.2c2.3,0,5,1.5,5,7.3-6,0-7.3-2.7-7.3-5h-1.2v13.4h1.2c0-2.3,1.3-5,7.3-5M138.9,17.9c-4.2,1.2-7.5,4.8-8.5,9.2,1.5-.4,4.4-1.2,8.5-1.3v-7.9ZM146.2,212.8c0,2.7,2.3,5,5,5s5-2.3,5-5-2.3-5-5-5c-2.9.2-5,2.3-5,5M148.7,212.8c0-1.3,1.2-2.5,2.5-2.5s2.5,1.2,2.5,2.5-1.2,2.5-2.5,2.5-2.5-1-2.5-2.5M137.1,147.7c0-2.5-1.9-4.4-4.4-4.4h-25c-2.1,0-3.8,1.7-3.8,3.8s1.2,2.7,2.7,2.7,2.7-1.2,2.7-2.9c.6.6,1.2,1,1.9,1.3-.4,1.5-.8,3.6-1,6.1-.4-.6-1-.8-1.5-.8-1,0-1.9.8-1.9,1.9s.8,1.9,1.9,1.9,1.2-.4,1.5-.8c0,1.3,0,2.7.2,4.2-.4-.2-.8-.4-1.2-.4-1,0-1.9.8-1.9,1.9s.8,1.9,1.9,1.9,1.3-.4,1.5-1c0,.2,0,.4.2.6.4,1.2.8,2.3,1.2,3.3-.2-.2-.6-.2-1-.2-1,0-1.9.8-1.9,1.9s.8,1.9,1.9,1.9,1.7-.8,1.9-1.5c.6,1.2,1.3,2.3,2.3,3.5h-.4c-1,0-1.9.8-1.9,1.9s.8,1.9,1.9,1.9,1.9-.8,1.9-1.9v-.2c2.9,2.9,6.5,5.4,10.9,7.1l-.8,5.8s1.7.8,4.4,1.5,5.2,1.2,5.2,1.2l.4-42.4ZM114.5,150s.2,0,.4.2l13.6,27.7c-16.9-7.7-15.2-21.5-14-27.8M128.9,175.7l-12.5-25.2c.8.2,1.5.2,2.3.2l10.8,21.7-.6,3.3ZM129.6,170.2l-9.6-19.6c.8,0,1.3-.2,1.9-.4l8.1,16.5-.4,3.5ZM130.4,164.6l-7.3-14.6c.6-.2,1.2-.4,1.7-.8l6,11.9-.4,3.5ZM131.2,159l-5.2-10.4c.6-.4,1.2-.8,1.5-1.2l4,8.1-.4,3.5ZM132.5,149.4l-.6,4.2-3.3-6.7c.4-.2.8-.2,1.2-.2,1.5-.2,2.9,1.2,2.7,2.7M120.6,36.5c0-1.5,1.3-2.9,2.9-2.9s2.9,1.3,2.9,2.9-1.3,2.9-2.9,2.9c-1.5.2-2.9-1.2-2.9-2.9M82.4,56.8c0-1.5,1.3-2.9,2.9-2.9s2.9,1.3,2.9,2.9-1.3,2.9-2.9,2.9-2.9-1.3-2.9-2.9M80.9,49.4c0-1.7,1.3-2.9,2.9-2.9s2.9,1.3,2.9,2.9-1.3,2.9-2.9,2.9c-1.5.2-2.9-1.2-2.9-2.9M81.4,41.9c0-1.5,1.3-2.9,2.9-2.9s2.9,1.3,2.9,2.9-1.3,2.9-2.9,2.9-2.9-1.3-2.9-2.9M85.5,35.3c0-1.5,1.3-2.9,2.9-2.9s2.9,1.3,2.9,2.9-1.3,2.9-2.9,2.9c-1.5.2-2.9-1.2-2.9-2.9M91.6,30.9c0-1.5,1.3-2.9,2.9-2.9s2.9,1.3,2.9,2.9-1.3,2.9-2.9,2.9c-1.5.2-2.9-1.2-2.9-2.9M99.1,29.6c0-1.5,1.3-2.9,2.9-2.9s2.9,1.3,2.9,2.9-1.3,2.9-2.9,2.9c-1.5.2-2.9-1.2-2.9-2.9M106.4,31.1c0-1.5,1.3-2.9,2.9-2.9s2.9,1.3,2.9,2.9-1.3,2.9-2.9,2.9c-1.5.2-2.9-1.2-2.9-2.9M113.5,34c0-1.5,1.3-2.9,2.9-2.9s2.9,1.3,2.9,2.9-1.3,2.9-2.9,2.9-2.9-1.3-2.9-2.9M163.2,36.5c0-1.5-1.3-2.9-2.9-2.9s-2.9,1.3-2.9,2.9,1.3,2.9,2.9,2.9c1.5.2,2.9-1.2,2.9-2.9M201.5,56.8c0-1.5-1.3-2.9-2.9-2.9s-2.9,1.3-2.9,2.9,1.3,2.9,2.9,2.9,2.9-1.3,2.9-2.9M203,49.4c0-1.7-1.3-2.9-2.9-2.9s-2.9,1.3-2.9,2.9,1.3,2.9,2.9,2.9c1.5.2,2.9-1.2,2.9-2.9M202.2,41.9c0-1.5-1.3-2.9-2.9-2.9s-2.9,1.3-2.9,2.9,1.3,2.9,2.9,2.9,2.9-1.3,2.9-2.9M198.4,35.3c0-1.5-1.3-2.9-2.9-2.9s-2.9,1.3-2.9,2.9,1.3,2.9,2.9,2.9c1.5.2,2.9-1.2,2.9-2.9M192.2,30.9c0-1.5-1.3-2.9-2.9-2.9s-2.9,1.3-2.9,2.9,1.3,2.9,2.9,2.9c1.5.2,2.9-1.2,2.9-2.9M184.8,29.6c0-1.5-1.3-2.9-2.9-2.9s-2.9,1.3-2.9,2.9,1.3,2.9,2.9,2.9c1.5.2,2.9-1.2,2.9-2.9M177.3,31.1c0-1.5-1.3-2.9-2.9-2.9s-2.9,1.3-2.9,2.9,1.3,2.9,2.9,2.9c1.7.2,2.9-1.2,2.9-2.9M170.2,34c0-1.5-1.3-2.9-2.9-2.9s-2.9,1.3-2.9,2.9,1.3,2.9,2.9,2.9,2.9-1.3,2.9-2.9M167.3,78.9c0-1.7-1.5-3.3-3.3-3.3s-3.3,1.5-3.3,3.3,1.5,3.3,3.3,3.3,3.3-1.5,3.3-3.3M146,98.5v37.3h33v-37.3h-33ZM178,134.8h-31.1v-35.1h30.9l.2,35.1Z"/>
  <path d="M150.2,100.8h-1.9v32.6h28.4v-32.6h-26.5ZM174.8,101.8v1h1v28.8h-1v1h-24.6v-1h-1v-28.8h1v-1h24.6Z"/>
  <path d="M173.4,110.2l-1.5,1.5s-.2,0-.2.2l-2.9,2.7c-1,.8-1.2,2.1-.4,3.1l1.7,2.3c.2.2.2.4.2.8s-.2.6-.4.6c-.2.2-.4.2-.8.2s-.6-.2-.6-.4c0,0-1.7-2.3-2.5-3.5v-3.3l4-3.8v-3.3l-1.3-1.3,1.7-1.7h-7.1l-1.7,1.7v1.9c.2-.2.6-.2.8-.2.8,0,1.5.8,1.5,1.5s-.8,1.5-1.5,1.5-.6,0-.8-.2v2.3h-2.5l-2.9-4c.4-.4.6-1,.6-1.5,0-1.2-1-1.9-1.9-1.9s-.8.2-1.2.4v3.3h.2l2.7,3.8,1.3,1.9h3.3l-1.7,1.7h-3.5c-.2-.8-1-1.2-1.7-1.2s-1.5.6-1.7,1.2c0,.2-.2.4-.2.8s.2,1,.4,1.2h7.9l1.3,1.9h-5.4l2.1,2.9,1.2,1.5h-2.7c-.2-.8-1-1.3-1.9-1.3s-1.5.6-1.9,1.3v.6c0,.6.2,1,.6,1.3h9.8l-1.3-1.9-1.2-1.5h3.1l1.2,1.5,1.3,1.9h4.6v2.1h-.6c-.2-.8-1-1.3-1.9-1.3s-1.5.6-1.9,1.3v.6c0,.6.2,1,.6,1.3h5.8v-6.1h-3.8l-1.9-2.5c.4.4.8.8,1.3.8s1.2,0,1.7-.4.8-1,1-1.5c0-.6,0-1.2-.4-1.7l-1.7-2.3c-.4-.4-.2-1.2.2-1.3l.8-.8c.8.6,1.7.6,2.5,0,.4-.4.6-.8.6-1.3l-.2-3.3ZM146.3,78.9l-4.4,4.4-4.4-4.4,4.4-4.4,4.4,4.4ZM116.6,78.9c0-1.7,1.5-3.3,3.3-3.3s3.3,1.5,3.3,3.3-1.5,3.3-3.3,3.3-3.3-1.5-3.3-3.3M176.7,162.7v-1c0-1.3-1-2.3-2.3-2.3h-8.3c0-1-1-1.9-1.9-1.9s-1,.2-1.3.6l-2.5,2.5h14c.6,0,1,.4,1,1s-.4,1-1,1h-16.3v-2.3l2.9-2.9h-11.3l2.9,2.9v4.2l-4.6-3.6c.4-.4.6-1,.6-1.5,0-1.2-1-1.9-1.9-1.9s-1,.2-1.3.4v3.5l7.1,5.8-3.3,1c-.2-.8-1-1.3-1.9-1.3s-1.9,1-1.9,1.9.2,1,.4,1.2h4l17.7-5.6v2.7l-2.3,1c-.2-1-1-1.5-1.9-1.5s-1.9,1-1.9,1.9.2,1,.4,1.2h4.4l2.7-1.3,1.7-.8-.8-1.7v-.4h6.5c0,.2-.2.6-.2.8-.2.4-.4,1-.6,1.3-.4-.4-1-.6-1.5-.6-1.2,0-1.9,1-1.9,1.9s.2,1,.4,1.2h4c.6-1.2,1-2.5,1.2-3.3.6-1.7,1-3.3,1-3.8.2.2-1.7.2-1.7.2M155.4,162.9l-1.9-1.9h3.8l-1.9,1.9ZM176.9,148.5c.2-.4.2-.6.2-1,0-1.3-1-2.3-2.3-2.3h-8.6c0-1-1-1.9-1.9-1.9s-1,.2-1.3.6l-2.5,2.5h14.6c.6,0,1,.4,1,1s-.4,1-1,1h-16.9v-2.3l2.9-2.9h-11.3l2.9,2.9v4.2l-4.6-3.6c.4-.4.6-1,.6-1.3,0-1.2-1-1.9-1.9-1.9s-1,.2-1.3.4v3.5l6.9,5.6-3.3,1c-.2-.8-1-1.3-1.9-1.3s-1.9,1-1.9,1.9.2,1,.4,1.3h4l17.7-5.6v2.9l-2.3.8c-.2-.8-1-1.3-1.9-1.3s-1.9,1-1.9,1.9.2,1,.4,1.3h4.4l4.4-1.3,2.1-.8-1.7-1.5-1.2-1.2h7.9v2.1c-.4-.4-1-.8-1.5-.8-1.2,0-1.9,1-1.9,1.9s.2,1,.4,1.3h5v-7.1l-2.3.2ZM155.4,148.7l-1.9-1.9h3.8l-1.9,1.9ZM169.6,173.4h-3.5c0-1-1-1.9-1.9-1.9s-1,.2-1.3.6l-2.5,2.5h9.4c.6,0,1,.4,1,1s-.4,1-1,1h-11.3v-1.9l2.9-2.9h-11.3l2.9,2.9v4.8l-4.6-4.2c.4-.4.8-1,.8-1.5,0-1.2-1-1.9-1.9-1.9s-1,.2-1.3.4v3.3l7.3,6.7.4-.4-4.6,5.6c-.4-.4-1-.4-1.3-.4-1.2.2-1.9,1.2-1.7,2.1,0,.4.2.8.4,1.2.8,0,1.7-.2,3.3-.4l5.2-6.1c.8-.2,1.3-.6,2.1-.8l2.1,1.9-1.2.6c-.6-.4-1.3-.6-1.9-.4-1,.4-1.5,1.5-1.2,2.5.2.4.4.6.6.8,0,0,.8-.2,1.5-.6.8-.4,1.5-.6,1.5-.6,1-.4,1.7-.8,2.5-1.2v-5.2c1.3-.8,2.5-1.5,3.5-2.5l1.9,1.7c-.4.4-.8.6-1.3,1-.6-.4-1.3-.4-1.9,0-.4.2-.8.8-1,1.2v.8c0,.2.2.6.2.8.2.4.6.6,1,.8,1-.6,1.7-1.2,2.7-1.7.6-.4,1.3-1,1.9-1.5l.6-.6v-2.5h1.3c1.3,0,2.3-1,2.3-2.3s-1-2.3-2.3-2.3h0ZM155.4,177.1l-1.9-1.9h3.8l-1.9,1.9ZM135.8,129.8c.2-.4.2-.6.2-1,0-1.3-1-2.3-2.3-2.3h-8.6c0-1-1-1.9-1.9-1.9s-1,.2-1.3.6l-2.5,2.5h14.6c.6,0,1,.4,1,1s-.4,1-1,1h-16.7v-2.3l2.9-2.9h-11.3l2.9,2.9v4.2l-4.6-3.6c.4-.4.6-1,.6-1.3,0-1.2-1-1.9-1.9-1.9s-1,.2-1.3.4v3.5l6.9,5.6-3.3,1c-.2-.8-1-1.3-1.9-1.3s-1.9,1-1.9,1.9.2,1,.4,1.3h4l17.7-5.6v2.9l-2.3.8c-.2-.8-1-1.3-1.9-1.3s-1.9,1-1.9,1.9.2,1,.4,1.3h4l4.4-1.3,2.1-.6-1.7-1.5-1.2-1.2h7.9v2.1c-.4-.4-1-.8-1.5-.8-1.2,0-1.9,1-1.9,1.9s.2,1,.4,1.3h5v-7.1h-2.1ZM114.1,130l-1.9-1.9h3.8l-1.9,1.9ZM135.8,116.2c.2-.4.2-.6.2-1,0-1.3-1-2.3-2.3-2.3h-8.6c0-1-1-1.9-1.9-1.9s-1,.2-1.3.6l-2.5,2.5h14.4c.6,0,1,.4,1,1s-.4,1-1,1h-16.7v-2.3l2.9-2.9h-11.3l2.9,2.9v4.2l-4.6-3.6c.4-.4.6-1,.6-1.3,0-1.2-1-1.9-1.9-1.9s-1,.2-1.3.4v3.5l6.9,5.6-3.3,1c-.2-.8-1-1.3-1.9-1.3s-1.9,1-1.9,1.9.2,1,.4,1.3h4l17.7-5.6v2.9l-2.3.8c-.2-.8-1-1.3-1.9-1.3s-1.9,1-1.9,1.9.2,1,.4,1.3h4.2l4.4-1.3,2.1-.8-1.7-1.5-1.2-1.2h7.9v2.1c-.4-.4-1-.8-1.5-.8-1.2,0-1.9,1-1.9,1.9s.2,1,.4,1.3h5v-7.3h-2.1v.4ZM114.1,116.4l-1.9-1.9h3.8l-1.9,1.9ZM135.8,102.4c.2-.4.2-.6.2-1,0-1.3-1-2.3-2.3-2.3h-8.6c0-1-1-1.9-1.9-1.9s-1,.2-1.3.6l-2.5,2.5h14.4c.6,0,1,.4,1,1s-.4,1-1,1h-16.7v-2.3l2.9-2.9h-11.3l2.9,2.9v4.2l-4.6-3.6c.4-.4.6-1,.6-1.3,0-1.2-1-1.9-1.9-1.9s-1,.2-1.3.4v3.5l6.9,5.6-3.3,1c-.2-.8-1-1.3-1.9-1.3s-1.9,1-1.9,1.9.2,1,.4,1.3h4l17.7-5.6v2.9l-2.3.8c-.2-.8-1-1.3-1.9-1.3s-1.9,1-1.9,1.9.2,1,.4,1.3h4l4.4-1.3,2.1-.6-1.7-1.5-1.2-1.2h7.9v2.1c-.4-.4-1-.8-1.5-.8-1.2,0-1.9,1-1.9,1.9s.2,1,.4,1.3h5v-7.3l-1.9.2ZM114.1,102.8l-1.9-1.9h3.8l-1.9,1.9ZM195.9,137.5c1.3-.4,1.9-1.7,1.5-2.9-.2-.6-.6-1.2-1.2-1.3-.6-.4-1.2-.4-1.7-.2s-1.2.6-1.3,1.2c-.4.6-.4,1.2-.2,1.7.4,1.2,1.7,1.7,2.9,1.5M189.2,142.7l.4,2.1,7.7-1.2c.2,0,7.7,3.8,7.7,3.8l-.4-2.7-5.4-2.7c.4-.4,4.4-4,4.4-4l-.4-2.7-.2.2s-6,5.6-6.1,5.8c0,.2-7.7,1.3-7.7,1.3M195.1,150.2c0,.6.2,1.2.8,1.7s1,.8,1.7.6c.6,0,1.2-.2,1.7-.8s.6-1,.6-1.7-.2-1.2-.8-1.7-1-.8-1.7-.8c-1.3.2-2.3,1.3-2.3,2.7M189.8,154l-.2,2.1s6,.8,6.3,1c0,.2-.2,1.7-.2,1.7v1c0,1,.2,1.9.8,2.7s1.5,1.3,2.9,1.5c2.7.4,4.6-1,5-3.6l.6-4.2-15.2-2.1ZM202,157.9c0,.2-.2,2.1-.2,2.1-.2,1.9-1.7,1.9-2.3,1.7-1.2-.2-1.9-1-1.9-1.9v-.4s.2-1.5.2-1.9c.4-.2,4,.2,4.2.4M188.4,162.7l-2.5,7.3,2.1.8s1.7-5.2,1.7-5.4c.2.2,3.6,1.2,4,1.3-.2.4-1.7,5-1.7,5l2.1.8s1.5-4.8,1.7-5c.2.2,3.6,1.2,3.8,1.3-.2.4-1.7,5.2-1.7,5.2l2.1.8,2.5-7.3-14.2-4.8ZM185.5,171.3l-1,1.5s8.5,5.4,9.2,6c-1,0-13.6,1.2-13.6,1.2l-1,1.5,12.7,8.1,1.2-1.7s-8.5-5.4-9.2-6c1,0,13.8-1.3,13.8-1.3l1-1.5-13.1-7.7ZM180.5,189.4c-1.5.2-2.9.6-3.8-.4s-.8-1.5.2-2.5,2.3-1.2,3.8-1h.6l-2.3-2.3c-1.5.2-2.7.6-3.6,1.7-.8.8-1.2,1.7-1.2,2.7s.4,2.1,1.3,3.1c1.9,1.9,4,1.5,6,1.2,1.3-.4,2.5-.6,3.5.2.2.4.4.6.4,1,0,.6-.2,1-.8,1.5s-1.7,1.2-3.1,1h-.4l2.1,2.1c1.2-.2,2.1-.6,2.9-1.3,1-1,1.3-1.9,1.3-2.9s-.4-2.1-1.3-2.9c-1.7-1.9-3.8-1.5-5.6-1.2M171.3,188.6l-6.3,4.2,1.2,1.9s4.4-3.1,4.8-3.3c.2.2,2.1,3.3,2.3,3.5-.2.2-4.4,3.1-4.4,3.1l1.2,1.9s4.2-2.9,4.4-2.9c.2.2,2.1,3.1,2.3,3.5-.2.2-4.6,3.1-4.6,3.1l1.2,1.9,6.3-4.2-8.3-12.7ZM115.8,198.6c-.2-.2-5.8-3.6-6-3.8.2-.2,3.5-5.4,3.5-5.4l-1.9-1.2v.2l-7.9,12.5,1.9,1.2s3.3-5.2,3.5-5.4c.2.2,5.8,3.6,6,3.8-.2.2-3.5,5.4-3.5,5.4l1.9,1.2,8.1-12.7-1.9-1.2c-.2,0-3.5,5-3.6,5.4M108.1,187.4c.2-1.9-.6-3.6-1.7-5-3.3-3.6-7.7-2.9-10.6-.4-1.7,1.5-2.7,3.5-2.7,5.4-.2,1.9.6,3.6,1.9,5.2,2.7,3.1,7.3,3.3,10.6.4,1.3-1.5,2.3-3.5,2.5-5.6M105.8,187.4c0,1.3-.8,2.9-1.9,3.8-2.3,2.1-5.4,2.1-7.3-.2-1-1-1.3-2.3-1.2-3.5,0-1.3.8-2.7,1.9-3.8,1.2-1,2.7-1.5,4-1.5s2.5.6,3.3,1.5c.8,1.2,1.2,2.3,1.2,3.6M100.3,175s-9.2,4.2-10,4.6c.4-.8,6.3-12.5,6.3-12.5l-.8-1.7h-.2l-13.4,6.3,1,1.9s9.2-4.2,10-4.6c-.4.8-6.3,12.5-6.3,12.5l.8,1.5,13.4-6.3-.8-1.7ZM80.7,165l.6,2.3,14.4-3.6-.4-2.3-.2.2-14.4,3.5ZM88.3,156.5c-.6-.4-1.2-.6-1.7-.4-.6,0-1.2.4-1.5,1s-.6,1.2-.4,1.7c0,.6.4,1.2,1,1.5.6.4,1.2.6,1.7.4,1.3-.2,2.1-1.3,1.9-2.7-.2-.8-.6-1.2-1-1.5M87.4,150.8c1-1.3,1.7-2.5,3.1-2.5s.8.2,1.2.6c.4.4.6,1,.6,1.5,0,1.2-.8,2.3-2.1,3.3l-.4.4h3.3c1-1.2,1.3-2.3,1.3-3.8s-.4-1.9-1-2.7c-.8-.8-1.9-1.2-3.1-1.2-2.7,0-3.8,1.7-5,3.5-.8,1.2-1.3,2.3-2.5,2.3s-.8-.2-1-.4c-.4-.4-.6-1-.6-1.5,0-1,.6-2.1,1.5-2.9l.4-.2h-2.9c-.8,1-1.2,1.9-1.2,3.1s.4,2.3,1.2,3.1c.8.8,1.7,1.2,2.9,1.2,1.9-.4,3.1-2.1,4.2-3.6M86.4,144.4c2.1.6,4.2.2,6-.8,1.5-1,2.7-2.5,3.1-4.4.4-1.9.2-3.8-.8-5.4-1-1.7-2.9-3.1-5-3.5-4.2-1.2-8.3,1.2-9.2,5.2-.2.6-.2,1.2-.2,1.7,0,1.3.4,2.5,1,3.5,1.3,1.9,3.1,3.3,5.2,3.6M83,136.2c.4-1.3,1.2-2.3,2.1-3.1,1.2-.8,2.7-1,4.2-.6s2.9,1.3,3.5,2.5c.6,1.2.8,2.3.6,3.6-.8,2.7-3.5,4.2-6.5,3.5-2.9-.6-4.6-3.1-3.8-6"/>
  <path d="M210.9,150.8c0-18.4-7.1-35.7-20.2-48.8-1.5-1.5-3.1-2.9-4.8-4.4v-2.7c2.7-.2,5-2.5,5-5.2s-2.3-5.2-5.2-5.2h-.4l5-2.3-1.9-4.2,7.5-17.5-3.3-1.3-7.7,17.9-4,1.9,2.7,5.8h-83.4l2.7-5.8-4.2-1.9-7.7-17.9-3.3,1.3,7.5,17.5-1.9,4.2,5,2.3h-.2c-2.9,0-5.2,2.3-5.2,5.2s2.1,5,4.8,5.2v2.7c-1.5,1.3-3.3,2.9-4.8,4.4-13.1,13.1-20.2,30.3-20.2,48.8s4.2,27.8,12.5,39.6c8.1,11.3,19,20,32.1,24.8,0,0,.8.2,1.9.8.2,1.9,1.3,3.6,3.1,4.2,1.9.8,4,0,5.2-1.3h.2v19.6c0,7.3,6.1,13.1,13.8,13.1s13.8-6,13.8-13.1v-13.1l33.8-16.1c1.2-.4,2.1-1,3.1-1.7,2.7-2.5,3.1-6.3,1.3-11.3,3.1-3.5,5.8-7.1,7.9-11.1,6.1-10.4,9.4-22.1,9.4-34.2M175,87.8l10,2.1-10,2.1v-4.2ZM142.9,192.6v-51.9h39.6v9.8c0,9.6-1.7,16.1-4.2,20.9-2.1,3.5-4.6,6.7-7.7,9.6l-.6.6c-7.3,6.9-17.1,10.8-27.1,10.9M154.8,194.4c-.8,1.7-1.3,3.6-1.7,5.8-3.8-1.3-7.5-2.7-11.1-4,4.4.2,8.8-.6,12.9-1.7M142.9,139v-44h39.6v44h-39.6ZM156.7,87.8l10,2.1-10,2.1v-4.2ZM138.3,87.8l10,2.1-10,2.1v-4.2ZM119.7,87.8l10,2.1-10,2.1v-4.2ZM101.6,87.8l10,2.1-10,2.1v-4.2ZM101.6,129.6v-34.6h39.6v44h-39.6v-9.4ZM101.6,140.8h39.6v51.9c-8.1-.2-15.9-2.7-22.7-7.3-.2-.2-.6-.4-.8-.6l-.2-.2c-.2-.2-.4-.2-.6-.4s-.4-.4-.6-.4l-.2-.2c-4.2-3.3-7.9-7.5-10.6-12.3-2.5-4.8-4-11.3-4-20.7v-9.8ZM120.4,212.6c-.6-.2-1.2-.4-1.5-.6-12.3-4.6-22.9-12.9-30.3-23.6-7.7-10.9-11.9-24-11.9-37.6s6.7-33.8,19.2-46.3,1.5-1.5,2.3-2.1v17.9c-2.7-1.9-5.8-3.8-6-4,.2-.2,2.5-3.8,2.5-3.8l-1.9-1.2v.2l-6.1,9.2,1.9,1.2s2.3-3.5,2.5-3.8c.2.2,4.2,2.7,7.1,4.8v6.3l-12.7-5.8v.2l-1,1.9,13.6,6.3v7.7c-1,3.6-1.5,7.5-1.5,11.5,0,8.3,2.3,15.9,6.1,22.7,2.5,4.8,5.8,8.1,8.8,10.9,1.3,1.2,2.7,2.3,4.2,3.5.2,0,.2.2.4.2.2.2.4.2.6.4s.4.2.6.4l.2.2c1.2.8,2.3,1.5,3.6,2.1,1.7.8,4,1.9,6.7,3.1l-2.9,7.1-1.3-.6c-.8-.4-1.7,0-2.1.8-.4.8,0,1.7.8,2.1l1.3.6-3.3,8.3ZM152.3,238.5c0,1.3-.4,2.7-1,3.8-.6,1-1.5,1.5-2.5,1.5s-2.5-.8-2.9-2.1c0-.2-.2-.8-.4-1.7.4.2.8.2,1.2.2,1.7,0,3.1-1.3,3.1-2.9s-1.3-2.9-3.1-2.9-1.7.4-2.3,1c-1-3.8-1.9-8.1-1.9-8.1h-1.3s-1,4.2-1.9,8.1c-.6-.6-1.3-1-2.1-1-1.7,0-2.9,1.3-2.9,2.9s1.3,2.9,2.9,2.9.8,0,1.2-.2c-.2.8-.4,1.5-.4,1.7-.4,1.2-1.5,2.1-2.9,2.1s-2.1-.6-2.7-1.5c-.6-1.2-.8-2.5-.8-3.8v-18.4c6.1,1.9,13.8,4.2,20.9,5.8l-.2,12.7ZM153.8,222.4c-10.8-2.3-23.2-6.3-30.5-8.8.8-1.7,1.9-4.8,3.3-8.1l1.9.8v.4c0,2.7,2.3,5,5,5s5-2.3,5-5-2.3-5-5-5-2.7.6-3.6,1.7l-2.1-1c1.2-2.9,2.1-5.6,2.9-7.1,7.3,3.1,16.7,6.7,25.7,9.6,9.6,2.9,17.3,4.6,23,5.2-10.2,5-24.8,11.9-25.5,12.3M190.1,204.7c-1,1-3.3,1.9-8.1,1.9,3.3-2.3,6.1-4.8,8.8-7.7.8,2.7.6,4.6-.8,5.8M176.5,206.3c-4.6-.6-10.9-2.1-19.2-4.6-.4-.2-.8-.2-1.2-.4.8-4.8,2.3-7.9,5-9.4,4.2-1.9,8.1-4.6,11.5-7.9,3.1-2.7,6.1-6,8.5-10.6,3.8-6.7,6.1-14.6,6.1-22.9s-.6-7.9-1.5-11.5v-7.3l2.1,5.4,2.1-.8s-2.1-5.2-2.1-5.4c.4-.2,11.9-4.8,11.9-4.8l-.8-2.1h-.2l-12.9,5.2v-1l8.6-12.3-.8-1.3h-.2l-7.7,1.7v-14.4c.8.8,1.5,1.3,2.3,2.1,12.3,12.3,19.2,28.8,19.2,46.3s-2.9,22.7-8.6,32.5c-5.4,9.8-13.1,17.7-22.3,23.4M186.7,123.9l-.8,1.2v-2.3l.8,1.2M186.1,118.9c.4,0,4.2-1,4.8-1.2-.4.6-2.7,3.8-2.9,4-.2-.2-1.7-2.5-1.9-2.9"/>
  <path d="M193.4,40.1c-2.7-4-7.1-5.8-10.4-5.8s-9.4,1.9-14,3.8c-5.2,2.1-10.6,4.2-15.9,3.8.6-1.9,1.3-3.8,2.3-5.4l-3.3-1.5c.6-1.2,1.2-2.5,1.3-4-.4-.2-4.8-1.7-11.9-1.7s-11.1,1.5-11.5,1.7c.2,1.5.6,2.9,1.3,4l-3.3,1.5c1,1.5,1.7,3.5,2.3,5.4-5.4.6-10.8-1.7-15.9-3.8-4.6-1.9-9.4-3.8-14-3.8s-7.7,1.7-10.4,5.8c-2.1,3.3-3.8,9.4.8,19.2v-.2l6.7-2.9.4,1.2c-2.1,1-4.2,3.5-1.7,9.2,5.8-2.5,6-5.8,5-7.9l1.2-.4,2.9,6.5,2.9,6.5-1.2.4c-1-2.1-3.5-4.2-9.2-1.7,2.5,5.8,6.9,8.1,10.4,8.1,6,0,10.2-3.6,9.6-7.3-.4-2.7-2.9-3.6-3.8-3.5-1.2.2-1.9,1.5-1.7,2.3,0,.2.2.4.2.6l-.2.2c-1.5-.2-2.9-1.3-3.3-2.9-.4-1.9,1-3.8,2.9-4.2,1.2-.2,2.3.2,3.3,1l.4-.6c-1.2-.6-1.9-1.5-2.1-2.9-.6-3.1,2.9-6.1,3.1-6.1,0,0,4.4,1.5,5,4.6.2,1.3-.2,2.5-1,3.5l.6.4c.4-1,1.3-1.9,2.7-2.1,1.9-.4,3.8,1,4.2,2.9.4,1.5-.6,3.3-1.9,3.8l-.2-.2v-.6c-.2-1-1.3-1.7-2.5-1.5-1,.2-2.9,1.9-2.3,4.6,1,4.6,4.8,7.9,9.4,7.9s9.6-3.8,9.6-9.6c-6.7,0-8.3,3.1-8.3,5.8h-1.3v-15.4h1.3c0,2.5,1.7,5.8,8.3,5.8,0-6.7-3.1-8.3-5.8-8.3v-1.3h15.2v1.3c-2.5,0-5.8,1.7-5.8,8.3,6.7,0,8.3-3.1,8.3-5.8h1.3v15.4h-1c0-2.5-1.7-5.8-8.3-5.8,0,5.8,4.8,9.6,9.6,9.6s8.6-3.3,9.4-7.9c.6-2.7-1.3-4.6-2.3-4.6-1.2-.2-2.3.6-2.5,1.5v.6l-.2.2c-1.3-.8-2.3-2.3-1.9-3.8.4-1.9,2.3-3.3,4.2-2.9,1.2.2,2.1,1,2.7,2.1l.6-.4c-.8-1-1.2-2.1-1-3.5.6-3.1,5-4.6,5-4.6,0,0,3.6,3.1,3.1,6.1-.2,1.3-1.2,2.3-2.1,2.9l.4.6c.8-.8,1.9-1.2,3.3-1,1.9.4,3.3,2.3,2.9,4.2-.4,1.7-1.7,2.9-3.3,2.9l-.2-.2c.2-.2.2-.4.2-.6.2-1-.6-2.1-1.7-2.3-1-.2-3.5.8-3.8,3.5-.6,3.6,3.8,7.3,9.6,7.3s7.9-2.3,10.4-8.1c-5.8-2.5-8.3-.4-9.2,1.7l-1.2-.4,2.9-6.5,2.9-6.5,1.2.4c-1,2.1-.8,5.4,5,7.9,2.5-5.8.4-8.3-1.7-9.2l.4-1.2,6.7,2.9v.2c4-10,2.3-15.9.2-19.2M131.8,48.6c-3.3,0-6,1.7-7.5,4.4-1.7-3.1-5.6-5-9.2-4.2-2.7.6-5,2.5-6,4.8-1.5-2.5-4.2-4-7.3-4s-7.1,2.5-8.3,6c-2.1-5.6-2.1-10.2,0-13.4,2.1-3.3,5.8-4.2,7.3-4.2,4,0,8.3,1.7,12.7,3.5,5.8,2.3,11.7,4.8,18.2,3.8.2,1.2.4,2.1.6,3.3-.2.2-.4.2-.6.2M141.9,30.7c1.7,0,3.3,1.3,3.5,3.1-1-.8-2.1-1.3-3.5-1.3s-2.5.6-3.5,1.3c.2-1.7,1.7-3.1,3.5-3.1M141.9,34c1.7,0,3.3,1.3,3.5,3.1-1-.8-2.1-1.3-3.5-1.3s-2.5.6-3.5,1.3c.2-1.7,1.7-3.1,3.5-3.1M141.9,53.4c-1.9,0-3.5-1.5-3.5-3.5s1.5-3.5,3.5-3.5,3.5,1.5,3.5,3.5-1.5,3.5-3.5,3.5M145.2,45.9c-1-.8-2.1-1.2-3.3-1.2s-2.3.4-3.3,1.2c-.2-.4-.2-.8-.2-1.2,0-1.9,1.5-3.5,3.5-3.5s3.5,1.5,3.5,3.5,0,.8-.2,1.2M145.4,41.1c-1-.8-2.1-1.3-3.5-1.3s-2.5.6-3.5,1.3v-.2c0-1.9,1.5-3.5,3.5-3.5s3.5,1.5,3.5,3.5v.2M190.3,55.5c-1.2-3.5-4.4-6-8.3-6s-5.8,1.5-7.3,4c-1.2-2.3-3.3-4.2-6-4.8-3.8-.8-7.5,1-9.2,4.2-1.5-2.5-4.2-4.4-7.5-4.4h-.6c.2-1,.4-2.1.6-3.3,6.5,1,12.5-1.5,18.2-3.8,4.4-1.7,8.6-3.5,12.7-3.5s5.2,1,7.3,4.2c2.1,3.1,2.1,7.7,0,13.3M161.1,97.6l.8,1.5h.8l-.2.6.2-.4h.2l.2-.2.8-1.5h-2.7ZM146.5,98.9l-.2.2v.6l-1.3-.2v-1l-1-1.7.2-.2,1.7,1h1v1.3l-.4-.2"/>
  <path d="M147.5,98.5c-.2,0-.4-.2-.4-.4s.2-.4.4-.4.2,0,.4.2h.2v-.4c0-.6-.4-1-1-1s-1,.4-1,1,.4,1,1,1h.4M146,100.1c0-.2-.2-.4-.4-.4s-.4.2-.4.4,0,.2.2.4v.2h-.4c-.6,0-1-.4-1-1s.4-1,1-1,1,.4,1,1v.4M146.5,135.6l-.2-.2v-.6l-1.3.2v.8l-1,1.7.2.4,1.7-1.2h1v-1.3l-.4.2"/>
  <path d="M147.5,135.8c-.2,0-.4.2-.4.4s.2.4.4.4.2,0,.4-.2h.2v.4c0,.6-.4,1-1,1s-1-.4-1-1,.4-1,1-1h.4M146,134.4c0,.2-.2.4-.4.4s-.4-.2-.4-.4,0-.2.2-.4v-.2h-.4c-.6,0-1,.4-1,1s.4,1,1,1,1-.4,1-1v-.4M178.4,135.6l.2-.2v-.6l1.3.2v.8l1,1.7-.2.4-1.7-1.2h-1v-1.3l.4.2"/>
  <path d="M177.5,135.8c.2,0,.4.2.4.4s-.2.4-.4.4-.2,0-.4-.2h-.2v.4c0,.6.4,1,1,1s1-.4,1-1-.4-1-1-1h-.4M179,134.4c0,.2.2.4.4.4s.4-.2.4-.4,0-.2-.2-.4v-.2h.4c.6,0,1,.4,1,1s-.4,1-1,1-1-.4-1-1v-.4M178.4,98.9l.2.2v.6l1.3-.2v-1l1-1.7-.2-.2-1.7,1h-1v1.3l.4-.2"/>
  <path d="M177.5,98.5c.2,0,.4-.2.4-.4s-.2-.4-.4-.4-.2,0-.4.2h-.2v-.4c0-.6.4-1,1-1s1,.4,1,1-.4,1-1,1h-.4M179,100.1c0-.2.2-.4.4-.4s.4.2.4.4,0,.2-.2.4v.2h.4c.6,0,1-.4,1-1s-.4-1-1-1-1,.4-1,1v.4ZM160.9,101.2h2.9v1.2h-2.9v-1.2ZM161.7,102.6h1.5l-.6,1.2h-.4l-.6-1.2Z"/>
  <path d="M164.6,102.4l-.2.2c-.2,0-.4-.2-.4-.4s.2-.4.4-.4h-.4c-.4,0-.8.4-.8.8s.4.8.8.8.8-.4.8-.8q-.2,0-.2-.2h0ZM160.4,102.4l.2.2c.2,0,.4-.2.4-.4s-.2-.4-.4-.4h.4c.4,0,.8.4.8.8s-.4.8-.8.8-.8-.4-.8-.8q.2,0,.2-.2h0ZM163.8,136.9l-.8-1.5-.6-.2h-.2l.4-.4-.4.4h-.2l-.2.2-.8,1.5h2.7ZM161.1,131.8h2.9v1.2h-2.9v-1.2Z"/>
  <path d="M163.2,131.9h-1.5l.6-1.3h.4l.6,1.3ZM160.4,132.1l.2-.2c.2,0,.4.2.4.4s-.2.4-.4.4h.4c.4,0,.8-.4.8-.8s-.4-.8-.8-.8-.8.4-.8.8q.2,0,.2.2h0ZM164.6,132.1l-.2-.2c-.2,0-.4.2-.4.4s.2.4.4.4h-.4c-.4,0-.8-.4-.8-.8s.4-.8.8-.8.8.4.8.8q-.2,0-.2.2h0ZM180,115.8l-1.5.8v.8l-.4-.2.4.4h-.2l.2.2,1.5.8v-2.7ZM175,115.8h1.2v2.9h-1.2v-2.9ZM175,116.4v1.5l-1.2-.6v-.4l1.2-.6ZM175.7,119.1v-.2.2"/>
  <path d="M175.3,119.3l-.2-.2c0-.2.2-.4.4-.4s.4.2.4.4v-.4c0-.4-.4-.8-.8-.8s-.8.4-.8.8.4.8.8.8l.2-.2h0ZM175.3,115.2l-.2.2c0,.2.2.4.4.4s.4-.2.4-.4v.4c0,.4-.4.8-.8.8s-.8-.4-.8-.8.4-.8.8-.8l.2.2h0ZM145,115.8l1.5.8v.8l.4-.2-.4.4h.2l-.2.2-1.5.8v-2.7ZM148.7,115.8h1.2v2.9h-1.2v-2.9ZM150,116.4v1.5l1.2-.6v-.4l-1.2-.6ZM149.2,119.1v-.2.2"/>
  <path d="M149.8,119.3l.2-.2c0-.2-.2-.4-.4-.4s-.4.2-.4.4v-.4c0-.4.4-.8.8-.8s.8.4.8.8-.4.8-.8.8c0,0-.2,0-.2-.2h0ZM149.8,115.2l.2.2c0,.2-.2.4-.4.4s-.4-.2-.4-.4v.4c0,.4.4.8.8.8s.8-.4.8-.8-.4-.8-.8-.8c0,0-.2,0-.2.2h0ZM93.9,280v48.2h59.2v-48.2h15v112.2h-15v-51.3h-59.2v51.3h-15v-112.2h15ZM186.5,334.9c1.7-5.2,4.2-9.6,7.5-13.4,3.3-3.8,7.5-6.9,12.5-9s10.6-3.3,16.9-3.3,12.1,1.2,17.1,3.3c4.8,2.1,9,5.2,12.3,9s6,8.3,7.5,13.4c1.7,5.2,2.5,10.8,2.5,16.7s-.8,11.5-2.5,16.7c-1.7,5.2-4.2,9.6-7.5,13.4s-7.5,6.7-12.3,9c-4.8,2.1-10.6,3.3-17.1,3.3s-12.1-1.2-16.9-3.3c-5-2.1-9-5.2-12.5-9-3.3-3.8-6-8.3-7.5-13.4-1.7-5.2-2.5-10.8-2.5-16.7s.8-11.5,2.5-16.7h0ZM200.1,364.7c1.3,3.8,3.1,7.1,5.4,9.6,2.3,2.5,5,4.6,8.1,6,3.1,1.3,6.3,2.1,9.8,2.1s6.7-.8,9.8-2.1c3.1-1.3,5.8-3.3,8.1-6,2.3-2.5,4-5.8,5.4-9.6s1.9-8.3,1.9-13.1-.6-9.2-1.9-13.1-3.1-7.1-5.4-9.6c-2.3-2.7-5-4.6-8.1-6-3.1-1.3-6.3-2.1-9.8-2.1s-6.7.8-9.8,2.1c-3.1,1.3-5.8,3.3-8.1,6-2.3,2.7-4,5.8-5.4,9.6-1.3,3.8-1.9,8.3-1.9,13.1s.6,9.2,1.9,13.1h0ZM289.2,310.9v11.9h.4c6.1-9.2,14.8-13.8,26.3-13.8s9.6,1,13.6,3.1,6.9,5.6,8.6,10.8c2.7-4.4,6.3-7.9,10.8-10.2,4.4-2.5,9.4-3.6,14.6-3.6s7.7.4,11.1,1.3c3.3,1,6.1,2.3,8.5,4.2s4.2,4.2,5.6,7.3,1.9,6.5,1.9,10.8v59.5h-13.4v-53.2c0-2.5-.2-4.8-.6-7.1-.4-2.1-1.2-4-2.3-5.8-1.2-1.5-2.7-2.9-4.8-3.8s-4.6-1.3-7.9-1.3c-6.5,0-11.7,1.9-15.6,5.6s-5.6,8.8-5.6,15.2v50.5h-13.4v-53.2c0-2.7-.2-5-.8-7.3-.4-2.1-1.3-4-2.5-5.8-1.2-1.5-2.7-2.9-4.6-3.8s-4.4-1.3-7.5-1.3-7.1.8-10,2.3c-2.7,1.5-5,3.5-6.7,5.6-1.7,2.1-3.1,4.4-3.8,6.9-.8,2.3-1.2,4.2-1.2,6v50.5h-13.4v-81h12.7ZM466.3,387c-6.1,4.6-13.6,6.9-22.9,6.9s-12.1-1-16.9-3.1-8.8-5-12.1-8.8-5.8-8.3-7.3-13.4-2.5-10.9-2.7-17.1c0-6.1,1-11.9,2.9-16.9,1.9-5.2,4.6-9.6,7.9-13.4,3.5-3.8,7.5-6.7,12.1-8.8,4.6-2.1,9.8-3.1,15.4-3.1s13.3,1.5,18.1,4.4c4.8,3.1,8.6,6.7,11.5,11.3s4.8,9.6,6,15.2c1.2,5.4,1.5,10.6,1.3,15.6h-60.9c-.2,3.6.4,6.9,1.3,10.2s2.5,6,4.6,8.5c2.1,2.5,4.8,4.4,8.1,6s7.1,2.1,11.5,2.1,10.4-1.3,13.8-3.8c3.6-2.7,6-6.5,7.1-11.9h13.3c-2.1,8.8-6.1,15.7-12.1,20.4h0ZM463.1,334.8c-1.2-2.9-2.9-5.2-4.8-7.3-2.1-2.1-4.4-3.6-7.3-4.8-2.7-1.2-5.8-1.7-9.2-1.7s-6.5.6-9.4,1.7c-2.7,1.2-5.2,2.9-7.1,5s-3.6,4.6-4.8,7.3c-1.2,2.7-1.9,5.8-2.1,8.8h46.7c0-3.1-.8-6.1-1.9-9h0ZM532.4,314c2.3-7.1,5.6-13.3,10.2-18.8,4.4-5.4,10.2-9.8,16.9-13.1s14.6-4.8,23.4-4.8,16.7,1.5,23.4,4.8,12.3,7.7,16.9,13.1c4.4,5.4,7.9,11.7,10.2,18.8,2.3,7.1,3.5,14.4,3.5,22.1s-1.2,15-3.5,22.1c-2.3,7.1-5.6,13.3-10.2,18.8-4.4,5.4-10.2,9.8-16.9,12.9-6.7,3.3-14.6,4.8-23.4,4.8s-16.7-1.5-23.4-4.8-12.3-7.5-16.9-12.9c-4.4-5.4-7.9-11.7-10.2-18.8-2.3-7.1-3.5-14.4-3.5-22.1s1.2-15,3.5-22.1ZM546,352.8c1.5,5.6,3.8,10.4,6.9,14.8s7.1,7.9,12.1,10.6c5,2.7,10.8,4,17.7,4s12.7-1.3,17.7-4c5-2.7,9-6.1,12.1-10.6,3.1-4.4,5.4-9.4,6.9-14.8,1.5-5.6,2.1-11.1,2.1-16.7s-.8-11.1-2.1-16.7c-1.5-5.6-3.8-10.4-6.9-14.8s-7.1-7.9-12.1-10.6c-5-2.7-10.8-4-17.7-4s-12.7,1.3-17.7,4c-5,2.7-9,6.1-12.1,10.6-3.1,4.4-5.4,9.4-6.9,14.8-1.5,5.6-2.1,11.1-2.1,16.7s.8,11.1,2.1,16.7ZM642.4,322.7v-11.7h13.6v-12.1c0-6.5,1.9-11.5,5.8-15s9.4-5.2,16.7-5.2,2.7.2,4.2.4c1.5.2,3.1.6,4.2,1v11.7c-1.2-.4-2.5-.8-3.8-.8-1.3-.2-2.7-.2-3.8-.2-3.3,0-5.8.6-7.5,1.9s-2.7,3.6-2.7,7.3v11.3h15.7v11.7h-15.7v69.5h-13.4v-69.5h-13.3v-.4Z"/>
  <path d="M684.1,322.7v-11.7h13.6v-12.1c0-6.5,1.9-11.5,5.8-15s9.4-5.2,16.7-5.2,2.7.2,4.2.4c1.5.2,3.1.6,4.2,1v11.7c-1.2-.4-2.5-.8-3.8-.8-1.3-.2-2.7-.2-3.8-.2-3.3,0-5.8.6-7.5,1.9s-2.7,3.6-2.7,7.3v11.3h15.7v11.7h-15.4v69.5h-13.4v-69.5h-13.6v-.4ZM737.7,296.3v-16.3h13.4v16.3h-13.4ZM751.1,310.9v81.2h-13.4v-81.2h13.4ZM818.4,325.2c-3.3-2.9-7.9-4.2-13.4-4.2s-8.8,1-12.1,2.7c-3.3,1.7-5.8,4.2-7.7,7.1s-3.3,6.3-4.2,10.2c-.8,3.8-1.3,7.7-1.3,11.9s.4,7.5,1.3,10.9c1,3.6,2.3,6.7,4.2,9.4s4.4,5,7.3,6.7c3.1,1.7,6.7,2.5,10.8,2.5,6.5,0,11.7-1.7,15.6-5.2,3.6-3.5,6-8.3,6.9-14.6h13.6c-1.5,10-5.2,17.9-11.1,23.2-6,5.4-14.2,8.3-24.6,8.3s-11.7-1-16.3-3.1c-4.8-1.9-8.8-4.8-11.9-8.5-3.3-3.6-5.6-8.1-7.3-13.1-1.5-5-2.5-10.6-2.5-16.7s.8-11.7,2.3-17.1c1.5-5.4,4-10,7.1-13.8,3.3-3.8,7.1-7.1,12.1-9.2,4.8-2.3,10.4-3.5,16.9-3.5s8.8.6,12.9,1.7c4,1.2,7.7,2.9,10.8,5.2s5.6,5.2,7.7,8.6c1.9,3.5,3.3,7.7,3.8,12.5h-13.8c-1.3-5.4-3.5-9.4-6.9-12.1h0ZM909.8,387c-6.1,4.6-13.6,6.9-22.9,6.9s-12.1-1-16.9-3.1-8.8-5-12.1-8.8c-3.3-3.8-5.8-8.3-7.3-13.4s-2.5-10.9-2.7-17.1c0-6.1,1-11.9,2.9-16.9,1.9-5.2,4.6-9.6,7.9-13.4,3.5-3.8,7.5-6.7,12.1-8.8s9.8-3.1,15.4-3.1,13.3,1.5,18.1,4.4c4.8,3.1,8.6,6.7,11.5,11.3s4.8,9.6,6,15.2c1.2,5.4,1.5,10.6,1.3,15.6h-60.9c-.2,3.6.4,6.9,1.3,10.2s2.5,6,4.6,8.5c2.1,2.5,4.8,4.4,8.1,6s7.1,2.1,11.5,2.1,10.4-1.3,13.8-3.8c3.6-2.7,6-6.5,7.1-11.9h13.3c-2.1,8.8-6,15.7-12.1,20.4h0ZM906.7,334.8c-1.2-2.9-2.9-5.2-4.8-7.3-2.1-2.1-4.4-3.6-7.3-4.8-2.7-1.2-5.8-1.7-9.2-1.7s-6.5.6-9.4,1.7c-2.7,1.2-5.2,2.9-7.1,5s-3.6,4.6-4.8,7.3c-1.2,2.7-1.9,5.8-2.1,8.8h46.7c0-3.1-.8-6.1-1.9-9h0Z"/>
</svg>