<svg version="1.1" width="153px" height="90px" viewBox="0 0 153 90" xmlns="http://www.w3.org/2000/svg">

  <path fill="#003768" d="M5.8,7.7C5.8,3.5,9.3,0,13.7,0c4.4,0,7.8,3.5,7.8,7.7c0,4.3-3.5,7.6-7.8,7.6C9.3,15.3,5.8,12,5.8,7.7 M0.4,63.2h3.8c1.2,0,2.4-1.4,2.4-2.5V30.8c0-1.1-1.2-2.7-2.4-2.7H0v-8.7h18.7c1.6,0,2.4,1.6,2.4,5.5v35.7c0,1.2,1.3,2.5,2.5,2.5h3.8v8.2H0.4V63.2z"></path>
  
  <path fill="#003768" d="M30.7,45.6c0-16.7,11.9-26.9,27.6-26.9c8.1,0,12.8,1.9,15.9,3.6V33h-5.5c-2.1-2-5.7-3.8-10.4-3.8c-7.5,0-13,5.5-13,16.4c0,11.2,5.2,15.9,12.6,15.9c6.1,0,9.4-2.1,11.6-4.2h5v9.9c-3.2,2.1-8.8,4.8-16.8,4.8C40.7,72.1,30.7,62.2,30.7,45.6"></path>
  
  <path fill="#003768" d="M118,45.7c0-11.3-4.9-16.8-11.9-16.8c-7,0-11.9,5.5-11.9,16.8c0,11.2,4.9,16,11.9,16C113.2,61.8,118,56.9,118,45.7 M79.6,45.7c0-16.7,11.9-27,26.5-27c14.7,0,26.5,10.3,26.5,27c0,16.6-11.9,26.4-26.5,26.4C91.5,72.1,79.6,62.3,79.6,45.7"></path>
  
  <path fill="#003768" d="M136.8,64.1c0-4.5,3.6-8,8.1-8s8.1,3.6,8.1,8s-3.7,7.9-8.1,7.9C140.3,72,136.8,68.5,136.8,64.1"></path>
</svg>
