<?xml version="1.0" encoding="UTF-8"?>
<svg id="Send_a_Card" xmlns="http://www.w3.org/2000/svg" xmlns:xlink="http://www.w3.org/1999/xlink" viewBox="0 0 2340 1560">
  <defs>
    <style>
      .cls-1 {
        fill: url(#_Безымянный_градиент_27-3);
      }

      .cls-2 {
        fill: url(#_Безымянный_градиент_27-2);
      }

      .cls-3 {
        fill: url(#_Безымянный_градиент_11-4);
      }

      .cls-4 {
        fill: #fff;
      }

      .cls-5 {
        fill: #c3e8e4;
      }

      .cls-6 {
        fill: url(#_Безымянный_градиент_11-2);
      }

      .cls-7 {
        fill: #336275;
      }

      .cls-8 {
        fill: #30496e;
      }

      .cls-9 {
        fill: #fcc8aa;
      }

      .cls-10 {
        fill: url(#_Безымянный_градиент_27-4);
      }

      .cls-11 {
        fill: #fe9d51;
      }

      .cls-12 {
        fill: #fcb395;
      }

      .cls-13 {
        fill: #162233;
      }

      .cls-14 {
        fill: url(#_Безымянный_градиент_27-5);
      }

      .cls-15 {
        stroke: #fff;
        stroke-width: 3px;
      }

      .cls-15, .cls-16 {
        fill: none;
        stroke-miterlimit: 10;
      }

      .cls-17 {
        fill: url(#_Безымянный_градиент_11);
      }

      .cls-16 {
        stroke: #c3e8e4;
        stroke-width: 2px;
      }

      .cls-18 {
        fill: url(#_Безымянный_градиент_11-3);
      }

      .cls-19 {
        fill: #fe8144;
      }

      .cls-20 {
        fill: #fed06e;
      }

      .cls-21 {
        fill: #393939;
      }

      .cls-22 {
        fill: url(#_Безымянный_градиент_27);
      }

      .cls-23 {
        fill: #427475;
      }
    </style>
    <linearGradient id="_Безымянный_градиент_11" data-name="Безымянный градиент 11" x1="262.79" y1="788.73" x2="1976.31" y2="788.73" gradientUnits="userSpaceOnUse">
      <stop offset="0" stop-color="#fae390"/>
      <stop offset=".53" stop-color="#f5c511"/>
      <stop offset=".79" stop-color="#f6d14a"/>
    </linearGradient>
    <radialGradient id="_Безымянный_градиент_27" data-name="Безымянный градиент 27" cx="766.85" cy="989.93" fx="766.85" fy="989.93" r="361.96" gradientUnits="userSpaceOnUse">
      <stop offset=".13" stop-color="#106ac7"/>
      <stop offset=".52" stop-color="#1d5093"/>
      <stop offset=".99" stop-color="#0e3159"/>
    </radialGradient>
    <radialGradient id="_Безымянный_градиент_27-2" data-name="Безымянный градиент 27" cx="1272.3" cy="940.6" fx="1272.3" fy="940.6" r="159.33" xlink:href="#_Безымянный_градиент_27"/>
    <radialGradient id="_Безымянный_градиент_27-3" data-name="Безымянный градиент 27" cx="1865.61" cy="542.6" fx="1865.61" fy="542.6" r="90.16" xlink:href="#_Безымянный_градиент_27"/>
    <radialGradient id="_Безымянный_градиент_27-4" data-name="Безымянный градиент 27" cx="1503.1" cy="444.84" fx="1503.1" fy="444.84" r="142.99" xlink:href="#_Безымянный_градиент_27"/>
    <radialGradient id="_Безымянный_градиент_27-5" data-name="Безымянный градиент 27" cx="1230.58" cy="621.14" fx="1230.58" fy="621.14" r="113.27" xlink:href="#_Безымянный_градиент_27"/>
    <linearGradient id="_Безымянный_градиент_11-2" data-name="Безымянный градиент 11" x1="685.73" y1="1009.63" x2="590.15" y2="1203.03" gradientTransform="translate(-136.14 -672.62) rotate(-20.58)" xlink:href="#_Безымянный_градиент_11"/>
    <linearGradient id="_Безымянный_градиент_11-3" data-name="Безымянный градиент 11" x1="755.91" y1="1044.31" x2="660.32" y2="1237.71" gradientTransform="translate(-136.14 -672.62) rotate(-20.58)" xlink:href="#_Безымянный_градиент_11"/>
    <linearGradient id="_Безымянный_градиент_11-4" data-name="Безымянный градиент 11" x1="588.4" y1="1200.73" x2="600.9" y2="1186.28" gradientTransform="translate(-136.14 -672.62) rotate(-20.58)" xlink:href="#_Безымянный_градиент_11"/>
  </defs>
  <rect id="Background" class="cls-4" width="2340" height="1560"/>
  <g id="Object">
    <g>
      <path class="cls-17" d="M1651.33,313.33c-119.3-22.47-242.29-25.03-362.47-7.99-111.74,15.84-217.42,53.8-331.82,41.79-69.74-7.33-137.7-25.89-205.68-42.29-123.03-29.69-261.75-48.95-368.68,18.75-64.49,40.83-109.12,111.61-118.16,187.4-9.04,75.79,17.69,155.09,70.76,209.94,39.59,40.91,97.61,79.86,91.52,136.46-4.41,41.06-41.99,69.11-65.12,103.32-49.15,72.68-27.92,178.01,33.31,240.84,61.23,62.84,152.94,88.07,240.67,87.66,87.74-.42,173.54-23.58,258.68-44.76,85.14-21.18,172.39-40.67,259.84-33.57,77.64,6.31,151.84,33.28,226.4,55.83,74.56,22.54,152.78,40.98,229.85,29.61,77.06-11.37,153.2-58.56,178.55-132.22,35.25-102.4-33.34-224.52,17.83-319.97,31.88-59.46,101.51-89.32,139.78-144.88,54.76-79.5,28.92-194.91-37.41-265.06-66.32-70.15-162.99-102.98-257.86-120.85Z"/>
      <path class="cls-5" d="M1260.38,1261.06c-14.14-9.74-37.37-9.81-53.69-11.47-16.81-1.71-33.74-2.26-50.63-1.64-13.74.51-27.73,1.86-40.31,7.4-12.58,5.54-23.68,15.9-27.06,29.22-3.8,14.98,3.65,32.08,17.22,39.5,7.74,4.23,16.74,5.39,25.49,6.48,40.7,5.06,81.4,10.12,122.1,15.18,7.43.92,15.52,1.72,21.91-2.2,8.78-5.39,10.66-17.35,9.89-27.62-1.36-18.25-8.79-43.74-24.91-54.84Z"/>
      <path class="cls-5" d="M1909.38,848.13c-9.38-5.7-21.5-4.74-31.82-1.91-7.97,2.18-15.6,7-19.25,14.41-1.64,3.32-2.41,7.02-2.67,10.71-.89,12.55,4.28,25.39,13.61,33.83s22.64,12.28,35.03,10.12c4.7-.82,9.28-2.47,13.28-5.08,11.26-7.38,16.5-22.36,13.44-35.47-2.81-12.02-11.41-20.41-21.62-26.61Z"/>
      <path class="cls-5" d="M613.33,235.17c5.72,5.17,13.87,7.52,21.46,6.2,2.88-.5,5.69-1.51,8.13-3.11,6.9-4.52,10.11-13.69,8.23-21.73-1.72-7.36-6.99-12.5-13.25-16.3-5.75-3.49-13.17-2.9-19.49-1.17-4.88,1.34-9.56,4.29-11.79,8.83-1,2.04-1.47,4.3-1.64,6.56-.55,7.69,2.62,15.56,8.34,20.72Z"/>
      <path class="cls-5" d="M2061.61,641.85c-.93-3.98-3.78-6.76-7.16-8.81-3.11-1.89-7.12-1.57-10.54-.63-2.64.72-5.17,2.32-6.37,4.77-.54,1.1-.8,2.32-.88,3.55-.3,4.16,1.42,8.41,4.51,11.2,3.09,2.79,7.5,4.07,11.6,3.35,1.56-.27,3.07-.82,4.4-1.68,3.73-2.44,5.46-7.4,4.45-11.74Z"/>
      <path class="cls-5" d="M1406.44,1337.11c-3.11-1.89-7.12-1.57-10.54-.63-2.64.72-5.17,2.32-6.37,4.77-.54,1.1-.8,2.32-.88,3.55-.3,4.16,1.42,8.41,4.51,11.2,3.09,2.79,7.5,4.07,11.6,3.35,1.56-.27,3.07-.82,4.4-1.68,3.73-2.44,5.46-7.4,4.45-11.74-.93-3.98-3.78-6.76-7.16-8.81Z"/>
    </g>
    <path class="cls-16" d="M1675.56,323.45c-119.3-22.47-242.29-25.03-362.47-7.99-111.74,15.84-217.42,53.8-331.82,41.79-69.74-7.33-137.7-25.89-205.68-42.29-123.03-29.69-261.75-48.95-368.68,18.75-64.49,40.83-109.12,111.61-118.16,187.4-9.04,75.79,17.69,155.09,70.76,209.94,39.59,40.91,97.61,79.86,91.52,136.46-4.41,41.06-41.99,69.11-65.12,103.32-49.15,72.68-27.92,178.01,33.31,240.84,61.23,62.84,152.94,88.07,240.67,87.66,87.74-.42,173.54-23.58,258.68-44.76,85.14-21.18,172.39-40.67,259.84-33.57,77.64,6.31,151.84,33.28,226.4,55.83,74.56,22.54,152.78,40.98,229.85,29.61,77.06-11.37,153.2-58.56,178.55-132.22,35.25-102.4-33.34-224.52,17.83-319.97,31.88-59.46,101.51-89.32,139.78-144.88,54.76-79.5,28.92-194.91-37.41-265.06-66.32-70.15-162.99-102.98-257.86-120.85Z"/>
    <path class="cls-15" d="M1619.47,288.25c-119.3-22.47-242.29-25.03-362.47-7.99-111.74,15.84-217.42,53.8-331.82,41.79-69.74-7.33-137.7-25.89-205.68-42.29-123.03-29.69-261.75-48.95-368.68,18.75-64.49,40.83-109.12,111.61-118.16,187.4-9.04,75.79,17.69,155.09,70.76,209.94,39.59,40.91,97.61,79.86,91.52,136.46-4.41,41.06-41.99,69.11-65.12,103.32-49.15,72.68-27.92,178.01,33.31,240.84,61.23,62.84,152.94,88.07,240.67,87.66,87.74-.42,173.54-23.58,258.68-44.76,85.14-21.18,172.39-40.67,259.84-33.57,77.64,6.31,151.84,33.28,226.4,55.83,74.56,22.54,152.78,40.98,229.85,29.61,77.06-11.37,153.2-58.56,178.55-132.22,35.25-102.4-33.34-224.52,17.83-319.97,31.88-59.46,101.51-89.32,139.78-144.88,54.76-79.5,28.92-194.91-37.41-265.06-66.32-70.15-162.99-102.98-257.86-120.85Z"/>
    <path class="cls-22" d="M1232.01,1144.84c-13.29,10.85-27.76,20.2-42.97,27.64-75.04,36.72-163.02,35.75-245.64,23.39-253.09-37.87-489.09-179.38-641.72-384.78l58.94,13.63v-48.44c152.63,205.4,388.63,346.91,641.72,384.78,76.83,11.5,158.29,13.14,229.67-16.22Z"/>
    <path class="cls-2" d="M1247.97,1137.67c-5.26,2.57-10.58,4.96-15.96,7.17,52.29-42.68,86.23-108.68,74.03-174.17-15.15-81.34-92.11-136.84-128.91-210.06l64.57-24.25c38.5,68.12,108.86,122.12,123.28,199.51,15.3,82.12-41.97,165.07-117.01,201.8Z"/>
    <g>
      <rect class="cls-20" x="1699.63" y="191.86" width="193.19" height="126.18" transform="translate(3203.12 1400.41) rotate(-148.93)"/>
      <path class="cls-4" d="M1680.6,258.19l99.07-35.24-34.51-71.46c-.24-.5-.03-1.1.47-1.34.5-.24,1.09-.03,1.34.47l49.89,103.3,114.64-4.16c.55-.02,1.02.41,1.04.96.02.55-.41,1.02-.96,1.04l-79.3,2.88,15.13,104.05c.08.55-.3,1.05-.85,1.13-.24.03-.47-.02-.66-.13-.25-.15-.43-.4-.47-.71l-15.16-104.27-33.99,1.23c-.2,0-.39-.04-.55-.14s-.3-.24-.38-.42l-14.79-30.62-99.27,35.31c-.29.1-.6.06-.85-.09-.19-.12-.35-.29-.43-.52-.19-.52.09-1.09.61-1.28Z"/>
    </g>
    <g>
      <rect class="cls-20" x="1669.22" y="1056.94" width="193.19" height="126.18" transform="translate(3826.44 1475.49) rotate(157.4)"/>
      <path class="cls-4" d="M1699.92,1215.11l30.3-100.69-78.01-14.53c-.54-.1-.9-.62-.8-1.17.1-.54.62-.9,1.17-.8l112.78,21.01,64.57-94.82c.31-.46.93-.57,1.39-.26.46.31.57.93.26,1.39l-44.66,65.59,92.79,49.45c.49.26.67.87.41,1.35-.11.21-.29.37-.5.45-.27.11-.58.11-.86-.04l-92.98-49.55-19.14,28.11c-.11.16-.27.29-.44.36s-.37.1-.57.06l-33.43-6.23-30.36,100.9c-.09.3-.31.52-.57.64-.21.09-.44.1-.67.03-.53-.16-.83-.72-.67-1.25Z"/>
    </g>
    <g>
      <rect class="cls-20" x="339.59" y="191.84" width="144.01" height="94.06" transform="translate(-35.93 77.03) rotate(-10.25)"/>
      <path class="cls-4" d="M491.3,271.77l-59.68-50.81,42.98-40.64c.3-.28.31-.75.03-1.05-.28-.3-.75-.31-1.05-.03l-62.13,58.75-78.77-33.28c-.38-.16-.82.02-.98.4-.16.38.02.82.4.98l54.49,23.02-38.12,68.49c-.2.36-.07.81.29,1.01.16.09.33.11.49.08.21-.04.41-.17.52-.37l38.2-68.63,23.35,9.87c.14.06.28.07.42.05s.27-.09.38-.19l18.42-17.42,59.81,50.91c.18.15.4.2.62.17.16-.03.32-.11.43-.25.27-.31.23-.78-.08-1.05Z"/>
    </g>
    <g>
      <rect class="cls-11" x="1509.41" y="707.2" width="144.01" height="94.06" transform="translate(-108.95 293.37) rotate(-10.25)"/>
      <path class="cls-4" d="M1661.12,787.13l-59.68-50.81,42.98-40.64c.3-.28.31-.75.03-1.05-.28-.3-.75-.31-1.05-.03l-62.13,58.75-78.77-33.28c-.38-.16-.82.02-.98.4-.16.38.02.82.4.98l54.49,23.02-38.12,68.49c-.2.36-.07.81.29,1.01.16.09.33.11.49.08.21-.04.41-.17.52-.37l38.2-68.63,23.35,9.87c.14.06.28.07.42.05s.27-.09.38-.19l18.42-17.42,59.81,50.91c.18.15.4.2.62.17.16-.03.32-.11.43-.25.27-.31.23-.78-.08-1.05Z"/>
    </g>
    <g>
      <rect class="cls-11" x="572.49" y="1320.73" width="96.66" height="63.13" transform="translate(267.95 -93.25) rotate(10.94)"/>
      <path class="cls-4" d="M662.71,1392.22l-25.03-46.27,36.76-15.01c.26-.1.38-.4.27-.65-.1-.26-.4-.38-.65-.27l-53.14,21.7-41.22-39.94c-.2-.19-.52-.19-.71.01-.19.2-.19.52.01.71l28.52,27.62-40.47,33.61c-.21.18-.24.49-.07.7.08.09.18.15.29.17.14.03.29,0,.41-.11l40.55-33.68,12.22,11.84c.07.07.16.11.25.13s.19,0,.28-.03l15.75-6.43,25.08,46.37c.07.14.2.23.35.25.11.02.23,0,.33-.05.24-.13.33-.44.2-.68Z"/>
    </g>
    <g>
      <path class="cls-9" d="M1259.1,991.7c-4,17.72-13.01,38.59-18.33,50.07l-40.2-9.01,24.44-58.88,34.09,17.82Z"/>
      <path class="cls-11" d="M1355.47,923.61l5.02,3.99-51.03,96.9c-11.61-5.13-25.66-2.02-33.91,8.38-3.63,4.57-5.64,9.92-6.09,15.33l-28.68-6.44c5.32-11.48,14.32-32.35,18.33-50.07l11.26,5.89,85.1-73.98Z"/>
      <path class="cls-20" d="M1309.46,1024.49l-15.39,29.22-24.61-5.51c.45-5.41,2.46-10.75,6.09-15.33,8.26-10.4,22.3-13.51,33.91-8.38Z"/>
      <path class="cls-9" d="M968.45,1329.02c-16.37,7.88-38.31,13.8-50.61,16.77l-17.93-37.09,61.31-17.46,7.23,37.78Z"/>
      <path class="cls-11" d="M1081.69,1362.17v6.41l-107.62,20.27c-3.2-12.28-14.37-21.35-27.65-21.35-5.84,0-11.27,1.75-15.79,4.76l-12.79-26.47c12.3-2.97,34.24-8.89,50.61-16.77l2.39,12.48,110.85,20.67Z"/>
      <path class="cls-8" d="M628.31,837.5l209.58-74.5,394.57,211.72s-19.11,89.82-42.17,135.8c0,0-253.79-131.17-323.65-196.28l-40.4,6.65h-199.4s-34.42-40.02-32.04-44.48,33.5-38.92,33.5-38.92Z"/>
      <path class="cls-7" d="M451.51,956.54s58.46,109.78,308.67,28.51c0,0,27.8,268.75,73.43,355.01,0,0,104.79-20.67,131.88-46.34,0,0-42.77-402.06-163.25-399.21s-163.96-5.7-163.96-5.7l-9.98-51.33-83.82,17.82-63.74,38.5-29.23,62.73Z"/>
      <path class="cls-4" d="M871.43,1331.14c-44.48-89.99-84.54-360.26-84.94-362.98-.04-.26-.18-.5-.4-.66-.21-.16-.49-.23-.75-.18-83.71,12.88-151.56,16.12-201.66,9.63-16.27-2.11-30.57-5.21-42.84-9.28,16.7-45.63-11.2-90.34-11.49-90.79-.3-.46-.91-.6-1.38-.31-.47.3-.6.91-.31,1.38.28.44,27.67,44.37,11.28,89.07-14.81-5.12-26.56-11.71-35.12-19.71-15.5-14.49-14.49-28.56-14.48-28.7.05-.55-.36-1.03-.91-1.08-.55-.05-1.04.36-1.09.91-.05.61-1.15,15.08,15.01,30.25,18.16,17.05,56.56,33.56,137.16,33.56,38.15,0,85.75-3.7,145.13-12.8,2.72,18.17,41.73,275.08,84.98,362.58.17.35.53.56.9.56.15,0,.3-.03.44-.1.5-.25.7-.84.45-1.34Z"/>
      <path class="cls-12" d="M624.27,662s54.65-13.04,69.86-23.21c15.21-10.17,21.39,79.65,21.39,79.65l-64.63,25.19s-47.68-21.49-47.6-25,4.36-28.22,6.26-32.03,14.73-24.6,14.73-24.6Z"/>
      <path class="cls-7" d="M544.49,654.76s45.56,12.1,79.78,7.24c0,0,11.41,46.47-13.78,93.04-25.19,46.57-45.62,9.03-45.62,2.38s-20.38-102.65-20.38-102.65Z"/>
      <path class="cls-13" d="M466.49,571.59s-67.49-31.22-67.97-94.26,73.66-82.53,75.09-49.73c0,0,15.68-39.92,33.5-32.55s1.43,25.43,1.43,25.43c0,0,22.34-32.32,57.27-22.81s-14.26,71.05-14.26,71.05l-25.18,82.22-37.93,29.94-20.28,3.8-1.66-13.07Z"/>
      <path class="cls-9" d="M573.42,530.25s16.39,71.05-38.97,59.4l1.33,19.68,1.04,15.3s-19.72,31.8-56.79,20.87c-37.07-10.94-37.07-35.05-37.07-35.05l23.53-38.86s24.23,14.02,20.67-21.14c0,0-25.9.23-19.96-22.1,5.94-22.34,28.28,4.99,28.28,4.99,0,0,11.4-19.49,1.9-44.44,0,0,42.77-9.27,54.17-20.2l12.12,37.79s10.7,11.64,22.58,10.93l-12.83,12.83Z"/>
      <path class="cls-11" d="M442.96,610.45s29.11,46.91,93.86,14.19c0,0,74.38,117.34,91.49,212.86,0,0-104.08,24.95-176.79,119.05,0,0-167.17-277.31-8.55-346.1Z"/>
      <path class="cls-7" d="M533.5,715.97s-86.62-93.11-144-33.02c-57.39,60.09,98.85,124.37,98.85,124.37l27.68-4.04s18.18-58.69,18.65-59.41,2.14-16.63,2.14-16.63l-3.32-11.27Z"/>
      <g>
        <g>
          <rect class="cls-19" x="658.53" y="275.84" width="743.89" height="522.04" transform="translate(-122.96 396.51) rotate(-20.58)"/>
          <polygon class="cls-11" points="935.15 101.84 815.91 146.62 590.51 423.25 1286.92 161.75 935.15 101.84"/>
        </g>
        <g>
          <rect class="cls-4" x="746.09" y="228.95" width="525.03" height="499.37" transform="translate(-103.88 385.1) rotate(-20.58)"/>
          <path class="cls-13" d="M1059.53,306.06c-.42.16-.89.17-1.34.02l-31.55-10.56-16.81,28.72c-.48.82-1.46,1.19-2.36.89l-31.55-10.56-16.8,28.72c-.48.82-1.46,1.19-2.36.89l-31.55-10.56-16.8,28.72c-.48.82-1.46,1.19-2.36.89l-31.55-10.56-16.8,28.72c-.48.82-1.46,1.19-2.36.89l-31.55-10.56-16.8,28.72c-.48.82-1.46,1.19-2.36.89l-33.09-11.07c-1.05-.35-1.61-1.48-1.26-2.53.35-1.05,1.48-1.61,2.53-1.26l31.55,10.56,16.8-28.72c.48-.82,1.46-1.19,2.36-.89l31.55,10.56,16.8-28.72c.48-.82,1.46-1.19,2.36-.89l31.55,10.56,16.8-28.72c.48-.82,1.46-1.19,2.36-.89l31.55,10.56,16.8-28.72c.48-.82,1.46-1.19,2.36-.89l31.55,10.56,16.81-28.72c.48-.82,1.46-1.19,2.36-.89l31.55,10.56,16.81-28.72c.48-.82,1.46-1.19,2.36-.89l31.56,10.56,16.81-28.72c.56-.95,1.78-1.27,2.74-.72.95.56,1.27,1.78.72,2.74l-17.63,30.12c-.48.82-1.46,1.19-2.36.89l-31.56-10.56-16.81,28.72c-.24.41-.6.7-1.02.86Z"/>
          <path class="cls-13" d="M1081.59,364.81c-.42.16-.89.17-1.34.02l-31.55-10.56-16.81,28.72c-.48.82-1.46,1.19-2.36.89l-31.55-10.56-16.8,28.72c-.48.82-1.46,1.19-2.36.89l-31.55-10.56-16.8,28.72c-.48.82-1.46,1.19-2.36.89l-31.55-10.56-16.8,28.72c-.48.82-1.46,1.19-2.36.89l-31.55-10.56-16.8,28.72c-.48.82-1.46,1.19-2.36.89l-33.09-11.07c-1.05-.35-1.61-1.48-1.26-2.53.35-1.05,1.48-1.61,2.53-1.26l31.55,10.56,16.8-28.72c.48-.82,1.46-1.19,2.36-.89l31.55,10.56,16.8-28.72c.48-.82,1.46-1.19,2.36-.89l31.55,10.56,16.8-28.72c.48-.82,1.46-1.19,2.36-.89l31.55,10.56,16.8-28.72c.48-.82,1.46-1.19,2.36-.89l31.55,10.56,16.81-28.72c.48-.82,1.46-1.19,2.36-.89l31.55,10.56,16.81-28.72c.48-.82,1.46-1.19,2.36-.89l31.56,10.56,16.81-28.72c.56-.95,1.78-1.27,2.74-.72.95.56,1.27,1.78.72,2.74l-17.63,30.12c-.48.82-1.46,1.19-2.36.89l-31.56-10.56-16.81,28.72c-.24.41-.6.7-1.02.86Z"/>
          <path class="cls-13" d="M1103.65,423.56c-.42.16-.89.17-1.34.02l-31.55-10.56-16.81,28.72c-.48.82-1.46,1.19-2.36.89l-31.55-10.56-16.8,28.72c-.48.82-1.46,1.19-2.36.89l-31.55-10.56-16.8,28.72c-.48.82-1.46,1.19-2.36.89l-31.55-10.56-16.8,28.72c-.48.82-1.46,1.19-2.36.89l-31.55-10.56-16.8,28.72c-.48.82-1.46,1.19-2.36.89l-33.09-11.07c-1.05-.35-1.61-1.48-1.26-2.53.35-1.05,1.48-1.61,2.53-1.26l31.55,10.56,16.8-28.72c.48-.82,1.46-1.19,2.36-.89l31.55,10.56,16.8-28.72c.48-.82,1.46-1.19,2.36-.89l31.55,10.56,16.8-28.72c.48-.82,1.46-1.19,2.36-.89l31.55,10.56,16.8-28.72c.48-.82,1.46-1.19,2.36-.89l31.55,10.56,16.81-28.72c.48-.82,1.46-1.19,2.36-.89l31.55,10.56,16.81-28.72c.48-.82,1.46-1.19,2.36-.89l31.56,10.56,16.81-28.72c.56-.95,1.78-1.27,2.74-.72.95.56,1.27,1.78.72,2.74l-17.63,30.12c-.48.82-1.46,1.19-2.36.89l-31.56-10.56-16.81,28.72c-.24.41-.6.7-1.02.86Z"/>
          <path class="cls-13" d="M1125.71,482.31c-.42.16-.89.17-1.34.02l-31.55-10.56-16.81,28.72c-.48.82-1.46,1.19-2.36.89l-31.55-10.56-16.8,28.72c-.48.82-1.46,1.19-2.36.89l-31.55-10.56-16.8,28.72c-.48.82-1.46,1.19-2.36.89l-31.55-10.56-16.8,28.72c-.48.82-1.46,1.19-2.36.89l-31.55-10.56-16.8,28.72c-.48.82-1.46,1.19-2.36.89l-33.09-11.07c-1.05-.35-1.61-1.48-1.26-2.53.35-1.05,1.48-1.61,2.53-1.26l31.55,10.56,16.8-28.72c.48-.82,1.46-1.19,2.36-.89l31.55,10.56,16.8-28.72c.48-.82,1.46-1.19,2.36-.89l31.55,10.56,16.8-28.72c.48-.82,1.46-1.19,2.36-.89l31.55,10.56,16.8-28.72c.48-.82,1.46-1.19,2.36-.89l31.55,10.56,16.81-28.72c.48-.82,1.46-1.19,2.36-.89l31.55,10.56,16.81-28.72c.48-.82,1.46-1.19,2.36-.89l31.56,10.56,16.81-28.72c.56-.95,1.78-1.27,2.74-.72.95.56,1.27,1.78.72,2.74l-17.63,30.12c-.48.82-1.46,1.19-2.36.89l-31.56-10.56-16.81,28.72c-.24.41-.6.7-1.02.86Z"/>
          <path class="cls-21" d="M1147.77,541.05c-.42.16-.89.17-1.34.02l-31.55-10.56-16.81,28.72c-.48.82-1.46,1.19-2.36.89l-31.55-10.56-16.8,28.72c-.48.82-1.46,1.19-2.36.89l-31.55-10.56-16.8,28.72c-.48.82-1.46,1.19-2.36.89l-31.55-10.56-16.8,28.72c-.48.82-1.46,1.19-2.36.89l-31.55-10.56-16.8,28.72c-.48.82-1.46,1.19-2.36.89l-33.09-11.07c-1.05-.35-1.61-1.48-1.26-2.53.35-1.05,1.48-1.61,2.53-1.26l31.55,10.56,16.8-28.72c.48-.82,1.46-1.19,2.36-.89l31.55,10.56,16.8-28.72c.48-.82,1.46-1.19,2.36-.89l31.55,10.56,16.8-28.72c.48-.82,1.46-1.19,2.36-.89l31.55,10.56,16.8-28.72c.48-.82,1.46-1.19,2.36-.89l31.55,10.56,16.81-28.72c.48-.82,1.46-1.19,2.36-.89l31.55,10.56,16.81-28.72c.48-.82,1.46-1.19,2.36-.89l31.56,10.56,16.81-28.72c.56-.95,1.78-1.27,2.74-.72.95.56,1.27,1.78.72,2.74l-17.63,30.12c-.48.82-1.46,1.19-2.36.89l-31.56-10.56-16.81,28.72c-.24.41-.6.7-1.02.86Z"/>
        </g>
        <g>
          <polygon class="cls-20" points="1115.44 519.97 955.38 580.07 774.02 911.97 1470.43 650.47 1115.44 519.97"/>
          <polygon class="cls-11" points="590.51 423.25 945.34 598.44 774.02 911.97 590.51 423.25"/>
          <polygon class="cls-11" points="1286.92 161.75 1135.09 527.19 1470.43 650.47 1286.92 161.75"/>
        </g>
      </g>
      <g>
        <path class="cls-9" d="M888.12,626.05c-2.71,10.09-11.77,27.63-41.44,44.87,0,0-43.96,31.13-65.11,33.27-2.22,2.72-4.72,5.47-7.47,8.26-3.61,3.69-7.66,7.43-12.06,11.19-53.38,45.68-158.56,94.91-187.2,96.98-32.79,2.38-86.49-13.3-86.49-13.3,41.82-37.55,45.15-91.35,45.15-91.35l16.15,14.83s90.3-14.17,181.19-61.2c4.72-2.44,9.43-4.97,14.14-7.6,2.86-1.58,5.71-3.2,8.55-4.86,0,0,40.7-25.84,58.34-64.6,1.67-3.66,6.88-3.58,8.42.14,2.11,5.09,2.05,14.14-7.11,29.77,0,0,26.62-31.33,40.51-61.3,1.97-4.25,8.02-4.09,9.77.26,1.68,4.17,1.94,10.51-2.34,19.97-.13.29-.26.57-.4.87l.65-.7,9.12-10.1c2.8-3.09,7.93-1.09,7.9,3.08-.06,6.56-1.6,15.61-7.64,25.22-.18.28-.36.55-.54.83l.64-.76,9.78-11.63c2.17-2.57,6.33-1.22,6.61,2.13.4,4.67-.84,11.83-7.29,21.91-10.52,16.45-15.19,24.28-16.61,26.7-.31.52-.46.79-.49.85l.75-.64,19.33-16.36c2.4-2.04,6.01.23,5.19,3.27Z"/>
        <path class="cls-12" d="M831.83,624.63c-.27,0-.53-.11-.73-.31-.38-.4-.36-1.03.04-1.41,15.19-14.32,28.53-40.8,28.66-41.07.25-.49.85-.69,1.34-.45.49.25.69.85.45,1.34-.13.27-13.62,27.06-29.08,41.63-.19.18-.44.27-.69.27Z"/>
        <path class="cls-12" d="M844.49,634.44c-.28,0-.56-.12-.76-.35-.36-.42-.31-1.05.11-1.41,14.3-12.21,25.38-32.37,25.49-32.57.26-.49.87-.67,1.36-.4.48.26.66.87.4,1.36-.11.21-11.37,20.68-25.95,33.13-.19.16-.42.24-.65.24Z"/>
        <path class="cls-12" d="M854.47,650.3c-.29,0-.57-.12-.77-.36-.35-.43-.29-1.06.13-1.41,3.94-3.26,8.15-9.25,8.19-9.31.32-.45.94-.56,1.39-.25.45.32.56.94.25,1.39-.18.25-4.4,6.27-8.56,9.7-.19.15-.41.23-.64.23Z"/>
      </g>
      <path class="cls-23" d="M774.1,712.45c-3.61,3.69-7.66,7.43-12.06,11.19l-31.2-54.04c4.72-2.44,9.43-4.97,14.14-7.6l29.12,50.45Z"/>
      <g>
        <circle class="cls-7" cx="755.25" cy="692.84" r="17.47"/>
        <circle class="cls-4" cx="755.25" cy="692.84" r="14.16"/>
        <polygon class="cls-13" points="755.85 692.48 750.06 682.95 748.86 683.67 754.65 693.2 755.2 694.11 755.38 694.4 763.26 689.62 762.53 688.42 755.85 692.48"/>
      </g>
      <path class="cls-12" d="M535.78,609.33c-21.6-8.35-44.7-32.92-44.7-32.92l43.37,13.24,1.33,19.68Z"/>
      <path class="cls-13" d="M560.47,557.5s-.03,0-.04,0c-29.48-1.21-32.88-22.98-32.91-23.2-.08-.55.3-1.05.85-1.13.54-.08,1.05.3,1.13.85.12.83,3.25,20.34,31.01,21.48.55.02.98.49.96,1.04-.02.54-.46.96-1,.96Z"/>
      <path class="cls-12" d="M546.42,568.62c-6.5,0-11.17-5.61-11.41-5.89-.35-.43-.29-1.06.14-1.41s1.06-.29,1.41.14c.25.3,6.15,7.35,13.44,4.46.52-.2,1.09.05,1.3.56.2.51-.05,1.09-.56,1.3-1.5.6-2.95.84-4.32.84Z"/>
      <path class="cls-13" d="M523.04,513.07c-.1,0-.2-.02-.31-.05-.53-.17-.81-.73-.65-1.26.24-.75,6.12-18.55,20.61-25.31.5-.23,1.1-.02,1.33.48.23.5.02,1.1-.48,1.33-13.7,6.39-19.49,23.94-19.55,24.11-.14.42-.53.69-.95.69Z"/>
      <ellipse class="cls-13" cx="543.48" cy="513.44" rx="4.04" ry="9.92"/>
      <path class="cls-12" d="M491.08,544.44c-.2,0-.4-.06-.58-.19l-13.01-9.27c-.45-.32-.55-.94-.23-1.39.32-.45.94-.55,1.39-.23l13.01,9.27c.45.32.55.94.23,1.39-.19.27-.5.42-.82.42Z"/>
      <path class="cls-20" d="M974.07,1388.85l-32.46,6.11-10.98-22.7c4.52-3.01,9.95-4.76,15.79-4.76,13.28,0,24.45,9.07,27.65,21.35Z"/>
    </g>
    <g>
      <path class="cls-13" d="M471.24,1148.54l8.79,89.58-183.32,25.31v-7.54s91.36-71.59,94.21-73.01c2.85-1.43,57.39-34.34,57.39-34.34h22.93Z"/>
      <polygon class="cls-8" points="451.51 1120.03 282.56 1268.31 540.62 1179.44 492.15 1163.28 300.15 1256.9 471.24 1148.54 451.51 1120.03"/>
    </g>
    <g>
      <polygon class="cls-8" points="1796.23 562.09 1847.08 579.67 1943.2 487.3 1959.06 469.12 1954.07 469.12 1897.57 493.36 1801.34 538.09 1796.23 562.09"/>
      <polygon class="cls-1" points="1765.81 527.87 1965.42 463.24 1857.06 621.97 1829.02 589.65 1956.86 469.42 1796.23 562.09 1765.81 527.87"/>
    </g>
    <path class="cls-10" d="M1702.48,425.14c-72.06-9.21-144.8-18.45-217.15-11.85-32.62,2.97-65.36,9.45-96.37,20.2-30.7,10.62-59.71,25.42-85.24,45.14,29.14-12.93,60.43-21.6,92.16-26.71,10.15-1.63,20.34-2.9,30.52-3.83,72.34-6.59,145.08,2.64,217.14,11.86l-26.16-28.31,85.1-6.5Z"/>
    <path class="cls-14" d="M1227.76,527.8c-53.37,49.28-83.66,126.84-64.58,196.93,3.4,12.51,8.18,24.41,13.95,35.88l1.56,3.04,64.02-25.53-1.14-2c-8.25-14.63-15.02-29.9-19.46-46.19-19.07-70.09,11.22-147.65,64.59-196.93,5.47-5.05,11.15-9.84,17.02-14.36-27.77,12.32-53.58,28.51-75.96,49.17Z"/>
    <path class="cls-5" d="M218.6,679.65c-2.64.72-5.17,2.32-6.37,4.77-.54,1.1-.8,2.32-.88,3.55-.3,4.16,1.42,8.41,4.51,11.2s7.5,4.07,11.6,3.35c1.56-.27,3.07-.82,4.4-1.68,3.73-2.44,5.46-7.4,4.45-11.74-.93-3.98-3.78-6.76-7.16-8.81-3.11-1.89-7.12-1.57-10.54-.63Z"/>
  </g>
  <g>
    <path class="cls-6" d="M858.99,76.99c-3.18.59-6.35,1.48-9.48,2.65s-6.1,2.6-8.88,4.24c-2.86,1.69-5.54,3.6-8.01,5.72-2.51,2.15-4.82,4.51-6.89,7.03-2.09,2.55-3.95,5.27-5.56,8.12-1.61,2.86-2.97,5.86-4.07,8.96-1.09,3.09-1.92,6.28-2.46,9.53-.54,3.22-.8,6.5-.76,9.81.03,3.25.35,6.53.96,9.79.23,1.23.5,2.47.82,3.69.5,1.94,1.11,3.87,1.83,5.78,1.18,3.13,2.6,6.1,4.24,8.88,1.46,2.48,3.09,4.81,4.88,7,.28.34.56.68.84,1.01,2.15,2.51,4.51,4.82,7.03,6.89,2.55,2.09,5.27,3.95,8.12,5.56.17.1.35.19.52.29,2.7,1.49,5.53,2.75,8.44,3.78,2.37.83,4.8,1.52,7.27,2.03.75.16,1.5.3,2.26.43,3.22.53,6.5.8,9.81.76,3.25-.03,6.53-.35,9.79-.96,3.18-.59,6.35-1.48,9.48-2.65s6.1-2.6,8.88-4.24l17.75,30.04c-4.51,2.66-9.3,4.96-14.37,6.86s-10.19,3.32-15.33,4.29c-5.18.98-10.38,1.49-15.54,1.56-.1,0-.21,0-.32,0-5.36.06-10.66-.36-15.88-1.23-5.2-.87-10.3-2.18-15.24-3.91-.06-.02-.12-.04-.18-.06-5.01-1.77-9.87-3.97-14.5-6.58-4.62-2.6-9.02-5.61-13.14-8.99-4.09-3.35-7.9-7.07-11.38-11.14-3.42-4-6.53-8.32-9.26-12.96-1.04-1.76-2.02-3.56-2.94-5.4-1.45-2.88-2.76-5.87-3.92-8.97-1.9-5.07-3.33-10.2-4.29-15.34-.57-2.99-.97-5.98-1.23-8.97-.2-2.3-.31-4.59-.33-6.88-.05-5.35.37-10.67,1.24-15.88.88-5.26,2.21-10.42,3.98-15.42,1.77-5.02,3.97-9.87,6.58-14.5,2.6-4.62,5.61-9.02,8.99-13.15,3.35-4.08,7.07-7.9,11.14-11.38,3.99-3.42,8.32-6.53,12.96-9.26,4.51-2.66,9.3-4.96,14.37-6.86s10.2-3.33,15.34-4.29l6.41,34.31Z"/>
    <path class="cls-18" d="M994.7,178.48l-23.79,19.16-1.6,23.4c-13.37-.41-26.19-5.59-36.07-14.47-.8-.72-1.59-1.46-2.35-2.23l-2.1-2.45-3.23-3.77c-3.02-4.1-5.59-8.66-7.41-13.68-4.52-12.45-2.32-18.59.38-24.21,1.37-2.86,2.88-5.65,3.95-8.63.04-.11.08-.22.12-.33,1.09-3.09,1.91-6.28,2.46-9.53.54-3.22.8-6.5.76-9.81,0-.38-.01-.77-.03-1.16-.09-2.87-.4-5.76-.94-8.64-.59-3.18-1.48-6.35-2.65-9.48-.7-1.86-1.48-3.65-2.35-5.39-.59-1.2-1.23-2.36-1.9-3.49-1.69-2.86-3.6-5.54-5.72-8.01-2.15-2.51-4.51-4.82-7.03-6.89-2.55-2.09-5.27-3.95-8.12-5.56-2.86-1.61-5.86-2.97-8.96-4.07-3.09-1.09-6.28-1.91-9.53-2.46-3.22-.54-6.5-.8-9.81-.76l-.35-34.9c5.36-.06,10.67.37,15.88,1.23,5.26.88,10.42,2.21,15.42,3.98,5.01,1.77,9.87,3.97,14.5,6.58,4.62,2.6,9.02,5.61,13.14,8.99,4.09,3.35,7.9,7.07,11.38,11.14,1.49,1.75,2.93,3.56,4.3,5.43,1.77,2.41,3.42,4.92,4.96,7.53,2.66,4.51,4.96,9.3,6.86,14.37,1.16,3.09,2.14,6.19,2.94,9.31.52,2,.97,4.01,1.35,6.02,1,5.29,1.51,10.59,1.56,15.85.05,5.35-.37,10.67-1.24,15.88-.88,5.26-2.21,10.42-3.98,15.42-1.16,3.28-2.51,6.5-4.03,9.63,0,.02-.02.03-.02.05-1.34,2.73-.03,6.02,2.82,7.07.23.09.45.16.64.23,11.91,4.03,25.23,4.13,37.92-.64.63-.24,1.25-.48,1.86-.73Z"/>
    <path class="cls-3" d="M870.19,230.31c-1.62,13.21-7.88,25.55-17.71,34.65l-16.64-16.6-30.58,1.25c.69-.23,1.38-.47,2.06-.73,12.65-4.75,22.59-13.55,28.9-24.37.21.08.42.15.63.22,5.35,1.89,10.87,3.32,16.51,4.26,5.53.92,11.16,1.37,16.83,1.32Z"/>
  </g>
</svg>