<?xml version="1.0" encoding="UTF-8"?>
<svg id="Layer_2" data-name="Layer 2" xmlns="http://www.w3.org/2000/svg" viewBox="0 0 265.99 74.86" width="266" height="75">
  <defs>
    <style>
      .cls-1 {
        fill: #01649e;
      }
    </style>
  </defs>
  <g id="Layer_1-2" data-name="Layer 1">
    <g>
      <path class="cls-1" d="m65.15,26.04c0-3.38-2.74-6.12-6.12-6.12s-6.11,2.74-6.11,6.12v32.82c4.87,4.99,9.15,10.37,12.23,16.01V26.04Z"/>
      <path class="cls-1" d="m47.97,26.04c0-3.38-2.74-6.12-6.11-6.12s-6.11,2.74-6.11,6.12v18.03c4.1,3.04,8.27,6.39,12.23,10v-28.03Z"/>
      <path class="cls-1" d="m30.78,26.04c0-3.38-2.73-6.12-6.11-6.12s-6.11,2.74-6.11,6.12v6.17c3.6,2.15,7.83,4.86,12.22,8.31v-14.48Z"/>
      <path class="cls-1" d="m76.29,12.63c3.37,0,6.1,2.74,6.1,6.11s-2.73,6.1-6.1,6.1-6.11-2.73-6.11-6.1,2.73-6.11,6.11-6.11"/>
      <path class="cls-1" d="m2.23,6.64C1.08,8.34.27,10.5,0,13.27,0,13.27-.61,23.11,9.33,27.14c0,0-3.09-3.19-3.38-8.34-.31-5.31,4.98-10.01,10.96-9.84,5.98.17,14.82,5.03,17.59,6.33,1.55.72,5.61,2.47,10.84,2.65,4.13.13,9.02-.72,13.96-3.86,0,0,3.03-2.08,5.37-4.16,2.43-2.16,7.2-6.65,10.58-7.98,0,0-15.26,4.33-27.65,3.64,0,0-4.68.41-22.88-4.36C7.01-3.41,2.23,6.64,2.23,6.64"/>
      <path class="cls-1" d="m94.42,28.19h0l-1.49,4.47h2.99l-1.49-4.47Zm4.83,7.72c.06.2.1.35.12.46.02.11,0,.2-.06.26-.06.06-.17.09-.32.1-.15.01-.36.02-.63.02s-.49,0-.65-.01c-.15,0-.27-.02-.35-.05-.08-.02-.14-.06-.17-.1-.03-.04-.06-.1-.08-.17l-.71-2.11h-3.95l-.67,2.06c-.02.08-.05.14-.09.19-.04.05-.09.09-.17.12-.08.03-.19.05-.33.06-.14,0-.33.02-.57.02-.25,0-.44,0-.58-.02-.14-.02-.24-.06-.29-.12-.05-.06-.07-.15-.06-.26.02-.11.06-.26.12-.46l3.24-9.33c.03-.09.07-.17.11-.22.04-.06.11-.1.21-.13.09-.03.23-.05.39-.06.17,0,.39-.01.67-.01.32,0,.58,0,.77.01.19,0,.34.03.44.06.11.03.18.07.23.13.05.06.08.14.12.24l3.25,9.33Z"/>
      <path class="cls-1" d="m107.53,36.43c0,.05-.02.1-.05.14-.03.04-.09.08-.16.1-.07.03-.18.05-.31.06-.13.01-.3.02-.49.02s-.37,0-.5-.02c-.13-.01-.24-.03-.31-.06-.08-.03-.13-.06-.16-.1-.03-.04-.05-.09-.05-.14v-4.14c0-.35-.03-.63-.08-.83-.05-.2-.13-.37-.22-.52-.1-.14-.22-.25-.38-.33-.15-.08-.34-.12-.54-.12-.26,0-.52.1-.79.28-.26.19-.54.47-.83.83v4.82c0,.05-.02.1-.05.14-.03.04-.09.08-.17.1-.08.03-.18.05-.31.06-.13.01-.29.02-.5.02s-.37,0-.5-.02c-.13-.01-.24-.03-.31-.06-.08-.03-.14-.06-.17-.1-.03-.04-.05-.09-.05-.14v-7.25c0-.05.01-.1.04-.14.03-.04.08-.07.15-.1.07-.03.16-.05.27-.06.11-.01.25-.02.42-.02s.32,0,.43.02c.11.01.2.03.26.06.06.03.11.06.13.1.03.04.04.09.04.14v.84c.4-.43.81-.76,1.22-.98.42-.22.85-.33,1.3-.33.49,0,.91.08,1.25.24.34.16.61.38.82.66.21.28.36.6.45.98.09.37.14.82.14,1.35v4.48Z"/>
      <path class="cls-1" d="m117.6,35.71c0,.24-.02.42-.04.55-.03.13-.07.22-.12.27-.05.05-.12.1-.22.14-.1.04-.21.08-.33.11-.13.03-.26.05-.41.07-.15.02-.3.02-.45.02-.41,0-.76-.05-1.06-.15-.3-.1-.54-.26-.74-.47-.19-.22-.34-.49-.43-.81-.09-.32-.14-.71-.14-1.15v-3.72h-.87c-.1,0-.18-.06-.24-.19-.05-.13-.08-.34-.08-.64,0-.16,0-.29.02-.4.01-.11.03-.19.06-.26.03-.06.06-.11.1-.13.04-.03.09-.04.14-.04h.86v-1.62c0-.06.01-.1.04-.15.03-.04.08-.08.16-.11.08-.03.19-.05.32-.06.13-.01.3-.02.49-.02s.37,0,.5.02c.13.01.24.03.31.06.08.03.13.07.16.11.03.04.05.09.05.15v1.62h1.58c.05,0,.1.01.14.04.04.03.07.07.1.13.03.06.05.15.06.26.01.11.02.24.02.4,0,.3-.03.51-.08.64-.06.13-.13.19-.24.19h-1.59v3.41c0,.4.06.69.19.89.12.2.35.3.67.3.11,0,.21-.01.29-.03.09-.02.16-.04.23-.07.07-.02.12-.04.17-.06.04-.02.09-.03.13-.03.03,0,.06,0,.09.03.03.02.05.06.07.11.02.06.03.14.04.23.01.1.02.22.02.37"/>
      <path class="cls-1" d="m125.43,33.55c0,.55-.1,1.04-.31,1.46-.21.42-.49.77-.84,1.05-.35.28-.76.49-1.24.63-.47.14-.98.21-1.51.21-.36,0-.7-.03-1.01-.09-.31-.06-.59-.13-.83-.22-.24-.08-.44-.17-.6-.27-.16-.09-.28-.17-.34-.24-.07-.07-.12-.17-.15-.31s-.04-.32-.04-.57c0-.17,0-.31.02-.42.01-.11.03-.21.05-.28.03-.07.06-.12.1-.15.04-.03.09-.05.14-.05.08,0,.18.05.32.13.14.09.32.19.53.3.22.11.48.21.78.3.3.09.65.13,1.05.13.26,0,.49-.03.7-.09.21-.06.38-.15.53-.26.14-.11.25-.26.33-.42.08-.17.11-.36.11-.56,0-.24-.07-.44-.2-.61-.13-.17-.3-.32-.51-.46-.21-.13-.45-.26-.71-.37-.27-.12-.54-.24-.82-.37-.28-.13-.56-.28-.82-.44-.27-.17-.5-.36-.71-.59-.21-.23-.38-.5-.51-.82-.13-.31-.19-.69-.19-1.13,0-.5.09-.95.28-1.33.19-.38.44-.7.75-.95.32-.25.69-.44,1.12-.56.43-.12.89-.19,1.37-.19.25,0,.5.02.75.06.25.04.48.09.7.15.22.06.41.14.58.22.17.08.28.15.33.2.05.05.09.1.11.14.02.04.04.09.05.15.01.06.02.14.03.24,0,.09,0,.21,0,.35,0,.16,0,.29-.01.4,0,.11-.02.2-.04.27-.02.07-.04.12-.08.16-.04.03-.08.05-.14.05s-.15-.04-.28-.11c-.13-.08-.29-.16-.48-.25-.19-.09-.41-.17-.66-.24-.25-.07-.52-.11-.82-.11-.23,0-.44.03-.61.09-.17.06-.32.13-.43.24-.12.1-.2.22-.26.36-.06.14-.09.29-.09.45,0,.23.06.43.19.61.13.17.3.32.51.45.21.13.46.26.73.38.27.12.55.24.83.37.28.13.56.28.83.44.27.17.51.36.72.59.21.23.38.5.51.81.13.31.2.68.2,1.1"/>
      <path class="cls-1" d="m132.02,32c.02-.57-.1-1.03-.35-1.35-.25-.33-.63-.49-1.14-.49-.26,0-.49.05-.68.15-.19.1-.35.23-.48.4-.13.17-.23.36-.29.59-.07.22-.11.47-.12.72h3.06Zm1.99.59c0,.25-.06.43-.17.55-.11.12-.26.18-.46.18h-4.42c0,.31.04.59.11.84.07.25.19.47.35.64.16.18.37.31.62.4.25.09.55.14.91.14s.67-.02.94-.08c.27-.05.51-.11.71-.17.2-.06.36-.12.49-.17.13-.05.24-.08.32-.08.05,0,.09,0,.12.03.03.02.06.05.08.1.02.05.04.12.04.21,0,.09.01.2.01.34,0,.12,0,.22,0,.3,0,.08-.01.16-.02.22-.01.06-.03.11-.05.15-.02.04-.05.08-.09.12-.04.04-.13.09-.29.15-.16.06-.36.13-.6.19-.24.06-.52.12-.84.16-.31.05-.65.07-1.01.07-.65,0-1.21-.08-1.69-.24-.49-.16-.89-.41-1.22-.74-.32-.33-.57-.75-.73-1.25-.16-.5-.24-1.09-.24-1.77,0-.64.08-1.23.25-1.74.17-.52.41-.96.73-1.32.32-.36.71-.64,1.17-.83.46-.19.97-.28,1.55-.28.61,0,1.13.09,1.56.27.43.18.79.43,1.06.75.28.32.48.69.61,1.13.13.43.2.9.2,1.42v.32Z"/>
      <path class="cls-1" d="m138.1,36.43c0,.05-.02.1-.05.14-.03.04-.09.08-.17.1-.08.03-.18.05-.31.06-.13.01-.29.02-.49.02s-.37,0-.5-.02c-.13-.01-.24-.03-.31-.06-.08-.03-.13-.06-.17-.1-.03-.04-.05-.09-.05-.14v-7.24c0-.05.02-.1.05-.14.03-.04.09-.08.17-.11.08-.03.18-.05.31-.07.13-.02.3-.03.5-.03s.37,0,.49.03c.13.02.24.04.31.07.08.03.13.06.17.11.03.04.05.09.05.14v7.24Zm.15-9.71c0,.41-.08.7-.25.85-.17.16-.48.24-.94.24s-.77-.08-.93-.23c-.16-.15-.24-.43-.24-.82s.08-.7.25-.86c.17-.16.48-.24.94-.24s.77.08.93.23c.16.15.24.43.24.82"/>
      <path class="cls-1" d="m145.16,29.85c0,.2,0,.36-.02.48-.01.12-.03.22-.05.29-.02.07-.05.12-.09.15-.04.03-.08.04-.13.04-.04,0-.09-.01-.15-.03-.05-.02-.12-.04-.18-.06-.07-.02-.14-.04-.22-.06-.08-.02-.17-.03-.27-.03-.11,0-.23.02-.34.07-.11.05-.23.12-.35.22-.12.1-.25.23-.38.39-.13.16-.27.36-.43.6v4.52c0,.05-.02.1-.05.14-.03.04-.09.07-.17.1-.08.03-.18.05-.31.06-.13.01-.29.02-.49.02s-.37,0-.5-.02c-.13-.01-.23-.03-.31-.06-.08-.03-.13-.06-.17-.1-.03-.04-.05-.09-.05-.14v-7.25c0-.05.01-.1.04-.14.03-.04.08-.07.15-.1.07-.03.16-.05.27-.06.11-.01.25-.02.42-.02s.32,0,.43.02c.11.01.2.03.26.06.06.03.11.06.13.1.03.04.04.09.04.14v.9c.19-.27.37-.49.54-.67.17-.18.33-.32.48-.42.15-.1.3-.17.46-.22.15-.04.3-.06.46-.06.07,0,.14,0,.23.01.08,0,.17.02.25.04.09.02.16.04.23.06.06.02.11.05.14.08.03.03.05.06.06.09.01.03.03.08.04.13.01.06.02.14.03.26,0,.11,0,.27,0,.46"/>
      <path class="cls-1" d="m151.96,32.85c0-.31-.02-.61-.07-.9-.04-.29-.13-.54-.24-.76-.11-.22-.26-.4-.44-.53-.18-.13-.41-.2-.69-.2-.14,0-.27.02-.4.06-.13.04-.26.1-.4.2-.14.09-.28.21-.43.36-.15.15-.3.33-.46.54v2.41c.29.37.56.65.82.84.26.19.54.29.82.29.27,0,.49-.07.68-.2.18-.14.34-.31.46-.53.12-.22.21-.46.26-.74.05-.28.08-.55.08-.83m2.12-.15c0,.65-.07,1.23-.21,1.74-.14.52-.35.96-.61,1.32-.26.36-.59.64-.98.84-.39.19-.83.29-1.32.29-.25,0-.47-.02-.68-.07-.21-.05-.41-.12-.6-.22-.19-.1-.38-.23-.57-.39-.19-.16-.38-.35-.57-.57v.79c0,.06-.02.11-.05.15-.03.04-.08.08-.15.1-.07.03-.16.05-.27.06-.11.01-.25.02-.42.02s-.31,0-.42-.02c-.11-.01-.2-.03-.27-.06-.07-.03-.12-.06-.14-.1-.03-.04-.04-.09-.04-.15v-10.69c0-.05.02-.1.05-.15.03-.04.09-.08.17-.11.08-.03.18-.05.31-.07.13-.02.3-.02.5-.02s.37,0,.49.02c.13.02.24.04.31.07.08.03.13.07.17.11.03.04.05.09.05.15v4.01c.18-.18.37-.34.55-.47.18-.13.37-.24.55-.32.18-.08.37-.14.57-.18.19-.04.4-.06.62-.06.54,0,.99.11,1.37.32.38.21.68.5.91.87.24.36.41.79.52,1.27.11.48.16.99.16,1.53"/>
      <path class="cls-1" d="m162.65,36.43c0,.05-.02.1-.05.14-.03.04-.09.08-.16.1-.07.03-.18.05-.31.06-.13.01-.3.02-.49.02s-.37,0-.5-.02c-.13-.01-.24-.03-.31-.06-.07-.03-.13-.06-.16-.1-.03-.04-.05-.09-.05-.14v-4.14c0-.35-.03-.63-.08-.83-.05-.2-.13-.37-.22-.52-.1-.14-.22-.25-.38-.33-.15-.08-.34-.12-.54-.12-.26,0-.52.1-.79.28-.26.19-.54.47-.83.83v4.82c0,.05-.02.1-.05.14-.03.04-.09.08-.17.1-.08.03-.18.05-.31.06-.13.01-.29.02-.49.02s-.37,0-.5-.02c-.13-.01-.24-.03-.31-.06-.08-.03-.13-.06-.17-.1-.03-.04-.05-.09-.05-.14v-10.69c0-.05.01-.1.05-.15.03-.04.09-.08.17-.11.08-.03.18-.05.31-.07.13-.02.3-.02.5-.02s.37,0,.49.02c.13.02.24.04.31.07.08.03.13.07.17.11.03.04.05.09.05.15v4.01c.35-.35.71-.61,1.08-.78.37-.17.75-.26,1.14-.26.49,0,.91.08,1.25.24.34.16.61.38.82.67.21.28.36.61.45.99.09.38.14.83.14,1.37v4.45Z"/>
      <path class="cls-1" d="m166.29,25.61c.04-.06.08-.11.14-.15.05-.04.12-.08.2-.1.08-.02.18-.04.31-.05.12-.01.28-.02.46-.02.25,0,.44.01.59.03.14.02.25.05.31.09.06.04.09.09.08.14,0,.05-.03.11-.08.17l-1.58,1.89c-.04.06-.09.1-.13.13-.04.04-.1.06-.17.09s-.15.04-.26.05c-.1.01-.23.02-.39.02-.19,0-.34,0-.45-.03-.11-.02-.19-.04-.23-.08-.04-.03-.06-.08-.05-.13,0-.05.04-.12.09-.19l1.16-1.86Zm.78,10.82c0,.05-.02.1-.05.14-.03.04-.09.08-.17.1-.08.03-.18.05-.31.06-.13.01-.29.02-.49.02s-.37,0-.5-.02c-.13-.01-.24-.03-.31-.06-.08-.03-.13-.06-.17-.1-.03-.04-.05-.09-.05-.14v-7.25c0-.05.01-.1.05-.14.03-.04.09-.07.17-.1.08-.03.18-.05.31-.06.13-.01.3-.02.5-.02s.37,0,.49.02c.13.01.24.03.31.06.08.03.14.06.17.1.03.04.05.09.05.14v7.25Z"/>
      <path class="cls-1" d="m174.57,34.38c0,.41-.08.78-.23,1.09-.15.31-.37.58-.66.79-.28.21-.62.37-1,.48-.38.11-.8.16-1.25.16-.27,0-.53-.02-.78-.06-.25-.04-.47-.09-.66-.15-.2-.06-.36-.13-.49-.19-.13-.07-.22-.13-.29-.18-.06-.06-.1-.15-.14-.27-.03-.12-.05-.3-.05-.54,0-.16,0-.28.02-.38.01-.09.03-.17.05-.23.02-.06.05-.1.08-.11.03-.02.07-.03.12-.03.06,0,.15.03.26.1.12.07.26.14.43.22.17.08.38.16.61.23.23.07.49.1.79.1.18,0,.35-.02.49-.06.14-.04.27-.09.38-.16.11-.07.18-.16.24-.27.05-.11.08-.23.08-.37,0-.16-.05-.3-.15-.42-.1-.12-.23-.22-.4-.31-.17-.09-.35-.17-.56-.24-.21-.08-.42-.16-.64-.25-.22-.09-.43-.2-.64-.32-.21-.12-.4-.27-.56-.44-.17-.17-.3-.38-.4-.63s-.15-.54-.15-.88.07-.67.2-.96c.14-.29.33-.54.59-.74.26-.21.57-.37.93-.48.37-.11.78-.17,1.23-.17.23,0,.45.02.66.05.21.03.41.07.58.12.17.05.32.1.44.16.12.06.2.11.26.15.05.04.09.08.11.12.02.04.04.09.05.15.01.06.02.13.03.21,0,.08.01.19.01.31,0,.15,0,.27-.01.36,0,.09-.02.16-.04.22-.02.05-.04.09-.08.11-.03.02-.07.03-.11.03-.05,0-.12-.03-.23-.09s-.23-.12-.39-.18c-.15-.06-.33-.13-.54-.18-.2-.06-.43-.09-.69-.09-.18,0-.35.02-.48.06-.14.04-.25.09-.33.16-.09.07-.15.15-.2.25-.04.1-.06.2-.06.31,0,.17.05.31.15.42.1.11.24.21.41.3.17.09.36.17.57.24.21.08.43.16.65.25.22.09.44.19.65.31.21.12.41.27.57.44.17.17.3.38.41.62.1.24.15.53.15.86"/>
      <path class="cls-1" d="m187.28,35.11c0,.13,0,.25-.01.35,0,.1-.02.18-.04.24-.02.07-.04.13-.07.18-.03.05-.07.1-.13.17-.06.06-.18.14-.35.24-.17.1-.38.19-.63.28-.25.09-.53.16-.85.22-.32.06-.66.09-1.03.09-.72,0-1.37-.11-1.95-.33-.58-.22-1.07-.55-1.48-1-.41-.44-.72-.99-.94-1.65-.22-.66-.33-1.43-.33-2.31s.12-1.69.36-2.38c.24-.69.57-1.28,1-1.75.43-.47.94-.83,1.54-1.07.6-.24,1.26-.37,1.98-.37.29,0,.58.02.85.07.27.05.52.11.75.19.23.08.44.17.62.27.18.1.31.19.39.26.07.07.12.13.15.18.03.05.05.11.07.19.02.08.03.16.04.27,0,.1.01.23.01.38,0,.16,0,.3-.02.41-.01.11-.03.21-.06.28-.03.07-.06.12-.1.15-.04.03-.08.05-.13.05-.08,0-.18-.05-.31-.14-.12-.1-.29-.2-.48-.32-.2-.12-.43-.22-.71-.32-.27-.09-.6-.14-.98-.14-.42,0-.79.09-1.12.26-.33.17-.61.42-.84.73-.23.32-.4.7-.52,1.15-.12.45-.18.96-.18,1.52,0,.62.06,1.15.19,1.61.13.45.31.83.54,1.12.24.29.52.51.85.65.33.14.71.22,1.13.22.38,0,.71-.04.98-.13.28-.09.51-.19.71-.3.2-.11.36-.2.49-.29.13-.09.23-.13.3-.13.05,0,.1.01.13.03.03.02.06.06.08.13.02.07.04.16.05.27s.02.27.02.47"/>
      <path class="cls-1" d="m195.92,36.43c0,.05-.02.1-.05.14-.03.04-.09.08-.16.1-.08.03-.18.05-.31.06-.13.01-.3.02-.49.02s-.37,0-.5-.02c-.13-.01-.24-.03-.31-.06-.08-.03-.13-.06-.16-.1-.03-.04-.05-.09-.05-.14v-4.14c0-.35-.03-.63-.08-.83-.05-.2-.13-.37-.22-.52-.1-.14-.22-.25-.38-.33-.15-.08-.34-.12-.54-.12-.26,0-.52.1-.79.28-.26.19-.54.47-.83.83v4.82c0,.05-.02.1-.05.14-.03.04-.09.08-.17.1-.08.03-.18.05-.31.06-.13.01-.29.02-.5.02s-.37,0-.5-.02c-.13-.01-.24-.03-.31-.06-.08-.03-.13-.06-.17-.1-.03-.04-.05-.09-.05-.14v-10.69c0-.05.01-.1.05-.15.03-.04.09-.08.17-.11.08-.03.18-.05.31-.07.13-.02.3-.02.5-.02s.37,0,.5.02c.13.02.23.04.31.07.08.03.13.07.17.11.03.04.05.09.05.15v4.01c.35-.35.71-.61,1.08-.78.37-.17.75-.26,1.14-.26.49,0,.91.08,1.25.24.34.16.61.38.82.67.21.28.36.61.45.99.09.38.14.83.14,1.37v4.45Z"/>
      <path class="cls-1" d="m202.13,25.61c.04-.06.08-.11.14-.15.05-.04.12-.08.2-.1.08-.02.18-.04.31-.05.12-.01.28-.02.46-.02.25,0,.45.01.59.03.14.02.25.05.31.09.06.04.09.09.09.14,0,.05-.03.11-.08.17l-1.58,1.89c-.04.06-.09.1-.13.13-.04.04-.1.06-.17.09-.07.02-.15.04-.26.05-.1.01-.23.02-.39.02-.19,0-.34,0-.45-.03-.11-.02-.19-.04-.23-.08-.04-.03-.06-.08-.05-.13,0-.05.04-.12.09-.19l1.16-1.86Zm3.04,10.82c0,.05-.01.1-.04.14-.03.04-.07.08-.14.1-.07.03-.16.05-.27.06-.11.01-.25.02-.42.02-.18,0-.32,0-.44-.02-.11-.01-.2-.03-.26-.06-.07-.03-.11-.06-.14-.1-.03-.04-.04-.09-.04-.14v-.84c-.4.43-.81.76-1.22.98-.41.22-.84.33-1.29.33-.5,0-.92-.08-1.26-.24-.34-.16-.61-.38-.82-.67-.21-.28-.36-.61-.45-.98-.09-.37-.13-.83-.13-1.39v-4.44c0-.05.01-.1.04-.14.03-.04.09-.07.16-.1.08-.03.18-.05.32-.06.13-.01.3-.02.49-.02s.37,0,.5.02c.13.01.23.03.31.06.08.03.13.06.17.1.03.04.05.09.05.14v4.1c0,.38.02.67.07.87.05.2.12.37.22.52.1.14.23.25.38.33.15.08.34.12.54.12.26,0,.52-.1.79-.28.26-.19.54-.47.84-.83v-4.82c0-.05.01-.1.04-.14.03-.04.08-.07.16-.1.08-.03.18-.05.31-.06.13-.01.29-.02.5-.02s.37,0,.49.02c.13.01.23.03.31.06.08.03.13.06.16.1.03.04.05.09.05.14v7.25Z"/>
      <path class="cls-1" d="m209.64,36.43c0,.05-.02.1-.05.14-.03.04-.09.08-.17.1-.08.03-.18.05-.31.06-.13.01-.29.02-.49.02s-.37,0-.5-.02c-.13-.01-.24-.03-.31-.06-.08-.03-.13-.06-.17-.1-.03-.04-.05-.09-.05-.14v-7.24c0-.05.02-.1.05-.14.03-.04.09-.08.17-.11.08-.03.18-.05.31-.07.13-.02.3-.03.5-.03s.37,0,.49.03c.13.02.24.04.31.07.08.03.13.06.17.11.03.04.05.09.05.14v7.24Zm.15-9.71c0,.41-.08.7-.25.85-.17.16-.48.24-.93.24s-.77-.08-.93-.23c-.16-.15-.24-.43-.24-.82s.08-.7.25-.86c.17-.16.48-.24.94-.24s.76.08.93.23c.16.15.24.43.24.82"/>
      <path class="cls-1" d="m216.7,29.85c0,.2,0,.36-.02.48-.01.12-.03.22-.05.29-.02.07-.05.12-.09.15-.04.03-.08.04-.13.04-.04,0-.09-.01-.15-.03-.05-.02-.12-.04-.18-.06-.07-.02-.14-.04-.22-.06-.08-.02-.17-.03-.27-.03-.11,0-.23.02-.34.07-.11.05-.23.12-.35.22-.12.1-.25.23-.38.39-.13.16-.27.36-.43.6v4.52c0,.05-.02.1-.05.14-.03.04-.09.07-.17.1-.08.03-.18.05-.31.06-.13.01-.29.02-.49.02s-.37,0-.5-.02c-.13-.01-.23-.03-.31-.06-.08-.03-.13-.06-.17-.1-.03-.04-.05-.09-.05-.14v-7.25c0-.05.01-.1.04-.14.03-.04.07-.07.15-.1.07-.03.16-.05.27-.06.11-.01.25-.02.42-.02s.32,0,.43.02c.11.01.2.03.26.06.06.03.11.06.13.1.03.04.04.09.04.14v.9c.19-.27.37-.49.54-.67.17-.18.33-.32.48-.42.15-.1.3-.17.46-.22.15-.04.3-.06.46-.06.07,0,.14,0,.23.01.08,0,.17.02.25.04.09.02.16.04.23.06.06.02.11.05.14.08.03.03.05.06.07.09.01.03.02.08.04.13.01.06.02.14.03.26,0,.11,0,.27,0,.46"/>
      <path class="cls-1" d="m222.61,35.71c0,.24-.02.42-.04.55-.03.13-.07.22-.12.27-.05.05-.12.1-.21.14-.1.04-.21.08-.33.11-.13.03-.26.05-.41.07-.15.02-.3.02-.45.02-.41,0-.76-.05-1.06-.15-.3-.1-.54-.26-.74-.47-.19-.22-.34-.49-.43-.81-.09-.32-.14-.71-.14-1.15v-3.72h-.87c-.1,0-.18-.06-.24-.19-.05-.13-.08-.34-.08-.64,0-.16,0-.29.02-.4.01-.11.03-.19.06-.26.03-.06.06-.11.1-.13.04-.03.09-.04.14-.04h.86v-1.62c0-.06.01-.1.04-.15.03-.04.09-.08.16-.11.08-.03.19-.05.32-.06.13-.01.3-.02.49-.02s.37,0,.5.02c.13.01.24.03.31.06.08.03.13.07.16.11.03.04.05.09.05.15v1.62h1.58c.05,0,.1.01.14.04.04.03.07.07.1.13.03.06.05.15.06.26.01.11.02.24.02.4,0,.3-.03.51-.08.64-.05.13-.13.19-.24.19h-1.59v3.41c0,.4.06.69.19.89.12.2.35.3.67.3.11,0,.21-.01.29-.03.09-.02.16-.04.23-.07.07-.02.12-.04.17-.06.04-.02.09-.03.13-.03.03,0,.06,0,.09.03s.05.06.07.11c.02.06.03.14.04.23.01.1.02.22.02.37"/>
      <path class="cls-1" d="m228.97,32c.02-.57-.1-1.03-.35-1.35-.25-.33-.63-.49-1.14-.49-.26,0-.49.05-.68.15-.19.1-.35.23-.48.4-.13.17-.23.36-.29.59-.07.22-.11.47-.12.72h3.06Zm1.99.59c0,.25-.06.43-.17.55-.11.12-.26.18-.46.18h-4.42c0,.31.04.59.11.84.07.25.19.47.35.64.16.18.37.31.62.4.25.09.55.14.91.14s.67-.02.94-.08c.27-.05.51-.11.71-.17.2-.06.36-.12.49-.17.13-.05.24-.08.32-.08.05,0,.09,0,.12.03.03.02.06.05.08.1.02.05.04.12.04.21,0,.09.01.2.01.34,0,.12,0,.22,0,.3,0,.08-.01.16-.02.22-.01.06-.03.11-.05.15-.02.04-.05.08-.09.12-.04.04-.13.09-.29.15-.16.06-.36.13-.6.19-.24.06-.52.12-.84.16-.32.05-.65.07-1.01.07-.65,0-1.21-.08-1.69-.24-.49-.16-.89-.41-1.22-.74-.32-.33-.57-.75-.73-1.25-.16-.5-.24-1.09-.24-1.77,0-.64.08-1.23.25-1.74.17-.52.41-.96.73-1.32.32-.36.71-.64,1.17-.83.46-.19.97-.28,1.55-.28.61,0,1.13.09,1.56.27.43.18.79.43,1.06.75.28.32.48.69.61,1.13.13.43.2.9.2,1.42v.32Z"/>
      <path class="cls-1" d="m237.17,33.35h-.78c-.33,0-.61.02-.85.07-.23.05-.42.12-.57.22s-.25.22-.32.35c-.07.14-.1.3-.1.48,0,.31.1.54.29.72.19.17.46.26.8.26.29,0,.55-.07.79-.22.24-.15.49-.36.74-.64v-1.24Zm2.01,3.11c0,.08-.03.14-.08.18-.05.04-.14.07-.26.09-.12.02-.29.03-.52.03-.24,0-.42-.01-.53-.03-.11-.02-.19-.05-.24-.09-.05-.04-.07-.1-.07-.18v-.58c-.3.32-.64.57-1.02.75-.38.18-.81.27-1.27.27-.38,0-.74-.05-1.06-.15-.32-.1-.6-.25-.84-.45-.24-.2-.42-.44-.55-.74-.13-.29-.2-.63-.2-1.03,0-.42.08-.79.25-1.1.17-.31.41-.57.74-.77.33-.2.74-.35,1.22-.45.49-.1,1.05-.15,1.7-.15h.71v-.44c0-.23-.02-.43-.07-.6-.05-.17-.12-.31-.23-.43-.11-.11-.25-.2-.42-.25-.18-.06-.39-.08-.65-.08-.34,0-.65.04-.92.11-.27.08-.51.16-.71.25-.21.09-.38.18-.52.25s-.25.11-.34.11c-.06,0-.11-.02-.16-.06-.05-.04-.08-.09-.11-.16-.03-.07-.05-.16-.07-.26-.01-.1-.02-.22-.02-.34,0-.17.01-.3.04-.4.03-.1.08-.19.16-.26.07-.08.21-.17.4-.26.19-.09.41-.18.67-.26.25-.08.53-.15.83-.2.3-.05.61-.08.93-.08.57,0,1.06.06,1.46.17.4.11.74.28,1,.51.26.23.45.53.57.89.12.36.18.79.18,1.29v4.88Z"/>
      <path class="cls-1" d="m248.51,36.43c0,.05-.02.1-.05.14-.03.04-.09.08-.16.1-.07.03-.18.05-.31.06-.13.01-.3.02-.49.02s-.37,0-.5-.02c-.13-.01-.24-.03-.31-.06-.07-.03-.13-.06-.16-.1-.03-.04-.05-.09-.05-.14v-4.14c0-.35-.03-.63-.08-.83-.05-.2-.13-.37-.22-.52-.1-.14-.22-.25-.38-.33-.15-.08-.34-.12-.54-.12-.26,0-.52.1-.79.28-.26.19-.54.47-.83.83v4.82c0,.05-.02.1-.05.14-.03.04-.09.08-.17.1-.08.03-.18.05-.31.06-.13.01-.29.02-.49.02s-.37,0-.5-.02c-.13-.01-.24-.03-.31-.06-.08-.03-.13-.06-.17-.1-.03-.04-.05-.09-.05-.14v-7.25c0-.05.01-.1.04-.14.03-.04.08-.07.15-.1.07-.03.16-.05.27-.06.11-.01.25-.02.42-.02s.32,0,.43.02c.11.01.2.03.26.06.06.03.11.06.13.1.03.04.04.09.04.14v.84c.4-.43.81-.76,1.22-.98.42-.22.85-.33,1.3-.33.49,0,.91.08,1.25.24.34.16.61.38.82.66.21.28.36.6.45.98.09.37.14.82.14,1.35v4.48Z"/>
      <path class="cls-1" d="m257.8,36.43c0,.05-.02.1-.05.14-.03.04-.09.08-.16.1-.08.03-.18.05-.31.06-.13.01-.3.02-.49.02s-.37,0-.5-.02c-.13-.01-.24-.03-.31-.06-.07-.03-.13-.06-.16-.1-.03-.04-.05-.09-.05-.14v-4.14c0-.35-.03-.63-.08-.83-.05-.2-.13-.37-.22-.52-.1-.14-.22-.25-.38-.33-.15-.08-.34-.12-.54-.12-.26,0-.52.1-.79.28-.26.19-.54.47-.83.83v4.82c0,.05-.02.1-.05.14-.03.04-.09.08-.17.1-.08.03-.18.05-.31.06-.13.01-.29.02-.49.02s-.37,0-.5-.02c-.13-.01-.24-.03-.31-.06-.08-.03-.13-.06-.17-.1-.03-.04-.05-.09-.05-.14v-7.25c0-.05.01-.1.04-.14.03-.04.08-.07.15-.1.07-.03.16-.05.27-.06.11-.01.25-.02.42-.02s.32,0,.43.02c.11.01.2.03.26.06.06.03.11.06.13.1.03.04.04.09.04.14v.84c.4-.43.81-.76,1.22-.98.42-.22.85-.33,1.3-.33.49,0,.91.08,1.25.24.34.16.61.38.82.66.21.28.36.6.45.98.09.37.14.82.14,1.35v4.48Z"/>
      <path class="cls-1" d="m263.98,33.35h-.78c-.33,0-.61.02-.85.07-.23.05-.42.12-.57.22s-.25.22-.32.35c-.07.14-.1.3-.1.48,0,.31.1.54.29.72.19.17.46.26.8.26.29,0,.55-.07.79-.22.24-.15.49-.36.74-.64v-1.24Zm2.01,3.11c0,.08-.03.14-.08.18-.05.04-.14.07-.26.09-.12.02-.29.03-.52.03-.24,0-.42-.01-.53-.03-.11-.02-.19-.05-.24-.09-.05-.04-.07-.1-.07-.18v-.58c-.3.32-.64.57-1.02.75-.38.18-.81.27-1.27.27-.38,0-.74-.05-1.06-.15-.32-.1-.6-.25-.84-.45-.24-.2-.42-.44-.55-.74-.13-.29-.2-.63-.2-1.03,0-.42.08-.79.25-1.1.17-.31.41-.57.74-.77.33-.2.74-.35,1.23-.45.49-.1,1.05-.15,1.7-.15h.71v-.44c0-.23-.02-.43-.07-.6-.05-.17-.12-.31-.23-.43-.11-.11-.25-.2-.42-.25-.18-.06-.39-.08-.65-.08-.34,0-.65.04-.92.11-.27.08-.51.16-.71.25-.21.09-.38.18-.52.25s-.25.11-.34.11c-.06,0-.11-.02-.16-.06-.05-.04-.08-.09-.11-.16-.03-.07-.05-.16-.07-.26-.01-.1-.02-.22-.02-.34,0-.17.01-.3.04-.4.03-.1.08-.19.16-.26.08-.08.21-.17.4-.26.19-.09.41-.18.67-.26.25-.08.53-.15.83-.2.3-.05.61-.08.93-.08.57,0,1.06.06,1.46.17.4.11.74.28,1,.51.26.23.45.53.57.89.12.36.18.79.18,1.29v4.88Z"/>
      <path class="cls-1" d="m97.33,52.75c0,.09,0,.16,0,.23,0,.07-.02.12-.03.17-.01.05-.03.09-.05.13-.02.04-.06.08-.11.14-.05.06-.17.14-.34.25-.17.11-.39.22-.65.33-.26.11-.55.2-.89.27-.33.07-.7.11-1.09.11-.68,0-1.3-.11-1.85-.34-.55-.23-1.02-.56-1.41-1.01-.39-.44-.69-.99-.9-1.65s-.31-1.41-.31-2.26.11-1.65.34-2.33c.22-.68.54-1.26.95-1.74.41-.48.89-.84,1.46-1.09.57-.25,1.19-.37,1.88-.37.3,0,.6.03.89.09.29.06.55.13.79.22.25.09.46.19.65.3.19.11.32.21.39.28.07.07.12.13.14.17.02.04.04.08.05.14.01.05.02.11.03.18,0,.07.01.15.01.25,0,.11,0,.2-.02.28-.01.08-.03.14-.05.19-.02.05-.05.09-.08.11-.03.02-.07.04-.11.04-.08,0-.18-.05-.32-.16-.13-.11-.31-.22-.53-.35-.21-.13-.48-.25-.78-.35-.31-.11-.68-.16-1.11-.16-.47,0-.89.09-1.28.28s-.71.46-.99.83c-.27.36-.48.81-.63,1.33-.15.52-.22,1.12-.22,1.79s.07,1.26.22,1.77c.14.51.35.94.62,1.29.27.34.6.6.99.78.39.18.84.27,1.33.27.42,0,.79-.05,1.1-.16.31-.1.58-.22.8-.34.22-.13.4-.24.54-.35.14-.1.25-.15.34-.15.04,0,.07,0,.1.02.03.02.05.05.07.09.02.05.03.11.04.19,0,.08.01.18.01.31"/>
      <path class="cls-1" d="m104.44,50.38c0-.4-.04-.77-.11-1.12-.07-.35-.19-.66-.36-.93s-.4-.48-.69-.63c-.29-.16-.65-.23-1.08-.23-.4,0-.74.07-1.03.21-.29.14-.52.34-.71.6-.19.26-.32.56-.42.91-.09.35-.13.74-.13,1.15s.04.78.11,1.13c.07.35.2.66.37.92.17.26.4.47.69.63.29.16.65.23,1.08.23.39,0,.74-.07,1.03-.21.29-.14.53-.34.71-.59.19-.25.32-.56.41-.91s.13-.74.13-1.16m1.39-.09c0,.6-.08,1.15-.24,1.65-.16.5-.39.93-.7,1.3-.31.36-.7.65-1.17.85-.47.2-1.01.31-1.63.31s-1.13-.09-1.57-.27c-.45-.18-.82-.44-1.12-.78-.3-.34-.52-.75-.67-1.24-.15-.49-.22-1.04-.22-1.66s.08-1.15.23-1.65c.15-.5.39-.93.7-1.3.31-.36.7-.64,1.17-.85.47-.2,1.01-.3,1.63-.3s1.13.09,1.57.27c.45.18.82.44,1.12.78.3.34.52.76.67,1.25.15.49.22,1.04.22,1.65"/>
      <path class="cls-1" d="m114.08,54.03s-.01.08-.03.11c-.02.03-.05.06-.1.08-.05.02-.11.04-.19.05-.08.01-.17.02-.29.02-.12,0-.23,0-.31-.02-.08-.01-.14-.03-.19-.05-.05-.02-.08-.05-.09-.08-.02-.03-.02-.07-.02-.11v-.97c-.42.46-.83.8-1.24,1.01-.41.21-.82.32-1.24.32-.49,0-.9-.08-1.23-.24-.33-.16-.6-.38-.81-.66-.21-.28-.35-.6-.44-.98-.09-.37-.14-.82-.14-1.35v-4.44s.01-.08.03-.11c.02-.03.06-.06.11-.08.06-.02.12-.04.21-.05.09,0,.19-.01.33-.01s.24,0,.32.01c.09,0,.16.02.21.05.05.02.09.05.11.08.02.03.03.07.03.11v4.26c0,.43.03.77.09,1.03.06.26.16.48.28.66.13.18.29.32.48.42.2.1.42.15.68.15.33,0,.67-.12,1-.36.33-.24.69-.59,1.06-1.05v-5.12s0-.08.03-.11c.02-.03.06-.06.11-.08.05-.02.12-.04.21-.05.08,0,.19-.01.33-.01s.24,0,.32.01c.09,0,.15.02.2.05.05.02.09.05.11.08.03.03.04.07.04.11v7.32Z"/>
      <path class="cls-1" d="m120.83,47.19c0,.12,0,.22,0,.3,0,.08-.02.15-.03.19-.02.05-.04.08-.06.11-.03.02-.06.04-.1.04s-.1-.01-.16-.04c-.06-.02-.13-.05-.21-.07-.08-.03-.17-.05-.27-.07-.1-.02-.2-.03-.32-.03-.14,0-.27.03-.4.08-.13.05-.27.14-.41.27-.14.12-.29.29-.45.5-.16.21-.33.46-.52.76v4.81s-.01.08-.03.11c-.02.03-.06.06-.11.08-.05.02-.12.04-.2.05-.09.01-.2.02-.33.02s-.24,0-.33-.02c-.09-.01-.16-.03-.21-.05-.05-.02-.09-.05-.1-.08-.02-.03-.03-.07-.03-.11v-7.32s0-.08.02-.11c.02-.03.05-.06.1-.08.05-.02.11-.04.19-.05.08,0,.18-.01.3-.01s.22,0,.3.01c.08,0,.14.02.18.05.04.02.07.05.09.08.02.03.03.07.03.11v1.06c.2-.29.39-.53.56-.72.18-.18.34-.33.5-.43.16-.11.31-.18.47-.22.15-.04.31-.06.47-.06.07,0,.15,0,.24.01.09,0,.18.02.28.05.1.02.19.05.26.07.08.03.13.05.17.08.03.03.06.05.07.08.01.02.02.06.03.09,0,.04.01.09.01.17,0,.07,0,.17,0,.3"/>
      <path class="cls-1" d="m126.17,53.5c0,.16-.01.28-.03.37-.02.09-.05.16-.1.2-.04.04-.11.08-.19.12-.09.04-.19.07-.3.09-.11.02-.23.05-.35.06-.12.02-.25.02-.37.02-.38,0-.71-.05-.98-.15-.27-.1-.49-.25-.67-.45-.17-.2-.3-.46-.38-.77-.08-.31-.12-.68-.12-1.1v-4.28h-1.02c-.08,0-.15-.04-.2-.13-.05-.09-.07-.23-.07-.42,0-.1,0-.19.02-.26.01-.07.03-.13.05-.17.02-.05.05-.08.09-.1.03-.02.07-.03.12-.03h1.02v-1.74s0-.07.03-.11c.02-.03.05-.06.11-.08.05-.02.12-.04.21-.05.09-.01.19-.02.32-.02s.25,0,.33.02c.09.01.15.03.2.05s.08.05.11.08c.02.03.03.07.03.11v1.74h1.88s.08.01.11.03c.03.02.06.05.08.1.03.05.04.1.05.17.01.07.02.16.02.26,0,.19-.02.34-.07.42-.05.09-.11.13-.2.13h-1.88v4.08c0,.5.07.89.22,1.14.15.26.42.39.8.39.12,0,.24-.01.33-.04.1-.02.18-.05.26-.08.08-.03.14-.05.19-.08.05-.02.1-.04.15-.04.03,0,.05,0,.08.02.02.01.04.04.06.08.01.04.03.09.04.15.01.07.02.15.02.24"/>
      <path class="cls-1" d="m132.54,52.04c0,.37-.07.71-.21,1-.14.29-.34.54-.59.74-.25.2-.56.35-.91.45s-.74.15-1.16.15c-.26,0-.51-.02-.74-.06-.24-.04-.45-.09-.63-.15s-.35-.13-.48-.19c-.13-.07-.22-.13-.28-.18-.06-.05-.1-.13-.13-.23-.03-.1-.04-.23-.04-.4,0-.1,0-.19.02-.26.01-.07.02-.13.04-.17.02-.04.04-.07.07-.09.03-.02.06-.03.1-.03.06,0,.15.04.26.11.12.07.26.15.43.24.17.09.37.17.61.24.23.07.5.11.8.11.23,0,.43-.03.62-.07.18-.05.34-.12.48-.22.14-.09.24-.22.31-.36.07-.15.11-.32.11-.52s-.05-.38-.16-.52c-.11-.14-.25-.27-.42-.38-.17-.11-.37-.2-.58-.29-.22-.08-.44-.17-.67-.26-.23-.09-.46-.2-.68-.31-.22-.12-.41-.26-.59-.43-.17-.17-.31-.37-.42-.6-.11-.23-.16-.51-.16-.84,0-.29.06-.56.17-.82.11-.26.28-.49.5-.69.22-.2.5-.36.83-.48.33-.12.72-.18,1.17-.18.2,0,.39.02.59.05.2.03.37.07.53.12.16.05.29.1.4.16.11.06.2.11.25.15.06.04.09.08.11.11.02.03.03.07.04.11s.02.09.03.15c0,.06.01.13.01.22,0,.09,0,.17-.01.24,0,.07-.02.12-.04.17-.02.04-.04.07-.07.09-.03.02-.06.03-.09.03-.05,0-.12-.03-.21-.09-.09-.06-.21-.12-.36-.19-.15-.07-.32-.13-.52-.19-.2-.06-.42-.09-.68-.09-.23,0-.43.02-.6.08-.17.05-.32.12-.43.22-.11.1-.19.21-.25.34-.06.13-.08.27-.08.42,0,.21.05.39.16.53.11.14.25.27.42.38.17.11.37.21.6.29.22.09.45.18.68.27.23.09.46.19.68.31.22.11.42.25.6.41.17.16.31.36.42.59.11.23.16.5.16.81"/>
      <path class="cls-1" d="m144.03,51.28c0,.49-.09.93-.27,1.32-.18.39-.43.71-.76.98-.32.27-.7.47-1.14.61-.44.14-.91.2-1.41.2-.35,0-.68-.03-.98-.09-.3-.06-.57-.13-.8-.22-.24-.09-.43-.18-.6-.27-.16-.09-.27-.17-.33-.24-.06-.07-.11-.15-.14-.25-.03-.1-.05-.24-.05-.4,0-.12,0-.22.02-.3.01-.08.03-.14.05-.19.02-.05.05-.08.08-.1.03-.02.07-.03.11-.03.08,0,.18.05.32.14.14.09.32.19.53.3.22.11.48.21.78.3.31.1.66.14,1.06.14.3,0,.58-.04.83-.12.25-.08.47-.2.65-.35.18-.15.32-.33.42-.55.1-.22.15-.46.15-.74,0-.3-.07-.55-.2-.76-.14-.21-.31-.4-.54-.56-.22-.16-.48-.31-.76-.44-.29-.13-.58-.27-.88-.41-.3-.14-.59-.29-.87-.46-.28-.17-.53-.36-.76-.59-.22-.23-.4-.49-.54-.8-.14-.31-.21-.67-.21-1.1s.08-.83.24-1.18c.16-.34.38-.63.67-.87.29-.23.62-.41,1.02-.53.39-.12.82-.18,1.27-.18.23,0,.47.02.7.06.24.04.46.1.67.16.21.07.39.14.56.23.16.08.27.15.32.2.05.05.09.09.1.12.02.03.03.07.04.11,0,.05.02.1.02.17,0,.07,0,.15,0,.25s0,.18-.01.26c0,.08-.02.14-.04.19-.02.05-.04.09-.07.11-.03.02-.06.04-.1.04-.06,0-.15-.04-.28-.11-.13-.08-.28-.16-.47-.26-.18-.09-.4-.18-.65-.26-.25-.08-.53-.12-.85-.12-.29,0-.55.04-.76.12-.22.08-.4.18-.54.31-.14.13-.25.28-.32.46-.07.18-.1.37-.1.57,0,.29.07.55.2.76.14.21.32.4.54.56.22.16.48.31.77.45.29.13.58.27.88.41.3.14.59.29.88.46.29.17.54.36.77.59.22.23.41.49.54.8.14.31.21.67.21,1.09"/>
      <path class="cls-1" d="m150.77,49.66c.02-.7-.14-1.26-.47-1.66-.33-.4-.82-.6-1.47-.6-.33,0-.62.06-.88.19-.25.12-.46.29-.63.5-.17.2-.3.45-.39.72-.09.27-.14.56-.16.86h3.99Zm1.35.4c0,.21-.05.36-.16.45-.11.09-.23.14-.36.14h-4.82c0,.41.04.77.12,1.1.08.33.22.6.41.84.19.23.44.41.74.54.3.12.68.19,1.12.19.35,0,.66-.03.93-.09.27-.06.51-.12.71-.19.2-.07.36-.14.49-.19.13-.06.23-.09.29-.09.04,0,.07.01.1.03.03.02.05.05.07.09.02.04.03.09.04.16,0,.07.01.15.01.25,0,.07,0,.13,0,.18,0,.05-.01.1-.02.14,0,.04-.02.08-.04.11-.02.03-.04.06-.07.09-.03.03-.12.08-.27.14-.15.07-.33.14-.57.2-.23.07-.5.12-.81.17-.31.05-.63.08-.98.08-.6,0-1.13-.08-1.58-.25-.45-.17-.83-.42-1.14-.75-.31-.33-.54-.74-.7-1.24-.16-.5-.24-1.08-.24-1.74s.08-1.19.24-1.7c.16-.5.4-.93.7-1.28s.68-.62,1.11-.8c.43-.19.92-.28,1.46-.28.57,0,1.06.09,1.47.28.4.18.74.43,1,.74.26.31.45.68.57,1.1.12.42.18.87.18,1.34v.24Z"/>
      <path class="cls-1" d="m158.44,47.19c0,.12,0,.22,0,.3,0,.08-.02.15-.03.19s-.04.08-.06.11c-.02.02-.06.04-.1.04s-.1-.01-.16-.04c-.06-.02-.13-.05-.21-.07-.08-.03-.17-.05-.27-.07-.1-.02-.2-.03-.32-.03-.14,0-.27.03-.4.08-.13.05-.27.14-.41.27-.14.12-.29.29-.45.5-.16.21-.33.46-.52.76v4.81s-.01.08-.03.11c-.02.03-.06.06-.11.08-.05.02-.12.04-.2.05-.09.01-.2.02-.33.02s-.24,0-.33-.02c-.09-.01-.16-.03-.21-.05-.05-.02-.09-.05-.1-.08-.02-.03-.03-.07-.03-.11v-7.32s0-.08.02-.11c.02-.03.05-.06.1-.08.05-.02.11-.04.19-.05.08,0,.18-.01.3-.01s.22,0,.3.01c.08,0,.14.02.18.05.04.02.07.05.09.08.02.03.03.07.03.11v1.06c.2-.29.39-.53.57-.72s.34-.33.5-.43c.16-.11.31-.18.47-.22.15-.04.31-.06.47-.06.07,0,.15,0,.24.01.09,0,.18.02.28.05.1.02.19.05.26.07.08.03.13.05.17.08.03.03.06.05.07.08.01.02.02.06.03.09,0,.04.01.09.02.17,0,.07,0,.17,0,.3"/>
      <path class="cls-1" d="m166.12,46.7s0,.05,0,.07c0,.02,0,.05-.01.08,0,.03-.01.06-.02.09,0,.03-.02.07-.03.11l-2.5,6.95c-.02.06-.05.11-.08.15-.04.04-.09.07-.16.09-.07.02-.16.04-.27.05-.11,0-.24.01-.41.01s-.3,0-.41-.02c-.11-.01-.2-.03-.26-.05-.07-.02-.12-.05-.16-.09-.04-.04-.07-.08-.09-.14l-2.49-6.95c-.02-.06-.04-.12-.05-.17-.01-.05-.02-.09-.02-.11,0-.02,0-.04,0-.06,0-.04.01-.08.03-.11.02-.03.06-.06.11-.08.05-.02.12-.03.2-.04.08,0,.19,0,.31,0,.16,0,.28,0,.38.01.09,0,.17.02.22.05.05.02.09.05.11.08.02.03.05.07.07.12l2.07,6.03.03.1.02-.1,2.04-6.03s.03-.09.06-.12c.03-.03.07-.06.12-.08.05-.02.12-.04.21-.05.09,0,.21-.01.35-.01.12,0,.23,0,.31,0,.08,0,.14.02.19.04.05.02.08.05.1.08.02.03.03.07.03.11"/>
      <path class="cls-1" d="m168.98,54.03s-.01.08-.03.11c-.02.03-.06.06-.1.08-.05.02-.12.04-.2.05-.09.01-.2.02-.33.02s-.24,0-.32-.02c-.09-.01-.16-.03-.21-.05-.05-.02-.09-.05-.1-.08-.02-.03-.03-.07-.03-.11v-7.32s0-.07.03-.11c.02-.03.05-.06.1-.08.05-.02.12-.04.21-.05s.19-.02.32-.02.25,0,.33.02c.09.01.15.03.2.05.05.02.08.05.1.08.02.03.03.07.03.11v7.32Zm.15-9.79c0,.31-.06.53-.18.64-.12.12-.34.17-.66.17s-.53-.06-.65-.17-.18-.32-.18-.63.06-.53.18-.64.34-.17.66-.17.53.06.65.17c.12.11.18.32.18.63"/>
      <path class="cls-1" d="m176.73,52.92c0,.09,0,.17,0,.24,0,.07-.01.12-.03.17-.01.05-.03.08-.05.12-.02.03-.06.09-.13.15-.07.07-.18.15-.35.25-.16.1-.35.19-.55.27-.2.08-.43.14-.66.19-.24.05-.49.07-.74.07-.53,0-.99-.09-1.4-.26-.41-.17-.75-.43-1.02-.76-.27-.33-.48-.74-.63-1.23-.14-.49-.22-1.05-.22-1.68,0-.72.09-1.34.26-1.86.18-.52.42-.94.72-1.27.31-.33.67-.58,1.08-.74.42-.16.86-.24,1.35-.24.23,0,.46.02.68.07.22.04.42.1.6.17.18.07.35.15.49.24.14.09.25.17.31.24.07.07.11.12.13.16.03.04.05.08.06.13.02.05.03.11.03.18,0,.07,0,.15,0,.24,0,.21-.02.36-.07.44-.05.08-.11.13-.18.13-.08,0-.18-.04-.28-.13-.11-.09-.24-.19-.4-.3-.16-.11-.36-.21-.59-.3-.23-.09-.5-.13-.82-.13-.64,0-1.14.25-1.48.74-.35.5-.52,1.22-.52,2.16,0,.47.04.88.13,1.24.09.35.22.65.4.89.17.24.38.42.64.53.25.12.54.17.87.17s.58-.05.81-.15c.23-.1.44-.21.61-.32.17-.12.31-.22.43-.32.12-.09.21-.14.27-.14.04,0,.07.01.1.03.03.02.05.06.07.11.02.05.03.12.04.2,0,.08.01.17.01.28"/>
      <path class="cls-1" d="m183.4,49.66c.02-.7-.14-1.26-.47-1.66-.33-.4-.82-.6-1.47-.6-.33,0-.62.06-.88.19-.25.12-.46.29-.63.5-.17.2-.3.45-.39.72-.09.27-.14.56-.15.86h3.99Zm1.35.4c0,.21-.05.36-.16.45-.11.09-.23.14-.36.14h-4.82c0,.41.04.77.12,1.1.08.33.22.6.41.84.19.23.44.41.74.54.3.12.68.19,1.12.19.35,0,.66-.03.93-.09.27-.06.51-.12.71-.19.2-.07.36-.14.49-.19.13-.06.22-.09.29-.09.04,0,.07.01.1.03.03.02.05.05.07.09.02.04.03.09.04.16,0,.07.01.15.01.25,0,.07,0,.13,0,.18,0,.05-.01.1-.02.14,0,.04-.02.08-.04.11-.02.03-.04.06-.07.09-.03.03-.12.08-.26.14-.15.07-.34.14-.57.2-.23.07-.5.12-.81.17-.31.05-.63.08-.98.08-.6,0-1.13-.08-1.58-.25-.45-.17-.83-.42-1.14-.75-.31-.33-.54-.74-.7-1.24-.16-.5-.24-1.08-.24-1.74s.08-1.19.24-1.7c.16-.5.4-.93.7-1.28.31-.35.68-.62,1.11-.8.43-.19.92-.28,1.46-.28.57,0,1.06.09,1.47.28.4.18.74.43,1,.74.26.31.45.68.57,1.1.12.42.18.87.18,1.34v.24Z"/>
    </g>
  </g>
</svg>
