<?xml version="1.0" encoding="UTF-8"?>
<svg id="Layer_1" xmlns="http://www.w3.org/2000/svg" version="1.1" viewBox="0 0 900 110">
  <!-- Generator: Adobe Illustrator 29.5.0, SVG Export Plug-In . SVG Version: 2.1.0 Build 137)  -->
  <defs>
    <style>
      .st0 {
        fill: red;
      }
    </style>
  </defs>
  <path class="st0" d="M0-.4h49.1v100H0V-.4ZM158-.4h49.1v100h-49.1V-.4ZM96.8,20.5l7-14.3,7,13.8c.9,1.5,1.6,1.3,3,.6l6-3-3.9,19.2c-.8,3.8,1.3,4.9,3.7,2.3l8.5-9.1,2.3,5.2c.8,1.6,1.9,1.3,3.4,1.1l8.8-1.9-3,11.1v.2c-.3,1.5-1,2.7.6,3.4l3.1,1.6-18.2,15.4c-1.9,1.9-1.2,2.5-.5,4.6l1.7,5.2-16.9-3.1c-2.1-.5-3.5-.5-3.6,1.2l.7,19.4h-5.1l.7-19.4c0-1.9-1.5-1.9-4.9-1.1l-15.7,3,2-5.2c.7-2,.9-3.3-.7-4.6l-18.5-15.2,3.4-2.1c1-.8,1-1.6.5-3.3l-3.5-11.3,8.9,1.9c2.5.6,3.2,0,3.8-1.3l2.5-5.1,8.8,9.9c1.6,1.9,3.8.6,3.1-2l-4.2-20.8,6.6,3.8c1,.6,2.1.8,2.8-.4"/>
  <g>
    <path d="M289.7.8h7.1v40.7h-7.1V.8Z"/>
    <path d="M304.1,12h6.2v4.1h.2c.5-.7,1-1.4,1.6-2,.6-.6,1.2-1.1,1.9-1.5.7-.4,1.5-.8,2.4-1,.9-.2,2-.4,3.1-.4,1.8,0,3.4.4,5,1.2,1.5.8,2.6,2,3.3,3.7,1.1-1.5,2.4-2.7,3.8-3.6,1.4-.9,3.2-1.3,5.4-1.3,3.1,0,5.5.8,7.3,2.3,1.7,1.5,2.6,4.1,2.6,7.6v20.3h-6.5v-17.2c0-1.2,0-2.3-.1-3.2,0-1-.3-1.8-.7-2.5-.4-.7-.9-1.2-1.6-1.6-.7-.4-1.7-.6-3-.6-2.2,0-3.8.7-4.8,2.1-1,1.4-1.5,3.3-1.5,5.8v17.3h-6.5v-18.9c0-2.1-.4-3.6-1.1-4.6-.7-1-2.1-1.6-4.1-1.6s-1.6.2-2.4.5c-.8.3-1.5.8-2.1,1.5-.6.6-1.1,1.4-1.4,2.4-.4,1-.5,2-.5,3.2v17.5h-6.5V12Z"/>
    <path d="M353.1,12h6.2v4.1h.2c.5-.7,1-1.4,1.6-2,.6-.6,1.2-1.1,1.9-1.5.7-.4,1.5-.8,2.4-1,.9-.2,2-.4,3.1-.4,1.8,0,3.4.4,5,1.2,1.5.8,2.6,2,3.3,3.7,1.1-1.5,2.4-2.7,3.8-3.6,1.4-.9,3.2-1.3,5.4-1.3,3.1,0,5.5.8,7.3,2.3,1.7,1.5,2.6,4.1,2.6,7.6v20.3h-6.5v-17.2c0-1.2,0-2.3-.1-3.2,0-1-.3-1.8-.7-2.5-.4-.7-.9-1.2-1.6-1.6-.7-.4-1.7-.6-3-.6-2.2,0-3.8.7-4.8,2.1-1,1.4-1.5,3.3-1.5,5.8v17.3h-6.5v-18.9c0-2.1-.4-3.6-1.1-4.6-.7-1-2.1-1.6-4.1-1.6s-1.6.2-2.4.5c-.8.3-1.5.8-2.1,1.5-.6.6-1.1,1.4-1.4,2.4-.4,1-.5,2-.5,3.2v17.5h-6.5V12Z"/>
    <path d="M402.3.8h6.5v6.2h-6.5V.8ZM402.3,12h6.5v29.5h-6.5V12Z"/>
    <path d="M442.5,39.9c0,4.4-1.2,7.8-3.7,9.9-2.5,2.2-6.1,3.3-10.7,3.3s-3-.2-4.5-.5c-1.5-.3-2.9-.8-4.1-1.5-1.2-.7-2.3-1.7-3.1-2.9-.8-1.2-1.3-2.6-1.5-4.3h6.5c.2.9.5,1.7,1,2.2s1,1,1.6,1.3c.6.3,1.3.5,2.1.6.8,0,1.6.1,2.4.1,2.6,0,4.5-.6,5.8-1.9,1.2-1.3,1.8-3.2,1.8-5.6v-4.5h-.1c-.9,1.6-2.2,2.9-3.7,3.8-1.6.9-3.3,1.4-5.1,1.4s-4.4-.4-6-1.2c-1.7-.8-3-1.9-4.1-3.4-1.1-1.4-1.9-3.1-2.4-4.9-.5-1.9-.7-3.9-.7-6s.3-3.9.9-5.6c.6-1.8,1.5-3.4,2.6-4.7,1.1-1.3,2.5-2.4,4.2-3.2,1.7-.8,3.5-1.2,5.6-1.2s3.6.4,5.1,1.2c1.6.8,2.8,2,3.6,3.7h.1v-4h6.5v27.9ZM428.1,36.3c1.4,0,2.7-.3,3.7-.9,1-.6,1.8-1.4,2.5-2.3.6-1,1.1-2.1,1.4-3.3.3-1.2.4-2.5.4-3.7s-.2-2.5-.5-3.6c-.3-1.2-.8-2.2-1.4-3.1-.6-.9-1.4-1.6-2.5-2.2-1-.5-2.2-.8-3.6-.8s-2.7.3-3.6.9c-1,.6-1.8,1.4-2.4,2.4-.6,1-1,2.1-1.3,3.3-.3,1.2-.4,2.5-.4,3.7s.2,2.4.5,3.6c.3,1.2.8,2.2,1.4,3.1s1.4,1.7,2.4,2.2c1,.6,2.1.9,3.5.9Z"/>
    <path d="M448.5,12h6.1v5.7h.1c.2-.8.6-1.6,1.1-2.3.6-.8,1.2-1.5,2-2.1.8-.6,1.6-1.1,2.6-1.5.9-.4,1.9-.6,2.9-.6s1.3,0,1.6,0c.3,0,.6,0,.9.1v6.3c-.5,0-.9-.1-1.4-.2-.5,0-.9,0-1.4,0-1.1,0-2.1.2-3.1.7-1,.4-1.8,1.1-2.5,1.9-.7.9-1.3,1.9-1.7,3.2-.4,1.3-.6,2.7-.6,4.3v14h-6.5V12Z"/>
    <path d="M492.7,34.9c0,.8.1,1.4.3,1.7.2.3.6.5,1.2.5h.7c.3,0,.6,0,.9-.1v4.5c-.2,0-.5.2-.9.3-.4,0-.7.2-1.1.3-.4,0-.8.1-1.1.2-.4,0-.7,0-1,0-1.3,0-2.4-.3-3.3-.8-.9-.5-1.4-1.5-1.7-2.8-1.3,1.3-2.9,2.2-4.8,2.7-1.9.6-3.7.9-5.4.9s-2.6-.2-3.8-.5c-1.2-.4-2.3-.9-3.2-1.6-.9-.7-1.7-1.6-2.2-2.7s-.8-2.3-.8-3.8.3-3.3,1-4.4c.7-1.1,1.5-2,2.6-2.7,1.1-.6,2.3-1.1,3.6-1.4,1.3-.3,2.7-.5,4.1-.7,1.2-.2,2.3-.4,3.4-.5,1.1,0,2-.3,2.8-.5.8-.2,1.5-.6,1.9-1.1.5-.5.7-1.2.7-2.1s-.2-1.5-.6-2.1c-.4-.5-.9-.9-1.5-1.2-.6-.3-1.2-.5-2-.6-.7,0-1.4-.1-2.1-.1-1.8,0-3.3.4-4.5,1.1-1.2.8-1.8,1.9-2,3.5h-6.5c.1-1.9.6-3.5,1.4-4.7.8-1.3,1.8-2.3,3-3,1.2-.8,2.6-1.3,4.2-1.6,1.6-.3,3.2-.5,4.8-.5s2.9.2,4.3.5c1.4.3,2.7.8,3.8,1.5s2,1.6,2.7,2.7c.7,1.1,1,2.4,1,4v15.2ZM486.2,26.7c-1,.6-2.2,1-3.6,1.2-1.4.1-2.9.3-4.3.6-.7.1-1.3.3-2,.5-.6.2-1.2.5-1.7.9-.5.4-.9.8-1.2,1.4-.3.6-.4,1.3-.4,2.1s.2,1.3.6,1.8c.4.5.9.9,1.5,1.2.6.3,1.2.5,1.9.6.7.1,1.3.2,1.9.2s1.5,0,2.3-.3c.8-.2,1.6-.5,2.4-1s1.4-1,1.9-1.7c.5-.7.7-1.6.7-2.6v-4.8Z"/>
    <path d="M496.1,12h4.9V3.2h6.5v8.8h5.9v4.8h-5.9v15.7c0,.7,0,1.3,0,1.8,0,.5.2.9.4,1.3.2.3.5.6.9.8.4.2,1,.3,1.7.3s.9,0,1.4,0c.5,0,.9,0,1.4-.2v5c-.7,0-1.4.2-2.1.2-.7,0-1.4.1-2.1.1-1.7,0-3.1-.2-4.1-.5-1-.3-1.9-.8-2.5-1.4-.6-.6-1-1.4-1.2-2.4-.2-.9-.3-2-.4-3.2v-17.4h-4.9v-4.8Z"/>
    <path d="M517.7.8h6.5v6.2h-6.5V.8ZM517.7,12h6.5v29.5h-6.5V12Z"/>
    <path d="M544.2,42.3c-2.4,0-4.5-.4-6.3-1.2-1.8-.8-3.4-1.9-4.7-3.2-1.3-1.4-2.2-3-2.9-4.9-.7-1.9-1-4-1-6.3s.3-4.3,1-6.2c.7-1.9,1.6-3.5,2.9-4.9s2.8-2.4,4.7-3.2c1.8-.8,3.9-1.2,6.3-1.2s4.5.4,6.3,1.2c1.8.8,3.4,1.9,4.7,3.2,1.3,1.4,2.2,3,2.9,4.9.7,1.9,1,4,1,6.2s-.3,4.4-1,6.3c-.7,1.9-1.6,3.5-2.9,4.9-1.3,1.4-2.8,2.4-4.7,3.2-1.8.8-3.9,1.2-6.3,1.2ZM544.2,37.1c1.4,0,2.7-.3,3.8-.9,1.1-.6,1.9-1.4,2.6-2.4.7-1,1.2-2.1,1.5-3.3.3-1.2.5-2.5.5-3.8s-.2-2.5-.5-3.8c-.3-1.3-.8-2.4-1.5-3.3-.7-1-1.6-1.8-2.6-2.4-1.1-.6-2.3-.9-3.8-.9s-2.7.3-3.8.9c-1.1.6-1.9,1.4-2.6,2.4-.7,1-1.2,2.1-1.5,3.3-.3,1.3-.5,2.5-.5,3.8s.2,2.6.5,3.8c.3,1.2.8,2.3,1.5,3.3.7,1,1.6,1.8,2.6,2.4,1.1.6,2.3.9,3.8.9Z"/>
    <path d="M563.9,12h6.2v4.3h.1c1-1.5,2.3-2.8,3.9-3.7,1.6-.9,3.4-1.4,5.3-1.4,3.2,0,5.8.8,7.6,2.5,1.9,1.7,2.8,4.2,2.8,7.5v20.2h-6.5v-18.5c0-2.3-.6-4-1.5-5-.9-1-2.3-1.6-4.3-1.6s-2.1.2-3,.6c-.9.4-1.6,1-2.2,1.7-.6.7-1.1,1.5-1.4,2.5-.3,1-.5,2-.5,3v17.4h-6.5V12Z"/>
    <path d="M596.6,33.8h7.9v7.7c0,2.4-.8,4.3-2.2,5.9-1.4,1.6-3.2,2.6-5.5,3.1v-3.5c1.3-.3,2.2-1,2.8-2.1s.9-2.2.9-3.4h-3.9v-7.7Z"/>
    <path d="M627.5.8h19.4c4.5,0,7.8,1,10.1,2.9,2.2,1.9,3.4,4.6,3.4,8.1s-.3,3.5-.9,4.8c-.6,1.3-1.2,2.3-2,3.1-.8.8-1.5,1.3-2.3,1.7-.7.3-1.3.6-1.6.7h0c.6.2,1.3.4,2,.7.7.3,1.4.8,2,1.5.6.7,1.1,1.5,1.5,2.6.4,1.1.6,2.4.6,4,0,2.4.2,4.6.5,6.5.4,2,.9,3.4,1.7,4.2h-7.6c-.5-.9-.8-1.8-.9-2.9,0-1.1-.1-2.1-.1-3.1,0-1.9-.1-3.5-.3-4.8-.2-1.3-.6-2.5-1.3-3.4-.6-.9-1.4-1.5-2.5-2-1-.4-2.4-.6-4-.6h-10.5v16.8h-7.1V.8ZM634.7,19.3h11.7c2.3,0,4-.5,5.2-1.6,1.2-1.1,1.8-2.7,1.8-4.9s-.2-2.3-.6-3.2c-.4-.8-.9-1.5-1.6-1.9-.7-.5-1.4-.8-2.3-.9-.9-.2-1.7-.2-2.7-.2h-11.6v12.7Z"/>
    <path d="M671.2,28.4c0,1.1.2,2.2.5,3.3.3,1.1.8,2,1.5,2.8.6.8,1.5,1.4,2.5,1.9,1,.5,2.2.7,3.5.7s3.4-.4,4.6-1.2c1.2-.8,2-2,2.6-3.7h6.2c-.3,1.6-.9,3-1.8,4.3-.8,1.3-1.8,2.3-3,3.2s-2.5,1.5-4,1.9c-1.5.4-3,.7-4.6.7-2.3,0-4.4-.4-6.2-1.1-1.8-.8-3.3-1.8-4.5-3.2-1.2-1.4-2.2-3-2.8-4.9-.6-1.9-.9-4-.9-6.3s.3-4.1,1-6,1.6-3.5,2.9-5c1.2-1.4,2.7-2.6,4.5-3.4,1.7-.8,3.7-1.3,5.9-1.3s4.4.5,6.2,1.5c1.8,1,3.4,2.3,4.6,3.8,1.2,1.6,2.1,3.4,2.7,5.5.6,2.1.7,4.2.4,6.4h-21.7ZM686.4,24.1c0-1-.3-2-.7-3-.4-.9-.9-1.8-1.5-2.5-.6-.7-1.4-1.3-2.3-1.7-.9-.4-1.9-.7-3-.7s-2.2.2-3.1.6c-.9.4-1.7,1-2.4,1.7-.7.7-1.2,1.5-1.6,2.5-.4,1-.6,2-.7,3.1h15.2Z"/>
    <path d="M694.4,12h4.8v-2.5c0-1.9.2-3.4.7-4.5.5-1.2,1.1-2.1,1.8-2.7.8-.6,1.6-1,2.6-1.3,1-.2,2-.3,3-.3,2.1,0,3.6.1,4.6.4v5.1c-.4-.1-.9-.2-1.3-.3-.5,0-1,0-1.7,0s-1.6.2-2.3.6c-.6.4-.9,1.2-.9,2.5v3h5.5v4.8h-5.5v24.6h-6.5v-24.6h-4.8v-4.8Z"/>
    <path d="M740.6,41.5h-6.4v-4.1h-.1c-.8,1.5-2,2.7-3.6,3.6-1.6.9-3.2,1.3-4.8,1.3-3.9,0-6.7-1-8.4-2.9-1.7-1.9-2.6-4.8-2.6-8.7V12h6.5v18.1c0,2.6.5,4.4,1.5,5.5,1,1.1,2.4,1.6,4.2,1.6s2.5-.2,3.4-.6c.9-.4,1.7-1,2.2-1.7.6-.7,1-1.5,1.2-2.5.2-1,.4-2.1.4-3.2V12h6.5v29.5Z"/>
    <path d="M774.1,39.9c0,4.4-1.2,7.8-3.7,9.9-2.5,2.2-6.1,3.3-10.7,3.3s-3-.2-4.5-.5c-1.5-.3-2.9-.8-4.1-1.5-1.2-.7-2.3-1.7-3.1-2.9-.8-1.2-1.3-2.6-1.5-4.3h6.5c.2.9.5,1.7,1,2.2s1,1,1.6,1.3c.6.3,1.3.5,2.1.6.8,0,1.6.1,2.4.1,2.6,0,4.5-.6,5.8-1.9,1.2-1.3,1.8-3.2,1.8-5.6v-4.5h-.1c-.9,1.6-2.2,2.9-3.7,3.8-1.6.9-3.3,1.4-5.1,1.4s-4.4-.4-6-1.2c-1.7-.8-3-1.9-4.1-3.4-1.1-1.4-1.9-3.1-2.4-4.9-.5-1.9-.7-3.9-.7-6s.3-3.9.9-5.6c.6-1.8,1.5-3.4,2.6-4.7,1.1-1.3,2.5-2.4,4.2-3.2,1.7-.8,3.5-1.2,5.6-1.2s3.6.4,5.1,1.2c1.6.8,2.8,2,3.6,3.7h.1v-4h6.5v27.9ZM759.7,36.3c1.4,0,2.7-.3,3.7-.9,1-.6,1.8-1.4,2.5-2.3.6-1,1.1-2.1,1.4-3.3.3-1.2.4-2.5.4-3.7s-.2-2.5-.5-3.6c-.3-1.2-.8-2.2-1.4-3.1-.6-.9-1.4-1.6-2.5-2.2-1-.5-2.2-.8-3.6-.8s-2.7.3-3.6.9c-1,.6-1.8,1.4-2.4,2.4-.6,1-1,2.1-1.3,3.3-.3,1.2-.4,2.5-.4,3.7s.2,2.4.5,3.6c.3,1.2.8,2.2,1.4,3.1s1.4,1.7,2.4,2.2c1,.6,2.1.9,3.5.9Z"/>
    <path d="M785.1,28.4c0,1.1.2,2.2.5,3.3.3,1.1.8,2,1.5,2.8.6.8,1.5,1.4,2.5,1.9,1,.5,2.2.7,3.5.7s3.4-.4,4.6-1.2c1.2-.8,2-2,2.6-3.7h6.2c-.3,1.6-.9,3-1.8,4.3-.8,1.3-1.8,2.3-3,3.2s-2.5,1.5-4,1.9c-1.5.4-3,.7-4.6.7-2.3,0-4.4-.4-6.2-1.1-1.8-.8-3.3-1.8-4.5-3.2-1.2-1.4-2.2-3-2.8-4.9-.6-1.9-.9-4-.9-6.3s.3-4.1,1-6,1.6-3.5,2.9-5c1.2-1.4,2.7-2.6,4.5-3.4,1.7-.8,3.7-1.3,5.9-1.3s4.4.5,6.2,1.5c1.8,1,3.4,2.3,4.6,3.8,1.2,1.6,2.1,3.4,2.7,5.5.6,2.1.7,4.2.4,6.4h-21.7ZM800.3,24.1c0-1-.3-2-.7-3-.4-.9-.9-1.8-1.5-2.5-.6-.7-1.4-1.3-2.3-1.7-.9-.4-1.9-.7-3-.7s-2.2.2-3.1.6c-.9.4-1.7,1-2.4,1.7-.7.7-1.2,1.5-1.6,2.5-.4,1-.6,2-.7,3.1h15.2Z"/>
    <path d="M816.3,28.4c0,1.1.2,2.2.5,3.3.3,1.1.8,2,1.5,2.8.6.8,1.5,1.4,2.5,1.9,1,.5,2.2.7,3.5.7s3.4-.4,4.6-1.2c1.2-.8,2-2,2.6-3.7h6.2c-.3,1.6-.9,3-1.8,4.3-.8,1.3-1.8,2.3-3,3.2s-2.5,1.5-4,1.9c-1.5.4-3,.7-4.6.7-2.3,0-4.4-.4-6.2-1.1-1.8-.8-3.3-1.8-4.5-3.2-1.2-1.4-2.2-3-2.8-4.9-.6-1.9-.9-4-.9-6.3s.3-4.1,1-6,1.6-3.5,2.9-5c1.2-1.4,2.7-2.6,4.5-3.4,1.7-.8,3.7-1.3,5.9-1.3s4.4.5,6.2,1.5c1.8,1,3.4,2.3,4.6,3.8,1.2,1.6,2.1,3.4,2.7,5.5.6,2.1.7,4.2.4,6.4h-21.7ZM831.4,24.1c0-1-.3-2-.7-3-.4-.9-.9-1.8-1.5-2.5-.6-.7-1.4-1.3-2.3-1.7-.9-.4-1.9-.7-3-.7s-2.2.2-3.1.6c-.9.4-1.7,1-2.4,1.7-.7.7-1.2,1.5-1.6,2.5-.4,1-.6,2-.7,3.1h15.2Z"/>
    <path d="M847.2,32c.2,1.9.9,3.2,2.2,4,1.3.8,2.8,1.1,4.5,1.1s1.3,0,2.1-.1c.8,0,1.5-.3,2.2-.5.7-.3,1.2-.7,1.7-1.2.4-.5.6-1.2.6-2,0-.8-.3-1.5-.9-2.1-.6-.5-1.3-1-2.2-1.3-.9-.3-1.9-.6-3-.8-1.1-.2-2.3-.5-3.5-.7-1.2-.3-2.4-.6-3.5-1-1.1-.4-2.1-.9-3-1.5-.9-.6-1.6-1.5-2.1-2.5-.5-1-.8-2.3-.8-3.7s.4-2.9,1.2-4c.8-1.1,1.8-2,3-2.6,1.2-.7,2.5-1.1,4-1.4,1.5-.3,2.9-.4,4.2-.4s3,.2,4.4.5c1.4.3,2.6.8,3.8,1.6,1.1.7,2.1,1.7,2.8,2.8.7,1.2,1.2,2.6,1.4,4.2h-6.8c-.3-1.6-1-2.6-2.1-3.1-1.1-.5-2.4-.8-3.8-.8s-1,0-1.6.1c-.6,0-1.2.2-1.8.4-.6.2-1,.5-1.4.9s-.6.9-.6,1.6.3,1.4.8,1.9c.6.5,1.3.9,2.2,1.2.9.3,1.9.6,3,.8,1.1.2,2.3.5,3.5.7,1.2.3,2.3.6,3.5,1,1.1.4,2.2.9,3,1.5.9.6,1.6,1.5,2.2,2.5.5,1,.8,2.2.8,3.6s-.4,3.2-1.2,4.4c-.8,1.2-1.8,2.2-3.1,3-1.3.8-2.7,1.3-4.2,1.7-1.6.3-3.1.5-4.6.5s-3.6-.2-5.2-.6c-1.6-.4-2.9-1.1-4.1-1.9s-2.1-1.9-2.7-3.2c-.7-1.3-1-2.8-1.1-4.5h6.5Z"/>
    <path d="M313.5,92.9c0,.8.1,1.4.3,1.7.2.3.6.5,1.2.5h.7c.3,0,.6,0,.9-.1v4.5c-.2,0-.5.2-.9.3-.4,0-.7.2-1.1.3-.4,0-.8.1-1.1.2-.4,0-.7,0-1,0-1.3,0-2.4-.3-3.3-.8-.9-.5-1.4-1.5-1.7-2.8-1.3,1.3-2.9,2.2-4.8,2.7-1.9.6-3.7.9-5.4.9s-2.6-.2-3.8-.5c-1.2-.4-2.3-.9-3.2-1.6-.9-.7-1.7-1.6-2.2-2.7-.6-1.1-.8-2.3-.8-3.8s.3-3.3,1-4.4c.7-1.1,1.5-2,2.6-2.7,1.1-.6,2.3-1.1,3.6-1.4,1.3-.3,2.7-.5,4.1-.7,1.2-.2,2.3-.4,3.4-.5,1.1,0,2-.3,2.8-.5.8-.2,1.5-.6,1.9-1.1.5-.5.7-1.2.7-2.1s-.2-1.5-.6-2.1c-.4-.5-.9-.9-1.5-1.2-.6-.3-1.2-.5-2-.6-.7,0-1.4-.1-2.1-.1-1.8,0-3.3.4-4.5,1.1-1.2.8-1.8,1.9-2,3.5h-6.5c.1-1.9.6-3.5,1.4-4.7.8-1.3,1.8-2.3,3-3,1.2-.8,2.6-1.3,4.2-1.6,1.6-.3,3.2-.5,4.8-.5s2.9.2,4.3.5c1.4.3,2.7.8,3.8,1.5,1.1.7,2,1.6,2.7,2.7.7,1.1,1,2.4,1,4v15.2ZM307,84.7c-1,.6-2.2,1-3.6,1.2-1.4.1-2.9.3-4.3.6-.7.1-1.3.3-2,.5-.6.2-1.2.5-1.7.9-.5.4-.9.8-1.2,1.4-.3.6-.4,1.3-.4,2.1s.2,1.3.6,1.8c.4.5.9.9,1.5,1.2.6.3,1.2.5,1.9.6.7.1,1.3.2,1.9.2s1.5,0,2.3-.3c.8-.2,1.6-.5,2.4-1,.7-.5,1.4-1,1.9-1.7.5-.7.7-1.6.7-2.6v-4.8Z"/>
    <path d="M319.9,70h6.2v4.3h.1c1-1.5,2.3-2.8,3.9-3.7,1.6-.9,3.4-1.4,5.3-1.4,3.2,0,5.8.8,7.6,2.5,1.9,1.7,2.8,4.2,2.8,7.5v20.2h-6.5v-18.5c0-2.3-.6-4-1.5-5-.9-1-2.3-1.6-4.3-1.6s-2.1.2-3,.6c-.9.4-1.6,1-2.2,1.7-.6.7-1.1,1.5-1.4,2.5-.3,1-.5,2-.5,3v17.4h-6.5v-29.5Z"/>
    <path d="M379.8,99.5h-6.2v-4h-.1c-.9,1.7-2.1,2.9-3.8,3.7-1.7.7-3.4,1.1-5.3,1.1s-4.3-.4-6.1-1.2c-1.7-.8-3.2-1.9-4.3-3.3-1.1-1.4-2-3.1-2.6-5-.6-1.9-.9-4-.9-6.2s.4-5,1.1-6.9c.7-1.9,1.7-3.5,2.9-4.8,1.2-1.3,2.6-2.2,4.1-2.8,1.5-.6,3.1-.9,4.7-.9s1.8,0,2.8.3c1,.2,1.9.4,2.7.8.9.4,1.7.9,2.4,1.5.7.6,1.4,1.3,1.9,2.1h.1v-15h6.5v40.7ZM357.1,85c0,1.3.2,2.5.5,3.7.3,1.2.8,2.3,1.5,3.2.7,1,1.5,1.7,2.5,2.3s2.2.9,3.6.9,2.7-.3,3.7-.9c1-.6,1.9-1.4,2.6-2.4.7-1,1.2-2.1,1.5-3.3.3-1.2.5-2.5.5-3.8,0-3.3-.7-5.8-2.2-7.6-1.5-1.8-3.4-2.7-6-2.7s-2.8.3-3.8.9c-1,.6-1.9,1.4-2.6,2.5-.7,1-1.1,2.1-1.4,3.4-.3,1.3-.4,2.6-.4,3.9Z"/>
    <path d="M430,71.7c-.3-1.2-.7-2.3-1.3-3.2-.5-1-1.2-1.8-2.1-2.6-.8-.7-1.8-1.3-2.9-1.7-1.1-.4-2.4-.6-3.9-.6-2.2,0-4,.4-5.6,1.3-1.6.9-2.9,2-3.8,3.5-1,1.5-1.7,3.1-2.2,5-.5,1.9-.7,3.8-.7,5.7s.2,3.8.7,5.7c.5,1.9,1.2,3.5,2.2,5,1,1.5,2.3,2.6,3.8,3.5,1.6.9,3.4,1.3,5.6,1.3s3-.3,4.2-.8c1.2-.6,2.3-1.3,3.1-2.3.9-1,1.6-2.1,2.1-3.4.5-1.3.8-2.7,1-4.2h7c-.2,2.4-.7,4.7-1.6,6.7-.9,2-2.1,3.8-3.6,5.2-1.5,1.5-3.3,2.6-5.4,3.4-2.1.8-4.3,1.2-6.8,1.2s-5.8-.6-8.2-1.7c-2.4-1.1-4.5-2.7-6.1-4.6s-3-4.2-3.8-6.8c-.9-2.6-1.3-5.3-1.3-8.3s.4-5.6,1.3-8.2c.9-2.6,2.2-4.8,3.8-6.8s3.7-3.5,6.1-4.6,5.1-1.7,8.2-1.7,4.4.3,6.4.9c2,.6,3.8,1.5,5.3,2.7,1.5,1.2,2.8,2.7,3.7,4.4.9,1.7,1.5,3.7,1.8,5.9h-7.1Z"/>
    <path d="M442.3,58.8h6.5v6.2h-6.5v-6.2ZM442.3,70h6.5v29.5h-6.5v-29.5Z"/>
    <path d="M452.4,70h4.9v-8.8h6.5v8.8h5.9v4.8h-5.9v15.7c0,.7,0,1.3,0,1.8,0,.5.2.9.4,1.3.2.3.5.6.9.8.4.2,1,.3,1.7.3s.9,0,1.4,0c.5,0,.9,0,1.4-.2v5c-.7,0-1.4.2-2.1.2-.7,0-1.4.1-2.1.1-1.7,0-3.1-.2-4.1-.5-1-.3-1.9-.8-2.5-1.4-.6-.6-1-1.4-1.2-2.4-.2-.9-.3-2-.4-3.2v-17.4h-4.9v-4.8Z"/>
    <path d="M473.9,58.8h6.5v6.2h-6.5v-6.2ZM473.9,70h6.5v29.5h-6.5v-29.5Z"/>
    <path d="M485.9,70h23.9v4.6l-16.9,19.8h17.7v5.1h-25.9v-4.6l16.3-19.8h-15.2v-5.1Z"/>
    <path d="M519.9,86.4c0,1.1.2,2.2.5,3.3.3,1.1.8,2,1.5,2.8.6.8,1.5,1.4,2.5,1.9,1,.5,2.2.7,3.5.7s3.4-.4,4.6-1.2c1.2-.8,2-2,2.6-3.7h6.2c-.3,1.6-.9,3-1.8,4.3-.8,1.3-1.8,2.3-3,3.2s-2.5,1.5-4,1.9c-1.5.4-3,.7-4.6.7-2.3,0-4.4-.4-6.2-1.1-1.8-.8-3.3-1.8-4.5-3.2-1.2-1.4-2.2-3-2.8-4.9-.6-1.9-.9-4-.9-6.3s.3-4.1,1-6,1.6-3.5,2.9-5c1.2-1.4,2.7-2.6,4.5-3.4,1.7-.8,3.7-1.3,5.9-1.3s4.4.5,6.2,1.5c1.8,1,3.4,2.3,4.6,3.8,1.2,1.6,2.1,3.4,2.6,5.5.6,2.1.7,4.2.4,6.4h-21.7ZM535.1,82.1c0-1-.3-2-.7-3-.4-.9-.9-1.8-1.5-2.5-.6-.7-1.4-1.3-2.3-1.7-.9-.4-1.9-.7-3-.7s-2.2.2-3.1.6c-.9.4-1.7,1-2.4,1.7-.7.7-1.2,1.5-1.6,2.5-.4,1-.6,2-.7,3.1h15.2Z"/>
    <path d="M546,70h6.2v4.3h.1c1-1.5,2.3-2.8,3.9-3.7,1.6-.9,3.4-1.4,5.3-1.4,3.2,0,5.8.8,7.6,2.5,1.9,1.7,2.8,4.2,2.8,7.5v20.2h-6.5v-18.5c0-2.3-.6-4-1.5-5-.9-1-2.3-1.6-4.3-1.6s-2.1.2-3,.6c-.9.4-1.6,1-2.2,1.7-.6.7-1.1,1.5-1.4,2.5-.3,1-.5,2-.5,3v17.4h-6.5v-29.5Z"/>
    <path d="M583,90c.2,1.9.9,3.2,2.2,4,1.3.8,2.8,1.1,4.5,1.1s1.3,0,2.1-.1c.8,0,1.5-.3,2.2-.5.7-.3,1.2-.7,1.7-1.2.4-.5.6-1.2.6-2,0-.8-.3-1.5-.9-2.1-.6-.5-1.3-1-2.2-1.3-.9-.3-1.9-.6-3-.8-1.1-.2-2.3-.5-3.5-.7-1.2-.3-2.4-.6-3.5-1-1.1-.4-2.1-.9-3-1.5-.9-.6-1.6-1.5-2.1-2.5-.5-1-.8-2.3-.8-3.7s.4-2.9,1.2-4c.8-1.1,1.8-2,3-2.6,1.2-.7,2.5-1.1,4-1.4,1.5-.3,2.9-.4,4.2-.4s3,.2,4.4.5c1.4.3,2.6.8,3.8,1.6,1.1.7,2.1,1.7,2.8,2.8.7,1.2,1.2,2.6,1.4,4.2h-6.8c-.3-1.6-1-2.6-2.1-3.1-1.1-.5-2.4-.8-3.8-.8s-1,0-1.6.1c-.6,0-1.2.2-1.8.4-.6.2-1,.5-1.4.9s-.6.9-.6,1.6.3,1.4.8,1.9c.6.5,1.3.9,2.2,1.2.9.3,1.9.6,3,.8,1.1.2,2.3.5,3.5.7,1.2.3,2.3.6,3.5,1,1.1.4,2.2.9,3,1.5.9.6,1.6,1.5,2.2,2.5.5,1,.8,2.2.8,3.6s-.4,3.2-1.2,4.4c-.8,1.2-1.8,2.2-3.1,3-1.3.8-2.7,1.3-4.2,1.7-1.6.3-3.1.5-4.6.5s-3.6-.2-5.2-.6c-1.6-.4-2.9-1.1-4.1-1.9s-2.1-1.9-2.7-3.2c-.7-1.3-1-2.8-1.1-4.5h6.5Z"/>
    <path d="M607.1,58.8h6.5v15.1h.1c.8-1.3,2-2.4,3.6-3.3,1.6-.9,3.3-1.3,5.3-1.3,3.2,0,5.8.8,7.6,2.5,1.9,1.7,2.8,4.2,2.8,7.5v20.2h-6.5v-18.5c0-2.3-.6-4-1.5-5-.9-1-2.3-1.6-4.3-1.6s-2.1.2-3,.6c-.9.4-1.6,1-2.2,1.7-.6.7-1.1,1.5-1.4,2.5-.3,1-.5,2-.5,3v17.4h-6.5v-40.7Z"/>
    <path d="M639.4,58.8h6.5v6.2h-6.5v-6.2ZM639.4,70h6.5v29.5h-6.5v-29.5Z"/>
    <path d="M652.6,70h6.2v4h.1c.9-1.7,2.2-2.9,3.8-3.7,1.6-.7,3.4-1.1,5.3-1.1s4.3.4,6.1,1.2c1.7.8,3.2,1.9,4.3,3.4,1.1,1.4,2,3.1,2.6,5,.6,1.9.9,3.9.9,6.1s-.3,3.9-.8,5.8c-.5,1.9-1.3,3.5-2.3,4.9-1,1.4-2.4,2.6-4,3.4s-3.5,1.3-5.6,1.3-1.9,0-2.9-.3c-1-.2-1.9-.4-2.7-.8s-1.7-.9-2.4-1.5c-.7-.6-1.4-1.3-1.9-2.1h-.1v14.7h-6.5v-40.4ZM675.3,84.8c0-1.3-.2-2.6-.5-3.9-.3-1.3-.9-2.4-1.5-3.3-.7-1-1.5-1.7-2.6-2.3-1-.6-2.2-.9-3.5-.9-2.7,0-4.8,1-6.2,2.9-1.4,1.9-2.1,4.4-2.1,7.6s.2,2.9.5,4.1c.4,1.3.9,2.4,1.6,3.3.7.9,1.6,1.6,2.6,2.2,1,.5,2.2.8,3.5.8s2.7-.3,3.8-.9c1-.6,1.9-1.4,2.5-2.4.7-1,1.1-2.1,1.4-3.3.3-1.2.4-2.5.4-3.8Z"/>
    <path d="M730.4,71.7c-.3-1.2-.7-2.3-1.3-3.2-.5-1-1.2-1.8-2.1-2.6-.8-.7-1.8-1.3-2.9-1.7-1.1-.4-2.4-.6-3.9-.6-2.2,0-4,.4-5.6,1.3-1.6.9-2.9,2-3.8,3.5-1,1.5-1.7,3.1-2.2,5-.5,1.9-.7,3.8-.7,5.7s.2,3.8.7,5.7c.5,1.9,1.2,3.5,2.2,5,1,1.5,2.3,2.6,3.8,3.5,1.6.9,3.4,1.3,5.6,1.3s3-.3,4.2-.8c1.2-.6,2.3-1.3,3.1-2.3.9-1,1.6-2.1,2.1-3.4.5-1.3.8-2.7,1-4.2h7c-.2,2.4-.7,4.7-1.6,6.7-.9,2-2.1,3.8-3.6,5.2-1.5,1.5-3.3,2.6-5.4,3.4-2.1.8-4.3,1.2-6.8,1.2s-5.8-.6-8.2-1.7c-2.4-1.1-4.5-2.7-6.1-4.6s-3-4.2-3.8-6.8c-.9-2.6-1.3-5.3-1.3-8.3s.4-5.6,1.3-8.2c.9-2.6,2.2-4.8,3.8-6.8s3.7-3.5,6.1-4.6,5.1-1.7,8.2-1.7,4.4.3,6.4.9c2,.6,3.8,1.5,5.3,2.7,1.5,1.2,2.8,2.7,3.7,4.4.9,1.7,1.5,3.7,1.8,5.9h-7.1Z"/>
    <path d="M767.2,92.9c0,.8.1,1.4.3,1.7.2.3.6.5,1.2.5h.7c.3,0,.6,0,.9-.1v4.5c-.2,0-.5.2-.9.3-.4,0-.7.2-1.1.3-.4,0-.8.1-1.1.2-.4,0-.7,0-1,0-1.3,0-2.4-.3-3.3-.8-.9-.5-1.4-1.5-1.7-2.8-1.3,1.3-2.9,2.2-4.8,2.7-1.9.6-3.7.9-5.4.9s-2.6-.2-3.8-.5c-1.2-.4-2.3-.9-3.2-1.6-.9-.7-1.7-1.6-2.2-2.7s-.8-2.3-.8-3.8.3-3.3,1-4.4c.7-1.1,1.5-2,2.6-2.7,1.1-.6,2.3-1.1,3.6-1.4,1.3-.3,2.7-.5,4.1-.7,1.2-.2,2.3-.4,3.4-.5,1.1,0,2-.3,2.8-.5.8-.2,1.5-.6,1.9-1.1.5-.5.7-1.2.7-2.1s-.2-1.5-.6-2.1c-.4-.5-.9-.9-1.5-1.2-.6-.3-1.2-.5-2-.6-.7,0-1.4-.1-2.1-.1-1.8,0-3.3.4-4.5,1.1-1.2.8-1.8,1.9-2,3.5h-6.5c.1-1.9.6-3.5,1.4-4.7.8-1.3,1.8-2.3,3-3,1.2-.8,2.6-1.3,4.2-1.6,1.6-.3,3.2-.5,4.8-.5s2.9.2,4.3.5c1.4.3,2.7.8,3.8,1.5s2,1.6,2.7,2.7c.7,1.1,1,2.4,1,4v15.2ZM760.7,84.7c-1,.6-2.2,1-3.6,1.2-1.4.1-2.9.3-4.3.6-.7.1-1.3.3-2,.5-.6.2-1.2.5-1.7.9-.5.4-.9.8-1.2,1.4-.3.6-.4,1.3-.4,2.1s.2,1.3.6,1.8c.4.5.9.9,1.5,1.2.6.3,1.2.5,1.9.6.7.1,1.3.2,1.9.2s1.5,0,2.3-.3c.8-.2,1.6-.5,2.4-1s1.4-1,1.9-1.7c.5-.7.7-1.6.7-2.6v-4.8Z"/>
    <path d="M773.7,70h6.2v4.3h.1c1-1.5,2.3-2.8,3.9-3.7,1.6-.9,3.4-1.4,5.3-1.4,3.2,0,5.8.8,7.6,2.5,1.9,1.7,2.8,4.2,2.8,7.5v20.2h-6.5v-18.5c0-2.3-.6-4-1.5-5-.9-1-2.3-1.6-4.3-1.6s-2.1.2-3,.6c-.9.4-1.6,1-2.2,1.7-.6.7-1.1,1.5-1.4,2.5-.3,1-.5,2-.5,3v17.4h-6.5v-29.5Z"/>
    <path d="M830.5,92.9c0,.8.1,1.4.3,1.7.2.3.6.5,1.2.5h.7c.3,0,.6,0,.9-.1v4.5c-.2,0-.5.2-.9.3-.4,0-.7.2-1.1.3-.4,0-.8.1-1.1.2-.4,0-.7,0-1,0-1.3,0-2.4-.3-3.3-.8-.9-.5-1.4-1.5-1.7-2.8-1.3,1.3-2.9,2.2-4.8,2.7-1.9.6-3.7.9-5.4.9s-2.6-.2-3.8-.5c-1.2-.4-2.3-.9-3.2-1.6-.9-.7-1.7-1.6-2.2-2.7s-.8-2.3-.8-3.8.3-3.3,1-4.4c.7-1.1,1.5-2,2.6-2.7,1.1-.6,2.3-1.1,3.6-1.4,1.3-.3,2.7-.5,4.1-.7,1.2-.2,2.3-.4,3.4-.5,1.1,0,2-.3,2.8-.5.8-.2,1.5-.6,1.9-1.1.5-.5.7-1.2.7-2.1s-.2-1.5-.6-2.1c-.4-.5-.9-.9-1.5-1.2-.6-.3-1.2-.5-2-.6-.7,0-1.4-.1-2.1-.1-1.8,0-3.3.4-4.5,1.1-1.2.8-1.8,1.9-2,3.5h-6.5c.1-1.9.6-3.5,1.4-4.7.8-1.3,1.8-2.3,3-3,1.2-.8,2.6-1.3,4.2-1.6,1.6-.3,3.2-.5,4.8-.5s2.9.2,4.3.5c1.4.3,2.7.8,3.8,1.5s2,1.6,2.7,2.7c.7,1.1,1,2.4,1,4v15.2ZM824,84.7c-1,.6-2.2,1-3.6,1.2-1.4.1-2.9.3-4.3.6-.7.1-1.3.3-2,.5-.6.2-1.2.5-1.7.9-.5.4-.9.8-1.2,1.4-.3.6-.4,1.3-.4,2.1s.2,1.3.6,1.8c.4.5.9.9,1.5,1.2.6.3,1.2.5,1.9.6.7.1,1.3.2,1.9.2s1.5,0,2.3-.3c.8-.2,1.6-.5,2.4-1s1.4-1,1.9-1.7c.5-.7.7-1.6.7-2.6v-4.8Z"/>
    <path d="M864.7,99.5h-6.2v-4h-.1c-.9,1.7-2.1,2.9-3.8,3.7-1.7.7-3.4,1.1-5.3,1.1s-4.3-.4-6.1-1.2c-1.7-.8-3.2-1.9-4.3-3.3-1.1-1.4-2-3.1-2.6-5-.6-1.9-.9-4-.9-6.2s.4-5,1.1-6.9c.7-1.9,1.7-3.5,2.9-4.8,1.2-1.3,2.6-2.2,4.1-2.8,1.5-.6,3.1-.9,4.7-.9s1.8,0,2.8.3c1,.2,1.9.4,2.7.8.9.4,1.7.9,2.4,1.5.7.6,1.4,1.3,1.9,2.1h.1v-15h6.5v40.7ZM842,85c0,1.3.2,2.5.5,3.7.3,1.2.8,2.3,1.5,3.2.7,1,1.5,1.7,2.5,2.3s2.2.9,3.6.9,2.7-.3,3.7-.9c1-.6,1.9-1.4,2.6-2.4.7-1,1.2-2.1,1.5-3.3.3-1.2.5-2.5.5-3.8,0-3.3-.7-5.8-2.2-7.6-1.5-1.8-3.4-2.7-6-2.7s-2.8.3-3.8.9c-1,.6-1.9,1.4-2.6,2.5-.7,1-1.1,2.1-1.4,3.4-.3,1.3-.4,2.6-.4,3.9Z"/>
    <path d="M895.9,92.9c0,.8.1,1.4.3,1.7.2.3.6.5,1.2.5h.7c.3,0,.6,0,.9-.1v4.5c-.2,0-.5.2-.9.3-.4,0-.7.2-1.1.3-.4,0-.8.1-1.1.2-.4,0-.7,0-1,0-1.3,0-2.4-.3-3.3-.8-.9-.5-1.4-1.5-1.7-2.8-1.3,1.3-2.9,2.2-4.8,2.7-1.9.6-3.7.9-5.4.9s-2.6-.2-3.8-.5c-1.2-.4-2.3-.9-3.2-1.6-.9-.7-1.7-1.6-2.2-2.7s-.8-2.3-.8-3.8.3-3.3,1-4.4c.7-1.1,1.5-2,2.6-2.7,1.1-.6,2.3-1.1,3.6-1.4,1.3-.3,2.7-.5,4.1-.7,1.2-.2,2.3-.4,3.4-.5,1.1,0,2-.3,2.8-.5.8-.2,1.5-.6,1.9-1.1.5-.5.7-1.2.7-2.1s-.2-1.5-.6-2.1c-.4-.5-.9-.9-1.5-1.2-.6-.3-1.2-.5-2-.6-.7,0-1.4-.1-2.1-.1-1.8,0-3.3.4-4.5,1.1-1.2.8-1.8,1.9-2,3.5h-6.5c.1-1.9.6-3.5,1.4-4.7.8-1.3,1.8-2.3,3-3,1.2-.8,2.6-1.3,4.2-1.6,1.6-.3,3.2-.5,4.8-.5s2.9.2,4.3.5c1.4.3,2.7.8,3.8,1.5s2,1.6,2.7,2.7c.7,1.1,1,2.4,1,4v15.2ZM889.4,84.7c-1,.6-2.2,1-3.6,1.2-1.4.1-2.9.3-4.3.6-.7.1-1.3.3-2,.5-.6.2-1.2.5-1.7.9-.5.4-.9.8-1.2,1.4-.3.6-.4,1.3-.4,2.1s.2,1.3.6,1.8c.4.5.9.9,1.5,1.2.6.3,1.2.5,1.9.6.7.1,1.3.2,1.9.2s1.5,0,2.3-.3c.8-.2,1.6-.5,2.4-1s1.4-1,1.9-1.7c.5-.7.7-1.6.7-2.6v-4.8Z"/>
  </g>
</svg>