<?xml version="1.0" encoding="UTF-8"?>
<svg xmlns="http://www.w3.org/2000/svg" version="1.1" viewBox="0 0 100 100">
  <defs>
    <style>
      .cls-1 {
        fill: #472b29;
      }

      .cls-2 {
        fill: #fff;
      }

      .cls-3 {
        fill: none;
      }

      .cls-4 {
        fill: #88ae45;
      }

      .cls-5 {
        fill: #ef9922;
      }

      .cls-6 {
        fill: #f5c511;
      }
    </style>
  </defs>
  <!-- Generator: Adobe Illustrator 28.7.5, SVG Export Plug-In . SVG Version: 1.2.0 Build 176)  -->
  <g>
    <g id="Layer_1">
      <path class="cls-6" d="M87.2,56.7c1.1-2.2,1.8-4.6,1.8-7.2,0-6.6-4.2-12.3-10-14.5,0,0,0,0,0,0,0-11.6-9.4-21-21-21s-18,6.7-20.3,15.8c-1.5-.5-3-.8-4.7-.8-7.7,0-14,5.8-14.9,13.3-5.2,1.1-9.1,5.7-9.1,11.2s5.1,11.5,11.5,11.5.4,0,.5,0c0,.2,0,.3,0,.5,0,11.3,9.2,20.5,20.5,20.5s12.2-3,15.9-7.6c2.2,2.2,5.2,3.6,8.6,3.6s8.7-2.7,10.7-6.5c1.1.3,2.2.5,3.3.5,6.1,0,11-4.9,11-11s-1.5-6.3-3.8-8.3Z"/>
      <path class="cls-4" d="M43,34h-16.8c-1.8,0-3.2,1.5-3.2,3.2v31.5c0,1.8,1.5,3.2,3.2,3.2h16.8v-38Z"/>
      <path class="cls-5" d="M75.8,34h-16.8v38h16.8c1.8,0,3.2-1.5,3.2-3.2v-31.5c0-1.8-1.5-3.2-3.2-3.2Z"/>
      <path class="cls-2" d="M35.4,80h-9.9c-.3,0-.5-.2-.5-.5s.2-.5.5-.5h9.9c.3,0,.5.2.5.5s-.2.5-.5.5Z"/>
      <path class="cls-2" d="M38.5,80h-1c-.3,0-.5-.2-.5-.5s.2-.5.5-.5h1c.3,0,.5.2.5.5s-.2.5-.5.5Z"/>
      <path class="cls-2" d="M43.5,82h-9c-.3,0-.5-.2-.5-.5s.2-.5.5-.5h9c.3,0,.5.2.5.5s-.2.5-.5.5Z"/>
      <path class="cls-2" d="M32.5,82h-1c-.3,0-.5-.2-.5-.5s.2-.5.5-.5h1c.3,0,.5.2.5.5s-.2.5-.5.5Z"/>
      <path class="cls-2" d="M29.5,82h-2c-.3,0-.5-.2-.5-.5s.2-.5.5-.5h2c.3,0,.5.2.5.5s-.2.5-.5.5Z"/>
      <path class="cls-2" d="M35.5,84h-2c-.3,0-.5-.2-.5-.5s.2-.5.5-.5h2c.3,0,.5.2.5.5s-.2.5-.5.5Z"/>
      <path class="cls-2" d="M38.5,75h-1c-.3,0-.5.2-.5.5s.2.5.5.5h1c.3,0,.5-.2.5-.5s-.2-.5-.5-.5Z"/>
      <path class="cls-2" d="M38.5,77h-5c-.3,0-.5.2-.5.5s.2.5.5.5h5c.3,0,.5-.2.5-.5s-.2-.5-.5-.5Z"/>
      <path class="cls-2" d="M43.5,79h-3c-.3,0-.5.2-.5.5s.2.5.5.5h3c.3,0,.5-.2.5-.5s-.2-.5-.5-.5Z"/>
      <path class="cls-2" d="M71.5,25h-10c-.3,0-.5-.2-.5-.5s.2-.5.5-.5h10c.3,0,.5.2.5.5s-.2.5-.5.5Z"/>
      <path class="cls-2" d="M75.5,25h-2c-.3,0-.5-.2-.5-.5s.2-.5.5-.5h2c.3,0,.5.2.5.5s-.2.5-.5.5Z"/>
      <path class="cls-2" d="M80.5,27h-10c-.3,0-.5-.2-.5-.5s.2-.5.5-.5h10c.3,0,.5.2.5.5s-.2.5-.5.5Z"/>
      <path class="cls-2" d="M68.5,27h-1c-.3,0-.5-.2-.5-.5s.2-.5.5-.5h1c.3,0,.5.2.5.5s-.2.5-.5.5Z"/>
      <path class="cls-2" d="M65.4,27h-1.9c-.3,0-.5-.2-.5-.5s.2-.5.5-.5h1.9c.3,0,.5.2.5.5s-.2.5-.5.5Z"/>
      <path class="cls-2" d="M74.5,23h-5c-.3,0-.5-.2-.5-.5s.2-.5.5-.5h5c.3,0,.5.2.5.5s-.2.5-.5.5Z"/>
      <path class="cls-2" d="M71.5,29h-2c-.3,0-.5-.2-.5-.5s.2-.5.5-.5h2c.3,0,.5.2.5.5s-.2.5-.5.5Z"/>
      <path class="cls-1" d="M75.5,37.8h-5.5c-.1,0-.2-.1-.2-.2s.1-.2.2-.2h5.5c.1,0,.2.1.2.2s-.1.2-.2.2Z"/>
      <path class="cls-1" d="M75.5,68.8h-5.5c-.1,0-.2-.1-.2-.2s.1-.2.2-.2h5.5c.1,0,.2.1.2.2s-.1.2-.2.2Z"/>
      <rect class="cls-2" x="42" y="34" width="18" height="37"/>
      <path class="cls-1" d="M52,68.8h-25.5c-.1,0-.2-.1-.2-.2s.1-.2.2-.2h25.5c.1,0,.2.1.2.2s-.1.2-.2.2Z"/>
      <path class="cls-1" d="M46.5,37.8h-11.5c-.1,0-.2-.1-.2-.2s.1-.2.2-.2h11.5c.1,0,.2.1.2.2s-.1.2-.2.2Z"/>
      <path class="cls-1" d="M33,37.8h-6.5c-.1,0-.2-.1-.2-.2s.1-.2.2-.2h6.5c.1,0,.2.1.2.2s-.1.2-.2.2Z"/>
      <path class="cls-1" d="M26.5,68.8c-.1,0-.2-.1-.2-.2v-9.5c0-.1.1-.2.2-.2s.2.1.2.2v9.5c0,.1-.1.2-.2.2Z"/>
      <path class="cls-1" d="M75.5,68.8c-.1,0-.2-.1-.2-.2v-8.5c0-.1.1-.2.2-.2s.2.1.2.2v8.5c0,.1-.1.2-.2.2Z"/>
      <path class="cls-1" d="M75.5,44.8c-.1,0-.2-.1-.2-.2v-7c0-.1.1-.2.2-.2s.2.1.2.2v7c0,.1-.1.2-.2.2Z"/>
      <path class="cls-1" d="M75.5,57.8c-.1,0-.2-.1-.2-.2v-11c0-.1.1-.2.2-.2s.2.1.2.2v11c0,.1-.1.2-.2.2Z"/>
      <path class="cls-1" d="M75.8,35.4c1,0,1.8.8,1.8,1.8v31.5c0,1-.8,1.8-1.8,1.8H26.2c-1,0-1.9-.8-1.9-1.8v-31.5c0-1,.8-1.8,1.9-1.8h49.5M75.8,34H26.2c-1.8,0-3.2,1.5-3.2,3.2v31.5c0,1.8,1.5,3.2,3.2,3.2h49.5c1.8,0,3.2-1.5,3.2-3.2v-31.5c0-1.8-1.5-3.2-3.2-3.2h0Z"/>
      <g>
        <line class="cls-3" x1="26.5" y1="50" x2="26.5" y2="56.5"/>
        <path class="cls-1" d="M26.5,56.8h0c-.1,0-.2-.1-.2-.2v-6.5c0-.1.1-.2.3-.2h0c.1,0,.2.1.2.2v6.5c0,.1-.1.2-.3.2Z"/>
      </g>
      <g>
        <line class="cls-3" x1="26.5" y1="37.5" x2="26.5" y2="43.5"/>
        <path class="cls-1" d="M26.5,43.8h0c-.1,0-.2-.1-.2-.2v-6c0-.1.1-.2.3-.2h0c.1,0,.2.1.2.2v6c0,.1-.1.2-.3.2Z"/>
      </g>
      <path class="cls-1" d="M68,37.8h-18.5c-.1,0-.2-.1-.2-.2s.1-.2.2-.2h18.5c.1,0,.2.1.2.2s-.1.2-.2.2Z"/>
      <path class="cls-1" d="M68,68.8h-13c-.1,0-.2-.1-.2-.2s.1-.2.2-.2h13c.1,0,.2.1.2.2s-.1.2-.2.2Z"/>
      <path class="cls-1" d="M42.5,48c-.3,0-.5-.2-.5-.5v-13c0-.3.2-.5.5-.5s.5.2.5.5v13c0,.3-.2.5-.5.5Z"/>
      <path class="cls-1" d="M59.5,44c-.3,0-.5-.2-.5-.5v-9c0-.3.2-.5.5-.5s.5.2.5.5v9c0,.3-.2.5-.5.5Z"/>
      <path class="cls-1" d="M59.5,56c-.3,0-.5-.2-.5-.5v-9c0-.3.2-.5.5-.5s.5.2.5.5v9c0,.3-.2.5-.5.5Z"/>
      <path class="cls-1" d="M59.5,72c-.3,0-.5-.2-.5-.5v-13c0-.3.2-.5.5-.5s.5.2.5.5v13c0,.3-.2.5-.5.5Z"/>
      <path class="cls-1" d="M42.5,72c-.3,0-.5-.2-.5-.5v-21c0-.3.2-.5.5-.5s.5.2.5.5v21c0,.3-.2.5-.5.5Z"/>
    </g>
  </g>
</svg>