<?xml version="1.0" encoding="UTF-8"?>
<svg id="Layer_1" xmlns="http://www.w3.org/2000/svg" viewBox="0 0 759.55 639.14">
  <defs>
    <style>
      .cls-1 {
        fill: #242422;
      }

      .cls-2 {
        fill: #222220;
      }

      .cls-3 {
        fill: #4b5cd4;
      }

      .cls-4 {
        fill: #232321;
      }

      .cls-5 {
        fill: #8a18a6;
      }

      .cls-6 {
        fill: #02759c;
      }

      .cls-7 {
        fill: #1f1f1d;
      }

      .cls-8 {
        fill: #20201e;
      }

      .cls-9 {
        fill: #21211f;
      }
    </style>
  </defs>
  <path class="cls-5" d="M189.98,126.54c0-12.8-.14-25.59.03-38.39.35-25.93,9.7-48.05,28.94-65.62C234.82,8.05,253.62.57,275.21.39c22.49-.19,41.88,7.63,58.48,22.66.83.75,1.63,1.54,2.5,2.24.37.3.91.33,1.31-.03.84-.74,1.65-1.51,2.48-2.26,11.23-10.22,24.11-17.43,39.01-20.54,28.95-6.04,54.59.88,76.46,20.77,14.43,13.12,23.1,29.64,26.74,48.77.9,4.71,1.37,9.48,1.36,14.31-.04,17.28,0,34.55,0,51.83,0,9.28,0,18.56,0,27.83,0,1.12.04,2.24-.03,3.36-.28,4.44-3.15,7.41-7.56,7.84-.63.06-1.28.04-1.92.04-12.32,0-24.64,0-36.96,0-.8,0-1.6-.02-2.39-.11-.71-.08-1.14-.57-1.18-1.26-.08-1.43-.11-2.87-.11-4.31,0-27.51-.02-55.03,0-82.54,0-6.17-1.11-12.11-3.84-17.65-5.18-10.5-13.3-17.53-24.9-19.95-13.05-2.72-24.04,1.4-32.93,11.03-5.7,6.17-8.9,13.61-9.48,22.05-.22,3.19-.39,6.39-.4,9.58-.03,26.07-.01,52.15-.02,78.22,0,5.67.42,5.28-5.08,5.28-13.44,0-26.88,0-40.32,0-.96,0-1.92,0-2.88-.04-1.08-.05-1.82-.51-1.85-1.7-.03-1.28-.05-2.56-.05-3.84,0-27.19-.03-54.39.02-81.58.01-5.16-.34-10.25-2.16-15.1-4.7-12.56-13.24-21.1-26.58-23.88-14-2.92-25.52,1.92-34.62,12.63-5.7,6.7-8.2,14.72-8.53,23.45-.09,2.4-.05,4.8-.05,7.2,0,23.51,0,47.03,0,70.54,0,1.44.06,2.88-.05,4.32-.31,4.22-3.08,7.11-7.26,7.62-.63.08-1.28.06-1.92.05-12.48-.03-24.96-.05-37.44-.09-.64,0-1.28-.03-1.92-.07-.94-.07-1.45-.65-1.49-1.54-.07-1.44-.06-2.88-.06-4.32,0-14.88,0-29.75,0-44.63h.37Z"/>
  <path class="cls-3" d="M181.01,127.79c0,14.24,0,28.47,0,42.71,0,.96.01,1.92,0,2.88-.06,3.58-.06,3.61-3.87,3.63-5.28.03-10.56.02-15.84,0-6.4-.01-12.8-.04-19.2-.06-1.12,0-2.25.04-3.36-.08-5.01-.57-7.79-3.5-7.8-8.57-.03-13.91.06-27.83.11-41.74.04-12.96-.01-25.91.16-38.87.17-12.8-7.63-28.89-25.19-35.11-21.67-7.67-42.99,4.95-48.85,26.09-1.04,3.75-1.23,7.55-1.23,11.4,0,27.03.02,54.06,0,81.09,0,7.69.8,6.77-7.03,6.79-12.48.04-24.96.01-37.44,0-1.28,0-2.56.03-3.84-.03-1.59-.08-2.03-.49-2.13-1.96-.06-.96-.04-1.92-.04-2.88,0-27.83-.09-55.66.03-83.49.08-19.08,5.5-36.6,16.6-52.17C36.53,17.18,56.06,4.59,80.72,1.01c25.53-3.72,48.58,2.9,68.53,19.34,16.41,13.53,26.47,30.97,30.39,51.88.94,5.03,1.42,10.12,1.39,15.26-.06,13.44-.02,26.87-.02,40.31h0Z"/>
  <path class="cls-6" d="M665.66,61.64c-1.52.55-2.55.96-3.61,1.29-13.24,4.24-26.49,8.46-39.73,12.69-.91.29-1.83.59-2.74.87-1.05.32-1.88.08-2.41-.93-.67-1.27-1.28-2.58-2-3.82-7.51-13.01-22.75-23.13-42.42-19.92-16.79,2.74-30.57,16.37-33.4,32.95-4.79,27.98,17.24,48.53,39.85,48.48,11.28-.03,20.92-3.89,29.06-11.63.46-.44.94-.88,1.34-1.37.94-1.15,1.99-1.24,3.41-.83,5.53,1.58,11.1,3,16.66,4.51,8.94,2.43,17.88,4.88,26.82,7.32,1.23.34,2.47.66,3.69,1.06.68.23,1,.82.72,1.5-.36.88-.79,1.75-1.27,2.57-14.58,25.12-35.97,40.8-64.69,45.8-47.95,8.36-93.77-22.76-104.35-69.97-11.08-49.43,19.92-96.93,67.26-108.61,44.97-11.09,89.75,13.08,106.52,54.48.42,1.03.76,2.08,1.3,3.57Z"/>
  <path class="cls-8" d="M95.58,411.39c-2.62,3.97-5.24,7.93-7.86,11.9-2.64,4-5.29,8-7.93,12-2.64,4-5.27,8.01-7.93,12-2.63,3.95-5.1,8.01-8.26,12.24-10.82-16.17-21.04-31.98-31.5-47.66-1.59.59-.96,1.88-.96,2.81-.04,20.95,0,41.9-.07,62.84,0,2.49.66,5.07-.56,7.49-2.34.72-4.74.29-7.12.32-5.12.07-10.24.04-15.36,0-1.65-.01-1.92-.32-1.99-1.96-.05-1.12-.02-2.24-.02-3.36,0-35.18,0-70.36,0-105.54,0-5.86-.48-5.17,5.05-5.19,6.56-.03,13.12.07,19.67-.05,2.01-.04,3.21.6,4.26,2.32,5.75,9.41,11.6,18.76,17.42,28.12,3.37,5.43,6.75,10.86,10.14,16.28.32.52.74.98,1.3,1.7,1.26-.76,1.73-1.95,2.36-2.96,8.37-13.43,16.72-26.87,25.07-40.3.67-1.09,1.43-2.13,2.02-3.26.77-1.48,1.93-1.88,3.53-1.87,7.52.06,15.04.02,22.55.03.48,0,.96.03,1.43.1.73.11,1.11.6,1.15,1.29.07,1.12.09,2.23.09,3.35,0,35.5,0,71,0,106.5,0,5.36.32,4.82-4.98,4.83-6.08.01-12.16.02-18.23-.02-2.02-.01-2.19-.23-2.26-2.21-.04-1.28-.01-2.56-.01-3.84,0-20.95,0-41.9,0-62.85v-4.69c-.34-.13-.67-.25-1.01-.38Z"/>
  <path class="cls-8" d="M33.08,259.14c-.05,1.54-.14,3.08-.14,4.62,0,21.58,0,43.16-.01,64.74,0,6,.7,5.44-5.31,5.45-6.08.01-12.15.03-18.23,0-2.73-.02-2.83-.17-2.89-3.07-.02-.8,0-1.6,0-2.4,0-36.61-.01-73.22.01-109.82,0-5.75-.85-5.41,5.37-5.41,5.44,0,10.88.09,16.31-.04,2.16-.05,3.5.72,4.79,2.43,9.91,13.15,19.91,26.22,29.88,39.32,7.36,9.67,14.7,19.34,22.09,28.98.61.8.89,2.14,2.68,1.99.02-2.96.05-5.94.06-8.92.01-3.04,0-6.07,0-9.11v-54.22c.92-.18,1.54-.4,2.15-.41,7.2-.03,14.39-.04,21.59,0,2.24.01,2.38.22,2.45,2.52.03.96,0,1.92,0,2.88,0,36.61,0,73.22,0,109.82,0,1.28-.02,2.56-.02,3.84,0,1.23-.71,1.63-1.82,1.63-6.24,0-12.47-.04-18.71.04-1.64.02-2.66-.65-3.59-1.88-3.45-4.6-6.96-9.16-10.45-13.74-14.34-18.82-28.67-37.63-43.02-56.44-.77-1.01-1.58-2-2.38-3-.28.07-.55.14-.83.22Z"/>
  <path class="cls-8" d="M584.11,312.66c-1.9.73-2.65,2.01-3.63,2.99-6.99,7.04-15.39,10.5-25.35,10.75-21.5.53-40.4-14.44-41.96-39.13-.41-6.42-.11-12.8,1.93-18.98,5.14-15.49,15.73-24.77,31.79-27.85,5.44-1.04,10.84-.85,16.2.27,6.08,1.27,11.4,4.1,16.06,8.19,1.08.95,2.1,1.97,3.18,2.92.34.3.8.6,1.23.12.19-.21.35-.53.35-.8.04-2.56.02-5.12.08-7.68.04-1.56.37-1.88,2.06-1.89,7.36-.03,14.72-.02,22.08,0,1.65,0,1.96.36,2.03,1.94.04.96.02,1.92.02,2.88,0,21.91-.03,43.83.02,65.74.01,6.42-.47,12.78-1.99,19.03-1.26,5.16-3.29,10.01-6.42,14.35-4.68,6.47-11.05,10.54-18.51,13.04-7.67,2.57-15.62,3.23-23.65,3.33-12.8.15-25.14-2.06-36.91-7.15-1.17-.51-2.29-1.13-3.46-1.65-1.07-.47-1.44-1.18-.97-2.27.19-.44.42-.86.62-1.3,2.26-4.94,4.5-9.89,6.77-14.82.26-.56.61-1.08.87-1.52,1.43-.35,2.26.55,3.2,1.04,8.23,4.28,16.99,6.48,26.24,6.81,4.5.16,8.95-.24,13.28-1.56,7.54-2.29,12.16-7.36,14.02-14.98.92-3.75,1.14-7.55.85-11.82ZM560.44,261.62c-1.54-.07-4.04.39-6.49,1.16-8.79,2.76-14.5,10.45-14.71,19.74-.22,9.74,5.04,17.51,14,20.68,5.46,1.93,10.96,1.99,16.44.13,6.8-2.3,11.52-6.77,13.6-13.7,3.56-11.89-2.71-24.29-15.61-27.32-2.05-.48-4.09-.62-7.22-.69Z"/>
  <path class="cls-8" d="M727.93,323.26c-1.52.48-2.61,1.68-3.89,2.58-10.03,7.02-21.09,10.51-33.39,9.76-6.46-.4-12.68-1.82-18.38-4.93-11.02-6.02-16.85-15.29-17.15-27.94-.29-12.2,4.75-21.62,14.79-28.42,2.24-1.52,4.64-2.8,7.1-4.28-.18-1.62-1.34-2.77-2.1-4.09-3.48-6.08-5.55-12.52-5.39-19.62.24-10.17,4.55-18.15,12.83-23.95,7.24-5.07,15.5-6.63,24.15-6.31,3.99.15,7.9.9,11.72,2.27,10.06,3.6,19.32,13.16,19.03,27.67-.2,9.64-4.11,17.24-11.7,23.06-3.58,2.74-7.59,4.7-11.61,6.5-.18.8.08,1.32.57,1.8,4.08,4.06,8.13,8.15,12.22,12.2,1.38,1.36,1.79,1.32,2.84-.48,2.67-4.55,5.26-9.14,7.87-13.72.55-.97.99-2.01,1.59-2.95.34-.53.89-.88,1.62-.47,5.46,3,10.93,5.98,16.4,8.99,1.13.62.9,1.45.37,2.4-3.66,6.56-7.45,13.04-11.72,19.24-.8,1.16-1.94,2.15-2.18,3.97,5.3,5.3,10.71,10.72,16.02,16.04.1,1.44-.97,1.76-1.7,2.28-4.83,3.42-9.68,6.8-14.55,10.16-1.83,1.26-1.94,1.24-3.62-.42-2.95-2.93-5.84-5.92-8.78-8.86-.89-.89-1.64-1.98-2.96-2.48ZM713.51,308.14c-1.46-1.55-2.52-2.72-3.62-3.85-5.03-5.11-10.04-10.23-15.11-15.3-3.66-3.66-2.76-4.11-7.61-.39-1.37,1.05-2.58,2.4-3.59,3.8-4.61,6.36-4.2,17.97,7.34,21.41,1.21.36,2.47.62,3.73.75,7.08.71,13.09-1.81,18.87-6.42ZM714.94,247.52c.19-3.93-.83-7.38-4.22-9.65-6.03-4.04-15.38-1.73-17.33,6.24-.58,2.39-.67,4.72-.18,7.1.8,3.88,2.96,7.02,5.45,9.98.7.83,1.58.94,2.58.55,3.29-1.29,6.45-2.82,9.15-5.13,2.78-2.39,4.54-5.33,4.54-9.1Z"/>
  <path class="cls-9" d="M309.91,448.66c1.41-.92,1.46-2.1,1.78-3.15,4.43-14.34,8.88-28.69,13.32-43.03.43-1.37.8-2.76,1.26-4.12.7-2.05.89-2.21,3.06-2.22,6.39-.03,12.78-.01,19.38-.01,1.86,5.98,3.67,11.75,5.46,17.52,1.85,5.95,3.62,11.92,5.57,17.84,1.89,5.71,3.26,11.6,5.97,18.03.67-2.28,1.12-3.7,1.51-5.14,3.95-14.65,7.88-29.31,11.83-43.96,1.06-3.94,1.09-3.96,5.08-3.97,6.24-.02,12.48-.02,18.72.02,1.9.01,2.26.53,1.69,2.4-1.82,5.96-3.7,11.9-5.54,17.85-6.75,21.82-13.49,43.65-20.24,65.46-.38,1.21-.85,2.4-1.27,3.59-2.14.59-4.23.3-6.29.32-4.48.05-8.96.04-13.44,0-2.85-.02-2.95-.06-3.76-2.6-1.7-5.33-3.33-10.67-5-16.01-3.58-11.43-7.16-22.86-10.82-34.52-1.18.64-1.36,1.67-1.67,2.64-4.8,15.07-9.55,30.15-14.44,45.19-2.02,6.21-.68,5.24-7.06,5.3-4.96.05-9.92.03-14.88,0-2.12-.02-2.33-.18-2.99-2.32-3.71-12.06-7.4-24.13-11.09-36.2-4.76-15.58-9.51-31.17-14.26-46.75-.33-1.07-.66-2.14-.87-3.24-.08-.44.26-.92.79-1.02.46-.09.95-.11,1.42-.11,6.72,0,13.44-.03,20.16,0,2.72.01,2.78.05,3.53,2.84,2.71,10.19,5.37,20.39,8.06,30.58,1.63,6.17,3.29,12.34,5.01,18.78Z"/>
  <path class="cls-9" d="M240.17,485.37c-.1-4.11-.19-7.58-.28-11.27-1.83.43-2.45,1.84-3.37,2.8-4.57,4.71-9.94,8.15-16.42,9.29-16.32,2.85-29.57-2.46-39.54-15.68-4.31-5.72-6.75-12.34-7.79-19.37-1.52-10.24-1.23-20.44,2.6-30.22,5.19-13.23,14.48-22.11,28.59-25.1,12.49-2.65,23.81-.19,33.18,9.01.57.56,1.15,1.11,1.74,1.64.08.07.28,0,.54-.02.99-.78.59-1.96.59-2.99.03-11.03.02-22.05.02-33.08,0-1.28-.03-2.56.02-3.83.08-1.87.35-2.16,2.32-2.17,6.87-.03,13.75-.03,20.62,0,1.98,0,2.25.32,2.33,2.16.04.96.01,1.92.01,2.88,0,36.91,0,73.82,0,110.73,0,5.7.58,5.2-5.06,5.21-5.27.01-10.55,0-15.82,0h-4.26ZM197.26,440.61c-.13,5.25.92,10.05,3.58,14.39,4.26,6.95,10.42,10.69,18.7,10.44,8.11-.24,14.03-4.26,17.67-11.29,4.47-8.65,4.48-17.64.1-26.3-3.75-7.43-10.06-11.57-18.52-11.52-8.41.05-14.59,4.16-18.56,11.51-2.17,4.01-3.11,8.37-2.97,12.76Z"/>
  <path class="cls-8" d="M92.14,553.76c-3.31-2.45-6.05-4.66-8.97-6.59-7-4.63-14.7-6.88-23.14-6.46-10.01.49-18.15,4.69-24.4,12.46-11.23,13.99-11.02,36.09.54,49.78,8.22,9.74,18.91,13.17,31.37,11.57,7.86-1.01,14.53-4.6,20.63-9.49,1.56-1.25,2.73-3.15,4.97-3.45,1.38,1.32,2.79,2.62,4.14,3.97,3.61,3.62,7.22,7.26,10.79,10.91,1.17,1.2,1.16,1.55-.02,2.78-9.92,10.39-21.7,17.15-36.16,19-11.29,1.44-22.39.98-33.05-3.17-20.33-7.93-32.82-22.77-37.37-44.03-2.7-12.63-1.78-25.19,3.23-37.17,7.95-19.03,22.18-31,42.21-35.65,12.68-2.94,25.41-2.26,37.89,1.66,8.55,2.69,15.87,7.44,22.34,13.57,1.23,1.17,1.27,1.55.2,2.79-5.01,5.8-10.04,11.58-15.21,17.54Z"/>
  <path class="cls-2" d="M417.35,333.31v-4.16c0-27.51,0-55.02,0-82.53,0-.96-.02-1.92.02-2.88.08-1.86.35-2.17,2.32-2.17,7.36-.03,14.72-.03,22.08,0,1.57,0,1.96.42,2,2.01.06,2.4,0,4.8.05,7.2.02.72-.32,1.6.79,2.25,1.15-.69,1.9-1.91,2.85-2.9,9.45-9.91,20.86-12.43,33.81-8.85,8.4,2.32,14.17,7.72,17.69,15.64,2.31,5.22,3.17,10.73,3.19,16.36.07,19.35.03,38.71.03,58.06,0,.48-.03.96-.09,1.43-.09.74-.58,1.11-1.29,1.13-1.28.04-2.56.06-3.84.06-6.4,0-12.8.02-19.2-.02-1.61,0-1.9-.35-1.92-2.01-.04-3.36-.02-6.72-.02-10.08,0-12.96,0-25.91,0-38.87,0-2.24-.01-4.47-.49-6.68-2.51-11.68-11.26-13.47-18.46-12.39-7.06,1.06-11.74,6.14-12.74,13.66-.3,2.21-.32,4.47-.32,6.7-.03,14.71-.01,29.43-.02,44.14,0,1.28-.03,2.56-.02,3.84,0,1.23-.71,1.69-1.81,1.68-7.84-.02-15.68-.05-23.51-.1-.28,0-.56-.27-1.1-.54Z"/>
  <path class="cls-8" d="M157.93,544.62c14.18.02,26.15,4.19,35.85,13.77,10.8,10.67,15.03,23.75,13.48,38.83-2.02,19.63-17.32,37.06-39.23,40.87-11.7,2.04-22.91.66-33.52-4.8-16.66-8.57-26.08-25.88-24.94-44.57,1.23-20.07,15.88-38.47,38.08-42.97,1.56-.32,3.13-.64,4.72-.8,2.06-.2,4.15-.25,5.57-.32ZM182.08,592.24c.18-5.81-1.4-10.92-4.57-15.53-9.32-13.55-29.93-12.93-38.41.01-6.1,9.31-5.59,22.8,1.5,31.42,5.77,7.01,13.36,9.7,22.24,8.25,9.23-1.5,15.12-7.08,18.08-15.85.93-2.75,1.27-5.6,1.17-8.31Z"/>
  <path class="cls-7" d="M187.71,322.31c-1.09,1.14-2.18,2.27-3.25,3.42-10.46,11.16-24.57,12.07-36.18,7.62-9.8-3.76-14.94-11.59-17.17-21.53-.74-3.28-1.06-6.62-1.05-9.99.02-18.87,0-37.73.01-56.6,0-.8.02-1.6.08-2.39.05-.72.47-1.15,1.21-1.2.64-.04,1.28-.07,1.92-.07,6.56,0,13.11.02,19.67-.01,3.36-.01,3.35.1,3.33,3.55-.01,2.24,0,4.48,0,6.71,0,13.27.02,26.54-.02,39.81,0,2.74.23,5.44.79,8.1,1.57,7.6,6.78,11.9,14.5,12.05.96.02,1.92.01,2.88-.08,5.93-.58,10.14-3.56,12.42-9.11,1.36-3.31,1.73-6.77,1.73-10.33-.03-15.03-.03-30.06,0-45.08.01-6.49-.77-5.55,5.56-5.6,5.6-.05,11.19,0,16.79-.01,4.01-.01,3.82-.1,3.81,4.02,0,.32,0,.64,0,.96,0,27.5,0,55,0,82.5,0,.96.02,1.92-.01,2.88-.06,1.67-.33,2-1.91,2.01-4.8.04-9.6.03-14.39.03-2.72,0-5.44-.02-8.16-.01-1.21,0-1.7-.6-1.69-1.77.02-3.16,0-6.32,0-9.48-.29-.12-.57-.25-.86-.37Z"/>
  <path class="cls-9" d="M271.73,625.65c-1.18.7-1.93,1.92-2.87,2.9-9.65,10.15-21.35,12.33-34.28,8.26-9.83-3.09-15.36-10.47-17.95-20.21-.91-3.41-1.28-6.91-1.28-10.44-.01-19.02-.02-38.04-.02-57.06,0-.64-.02-1.29.13-1.91.1-.42.36-.89.96-.92.48-.02.95-.1,1.43-.1,6.87,0,13.75-.03,20.62,0,2.23.01,2.53.3,2.55,2.47.05,4.47.02,8.95.02,13.42,0,10.55-.03,21.1.02,31.64.02,2.87.05,5.78.52,8.6.94,5.71,3.67,10.25,9.57,12.05,4.08,1.25,8.23,1.16,12.21-.46,5.44-2.22,7.92-6.73,8.79-12.23.35-2.19.33-4.46.33-6.69.03-14.86.02-29.73,0-44.59,0-4.2-.12-4.26,4.18-4.24,6.39.03,12.79,0,19.18.03,2.19.01,2.38.27,2.46,2.53.02.64,0,1.28,0,1.92,0,27.33,0,54.66,0,81.99,0,4.74.21,4.35-4.45,4.35-5.6,0-11.19,0-16.79,0-.96,0-1.92,0-2.88-.02-1.18-.03-1.7-.71-1.7-1.84-.01-2.24.02-4.48-.04-6.71-.02-.88.33-1.88-.74-2.76Z"/>
  <path class="cls-9" d="M335.93,557.36c1.63-1.53,3.18-2.91,4.65-4.37,11.15-11.07,27.88-9.71,37-4.73,7.35,4.02,11.46,10.45,13.57,18.34.87,3.25,1.26,6.59,1.26,9.96,0,19.03,0,38.05,0,57.08,0,.64,0,1.28-.06,1.91-.07.94-.63,1.38-1.55,1.41-.16,0-.32.02-.48.02-7.2,0-14.39.01-21.59-.01-1.58,0-1.97-.42-2.04-1.98-.06-1.28-.02-2.56-.02-3.84,0-14.23.01-28.46-.01-42.69,0-2.23-.14-4.47-.3-6.7-.16-2.26-.85-4.41-1.94-6.37-.69-1.24-1.53-2.45-2.51-3.48-5.66-5.89-20.07-5.83-24.61,4.15-.93,2.05-1.66,4.15-1.79,6.42-.13,2.23-.26,4.47-.26,6.71-.02,13.91-.01,27.82-.01,41.73,0,.96.02,1.92,0,2.88-.07,3.11-.09,3.17-3.27,3.18-6.88.02-13.75,0-20.63,0-1.16,0-1.8-.5-1.82-1.68-.02-1.12-.02-2.24-.02-3.36,0-26.86,0-53.72,0-80.58,0-5.7-.5-5.17,5.11-5.18,5.44-.02,10.88.02,16.31-.01,4.32-.02,4.38,0,4.33,4.12-.02,1.76-.02,3.52.02,5.28.01.59-.13,1.27.69,1.79Z"/>
  <path class="cls-9" d="M529.66,450.07c-.43,1-.13,1.92.19,2.82,2.78,7.8,8.4,13.25,18.66,14.09,7.11.58,13.62-1.23,19.37-5.55,1.4-1.05,2.77-2.13,4.22-3.24.61.42,1.17.72,1.63,1.13,4.18,3.7,8.35,7.41,12.39,10.99,0,1.37-.81,1.98-1.45,2.67-7.81,8.55-17.63,13.06-29.04,14.12-8.72.82-17.28-.13-25.34-3.74-14.73-6.59-23.2-18.03-25.81-33.88-1.65-10.04-.49-19.77,3.76-29.02,6.14-13.37,16.35-21.89,30.88-24.75,8.96-1.77,17.84-1.09,26.36,2.41,8.12,3.34,14.25,9.01,18.62,16.59,4.15,7.19,6.19,15.04,6.76,23.26.23,3.34.04,6.71,0,10.06-.01,1.16-.71,1.71-1.83,1.73-1.28.02-2.56.02-3.84.02-16.95,0-33.89,0-50.84.01-1.58,0-3.19-.26-4.71.28ZM528.9,433.32c1.5.89,2.97.56,4.38.56,9.41.03,18.82.04,28.24,0,4.49-.02,5.78.99,3.71-5.36-.7-2.14-1.66-4.12-2.92-5.99-6.35-9.46-20.2-9.35-26.9-2.58-3.7,3.74-5.82,8.22-6.51,13.37Z"/>
  <path class="cls-9" d="M708.47,455.44c1.39-.73,1.39-2.11,1.76-3.28,5.38-16.72,10.71-33.46,16.14-50.17,2.1-6.47.73-5.47,7.37-5.53,5.6-.05,11.2-.03,16.8,0,1.07,0,2.22-.35,3.27.53.31,1.3-.52,2.4-.94,3.54-10.79,28.87-21.62,57.74-32.49,86.58-1.24,3.28-2.71,6.48-4.26,9.63-.98,2-2.21,3.89-3.51,5.71-3.93,5.5-9.33,8.74-16,9.54-8.93,1.07-17.55-.14-25.57-4.48-2.35-1.27-2.4-1.32-1.36-3.59,2.39-5.2,4.83-10.39,7.21-15.5,1.81.03,2.97.96,4.28,1.49,2.72,1.09,5.51,1.57,8.45,1.33,2.22-.18,3.94-1.16,5.32-2.86,1.29-1.59,1.65-3.08.79-5.23-6.05-15.12-11.91-30.33-17.84-45.5-4.82-12.35-9.64-24.7-14.47-37.04-.46-1.16-.88-2.33-1.19-3.3.82-1.05,1.67-.83,2.42-.84,7.04-.02,14.08-.03,21.12,0,2.78.01,2.84.04,3.73,2.68,3.67,10.9,7.29,21.81,10.94,32.72,2.43,7.27,4.87,14.53,7.32,21.8.2.6.47,1.18.71,1.78Z"/>
  <path class="cls-8" d="M352.31,268.54c-1.45-.2-2.57-1.16-3.84-1.79-4.59-2.28-9.27-4.3-14.28-5.49-3.14-.74-6.31-.94-9.52-.58-1.8.2-3.42.85-4.78,2.02-2.3,1.98-2.47,5.47-.4,7.69,1.57,1.68,3.58,2.7,5.66,3.5,3.87,1.49,7.81,2.81,11.72,4.19,4.07,1.43,8.14,2.85,11.99,4.81,3.29,1.68,6.39,3.63,9.04,6.23,4.18,4.1,6.52,9.03,6.66,14.92.08,3.52,0,7-.93,10.46-1.95,7.37-6.28,12.79-12.92,16.46-4.55,2.52-9.49,3.9-14.59,4.4-16.79,1.64-31.96-2.73-45.46-12.84-.24-.18-.39-.5-.6-.79.04-1.34,1-2.27,1.66-3.31,2.49-3.91,5.02-7.78,7.57-11.65,1.48-2.25,1.54-2.27,3.66-.87,3.21,2.11,6.52,4.05,10.05,5.57,5.77,2.48,11.72,4.2,18.1,3.99,1.95-.06,3.82-.39,5.62-1.08,2.44-.93,3.98-2.71,4.24-5.33.24-2.47-1.03-4.27-3.05-5.57-1.75-1.13-3.64-1.98-5.64-2.6-3.97-1.22-7.93-2.46-11.89-3.68-3.51-1.08-6.98-2.29-10.29-3.9-2.89-1.4-5.6-3.07-8.01-5.21-4.51-4-7.1-9.05-7.66-15-1.52-16.08,7.17-26.29,19.31-30.61,6.79-2.41,13.77-2.68,20.83-1.92,9.52,1.03,18.32,4.22,26.46,9.24.87.53,1.59,1.1.94,2.27-2.96,5.3-5.9,10.6-8.87,15.89-.14.25-.5.37-.78.57Z"/>
  <path class="cls-8" d="M469.45,607.22c5.02,4.98,9.92,9.93,14.91,15.09-5.81,6.76-12.5,11.8-20.81,14.34-10.51,3.21-21.18,3.49-31.6-.15-17.9-6.25-28.39-18.96-31.24-37.72-1.99-13.09.96-25.15,8.93-35.74,8.45-11.23,19.96-17.18,33.93-18.25,6.89-.53,13.73-.08,20.41,1.95,7.84,2.38,14.36,6.71,19.94,13.12-5.25,5.64-10.33,11.11-15.6,16.78-1.5-1.33-2.78-2.49-4.1-3.61-4.8-4.1-10.28-6.28-16.67-6.2-6.88.08-12.35,2.93-16.54,8.26-7.07,9-7.22,23.55-.43,32.75,5.99,8.13,16.64,11.06,26.65,7.38,3.04-1.12,5.74-2.79,8.25-4.79,1.24-.99,2.47-2,3.96-3.21Z"/>
  <path class="cls-8" d="M503.56,386.35c-2.03-.47-3.74-.84-5.43-1.26-2.51-.62-5.07-.71-7.62-.47-4.16.39-6.62,2.87-7.19,7.04-.04.32-.08.63-.1.95-.2,5.36-.3,4.77,4.4,4.79,4.48.02,8.95-.03,13.43.03,2.19.03,2.4.26,2.41,2.59.03,5.27.03,10.55,0,15.82-.01,2-.26,2.26-2.2,2.28-4.16.04-8.31.02-12.47.02-1.28,0-2.56,0-3.83.04-.92.02-1.48.49-1.5,1.44-.04,1.28-.05,2.56-.05,3.83,0,18.86,0,37.71,0,56.57,0,1.28-.01,2.56-.05,3.83-.03.94-.58,1.4-1.5,1.47-.16.01-.32.03-.48.03-7.03,0-14.07.02-21.1,0-1.65,0-1.95-.34-2.02-1.93-.05-1.28-.02-2.56-.02-3.83,0-18.7,0-37.39,0-56.09,0-1.28-.01-2.56-.06-3.83-.03-.95-.61-1.46-1.52-1.48-2.24-.05-4.48,0-6.71-.06-1.94-.04-2.13-.21-2.14-2.3-.04-5.43-.04-10.87,0-16.3.01-1.91.34-2.19,2.25-2.24,2.08-.05,4.16,0,6.23-.05,1.48-.04,1.89-.48,1.93-2.07.06-2.08.01-4.15.07-6.23.07-2.56.38-5.08,1-7.58,2.3-9.25,7.92-15.18,17.32-17.14,8.43-1.76,16.83-1.26,25.14.95.99.26,1.81.6,1.81,1.82,0,6.38,0,12.75,0,19.35Z"/>
  <path class="cls-7" d="M255.86,257.91c.87-1.46,1.74-2.92,2.63-4.37,3.52-5.77,8.17-10.19,14.75-12.29,3.22-1.03,6.5-1.61,9.89-1.49.93.03,1.46.54,1.51,1.47.05.8.06,1.59.06,2.39,0,6.71,0,13.42,0,20.13,0,3.57.04,3.67-3.76,3.66-2.26,0-4.44.43-6.61,1.01-7.23,1.93-12.44,6.27-15.63,13.04-2.71,5.76-3.51,11.92-3.57,18.18-.09,9.26-.03,18.53-.03,27.79,0,1.12.01,2.24,0,3.35-.04,3.11-.05,3.15-3.19,3.16-6.87.02-13.74.02-20.61,0-2.18-.01-2.32-.2-2.38-2.52-.02-.96,0-1.92,0-2.87,0-27.15,0-54.31,0-81.46,0-1.28.01-2.56.01-3.83,0-1.21.67-1.68,1.81-1.67,7.51,0,15.02-.01,22.53.01,1.51,0,1.8.35,1.81,2.14.03,4.63.01,9.26.01,13.89l.76.3Z"/>
  <path class="cls-9" d="M555.41,575.59c0,18.71.01,37.42,0,56.14,0,5.96.63,5.23-5.47,5.26-6.08.03-12.16.02-18.24-.02-1.71-.01-2.01-.33-2.08-1.9-.05-1.12-.02-2.24-.02-3.36,0-37.58,0-75.17,0-112.75,0-1.28,0-2.56.02-3.84.02-1.2.75-1.68,1.86-1.68,7.36,0,14.72,0,22.08,0,1.14,0,1.81.53,1.83,1.71.03,1.28.02,2.56.02,3.84,0,18.87,0,37.74,0,56.62Z"/>
  <path class="cls-8" d="M627.43,411.87c1.46-2.27,2.8-4.63,4.42-6.78,5.27-7.01,12.39-10.34,21.14-10.18,1.56.03,2.05.45,2.05,1.95.01,7.67-.01,15.34-.05,23.01,0,.29-.22.59-.38.99-2.45.33-4.98.59-7.47,1.03-8.77,1.55-14.69,6.58-17.89,14.85-1.93,4.99-2.61,10.2-2.62,15.5-.03,9.59-.01,19.18,0,28.77,0,4.73.26,4.34-4.44,4.34-6.24,0-12.47.01-18.71-.02-1.64,0-1.95-.35-2.01-1.93-.05-1.12-.02-2.24-.02-3.36,0-26.05,0-52.1,0-78.16,0-1.12-.03-2.24.02-3.36.07-1.65.4-2.01,1.94-2.07,1.12-.05,2.24-.02,3.36-.02,5.44,0,10.87-.02,16.31,0,3.51.02,3.53.05,3.56,3.36.03,3.2,0,6.39,0,9.59,0,.75,0,1.5,0,2.25.27.07.54.14.81.21Z"/>
  <path class="cls-4" d="M375.97,333.55c0-1.58,0-2.85,0-4.12,0-27.65,0-55.3,0-82.95,0-1.12,0-2.24.04-3.35.03-.92.51-1.49,1.45-1.52,1.6-.05,3.2-.06,4.79-.06,6.07,0,12.15.01,18.22,0,1.16,0,1.78.54,1.81,1.7.04,1.12.05,2.24.05,3.35,0,27.49,0,54.98,0,82.47,0,1.28-.07,2.55-.11,3.83-.02.58-.49.82-.92.94-.45.13-.95.11-1.43.11-7.35,0-14.71,0-22.06-.03-.46,0-.92-.19-1.84-.38Z"/>
  <path class="cls-2" d="M490.37,591.37c0-13.25,0-26.51,0-39.76,0-1.28-.02-2.56.03-3.83.04-.92.59-1.45,1.5-1.53.79-.07,1.59-.07,2.39-.07,6.07,0,12.14,0,18.21,0,.8,0,1.6,0,2.39.09.69.08,1.14.56,1.2,1.25.07.95.07,1.91.07,2.87,0,27.47,0,54.93,0,82.4,0,4.5.14,4.2-4.12,4.2-6.39,0-12.78.02-19.17-.01-2.23-.01-2.49-.26-2.5-2.48-.03-9.58-.02-19.16-.02-28.74,0-4.79,0-9.58,0-14.37Z"/>
  <path class="cls-1" d="M160.68,440.49c0,13.27,0,26.53,0,39.8,0,1.28-.02,2.56-.1,3.83-.05.72-.56,1.1-1.25,1.18-.47.06-.95.08-1.43.08-6.71,0-13.43.02-20.14,0-2.2-.01-2.4-.27-2.48-2.52-.03-.96-.01-1.92-.01-2.88,0-26.05,0-52.1,0-78.15,0-5.89-.48-5.37,5.44-5.38,5.28,0,10.55,0,15.83,0,.96,0,1.92.03,2.87.13.7.07,1.16.55,1.2,1.25.07,1.27.09,2.55.09,3.83,0,12.95,0,25.89,0,38.84Z"/>
  <path class="cls-1" d="M411.53,440.7c0-12.94,0-25.89,0-38.83,0-1.28-.01-2.56.03-3.83.03-.92.57-1.43,1.49-1.53.32-.03.64-.06.95-.06,6.87,0,13.75-.02,20.62.01,1.91,0,2.18.34,2.26,2.28.04.96.02,1.92.02,2.88,0,26.21,0,52.41,0,78.62,0,5.81.37,5.13-5.13,5.15-5.91.02-11.83.03-17.74,0-2.22-.01-2.48-.27-2.49-2.48-.03-10.39-.02-20.77-.02-31.16,0-3.68,0-7.35,0-11.03Z"/>
  <path class="cls-4" d="M402.78,230.77c-.82.69-1.63.63-2.42.63-7.33,0-14.65,0-21.98,0-.48,0-.96,0-1.43-.04-1.17-.08-1.64-.77-1.64-1.88,0-.48-.02-.96-.02-1.43,0-5.57-.02-11.15,0-16.72.02-3.24.06-3.28,3.13-3.3,5.1-.03,10.19-.01,15.29,0,2.55,0,5.1.02,7.64.03.92,0,1.47.48,1.54,1.41.06.79.06,1.59.06,2.38,0,5.41.01,10.83,0,16.24,0,.94-.13,1.88-.18,2.67Z"/>
  <path class="cls-4" d="M490.19,535.99c-.71-4.73-.59-19.05.23-22.58,2.47,0,5,0,7.54,0,5.58,0,11.15-.01,16.73.02,1.68.01,2.21.43,2.21,1.79.03,6.53,0,13.06-.01,19.59,0,.95-.59,1.43-1.49,1.48-.95.06-1.91.04-2.86.04-6.21,0-12.42.01-18.64,0-1.25,0-2.53.23-3.7-.33Z"/>
  <path class="cls-4" d="M411.51,364.58c.56-.07,1.18-.2,1.8-.21,7.19-.02,14.38-.03,21.57,0,2.43,0,2.58.14,2.6,2.31.03,6.53.01,13.06.01,19.69-.89.15-1.5.35-2.1.35-7.35.02-14.7.02-22.05.02-.32,0-.64-.02-.96-.04-.96-.06-1.43-.6-1.43-1.53.02-6.55.04-13.09.09-19.64,0-.28.27-.56.47-.96Z"/>
  <path class="cls-7" d="M147.93,386.72c-3.83,0-7.65,0-11.48,0-1.2,0-1.7-.59-1.7-1.75.01-6.22-.01-12.43.02-18.65,0-1.58.36-1.92,2-1.92,7.49-.03,14.99-.03,22.48,0,1.64,0,1.93.3,1.94,2.01.03,6.22,0,12.43.01,18.65,0,1.22-.65,1.67-1.79,1.67-3.83,0-7.65,0-11.48,0Z"/>
</svg>