<svg width="400" height="234" xmlns="http://www.w3.org/2000/svg">
  <path d="M0 232.213h5.512V0H0Zm0 0" fill="#7f358a"/>
  <path d="M62.534 48.05c.029.03.057.067.057.105a.13.13 0 0 1-.133.133.13.13 0 0 1-.133-.133v.133c0 .171.133.314.295.314a.316.316 0 0 0 .313-.314.315.315 0 0 0-.313-.304s-.01.01-.02.01zm0 1.702c.029-.029.057-.067.057-.105a.13.13 0 0 0-.133-.133c-.076 0-.133.057-.133.124v-.124c0-.171.133-.304.295-.304.17 0 .313.133.313.304a.315.315 0 0 1-.313.304s-.01-.01-.02-.01zm.59-.77v-.152l-.495-.238v.618zm-.989-.665h.513v1.188h-.513Zm-1.568.58v-.542l.637.275.01.266.01.057.18-.095-.161.152.038.029-.076.114-.637.285zm12.63-.846a.152.152 0 0 0-.047.104.13.13 0 0 0 .133.133.13.13 0 0 0 .133-.133v.133a.308.308 0 0 1-.304.314.315.315 0 0 1-.304-.314c0-.161.142-.304.304-.304.01 0 .02.01.028.01zm0 1.7a.152.152 0 0 1-.047-.104.13.13 0 0 1 .133-.133c.076 0 .133.057.133.124v-.124a.3.3 0 0 0-.304-.304.306.306 0 0 0-.304.304c0 .162.142.304.304.304.01 0 .02-.01.028-.01zm-.589-.77v-.151l.504-.238v.618zm.998-.664h-.513v1.188h.513zm1.568.58v-.542l-.637.275-.01.266-.01.057-.19-.095.162.152-.029.029.076.114.637.285zm-6.462 6.215a.136.136 0 0 0-.105-.048.143.143 0 0 0-.133.133.13.13 0 0 0 .133.134h-.133a.3.3 0 0 1-.304-.305.3.3 0 0 1 .304-.304.3.3 0 0 1 .304.304v.029zm-1.692 0a.117.117 0 0 1 .095-.048c.076 0 .143.067.143.133a.13.13 0 0 1-.134.134h.134a.3.3 0 0 0 .304-.305.3.3 0 0 0-.304-.304.3.3 0 0 0-.305.304v.029zm.77-.58h.152l.228.494h-.609zm-.523.998h1.188v-.523h-1.188zm.599 1.578h.541l-.275-.647-.257-.01h-.066l.104-.18-.152.152-.028-.038-.124.086-.275.636zM67.02 42.69c.02.029.057.057.095.057.076 0 .133-.066.133-.142 0-.067-.057-.124-.124-.133h.134c.17 0 .304.142.304.304a.308.308 0 0 1-.304.313.308.308 0 0 1-.305-.313v-.02zm1.692 0c-.029.029-.057.057-.105.057-.076 0-.133-.066-.133-.142 0-.067.057-.124.133-.133h-.133a.306.306 0 0 0-.304.304c0 .17.133.313.304.313a.315.315 0 0 0 .304-.313v-.02zm-.77.59h-.152l-.228-.504h.608zm.503-1.017h-1.188v.523h1.188zm6.301-.532a.18.18 0 0 1 .18-.18c.106 0 .19.075.19.18a.164.164 0 0 1-.085.142v.067c.048.01.086.028.133.028a.424.424 0 0 0 0-.846.416.416 0 0 0-.418.418v.2zm-.608-.6c.105 0 .19-.085.19-.18a.19.19 0 0 0-.19-.19.18.18 0 0 0-.142.076h-.057a.257.257 0 0 1-.029-.123c0-.238.19-.428.428-.428a.424.424 0 0 1 0 .846h-.2m.4.095.094.095-.01.257.552-.076-.01-.37.399-.742-.095-.095-.713.408h-.418v.59l.209-.076m.19 14.854c0 .104.086.19.181.19a.19.19 0 0 0 .19-.19.168.168 0 0 0-.076-.143v-.066a.459.459 0 0 1 .124-.02c.228 0 .418.19.418.418 0 .238-.19.419-.418.419a.416.416 0 0 1-.418-.419v-.19m-.6.6c.105 0 .181.085.181.19a.18.18 0 0 1-.18.18.168.168 0 0 1-.143-.076h-.066a.422.422 0 0 0 .399.551.424.424 0 0 0 0-.846l-.2.01s0-.01.01-.01m.4-.095.094-.095-.02-.256.552.085-.01.361.4.742-.096.095-.703-.409h-.418v-.59l.199.086m-13.542-.522a.19.19 0 0 1-.19.19c-.105 0-.18-.086-.18-.19 0-.057.028-.115.075-.143v-.066a.422.422 0 0 0-.551.399c0 .237.19.417.418.417.238 0 .428-.18.428-.418v-.19m.599.6a.19.19 0 0 0-.19.19c0 .094.085.18.19.18a.168.168 0 0 0 .142-.076h.067a.422.422 0 0 1-.399.551.424.424 0 0 1 0-.846l.19.01v-.01m-.4-.095-.094-.095.01-.257-.542.086v.361l-.4.742.096.095.713-.409h.418v-.59l-.2.086m-.2-14.864c0-.104-.085-.18-.19-.18a.175.175 0 0 0-.18.18c0 .067.028.114.076.143v.066c-.038.01-.086.029-.133.029a.424.424 0 0 1 0-.846c.238 0 .427.19.427.418v.2-.01m.6-.599c-.105 0-.19-.085-.19-.18a.19.19 0 0 1 .19-.19c.056 0 .113.028.142.076h.067a.424.424 0 0 0-.399-.551.424.424 0 0 0 0 .845h.19m-.4.095-.095.096.01.256-.542-.076v-.37l-.399-.742.095-.095.713.409h.418v.59l-.2-.077m6.681-.513h-.541l.275.646h.257l.066.01-.104.18.152-.152.028.029.124-.076.276-.637zM79.498 23.13a3.578 3.578 0 0 0-3.411-2.49 3.594 3.594 0 0 0-3.042 1.683 3.603 3.603 0 0 0-2.518-2.025 3.578 3.578 0 0 0-3.858 1.73 3.603 3.603 0 0 0-3.118-1.806c-.095 0-.18 0-.275.01.076-.447.161-.884.275-1.33 2.69.36 5.199-.656 7.632-1.645 1.853-.75 3.611-1.473 5.274-1.473.666 0 2.158.361 3.051 1.74.865 1.34.855 3.26-.01 5.607m-18.76-6.016a2.128 2.128 0 0 0-1.464-.58c-.55 0-1.055.21-1.425.561-.01-.028-.01-.066-.01-.095 0-.798.646-1.444 1.454-1.444.798 0 1.444.646 1.444 1.444v.114m-.095 2.044a2.108 2.108 0 0 0-2.737 0 1.684 1.684 0 0 1-.076-.495c0-.798.647-1.444 1.445-1.444a1.446 1.446 0 0 1 1.368 1.939m-1.368 3.079a1.446 1.446 0 0 1-1.445-1.454c0-.799.647-1.445 1.445-1.445.808 0 1.454.646 1.454 1.445 0 .808-.646 1.454-1.454 1.454m0-8.069c.741 0 1.35.551 1.444 1.274a2.109 2.109 0 0 0-1.444-.561c-.551 0-1.055.209-1.435.56a1.44 1.44 0 0 1 1.435-1.273m0-1.368c.732 0 1.34.541 1.435 1.245a2.148 2.148 0 0 0-1.435-.561c-.551 0-1.055.218-1.435.56a1.454 1.454 0 0 1 1.435-1.244m-4.258 7.422c-1.34 0-2.5.732-3.117 1.806a3.585 3.585 0 0 0-6.377.294 3.573 3.573 0 0 0-3.041-1.682 3.595 3.595 0 0 0-3.421 2.5c-.865-2.348-.865-4.277 0-5.617.883-1.378 2.385-1.74 3.04-1.74 1.673 0 3.422.723 5.285 1.474 2.423.988 4.932 2.005 7.631 1.644.105.447.2.884.276 1.33-.095-.01-.18-.01-.276-.01m25.774-3.535c-1.093-1.672-2.965-2.423-4.333-2.423-1.958 0-3.944.798-5.855 1.578-2.167.874-4.39 1.777-6.633 1.568.275-.837.608-1.616.979-2.29l-1.36-.666a5.078 5.078 0 0 0 .552-1.682c-.162-.066-1.967-.713-4.942-.713-2.956 0-4.638.646-4.771.703.076.609.266 1.17.542 1.692l-1.35.665c.37.675.703 1.454.97 2.29-2.234.21-4.467-.693-6.624-1.567-1.92-.78-3.897-1.578-5.864-1.578-1.369 0-3.241.75-4.324 2.423-.894 1.388-1.569 3.906.304 8.06l-.038-.067 2.784-1.197.19.446c-.912.4-1.786 1.454-.76 3.84 2.386-1.027 2.48-2.395 2.09-3.307l.448-.2 2.356 5.474-.446.2c-.4-.922-1.464-1.787-3.84-.76 1.027 2.375 2.89 3.364 4.315 3.364 2.461 0 4.277-1.54 4.02-3.07-.2-1.14-1.235-1.54-1.635-1.464-.494.096-.798.6-.722.989.02.095.057.17.105.247l-.067.095a1.512 1.512 0 1 1 1.179-2.594l.161-.248a1.707 1.707 0 0 1-.883-1.188c-.248-1.311 1.225-2.575 1.244-2.585.029 0 1.863.637 2.12 1.94a1.756 1.756 0 0 1-.39 1.444l.247.161c.19-.427.59-.77 1.093-.865a1.517 1.517 0 0 1 1.768 1.207 1.51 1.51 0 0 1-.808 1.635l-.095-.066a.612.612 0 0 0 0-.266c-.076-.39-.542-.751-1.036-.656-.4.076-1.197.836-.979 1.967.37 1.93 1.977 3.317 3.944 3.317 1.967 0 4.01-1.625 4.01-4.01-2.793 0-3.478 1.301-3.478 2.385h-.532v-6.434h.532c0 1.083.685 2.395 3.479 2.395 0-2.794-1.312-3.479-2.395-3.479v-.532h6.434v.532c-1.074 0-2.386.685-2.386 3.479 2.794 0 3.479-1.312 3.479-2.395h.522v6.434h-.522c0-1.084-.685-2.386-3.479-2.386 0 2.386 2.044 4.01 4.001 4.01 1.968 0 3.583-1.387 3.944-3.316.219-1.13-.58-1.891-.969-1.967-.504-.095-.97.266-1.045.656-.01.095-.01.18.01.266l-.095.066a1.53 1.53 0 0 1-.818-1.635 1.522 1.522 0 0 1 1.777-1.207 1.53 1.53 0 0 1 1.103.875l.238-.171a1.694 1.694 0 0 1-.39-1.445c.247-1.302 2.09-1.939 2.11-1.939.02.01 1.501 1.274 1.245 2.585a1.71 1.71 0 0 1-.894 1.198l.162.247a1.503 1.503 0 0 1 1.35-.409c.817.152 1.358.95 1.197 1.768a1.502 1.502 0 0 1-1.35 1.226l-.066-.095a.71.71 0 0 0 .095-.247c.076-.39-.218-.894-.722-.989-.39-.076-1.435.324-1.635 1.464-.256 1.53 1.568 3.07 4.03 3.07 1.416 0 3.278-.989 4.305-3.365-2.376-1.026-3.44-.161-3.83.76l-.456-.199 2.357-5.474.456.2c-.4.912-.295 2.28 2.081 3.307 1.026-2.386.162-3.44-.76-3.84l.2-.446 2.774 1.197-.028.067c1.872-4.154 1.197-6.672.304-8.06m-3.07 32.95c.162-.038 1.73-.428 2.015-.495-.17.238-1.093 1.578-1.188 1.72a138.44 138.44 0 0 0-.827-1.225m.257 2.043c-.02.02-.143.218-.314.466v-.941c.171.256.305.446.314.475m-4.239 34.403c-1.967-.275-4.561-.855-8.002-1.929-.152-.047-.304-.105-.465-.152.323-2.015.997-3.27 2.071-3.897a19.233 19.233 0 0 0 4.838-3.26c1.245-1.14 2.528-2.47 3.535-4.4a18.878 18.878 0 0 0 2.576-9.532c0-1.644-.21-3.26-.618-4.818l-.01-3.041.893 2.233.865-.342s-.855-2.138-.903-2.252c.124-.057 4.942-1.977 4.942-1.977l-.342-.846-.066.029-5.389 2.147v-.37l3.592-5.16-.36-.533-.048.01-3.193.76-.01-6.035c.332.295.646.6.96.903 5.15 5.16 7.992 12.013 7.992 19.302 0 4.752-1.245 9.437-3.592 13.543a27.544 27.544 0 0 1-9.266 9.618m5.683-.609c-.437.4-1.378.827-3.355.799a28.366 28.366 0 0 0 3.725-3.193c.276 1.102.153 1.9-.37 2.394m-15.14 7.347c-4.466-.932-9.665-2.614-12.725-3.678.295-.741.808-2.024 1.33-3.364l.837.351c-.01.057-.01.105-.01.162 0 1.14.931 2.062 2.072 2.062a2.06 2.06 0 0 0 2.062-2.062c0-1.14-.922-2.072-2.062-2.072a2.04 2.04 0 0 0-1.54.694l-.865-.37c.475-1.189.913-2.291 1.179-2.966 3.04 1.292 6.985 2.813 10.739 3.992 3.972 1.235 7.175 1.948 9.665 2.138a9064.468 9064.468 0 0 0-10.682 5.113m-.646 6.71a3.7 3.7 0 0 1-.371 1.615c-.218.37-.618.618-1.074.618a1.259 1.259 0 0 1-1.188-.865 13.232 13.232 0 0 1-.18-.694 1.241 1.241 0 1 0 .456-2.395c-.37 0-.703.152-.932.418-.38-1.625-.779-3.373-.779-3.373h-.59s-.398 1.739-.788 3.364a1.24 1.24 0 1 0-.922 2.072c.162 0 .314-.029.456-.086-.095.352-.161.608-.19.694a1.241 1.241 0 0 1-1.188.865 1.27 1.27 0 0 1-1.083-.627 3.815 3.815 0 0 1-.352-1.607v-7.736c2.595.827 5.731 1.74 8.725 2.386zM50.302 88.697c-.257-.095-.475-.17-.665-.247a27.217 27.217 0 0 1-12.678-9.846 27.11 27.11 0 0 1-4.952-15.68c0-7.29 2.842-14.142 7.993-19.303.314-.304.627-.608.95-.903l-.01 7.451-2.49-1.653c.067-.105 1.055-1.587 1.055-1.587l-.77-.514-.037.057-2.585 3.887.77.513s.988-1.482 1.054-1.587c.067.048 1.73 1.15 3.003 1.996l-.01 2.614-5.265-2.443-.028.067-.361.77 5.654 2.632v3.203a18.756 18.756 0 0 0-.617 4.79c0 3.44.922 6.671 2.537 9.465 1.046 2.015 2.395 3.402 3.697 4.58.56.514 1.14.98 1.749 1.417.047.028.095.066.142.095.067.047.143.095.21.143.085.066.17.114.256.17.028.02.066.048.095.067.485.314.988.608 1.502.874l-.01.01c.703.352 1.682.808 2.841 1.321l-1.178 2.975-.542-.228a.671.671 0 0 0-.874.352.671.671 0 0 0 .351.874l.57.238zm-7.898-29.917h16.518V80.4a17.456 17.456 0 0 1-9.465-3.031h-.02l-.304-.219-.114-.085a2.764 2.764 0 0 1-.2-.152c-.095-.057-.18-.133-.266-.19-.019-.02-.028-.038-.056-.048a17.496 17.496 0 0 1-4.4-5.113c-1.018-2.005-1.692-4.704-1.692-8.658zm.01-4.686.02-14.426h16.489v18.37H42.405Zm.067-17.505 4.181.864-4.181.865zm7.527 0 4.181.864-4.181.865zm7.726 0 4.172.864-4.172.865zm7.717 0 4.182.864-4.182.865zm-5.797 21.45V39.668h16.508l.02 14.426.01 3.944zm5.008 23.084c-.323.684-.57 1.501-.74 2.442a112.044 112.044 0 0 1-4.63-1.672h.01c1.864 0 3.66-.267 5.36-.77m-5.008-.722V58.78h16.537l.01 4.124c0 4.01-.703 6.729-1.74 8.753a17.646 17.646 0 0 1-3.164 3.992c-.086.076-.162.142-.238.218a17.489 17.489 0 0 1-11.404 4.533m13.4-43.811 4.182.864-4.182.865zm14.997 26.334c0-7.679-2.994-14.902-8.42-20.328a29.598 29.598 0 0 0-1.987-1.806V39.67a2.164 2.164 0 0 0 2.072-2.158 2.176 2.176 0 0 0-2.176-2.176c-.048 0-.095.01-.143.01l2.13-.98-.809-1.767 3.156-7.327-1.369-.58-3.203 7.432-1.71.789 1.121 2.442h-34.85l1.121-2.442-1.73-.789-3.202-7.432-1.359.58 3.165 7.337-.808 1.758 2.11.979c-.01 0-.029-.01-.048-.01-1.197 0-2.166.97-2.166 2.176 0 1.14.883 2.072 2.005 2.158v1.121c-.675.57-1.34 1.17-1.977 1.806-5.436 5.426-8.42 12.65-8.42 20.328 0 5.95 1.806 11.661 5.217 16.518A28.703 28.703 0 0 0 49.125 89.82c.028.01.323.114.808.294.038.77.532 1.492 1.302 1.768a1.981 1.981 0 0 0 2.176-.57c.029.01.057.02.086.028v8.192c0 3.013 2.594 5.455 5.778 5.455 3.174 0 5.769-2.442 5.769-5.455v-5.455l14.132-6.766c.494-.19.912-.438 1.245-.751 1.13-1.027 1.311-2.623.532-4.724a29.086 29.086 0 0 0 3.317-4.647 28.798 28.798 0 0 0 3.782-14.265m-53.41-6.101c.132-.523.446-.97.902-1.245.504-.304 1.14-.38 1.787-.228.646.161 1.169.532 1.473 1.036.276.456.352.988.228 1.52-.285 1.15-1.445 1.778-2.69 1.473-1.273-.323-1.995-1.387-1.7-2.556m1.463 3.469c.884.228 1.805.104 2.528-.333.665-.4 1.112-1.026 1.302-1.806.2-.807.095-1.587-.304-2.252-.438-.722-1.188-1.254-2.072-1.473-1.806-.447-3.421.466-3.84 2.176a3.392 3.392 0 0 0-.095.751c0 .523.143 1.017.418 1.473.438.713 1.188 1.255 2.063 1.464m.39 2.632c.36-.532.703-1.026 1.254-1.026.162.01.342.085.466.209.152.161.228.37.228.627-.01.523-.304.998-.875 1.388l-.18.123 1.359.01.02-.02c.408-.465.598-.969.598-1.577a1.554 1.554 0 0 0-.437-1.121c-.314-.324-.77-.495-1.274-.504-1.13-.01-1.615.75-2.043 1.425-.323.495-.599.922-1.074.922a.63.63 0 0 1-.427-.18c-.153-.152-.228-.37-.219-.628 0-.437.209-.855.627-1.235l.124-.124-1.207-.01-.02.029c-.294.39-.446.827-.456 1.264 0 .523.162.96.466 1.283.295.304.722.466 1.216.466.932.01 1.416-.694 1.854-1.321m.38 2.367a.993.993 0 0 0-.723-.2.993.993 0 0 0-.655.38 1.02 1.02 0 0 0-.19.732.994.994 0 0 0 .38.646.945.945 0 0 0 .722.19.977.977 0 0 0 .466-1.748m2.898 2.071-.066.02-5.987 1.51.228.894L40 68.266zm2.139 5.627s-3.802 1.786-4.134 1.938c.161-.332 2.613-5.18 2.613-5.18l-.333-.703-.056.029-5.589 2.623.371.798s3.83-1.796 4.163-1.957c-.171.332-2.623 5.236-2.623 5.236l.313.665 5.645-2.66zm2.3 5.236c-.038.59-.324 1.169-.827 1.606-.97.865-2.262.855-3.06-.038a1.99 1.99 0 0 1-.514-1.454c.029-.59.323-1.16.827-1.606.494-.437 1.093-.656 1.682-.627a2 2 0 0 1 1.378.674c.361.41.542.922.514 1.445m.95.038c.047-.77-.21-1.492-.75-2.09-1.322-1.493-3.223-1.208-4.41-.143-.694.617-1.103 1.416-1.15 2.261-.048.77.218 1.512.77 2.13 1.14 1.282 3.04 1.34 4.4.123.684-.608 1.092-1.435 1.14-2.281m3.25 4.59-2.48-1.577 1.425-2.243-.789-.504-.037.066-3.308 5.218.79.494s1.349-2.138 1.425-2.243c.104.067 2.376 1.502 2.48 1.568-.066.115-1.425 2.243-1.425 2.243l.788.504 3.336-5.275-.78-.503s-1.358 2.138-1.425 2.252m23.18-4.124-2.68 1.796.522.77s1.863-1.255 1.968-1.321c.066.095.912 1.359.978 1.454-.104.076-1.843 1.245-1.843 1.245l.522.77s1.74-1.17 1.844-1.246c.067.105.884 1.321.95 1.417-.104.075-1.91 1.283-1.91 1.283l.523.77 2.67-1.797-3.487-5.18zm3.792.294c-.628.114-1.226.228-1.607-.161-.19-.19-.332-.666.096-1.084.37-.36.921-.484 1.596-.36l.219.037-.95-.97h-.039c-.608.058-1.102.276-1.53.694a1.568 1.568 0 0 0-.484 1.103c-.01.447.19.903.541 1.254.789.808 1.673.618 2.452.447.58-.124 1.084-.228 1.407.105.123.123.18.266.18.427 0 .21-.104.428-.285.609-.313.304-.76.446-1.32.427l-.172-.01.836.856h.038a2.142 2.142 0 0 0 1.217-.57c.37-.362.57-.79.57-1.227.01-.437-.171-.846-.523-1.197-.646-.675-1.492-.513-2.243-.38m2.12-7.508-.428.665 3.859 2.452c-.38.029-5.731.494-5.731.494l-.409.647 5.265 3.345.466-.722s-3.564-2.272-3.878-2.462c.371-.038 5.779-.522 5.779-.522l.38-.609-5.265-3.345Zm1.188-3.611-1.017 3.06.874.294s.713-2.138.751-2.261c.124.037 1.559.522 1.673.56-.038.124-.704 2.11-.704 2.11l.884.295s.656-1.996.704-2.12l1.615.542c-.038.124-.732 2.186-.732 2.186l.884.295 1.017-3.06-5.93-1.968zm5.73-2.063c-.01.114-.114.856-.114.856-.114.77-.722.77-.979.741-.484-.076-.77-.38-.77-.846 0-.047.01-.114.02-.17l.114-.818c.124.01 1.616.218 1.73.237m-5.142-1.587-.123.846 2.623.37c-.02.115-.114.752-.114.752a2.98 2.98 0 0 0-.029.408c0 .428.114.799.333 1.093.266.352.675.57 1.197.646 1.112.152 1.901-.437 2.053-1.54l.257-1.776-6.187-.865zm2.214-1.606c.01.257.114.504.305.684.18.19.437.285.693.285.257-.01.504-.114.694-.304a.969.969 0 0 0 .276-.693.943.943 0 0 0-.295-.685.976.976 0 0 0-.703-.285.992.992 0 0 0-.97.998m-2.509-3.098.133.893s3.194-.465 3.241-.475c.038.029 3.241 1.606 3.241 1.606l-.162-1.083s-2.071-1.027-2.233-1.112c.133-.124 1.825-1.682 1.825-1.682l-.162-1.084-.095.086s-2.509 2.347-2.537 2.376c-.048 0-3.25.475-3.25.475m2.841-2.205a.982.982 0 0 0 .675-1.216 1.011 1.011 0 0 0-.475-.59 1.027 1.027 0 0 0-.751-.085.992.992 0 0 0-.58.475.946.946 0 0 0-.085.75.988.988 0 0 0 1.216.666M47.69 42.833l-.817-.817h1.634zm9.019-.105c.057-.123.095-.266.095-.418a.947.947 0 0 0-.95-.95h-3.64a.81.81 0 0 0-.808-.789.798.798 0 0 0-.57.238l-1.084 1.074h1.027v.01h5.075c.228 0 .418.18.418.418 0 .228-.19.418-.418.418H48.84v-.97l1.197-1.187h-4.695l1.188 1.188v1.758l-1.92-1.52a.835.835 0 0 0 .267-.6.827.827 0 0 0-.827-.826.83.83 0 0 0-.523.18v1.436l2.918 2.318-1.378.428a.843.843 0 0 0-.789-.57.825.825 0 0 0-.627 1.349h1.682l7.413-2.3v1.207l-.998.314a.831.831 0 0 0-.78-.57.827.827 0 0 0-.826.826c0 .2.066.38.18.523h1.692l1.853-.57.903-.285-.694-.647-.494-.475h3.27v.922a.856.856 0 0 0-.628-.295.827.827 0 0 0-.827.827c0 .2.076.38.19.523h2.091v-2.984zm-9.02 5.836-.816-.818h1.634zm9.02-.105c.057-.133.095-.266.095-.428a.953.953 0 0 0-.95-.95h-3.64a.81.81 0 0 0-.808-.789.839.839 0 0 0-.57.238l-1.084 1.083h6.102a.424.424 0 0 1 0 .846H48.84v-.97l1.197-1.197h-4.695l1.188 1.198v1.758l-1.92-1.53a.803.803 0 0 0 .267-.599.827.827 0 0 0-.827-.827c-.2 0-.38.076-.523.19v1.426l2.918 2.328-1.378.418a.826.826 0 0 0-1.606.266c0 .2.066.38.19.523h1.682l7.413-2.3v1.207l-.998.304a.823.823 0 0 0-.78-.56.827.827 0 0 0-.826.826c0 .2.066.38.18.523h1.692l1.853-.58.903-.275-.694-.656-.494-.466h3.27v.922a.824.824 0 0 0-1.265 1.055h2.091V48.46zm-9.02 5.835-.816-.826h1.634zm9.02-.114a.953.953 0 0 0-.855-1.369h-3.64a.81.81 0 0 0-.808-.788.839.839 0 0 0-.57.238l-1.084 1.083H55.853c.229 0 .419.19.419.418 0 .228-.19.418-.418.418H48.84v-.969l1.197-1.188h-4.695l1.188 1.188v1.758l-1.92-1.52a.819.819 0 0 0 .267-.6.827.827 0 0 0-.827-.826c-.2 0-.38.066-.523.19V53.64l2.918 2.318-1.378.428a.822.822 0 0 0-.789-.56.817.817 0 0 0-.817.817c0 .2.066.39.19.522h1.682l7.413-2.3v1.217l-.998.304a.81.81 0 0 0-.78-.56.82.82 0 0 0-.826.817c0 .2.066.39.18.522h1.692l1.853-.57.903-.285-.694-.646-.494-.466h3.27v.912a.815.815 0 0 0-.628-.285.817.817 0 0 0-.637 1.34h2.091V54.18zM64.9 73.9l-.817-.826h1.634zm-.551 1.473zm6.5-2.955h-1.425a.81.81 0 0 0-.808-.789.82.82 0 0 0-.57.238l-1.084 1.083H70.85c.228 0 .418.19.418.418 0 .228-.19.419-.418.419h-4.79v-.96l1.188-1.198h-4.694l1.188 1.188v2.005l-1.94-1.748a.812.812 0 0 0 .286-.618.827.827 0 0 0-.827-.827c-.2 0-.38.067-.523.19v1.416l3.07 2.766.143-.162-1.968 2.3a.798.798 0 0 0-.589-.18.825.825 0 0 0-.732.912.74.74 0 0 0 .19.447c.285-.02.723-.067 1.34-.162l2.186-2.547a8.45 8.45 0 0 0 .884-.342l.865.77a8.759 8.759 0 0 1-.523.237.832.832 0 0 0-.827-.133.825.825 0 0 0-.475 1.065c.057.152.18.256.266.351 0 .01.352-.104.685-.237.313-.124.627-.257.627-.257.02 0 .02-.01.028-.01.361-.161.732-.332 1.036-.494v-2.167a8.844 8.844 0 0 0 1.407-1.036l.827.751c-.171.143-.352.276-.533.409a.822.822 0 0 0-.798 0 .852.852 0 0 0-.38.494.82.82 0 0 0-.02.304c.01.105.048.21.105.304.076.152.247.285.4.352.38-.228.74-.475 1.102-.741.275-.19.532-.39.788-.6.076-.065.162-.142.248-.208v-1.102h.76c.523 0 .95-.428.95-.95a.953.953 0 0 0-.95-.951M64.9 62.02l-.817-.818h1.634zm9.019-.105c.057-.133.095-.266.095-.418a.955.955 0 0 0-.95-.96h-3.64a.81.81 0 0 0-.808-.789.821.821 0 0 0-.57.238l-1.084 1.083h6.102a.424.424 0 0 1 0 .846H66.06v-.97l1.187-1.197h-4.694l1.188 1.198v1.758l-1.91-1.53a.827.827 0 0 0-.57-1.426c-.2 0-.381.076-.524.19v1.435l2.918 2.32-1.378.427a.819.819 0 0 0-.78-.57.827.827 0 0 0-.826.826c0 .2.066.38.18.523H62.545l7.412-2.3v1.207l-.998.314a.819.819 0 0 0-.78-.57.827.827 0 0 0-.826.826c0 .2.066.38.19.523H69.226l1.852-.58.903-.275-.684-.646-.504-.476h3.27v.922a.809.809 0 0 0-.628-.294.827.827 0 0 0-.827.826c0 .2.076.38.19.523h2.091v-2.984zm-9.019 6.044-.817-.817h1.634zm8.876-.104h-.066a.881.881 0 0 0 .105-.418.957.957 0 0 0-.96-.96h-3.431a.808.808 0 0 0-1.378-.542l-1.084 1.074h1.027v.01h4.866a.418.418 0 1 1 0 .836H66.06v-.969l1.188-1.188h-4.695l1.188 1.188v1.758l-1.91-1.52a.87.87 0 0 0 .256-.609.827.827 0 0 0-.827-.826c-.2 0-.38.075-.522.19v1.435l2.917 2.318-1.378.428a.819.819 0 0 0-.78-.57.827.827 0 0 0-.826.827c0 .2.066.38.18.522h1.692l7.413-2.3v1.141l-.96.447a.844.844 0 0 0-.808-.637.825.825 0 0 0-.817.827c0 .2.066.38.18.522h1.863l1.16-.532.741-.351-.342-.742-.162-.351h2.728c-.029.114-.066.218-.105.332-.057.19-.133.38-.2.561a.803.803 0 0 0-.598-.266.827.827 0 0 0-.827.827c0 .2.067.38.19.522h1.692c.209-.475.4-1.026.513-1.387a15.56 15.56 0 0 0 .4-1.597h-.828M48.725 32.921c0-.751.609-1.36 1.36-1.36a1.355 1.355 0 1 1-1.359 1.359m8.686-.009 1.872-1.872 1.872 1.872-1.872 1.872zm14.987 13.106-.637.599h-.01l-.095.095-1.207 1.13c-.38.343-.466.894-.18 1.284l.703.969a.41.41 0 0 1-.095.58.42.42 0 0 1-.304.076.412.412 0 0 1-.266-.171s-.685-.932-1.036-1.407v-1.33l1.682-1.588V44.82l-.59-.589.732-.722h-2.974l-.713.703v.798a.608.608 0 0 1 .314-.095c.351 0 .636.285.636.637a.635.635 0 0 1-.95.542v.969h-1.007l-1.226-1.673a.784.784 0 0 0 .275-.608.807.807 0 0 0-.808-.808.759.759 0 0 0-.465.152v1.321c.01.02.028.029.057.038l1.159 1.578.599.808h1.35l-.742.75h-1.369a.82.82 0 0 0-.76-.513.806.806 0 0 0-.808.808c0 .2.067.38.181.513h3.279l.57.77H65.47v.029l.846 1.169.456.627h-1.13a.81.81 0 0 0-.77-.56.823.823 0 0 0-.78.56c-.02.085-.038.161-.038.247 0 .218.095.418.228.57h4.02l-.589-.817-.456-.627h1.311l.466.627.599.817h1.89v.903h-.256a.814.814 0 1 0-1.359.817h2.433v-2.537h-1.625l-.789-1.074a.881.881 0 0 0 .57.314.908.908 0 0 0 .694-.171.928.928 0 0 0 .38-.609.988.988 0 0 0-.18-.703c.01.01-.694-.96-.694-.96-.143-.2-.047-.456.114-.599 0 0 .143-.142.342-.323a.729.729 0 0 0 1.017 0 .746.746 0 0 0 .238-.522zm.608-3.536v.4h.409v12.05h-.409v.4H62.724v-.4h-.399v-12.05h.4v-.4Zm-10.283-.408h-.808v13.666h11.909V42.073Zm11.614 14.189H61.403V41.54h12.935Zm-13.353-15.13V56.68h13.761V41.122Zm8.857-8.211a1.359 1.359 0 1 0-2.718 0c0 .741.609 1.35 1.36 1.35.75 0 1.358-.609 1.358-1.35m1.274-18.789c0-.684-.551-1.235-1.236-1.235a1.24 1.24 0 0 0-1.235 1.235c0 .675.56 1.226 1.235 1.226.685 0 1.236-.551 1.236-1.226m2.965-1.15c0-.675-.551-1.226-1.235-1.226a1.231 1.231 0 1 0 0 2.462c.684 0 1.235-.552 1.235-1.236m3.08-.637c0-.684-.552-1.235-1.236-1.235-.684 0-1.236.551-1.236 1.235 0 .685.552 1.226 1.236 1.226.684 0 1.235-.541 1.235-1.226m3.108.552c0-.685-.551-1.226-1.235-1.226-.685 0-1.236.541-1.236 1.226 0 .684.551 1.235 1.236 1.235.684 0 1.235-.551 1.235-1.235m2.566 1.843a1.231 1.231 0 1 0-2.46.01 1.231 1.231 0 0 0 2.46-.01m1.673 2.7c0-.685-.552-1.236-1.236-1.236-.684 0-1.226.551-1.226 1.235 0 .675.542 1.226 1.226 1.226.684 0 1.236-.551 1.236-1.226m.304 3.155a1.24 1.24 0 0 0-1.236-1.235 1.231 1.231 0 1 0 0 2.461c.675 0 1.236-.55 1.236-1.226m-.656 3.108c0-.684-.551-1.235-1.235-1.235-.685 0-1.236.55-1.236 1.235 0 .684.551 1.236 1.236 1.236.684 0 1.235-.552 1.235-1.236m-15.957-8.477a1.231 1.231 0 1 0-2.462-.009 1.231 1.231 0 0 0 2.462.009m-20.746-1.093a1.231 1.231 0 1 1 2.462-.009 1.231 1.231 0 0 1-2.462.009m-2.965-1.15a1.231 1.231 0 1 1 2.46.01 1.231 1.231 0 0 1-2.46-.01m-3.08-.637c0-.684.552-1.235 1.226-1.235.685 0 1.245.551 1.245 1.235 0 .685-.56 1.226-1.245 1.226a1.223 1.223 0 0 1-1.226-1.226m-3.107.552c0-.685.551-1.226 1.226-1.226.684 0 1.235.541 1.235 1.226a1.231 1.231 0 1 1-2.461 0m-2.576 1.843c0-.675.552-1.226 1.236-1.226a1.231 1.231 0 1 1 0 2.462 1.233 1.233 0 0 1-1.236-1.236m-1.663 2.7a1.231 1.231 0 1 1 2.46-.009 1.231 1.231 0 0 1-2.46.008m-.304 3.155a1.231 1.231 0 1 1 2.46-.009 1.231 1.231 0 0 1-2.46.01m.656 3.107a1.231 1.231 0 1 1 2.461 0 1.231 1.231 0 1 1-2.461 0m15.947-8.477c0-.684.551-1.236 1.235-1.236a1.24 1.24 0 0 1 1.236 1.236c0 .675-.56 1.226-1.236 1.226a1.231 1.231 0 0 1-1.235-1.226m5.018 47.1-.247 1.749-1.378-2.775c.152-.076.313-.114.484-.114.628 0 1.226.56 1.14 1.14m-.57 4.058L52.67 62.06c.228-.133.457-.285.656-.456l1.673 3.393zm-.322 2.319-3.013-6.101c.256-.076.504-.18.741-.295l2.471 4.999zm-.324 2.31-4.03-8.145c.286-.029.562-.067.828-.124l3.402 6.871Zm-.323 2.318L48.64 62.79c.294.048.608.086.922.086l4.476 9.057zm-5.987-10.748c.038.02.076.028.124.047l5.702 11.556c-7.061-3.174-6.34-8.933-5.826-11.604m9.409-.96a1.845 1.845 0 0 0-1.844-1.843H45.019c-.874 0-1.587.713-1.587 1.597v-.01c0 .636.513 1.15 1.15 1.15.627 0 1.14-.495 1.14-1.179.238.218.494.418.77.59-.124.617-.304 1.52-.37 2.594a.779.779 0 1 0-.656 1.197.783.783 0 0 0 .627-.313c0 .541.038 1.13.123 1.72a.783.783 0 0 0-1.245.627c0 .437.352.789.78.789a.778.778 0 0 0 .665-.38c.02.076.029.133.047.209.133.465.286.921.476 1.359a.755.755 0 0 0-.38-.095.777.777 0 0 0-.78.779c0 .428.352.78.78.78.39 0 .712-.286.77-.657.275.514.598.998.969 1.454a.705.705 0 0 0-.152-.019.785.785 0 0 0 0 1.568c.437 0 .779-.352.779-.789v-.047c1.169 1.207 2.699 2.205 4.58 2.994l-.332 2.366s.75.352 1.891.684c1.103.304 2.196.485 2.196.485zm4.808 27.22a1.04 1.04 0 0 1 2.082 0c0 .579-.466 1.054-1.036 1.054a1.05 1.05 0 0 1-1.046-1.055m-1.026 0c0 1.14.931 2.072 2.072 2.072a2.067 2.067 0 0 0 0-4.134c-1.14 0-2.072.931-2.072 2.062m-3.06-81.446a4.917 4.917 0 0 0-3.516 3.82c.665-.2 1.853-.484 3.516-.58zm.57-2.29c0 1.092-.228 1.824-.57 2.29.038-.01.59-.171 1.302-.171.456 0 1.235.161 1.292.17-.342-.465-.57-1.197-.57-2.29 2.471 0 3.07 1.15 3.07 2.1h.475V1.53h-.475c0 .95-.599 2.11-3.07 2.11 0-2.462 1.16-3.07 2.11-3.07V.105h-5.674V.57c.95 0 2.11.608 2.11 3.07-2.47 0-3.07-1.16-3.07-2.11h-.465v5.683h.465c0-.96.6-2.11 3.07-2.11m2.034 2.29v3.251c1.644.105 2.851.39 3.516.58a4.93 4.93 0 0 0-3.516-3.83m129.136 204.87c-.266-5.322-4.267-9.589-9.789-9.589-5.845 0-9.323 4.4-9.713 9.59zm5.379 9.457c-1.511 7.48-6.89 11.556-14.512 11.556-10.834 0-15.947-7.489-16.28-17.867 0-10.178 6.7-17.658 15.957-17.658 12.012 0 15.69 11.224 15.358 19.435H170.22c-.2 5.912 3.146 11.158 10.568 11.158 4.6 0 7.812-2.234 8.8-6.624zm-39.84-12.28c-.855-4.266-3.81-6.766-8.41-6.766-8.078 0-10.568 6.368-10.568 13.267 0 6.235 2.822 12.403 9.912 12.403 5.389 0 8.6-3.146 9.333-8.268h5.711c-1.254 8.268-6.443 13.2-14.978 13.2-10.368 0-15.89-7.232-15.89-17.335 0-10.178 5.256-18.19 16.024-18.19 7.678 0 13.856 3.612 14.645 11.69zm-35.724-10.9h5.588v33.947h-5.588zm5.588-6.11h-5.588v-6.834h5.588zm-21.792 11.033h-5.711v-4.923h5.711v-5.056c0-5.521 3.289-8.401 9.39-8.401 1.055 0 2.566.19 3.611.513v4.866c-.978-.333-2.166-.466-3.145-.466-2.7 0-4.267.856-4.267 3.811v4.733h6.557v4.923h-6.557v29.024h-5.589zm-19.71 0H77.91v-4.923h5.712v-5.056c0-5.521 3.288-8.401 9.39-8.401 1.054 0 2.565.19 3.61.513v4.866c-.978-.333-2.166-.466-3.154-.466-2.69 0-4.268.856-4.268 3.811v4.733h6.567v4.923h-6.567v29.024h-5.578zm-30.745 24.88c11.433 0 16.223-9.845 16.223-19.301 0-9.456-4.79-19.302-16.223-19.302-11.423 0-16.213 9.846-16.213 19.302s4.79 19.302 16.213 19.302m0-43.86c14.912 0 22.458 11.823 22.458 24.558S67.79 233.6 52.878 233.6c-14.901 0-22.457-11.822-22.457-24.557s7.556-24.558 22.457-24.558m340.355-54.93H400v4.931h-6.767v21.08c0 2.556.723 3.012 4.201 3.012H400v4.933h-4.267c-5.778 0-8.078-1.188-8.078-7.423v-21.602h-5.779v-4.932h5.779v-10.169h5.578zm-30.61 0h5.255v7.165h.133c2.69-5.455 6.434-8.145 12.468-7.955v5.912c-8.99 0-12.278 5.122-12.278 13.723v15.11h-5.579zm-21.413 29.812c5.845 0 10.568-4.59 10.568-12.801 0-8.278-4.723-12.868-10.568-12.868-5.844 0-10.568 4.59-10.568 12.868 0 8.21 4.724 12.801 10.568 12.801m0-30.602c10.768 0 16.48 7.822 16.48 17.8 0 9.913-5.712 17.725-16.48 17.725-10.767 0-16.48-7.812-16.48-17.724 0-9.98 5.713-17.8 16.48-17.8m-36.266 4.932c-7.489 0-10.368 6.434-10.368 12.801 0 6.7 3.012 12.868 10.7 12.868 7.613 0 10.18-6.5 10.18-13.134 0-6.367-3.289-12.535-10.512-12.535m-15.757-4.144h5.579v4.6h.133c1.844-3.745 6.177-5.38 10.834-5.38 10.445 0 15.624 8.269 15.624 17.858 0 9.59-5.122 17.658-15.49 17.658-3.48 0-8.469-1.312-10.968-5.313h-.133v17.535h-5.579zM261.132 152.8c.19 4.99 4.524 6.567 9.124 6.567 3.478 0 8.211-.789 8.211-5.056 0-4.334-5.522-5.056-11.1-6.3-5.512-1.246-11.1-3.09-11.1-9.59 0-6.824 6.766-9.646 12.677-9.646 7.48 0 13.458 2.357 13.914 10.634h-5.579c-.39-4.333-4.2-5.711-7.878-5.711-3.346 0-7.223.912-7.223 4.333 0 4.001 5.911 4.657 11.1 5.902 5.579 1.255 11.09 3.089 11.09 9.656 0 8.078-7.545 10.701-14.435 10.701-7.622 0-14.056-3.08-14.389-11.49zm-31.856 0c.2 4.99 4.533 6.567 9.124 6.567 3.487 0 8.21-.789 8.21-5.056 0-4.334-5.511-5.056-11.1-6.3-5.512-1.246-11.09-3.09-11.09-9.59 0-6.824 6.757-9.646 12.668-9.646 7.489 0 13.457 2.357 13.923 10.634h-5.579c-.399-4.333-4.21-5.711-7.878-5.711-3.355 0-7.223.912-7.223 4.333 0 4.001 5.902 4.657 11.09 5.902 5.58 1.255 11.101 3.089 11.101 9.656 0 8.078-7.555 10.701-14.446 10.701-7.621 0-14.055-3.08-14.379-11.49zm-16.48-6.824c-2.157 1.568-6.367 1.645-10.111 2.29-3.678.666-6.824 1.978-6.824 6.112 0 3.678 3.146 4.99 6.567 4.99 7.356 0 10.369-4.591 10.369-7.68zm9.067 17.402c-.988.589-2.233.912-4.01.912-2.88 0-4.724-1.568-4.724-5.246-3.088 3.611-7.222 5.246-11.946 5.246-6.177 0-11.233-2.756-11.233-9.513 0-7.689 5.712-9.333 11.49-10.445 6.177-1.178 11.423-.789 11.423-4.99 0-4.856-4-5.644-7.546-5.644-4.733 0-8.21 1.444-8.467 6.434h-5.589c.333-8.411 6.834-11.357 14.38-11.357 6.11 0 12.744 1.368 12.744 9.323v17.458c0 2.633 0 3.811 1.768 3.811.465 0 .988-.066 1.71-.323zm-62.762-24.301h12.212c7.023.066 10.236-3.022 10.236-8.601 0-5.579-3.213-8.6-10.236-8.6h-12.212zm-6.244-22.457h20.556c9.324 0 14.38 5.189 14.38 13.856s-5.056 13.923-14.38 13.856h-14.312v19.179h-6.244zm-73.996 0h8.535l14.768 39.402 14.845-39.402h8.534v46.89h-5.91v-39.012h-.134l-14.636 39.013h-5.322l-14.645-39.013h-.133v39.013h-5.902zm-45.807 0h6.234v20.157h24.69V116.62h6.235v46.89H63.98v-21.478h-24.69v21.479h-6.235zm0 0"/>
</svg>
