<?xml version="1.0" encoding="utf-8"?>
<!-- Generator: Adobe Illustrator 23.0.5, SVG Export Plug-In . SVG Version: 6.00 Build 0)  -->
<svg version="1.1" id="Layer_1" xmlns="http://www.w3.org/2000/svg" xmlns:xlink="http://www.w3.org/1999/xlink" x="0px" y="0px"
	 viewBox="0 0 2340 1560" style="enable-background:new 0 0 2340 1560;" xml:space="preserve">
<style type="text/css">
	.st0{fill:#D2F1F9;}
	.st1{fill:none;stroke:#FFFFFF;stroke-width:15.4807;stroke-miterlimit:10;}
	.st2{fill:none;stroke:#FFFFFF;stroke-width:14.5083;stroke-miterlimit:10;}
	.st3{fill:#878785;}
	.st4{fill:#34333B;}
	.st5{fill:#474747;}
	.st6{fill:#666666;}
	.st7{fill:#CCCCCC;}
	.st8{fill:#1A1A1A;}
	.st9{fill:#FFFFFF;}
	.st10{fill:#FFB463;}
	.st11{fill:#E8E3EA;}
	.st12{fill:#AAAEB1;}
	.st13{fill:#CBD5DE;}
	.st14{opacity:0.5;fill:#34333B;}
	.st15{opacity:0.65;fill:#34333B;}
	.st16{fill:#F3F3F3;}
	.st17{fill:#CECECE;}
	.st18{fill:#E6E6E6;}
	.st19{fill:#4D81B3;}
	.st20{fill:#E2364C;}
	.st21{opacity:0.15;fill:#34333B;}
	.st22{opacity:0.15;fill:#FFFFFF;}
	.st23{font-family:'BerlinSansFBDemi-Bold';}
	.st24{font-size:111.5178px;}
	.st25{fill:#8F9E99;}
	.st26{fill:#376F90;}
	.st27{fill:#285166;}
	.st28{fill:none;}
	.st29{fill:#525354;}
	.st30{fill:#FFB319;}
	.st31{fill:#FF936D;}
	.st32{fill:#000107;}
	.st33{fill:#5E1212;}
	.st34{fill:#F55C2B;}
	.st35{fill:#ECECEC;}
</style>
<g>
	<path class="st0" d="M2065.47,827.85c-0.06,25.46-1.5,50.91-4.32,76.21l-0.51,4.75l-0.62,4.73l-1.25,9.46
		c-0.39,3.16-0.95,6.29-1.42,9.44c-0.5,3.14-0.96,6.29-1.49,9.43c-2.21,12.53-4.58,25.04-7.47,37.44
		c-5.63,24.82-12.58,49.36-21.03,73.37l-3.18,9c-1.08,2.99-2.25,5.95-3.37,8.93c-2.2,5.97-4.64,11.85-7.04,17.75
		c-1.17,2.96-2.45,5.87-3.72,8.79l-3.79,8.76l-3.98,8.68c-1.33,2.89-2.64,5.79-4.06,8.64c-2.79,5.72-5.54,11.46-8.51,17.1
		c-1.47,2.82-2.89,5.67-4.4,8.47l-4.57,8.39l-2.29,4.19l-2.38,4.14l-4.76,8.28c-1.61,2.74-3.29,5.45-4.93,8.18
		c-1.66,2.72-3.26,5.47-5,8.14c-13.58,21.54-28.19,42.46-44.05,62.4c-4.01,4.95-7.94,9.97-12.09,14.8l-6.17,7.3l-6.32,7.17
		c-8.41,9.58-17.17,18.83-26.14,27.89c-17.95,18.1-36.91,35.2-56.77,51.2l-0.45,0.36l-0.58,0.04l-25.76,1.74
		c-8.59,0.57-17.18,0.98-25.77,1.47l-51.55,2.84c-17.18,0.92-34.36,1.95-51.55,2.79l-51.58,2.04l-51.58,2.04
		c-17.19,0.72-34.39,1.27-51.59,1.76c-34.4,1.01-68.81,1.86-103.21,2.57c-68.82,1.41-137.64,2.19-206.47,2.54l-25.81,0.1
		c-8.6,0.02-17.21,0.07-25.81,0.01l-51.62-0.19l-103.25-0.38l-1.35-0.01l-1.12-0.82c-46.94-34.32-89.56-74.6-126.39-119.64
		c-36.88-45-68.02-94.73-92.35-147.62c-24.35-52.88-41.86-108.92-51.97-166.28l-1.84-10.77l-1.61-10.8
		c-0.57-3.6-1.01-7.21-1.46-10.82c-0.43-3.61-0.95-7.22-1.31-10.84c-1.62-14.47-2.7-29-3.46-43.55l-0.4-10.92l-0.19-5.46l-0.07-5.46
		c-0.04-3.64-0.12-7.28-0.12-10.92l0.12-10.92l0.06-5.46l0.19-5.46l0.39-10.92c0.15-3.64,0.42-7.27,0.63-10.91
		c0.25-3.63,0.38-7.27,0.74-10.9c4.57-58.09,16.46-115.65,35.64-170.72c1.21-3.44,2.38-6.89,3.63-10.31l3.86-10.23
		c0.65-1.7,1.27-3.42,1.95-5.11l2.06-5.07l4.12-10.13l4.36-10.03l2.18-5.01l2.3-4.96l4.6-9.92l4.84-9.81l2.42-4.9l2.53-4.85
		l5.08-9.69l5.3-9.57l2.66-4.78c0.89-1.59,1.84-3.15,2.75-4.73l5.54-9.43c1.88-3.12,3.83-6.2,5.75-9.31
		c3.78-6.24,7.88-12.27,11.84-18.39c32.51-48.44,71.03-92.91,114.72-131.65c21.76-19.46,44.89-37.37,68.95-53.91
		c2.98-2.11,6.07-4.05,9.1-6.09c3.06-1.99,6.06-4.07,9.18-5.97l9.28-5.81l2.32-1.45l2.36-1.4l4.71-2.79
		c12.52-7.51,25.38-14.45,38.36-21.14c26.06-13.17,52.87-24.92,80.43-34.6l10.34-3.63l10.42-3.38l5.21-1.69l5.25-1.56l10.5-3.12
		c14.08-3.88,28.21-7.6,42.5-10.59c7.12-1.63,14.31-2.93,21.48-4.3c3.58-0.72,7.2-1.24,10.79-1.85c3.61-0.57,7.2-1.22,10.81-1.73
		l10.85-1.5c1.81-0.24,3.61-0.52,5.43-0.73l5.44-0.61l10.88-1.23l10.91-0.96c29.09-2.52,58.34-3.07,87.5-1.83
		c7.3,0.22,14.57,0.79,21.85,1.26c3.64,0.2,7.27,0.61,10.91,0.92c3.63,0.35,7.27,0.63,10.9,1.03l10.87,1.27l5.43,0.65l5.42,0.77
		l10.83,1.56l10.79,1.82c7.21,1.14,14.34,2.67,21.51,4.04c3.58,0.7,7.13,1.55,10.69,2.32c3.55,0.82,7.14,1.52,10.66,2.44
		c7.08,1.76,14.17,3.47,21.18,5.49c3.51,0.99,7.04,1.9,10.53,2.96l10.47,3.18c3.5,1.02,6.95,2.19,10.41,3.34
		c3.46,1.15,6.93,2.27,10.38,3.46l10.29,3.69l5.14,1.86l5.1,1.97l10.2,3.94l10.1,4.19l5.05,2.1l5,2.21l9.99,4.44l9.88,4.67
		l4.93,2.35c1.64,0.79,3.25,1.64,4.88,2.45l9.75,4.94c3.23,1.68,6.42,3.43,9.64,5.15c6.45,3.38,12.72,7.09,19.07,10.66
		c3.15,1.82,6.25,3.74,9.38,5.6c3.12,1.88,6.25,3.72,9.31,5.71l9.22,5.85c3.07,1.95,6.06,4.03,9.1,6.04
		c6.09,3.98,11.99,8.25,17.94,12.43c11.77,8.56,23.38,17.33,34.57,26.62c22.53,18.39,43.75,38.36,63.74,59.43
		c9.93,10.6,19.65,21.4,28.87,32.62l3.48,4.19l1.74,2.09l1.69,2.13l6.76,8.54l1.69,2.13l1.64,2.17l3.28,4.35l3.28,4.35
		c1.1,1.44,2.18,2.9,3.22,4.38c17.03,23.5,32.78,47.92,46.7,73.37c7.08,12.65,13.53,25.64,19.79,38.71
		c2.99,6.6,6.12,13.13,8.91,19.82c1.43,3.33,2.89,6.64,4.28,9.99l4.06,10.08l2.02,5.04l1.9,5.09l3.8,10.18l3.55,10.26l1.78,5.13
		l1.66,5.17l3.3,10.35l3.06,10.42c2.11,6.93,3.83,13.96,5.72,20.95c7.1,28.07,12.46,56.56,16.08,85.27
		C2063.7,770,2065.47,798.92,2065.47,827.85z M2064.07,827.85c-0.14-28.87-2-57.72-5.65-86.35c-2-14.29-4.14-28.56-7.02-42.7
		c-1.31-7.09-2.93-14.12-4.49-21.17c-0.74-3.53-1.69-7.01-2.54-10.51c-0.89-3.49-1.71-7.01-2.66-10.48
		c-14.88-55.72-36.74-109.59-65.4-159.57c-14.2-25.06-30.15-49.1-47.44-72.09c-1.06-1.45-2.15-2.88-3.27-4.29l-3.32-4.25l-3.32-4.25
		l-1.66-2.13l-1.71-2.09l-6.84-8.34l-1.71-2.09l-1.76-2.04l-3.52-4.09c-9.32-10.95-19.12-21.48-29.12-31.8
		c-20.13-20.51-41.43-39.87-63.98-57.65c-11.2-8.98-22.81-17.43-34.55-25.68c-5.94-4.03-11.81-8.15-17.87-11.98
		c-3.02-1.93-6-3.93-9.05-5.81l-9.17-5.63c-3.04-1.91-6.16-3.68-9.25-5.48c-3.11-1.79-6.18-3.63-9.31-5.37
		c-6.3-3.42-12.52-6.98-18.92-10.21c-12.66-6.72-25.68-12.74-38.71-18.68l-9.87-4.25l-4.94-2.12l-4.98-2l-9.97-4l-10.06-3.76
		l-5.03-1.88l-5.07-1.76l-10.15-3.51c-3.4-1.12-6.82-2.18-10.23-3.27c-3.41-1.09-6.81-2.19-10.26-3.16
		c-27.45-8.11-55.37-14.68-83.62-19.23l-10.59-1.7l-10.63-1.44l-5.31-0.73l-5.33-0.6l-10.66-1.19c-3.56-0.37-7.12-0.63-10.69-0.95
		c-3.56-0.28-7.12-0.67-10.69-0.84c-7.14-0.41-14.27-0.94-21.42-1.11l-10.72-0.36l-10.73-0.12l-5.36-0.06
		c-1.79,0-3.58,0.04-5.36,0.06l-10.73,0.15c-3.58,0.05-7.15,0.26-10.72,0.38c-3.57,0.17-7.15,0.22-10.71,0.48
		c-7.13,0.5-14.28,0.83-21.39,1.56l-10.68,0.97l-10.65,1.24l-5.33,0.62c-1.77,0.22-3.54,0.49-5.31,0.74l-10.62,1.5
		c-3.54,0.51-7.05,1.16-10.58,1.73c-3.52,0.61-7.06,1.12-10.56,1.85c-7.02,1.37-14.05,2.65-21.02,4.24
		c-13.99,2.94-27.82,6.58-41.59,10.39l-10.27,3.06l-5.14,1.53l-5.1,1.66l-10.19,3.31l-10.11,3.56l-5.05,1.78
		c-1.68,0.6-3.34,1.26-5.02,1.89l-10.02,3.81c-3.33,1.3-6.62,2.69-9.93,4.03c-3.31,1.36-6.63,2.67-9.89,4.14l-9.83,4.29
		c-3.27,1.43-6.49,3-9.73,4.49c-6.51,2.95-12.88,6.2-19.29,9.36c-102.04,51.67-190.6,129.7-254.76,224.55
		c-3.92,5.98-7.98,11.88-11.72,17.98c-1.89,3.04-3.83,6.05-5.69,9.1l-5.49,9.23c-0.91,1.54-1.85,3.06-2.73,4.62l-2.63,4.68
		l-5.25,9.36l-5.04,9.48l-2.51,4.75l-2.4,4.8l-4.8,9.61l-4.56,9.72l-2.28,4.86l-2.16,4.91l-4.33,9.83l-4.09,9.93l-2.04,4.97
		c-0.67,1.66-1.29,3.34-1.93,5.01l-3.84,10.03c-1.24,3.36-2.41,6.74-3.61,10.11c-19.09,54.01-31.04,110.51-35.8,167.63
		c-0.37,3.56-0.52,7.15-0.78,10.72c-0.22,3.58-0.5,7.15-0.67,10.73l-0.43,10.74l-0.21,5.37l-0.08,5.37l-0.16,10.75
		c-0.02,3.58,0.05,7.17,0.07,10.75l0.05,5.38l0.16,5.37l0.35,10.74c0.69,14.32,1.7,28.62,3.24,42.87c0.34,3.57,0.84,7.12,1.25,10.68
		c0.43,3.56,0.85,7.12,1.39,10.66l1.54,10.64l1.77,10.6c9.73,56.51,26.75,111.77,50.53,163.98
		c23.77,52.22,54.27,101.37,90.48,145.92c36.16,44.58,78.07,84.51,124.29,118.59l-2.47-0.83l103.18,0.79l51.59,0.4
		c8.6,0.09,17.2,0.08,25.8,0.09l25.8,0c68.79-0.05,137.59-0.63,206.37-1.66c34.39-0.52,68.78-1.17,103.17-1.98
		c34.39-0.72,68.76-1.98,103.14-3.03l51.57-1.64c17.18-0.68,34.36-1.56,51.54-2.33l51.54-2.39c8.59-0.42,17.18-0.75,25.77-1.24
		l25.75-1.51l-1.03,0.4c19.89-15.74,38.91-32.59,56.94-50.45c9-8.94,17.79-18.1,26.24-27.57l6.35-7.09l6.2-7.23
		c4.17-4.78,8.13-9.75,12.16-14.65c15.95-19.76,30.7-40.48,44.32-61.91c1.75-2.65,3.36-5.39,5.03-8.09
		c1.65-2.71,3.33-5.41,4.95-8.13l4.79-8.23l2.39-4.12l2.3-4.17l4.6-8.34c1.52-2.79,2.95-5.62,4.43-8.43
		c2.99-5.6,5.77-11.32,8.58-17.01c1.43-2.83,2.75-5.72,4.09-8.6l4.02-8.64l3.81-8.73c1.27-2.91,2.56-5.81,3.73-8.77
		c2.4-5.88,4.85-11.74,7.06-17.7c1.12-2.97,2.29-5.93,3.38-8.91l3.19-8.98c8.48-23.95,15.46-48.43,21.12-73.2
		c2.89-12.37,5.22-24.87,7.41-37.38c0.53-3.13,0.98-6.28,1.48-9.41c0.46-3.14,1.02-6.27,1.4-9.42l1.23-9.45l0.61-4.73l0.5-4.74
		C2062.66,878.66,2064.05,853.26,2064.07,827.85z"/>
</g>
<path class="st0" d="M2124.77,827.85c0,175.93-66.84,336.26-176.5,456.97c-24.47,26.94-51.08,51.9-79.55,74.63
	c-9.72,0.64-19.66,1.27-29.83,1.88c-37.48,2.25-77.96,4.31-121.03,6.14c-39.88,1.7-81.98,3.2-125.97,4.49
	c-116.96,3.43-247.24,5.34-384.56,5.34c-55.98,0-110.79-0.32-164-0.93c-44.4-32.57-84.71-70.4-119.99-112.58
	c-98.74-118.01-158.17-270.04-158.17-435.94c0-375.44,304.36-679.8,679.8-679.8S2124.77,452.41,2124.77,827.85z"/>
<g>
	<polygon class="st1" points="2051.43,1149.99 2051.43,997.05 1968.82,997.05 1968.82,846.5 1941.34,846.5 1941.34,834.32 
		1921.77,834.32 1921.77,846.5 1915.54,846.5 1915.54,799.13 1911.92,799.13 1911.92,846.5 1906.08,846.5 1906.08,768.88 
		1902.46,768.88 1902.46,846.5 1892.41,846.5 1892.41,1017.7 1783.86,1017.7 1783.86,1053.77 1706.76,1053.77 1706.76,946.06 
		1693.64,946.06 1693.64,815.27 1674.51,815.27 1674.51,656.77 1642.03,656.77 1642.03,558.83 1625.41,558.83 1625.41,410.47 
		1612.22,410.47 1612.22,558.83 1601.24,558.83 1601.24,737.13 1584.93,737.13 1584.93,877.62 1566.24,877.62 1566.24,1008.67 
		1546.67,1008.67 1546.67,1305.38 1668.57,1305.38 1677.18,1305.38 1734.13,1305.38 1734.13,1304.05 1783.86,1304.05 
		1799.03,1304.05 1820.93,1304.05 1922.15,1304.05 1924.22,1304.05 1937.76,1304.05 1940.48,1304.05 2051.43,1304.05 
		2092.39,1304.05 2092.39,1149.99 	"/>
	<path class="st1" d="M1502.8,999.88v-2.57v-68.82v-32.16v-44.38h-4.31v49.99l-46.46,60.53v34.83v2.57v105.39h-122.63v-8.52h-2.52
		l-26.53-190.67h-13.43l-14.43-103.62h-55.69l-14.43,103.62H1189l-26.57,190.67h-2.52v14.66h-98.79V942.39H890.03V728.51h-36.47
		v-16.16h-25.97v16.16h-8.27v-62.86h-4.8v62.86h-7.74V625.51h-4.8v102.99h-13.34v228.42c-14.53-33.12-35.93-62.78-66.65-85.57v-68.9
		h-3.7v66.15v40.95v157.16h-80.46v7.56v115.14H597.5v114.63h40.32v2.21h110.17v-0.87h38.37c0,0,0.15-0.49,0.41-1.33h26.5h15.36h6.01
		v1.32h46.55v-1.32h20.68v1.32h46.52v-1.32h81.12h31.63h98.79v1.32h69.36v-1.32h0.68h30.13v1.32h69.32v-1.32h64.81v0h57.82v1.32
		h50.76v-1.32h10.73v-169.11h13.81v-29.67h-24.54V999.88z M1260.09,1096.74v17.96v74.71h-30.13v-78.01h-0.68v-14.66v-69.65
		c0-12.05,6.88-21.86,15.41-21.86c8.49,0,15.41,9.81,15.41,21.86V1096.74z"/>
</g>
<g>
	<path class="st2" d="M1193.7,929.72v13.71v57.04h-34.66v-59.56h-0.78v-11.19v-53.18c0-9.2,7.91-16.69,17.72-16.69
		c9.77,0,17.72,7.49,17.72,16.69V929.72z"/>
</g>
<path class="st3" d="M2124.77,1319.13c0,15.65-97.49,29.86-256.05,40.32c-9.72,0.64-19.66,1.27-29.83,1.88
	c-37.48,2.25-77.96,4.31-121.03,6.14c-39.88,1.7-81.98,3.2-125.97,4.49c-116.96,3.43-247.24,5.34-384.56,5.34
	c-55.98,0-110.79-0.32-164-0.93c-0.25,0-0.5-0.01-0.75-0.01c-24.17-0.27-48-0.61-71.47-1.01c-16.35-0.27-32.51-0.58-48.49-0.9
	c-367.31-7.6-632.72-29.49-632.72-55.32c0-22.89,208.42-42.69,511.48-52.19c2.72-0.08,5.45-0.17,8.19-0.25
	c24.02-0.74,48.63-1.41,73.77-2.01c13.19-0.31,26.53-0.61,40-0.89c89.42-1.84,184.87-2.84,283.99-2.84
	c198.98,0,383.16,4.02,533.48,10.85c37.36,1.69,72.63,3.56,105.51,5.58c28.85,1.78,55.86,3.67,80.84,5.68
	c7.21,0.58,14.25,1.16,21.11,1.76C2059.26,1294.43,2124.77,1306.29,2124.77,1319.13z"/>
<circle class="st4" cx="569.94" cy="1202.75" r="104.97"/>
<polygon class="st5" points="686.15,1101.17 270.51,1101.17 281.27,1089.62 692.37,1027.19 1114.22,1028.58 686.15,1095.39 "/>
<circle class="st4" cx="1507.9" cy="1202.75" r="104.97"/>
<rect x="1725.66" y="1091.53" class="st4" width="176.34" height="127.54"/>
<rect x="926.04" y="1091.53" class="st4" width="176.34" height="127.54"/>
<polygon class="st4" points="1062.21,1236.8 1866.93,1236.8 1956.08,1213.63 1062.21,1213.63 "/>
<circle class="st4" cx="1744.53" cy="1215.29" r="104.97"/>
<circle class="st6" cx="1785.44" cy="1236.07" r="91.68"/>
<circle class="st7" cx="1784.06" cy="1234.21" r="58.4"/>
<circle class="st7" cx="1779.49" cy="1231.21" r="34.93"/>
<circle class="st8" cx="1789.23" cy="1230.67" r="34.34"/>
<circle class="st4" cx="952.27" cy="1219.07" r="104.97"/>
<circle class="st6" cx="985.82" cy="1237.07" r="91.68"/>
<circle class="st7" cx="984.45" cy="1235.21" r="58.4"/>
<circle class="st7" cx="979.87" cy="1232.21" r="34.93"/>
<circle class="st8" cx="989.62" cy="1231.67" r="34.34"/>
<rect x="1991.84" y="1124.37" class="st9" width="17.02" height="32.07"/>
<rect x="1991.84" y="1091.53" class="st10" width="17.02" height="32.07"/>
<path class="st8" d="M1996.95,1213.66h-109.39c0-14.96-3.34-29.16-9.34-41.85c-0.8-1.7-1.66-3.38-2.56-5.03
	c-16.63-30.64-49.1-51.45-86.43-51.45c-21.29,0-41.01,6.77-57.1,18.28c-12.12,8.65-22.18,20-29.33,33.17
	c-0.9,1.64-1.76,3.33-2.56,5.03c-6,12.69-9.34,26.89-9.34,41.85h-600.24c0.09-1.66,0.13-3.34,0.13-5.03
	c0-14.96-3.34-29.16-9.34-41.85c-15.71-33.37-49.65-56.47-88.99-56.47c-39.34,0-73.28,23.1-88.99,56.47
	c-6,12.69-9.34,26.89-9.34,41.85c0,1.68,0.04,3.37,0.13,5.03H686.15v-118.27l416.23-64.95l9.41-1.47l11.35-1.77l599.15,1.77
	l9.84,0.83l231.35,19.4c15.25,1.29,27.16,13.71,27.8,28.99l3.71,88.6L1996.95,1213.66z"/>
<path class="st11" d="M1732.14,1028.96v104.65c-12.12,8.65-22.18,20-29.33,33.17h-600.43v-137.82H1732.14z"/>
<path class="st3" d="M903.49,1166.79c-6,12.69-9.34,26.89-9.34,41.85c0,1.68,0.04,3.37,0.13,5.03H686.15v-46.88H903.49z"/>
<path class="st3" d="M1081.46,1166.79h621.34c-0.9,1.64-1.76,3.33-2.56,5.03c-6,12.69-9.34,26.89-9.34,41.85h-600.24
	c0.09-1.66,0.13-3.34,0.13-5.03C1090.8,1193.67,1087.46,1179.48,1081.46,1166.79z"/>
<path class="st3" d="M1996.95,1166.79v46.88h-109.39c0-14.96-3.34-29.16-9.34-41.85c-0.8-1.7-1.66-3.38-2.56-5.03H1996.95z"/>
<rect x="705.2" y="1177.55" class="st12" width="59.97" height="36.12"/>
<rect x="270.51" y="1101.17" class="st3" width="415.64" height="75.9"/>
<rect x="255.68" y="1177.55" class="st13" width="449.52" height="36.12"/>
<path class="st10" d="M652.31,1173.31h-45.67c-3.6,0-6.52-2.92-6.52-6.52v0c0-3.6,2.92-6.52,6.52-6.52h45.67
	c3.6,0,6.52,2.92,6.52,6.52v0C658.83,1170.39,655.91,1173.31,652.31,1173.31z"/>
<path class="st10" d="M349.59,1173.31h-45.67c-3.6,0-6.52-2.92-6.52-6.52v0c0-3.6,2.92-6.52,6.52-6.52h45.67
	c3.6,0,6.52,2.92,6.52,6.52v0C356.12,1170.39,353.2,1173.31,349.59,1173.31z"/>
<path class="st8" d="M666.88,1151.54h-24.65c-6.61,0-11.96-5.36-11.96-11.96v-20.3c0-6.61,5.36-11.96,11.96-11.96h24.65
	c6.61,0,11.96,5.36,11.96,11.96v20.3C678.85,1146.18,673.49,1151.54,666.88,1151.54z"/>
<path class="st13" d="M664.46,1147.19h-19.8c-5.31,0-9.61-4.3-9.61-9.61v-16.31c0-5.31,4.3-9.61,9.61-9.61h19.8
	c5.31,0,9.61,4.3,9.61,9.61v16.31C674.07,1142.88,669.77,1147.19,664.46,1147.19z"/>
<path class="st8" d="M615.48,1151.54h-24.65c-6.61,0-11.96-5.36-11.96-11.96v-20.3c0-6.61,5.36-11.96,11.96-11.96h24.65
	c6.61,0,11.96,5.36,11.96,11.96v20.3C627.44,1146.18,622.09,1151.54,615.48,1151.54z"/>
<path class="st13" d="M613.06,1147.19h-19.8c-5.31,0-9.61-4.3-9.61-9.61v-16.31c0-5.31,4.3-9.61,9.61-9.61h19.8
	c5.31,0,9.61,4.3,9.61,9.61v16.31C622.66,1142.88,618.36,1147.19,613.06,1147.19z"/>
<path class="st8" d="M367.03,1151.54h-24.65c-6.61,0-11.96-5.36-11.96-11.96v-20.3c0-6.61,5.36-11.96,11.96-11.96h24.65
	c6.61,0,11.96,5.36,11.96,11.96v20.3C378.99,1146.18,373.63,1151.54,367.03,1151.54z"/>
<path class="st13" d="M364.6,1147.19h-19.8c-5.31,0-9.61-4.3-9.61-9.61v-16.31c0-5.31,4.3-9.61,9.61-9.61h19.8
	c5.31,0,9.61,4.3,9.61,9.61v16.31C374.21,1142.88,369.91,1147.19,364.6,1147.19z"/>
<path class="st8" d="M315.62,1151.54h-24.65c-6.61,0-11.96-5.36-11.96-11.96v-20.3c0-6.61,5.36-11.96,11.96-11.96h24.65
	c6.61,0,11.96,5.36,11.96,11.96v20.3C327.59,1146.18,322.23,1151.54,315.62,1151.54z"/>
<path class="st13" d="M313.2,1147.19h-19.8c-5.31,0-9.61-4.3-9.61-9.61v-16.31c0-5.31,4.3-9.61,9.61-9.61h19.8
	c5.31,0,9.61,4.3,9.61,9.61v16.31C322.81,1142.88,318.51,1147.19,313.2,1147.19z"/>
<rect x="478.54" y="1085.22" class="st12" width="88.55" height="91.85"/>
<g>
	<g>
		<g>
			<rect x="527.42" y="1161.01" class="st5" width="34.1" height="11.55"/>
		</g>
		<g>
			<rect x="527.42" y="1137.21" class="st5" width="34.1" height="11.55"/>
		</g>
		<g>
			<rect x="527.42" y="1113.41" class="st5" width="34.1" height="11.55"/>
		</g>
		<g>
			<rect x="527.42" y="1089.62" class="st5" width="34.1" height="11.55"/>
		</g>
	</g>
</g>
<g>
	<g>
		<g>
			<rect x="484.59" y="1161.01" class="st5" width="34.1" height="11.55"/>
		</g>
		<g>
			<rect x="484.59" y="1137.21" class="st5" width="34.1" height="11.55"/>
		</g>
		<g>
			<rect x="484.59" y="1113.41" class="st5" width="34.1" height="11.55"/>
		</g>
		<g>
			<rect x="484.59" y="1089.62" class="st5" width="34.1" height="11.55"/>
		</g>
	</g>
</g>
<rect x="390.01" y="1085.22" class="st13" width="88.55" height="91.85"/>
<g>
	<g>
		<g>
			<rect x="438.9" y="1161.01" class="st5" width="34.1" height="11.55"/>
		</g>
		<g>
			<rect x="438.9" y="1137.21" class="st5" width="34.1" height="11.55"/>
		</g>
		<g>
			<rect x="438.9" y="1113.41" class="st5" width="34.1" height="11.55"/>
		</g>
		<g>
			<rect x="438.9" y="1089.62" class="st5" width="34.1" height="11.55"/>
		</g>
	</g>
</g>
<g>
	<g>
		<g>
			<rect x="396.06" y="1161.01" class="st5" width="34.1" height="11.55"/>
		</g>
		<g>
			<rect x="396.06" y="1137.21" class="st5" width="34.1" height="11.55"/>
		</g>
		<g>
			<rect x="396.06" y="1113.41" class="st5" width="34.1" height="11.55"/>
		</g>
		<g>
			<rect x="396.06" y="1089.62" class="st5" width="34.1" height="11.55"/>
		</g>
	</g>
</g>
<polygon class="st11" points="1722.3,1034.01 692.37,1027.19 957.85,862.35 1594.89,864.25 "/>
<polygon class="st14" points="1251.59,882.55 1222.17,909.08 1114.57,1006.16 1102.89,1016.7 735.19,1016.7 876.32,927.88 
	906.19,909.08 929.47,894.43 954.19,878.88 990.6,879.32 990.61,879.32 1058.89,880.16 1066.85,880.26 1095.66,880.62 
	1183.73,881.7 1212.55,882.06 "/>
<polygon class="st15" points="1280.96,878.88 1541.65,878.88 1607.74,1016.7 1146.95,1016.7 "/>
<polygon class="st16" points="1335.55,819.78 1315.24,828.56 1099.43,827.9 989.61,827.57 1009.92,819.78 "/>
<polygon class="st17" points="1335.55,863.44 1107.67,861.94 1009.92,861.3 989.61,842.84 1099.43,842.95 1315.24,843.17 "/>
<rect x="989.61" y="827.57" class="st18" width="325.63" height="15.26"/>
<rect x="1955.43" y="1177.55" class="st12" width="53.43" height="36.12"/>
<polygon class="st4" points="894.15,1237.64 340.36,1237.64 279.01,1213.66 894.15,1213.66 "/>
<polygon class="st19" points="1327.89,843.21 1336.13,861.94 1238.38,861.3 1218.07,842.84 1218.07,827.57 1238.38,819.78 
	1337.96,819.78 1327.89,827.57 "/>
<polygon class="st20" points="1099.43,843.21 1107.67,861.94 1009.92,861.3 989.61,842.84 989.61,827.57 1009.92,819.78 
	1109.5,819.78 1099.43,827.57 "/>
<polygon class="st19" points="1355.34,819.78 1355.34,863.34 1335.55,863.44 1315.17,843.38 1315.17,827.76 1335.47,819.78 "/>
<polygon class="st21" points="1251.59,882.55 1222.17,909.08 906.19,909.08 954.19,878.88 "/>
<polygon class="st22" points="983.5,1016.7 915.58,1016.7 876.32,927.88 906.19,909.08 929.47,894.43 "/>
<polygon class="st22" points="1114.57,1006.16 1102.89,1016.7 1051.31,1016.7 990.61,879.32 1058.89,880.16 "/>
<text transform="matrix(1 0 0 1 1218.0732 1139.1165)" class="st23 st24">POLICE</text>
<rect x="1291.31" y="1029.11" class="st3" width="64.03" height="13.5"/>
<g>
	<path class="st25" d="M1485.7,1298.82c0,0-34.59,27.7-67.79,21.49C1417.91,1320.31,1457.59,1249.15,1485.7,1298.82z"/>
	<path class="st25" d="M1306.71,1327.48c0,0,48.3,12.98,59.49,0C1366.2,1327.48,1360.27,1256.36,1306.71,1327.48z"/>
	<path class="st8" d="M1556.15,879.66c2.84-6.1,0.2-13.35-5.9-16.19c-6.1-2.84-13.35-0.2-16.19,5.9l-82.6,78.32l7.86,13.91
		l89.05-75.35C1551.67,885.33,1554.58,883.02,1556.15,879.66z"/>
	<path class="st26" d="M1501.25,898.54l-1.64,3.6l-7.74,16.98l-119.53-6.57l-12.56-0.68c0,0-21.69-34.17-20.29-36.93
		c1.37-2.71,0.52-156.16,0.47-163.36c0-0.17,0-0.26,0-0.26s6.03-3.17,13.95-7.07c10.5-5.17,24.34-11.63,31.94-13.7
		c2.26-0.62,3.95-0.85,4.86-0.54l9.06-17.98c0.01-0.01,0.01-0.02,0.01-0.02l51.3,0.16c0,0,0.14,0.22,0.38,0.64
		c1.41,2.41,6.02,11.49,3.01,21.56c0,0,0.2,0.1,0.58,0.27c4.69,2.25,36.53,17.64,41.64,23.44c0,0,0.03,0.56,0.07,1.61
		c0.39,9.34,2.26,57.41,1.25,87.96c-0.29,8.78-0.82,16.1-1.69,20.66l-2.15,19.4C1494.18,847.71,1505.58,894.76,1501.25,898.54z"/>
	<path class="st27" d="M1501.25,898.8l-1.64,3.33l-5.34-0.86l-15.02-30.01l15.67-56.21l3.11-0.46c-0.29,8.13-0.82,14.92-1.69,19.14
		l-2.15,17.98C1494.18,851.71,1505.58,895.3,1501.25,898.8z"/>
	<path class="st27" d="M1435.39,895.08l-63.05,17.48l-12.55-0.69c0,0-21.69-34.17-20.29-36.93c1.37-2.71,0.52-156.16,0.48-163.36
		c0-0.17,0-0.26,0-0.26s6.03-3.17,13.95-7.07l2.83,12.43l10.58,112.88l11.85,38.42l21.54,15.22l-15.3,10.87L1435.39,895.08z"/>
	<path class="st27" d="M1453.83,898.16h-3.05c-6.15,0-11.24-4.79-11.6-10.94l-9.71-164.8h8.22l8.24,22.4
		c2.12,5.77,3.57,11.76,4.33,17.86l15.12,122.44C1466.22,892.05,1460.82,898.16,1453.83,898.16z"/>
	<path class="st8" d="M1455.76,898.16h-3.05c-6.15,0-11.24-4.79-11.6-10.94l-9.71-164.8h8.22l8.24,22.4
		c2.12,5.77,3.57,11.76,4.33,17.86l15.12,122.44C1468.15,892.05,1462.74,898.16,1455.76,898.16z"/>
	<path class="st8" d="M1363.87,1351.41c0.03,1.01,0.01,1.98-0.07,2.89c-1.92,26.4-42.32,16.64-42.32,16.64
		c-10.96-4.46-14.26-11.8-14.37-18.9c-0.14-10.13,6.24-19.75,6.24-19.75v-11.72c26.78-37.9,46.84-3.29,46.84-3.29l0.36,18.33
		C1366.78,1340.61,1363.87,1351.41,1363.87,1351.41z"/>
	<path class="st8" d="M1519.2,1345.73c-24.73,15.81-61.67-8.49-63.41-9.65c-0.02-0.02-0.05-0.03-0.07-0.04l-3.91,4.99
		c-23.86,3.33-29.47-6.65-29.47-6.65v-16.84c23.15-43.44,58.83-24.26,58.83-24.26c0.16,9.61,21.51,27.31,21.51,27.31
		c14.03-0.57,18.97,7.82,20.69,14.19c0.06,0.23,0.12,0.46,0.16,0.7C1524.31,1339.45,1522.63,1343.54,1519.2,1345.73z"/>
	<path class="st28" d="M1360.16,911.96"/>
	<path class="st8" d="M1484.43,1280.02l1.27,18.79c-14.11-18.8-67.79,21.49-67.79,21.49l0.73-30.61l3.69-153.87l-5.28-77.02
		l-48.4,246.35l-2.46,22.31c-21.55-48.35-59.49,0-59.49,0l4.08-32.3l19.2-152.17l25.31-207.38l0.88-7.16l1.67-13.68l0.91-7.42
		l142.83-9.21l0.74,8.84l0.94,11.22c0.09,0.62,0.17,1.25,0.25,1.87C1517.4,1025.24,1484.43,1280.02,1484.43,1280.02z"/>
	<g>
		<path class="st8" d="M1451.54,1004.2c0,0-8.16-22.22-34.48,54.61"/>
		<path class="st29" d="M1451.54,1004.2c-0.7-1.3-1.89-2.43-3.24-2.53c-1.33-0.09-2.6,0.62-3.65,1.55
			c-2.12,1.89-3.78,4.35-5.32,6.84c-1.49,2.53-2.93,5.11-4.22,7.78l-1.95,4l-1.85,4.06l-1.83,4.07l-1.76,4.11l-3.51,8.24
			c-2.34,5.5-4.62,11.04-7.15,16.5c1.4-5.85,3.08-11.62,5.05-17.3c0.47-1.43,0.96-2.85,1.5-4.25c0.53-1.41,1.03-2.82,1.58-4.22
			l1.7-4.18l1.79-4.15c2.52-5.48,5.27-10.89,8.79-15.89c1.77-2.48,3.76-4.89,6.35-6.73l1.04-0.61c0.38-0.15,0.73-0.35,1.13-0.46
			c0.78-0.25,1.65-0.34,2.47-0.13c0.82,0.2,1.52,0.7,2.02,1.29C1450.96,1002.79,1451.32,1003.48,1451.54,1004.2z"/>
	</g>
	<path class="st29" d="M1503.52,920.1l-147.34,8.37l1.67-13.68l0.91-7.42l142.83-9.21l0.74,8.84l0.94,11.22
		C1503.35,918.85,1503.44,919.48,1503.52,920.1z"/>
	<path class="st25" d="M1363.8,1354.31c-1.92,26.4-42.32,16.64-42.32,16.64c-10.96-4.46-14.26-11.8-14.37-18.9
		C1315.55,1361.05,1334.99,1374.86,1363.8,1354.31z"/>
	<path class="st25" d="M1422.34,1327.63c10.35,4.09,33.38,8.41,33.38,8.41l-3.91,4.99c-23.86,3.33-29.47-6.65-29.47-6.65V1327.63z"
		/>
	<path class="st25" d="M1519.2,1345.73c-24.73,15.81-61.67-8.49-63.41-9.65c34.25,17.25,59.18,4.98,67.75-0.6
		C1524.31,1339.45,1522.63,1343.54,1519.2,1345.73z"/>
	<polygon class="st30" points="1475.71,923.54 1416.51,924.45 1419.19,897.36 1478.23,894.08 	"/>
	<path class="st26" d="M1367.43,800.86c-1.49,8.69-3.42,13.92-3.42,13.92c-34.66,6.24-67.24-22.18-67.24-22.18l7.77-14.58
		l8.86-16.62c0.69-25.65,26.28-49.92,26.28-49.92c20.04-2.77,20.48,24.97,20.48,24.97C1371.2,762.06,1369.93,786.31,1367.43,800.86z
		"/>
	<path class="st26" d="M1529.71,791.21c0,0-1.39,13.58-33.28,24.46c0,0-0.39-6.62-0.83-16.43c-1.13-25.21-2.67-71.54,0.83-81.51
		c0,0,19.85,39.27,28.91,60.95C1527.76,784.48,1529.42,789.01,1529.71,791.21z"/>
	<path class="st26" d="M1347.48,947.01l-16.87-3.68c-5.7-1.24-9.43-6.73-8.49-12.48l6.74-29.06l35.68,1.12l-1.52,32.19
		C1362.65,943.02,1355.23,948.71,1347.48,947.01z"/>
	<g>
		<path class="st27" d="M1358.02,910.09c0.36,1.37,0.6,2.75,0.87,4.14c0.1,1.4,0.19,2.8,0.26,4.2c0.13,2.8,0.19,5.61,0.1,8.43
			c-0.09,2.81-0.28,5.63-0.81,8.42c-0.27,1.39-0.61,2.78-1.16,4.13c-0.69,1.26-1.59,2.52-2.88,3.16c1.05-0.96,1.62-2.22,1.99-3.53
			c0.51-1.25,0.84-2.59,1.11-3.94c0.51-2.71,0.71-5.49,0.79-8.27c0.08-2.78,0.03-5.57-0.1-8.35c-0.07-1.39-0.15-2.78-0.26-4.17
			L1358.02,910.09z"/>
	</g>
	<path class="st27" d="M1329.39,891.61l6.4-4.09c3.25-2.08,7.3-2.47,10.89-1.06l10.15,3.99c4.03,1.59,6.44,5.74,5.81,10.03
		l1.75,5.62c-1.94,4.72-10.32,9.7-15.04,7.77l-18.81-7.72c-0.59-0.24-1.14-0.54-1.65-0.88
		C1324.08,902.02,1324.5,894.73,1329.39,891.61"/>
	<path class="st8" d="M1329.39,889.68l6.4-4.09c3.25-2.08,7.3-2.47,10.89-1.06l10.15,3.99c4.03,1.59,6.44,5.74,5.81,10.03l1.75,7.55
		c-1.94,4.72-10.32,7.78-15.04,5.84l-18.81-7.72c-0.59-0.24-1.14-0.54-1.65-0.88C1324.08,900.09,1324.5,892.8,1329.39,889.68"/>
	<path class="st31" d="M1443.53,898.7l-13.94,37.64c0,0-3.79-2.64-7.97-6.01c-0.4-0.32-0.79-0.65-1.2-0.97
		c-4.73-3.91-9.57-8.5-9.72-11.09c0,0-6.25-1.22-15.7-3.53c-2.55-0.62-5.32-1.32-8.27-2.09c-30.69-8.1-80.09-24.5-81.12-46.47
		l1.27-66.49l55.34,15.81c0,0-4.22,28.1-9.64,33.82c0,0,30.06,20.74,48.14,33.89c3.26,2.38,6.13,4.5,8.37,6.21
		c1.59,1.22,2.86,2.23,3.72,2.97c0,0,2.7,1.49,7.05,3.06c0.02,0,0.05,0.01,0.07,0.02C1425.73,897.53,1434.43,899.73,1443.53,898.7z"
		/>
	<path class="st31" d="M1540.59,862.7c0,0-16.49,9.01-52.23,41.19c0,0-16.95,13.41-20.68,20.87c0,0-12.55,13.57-14.92,13.57
		c0,0-10.45,8.02-15.82,9.07c-0.08-0.03-0.15-0.06-0.22-0.09c0,0-9.19-0.06-7.32-4.51c-0.12,0.03-0.95,0.31-2.11,0.62
		c0.03-0.2,0.1-0.4,0.18-0.62c-0.23,0.07-3.48,1.15-6.3,1.38c-0.01,0-0.01,0-0.02,0c-1.75-0.22-2.79-1.13-1.73-3.48
		c0,0-5.43-0.56-3.05-4.18c0,0,2.38-2.37,5.24-6.19c-0.4-0.32-0.79-0.65-1.2-0.97c2.54-3.52,5.3-8.08,7.06-13.08
		c0,0,9.43-15.46,13.65-16.7c0,0-17.4,0.82-20.98-3.59c-0.03-0.02-0.05-0.04-0.06-0.07c-0.03-0.05-0.15-0.23-0.16-0.47
		c-0.01-0.09,0.01-0.17,0.05-0.28c0,0,0.02-0.01,0.01-0.02c0.22-0.48,1.14-1.03,4.1-1.09h0.06c2.14-0.05,5.34,0.16,10.09,0.83
		c0,0,18.54,2.23,26.48,5.19c0,0,1.11-0.72,1.45-1.2c4.23-6.08,37.65-48.32,44.25-50.84l-8.95-5.43l-0.02-0.02l-1.64-15.03
		l0.63-11.89l30.24-19.65C1529.52,804.06,1541.15,855.81,1540.59,862.7z"/>
	<path class="st31" d="M1542.52,862.7c0,0-0.67,6.52-52.23,41.19c0,0-16.95,13.41-20.68,20.87c0,0-12.55,13.57-14.92,13.57
		c0,0-13.61,10.45-17.75,9.07c-0.08-0.03-0.15-0.06-0.22-0.09c0,0-9.19-0.06-7.32-4.51c-0.12,0.03-0.95,0.31-2.11,0.62
		c-1.78,0.45-4.31,0.97-6.11,0.76c-0.01,0-0.01,0-0.02,0c-1.75-0.22-2.79-1.13-1.73-3.48c0,0-5.43-0.56-3.05-4.18
		c0,0,2.38-2.37,5.24-6.19c2.73-3.64,5.87-8.58,7.79-14.05c0,0,9.2-15.68,13.94-17.41c0,0-19.03,1.22-23.2-2.88
		c-0.03-0.02-0.05-0.04-0.06-0.07c-0.09-0.08-0.16-0.16-0.23-0.25c0,0-0.03-0.1,0-0.24c0.01-0.07,0.05-0.16,0.12-0.26
		c0,0,0.02-0.01,0.01-0.02c0.33-0.41,1.29-0.96,4.1-1.09h0.06c2.35-0.11,5.98,0.08,11.56,0.86c0,0,15.14-1.22,23.67,2.66
		c0.49,0.23,0.97,0.47,1.42,0.73c0,0,33.57-48.5,40.69-51.21l-4.03-4.49l-0.02-0.02l-2.3-2.57l0.67-12.47l0.47-8.88l0.15-3.01
		l30.24-19.65l1.56-1.01c0,0,0.09,0.36,0.26,1.01C1530.57,804.19,1544.45,859.16,1542.52,862.7z"/>
	<path class="st31" d="M1528.49,796.02c0,0-5.04,14.1-32.22,22.66l0.15-3.01l30.24-19.65l1.56-1.01
		C1528.23,795.01,1528.32,795.36,1528.49,796.02z"/>
	<g>
		<path class="st27" d="M1415.77,772.67c0.2,5.05,0.33,10.09,0.48,15.14c-0.02,5.06,0.04,10.07-0.04,15.16
			c-0.18,5.22-3.27,10.2-7.79,12.78c-2.23,1.34-4.84,2.02-7.43,2.11c-2.55,0.04-5.05,0.01-7.58,0.02c-2.53-0.01-5.03,0.02-7.58-0.02
			c-2.59-0.09-5.2-0.76-7.43-2.11c-4.52-2.58-7.61-7.56-7.79-12.78c-0.08-5.09-0.02-10.1-0.04-15.16l0.48-15.14l0.48,15.14
			c0.02,5.03-0.04,10.12,0.04,15.11c0.17,4.9,3.07,9.57,7.31,11.99c2.1,1.26,4.54,1.89,6.97,1.98c2.5,0.04,5.04,0.01,7.55,0.02
			c2.52-0.01,5.06,0.02,7.55-0.02c2.43-0.09,4.88-0.71,6.97-1.98c4.25-2.42,7.14-7.1,7.31-11.99c0.08-5,0.02-10.08,0.04-15.11
			C1415.45,782.77,1415.57,777.72,1415.77,772.67z"/>
	</g>
	<g>
		<path class="st27" d="M1371.05,772.67c1.86-0.2,3.73-0.33,5.59-0.49l5.59,0h11.18h11.18h5.59c1.86,0.16,3.73,0.29,5.59,0.48
			c-1.86,0.2-3.73,0.32-5.59,0.48h-5.59h-11.18h-11.18l-5.59,0C1374.78,773,1372.92,772.88,1371.05,772.67z"/>
	</g>
	<path class="st26" d="M1371.21,774.6c0,0,18.39,5.02,21.32,10.24c0,0,13.69-12.12,23.25-9.4v-17.97h-44.57V774.6z"/>
	<g>
		<g>
			<path class="st27" d="M1371.25,772.64c1.9,0.43,3.85,1.02,5.76,1.61c1.91,0.6,3.8,1.27,5.67,2c1.87,0.73,3.71,1.55,5.48,2.53
				c0.88,0.5,1.75,1.03,2.57,1.65c0.81,0.63,1.6,1.33,2.17,2.28l-0.65-0.11c1.65-1.45,3.41-2.72,5.21-3.94
				c1.8-1.22,3.71-2.29,5.68-3.22c1.97-0.92,4.03-1.69,6.17-2.13c2.13-0.44,4.38-0.55,6.51,0.05l-0.2,0.15
				c0.03-5.99-0.06-11.98-0.15-17.97l0.3,0.3c-7.43,0.12-14.86,0.17-22.28,0.2l-11.14-0.02c-3.71,0-7.43-0.07-11.14-0.1l0.39-0.39
				c-0.02,2.82-0.1,5.64-0.15,8.49L1371.25,772.64z M1371.17,772.7l-0.2-8.52c-0.05-2.87-0.13-5.75-0.15-8.65l0-0.38l0.39,0
				c3.71-0.03,7.43-0.1,11.14-0.1l11.14-0.02c7.43,0.04,14.86,0.09,22.28,0.2l0.31,0l0,0.3c-0.09,5.99-0.18,11.98-0.15,17.97l0,0.21
				l-0.2-0.05c-2.06-0.54-4.26-0.44-6.33,0.07c-2.08,0.5-4.07,1.33-5.98,2.3c-3.8,1.98-7.35,4.45-10.62,7.2l-0.39,0.33l-0.25-0.44
				c-0.45-0.78-1.17-1.46-1.93-2.05c-0.77-0.6-1.6-1.13-2.45-1.62c-1.72-0.97-3.52-1.81-5.35-2.61c-1.83-0.79-3.69-1.5-5.57-2.18
				C1374.98,773.96,1373.12,773.35,1371.17,772.7z"/>
		</g>
	</g>
	<g>
		<g>
			<path class="st32" d="M1392.94,775.29c3.1,0,3.11-4.82,0-4.82C1389.84,770.47,1389.84,775.29,1392.94,775.29L1392.94,775.29z"/>
		</g>
	</g>
	<g>
		<g>
			<path class="st32" d="M1489.52,773.57c3.1,0,3.11-4.82,0-4.82C1486.42,768.74,1486.42,773.57,1489.52,773.57L1489.52,773.57z"/>
		</g>
	</g>
	<g>
		<path class="st27" d="M1494.66,772.67l-1.74,3.31l-0.85,1.66c-0.27,0.55-0.55,1.13-0.74,1.66l-0.23,0.63l-0.44-0.58
			c-1.38-1.81-3.08-3.48-4.99-4.81c-1.91-1.34-4.04-2.35-6.26-3.09c-1.13-0.3-2.25-0.66-3.41-0.81c-1.15-0.25-2.32-0.32-3.49-0.41
			c-1.17-0.11-2.35-0.01-3.52-0.03c-1.17,0.08-2.34,0.22-3.52,0.32l-0.52,0.05l-0.03-0.49l-0.91-14.5l-0.03-0.51h0.51h14.89
			c2.48,0,4.96-0.05,7.44,0.12l7.44,0.36l-7.44,0.36c-2.48,0.17-4.96,0.12-7.44,0.12h-14.89l0.48-0.51l0.91,14.5l-0.55-0.45
			c1.2-0.11,2.4-0.25,3.6-0.33c1.21,0.02,2.42-0.08,3.62,0.03c1.21,0.09,2.42,0.17,3.6,0.43c1.2,0.16,2.36,0.53,3.54,0.85
			c2.3,0.77,4.52,1.82,6.52,3.22c1.02,0.67,1.93,1.49,2.82,2.32c0.88,0.86,1.61,1.83,2.25,2.91l-0.67,0.06
			c0.29-0.62,0.61-1.13,0.94-1.67l1-1.59C1493.25,774.73,1493.95,773.7,1494.66,772.67z"/>
	</g>
	<g>
		<path class="st27" d="M1496.36,814.59c-2.93,0.2-5.87,0.37-8.8,0.49l-8.8-0.01c-1.44,0.01-3.01,0.04-4.49-0.37
			c-1.48-0.37-2.89-1.02-4.14-1.9c-2.5-1.76-4.31-4.47-4.93-7.47c-0.16-0.75-0.25-1.51-0.27-2.27l-0.01-2.21v-4.4v-8.8l0.01-8.8
			c0.16-2.93,0.28-5.87,0.47-8.8c0.19,2.93,0.31,5.87,0.47,8.8l0.01,8.8v8.8v4.4c0.01,1.49-0.07,2.91,0.25,4.28
			c0.58,2.76,2.25,5.26,4.55,6.89c1.15,0.81,2.45,1.41,3.81,1.75c1.37,0.37,2.77,0.35,4.26,0.34l8.8-0.01
			C1490.5,814.22,1493.43,814.39,1496.36,814.59z"/>
	</g>
	<path class="st27" d="M1381.17,701.72c-2.72,2.03-5.75,3.6-8.89,4.88c-5.89,2.41-13.06,7.97-15.81,10.18
		c-0.73,0.59-1.15,0.95-1.15,0.95l-2.89,0.8c-3.47-4.23-7.69-6.89-12.76-7.05c0,0,0.03-0.02,0.1-0.05
		c1.92-1.01,32.82-17.31,45.72-20.88C1391.76,692.56,1386.22,697.96,1381.17,701.72z"/>
	<path class="st27" d="M1496.5,719.34l-1.48,6.77l-27.22-18.48c-19.26-7.7-13.65-13.48-13.65-13.48s36.75,17.33,42.3,23.58
		C1496.43,717.73,1496.46,718.28,1496.5,719.34z"/>
	<rect x="1408.36" y="662.06" class="st31" width="37.25" height="48.07"/>
	<polygon class="st27" points="1437.69,722.43 1429.47,722.43 1417.33,705.15 1444.85,705.15 	"/>
	<polygon class="st8" points="1439.62,722.43 1431.4,722.43 1419.26,705.15 1446.78,705.15 	"/>
	<path class="st27" d="M1428.71,705.14l-10.68,18.92c0,0-26.33-27.34-27.68-34.07l9.01-18c-0.09,0.48-1.91,10.08,4.05,14.54
		C1403.41,686.53,1430.25,700.85,1428.71,705.14z"/>
	<path class="st27" d="M1454.13,694.15c0,0,0.2,0.1,0.58,0.27l-3.48,32.48l-14.88-23.78c14.97-10.14,15.36-24.35,14.7-30.52
		C1452.46,675.01,1457.1,684.07,1454.13,694.15z"/>
	
		<rect x="1430.71" y="757.07" transform="matrix(0.9966 -0.0818 0.0818 0.9966 -57.2533 120.5813)" class="st30" width="24.6" height="3.93"/>
	<g>
		<path class="st31" d="M1458.2,641.15c0,0.66-0.01,1.31-0.02,1.96c-0.15,7.05-1.12,13.47-2.92,19.04
			c-4.43,13.73-13.87,22.25-28.36,22.25c-13.82,0-23.54-7.59-28.53-20.1c-2.15-5.36-3.42-11.64-3.78-18.6
			c-0.07-1.36-0.11-2.75-0.11-4.17c0-4.63-4.87-12.41-3.83-16.62c4.68-19.02,19.14-32.87,36.25-32.87
			c17.12,0,31.57,13.85,36.26,32.87C1464.19,629.13,1458.2,636.51,1458.2,641.15z"/>
		<path class="st33" d="M1426.9,572.86c-21.6,0-39.12,13.87-39.12,36.59c0,5.47,1.01,10.69,2.86,15.47
			c2.45-9.94,7.57-18.47,14.34-24.35c4.06,2.21,11.43,3.69,19.85,3.69c10.3,0,19.03-2.21,22.04-5.27
			c7.74,5.87,13.61,15.06,16.28,25.93c1.85-4.78,2.86-9.99,2.86-15.47C1466.02,586.73,1448.5,572.86,1426.9,572.86z"/>
		<g>
			<path class="st34" d="M1458.18,643.11c-0.15,7.05-1.12,13.47-2.92,19.04c-4.13,0.13-8.05-2.39-9.52-6.49
				c-1.83-5.09,0.82-10.7,5.91-12.52C1453.84,642.35,1456.14,642.39,1458.18,643.11z"/>
		</g>
		<g>
			<path class="st34" d="M1402.15,663.74c-1.25,0.45-2.54,0.63-3.79,0.57c-2.15-5.36-3.42-11.64-3.78-18.6
				c0.31-0.15,0.63-0.29,0.96-0.41c5.09-1.83,10.7,0.82,12.52,5.91C1409.89,656.31,1407.24,661.91,1402.15,663.74z"/>
		</g>
		<path class="st33" d="M1462.9,652.6c0,17.14-21.4,37.35-36.14,37.35c-14.74,0-36.14-19.7-36.14-36.84c0-4.47,1.45-8.32,3.86-11.57
			c0.12,10.78,5.6,19.44,12.34,19.44c2.62,0,5.05-1.31,7.05-3.54c0.58-1.08,1.29-2.07,2.09-2.97c2.7-3,6.54-4.88,10.79-4.88
			c3.45,0,6.63,1.24,9.15,3.31l0.01,0.01c1.92,1.57,3.46,3.63,4.44,6c1.66,1.33,3.52,2.08,5.5,2.08c6.82,0,12.35-8.87,12.35-19.83
			c0-0.37-0.01-0.73-0.02-1.09C1461.1,643.47,1462.9,647.63,1462.9,652.6z"/>
		<path class="st9" d="M1426.79,661.25h10.14c0,3.45-4.58,6.29-10.14,6.29c-5.56,0-10.14-2.84-10.14-6.29c0-0.01,0-0.03,0-0.04
			L1426.79,661.25z"/>
		<g>
			<g>
				<path class="st31" d="M1378.18,632.79c0,4.61,6.12,7.54,10.77,7.54c4.65,0,8.43-3.74,8.43-8.35s-9.07-11.3-13.73-11.3
					S1378.18,628.17,1378.18,632.79z"/>
			</g>
			<g>
				<path class="st34" d="M1392.18,636.96c0,0-0.41-11.41-6.45-9.83"/>
			</g>
		</g>
		<g>
			<g>
				<path class="st31" d="M1476.69,632.79c0,4.61-6.12,7.54-10.77,7.54s-8.43-3.74-8.43-8.35s9.07-11.3,13.73-11.3
					C1475.88,620.67,1476.69,628.17,1476.69,632.79z"/>
			</g>
			<g>
				<path class="st34" d="M1462.7,636.96c0,0,0.41-11.41,6.45-9.83"/>
			</g>
		</g>
		<polyline class="st34" points="1429.05,627.96 1431.69,641.79 1426.79,642.56 1423.38,642.56 1426.79,627.96 		"/>
	</g>
	<g>
		<path class="st8" d="M1390.07,599.6c0,0,36.36,22.59,73.37-0.83C1463.44,598.77,1438.48,574.84,1390.07,599.6z"/>
		<path class="st35" d="M1373.58,567.93"/>
		<path class="st27" d="M1479.75,586.42l-13.31,15.95c-23.75-18.82-53.38-10.16-68.49-3.59l-9.54-0.5c0,0-21.61-7.35-15.61-27.68
			c0.29-0.97,0.55-1.86,0.79-2.66c1.99-3.59,34.77-28.31,57.82-29.52C1431.4,538.41,1501.3,563.38,1479.75,586.42z"/>
		<path class="st26" d="M1465.44,583.32l1,19.04c-23.75-18.82-53.38-10.16-68.49-3.59c-6.13,2.66-9.87,4.97-9.87,4.97l0.33-5.48
			l0.65-10.95C1432.12,552.02,1465.44,583.32,1465.44,583.32z"/>
		<g>
			<path class="st27" d="M1409.58,556.24c-1.63,0.81-3.23,1.64-4.79,2.55c-1.62,0.77-3.21,1.61-4.75,2.53
				c-3.07,1.84-6,3.96-8.44,6.55c-2.4,2.58-4.34,5.73-4.76,9.22c-0.2,1.73-0.02,3.49,0.44,5.18c0.28,1.75,1.04,3.39,1.77,5.05
				c-0.5-0.75-1.11-1.46-1.51-2.28l-0.66-1.22l-0.53-1.29c-0.49-1.8-0.69-3.69-0.47-5.56c0.45-3.77,2.52-7.09,5.01-9.76
				c2.53-2.68,5.53-4.85,8.65-6.72c1.57-0.93,3.19-1.78,4.83-2.57C1406.08,557.28,1407.8,556.66,1409.58,556.24z"/>
		</g>
		<g>
			<path class="st27" d="M1454.65,559.33c1.28,0.47,2.5,1.07,3.73,1.68c1.13,0.75,2.25,1.53,3.32,2.37c2.15,1.66,4.2,3.51,5.89,5.7
				c0.85,1.09,1.59,2.28,2.11,3.59c0.52,1.3,0.79,2.75,0.62,4.19c-0.16,1.44-0.77,2.79-1.6,3.93l-0.74,0.75l-0.82,0.65
				c-0.52,0.45-1.15,0.76-1.72,1.12c0.93-0.99,1.9-1.94,2.5-3.1c0.75-1.03,1.28-2.22,1.42-3.47c0.29-2.53-0.93-5.03-2.54-7.09
				c-1.62-2.08-3.6-3.89-5.71-5.52c-1.06-0.81-2.15-1.59-3.27-2.32C1456.81,560.96,1455.73,560.16,1454.65,559.33z"/>
		</g>
	</g>
	<path class="st27" d="M1369.07,784.84c0,0-1.49-47.93-16.63-66.32c-3.47-4.23-7.69-6.89-12.76-7.05c0,0,0.03-0.02,0.1-0.05
		c0.97-0.41,9.21-3.5,16.7,5.35C1363.49,725.04,1369.85,743.75,1369.07,784.84z"/>
	<path class="st27" d="M1496.5,719.34c0,0-5.79,0.87-1.72,58.48C1494.78,777.81,1493.21,722.23,1496.5,719.34z"/>
	<path class="st31" d="M1306.88,799.68c0,0,23.62,22.1,55.34,15.81l-4.46-14.15L1306.88,799.68z"/>
	<path class="st27" d="M1367.43,800.86c-1.49,8.69-3.42,13.92-3.42,13.92c-34.66,6.24-67.24-22.18-67.24-22.18l7.77-14.58
		L1367.43,800.86z"/>
	<path class="st27" d="M1529.71,791.21c0,0-1.39,13.58-33.28,24.46c0,0-0.39-6.62-0.83-16.43l29.74-20.57
		C1527.76,784.48,1529.42,789.01,1529.71,791.21z"/>
	<rect x="1371.05" y="743.85" class="st30" width="44.72" height="7.83"/>
	<path class="st31" d="M1419.43,940.7c0,0,14.71-7.32,17.46-13.92"/>
	<path class="st31" d="M1429.4,942.8c0,0,12.71-6.68,15.32-9.97"/>
	<path class="st31" d="M1436.72,947.31c0,0,11.03-6.3,12.67-9.5"/>
	<g>
		<path class="st29" d="M1477.64,980.53l1.61,40.98l1.45,40.99l1.45,40.99c0.51,13.66,0.9,27.33,1.32,40.99l0,0.02l0,0.02
			l-3.94,55.01l-2.01,27.5l-2.1,27.5l1.72-27.52l1.81-27.52l3.68-55.03l0,0.04c-0.48-13.66-0.99-27.32-1.38-40.99l-1.26-40.99
			l-1.26-40.99L1477.64,980.53z"/>
	</g>
	<g>
		<polygon class="st29" points="1393.41,991.91 1386.9,1027.23 1380.23,1062.53 1366.89,1133.12 1353.24,1203.65 1346.41,1238.92 
			1339.43,1274.15 1345.95,1238.83 1352.61,1203.53 1365.95,1132.94 1379.6,1062.41 1386.43,1027.14 		"/>
	</g>
</g>
<path class="st9" d="M1925.12,620.49h135.02c0,0,29.55-24.68,0-34.9c0,0,0.45-29.62-34.55-21.15c0,0-35.01-42.31-69.1,1.76
	c0,0-24.55,0.04-21.37,17.12C1935.12,583.32,1886.93,589.47,1925.12,620.49z"/>
<path class="st9" d="M1267.83,342.51h135.02c0,0,29.55-24.68,0-34.9c0,0,0.45-29.62-34.55-21.15c0,0-35.01-42.31-69.1,1.76
	c0,0-24.55,0.04-21.37,17.12C1277.83,305.33,1229.64,311.48,1267.83,342.51z"/>
<path class="st9" d="M926.67,590.19h135.02c0,0,29.55-24.68,0-34.9c0,0,0.45-29.62-34.55-21.15c0,0-35.01-42.31-69.1,1.76
	c0,0-24.55,0.04-21.37,17.12C936.67,553.02,888.48,559.17,926.67,590.19z"/>
<path class="st30" d="M1429.22,564.93L1429.22,564.93c-5.28,0-9.56-4.28-9.56-9.56v-9.56h19.13v9.56
	C1438.78,560.65,1434.5,564.93,1429.22,564.93z"/>
<polygon class="st30" points="1484.99,753.55 1477.18,749.52 1469.43,753.68 1470.84,745 1464.49,738.92 1473.18,737.58 
	1477.01,729.66 1480.96,737.52 1489.68,738.71 1483.43,744.9 "/>
</svg>
