<?xml version="1.0" encoding="UTF-8"?>
<svg version="1.1" xmlns="http://www.w3.org/2000/svg" width="400" height="400">
<path d="M0 0 C-1.49769095 3.17892246 -3.30014583 6.01711031 -5.25 8.9375 C-10.41375609 16.99037223 -14.82303128 25.63903449 -17 35 C-17.99 35 -18.98 35 -20 35 C-21.5078125 33.4609375 -21.5078125 33.4609375 -23.125 31.375 C-30.98898723 22.04679757 -43.80118456 15.2405575 -56 14 C-72.36257132 12.98450508 -88.62223809 14.76584419 -101.625 25.875 C-102.40875 26.57625 -103.1925 27.2775 -104 28 C-104.66 28 -105.32 28 -106 28 C-106.26167969 28.58007812 -106.52335937 29.16015625 -106.79296875 29.7578125 C-108.06722702 32.12488126 -109.54221267 33.85742197 -111.3125 35.875 C-120.42205393 47.32375045 -122.39766216 62.81756876 -121 77 C-118.30799545 91.7458589 -109.37699637 104.42831003 -97.1796875 112.9765625 C-88.56765895 118.26070534 -79.16420692 122.23289004 -69 123 C-67.0509375 123.1546875 -67.0509375 123.1546875 -65.0625 123.3125 C-59.7144728 123.29399472 -54.69137794 121.79769348 -49.58422852 120.33520508 C-43.38755378 118.61537005 -43.38755378 118.61537005 -40 120 C-39.79246094 120.86238281 -39.58492188 121.72476563 -39.37109375 122.61328125 C-35.22161061 139.05495712 -29.16838208 154.28314242 -21.55639648 169.43554688 C-21.09563721 170.36302734 -20.63487793 171.29050781 -20.16015625 172.24609375 C-19.74386963 173.06779053 -19.32758301 173.8894873 -18.89868164 174.73608398 C-18 177 -18 177 -18 181 C-20.1328125 183.3046875 -20.1328125 183.3046875 -23.125 185.875 C-28.8334309 190.86618212 -34.18448531 196.12755489 -39.45361328 201.57958984 C-40.9333689 203.08891523 -42.46260568 204.54942822 -44 206 C-44.66 206 -45.32 206 -46 206 C-46.30703857 205.19892822 -46.61407715 204.39785645 -46.93041992 203.57250977 C-48.08998935 200.55675823 -49.255565 197.54341341 -50.42504883 194.53149414 C-50.92675725 193.23585584 -51.42617075 191.93932616 -51.9230957 190.6418457 C-56.48130453 177.07739231 -56.48130453 177.07739231 -65 166 C-67.50771153 165.06216904 -67.50771153 165.06216904 -70.3828125 164.421875 C-71.45966309 164.15181641 -72.53651367 163.88175781 -73.64599609 163.60351562 C-74.79406738 163.32185547 -75.94213867 163.04019531 -77.125 162.75 C-103.8395748 155.86302153 -129.8914271 143.83249413 -145.3125 119.6875 C-158.71060765 96.36385547 -164.72831615 68.97042705 -157.69213867 42.52856445 C-157.15610423 40.67736779 -156.5795771 38.83802949 -156 37 C-155.73445313 36.10925781 -155.46890625 35.21851563 -155.1953125 34.30078125 C-148.04773674 13.70895583 -131.65577366 -2.55012678 -113 -13 C-112.05125 -13.56074219 -111.1025 -14.12148437 -110.125 -14.69921875 C-74.09386867 -34.56638422 -30.64244387 -24.65090457 0 0 Z " fill="#4F2DE2" transform="translate(193,113)"/>
<path d="M0 0 C-0.32226562 1.13824219 -0.64453125 2.27648437 -0.9765625 3.44921875 C-2.09214321 7.93819707 -2.38295378 12.19930815 -2.375 16.8125 C-2.37628906 17.59496094 -2.37757813 18.37742187 -2.37890625 19.18359375 C-2.27425867 24.94872401 -1.23337496 29.72490633 1.125 35.03125 C2 37 2 37 2 39 C1.02160156 39.24234375 0.04320312 39.4846875 -0.96484375 39.734375 C-15.32882321 43.36985033 -28.32562536 48.1513371 -37 61 C-39.29495399 65.56297189 -41.22238268 70.21371429 -43 75 C-43.23879883 75.63454102 -43.47759766 76.26908203 -43.72363281 76.92285156 C-46.04263056 83.42394747 -47.39340844 90.09899378 -48.81658936 96.8425293 C-53.84636836 120.42957911 -60.6459676 141.53309585 -78 159 C-78.95738494 159.98272847 -79.91439984 160.96581754 -80.87109375 161.94921875 C-89.86881715 171.11603883 -89.86881715 171.11603883 -93 173 C-96 172 -96 172 -97.2109375 170.12890625 C-101.99366409 159.58443856 -108.67931529 143.7951907 -107 132 C-105.81032797 129.73272649 -104.43631821 127.99865134 -102.75 126.07421875 C-92.23331664 113.609132 -88.70190163 96.42643257 -86.140625 80.78515625 C-82.29114511 57.64184902 -74.91069068 38.68654309 -58 22 C-57.32066406 21.32195312 -56.64132813 20.64390625 -55.94140625 19.9453125 C-40.97370696 5.94226743 -20.14938273 0 0 0 Z " fill="#4F2DE2" transform="translate(271,90)"/>
<path d="M0 0 C0.41507813 0.3403125 0.83015625 0.680625 1.2578125 1.03125 C17.69424543 13.96032695 35.87642768 20.77237107 57 19 C66.51667072 17.58969819 74.87964809 14.06466855 83 9 C83.27972656 10.21171875 83.55945313 11.4234375 83.84765625 12.671875 C91.16700446 44.18625912 91.16700446 44.18625912 106.70214844 72.08007812 C107.13043945 72.71365234 107.55873047 73.34722656 108 74 C106.8940716 77.31778521 106.0802355 78.02499226 103.4609375 80.203125 C99.0651726 83.93393484 94.8334359 87.81001967 90.625 91.75 C89.55958984 92.73806641 89.55958984 92.73806641 88.47265625 93.74609375 C87.79332031 94.38160156 87.11398437 95.01710938 86.4140625 95.671875 C85.8051416 96.2400293 85.1962207 96.80818359 84.56884766 97.39355469 C82.78773241 99.11853456 82.78773241 99.11853456 81 102 C80.34 102 79.68 102 79 102 C78.69296143 101.23445801 78.38592285 100.46891602 78.06958008 99.68017578 C76.90804878 96.78998052 75.74271895 93.90135237 74.57495117 91.01367188 C73.8303113 89.16912046 73.08990772 87.32286065 72.34960938 85.4765625 C68.11086593 73.15746802 68.11086593 73.15746802 60.58203125 62.96484375 C57.61653688 61.85670894 54.80361853 61.14115638 51.6875 60.5625 C51.05577881 60.44108643 50.42405762 60.31967285 49.77319336 60.19458008 C45.60930422 59.4132699 41.43235276 58.75658669 37.2421875 58.1328125 C16.71515341 55.0312407 -1.63079044 49.87197043 -17 35 C-15.77783758 31.67778383 -14.41917508 29.02141086 -12.3125 26.1875 C-6.85925 18.24210136 -3.52570889 8.91796955 0 0 Z " fill="#4F2DE2" transform="translate(228,217)"/>
<path d="M0 0 C5.04103099 1.68034366 6.60656261 6.47301867 9 11 C10.92596317 14.92387323 12.52972109 18.88420251 14 23 C14.39574219 24.08925781 14.79148437 25.17851562 15.19921875 26.30078125 C20.57446424 43.85991651 20.68513481 65.82837921 14 83 C13.62617188 84.03382813 13.25234375 85.06765625 12.8671875 86.1328125 C7.20354569 100.79826911 -1.92058089 115.80990456 -15 125 C-15.66 125 -16.32 125 -17 125 C-20.98289648 116.85627696 -23.77936897 108.81888946 -25.875 100 C-26.08987061 99.10450439 -26.30474121 98.20900879 -26.52612305 97.28637695 C-28.15749216 90.11333926 -28.77488672 84.98920401 -25.625 78.125 C-19.55466002 64.16664761 -17.81001089 48.66825489 -23.40234375 34.140625 C-25.3897091 29.3269075 -27.64441278 24.64322481 -30 20 C-29.11699219 19.731875 -28.23398437 19.46375 -27.32421875 19.1875 C-15.9814056 15.48372428 -6.37059 10.54442483 0 0 Z " fill="#1BD17E" transform="translate(349,131)"/>
<path d="M0 0 C7.06457638 4.02067531 12.48803907 10.10781665 14.6875 18 C15.70666121 26.7258522 14.89584134 33.77637081 9.6875 41 C3.77592572 47.48898387 -2.77233693 50.50226943 -11.5078125 51.05859375 C-19.37576796 50.89422142 -25.65050071 47.28966827 -31.3125 42 C-37.21196172 34.39279936 -38.35958375 27.46784148 -37.3125 18 C-34.66892862 9.11022275 -28.83795661 3.69786837 -21.0625 -0.9375 C-13.82111967 -2.98922443 -6.94221912 -3.13246472 0 0 Z " fill="#1BD17E" transform="translate(323.3125,83)"/>
<path d="" fill="#4F2DE2" transform="translate(0,0)"/>
</svg>
