<?xml version="1.0" encoding="UTF-8"?>
<svg id="Layer_1" data-name="Layer 1" xmlns="http://www.w3.org/2000/svg" viewBox="0 0 606.91 184.82">
  <defs>
    <style>
      .cls-1 {
        fill: #565555;
      }

      .cls-1, .cls-2 {
        stroke-width: 0px;
      }

      .cls-2 {
        fill: #fbc531;
      }
    </style>
  </defs>
  <path class="cls-2" d="M7.28,10.55h-1.78l-1.94-7.64h3.23l.49,7.64ZM12.8,10.55h-1.78l-1.94-7.64h3.23l.49,7.64Z"/>
  <path class="cls-2" d="M42.73,3.82l-9.77,20.36h-3.13l-.6-16.86-7.9,16.86h-3.01l-.83-20.36h2.75l.54,16.9L28.74,3.82h2.75l.55,17.07L40.07,3.82h2.65Z"/>
  <path class="cls-2" d="M49.21,24.53c-2.11,0-3.77-.5-4.97-1.49-1.2-.99-1.8-2.45-1.8-4.36,0-2.8.88-5.2,2.65-7.2,1.77-2,3.95-3,6.56-3,1.73,0,3.06.43,3.98,1.29.92.86,1.38,2.07,1.38,3.63,0,.27-.04.71-.12,1.3-.08.59-.2,1.28-.38,2.06h-11.25c-.05.26-.09.52-.12.78-.02.26-.03.49-.03.71,0,1.29.39,2.29,1.18,3.03.78.73,1.9,1.1,3.34,1.1,1,0,2.03-.2,3.1-.59,1.06-.39,1.95-.83,2.67-1.33h.15l-.56,2.78c-.46.16-.87.31-1.23.45-.36.14-.83.27-1.39.41s-1.07.24-1.5.31c-.44.07-.98.11-1.64.11ZM54.35,14.88c.05-.26.08-.49.1-.67.02-.18.03-.38.03-.6,0-.98-.27-1.74-.8-2.28s-1.39-.82-2.56-.82c-1.29,0-2.44.4-3.45,1.2-1,.8-1.68,1.86-2.04,3.17h8.72Z"/>
  <path class="cls-2" d="M78.21,22.55c-.25.15-.58.35-1,.62-.42.27-.86.5-1.29.69-.46.21-.98.38-1.56.53-.57.14-1.23.21-1.98.21-1.21,0-2.2-.35-2.95-1.06s-1.13-1.63-1.13-2.77c0-1.21.27-2.24.8-3.07s1.32-1.52,2.37-2.04c1.03-.52,2.27-.9,3.72-1.13s3.11-.38,4.97-.43c.06-.25.1-.48.14-.66s.06-.38.06-.58c0-.44-.09-.79-.26-1.07-.17-.27-.42-.49-.74-.66-.32-.16-.69-.28-1.12-.33-.42-.06-.89-.09-1.4-.09-.78,0-1.66.13-2.66.38-.99.25-1.8.5-2.42.75h-.14l.51-2.57c.52-.14,1.28-.29,2.28-.46,1-.17,1.96-.26,2.88-.26,1.9,0,3.32.3,4.27.89.95.59,1.42,1.53,1.42,2.82,0,.25-.02.51-.06.79-.04.28-.09.54-.14.79l-2.39,10.36h-2.55l.37-1.63ZM79.7,16.13c-1.4.05-2.65.16-3.74.32-1.09.16-1.99.39-2.7.69-.74.3-1.3.71-1.68,1.22-.38.52-.57,1.16-.57,1.92,0,.66.22,1.16.67,1.5.45.35,1.14.52,2.08.52.83,0,1.67-.18,2.53-.55.86-.37,1.67-.81,2.41-1.33l1.01-4.29Z"/>
  <path class="cls-2" d="M97.66,11.61h-.14c-.36-.09-.7-.16-1.02-.2-.31-.04-.69-.06-1.14-.06-.86,0-1.7.19-2.55.58-.84.39-1.65.85-2.42,1.4l-2.48,10.85h-2.59l3.48-15.27h2.59l-.51,2.26c1.21-.85,2.24-1.44,3.08-1.76s1.65-.49,2.43-.49c.45,0,.77.01.97.03.2.02.49.07.88.13l-.59,2.54Z"/>
  <path class="cls-2" d="M104.5,24.53c-2.11,0-3.77-.5-4.97-1.49-1.2-.99-1.8-2.45-1.8-4.36,0-2.8.88-5.2,2.65-7.2,1.77-2,3.95-3,6.56-3,1.73,0,3.05.43,3.97,1.29s1.38,2.07,1.38,3.63c0,.27-.04.71-.12,1.3-.08.59-.2,1.28-.38,2.06h-11.25c-.05.26-.09.52-.12.78-.02.26-.03.49-.03.71,0,1.29.39,2.29,1.18,3.03.78.73,1.9,1.1,3.34,1.1,1,0,2.04-.2,3.1-.59,1.06-.39,1.95-.83,2.67-1.33h.15l-.56,2.78c-.46.16-.87.31-1.23.45s-.83.27-1.39.41c-.57.14-1.07.24-1.5.31-.44.07-.98.11-1.64.11ZM109.64,14.88c.05-.26.08-.49.1-.67.02-.18.03-.38.03-.6,0-.98-.27-1.74-.8-2.28s-1.39-.82-2.56-.82c-1.29,0-2.44.4-3.45,1.2-1,.8-1.68,1.86-2.04,3.17h8.72Z"/>
  <path class="cls-2" d="M130.42,24.52c-.97,0-1.82-.11-2.56-.34s-1.39-.59-1.95-1.08c-.54-.47-.95-1.07-1.24-1.79-.29-.72-.44-1.56-.44-2.52,0-1.43.22-2.77.67-4.01.45-1.24,1.08-2.33,1.9-3.27.79-.91,1.77-1.63,2.94-2.17s2.42-.8,3.77-.8c.89,0,1.73.12,2.52.37s1.48.54,2.08.88l-.56,2.78h-.15c-.18-.16-.41-.35-.68-.57-.27-.22-.6-.42-.97-.61-.37-.2-.79-.36-1.24-.5-.46-.13-.98-.2-1.56-.2-1.77,0-3.21.75-4.33,2.24-1.12,1.49-1.67,3.31-1.67,5.44,0,1.28.33,2.27.99,2.96.66.69,1.6,1.04,2.82,1.04.57,0,1.15-.08,1.72-.24.57-.16,1.06-.34,1.46-.53.45-.21.86-.43,1.24-.67.38-.24.66-.41.83-.53h.15l-.55,2.8c-.79.36-1.63.66-2.52.92s-1.78.39-2.69.39Z"/>
  <path class="cls-2" d="M153.4,14.31c0,1.37-.21,2.68-.63,3.94s-1.01,2.35-1.78,3.28c-.79.97-1.71,1.72-2.75,2.26s-2.25.81-3.64.81c-1.81,0-3.23-.52-4.25-1.55-1.02-1.03-1.52-2.46-1.52-4.29,0-1.37.21-2.67.62-3.91.42-1.24,1.01-2.34,1.8-3.31.76-.93,1.68-1.67,2.78-2.23,1.1-.56,2.3-.83,3.6-.83,1.76,0,3.16.5,4.2,1.5,1.04,1,1.56,2.44,1.56,4.32ZM149.22,20.08c.49-.73.87-1.57,1.13-2.53s.39-1.97.39-3.04c0-1.28-.31-2.24-.92-2.9s-1.47-.98-2.58-.98c-.88,0-1.68.21-2.38.64s-1.31,1-1.82,1.74c-.49.72-.87,1.56-1.13,2.53-.26.97-.4,1.97-.4,3.01,0,1.26.31,2.22.92,2.9.61.67,1.48,1.01,2.6,1.01.88,0,1.67-.21,2.38-.63.71-.42,1.32-1,1.82-1.75Z"/>
  <path class="cls-2" d="M180.21,12.28c0,.3-.02.62-.06.96-.04.34-.1.68-.18,1.03l-2.3,9.91h-2.56l2.01-8.7c.11-.48.2-.93.27-1.34.07-.41.1-.79.1-1.15,0-.69-.17-1.23-.52-1.6-.35-.37-1.01-.56-1.98-.56-.72,0-1.48.2-2.29.6-.8.4-1.6.87-2.4,1.41-.02.23-.05.49-.09.78-.04.29-.09.55-.14.78l-2.25,9.78h-2.57l2-8.7c.12-.56.21-1.03.29-1.39.07-.36.11-.73.11-1.1,0-.83-.23-1.4-.68-1.7-.46-.31-1.07-.46-1.85-.46-.55,0-1.16.14-1.83.42-.68.28-1.58.79-2.7,1.53l-2.63,11.4h-2.57l3.53-15.27h2.57l-.39,1.69c.96-.66,1.84-1.18,2.66-1.56.82-.37,1.68-.56,2.58-.56,1.03,0,1.87.22,2.51.66s1.07,1.04,1.28,1.82c1.2-.88,2.28-1.51,3.24-1.89.96-.39,1.9-.58,2.83-.58,1.34,0,2.35.33,3.02,1,.67.67,1.01,1.6,1.01,2.8Z"/>
  <path class="cls-2" d="M207.46,12.28c0,.3-.02.62-.06.96-.04.34-.1.68-.18,1.03l-2.3,9.91h-2.56l2.01-8.7c.11-.48.2-.93.27-1.34.07-.41.1-.79.1-1.15,0-.69-.17-1.23-.52-1.6-.35-.37-1.01-.56-1.98-.56-.72,0-1.48.2-2.29.6-.8.4-1.6.87-2.4,1.41-.02.23-.05.49-.09.78-.04.29-.09.55-.14.78l-2.25,9.78h-2.57l2-8.7c.12-.56.21-1.03.29-1.39.07-.36.11-.73.11-1.1,0-.83-.23-1.4-.68-1.7-.46-.31-1.07-.46-1.85-.46-.55,0-1.16.14-1.83.42-.68.28-1.58.79-2.7,1.53l-2.63,11.4h-2.57l3.53-15.27h2.57l-.39,1.69c.96-.66,1.84-1.18,2.66-1.56.82-.37,1.68-.56,2.58-.56,1.03,0,1.87.22,2.51.66s1.07,1.04,1.28,1.82c1.2-.88,2.28-1.51,3.24-1.89.96-.39,1.9-.58,2.83-.58,1.34,0,2.35.33,3.02,1,.67.67,1.01,1.6,1.01,2.8Z"/>
  <path class="cls-2" d="M216,8.91l-3.53,15.27h-2.57l3.53-15.27h2.57ZM217.4,3.68l-.62,2.67h-2.91l.62-2.67h2.91Z"/>
  <path class="cls-2" d="M229.02,8.91l-.46,2.08h-5.31l-1.63,7.05c-.09.36-.17.76-.25,1.23-.07.46-.11.83-.11,1.1,0,.67.17,1.16.51,1.49s.96.49,1.87.49c.37,0,.82-.06,1.33-.19.51-.13.86-.23,1.04-.3h.14l-.48,2.2c-.51.13-1.05.23-1.63.31s-1.09.12-1.54.12c-1.26,0-2.23-.28-2.92-.83s-1.03-1.42-1.03-2.62c0-.29.02-.58.06-.87s.1-.61.17-.98l1.9-8.2h-1.73l.47-2.08h1.75l1.02-4.39h2.58l-1.03,4.39h5.29Z"/>
  <path class="cls-2" d="M240.05,8.91l-.46,2.08h-5.31l-1.63,7.05c-.09.36-.17.76-.25,1.23-.07.46-.11.83-.11,1.1,0,.67.17,1.16.51,1.49s.96.49,1.87.49c.37,0,.82-.06,1.33-.19.51-.13.86-.23,1.04-.3h.14l-.48,2.2c-.51.13-1.05.23-1.63.31s-1.09.12-1.54.12c-1.26,0-2.23-.28-2.92-.83s-1.03-1.42-1.03-2.62c0-.29.02-.58.06-.87s.1-.61.17-.98l1.9-8.2h-1.73l.47-2.08h1.75l1.02-4.39h2.58l-1.03,4.39h5.29Z"/>
  <path class="cls-2" d="M246.86,24.53c-2.11,0-3.77-.5-4.97-1.49-1.2-.99-1.8-2.45-1.8-4.36,0-2.8.88-5.2,2.65-7.2,1.77-2,3.95-3,6.56-3,1.73,0,3.05.43,3.97,1.29s1.38,2.07,1.38,3.63c0,.27-.04.71-.12,1.3-.08.59-.2,1.28-.38,2.06h-11.25c-.05.26-.09.52-.12.78-.02.26-.03.49-.03.71,0,1.29.39,2.29,1.18,3.03.78.73,1.9,1.1,3.34,1.1,1,0,2.04-.2,3.1-.59,1.06-.39,1.95-.83,2.67-1.33h.15l-.56,2.78c-.46.16-.87.31-1.23.45s-.83.27-1.39.41c-.57.14-1.07.24-1.5.31-.44.07-.98.11-1.64.11ZM251.99,14.88c.05-.26.08-.49.1-.67.02-.18.03-.38.03-.6,0-.98-.27-1.74-.8-2.28s-1.39-.82-2.56-.82c-1.29,0-2.44.4-3.45,1.2-1,.8-1.68,1.86-2.04,3.17h8.72Z"/>
  <path class="cls-2" d="M273.61,2.91l-4.92,21.27h-2.57l.37-1.6c-1.16.79-2.09,1.33-2.8,1.61-.71.28-1.47.42-2.3.42-1.44,0-2.58-.46-3.42-1.37-.84-.91-1.26-2.24-1.26-3.98,0-1.47.23-2.85.68-4.16.46-1.31,1.08-2.45,1.86-3.44.77-.98,1.69-1.75,2.75-2.32,1.06-.57,2.18-.85,3.36-.85.81,0,1.56.09,2.24.26.68.17,1.32.43,1.91.78l1.53-6.62h2.57ZM269.02,11.65c-.61-.32-1.21-.55-1.8-.7s-1.21-.23-1.88-.23c-.95,0-1.79.23-2.54.68-.74.46-1.38,1.08-1.91,1.87-.48.72-.85,1.59-1.11,2.6s-.39,1.99-.39,2.94c0,1.11.24,1.96.72,2.55.48.59,1.25.88,2.33.88.76,0,1.55-.19,2.34-.57s1.53-.8,2.21-1.25l2.03-8.77Z"/>
  <path class="cls-2" d="M295.06,8.91l-.46,2.08h-5.31l-1.63,7.05c-.09.36-.17.76-.25,1.23-.07.46-.11.83-.11,1.1,0,.67.17,1.16.51,1.49s.96.49,1.87.49c.37,0,.82-.06,1.33-.19.51-.13.86-.23,1.04-.3h.14l-.48,2.2c-.51.13-1.05.23-1.63.31s-1.09.12-1.54.12c-1.26,0-2.23-.28-2.92-.83s-1.03-1.42-1.03-2.62c0-.29.02-.58.06-.87s.1-.61.17-.98l1.9-8.2h-1.73l.47-2.08h1.75l1.02-4.39h2.58l-1.03,4.39h5.29Z"/>
  <path class="cls-2" d="M309.64,14.31c0,1.37-.21,2.68-.63,3.94s-1.01,2.35-1.78,3.28c-.79.97-1.71,1.72-2.75,2.26s-2.25.81-3.64.81c-1.81,0-3.23-.52-4.25-1.55-1.02-1.03-1.52-2.46-1.52-4.29,0-1.37.21-2.67.62-3.91.42-1.24,1.01-2.34,1.8-3.31.76-.93,1.68-1.67,2.78-2.23,1.1-.56,2.3-.83,3.6-.83,1.76,0,3.16.5,4.2,1.5,1.04,1,1.56,2.44,1.56,4.32ZM305.46,20.08c.49-.73.87-1.57,1.13-2.53s.39-1.97.39-3.04c0-1.28-.31-2.24-.92-2.9s-1.47-.98-2.58-.98c-.88,0-1.68.21-2.38.64s-1.31,1-1.82,1.74c-.49.72-.87,1.56-1.13,2.53-.26.97-.4,1.97-.4,3.01,0,1.26.31,2.22.92,2.9.61.67,1.48,1.01,2.6,1.01.88,0,1.67-.21,2.38-.63.71-.42,1.32-1,1.82-1.75Z"/>
  <path class="cls-2" d="M338.77,2.91l-4.92,21.27h-2.57l.37-1.6c-1.16.79-2.09,1.33-2.8,1.61-.71.28-1.47.42-2.3.42-1.44,0-2.58-.46-3.42-1.37-.84-.91-1.26-2.24-1.26-3.98,0-1.47.23-2.85.68-4.16.46-1.31,1.08-2.45,1.86-3.44.77-.98,1.69-1.75,2.75-2.32,1.06-.57,2.18-.85,3.36-.85.81,0,1.56.09,2.24.26.68.17,1.32.43,1.91.78l1.53-6.62h2.57ZM334.18,11.65c-.61-.32-1.21-.55-1.8-.7s-1.21-.23-1.88-.23c-.95,0-1.79.23-2.54.68-.74.46-1.38,1.08-1.91,1.87-.48.72-.85,1.59-1.11,2.6s-.39,1.99-.39,2.94c0,1.11.24,1.96.72,2.55.48.59,1.25.88,2.33.88.76,0,1.55-.19,2.34-.57s1.53-.8,2.21-1.25l2.03-8.77Z"/>
  <path class="cls-2" d="M346.14,24.53c-2.11,0-3.77-.5-4.97-1.49-1.2-.99-1.8-2.45-1.8-4.36,0-2.8.88-5.2,2.65-7.2,1.77-2,3.95-3,6.56-3,1.73,0,3.05.43,3.97,1.29s1.38,2.07,1.38,3.63c0,.27-.04.71-.12,1.3-.08.59-.2,1.28-.38,2.06h-11.25c-.05.26-.09.52-.12.78-.02.26-.03.49-.03.71,0,1.29.39,2.29,1.18,3.03.78.73,1.9,1.1,3.34,1.1,1,0,2.04-.2,3.1-.59,1.06-.39,1.95-.83,2.67-1.33h.15l-.56,2.78c-.46.16-.87.31-1.23.45s-.83.27-1.39.41c-.57.14-1.07.24-1.5.31-.44.07-.98.11-1.64.11ZM351.27,14.88c.05-.26.08-.49.1-.67.02-.18.03-.38.03-.6,0-.98-.27-1.74-.8-2.28s-1.39-.82-2.56-.82c-1.29,0-2.44.4-3.45,1.2-1,.8-1.68,1.86-2.04,3.17h8.72Z"/>
  <path class="cls-2" d="M363.11,2.91l-4.92,21.27h-2.57l4.92-21.27h2.57Z"/>
  <path class="cls-2" d="M369.4,8.91l-3.53,15.27h-2.57l3.53-15.27h2.57ZM370.8,3.68l-.62,2.67h-2.91l.62-2.67h2.91Z"/>
  <path class="cls-2" d="M387.51,8.91l-9.71,15.27h-2.56l-2.61-15.27h2.61l1.93,12.21,7.51-12.21h2.82Z"/>
  <path class="cls-2" d="M394.73,24.53c-2.11,0-3.77-.5-4.97-1.49-1.2-.99-1.8-2.45-1.8-4.36,0-2.8.88-5.2,2.65-7.2,1.77-2,3.95-3,6.56-3,1.73,0,3.05.43,3.97,1.29s1.38,2.07,1.38,3.63c0,.27-.04.71-.12,1.3-.08.59-.2,1.28-.38,2.06h-11.25c-.05.26-.09.52-.12.78-.02.26-.03.49-.03.71,0,1.29.39,2.29,1.18,3.03.78.73,1.9,1.1,3.34,1.1,1,0,2.04-.2,3.1-.59,1.06-.39,1.95-.83,2.67-1.33h.15l-.56,2.78c-.46.16-.87.31-1.23.45s-.83.27-1.39.41c-.57.14-1.07.24-1.5.31-.44.07-.98.11-1.64.11ZM399.86,14.88c.05-.26.08-.49.1-.67.02-.18.03-.38.03-.6,0-.98-.27-1.74-.8-2.28s-1.39-.82-2.56-.82c-1.29,0-2.44.4-3.45,1.2-1,.8-1.68,1.86-2.04,3.17h8.72Z"/>
  <path class="cls-2" d="M416.52,11.61h-.14c-.36-.09-.7-.16-1.02-.2-.31-.04-.69-.06-1.14-.06-.86,0-1.7.19-2.55.58-.84.39-1.65.85-2.42,1.4l-2.48,10.85h-2.59l3.48-15.27h2.59l-.51,2.26c1.21-.85,2.24-1.44,3.08-1.76s1.65-.49,2.43-.49c.45,0,.77.01.97.03.2.02.49.07.88.13l-.59,2.54Z"/>
  <path class="cls-2" d="M422.26,8.91l-3.53,15.27h-2.57l3.53-15.27h2.57ZM423.65,3.68l-.62,2.67h-2.91l.62-2.67h2.91Z"/>
  <path class="cls-2" d="M439.12,12.39c0,.22-.02.52-.06.89-.04.37-.1.7-.17.98l-2.29,9.91h-2.56l2-8.7c.11-.48.19-.9.25-1.26.06-.36.09-.72.09-1.07,0-.77-.19-1.34-.57-1.73-.38-.39-1.06-.58-2.05-.58-.69,0-1.46.19-2.29.57-.83.38-1.65.84-2.44,1.37l-2.63,11.4h-2.57l3.53-15.27h2.57l-.39,1.69c.97-.68,1.89-1.21,2.74-1.57.85-.36,1.73-.55,2.63-.55,1.33,0,2.37.33,3.11,1,.74.67,1.11,1.64,1.11,2.91Z"/>
  <path class="cls-2" d="M457.4,8.91l-3.11,13.58c-.6,2.59-1.59,4.48-2.96,5.68-1.37,1.2-3.28,1.8-5.71,1.8-.78,0-1.57-.06-2.37-.18-.8-.12-1.53-.28-2.19-.48l.59-2.56h.14c.51.23,1.2.45,2.06.66.87.21,1.68.31,2.45.31.87,0,1.6-.11,2.21-.33.61-.22,1.11-.53,1.5-.91.38-.38.7-.83.94-1.33s.43-1.07.57-1.7l.31-1.34c-.92.62-1.73,1.08-2.43,1.39-.7.31-1.6.46-2.69.46-1.49,0-2.65-.45-3.48-1.36-.84-.91-1.26-2.19-1.26-3.83,0-1.32.22-2.6.65-3.85.43-1.24,1.04-2.35,1.81-3.32.76-.94,1.67-1.69,2.73-2.26,1.06-.56,2.2-.85,3.41-.85.88,0,1.66.1,2.35.3.69.2,1.29.46,1.8.78l.32-.66h2.38ZM454.21,11.66c-.58-.3-1.18-.54-1.8-.7-.62-.17-1.24-.25-1.87-.25-.9,0-1.71.2-2.45.61-.73.41-1.37.97-1.9,1.69-.5.67-.89,1.49-1.17,2.44-.28.95-.42,1.9-.42,2.85,0,1.08.25,1.91.74,2.5.49.59,1.28.88,2.37.88.76,0,1.53-.16,2.3-.48.78-.32,1.54-.72,2.29-1.2l1.9-8.33Z"/>
  <path class="cls-2" d="M478.48,22.55c-.25.15-.58.35-1,.62-.42.27-.86.5-1.29.69-.46.21-.98.38-1.56.53-.57.14-1.23.21-1.98.21-1.21,0-2.2-.35-2.95-1.06s-1.13-1.63-1.13-2.77c0-1.21.27-2.24.8-3.07s1.32-1.52,2.37-2.04c1.03-.52,2.27-.9,3.72-1.13s3.11-.38,4.97-.43c.06-.25.1-.48.14-.66s.06-.38.06-.58c0-.44-.09-.79-.26-1.07-.17-.27-.42-.49-.74-.66-.32-.16-.69-.28-1.12-.33-.42-.06-.89-.09-1.4-.09-.78,0-1.66.13-2.66.38-.99.25-1.8.5-2.42.75h-.14l.51-2.57c.52-.14,1.28-.29,2.28-.46,1-.17,1.96-.26,2.88-.26,1.9,0,3.32.3,4.27.89.95.59,1.42,1.53,1.42,2.82,0,.25-.02.51-.06.79-.04.28-.09.54-.14.79l-2.39,10.36h-2.55l.37-1.63ZM479.97,16.13c-1.4.05-2.65.16-3.74.32-1.09.16-1.99.39-2.7.69-.74.3-1.3.71-1.68,1.22-.38.52-.57,1.16-.57,1.92,0,.66.22,1.16.67,1.5.45.35,1.14.52,2.08.52.83,0,1.67-.18,2.53-.55.86-.37,1.67-.81,2.41-1.33l1.01-4.29Z"/>
  <path class="cls-2" d="M500.22,24.55c-1.14,0-2.16-.14-3.06-.42s-1.65-.59-2.25-.92l.57-2.75h.14c.19.16.44.36.75.58.31.22.7.44,1.17.66.43.21.92.39,1.47.54s1.14.23,1.77.23c1.29,0,2.29-.24,3.02-.71.73-.47,1.09-1.17,1.09-2.09,0-.48-.19-.85-.56-1.11s-.91-.47-1.61-.64c-.36-.08-.78-.17-1.28-.27-.5-.1-1-.22-1.51-.36-1.07-.3-1.85-.74-2.37-1.31-.51-.57-.77-1.26-.77-2.08,0-.71.16-1.38.46-2,.31-.62.77-1.19,1.38-1.71.58-.49,1.33-.89,2.23-1.2.9-.31,1.91-.46,3.01-.46.91,0,1.82.11,2.73.34.91.23,1.65.51,2.22.85l-.55,2.62h-.14c-.15-.12-.37-.28-.66-.48-.3-.2-.67-.41-1.13-.62-.39-.17-.85-.32-1.37-.45-.52-.13-1.07-.19-1.63-.19-1.14,0-2.06.24-2.78.72s-1.07,1.13-1.07,1.96c0,.46.17.84.52,1.14.35.31.88.54,1.59.72.45.11.91.21,1.4.31s.96.2,1.42.31c1.06.26,1.85.67,2.39,1.23.53.56.8,1.25.8,2.09,0,.7-.17,1.39-.5,2.06s-.81,1.25-1.44,1.74c-.65.52-1.43.93-2.35,1.22s-1.96.44-3.1.44Z"/>
  <path class="cls-2" d="M517.26,24.53c-2.11,0-3.77-.5-4.97-1.49-1.2-.99-1.8-2.45-1.8-4.36,0-2.8.88-5.2,2.65-7.2,1.77-2,3.95-3,6.56-3,1.73,0,3.05.43,3.97,1.29s1.38,2.07,1.38,3.63c0,.27-.04.71-.12,1.3-.08.59-.2,1.28-.38,2.06h-11.25c-.05.26-.09.52-.12.78-.02.26-.03.49-.03.71,0,1.29.39,2.29,1.18,3.03.78.73,1.9,1.1,3.34,1.1,1,0,2.04-.2,3.1-.59,1.06-.39,1.95-.83,2.67-1.33h.15l-.56,2.78c-.46.16-.87.31-1.23.45s-.83.27-1.39.41c-.57.14-1.07.24-1.5.31-.44.07-.98.11-1.64.11ZM522.39,14.88c.05-.26.08-.49.1-.67.02-.18.03-.38.03-.6,0-.98-.27-1.74-.8-2.28s-1.39-.82-2.56-.82c-1.29,0-2.44.4-3.45,1.2-1,.8-1.68,1.86-2.04,3.17h8.72Z"/>
  <path class="cls-2" d="M533.33,24.52c-.97,0-1.82-.11-2.56-.34s-1.39-.59-1.95-1.08c-.54-.47-.95-1.07-1.24-1.79-.29-.72-.44-1.56-.44-2.52,0-1.43.22-2.77.67-4.01.45-1.24,1.08-2.33,1.9-3.27.79-.91,1.77-1.63,2.94-2.17s2.42-.8,3.77-.8c.89,0,1.73.12,2.52.37s1.48.54,2.08.88l-.56,2.78h-.15c-.18-.16-.41-.35-.68-.57-.27-.22-.6-.42-.97-.61-.37-.2-.79-.36-1.24-.5-.46-.13-.98-.2-1.56-.2-1.77,0-3.21.75-4.33,2.24-1.12,1.49-1.67,3.31-1.67,5.44,0,1.28.33,2.27.99,2.96.66.69,1.6,1.04,2.82,1.04.57,0,1.15-.08,1.72-.24.57-.16,1.06-.34,1.46-.53.45-.21.86-.43,1.24-.67.38-.24.66-.41.83-.53h.15l-.55,2.8c-.79.36-1.63.66-2.52.92s-1.78.39-2.69.39Z"/>
  <path class="cls-2" d="M557.47,8.91l-3.51,15.27h-2.57l.39-1.69c-.97.66-1.88,1.18-2.73,1.55s-1.73.56-2.67.56c-1.31,0-2.34-.33-3.07-.99s-1.11-1.62-1.11-2.89c0-.31.02-.61.06-.9.04-.29.1-.62.17-1l2.28-9.91h2.57l-2,8.7c-.08.35-.16.76-.23,1.22-.07.46-.11.82-.11,1.08,0,.78.2,1.37.59,1.76.4.39,1.07.59,2.03.59.67,0,1.44-.2,2.31-.59.87-.39,1.67-.84,2.41-1.35l2.62-11.41h2.57Z"/>
  <path class="cls-2" d="M571.35,11.61h-.14c-.36-.09-.7-.16-1.02-.2-.31-.04-.69-.06-1.14-.06-.86,0-1.7.19-2.55.58-.84.39-1.65.85-2.42,1.4l-2.48,10.85h-2.59l3.48-15.27h2.59l-.51,2.26c1.21-.85,2.24-1.44,3.08-1.76s1.65-.49,2.43-.49c.45,0,.77.01.97.03.2.02.49.07.88.13l-.59,2.54Z"/>
  <path class="cls-2" d="M578.19,24.53c-2.11,0-3.77-.5-4.97-1.49-1.2-.99-1.8-2.45-1.8-4.36,0-2.8.88-5.2,2.65-7.2,1.77-2,3.95-3,6.56-3,1.73,0,3.05.43,3.97,1.29s1.38,2.07,1.38,3.63c0,.27-.04.71-.12,1.3-.08.59-.2,1.28-.38,2.06h-11.25c-.05.26-.09.52-.12.78-.02.26-.03.49-.03.71,0,1.29.39,2.29,1.18,3.03.78.73,1.9,1.1,3.34,1.1,1,0,2.04-.2,3.1-.59,1.06-.39,1.95-.83,2.67-1.33h.15l-.56,2.78c-.46.16-.87.31-1.23.45s-.83.27-1.39.41c-.57.14-1.07.24-1.5.31-.44.07-.98.11-1.64.11ZM583.33,14.88c.05-.26.08-.49.1-.67.02-.18.03-.38.03-.6,0-.98-.27-1.74-.8-2.28s-1.39-.82-2.56-.82c-1.29,0-2.44.4-3.45,1.2-1,.8-1.68,1.86-2.04,3.17h8.72Z"/>
  <path class="cls-2" d="M594.01,20.28l-5.93,8.96h-2l4.43-8.96h3.5Z"/>
  <path class="cls-2" d="M38.29,54.55c-1.14,0-2.16-.14-3.06-.42-.9-.28-1.65-.59-2.25-.92l.57-2.75h.14c.19.16.44.36.75.58.31.22.69.44,1.17.66.43.21.92.39,1.47.54.55.15,1.14.23,1.77.23,1.29,0,2.29-.24,3.02-.71.73-.47,1.09-1.17,1.09-2.09,0-.48-.19-.85-.56-1.11-.37-.26-.91-.47-1.61-.64-.36-.08-.78-.17-1.28-.27-.5-.1-1-.22-1.51-.36-1.07-.3-1.85-.74-2.37-1.31-.51-.57-.77-1.26-.77-2.08,0-.71.15-1.38.46-2,.31-.62.77-1.19,1.38-1.71.58-.49,1.33-.89,2.23-1.2.9-.31,1.9-.46,3.01-.46.91,0,1.82.11,2.73.34.91.23,1.65.51,2.22.85l-.55,2.62h-.14c-.15-.12-.37-.28-.66-.48-.3-.2-.67-.41-1.13-.62-.39-.17-.85-.32-1.37-.45-.52-.13-1.07-.19-1.63-.19-1.14,0-2.06.24-2.78.72s-1.07,1.13-1.07,1.96c0,.46.17.84.52,1.14.35.31.88.54,1.59.72.45.11.91.21,1.4.31.49.1.96.2,1.42.31,1.06.26,1.85.67,2.39,1.23.53.56.8,1.25.8,2.09,0,.7-.17,1.39-.5,2.06-.33.67-.81,1.25-1.44,1.74-.65.52-1.43.93-2.35,1.22-.92.29-1.96.44-3.1.44Z"/>
  <path class="cls-2" d="M59.56,38.91l-.46,2.08h-5.31l-1.63,7.05c-.09.36-.17.76-.25,1.23-.07.46-.11.83-.11,1.1,0,.67.17,1.16.51,1.49.34.32.96.49,1.87.49.37,0,.82-.06,1.33-.19.51-.13.86-.23,1.04-.3h.14l-.48,2.2c-.51.13-1.06.23-1.63.31-.58.08-1.09.12-1.54.12-1.26,0-2.23-.28-2.92-.83-.69-.55-1.03-1.42-1.03-2.62,0-.29.02-.58.06-.87s.1-.61.17-.98l1.9-8.2h-1.73l.47-2.08h1.75l1.02-4.39h2.58l-1.02,4.39h5.29Z"/>
  <path class="cls-2" d="M71.47,41.61h-.14c-.36-.09-.7-.16-1.02-.2-.31-.04-.69-.06-1.14-.06-.86,0-1.7.19-2.55.58-.84.39-1.65.85-2.42,1.4l-2.48,10.85h-2.59l3.48-15.27h2.59l-.51,2.26c1.21-.85,2.24-1.44,3.08-1.76s1.65-.49,2.43-.49c.45,0,.77.01.97.03.2.02.49.07.88.13l-.59,2.54Z"/>
  <path class="cls-2" d="M78.32,54.53c-2.11,0-3.77-.5-4.97-1.49-1.2-.99-1.8-2.45-1.8-4.36,0-2.8.88-5.2,2.65-7.2,1.77-2,3.95-3,6.56-3,1.73,0,3.05.43,3.97,1.29s1.38,2.07,1.38,3.63c0,.27-.04.71-.12,1.3-.08.59-.2,1.28-.38,2.06h-11.25c-.05.26-.09.52-.12.78-.02.26-.03.49-.03.71,0,1.29.39,2.29,1.18,3.03.78.73,1.9,1.1,3.34,1.1,1,0,2.04-.2,3.1-.59,1.06-.39,1.95-.83,2.67-1.33h.15l-.56,2.78c-.46.16-.87.31-1.23.45s-.83.27-1.39.41c-.57.14-1.07.24-1.5.31-.44.07-.98.11-1.64.11ZM83.45,44.88c.05-.26.08-.49.1-.67.02-.18.03-.38.03-.6,0-.98-.27-1.74-.8-2.28s-1.39-.82-2.56-.82c-1.29,0-2.44.4-3.45,1.2-1,.8-1.68,1.86-2.04,3.17h8.72Z"/>
  <path class="cls-2" d="M97.46,52.55c-.25.15-.58.35-1,.62-.42.27-.86.5-1.29.69-.46.21-.98.38-1.56.53-.57.14-1.23.21-1.98.21-1.21,0-2.2-.35-2.95-1.06s-1.13-1.63-1.13-2.77c0-1.21.27-2.24.8-3.07s1.32-1.52,2.37-2.04c1.03-.52,2.27-.9,3.72-1.13s3.11-.38,4.97-.43c.06-.25.1-.48.14-.66s.06-.38.06-.58c0-.44-.09-.79-.26-1.07-.17-.27-.42-.49-.74-.66-.32-.16-.69-.28-1.12-.33-.42-.06-.89-.09-1.4-.09-.78,0-1.66.13-2.66.38-.99.25-1.8.5-2.42.75h-.14l.51-2.57c.52-.14,1.28-.29,2.28-.46,1-.17,1.96-.26,2.88-.26,1.9,0,3.32.3,4.27.89.95.59,1.42,1.53,1.42,2.82,0,.25-.02.51-.06.79-.04.28-.09.54-.14.79l-2.39,10.36h-2.55l.37-1.63ZM98.96,46.13c-1.4.05-2.65.16-3.74.32-1.09.16-1.99.39-2.7.69-.74.3-1.3.71-1.68,1.22-.38.52-.57,1.16-.57,1.92,0,.66.22,1.16.67,1.5.45.35,1.14.52,2.08.52.83,0,1.67-.18,2.53-.55.86-.37,1.67-.81,2.41-1.33l1.01-4.29Z"/>
  <path class="cls-2" d="M129.41,42.28c0,.3-.02.62-.06.96-.04.34-.1.68-.18,1.03l-2.3,9.91h-2.56l2.01-8.7c.11-.48.2-.93.27-1.34.07-.41.1-.79.1-1.15,0-.69-.17-1.23-.52-1.6-.35-.37-1.01-.56-1.98-.56-.72,0-1.48.2-2.29.6-.8.4-1.6.87-2.4,1.41-.02.23-.05.49-.09.78-.04.29-.09.55-.14.78l-2.25,9.78h-2.57l2-8.7c.12-.56.21-1.03.29-1.39.07-.36.11-.73.11-1.1,0-.83-.23-1.4-.68-1.7-.46-.31-1.07-.46-1.85-.46-.55,0-1.16.14-1.83.42-.68.28-1.58.79-2.7,1.53l-2.63,11.4h-2.57l3.53-15.27h2.57l-.39,1.69c.96-.66,1.84-1.18,2.66-1.56.82-.37,1.68-.56,2.58-.56,1.03,0,1.87.22,2.51.66s1.07,1.04,1.28,1.82c1.2-.88,2.28-1.51,3.24-1.89.96-.39,1.9-.58,2.83-.58,1.34,0,2.35.33,3.02,1,.67.67,1.01,1.6,1.01,2.8Z"/>
  <path class="cls-2" d="M139.35,32.91l-4.92,21.27h-2.57l4.92-21.27h2.57Z"/>
  <path class="cls-2" d="M145.64,38.91l-3.53,15.27h-2.57l3.53-15.27h2.57ZM147.04,33.68l-.62,2.67h-2.91l.62-2.67h2.91Z"/>
  <path class="cls-2" d="M162.5,42.39c0,.22-.02.52-.06.89-.04.37-.1.7-.17.98l-2.29,9.91h-2.56l2-8.7c.11-.48.19-.9.25-1.26.06-.36.09-.72.09-1.07,0-.77-.19-1.34-.57-1.73-.38-.39-1.06-.58-2.05-.58-.69,0-1.46.19-2.29.57-.83.38-1.65.84-2.44,1.37l-2.63,11.4h-2.57l3.53-15.27h2.57l-.39,1.69c.97-.68,1.89-1.21,2.74-1.57.85-.36,1.73-.55,2.63-.55,1.33,0,2.37.33,3.11,1,.74.67,1.11,1.64,1.11,2.91Z"/>
  <path class="cls-2" d="M172.15,54.53c-2.11,0-3.77-.5-4.97-1.49-1.2-.99-1.8-2.45-1.8-4.36,0-2.8.88-5.2,2.65-7.2,1.77-2,3.95-3,6.56-3,1.73,0,3.05.43,3.97,1.29s1.38,2.07,1.38,3.63c0,.27-.04.71-.12,1.3-.08.59-.2,1.28-.38,2.06h-11.25c-.05.26-.09.52-.12.78-.02.26-.03.49-.03.71,0,1.29.39,2.29,1.18,3.03.78.73,1.9,1.1,3.34,1.1,1,0,2.04-.2,3.1-.59,1.06-.39,1.95-.83,2.67-1.33h.15l-.56,2.78c-.46.16-.87.31-1.23.45s-.83.27-1.39.41c-.57.14-1.07.24-1.5.31-.44.07-.98.11-1.64.11ZM177.28,44.88c.05-.26.08-.49.1-.67.02-.18.03-.38.03-.6,0-.98-.27-1.74-.8-2.28s-1.39-.82-2.56-.82c-1.29,0-2.44.4-3.45,1.2-1,.8-1.68,1.86-2.04,3.17h8.72Z"/>
  <path class="cls-2" d="M198.9,32.91l-4.92,21.27h-2.57l.37-1.6c-1.16.79-2.09,1.33-2.8,1.61-.71.28-1.47.42-2.3.42-1.44,0-2.58-.46-3.42-1.37-.84-.91-1.26-2.24-1.26-3.98,0-1.47.23-2.85.68-4.16.46-1.31,1.08-2.45,1.86-3.44.77-.98,1.69-1.75,2.75-2.32,1.06-.57,2.18-.85,3.36-.85.81,0,1.56.09,2.24.26.68.17,1.32.43,1.91.78l1.53-6.62h2.57ZM194.31,41.65c-.61-.32-1.21-.55-1.8-.7s-1.21-.23-1.88-.23c-.95,0-1.79.23-2.54.68-.74.46-1.38,1.08-1.91,1.87-.48.72-.85,1.59-1.11,2.6s-.39,1.99-.39,2.94c0,1.11.24,1.96.72,2.55.48.59,1.25.88,2.33.88.76,0,1.55-.19,2.34-.57s1.53-.8,2.21-1.25l2.03-8.77Z"/>
  <path class="cls-2" d="M205.4,50.28l-5.93,8.96h-2l4.43-8.96h3.5Z"/>
  <path class="cls-2" d="M228.77,52.55c-.25.15-.58.35-1,.62-.42.27-.86.5-1.29.69-.46.21-.98.38-1.56.53-.57.14-1.23.21-1.98.21-1.21,0-2.2-.35-2.95-1.06s-1.13-1.63-1.13-2.77c0-1.21.27-2.24.8-3.07s1.32-1.52,2.37-2.04c1.03-.52,2.27-.9,3.72-1.13s3.11-.38,4.97-.43c.06-.25.1-.48.14-.66s.06-.38.06-.58c0-.44-.09-.79-.26-1.07-.17-.27-.42-.49-.74-.66-.32-.16-.69-.28-1.12-.33-.42-.06-.89-.09-1.4-.09-.78,0-1.66.13-2.66.38-.99.25-1.8.5-2.42.75h-.14l.51-2.57c.52-.14,1.28-.29,2.28-.46,1-.17,1.96-.26,2.88-.26,1.9,0,3.32.3,4.27.89.95.59,1.42,1.53,1.42,2.82,0,.25-.02.51-.06.79-.04.28-.09.54-.14.79l-2.39,10.36h-2.55l.37-1.63ZM230.26,46.13c-1.4.05-2.65.16-3.74.32-1.09.16-1.99.39-2.7.69-.74.3-1.3.71-1.68,1.22-.38.52-.57,1.16-.57,1.92,0,.66.22,1.16.67,1.5.45.35,1.14.52,2.08.52.83,0,1.67-.18,2.53-.55.86-.37,1.67-.81,2.41-1.33l1.01-4.29Z"/>
  <path class="cls-2" d="M251.19,42.39c0,.22-.02.52-.06.89-.04.37-.1.7-.17.98l-2.29,9.91h-2.56l2-8.7c.11-.48.19-.9.25-1.26.06-.36.09-.72.09-1.07,0-.77-.19-1.34-.57-1.73-.38-.39-1.06-.58-2.05-.58-.69,0-1.46.19-2.29.57-.83.38-1.65.84-2.44,1.37l-2.63,11.4h-2.57l3.53-15.27h2.57l-.39,1.69c.97-.68,1.89-1.21,2.74-1.57.85-.36,1.73-.55,2.63-.55,1.33,0,2.37.33,3.11,1,.74.67,1.11,1.64,1.11,2.91Z"/>
  <path class="cls-2" d="M270.91,32.91l-4.92,21.27h-2.57l.37-1.6c-1.16.79-2.09,1.33-2.8,1.61-.71.28-1.47.42-2.3.42-1.44,0-2.58-.46-3.42-1.37-.84-.91-1.26-2.24-1.26-3.98,0-1.47.23-2.85.68-4.16.46-1.31,1.08-2.45,1.86-3.44.77-.98,1.69-1.75,2.75-2.32,1.06-.57,2.18-.85,3.36-.85.81,0,1.56.09,2.24.26.68.17,1.32.43,1.91.78l1.53-6.62h2.57ZM266.32,41.65c-.61-.32-1.21-.55-1.8-.7s-1.21-.23-1.88-.23c-.95,0-1.79.23-2.54.68-.74.46-1.38,1.08-1.91,1.87-.48.72-.85,1.59-1.11,2.6s-.39,1.99-.39,2.94c0,1.11.24,1.96.72,2.55.48.59,1.25.88,2.33.88.76,0,1.55-.19,2.34-.57s1.53-.8,2.21-1.25l2.03-8.77Z"/>
  <path class="cls-2" d="M296.42,43.73c0,1.51-.23,2.94-.7,4.27-.47,1.33-1.09,2.46-1.87,3.39-.78.96-1.7,1.71-2.73,2.26-1.04.55-2.15.83-3.32.83-.82,0-1.57-.09-2.26-.28s-1.31-.46-1.88-.81l-1.48,6.42h-2.57l4.83-20.9h2.57l-.37,1.6c.85-.59,1.68-1.08,2.5-1.46.82-.38,1.73-.57,2.72-.57,1.49,0,2.62.46,3.4,1.38.78.92,1.17,2.21,1.17,3.87ZM293.72,44.23c0-1.08-.24-1.92-.71-2.51-.47-.59-1.23-.88-2.27-.88-.76,0-1.54.19-2.35.56-.81.37-1.57.8-2.27,1.27l-2,8.66c.59.32,1.16.56,1.7.71.54.16,1.19.23,1.95.23.94,0,1.78-.23,2.54-.68.75-.46,1.37-1.05,1.87-1.78.52-.77.91-1.62,1.16-2.56.25-.94.38-1.95.38-3.02Z"/>
  <path class="cls-2" d="M305.57,54.53c-2.11,0-3.77-.5-4.97-1.49-1.2-.99-1.8-2.45-1.8-4.36,0-2.8.88-5.2,2.65-7.2,1.77-2,3.95-3,6.56-3,1.73,0,3.05.43,3.97,1.29s1.38,2.07,1.38,3.63c0,.27-.04.71-.12,1.3-.08.59-.2,1.28-.38,2.06h-11.25c-.05.26-.09.52-.12.78-.02.26-.03.49-.03.71,0,1.29.39,2.29,1.18,3.03.78.73,1.9,1.1,3.34,1.1,1,0,2.04-.2,3.1-.59,1.06-.39,1.95-.83,2.67-1.33h.15l-.56,2.78c-.46.16-.87.31-1.23.45s-.83.27-1.39.41c-.57.14-1.07.24-1.5.31-.44.07-.98.11-1.64.11ZM310.7,44.88c.05-.26.08-.49.1-.67.02-.18.03-.38.03-.6,0-.98-.27-1.74-.8-2.28s-1.39-.82-2.56-.82c-1.29,0-2.44.4-3.45,1.2-1,.8-1.68,1.86-2.04,3.17h8.72Z"/>
  <path class="cls-2" d="M327.36,41.61h-.14c-.36-.09-.7-.16-1.02-.2-.31-.04-.69-.06-1.14-.06-.86,0-1.7.19-2.55.58-.84.39-1.65.85-2.42,1.4l-2.48,10.85h-2.59l3.48-15.27h2.59l-.51,2.26c1.21-.85,2.24-1.44,3.08-1.76s1.65-.49,2.43-.49c.45,0,.77.01.97.03.2.02.49.07.88.13l-.59,2.54Z"/>
  <path class="cls-2" d="M331.74,54.55c-1.14,0-2.16-.14-3.06-.42s-1.65-.59-2.25-.92l.57-2.75h.14c.19.16.44.36.75.58.31.22.7.44,1.17.66.43.21.92.39,1.47.54s1.14.23,1.77.23c1.29,0,2.29-.24,3.02-.71.73-.47,1.09-1.17,1.09-2.09,0-.48-.19-.85-.56-1.11s-.91-.47-1.61-.64c-.36-.08-.78-.17-1.28-.27-.5-.1-1-.22-1.51-.36-1.07-.3-1.85-.74-2.37-1.31-.51-.57-.77-1.26-.77-2.08,0-.71.16-1.38.46-2,.31-.62.77-1.19,1.38-1.71.58-.49,1.33-.89,2.23-1.2.9-.31,1.91-.46,3.01-.46.91,0,1.82.11,2.73.34.91.23,1.65.51,2.22.85l-.55,2.62h-.14c-.15-.12-.37-.28-.66-.48-.3-.2-.67-.41-1.13-.62-.39-.17-.85-.32-1.37-.45-.52-.13-1.07-.19-1.63-.19-1.14,0-2.06.24-2.78.72s-1.07,1.13-1.07,1.96c0,.46.17.84.52,1.14.35.31.88.54,1.59.72.45.11.91.21,1.4.31s.96.2,1.42.31c1.06.26,1.85.67,2.39,1.23.53.56.8,1.25.8,2.09,0,.7-.17,1.39-.5,2.06s-.81,1.25-1.44,1.74c-.65.52-1.43.93-2.35,1.22s-1.96.44-3.1.44Z"/>
  <path class="cls-2" d="M356.57,44.31c0,1.37-.21,2.68-.63,3.94s-1.01,2.35-1.78,3.28c-.79.97-1.71,1.72-2.75,2.26s-2.25.81-3.64.81c-1.81,0-3.23-.52-4.25-1.55-1.02-1.03-1.52-2.46-1.52-4.29,0-1.37.21-2.67.62-3.91.42-1.24,1.01-2.34,1.8-3.31.76-.93,1.68-1.67,2.78-2.23,1.1-.56,2.3-.83,3.6-.83,1.76,0,3.16.5,4.2,1.5,1.04,1,1.56,2.44,1.56,4.32ZM352.39,50.08c.49-.73.87-1.57,1.13-2.53s.39-1.97.39-3.04c0-1.28-.31-2.24-.92-2.9s-1.47-.98-2.58-.98c-.88,0-1.68.21-2.38.64s-1.31,1-1.82,1.74c-.49.72-.87,1.56-1.13,2.53-.26.97-.4,1.97-.4,3.01,0,1.26.31,2.22.92,2.9.61.67,1.48,1.01,2.6,1.01.88,0,1.67-.21,2.38-.63.71-.42,1.32-1,1.82-1.75Z"/>
  <path class="cls-2" d="M373.85,42.39c0,.22-.02.52-.06.89-.04.37-.1.7-.17.98l-2.29,9.91h-2.56l2-8.7c.11-.48.19-.9.25-1.26.06-.36.09-.72.09-1.07,0-.77-.19-1.34-.57-1.73-.38-.39-1.06-.58-2.05-.58-.69,0-1.46.19-2.29.57-.83.38-1.65.84-2.44,1.37l-2.63,11.4h-2.57l3.53-15.27h2.57l-.39,1.69c.97-.68,1.89-1.21,2.74-1.57.85-.36,1.73-.55,2.63-.55,1.33,0,2.37.33,3.11,1,.74.67,1.11,1.64,1.11,2.91Z"/>
  <path class="cls-2" d="M385.97,52.55c-.25.15-.58.35-1,.62-.42.27-.86.5-1.29.69-.46.21-.98.38-1.56.53-.57.14-1.23.21-1.98.21-1.21,0-2.2-.35-2.95-1.06s-1.13-1.63-1.13-2.77c0-1.21.27-2.24.8-3.07s1.32-1.52,2.37-2.04c1.03-.52,2.27-.9,3.72-1.13s3.11-.38,4.97-.43c.06-.25.1-.48.14-.66s.06-.38.06-.58c0-.44-.09-.79-.26-1.07-.17-.27-.42-.49-.74-.66-.32-.16-.69-.28-1.12-.33-.42-.06-.89-.09-1.4-.09-.78,0-1.66.13-2.66.38-.99.25-1.8.5-2.42.75h-.14l.51-2.57c.52-.14,1.28-.29,2.28-.46,1-.17,1.96-.26,2.88-.26,1.9,0,3.32.3,4.27.89.95.59,1.42,1.53,1.42,2.82,0,.25-.02.51-.06.79-.04.28-.09.54-.14.79l-2.39,10.36h-2.55l.37-1.63ZM387.46,46.13c-1.4.05-2.65.16-3.74.32-1.09.16-1.99.39-2.7.69-.74.3-1.3.71-1.68,1.22-.38.52-.57,1.16-.57,1.92,0,.66.22,1.16.67,1.5.45.35,1.14.52,2.08.52.83,0,1.67-.18,2.53-.55.86-.37,1.67-.81,2.41-1.33l1.01-4.29Z"/>
  <path class="cls-2" d="M400.6,32.91l-4.92,21.27h-2.57l4.92-21.27h2.57Z"/>
  <path class="cls-2" d="M406.9,38.91l-3.53,15.27h-2.57l3.53-15.27h2.57ZM408.29,33.68l-.62,2.67h-2.91l.62-2.67h2.91Z"/>
  <path class="cls-2" d="M413.23,54.55c-1.14,0-2.16-.14-3.06-.42s-1.65-.59-2.25-.92l.57-2.75h.14c.19.16.44.36.75.58.31.22.7.44,1.17.66.43.21.92.39,1.47.54s1.14.23,1.77.23c1.29,0,2.29-.24,3.02-.71.73-.47,1.09-1.17,1.09-2.09,0-.48-.19-.85-.56-1.11s-.91-.47-1.61-.64c-.36-.08-.78-.17-1.28-.27-.5-.1-1-.22-1.51-.36-1.07-.3-1.85-.74-2.37-1.31-.51-.57-.77-1.26-.77-2.08,0-.71.16-1.38.46-2,.31-.62.77-1.19,1.38-1.71.58-.49,1.33-.89,2.23-1.2.9-.31,1.91-.46,3.01-.46.91,0,1.82.11,2.73.34.91.23,1.65.51,2.22.85l-.55,2.62h-.14c-.15-.12-.37-.28-.66-.48-.3-.2-.67-.41-1.13-.62-.39-.17-.85-.32-1.37-.45-.52-.13-1.07-.19-1.63-.19-1.14,0-2.06.24-2.78.72s-1.07,1.13-1.07,1.96c0,.46.17.84.52,1.14.35.31.88.54,1.59.72.45.11.91.21,1.4.31s.96.2,1.42.31c1.06.26,1.85.67,2.39,1.23.53.56.8,1.25.8,2.09,0,.7-.17,1.39-.5,2.06s-.81,1.25-1.44,1.74c-.65.52-1.43.93-2.35,1.22s-1.96.44-3.1.44Z"/>
  <path class="cls-2" d="M430.27,54.53c-2.11,0-3.77-.5-4.97-1.49-1.2-.99-1.8-2.45-1.8-4.36,0-2.8.88-5.2,2.65-7.2,1.77-2,3.95-3,6.56-3,1.73,0,3.05.43,3.97,1.29s1.38,2.07,1.38,3.63c0,.27-.04.71-.12,1.3-.08.59-.2,1.28-.38,2.06h-11.25c-.05.26-.09.52-.12.78-.02.26-.03.49-.03.71,0,1.29.39,2.29,1.18,3.03.78.73,1.9,1.1,3.34,1.1,1,0,2.04-.2,3.1-.59,1.06-.39,1.95-.83,2.67-1.33h.15l-.56,2.78c-.46.16-.87.31-1.23.45s-.83.27-1.39.41c-.57.14-1.07.24-1.5.31-.44.07-.98.11-1.64.11ZM435.4,44.88c.05-.26.08-.49.1-.67.02-.18.03-.38.03-.6,0-.98-.27-1.74-.8-2.28s-1.39-.82-2.56-.82c-1.29,0-2.44.4-3.45,1.2-1,.8-1.68,1.86-2.04,3.17h8.72Z"/>
  <path class="cls-2" d="M457.03,32.91l-4.92,21.27h-2.57l.37-1.6c-1.16.79-2.09,1.33-2.8,1.61-.71.28-1.47.42-2.3.42-1.44,0-2.58-.46-3.42-1.37-.84-.91-1.26-2.24-1.26-3.98,0-1.47.23-2.85.68-4.16.46-1.31,1.08-2.45,1.86-3.44.77-.98,1.69-1.75,2.75-2.32,1.06-.57,2.18-.85,3.36-.85.81,0,1.56.09,2.24.26.68.17,1.32.43,1.91.78l1.53-6.62h2.57ZM452.44,41.65c-.61-.32-1.21-.55-1.8-.7s-1.21-.23-1.88-.23c-.95,0-1.79.23-2.54.68-.74.46-1.38,1.08-1.91,1.87-.48.72-.85,1.59-1.11,2.6s-.39,1.99-.39,2.94c0,1.11.24,1.96.72,2.55.48.59,1.25.88,2.33.88.76,0,1.55-.19,2.34-.57s1.53-.8,2.21-1.25l2.03-8.77Z"/>
  <path class="cls-2" d="M471.79,54.55c-1.14,0-2.16-.14-3.06-.42s-1.65-.59-2.25-.92l.57-2.75h.14c.19.16.44.36.75.58.31.22.7.44,1.17.66.43.21.92.39,1.47.54s1.14.23,1.77.23c1.29,0,2.29-.24,3.02-.71.73-.47,1.09-1.17,1.09-2.09,0-.48-.19-.85-.56-1.11s-.91-.47-1.61-.64c-.36-.08-.78-.17-1.28-.27-.5-.1-1-.22-1.51-.36-1.07-.3-1.85-.74-2.37-1.31-.51-.57-.77-1.26-.77-2.08,0-.71.16-1.38.46-2,.31-.62.77-1.19,1.38-1.71.58-.49,1.33-.89,2.23-1.2.9-.31,1.91-.46,3.01-.46.91,0,1.82.11,2.73.34.91.23,1.65.51,2.22.85l-.55,2.62h-.14c-.15-.12-.37-.28-.66-.48-.3-.2-.67-.41-1.13-.62-.39-.17-.85-.32-1.37-.45-.52-.13-1.07-.19-1.63-.19-1.14,0-2.06.24-2.78.72s-1.07,1.13-1.07,1.96c0,.46.17.84.52,1.14.35.31.88.54,1.59.72.45.11.91.21,1.4.31s.96.2,1.42.31c1.06.26,1.85.67,2.39,1.23.53.56.8,1.25.8,2.09,0,.7-.17,1.39-.5,2.06s-.81,1.25-1.44,1.74c-.65.52-1.43.93-2.35,1.22s-1.96.44-3.1.44Z"/>
  <path class="cls-2" d="M488.83,54.53c-2.11,0-3.77-.5-4.97-1.49-1.2-.99-1.8-2.45-1.8-4.36,0-2.8.88-5.2,2.65-7.2,1.77-2,3.95-3,6.56-3,1.73,0,3.05.43,3.97,1.29s1.38,2.07,1.38,3.63c0,.27-.04.71-.12,1.3-.08.59-.2,1.28-.38,2.06h-11.25c-.05.26-.09.52-.12.78-.02.26-.03.49-.03.71,0,1.29.39,2.29,1.18,3.03.78.73,1.9,1.1,3.34,1.1,1,0,2.04-.2,3.1-.59,1.06-.39,1.95-.83,2.67-1.33h.15l-.56,2.78c-.46.16-.87.31-1.23.45s-.83.27-1.39.41c-.57.14-1.07.24-1.5.31-.44.07-.98.11-1.64.11ZM493.96,44.88c.05-.26.08-.49.1-.67.02-.18.03-.38.03-.6,0-.98-.27-1.74-.8-2.28s-1.39-.82-2.56-.82c-1.29,0-2.44.4-3.45,1.2-1,.8-1.68,1.86-2.04,3.17h8.72Z"/>
  <path class="cls-2" d="M510.61,41.61h-.14c-.36-.09-.7-.16-1.02-.2-.31-.04-.69-.06-1.14-.06-.86,0-1.7.19-2.55.58-.84.39-1.65.85-2.42,1.4l-2.48,10.85h-2.59l3.48-15.27h2.59l-.51,2.26c1.21-.85,2.24-1.44,3.08-1.76s1.65-.49,2.43-.49c.45,0,.77.01.97.03.2.02.49.07.88.13l-.59,2.54Z"/>
  <path class="cls-2" d="M526.77,38.91l-9.71,15.27h-2.56l-2.61-15.27h2.61l1.93,12.21,7.51-12.21h2.82Z"/>
  <path class="cls-2" d="M532.9,38.91l-3.53,15.27h-2.57l3.53-15.27h2.57ZM534.29,33.68l-.62,2.67h-2.91l.62-2.67h2.91Z"/>
  <path class="cls-2" d="M541.07,54.52c-.97,0-1.82-.11-2.56-.34s-1.39-.59-1.95-1.08c-.54-.47-.95-1.07-1.24-1.79-.29-.72-.44-1.56-.44-2.52,0-1.43.22-2.77.67-4.01.45-1.24,1.08-2.33,1.9-3.27.79-.91,1.77-1.63,2.94-2.17s2.42-.8,3.77-.8c.89,0,1.73.12,2.52.37s1.48.54,2.08.88l-.56,2.78h-.15c-.18-.16-.41-.35-.68-.57-.27-.22-.6-.42-.97-.61-.37-.2-.79-.36-1.24-.5-.46-.13-.98-.2-1.56-.2-1.77,0-3.21.75-4.33,2.24-1.12,1.49-1.67,3.31-1.67,5.44,0,1.28.33,2.27.99,2.96.66.69,1.6,1.04,2.82,1.04.57,0,1.15-.08,1.72-.24.57-.16,1.06-.34,1.46-.53.45-.21.86-.43,1.24-.67.38-.24.66-.41.83-.53h.15l-.55,2.8c-.79.36-1.63.66-2.52.92s-1.78.39-2.69.39Z"/>
  <path class="cls-2" d="M556.27,54.53c-2.11,0-3.77-.5-4.97-1.49-1.2-.99-1.8-2.45-1.8-4.36,0-2.8.88-5.2,2.65-7.2,1.77-2,3.95-3,6.56-3,1.73,0,3.05.43,3.97,1.29s1.38,2.07,1.38,3.63c0,.27-.04.71-.12,1.3-.08.59-.2,1.28-.38,2.06h-11.25c-.05.26-.09.52-.12.78-.02.26-.03.49-.03.71,0,1.29.39,2.29,1.18,3.03.78.73,1.9,1.1,3.34,1.1,1,0,2.04-.2,3.1-.59,1.06-.39,1.95-.83,2.67-1.33h.15l-.56,2.78c-.46.16-.87.31-1.23.45s-.83.27-1.39.41c-.57.14-1.07.24-1.5.31-.44.07-.98.11-1.64.11ZM561.4,44.88c.05-.26.08-.49.1-.67.02-.18.03-.38.03-.6,0-.98-.27-1.74-.8-2.28s-1.39-.82-2.56-.82c-1.29,0-2.44.4-3.45,1.2-1,.8-1.68,1.86-2.04,3.17h8.72Z"/>
  <path class="cls-2" d="M76.99,68.91l-7.1,15.27h-2.41l-1.53-11.8-6.3,11.8h-2.38l-.96-15.27h2.63l.4,11.81,6.23-11.81h2.15l1.49,11.81,5.08-11.81h2.7Z"/>
  <path class="cls-2" d="M92.66,72.39c0,.22-.02.52-.06.89-.04.37-.1.7-.17.98l-2.3,9.91h-2.56l2-8.7c.11-.48.19-.9.25-1.26.06-.36.09-.72.09-1.07,0-.77-.19-1.34-.57-1.73-.38-.39-1.06-.58-2.05-.58-.69,0-1.46.19-2.29.57s-1.65.84-2.45,1.38l-2.63,11.39h-2.57l4.9-21.27h2.57l-1.78,7.7c.98-.69,1.89-1.21,2.74-1.57.85-.36,1.73-.55,2.63-.55,1.33,0,2.37.33,3.11,1s1.12,1.64,1.12,2.91Z"/>
  <path class="cls-2" d="M102.3,84.53c-2.11,0-3.77-.5-4.97-1.49-1.2-.99-1.8-2.45-1.8-4.36,0-2.8.88-5.2,2.65-7.2,1.77-2,3.95-3,6.56-3,1.73,0,3.05.43,3.97,1.29s1.38,2.07,1.38,3.63c0,.27-.04.71-.12,1.3-.08.59-.2,1.28-.38,2.06h-11.25c-.05.26-.09.52-.12.78-.02.26-.03.49-.03.71,0,1.29.39,2.29,1.18,3.03.78.73,1.9,1.1,3.34,1.1,1,0,2.04-.2,3.1-.59,1.06-.39,1.95-.83,2.67-1.33h.15l-.56,2.78c-.46.16-.87.31-1.23.45s-.83.27-1.39.41c-.57.14-1.07.24-1.5.31-.44.07-.98.11-1.64.11ZM107.44,74.88c.05-.26.08-.49.1-.67.02-.18.03-.38.03-.6,0-.98-.27-1.74-.8-2.28s-1.39-.82-2.56-.82c-1.29,0-2.44.4-3.45,1.2-1,.8-1.68,1.86-2.04,3.17h8.72Z"/>
  <path class="cls-2" d="M124.09,71.61h-.14c-.36-.09-.7-.16-1.02-.2-.31-.04-.69-.06-1.14-.06-.86,0-1.7.19-2.55.58-.84.39-1.65.85-2.42,1.4l-2.48,10.85h-2.59l3.48-15.27h2.59l-.51,2.26c1.21-.85,2.24-1.44,3.08-1.76s1.65-.49,2.43-.49c.45,0,.77.01.97.03.2.02.49.07.88.13l-.59,2.54Z"/>
  <path class="cls-2" d="M130.93,84.53c-2.11,0-3.77-.5-4.97-1.49-1.2-.99-1.8-2.45-1.8-4.36,0-2.8.88-5.2,2.65-7.2,1.77-2,3.95-3,6.56-3,1.73,0,3.05.43,3.97,1.29s1.38,2.07,1.38,3.63c0,.27-.04.71-.12,1.3-.08.59-.2,1.28-.38,2.06h-11.25c-.05.26-.09.52-.12.78-.02.26-.03.49-.03.71,0,1.29.39,2.29,1.18,3.03.78.73,1.9,1.1,3.34,1.1,1,0,2.04-.2,3.1-.59,1.06-.39,1.95-.83,2.67-1.33h.15l-.56,2.78c-.46.16-.87.31-1.23.45s-.83.27-1.39.41c-.57.14-1.07.24-1.5.31-.44.07-.98.11-1.64.11ZM136.07,74.88c.05-.26.08-.49.1-.67.02-.18.03-.38.03-.6,0-.98-.27-1.74-.8-2.28s-1.39-.82-2.56-.82c-1.29,0-2.44.4-3.45,1.2-1,.8-1.68,1.86-2.04,3.17h8.72Z"/>
  <path class="cls-2" d="M152.99,89.81h-2.83l4.44-6.53-2.76-14.38h2.65l2.16,11.37,7.3-11.37h2.8l-13.75,20.9Z"/>
  <path class="cls-2" d="M181.78,74.31c0,1.37-.21,2.68-.63,3.94s-1.01,2.35-1.78,3.28c-.79.97-1.71,1.72-2.75,2.26s-2.25.81-3.64.81c-1.81,0-3.23-.52-4.25-1.55-1.02-1.03-1.52-2.46-1.52-4.29,0-1.37.21-2.67.62-3.91.42-1.24,1.01-2.34,1.8-3.31.76-.93,1.68-1.67,2.78-2.23,1.1-.56,2.3-.83,3.6-.83,1.76,0,3.16.5,4.2,1.5,1.04,1,1.56,2.44,1.56,4.32ZM177.6,80.08c.49-.73.87-1.57,1.13-2.53s.39-1.97.39-3.04c0-1.28-.31-2.24-.92-2.9s-1.47-.98-2.58-.98c-.88,0-1.68.21-2.38.64s-1.31,1-1.82,1.74c-.49.72-.87,1.56-1.13,2.53-.26.97-.4,1.97-.4,3.01,0,1.26.31,2.22.92,2.9.61.67,1.48,1.01,2.6,1.01.88,0,1.67-.21,2.38-.63.71-.42,1.32-1,1.82-1.75Z"/>
  <path class="cls-2" d="M199.93,68.91l-3.51,15.27h-2.57l.39-1.69c-.97.66-1.88,1.18-2.73,1.55s-1.73.56-2.67.56c-1.31,0-2.34-.33-3.07-.99s-1.11-1.62-1.11-2.89c0-.31.02-.61.06-.9.04-.29.1-.62.17-1l2.28-9.91h2.57l-2,8.7c-.08.35-.16.76-.23,1.22-.07.46-.11.82-.11,1.08,0,.78.2,1.37.59,1.76.4.39,1.07.59,2.03.59.67,0,1.44-.2,2.31-.59.87-.39,1.67-.84,2.41-1.35l2.62-11.41h2.57Z"/>
  <path class="cls-2" d="M226.85,73.73c0,1.51-.23,2.94-.7,4.27-.47,1.33-1.09,2.46-1.87,3.39-.78.96-1.7,1.71-2.73,2.26-1.04.55-2.15.83-3.32.83-.82,0-1.57-.09-2.26-.28s-1.31-.46-1.88-.81l-1.48,6.42h-2.57l4.83-20.9h2.57l-.37,1.6c.85-.59,1.68-1.08,2.5-1.46.82-.38,1.73-.57,2.72-.57,1.49,0,2.62.46,3.4,1.38.78.92,1.17,2.21,1.17,3.87ZM224.15,74.23c0-1.08-.24-1.92-.71-2.51-.47-.59-1.23-.88-2.27-.88-.76,0-1.54.19-2.35.56-.81.37-1.57.8-2.27,1.27l-2,8.66c.59.32,1.16.56,1.7.71.54.16,1.19.23,1.95.23.94,0,1.78-.23,2.54-.68.75-.46,1.37-1.05,1.87-1.78.52-.77.91-1.62,1.16-2.56.25-.94.38-1.95.38-3.02Z"/>
  <path class="cls-2" d="M238.47,82.55c-.25.15-.58.35-1,.62-.42.27-.86.5-1.29.69-.46.21-.98.38-1.56.53-.57.14-1.23.21-1.98.21-1.21,0-2.2-.35-2.95-1.06s-1.13-1.63-1.13-2.77c0-1.21.27-2.24.8-3.07s1.32-1.52,2.37-2.04c1.03-.52,2.27-.9,3.72-1.13s3.11-.38,4.97-.43c.06-.25.1-.48.14-.66s.06-.38.06-.58c0-.44-.09-.79-.26-1.07-.17-.27-.42-.49-.74-.66-.32-.16-.69-.28-1.12-.33-.42-.06-.89-.09-1.4-.09-.78,0-1.66.13-2.66.38-.99.25-1.8.5-2.42.75h-.14l.51-2.57c.52-.14,1.28-.29,2.28-.46,1-.17,1.96-.26,2.88-.26,1.9,0,3.32.3,4.27.89.95.59,1.42,1.53,1.42,2.82,0,.25-.02.51-.06.79-.04.28-.09.54-.14.79l-2.39,10.36h-2.55l.37-1.63ZM239.96,76.13c-1.4.05-2.65.16-3.74.32-1.09.16-1.99.39-2.7.69-.74.3-1.3.71-1.68,1.22-.38.52-.57,1.16-.57,1.92,0,.66.22,1.16.67,1.5.45.35,1.14.52,2.08.52.83,0,1.67-.18,2.53-.55.86-.37,1.67-.81,2.41-1.33l1.01-4.29Z"/>
  <path class="cls-2" d="M248.35,89.81h-2.83l4.44-6.53-2.76-14.38h2.65l2.16,11.37,7.3-11.37h2.8l-13.75,20.9Z"/>
  <path class="cls-2" d="M281.67,82.55c-.25.15-.58.35-1,.62-.42.27-.86.5-1.29.69-.46.21-.98.38-1.56.53-.57.14-1.23.21-1.98.21-1.21,0-2.2-.35-2.95-1.06s-1.13-1.63-1.13-2.77c0-1.21.27-2.24.8-3.07s1.32-1.52,2.37-2.04c1.03-.52,2.27-.9,3.72-1.13s3.11-.38,4.97-.43c.06-.25.1-.48.14-.66s.06-.38.06-.58c0-.44-.09-.79-.26-1.07-.17-.27-.42-.49-.74-.66-.32-.16-.69-.28-1.12-.33-.42-.06-.89-.09-1.4-.09-.78,0-1.66.13-2.66.38-.99.25-1.8.5-2.42.75h-.14l.51-2.57c.52-.14,1.28-.29,2.28-.46,1-.17,1.96-.26,2.88-.26,1.9,0,3.32.3,4.27.89.95.59,1.42,1.53,1.42,2.82,0,.25-.02.51-.06.79-.04.28-.09.54-.14.79l-2.39,10.36h-2.55l.37-1.63ZM283.16,76.13c-1.4.05-2.65.16-3.74.32-1.09.16-1.99.39-2.7.69-.74.3-1.3.71-1.68,1.22-.38.52-.57,1.16-.57,1.92,0,.66.22,1.16.67,1.5.45.35,1.14.52,2.08.52.83,0,1.67-.18,2.53-.55.86-.37,1.67-.81,2.41-1.33l1.01-4.29Z"/>
  <path class="cls-2" d="M311.07,65.3h-.14c-.26-.09-.62-.18-1.05-.26-.44-.08-.83-.12-1.18-.12-1.12,0-1.96.28-2.52.85-.56.57-.98,1.44-1.27,2.62l-.12.52h4.64l-.49,2.05h-4.55l-2.99,13.22h-2.59l2.99-13.22h-1.75l.49-2.05h1.73l.11-.51c.37-1.79,1.1-3.17,2.19-4.16s2.49-1.48,4.21-1.48c.57,0,1.09.03,1.56.08.47.05.88.12,1.26.19l-.53,2.26Z"/>
  <path class="cls-2" d="M318.18,82.55c-.25.15-.58.35-1,.62-.42.27-.86.5-1.29.69-.46.21-.98.38-1.56.53-.57.14-1.23.21-1.98.21-1.21,0-2.2-.35-2.95-1.06s-1.13-1.63-1.13-2.77c0-1.21.27-2.24.8-3.07s1.32-1.52,2.37-2.04c1.03-.52,2.27-.9,3.72-1.13s3.11-.38,4.97-.43c.06-.25.1-.48.14-.66s.06-.38.06-.58c0-.44-.09-.79-.26-1.07-.17-.27-.42-.49-.74-.66-.32-.16-.69-.28-1.12-.33-.42-.06-.89-.09-1.4-.09-.78,0-1.66.13-2.66.38-.99.25-1.8.5-2.42.75h-.14l.51-2.57c.52-.14,1.28-.29,2.28-.46,1-.17,1.96-.26,2.88-.26,1.9,0,3.32.3,4.27.89.95.59,1.42,1.53,1.42,2.82,0,.25-.02.51-.06.79-.04.28-.09.54-.14.79l-2.39,10.36h-2.55l.37-1.63ZM319.67,76.13c-1.4.05-2.65.16-3.74.32-1.09.16-1.99.39-2.7.69-.74.3-1.3.71-1.68,1.22-.38.52-.57,1.16-.57,1.92,0,.66.22,1.16.67,1.5.45.35,1.14.52,2.08.52.83,0,1.67-.18,2.53-.55.86-.37,1.67-.81,2.41-1.33l1.01-4.29Z"/>
  <path class="cls-2" d="M331.42,68.91l-3.53,15.27h-2.57l3.53-15.27h2.57ZM332.82,63.68l-.62,2.67h-2.91l.62-2.67h2.91Z"/>
  <path class="cls-2" d="M345.31,71.61h-.14c-.36-.09-.7-.16-1.02-.2-.31-.04-.69-.06-1.14-.06-.86,0-1.7.19-2.55.58-.84.39-1.65.85-2.42,1.4l-2.48,10.85h-2.59l3.48-15.27h2.59l-.51,2.26c1.21-.85,2.24-1.44,3.08-1.76s1.65-.49,2.43-.49c.45,0,.77.01.97.03.2.02.49.07.88.13l-.59,2.54Z"/>
  <path class="cls-2" d="M370.29,73.73c0,1.51-.23,2.94-.7,4.27-.47,1.33-1.09,2.46-1.87,3.39-.78.96-1.7,1.71-2.73,2.26-1.04.55-2.15.83-3.32.83-.82,0-1.57-.09-2.26-.28s-1.31-.46-1.88-.81l-1.48,6.42h-2.57l4.83-20.9h2.57l-.37,1.6c.85-.59,1.68-1.08,2.5-1.46.82-.38,1.73-.57,2.72-.57,1.49,0,2.62.46,3.4,1.38.78.92,1.17,2.21,1.17,3.87ZM367.6,74.23c0-1.08-.24-1.92-.71-2.51-.47-.59-1.23-.88-2.27-.88-.76,0-1.54.19-2.35.56-.81.37-1.57.8-2.27,1.27l-2,8.66c.59.32,1.16.56,1.7.71.54.16,1.19.23,1.95.23.94,0,1.78-.23,2.54-.68.75-.46,1.37-1.05,1.87-1.78.52-.77.91-1.62,1.16-2.56.25-.94.38-1.95.38-3.02Z"/>
  <path class="cls-2" d="M384.55,71.61h-.14c-.36-.09-.7-.16-1.02-.2-.31-.04-.69-.06-1.14-.06-.86,0-1.7.19-2.55.58-.84.39-1.65.85-2.42,1.4l-2.48,10.85h-2.59l3.48-15.27h2.59l-.51,2.26c1.21-.85,2.24-1.44,3.08-1.76s1.65-.49,2.43-.49c.45,0,.77.01.97.03.2.02.49.07.88.13l-.59,2.54Z"/>
  <path class="cls-2" d="M390.29,68.91l-3.53,15.27h-2.57l3.53-15.27h2.57ZM391.69,63.68l-.62,2.67h-2.91l.62-2.67h2.91Z"/>
  <path class="cls-2" d="M398.47,84.52c-.97,0-1.82-.11-2.56-.34s-1.39-.59-1.95-1.08c-.54-.47-.95-1.07-1.24-1.79-.29-.72-.44-1.56-.44-2.52,0-1.43.22-2.77.67-4.01.45-1.24,1.08-2.33,1.9-3.27.79-.91,1.77-1.63,2.94-2.17s2.42-.8,3.77-.8c.89,0,1.73.12,2.52.37s1.48.54,2.08.88l-.56,2.78h-.15c-.18-.16-.41-.35-.68-.57-.27-.22-.6-.42-.97-.61-.37-.2-.79-.36-1.24-.5-.46-.13-.98-.2-1.56-.2-1.77,0-3.21.75-4.33,2.24-1.12,1.49-1.67,3.31-1.67,5.44,0,1.28.33,2.27.99,2.96.66.69,1.6,1.04,2.82,1.04.57,0,1.15-.08,1.72-.24.57-.16,1.06-.34,1.46-.53.45-.21.86-.43,1.24-.67.38-.24.66-.41.83-.53h.15l-.55,2.8c-.79.36-1.63.66-2.52.92s-1.78.39-2.69.39Z"/>
  <path class="cls-2" d="M413.67,84.53c-2.11,0-3.77-.5-4.97-1.49-1.2-.99-1.8-2.45-1.8-4.36,0-2.8.88-5.2,2.65-7.2,1.77-2,3.95-3,6.56-3,1.73,0,3.05.43,3.97,1.29s1.38,2.07,1.38,3.63c0,.27-.04.71-.12,1.3-.08.59-.2,1.28-.38,2.06h-11.25c-.05.26-.09.52-.12.78-.02.26-.03.49-.03.71,0,1.29.39,2.29,1.18,3.03.78.73,1.9,1.1,3.34,1.1,1,0,2.04-.2,3.1-.59,1.06-.39,1.95-.83,2.67-1.33h.15l-.56,2.78c-.46.16-.87.31-1.23.45s-.83.27-1.39.41c-.57.14-1.07.24-1.5.31-.44.07-.98.11-1.64.11ZM418.8,74.88c.05-.26.08-.49.1-.67.02-.18.03-.38.03-.6,0-.98-.27-1.74-.8-2.28s-1.39-.82-2.56-.82c-1.29,0-2.44.4-3.45,1.2-1,.8-1.68,1.86-2.04,3.17h8.72Z"/>
  <path class="cls-2" d="M445.39,65.3h-.14c-.26-.09-.62-.18-1.05-.26-.44-.08-.83-.12-1.18-.12-1.12,0-1.96.28-2.52.85-.56.57-.98,1.44-1.27,2.62l-.12.52h4.64l-.49,2.05h-4.55l-2.99,13.22h-2.59l2.99-13.22h-1.75l.49-2.05h1.73l.11-.51c.37-1.79,1.1-3.17,2.19-4.16s2.49-1.48,4.21-1.48c.57,0,1.09.03,1.56.08.47.05.88.12,1.26.19l-.53,2.26Z"/>
  <path class="cls-2" d="M457.82,74.31c0,1.37-.21,2.68-.63,3.94s-1.01,2.35-1.78,3.28c-.79.97-1.71,1.72-2.75,2.26s-2.25.81-3.64.81c-1.81,0-3.23-.52-4.25-1.55-1.02-1.03-1.52-2.46-1.52-4.29,0-1.37.21-2.67.62-3.91.42-1.24,1.01-2.34,1.8-3.31.76-.93,1.68-1.67,2.78-2.23,1.1-.56,2.3-.83,3.6-.83,1.76,0,3.16.5,4.2,1.5,1.04,1,1.56,2.44,1.56,4.32ZM453.64,80.08c.49-.73.87-1.57,1.13-2.53s.39-1.97.39-3.04c0-1.28-.31-2.24-.92-2.9s-1.47-.98-2.58-.98c-.88,0-1.68.21-2.38.64s-1.31,1-1.82,1.74c-.49.72-.87,1.56-1.13,2.53-.26.97-.4,1.97-.4,3.01,0,1.26.31,2.22.92,2.9.61.67,1.48,1.01,2.6,1.01.88,0,1.67-.21,2.38-.63.71-.42,1.32-1,1.82-1.75Z"/>
  <path class="cls-2" d="M472.13,71.61h-.14c-.36-.09-.7-.16-1.02-.2-.31-.04-.69-.06-1.14-.06-.86,0-1.7.19-2.55.58-.84.39-1.65.85-2.42,1.4l-2.48,10.85h-2.59l3.48-15.27h2.59l-.51,2.26c1.21-.85,2.24-1.44,3.08-1.76s1.65-.49,2.43-.49c.45,0,.77.01.97.03.2.02.49.07.88.13l-.59,2.54Z"/>
  <path class="cls-2" d="M484.36,89.81h-2.83l4.44-6.53-2.76-14.38h2.65l2.16,11.37,7.3-11.37h2.8l-13.75,20.9Z"/>
  <path class="cls-2" d="M513.15,74.31c0,1.37-.21,2.68-.63,3.94s-1.01,2.35-1.78,3.28c-.79.97-1.71,1.72-2.75,2.26s-2.25.81-3.64.81c-1.81,0-3.23-.52-4.25-1.55-1.02-1.03-1.52-2.46-1.52-4.29,0-1.37.21-2.67.62-3.91.42-1.24,1.01-2.34,1.8-3.31.76-.93,1.68-1.67,2.78-2.23,1.1-.56,2.3-.83,3.6-.83,1.76,0,3.16.5,4.2,1.5,1.04,1,1.56,2.44,1.56,4.32ZM508.97,80.08c.49-.73.87-1.57,1.13-2.53s.39-1.97.39-3.04c0-1.28-.31-2.24-.92-2.9s-1.47-.98-2.58-.98c-.88,0-1.68.21-2.38.64s-1.31,1-1.82,1.74c-.49.72-.87,1.56-1.13,2.53-.26.97-.4,1.97-.4,3.01,0,1.26.31,2.22.92,2.9.61.67,1.48,1.01,2.6,1.01.88,0,1.67-.21,2.38-.63.71-.42,1.32-1,1.82-1.75Z"/>
  <path class="cls-2" d="M531.3,68.91l-3.51,15.27h-2.57l.39-1.69c-.97.66-1.88,1.18-2.73,1.55s-1.73.56-2.67.56c-1.31,0-2.34-.33-3.07-.99s-1.11-1.62-1.11-2.89c0-.31.02-.61.06-.9.04-.29.1-.62.17-1l2.28-9.91h2.57l-2,8.7c-.08.35-.16.76-.23,1.22-.07.46-.11.82-.11,1.08,0,.78.2,1.37.59,1.76.4.39,1.07.59,2.03.59.67,0,1.44-.2,2.31-.59.87-.39,1.67-.84,2.41-1.35l2.62-11.41h2.57Z"/>
  <path class="cls-2" d="M545.18,71.61h-.14c-.36-.09-.7-.16-1.02-.2-.31-.04-.69-.06-1.14-.06-.86,0-1.7.19-2.55.58-.84.39-1.65.85-2.42,1.4l-2.48,10.85h-2.59l3.48-15.27h2.59l-.51,2.26c1.21-.85,2.24-1.44,3.08-1.76s1.65-.49,2.43-.49c.45,0,.77.01.97.03.2.02.49.07.88.13l-.59,2.54Z"/>
  <path class="cls-2" d="M53.95,114.52c-.97,0-1.82-.11-2.56-.34-.74-.23-1.39-.59-1.95-1.08-.54-.47-.95-1.07-1.24-1.79-.29-.72-.44-1.56-.44-2.52,0-1.43.22-2.77.67-4.01.45-1.24,1.08-2.33,1.9-3.27.79-.91,1.77-1.63,2.94-2.17,1.17-.53,2.42-.8,3.77-.8.89,0,1.73.12,2.52.37.79.25,1.48.54,2.08.88l-.56,2.78h-.15c-.18-.16-.41-.35-.68-.57-.27-.22-.6-.42-.97-.61-.37-.2-.79-.36-1.24-.5-.46-.13-.98-.2-1.56-.2-1.77,0-3.21.75-4.33,2.24-1.12,1.49-1.67,3.31-1.67,5.44,0,1.28.33,2.27.99,2.96.66.69,1.6,1.04,2.82,1.04.57,0,1.15-.08,1.72-.24.57-.16,1.06-.34,1.46-.53.45-.21.86-.43,1.24-.67.38-.24.66-.41.83-.53h.15l-.55,2.8c-.79.36-1.63.66-2.52.92-.88.26-1.78.39-2.69.39Z"/>
  <path class="cls-2" d="M69.15,114.53c-2.11,0-3.77-.5-4.97-1.49-1.2-.99-1.8-2.45-1.8-4.36,0-2.8.88-5.2,2.65-7.2,1.77-2,3.95-3,6.56-3,1.73,0,3.05.43,3.97,1.29s1.38,2.07,1.38,3.63c0,.27-.04.71-.12,1.3-.08.59-.2,1.28-.38,2.06h-11.25c-.05.26-.09.52-.12.78-.02.26-.03.49-.03.71,0,1.29.39,2.29,1.18,3.03.78.73,1.9,1.1,3.34,1.1,1,0,2.04-.2,3.1-.59,1.06-.39,1.95-.83,2.67-1.33h.15l-.56,2.78c-.46.16-.87.31-1.23.45s-.83.27-1.39.41c-.57.14-1.07.24-1.5.31-.44.07-.98.11-1.64.11ZM74.28,104.88c.05-.26.08-.49.1-.67.02-.18.03-.38.03-.6,0-.98-.27-1.74-.8-2.28s-1.39-.82-2.56-.82c-1.29,0-2.44.4-3.45,1.2-1,.8-1.68,1.86-2.04,3.17h8.72Z"/>
  <path class="cls-2" d="M90.94,101.61h-.14c-.36-.09-.7-.16-1.02-.2-.31-.04-.69-.06-1.14-.06-.86,0-1.7.19-2.55.58-.84.39-1.65.85-2.42,1.4l-2.48,10.85h-2.59l3.48-15.27h2.59l-.51,2.26c1.21-.85,2.24-1.44,3.08-1.76s1.65-.49,2.43-.49c.45,0,.77.01.97.03.2.02.49.07.88.13l-.59,2.54Z"/>
  <path class="cls-2" d="M102.01,98.91l-.46,2.08h-5.31l-1.63,7.05c-.09.36-.17.76-.25,1.23-.07.46-.11.83-.11,1.1,0,.67.17,1.16.51,1.49s.96.49,1.87.49c.37,0,.82-.06,1.33-.19.51-.13.86-.23,1.04-.3h.14l-.48,2.2c-.51.13-1.05.23-1.63.31s-1.09.12-1.54.12c-1.26,0-2.23-.28-2.92-.83s-1.03-1.42-1.03-2.62c0-.29.02-.58.06-.87s.1-.61.17-.98l1.9-8.2h-1.73l.47-2.08h1.75l1.02-4.39h2.58l-1.03,4.39h5.29Z"/>
  <path class="cls-2" d="M107.71,98.91l-3.53,15.27h-2.57l3.53-15.27h2.57ZM109.1,93.68l-.62,2.67h-2.91l.62-2.67h2.91Z"/>
  <path class="cls-2" d="M121.7,95.3h-.14c-.26-.09-.62-.18-1.05-.26-.44-.08-.83-.12-1.18-.12-1.12,0-1.96.28-2.52.85-.56.57-.98,1.44-1.27,2.62l-.12.52h4.64l-.49,2.05h-4.55l-2.99,13.22h-2.59l2.99-13.22h-1.75l.49-2.05h1.73l.11-.51c.37-1.79,1.1-3.17,2.19-4.16s2.49-1.48,4.21-1.48c.57,0,1.09.03,1.56.08.47.05.88.12,1.26.19l-.53,2.26Z"/>
  <path class="cls-2" d="M125.23,98.91l-3.53,15.27h-2.57l3.53-15.27h2.57ZM126.63,93.68l-.62,2.67h-2.91l.62-2.67h2.91Z"/>
  <path class="cls-2" d="M134.02,114.53c-2.11,0-3.77-.5-4.97-1.49-1.2-.99-1.8-2.45-1.8-4.36,0-2.8.88-5.2,2.65-7.2,1.77-2,3.95-3,6.56-3,1.73,0,3.05.43,3.97,1.29s1.38,2.07,1.38,3.63c0,.27-.04.71-.12,1.3-.08.59-.2,1.28-.38,2.06h-11.25c-.05.26-.09.52-.12.78-.02.26-.03.49-.03.71,0,1.29.39,2.29,1.18,3.03.78.73,1.9,1.1,3.34,1.1,1,0,2.04-.2,3.1-.59,1.06-.39,1.95-.83,2.67-1.33h.15l-.56,2.78c-.46.16-.87.31-1.23.45s-.83.27-1.39.41c-.57.14-1.07.24-1.5.31-.44.07-.98.11-1.64.11ZM139.15,104.88c.05-.26.08-.49.1-.67.02-.18.03-.38.03-.6,0-.98-.27-1.74-.8-2.28s-1.39-.82-2.56-.82c-1.29,0-2.44.4-3.45,1.2-1,.8-1.68,1.86-2.04,3.17h8.72Z"/>
  <path class="cls-2" d="M160.78,92.91l-4.92,21.27h-2.57l.37-1.6c-1.16.79-2.09,1.33-2.8,1.61-.71.28-1.47.42-2.3.42-1.44,0-2.58-.46-3.42-1.37-.84-.91-1.26-2.24-1.26-3.98,0-1.47.23-2.85.68-4.16.46-1.31,1.08-2.45,1.86-3.44.77-.98,1.69-1.75,2.75-2.32,1.06-.57,2.18-.85,3.36-.85.81,0,1.56.09,2.24.26.68.17,1.32.43,1.91.78l1.53-6.62h2.57ZM156.19,101.65c-.61-.32-1.21-.55-1.8-.7s-1.21-.23-1.88-.23c-.95,0-1.79.23-2.54.68-.74.46-1.38,1.08-1.91,1.87-.48.72-.85,1.59-1.11,2.6s-.39,1.99-.39,2.94c0,1.11.24,1.96.72,2.55.48.59,1.25.88,2.33.88.76,0,1.55-.19,2.34-.57s1.53-.8,2.21-1.25l2.03-8.77Z"/>
  <path class="cls-2" d="M182.22,98.91l-.46,2.08h-5.31l-1.63,7.05c-.09.36-.17.76-.25,1.23-.07.46-.11.83-.11,1.1,0,.67.17,1.16.51,1.49s.96.49,1.87.49c.37,0,.82-.06,1.33-.19.51-.13.86-.23,1.04-.3h.14l-.48,2.2c-.51.13-1.05.23-1.63.31s-1.09.12-1.54.12c-1.26,0-2.23-.28-2.92-.83s-1.03-1.42-1.03-2.62c0-.29.02-.58.06-.87s.1-.61.17-.98l1.9-8.2h-1.73l.47-2.08h1.75l1.02-4.39h2.58l-1.03,4.39h5.29Z"/>
  <path class="cls-2" d="M194.13,101.61h-.14c-.36-.09-.7-.16-1.02-.2-.31-.04-.69-.06-1.14-.06-.86,0-1.7.19-2.55.58-.84.39-1.65.85-2.42,1.4l-2.48,10.85h-2.59l3.48-15.27h2.59l-.51,2.26c1.21-.85,2.24-1.44,3.08-1.76s1.65-.49,2.43-.49c.45,0,.77.01.97.03.2.02.49.07.88.13l-.59,2.54Z"/>
  <path class="cls-2" d="M203.44,112.55c-.25.15-.58.35-1,.62-.42.27-.86.5-1.29.69-.46.21-.98.38-1.56.53-.57.14-1.23.21-1.98.21-1.21,0-2.2-.35-2.95-1.06s-1.13-1.63-1.13-2.77c0-1.21.27-2.24.8-3.07s1.32-1.52,2.37-2.04c1.03-.52,2.27-.9,3.72-1.13s3.11-.38,4.97-.43c.06-.25.1-.48.14-.66s.06-.38.06-.58c0-.44-.09-.79-.26-1.07-.17-.27-.42-.49-.74-.66-.32-.16-.69-.28-1.12-.33-.42-.06-.89-.09-1.4-.09-.78,0-1.66.13-2.66.38-.99.25-1.8.5-2.42.75h-.14l.51-2.57c.52-.14,1.28-.29,2.28-.46,1-.17,1.96-.26,2.88-.26,1.9,0,3.32.3,4.27.89.95.59,1.42,1.53,1.42,2.82,0,.25-.02.51-.06.79-.04.28-.09.54-.14.79l-2.39,10.36h-2.55l.37-1.63ZM204.93,106.13c-1.4.05-2.65.16-3.74.32-1.09.16-1.99.39-2.7.69-.74.3-1.3.71-1.68,1.22-.38.52-.57,1.16-.57,1.92,0,.66.22,1.16.67,1.5.45.35,1.14.52,2.08.52.83,0,1.67-.18,2.53-.55.86-.37,1.67-.81,2.41-1.33l1.01-4.29Z"/>
  <path class="cls-2" d="M225.86,102.39c0,.22-.02.52-.06.89-.04.37-.1.7-.17.98l-2.29,9.91h-2.56l2-8.7c.11-.48.19-.9.25-1.26.06-.36.09-.72.09-1.07,0-.77-.19-1.34-.57-1.73-.38-.39-1.06-.58-2.05-.58-.69,0-1.46.19-2.29.57-.83.38-1.65.84-2.44,1.37l-2.63,11.4h-2.57l3.53-15.27h2.57l-.39,1.69c.97-.68,1.89-1.21,2.74-1.57.85-.36,1.73-.55,2.63-.55,1.33,0,2.37.33,3.11,1,.74.67,1.11,1.64,1.11,2.91Z"/>
  <path class="cls-2" d="M233.05,114.55c-1.14,0-2.16-.14-3.06-.42s-1.65-.59-2.25-.92l.57-2.75h.14c.19.16.44.36.75.58.31.22.7.44,1.17.66.43.21.92.39,1.47.54s1.14.23,1.77.23c1.29,0,2.29-.24,3.02-.71.73-.47,1.09-1.17,1.09-2.09,0-.48-.19-.85-.56-1.11s-.91-.47-1.61-.64c-.36-.08-.78-.17-1.28-.27-.5-.1-1-.22-1.51-.36-1.07-.3-1.85-.74-2.37-1.31-.51-.57-.77-1.26-.77-2.08,0-.71.16-1.38.46-2,.31-.62.77-1.19,1.38-1.71.58-.49,1.33-.89,2.23-1.2.9-.31,1.91-.46,3.01-.46.91,0,1.82.11,2.73.34.91.23,1.65.51,2.22.85l-.55,2.62h-.14c-.15-.12-.37-.28-.66-.48-.3-.2-.67-.41-1.13-.62-.39-.17-.85-.32-1.37-.45-.52-.13-1.07-.19-1.63-.19-1.14,0-2.06.24-2.78.72s-1.07,1.13-1.07,1.96c0,.46.17.84.52,1.14.35.31.88.54,1.59.72.45.11.91.21,1.4.31s.96.2,1.42.31c1.06.26,1.85.67,2.39,1.23.53.56.8,1.25.8,2.09,0,.7-.17,1.39-.5,2.06s-.81,1.25-1.44,1.74c-.65.52-1.43.93-2.35,1.22s-1.96.44-3.1.44Z"/>
  <path class="cls-2" d="M250.38,92.91l-4.92,21.27h-2.57l4.92-21.27h2.57Z"/>
  <path class="cls-2" d="M260.25,112.55c-.25.15-.58.35-1,.62-.42.27-.86.5-1.29.69-.46.21-.98.38-1.56.53-.57.14-1.23.21-1.98.21-1.21,0-2.2-.35-2.95-1.06s-1.13-1.63-1.13-2.77c0-1.21.27-2.24.8-3.07s1.32-1.52,2.37-2.04c1.03-.52,2.27-.9,3.72-1.13s3.11-.38,4.97-.43c.06-.25.1-.48.14-.66s.06-.38.06-.58c0-.44-.09-.79-.26-1.07-.17-.27-.42-.49-.74-.66-.32-.16-.69-.28-1.12-.33-.42-.06-.89-.09-1.4-.09-.78,0-1.66.13-2.66.38-.99.25-1.8.5-2.42.75h-.14l.51-2.57c.52-.14,1.28-.29,2.28-.46,1-.17,1.96-.26,2.88-.26,1.9,0,3.32.3,4.27.89.95.59,1.42,1.53,1.42,2.82,0,.25-.02.51-.06.79-.04.28-.09.54-.14.79l-2.39,10.36h-2.55l.37-1.63ZM261.74,106.13c-1.4.05-2.65.16-3.74.32-1.09.16-1.99.39-2.7.69-.74.3-1.3.71-1.68,1.22-.38.52-.57,1.16-.57,1.92,0,.66.22,1.16.67,1.5.45.35,1.14.52,2.08.52.83,0,1.67-.18,2.53-.55.86-.37,1.67-.81,2.41-1.33l1.01-4.29Z"/>
  <path class="cls-2" d="M278.83,98.91l-.46,2.08h-5.31l-1.63,7.05c-.09.36-.17.76-.25,1.23-.07.46-.11.83-.11,1.1,0,.67.17,1.16.51,1.49s.96.49,1.87.49c.37,0,.82-.06,1.33-.19.51-.13.86-.23,1.04-.3h.14l-.48,2.2c-.51.13-1.05.23-1.63.31s-1.09.12-1.54.12c-1.26,0-2.23-.28-2.92-.83s-1.03-1.42-1.03-2.62c0-.29.02-.58.06-.87s.1-.61.17-.98l1.9-8.2h-1.73l.47-2.08h1.75l1.02-4.39h2.58l-1.03,4.39h5.29Z"/>
  <path class="cls-2" d="M284.53,98.91l-3.53,15.27h-2.57l3.53-15.27h2.57ZM285.92,93.68l-.62,2.67h-2.91l.62-2.67h2.91Z"/>
  <path class="cls-2" d="M301.1,104.31c0,1.37-.21,2.68-.63,3.94s-1.01,2.35-1.78,3.28c-.79.97-1.71,1.72-2.75,2.26s-2.25.81-3.64.81c-1.81,0-3.23-.52-4.25-1.55-1.02-1.03-1.52-2.46-1.52-4.29,0-1.37.21-2.67.62-3.91.42-1.24,1.01-2.34,1.8-3.31.76-.93,1.68-1.67,2.78-2.23,1.1-.56,2.3-.83,3.6-.83,1.76,0,3.16.5,4.2,1.5,1.04,1,1.56,2.44,1.56,4.32ZM296.92,110.08c.49-.73.87-1.57,1.13-2.53s.39-1.97.39-3.04c0-1.28-.31-2.24-.92-2.9s-1.47-.98-2.58-.98c-.88,0-1.68.21-2.38.64s-1.31,1-1.82,1.74c-.49.72-.87,1.56-1.13,2.53-.26.97-.4,1.97-.4,3.01,0,1.26.31,2.22.92,2.9.61.67,1.48,1.01,2.6,1.01.88,0,1.67-.21,2.38-.63.71-.42,1.32-1,1.82-1.75Z"/>
  <path class="cls-2" d="M318.38,102.39c0,.22-.02.52-.06.89-.04.37-.1.7-.17.98l-2.29,9.91h-2.56l2-8.7c.11-.48.19-.9.25-1.26.06-.36.09-.72.09-1.07,0-.77-.19-1.34-.57-1.73-.38-.39-1.06-.58-2.05-.58-.69,0-1.46.19-2.29.57-.83.38-1.65.84-2.44,1.37l-2.63,11.4h-2.57l3.53-15.27h2.57l-.39,1.69c.97-.68,1.89-1.21,2.74-1.57.85-.36,1.73-.55,2.63-.55,1.33,0,2.37.33,3.11,1,.74.67,1.11,1.64,1.11,2.91Z"/>
  <path class="cls-2" d="M325.57,114.55c-1.14,0-2.16-.14-3.06-.42s-1.65-.59-2.25-.92l.57-2.75h.14c.19.16.44.36.75.58.31.22.7.44,1.17.66.43.21.92.39,1.47.54s1.14.23,1.77.23c1.29,0,2.29-.24,3.02-.71.73-.47,1.09-1.17,1.09-2.09,0-.48-.19-.85-.56-1.11s-.91-.47-1.61-.64c-.36-.08-.78-.17-1.28-.27-.5-.1-1-.22-1.51-.36-1.07-.3-1.85-.74-2.37-1.31-.51-.57-.77-1.26-.77-2.08,0-.71.16-1.38.46-2,.31-.62.77-1.19,1.38-1.71.58-.49,1.33-.89,2.23-1.2.9-.31,1.91-.46,3.01-.46.91,0,1.82.11,2.73.34.91.23,1.65.51,2.22.85l-.55,2.62h-.14c-.15-.12-.37-.28-.66-.48-.3-.2-.67-.41-1.13-.62-.39-.17-.85-.32-1.37-.45-.52-.13-1.07-.19-1.63-.19-1.14,0-2.06.24-2.78.72s-1.07,1.13-1.07,1.96c0,.46.17.84.52,1.14.35.31.88.54,1.59.72.45.11.91.21,1.4.31s.96.2,1.42.31c1.06.26,1.85.67,2.39,1.23.53.56.8,1.25.8,2.09,0,.7-.17,1.39-.5,2.06s-.81,1.25-1.44,1.74c-.65.52-1.43.93-2.35,1.22s-1.96.44-3.1.44Z"/>
  <path class="cls-2" d="M360.75,103.73c0,1.49-.23,2.9-.7,4.25-.47,1.35-1.09,2.5-1.86,3.46-.81,1-1.72,1.78-2.72,2.33s-2.11.83-3.32.83c-.81,0-1.57-.11-2.28-.32-.71-.21-1.34-.5-1.89-.85l-.34.75h-2.4l4.9-21.27h2.57l-1.75,7.6c.85-.59,1.68-1.08,2.49-1.46.81-.38,1.72-.57,2.71-.57,1.49,0,2.63.46,3.42,1.38.79.92,1.18,2.21,1.18,3.87ZM356.52,109.87c.51-.79.89-1.66,1.15-2.61.25-.95.38-1.96.38-3.04s-.24-1.92-.71-2.51c-.47-.59-1.23-.88-2.27-.88-.76,0-1.54.19-2.35.56-.81.37-1.57.8-2.27,1.27l-2.01,8.74c.58.31,1.15.55,1.7.72.55.17,1.21.26,1.98.26.95,0,1.8-.23,2.54-.7s1.37-1.07,1.86-1.82Z"/>
  <path class="cls-2" d="M372.37,112.55c-.25.15-.58.35-1,.62-.42.27-.86.5-1.29.69-.46.21-.98.38-1.56.53-.57.14-1.23.21-1.98.21-1.21,0-2.2-.35-2.95-1.06s-1.13-1.63-1.13-2.77c0-1.21.27-2.24.8-3.07s1.32-1.52,2.37-2.04c1.03-.52,2.27-.9,3.72-1.13s3.11-.38,4.97-.43c.06-.25.1-.48.14-.66s.06-.38.06-.58c0-.44-.09-.79-.26-1.07-.17-.27-.42-.49-.74-.66-.32-.16-.69-.28-1.12-.33-.42-.06-.89-.09-1.4-.09-.78,0-1.66.13-2.66.38-.99.25-1.8.5-2.42.75h-.14l.51-2.57c.52-.14,1.28-.29,2.28-.46,1-.17,1.96-.26,2.88-.26,1.9,0,3.32.3,4.27.89.95.59,1.42,1.53,1.42,2.82,0,.25-.02.51-.06.79-.04.28-.09.54-.14.79l-2.39,10.36h-2.55l.37-1.63ZM373.86,106.13c-1.4.05-2.65.16-3.74.32-1.09.16-1.99.39-2.7.69-.74.3-1.3.71-1.68,1.22-.38.52-.57,1.16-.57,1.92,0,.66.22,1.16.67,1.5.45.35,1.14.52,2.08.52.83,0,1.67-.18,2.53-.55.86-.37,1.67-.81,2.41-1.33l1.01-4.29Z"/>
  <path class="cls-2" d="M384.26,114.55c-1.14,0-2.16-.14-3.06-.42s-1.65-.59-2.25-.92l.57-2.75h.14c.19.16.44.36.75.58.31.22.7.44,1.17.66.43.21.92.39,1.47.54s1.14.23,1.77.23c1.29,0,2.29-.24,3.02-.71.73-.47,1.09-1.17,1.09-2.09,0-.48-.19-.85-.56-1.11s-.91-.47-1.61-.64c-.36-.08-.78-.17-1.28-.27-.5-.1-1-.22-1.51-.36-1.07-.3-1.85-.74-2.37-1.31-.51-.57-.77-1.26-.77-2.08,0-.71.16-1.38.46-2,.31-.62.77-1.19,1.38-1.71.58-.49,1.33-.89,2.23-1.2.9-.31,1.91-.46,3.01-.46.91,0,1.82.11,2.73.34.91.23,1.65.51,2.22.85l-.55,2.62h-.14c-.15-.12-.37-.28-.66-.48-.3-.2-.67-.41-1.13-.62-.39-.17-.85-.32-1.37-.45-.52-.13-1.07-.19-1.63-.19-1.14,0-2.06.24-2.78.72s-1.07,1.13-1.07,1.96c0,.46.17.84.52,1.14.35.31.88.54,1.59.72.45.11.91.21,1.4.31s.96.2,1.42.31c1.06.26,1.85.67,2.39,1.23.53.56.8,1.25.8,2.09,0,.7-.17,1.39-.5,2.06s-.81,1.25-1.44,1.74c-.65.52-1.43.93-2.35,1.22s-1.96.44-3.1.44Z"/>
  <path class="cls-2" d="M401.31,114.53c-2.11,0-3.77-.5-4.97-1.49-1.2-.99-1.8-2.45-1.8-4.36,0-2.8.88-5.2,2.65-7.2,1.77-2,3.95-3,6.56-3,1.73,0,3.05.43,3.97,1.29s1.38,2.07,1.38,3.63c0,.27-.04.71-.12,1.3-.08.59-.2,1.28-.38,2.06h-11.25c-.05.26-.09.52-.12.78-.02.26-.03.49-.03.71,0,1.29.39,2.29,1.18,3.03.78.73,1.9,1.1,3.34,1.1,1,0,2.04-.2,3.1-.59,1.06-.39,1.95-.83,2.67-1.33h.15l-.56,2.78c-.46.16-.87.31-1.23.45s-.83.27-1.39.41c-.57.14-1.07.24-1.5.31-.44.07-.98.11-1.64.11ZM406.44,104.88c.05-.26.08-.49.1-.67.02-.18.03-.38.03-.6,0-.98-.27-1.74-.8-2.28s-1.39-.82-2.56-.82c-1.29,0-2.44.4-3.45,1.2-1,.8-1.68,1.86-2.04,3.17h8.72Z"/>
  <path class="cls-2" d="M428.06,92.91l-4.92,21.27h-2.57l.37-1.6c-1.16.79-2.09,1.33-2.8,1.61-.71.28-1.47.42-2.3.42-1.44,0-2.58-.46-3.42-1.37-.84-.91-1.26-2.24-1.26-3.98,0-1.47.23-2.85.68-4.16.46-1.31,1.08-2.45,1.86-3.44.77-.98,1.69-1.75,2.75-2.32,1.06-.57,2.18-.85,3.36-.85.81,0,1.56.09,2.24.26.68.17,1.32.43,1.91.78l1.53-6.62h2.57ZM423.47,101.65c-.61-.32-1.21-.55-1.8-.7s-1.21-.23-1.88-.23c-.95,0-1.79.23-2.54.68-.74.46-1.38,1.08-1.91,1.87-.48.72-.85,1.59-1.11,2.6s-.39,1.99-.39,2.94c0,1.11.24,1.96.72,2.55.48.59,1.25.88,2.33.88.76,0,1.55-.19,2.34-.57s1.53-.8,2.21-1.25l2.03-8.77Z"/>
  <path class="cls-2" d="M453.06,104.31c0,1.37-.21,2.68-.63,3.94s-1.01,2.35-1.78,3.28c-.79.97-1.71,1.72-2.75,2.26s-2.25.81-3.64.81c-1.81,0-3.23-.52-4.25-1.55-1.02-1.03-1.52-2.46-1.52-4.29,0-1.37.21-2.67.62-3.91.42-1.24,1.01-2.34,1.8-3.31.76-.93,1.68-1.67,2.78-2.23,1.1-.56,2.3-.83,3.6-.83,1.76,0,3.16.5,4.2,1.5,1.04,1,1.56,2.44,1.56,4.32ZM448.88,110.08c.49-.73.87-1.57,1.13-2.53s.39-1.97.39-3.04c0-1.28-.31-2.24-.92-2.9s-1.47-.98-2.58-.98c-.88,0-1.68.21-2.38.64s-1.31,1-1.82,1.74c-.49.72-.87,1.56-1.13,2.53-.26.97-.4,1.97-.4,3.01,0,1.26.31,2.22.92,2.9.61.67,1.48,1.01,2.6,1.01.88,0,1.67-.21,2.38-.63.71-.42,1.32-1,1.82-1.75Z"/>
  <path class="cls-2" d="M470.34,102.39c0,.22-.02.52-.06.89-.04.37-.1.7-.17.98l-2.29,9.91h-2.56l2-8.7c.11-.48.19-.9.25-1.26.06-.36.09-.72.09-1.07,0-.77-.19-1.34-.57-1.73-.38-.39-1.06-.58-2.05-.58-.69,0-1.46.19-2.29.57-.83.38-1.65.84-2.44,1.37l-2.63,11.4h-2.57l3.53-15.27h2.57l-.39,1.69c.97-.68,1.89-1.21,2.74-1.57.85-.36,1.73-.55,2.63-.55,1.33,0,2.37.33,3.11,1,.74.67,1.11,1.64,1.11,2.91Z"/>
  <path class="cls-2" d="M505.15,98.91l-7.1,15.27h-2.41l-1.53-11.8-6.3,11.8h-2.38l-.96-15.27h2.63l.4,11.81,6.23-11.81h2.15l1.49,11.81,5.08-11.81h2.7Z"/>
  <path class="cls-2" d="M520.53,104.31c0,1.37-.21,2.68-.63,3.94s-1.01,2.35-1.78,3.28c-.79.97-1.71,1.72-2.75,2.26s-2.25.81-3.64.81c-1.81,0-3.23-.52-4.25-1.55-1.02-1.03-1.52-2.46-1.52-4.29,0-1.37.21-2.67.62-3.91.42-1.24,1.01-2.34,1.8-3.31.76-.93,1.68-1.67,2.78-2.23,1.1-.56,2.3-.83,3.6-.83,1.76,0,3.16.5,4.2,1.5,1.04,1,1.56,2.44,1.56,4.32ZM516.35,110.08c.49-.73.87-1.57,1.13-2.53s.39-1.97.39-3.04c0-1.28-.31-2.24-.92-2.9s-1.47-.98-2.58-.98c-.88,0-1.68.21-2.38.64s-1.31,1-1.82,1.74c-.49.72-.87,1.56-1.13,2.53-.26.97-.4,1.97-.4,3.01,0,1.26.31,2.22.92,2.9.61.67,1.48,1.01,2.6,1.01.88,0,1.67-.21,2.38-.63.71-.42,1.32-1,1.82-1.75Z"/>
  <path class="cls-2" d="M534.85,101.61h-.14c-.36-.09-.7-.16-1.02-.2-.31-.04-.69-.06-1.14-.06-.86,0-1.7.19-2.55.58-.84.39-1.65.85-2.42,1.4l-2.48,10.85h-2.59l3.48-15.27h2.59l-.51,2.26c1.21-.85,2.24-1.44,3.08-1.76s1.65-.49,2.43-.49c.45,0,.77.01.97.03.2.02.49.07.88.13l-.59,2.54Z"/>
  <path class="cls-2" d="M551.77,92.91l-4.92,21.27h-2.57l.37-1.6c-1.16.79-2.09,1.33-2.8,1.61-.71.28-1.47.42-2.3.42-1.44,0-2.58-.46-3.42-1.37-.84-.91-1.26-2.24-1.26-3.98,0-1.47.23-2.85.68-4.16.46-1.31,1.08-2.45,1.86-3.44.77-.98,1.69-1.75,2.75-2.32,1.06-.57,2.18-.85,3.36-.85.81,0,1.56.09,2.24.26.68.17,1.32.43,1.91.78l1.53-6.62h2.57ZM547.17,101.65c-.61-.32-1.21-.55-1.8-.7s-1.21-.23-1.88-.23c-.95,0-1.79.23-2.54.68-.74.46-1.38,1.08-1.91,1.87-.48.72-.85,1.59-1.11,2.6s-.39,1.99-.39,2.94c0,1.11.24,1.96.72,2.55.48.59,1.25.88,2.33.88.76,0,1.55-.19,2.34-.57s1.53-.8,2.21-1.25l2.03-8.77Z"/>
  <path class="cls-2" d="M28.03,144.52c-.97,0-1.82-.11-2.56-.34-.74-.23-1.39-.59-1.95-1.08-.54-.47-.95-1.07-1.24-1.79-.29-.72-.44-1.56-.44-2.52,0-1.43.22-2.77.67-4.01.45-1.24,1.08-2.33,1.9-3.27.79-.91,1.77-1.63,2.94-2.17,1.17-.53,2.42-.8,3.77-.8.89,0,1.73.12,2.52.37.79.25,1.48.54,2.08.88l-.56,2.78h-.15c-.18-.16-.41-.35-.68-.57-.27-.22-.6-.42-.97-.61-.37-.2-.79-.36-1.24-.5-.46-.13-.98-.2-1.56-.2-1.77,0-3.21.75-4.33,2.24-1.12,1.49-1.67,3.3-1.67,5.44,0,1.28.33,2.27.99,2.96.66.69,1.6,1.04,2.82,1.04.57,0,1.15-.08,1.72-.24s1.06-.34,1.46-.53c.45-.21.86-.43,1.24-.67s.66-.41.83-.53h.15l-.55,2.8c-.79.36-1.63.66-2.52.92-.88.26-1.78.39-2.69.39Z"/>
  <path class="cls-2" d="M51.01,134.31c0,1.37-.21,2.68-.63,3.94-.42,1.26-1.01,2.35-1.78,3.28-.79.97-1.71,1.72-2.75,2.26s-2.25.81-3.64.81c-1.81,0-3.23-.52-4.25-1.55-1.02-1.03-1.52-2.46-1.52-4.29,0-1.37.21-2.67.62-3.91.41-1.24,1.01-2.34,1.8-3.31.76-.93,1.68-1.67,2.78-2.23,1.1-.56,2.3-.83,3.6-.83,1.76,0,3.16.5,4.2,1.5,1.04,1,1.56,2.44,1.56,4.32ZM46.83,140.08c.49-.73.87-1.57,1.13-2.53s.39-1.97.39-3.04c0-1.28-.31-2.24-.92-2.9-.61-.66-1.47-.98-2.58-.98-.88,0-1.68.21-2.38.64-.7.42-1.31,1-1.82,1.74-.49.72-.87,1.56-1.13,2.53-.26.97-.4,1.97-.4,3.01,0,1.26.31,2.22.92,2.9.61.67,1.48,1.01,2.6,1.01.88,0,1.67-.21,2.38-.63s1.32-1,1.82-1.75Z"/>
  <path class="cls-2" d="M69.16,128.91l-3.51,15.27h-2.57l.39-1.69c-.97.66-1.88,1.18-2.73,1.55-.84.37-1.73.56-2.67.56-1.31,0-2.34-.33-3.07-.99-.74-.66-1.11-1.62-1.11-2.89,0-.31.02-.61.06-.9s.1-.62.17-1l2.28-9.91h2.57l-2,8.7c-.08.35-.16.76-.23,1.22-.07.46-.11.82-.11,1.08,0,.78.2,1.37.59,1.76.4.39,1.07.59,2.02.59.67,0,1.44-.2,2.31-.59s1.67-.84,2.41-1.35l2.62-11.41h2.57Z"/>
  <path class="cls-2" d="M86.01,132.39c0,.22-.02.51-.06.89s-.1.7-.17.98l-2.29,9.91h-2.56l2-8.7c.11-.48.19-.9.25-1.26.06-.36.09-.72.09-1.07,0-.77-.19-1.34-.57-1.73-.38-.39-1.06-.58-2.05-.58-.69,0-1.46.19-2.29.57-.83.38-1.65.84-2.44,1.37l-2.63,11.4h-2.57l3.53-15.27h2.57l-.39,1.69c.97-.68,1.89-1.21,2.74-1.57.85-.36,1.73-.55,2.63-.55,1.33,0,2.37.33,3.11,1,.74.67,1.11,1.64,1.11,2.91Z"/>
  <path class="cls-2" d="M99.89,128.91l-.46,2.08h-5.31l-1.63,7.05c-.09.36-.17.76-.25,1.23-.07.46-.11.83-.11,1.1,0,.67.17,1.16.51,1.49.34.32.96.49,1.87.49.37,0,.82-.06,1.33-.19s.86-.23,1.04-.3h.14l-.48,2.2c-.51.13-1.05.23-1.63.31-.58.08-1.09.12-1.54.12-1.26,0-2.23-.28-2.92-.83s-1.03-1.42-1.03-2.62c0-.29.02-.58.06-.87s.1-.61.17-.98l1.9-8.2h-1.73l.47-2.08h1.75l1.02-4.39h2.58l-1.03,4.39h5.29Z"/>
  <path class="cls-2" d="M105.82,140.28l-5.93,8.96h-2l4.43-8.96h3.5Z"/>
  <path class="cls-2" d="M134.79,132.39c0,.22-.02.51-.06.89s-.1.7-.17.98l-2.29,9.91h-2.56l2-8.7c.11-.48.19-.9.25-1.26.06-.36.09-.72.09-1.07,0-.77-.19-1.34-.57-1.73-.38-.39-1.06-.58-2.05-.58-.69,0-1.46.19-2.29.57-.83.38-1.65.84-2.44,1.37l-2.63,11.4h-2.57l3.53-15.27h2.57l-.39,1.69c.97-.68,1.89-1.21,2.74-1.57.85-.36,1.73-.55,2.63-.55,1.33,0,2.37.33,3.11,1,.74.67,1.11,1.64,1.11,2.91Z"/>
  <path class="cls-2" d="M152.23,134.31c0,1.37-.21,2.68-.63,3.94s-1.01,2.35-1.78,3.28c-.79.97-1.71,1.72-2.75,2.26s-2.25.81-3.64.81c-1.81,0-3.23-.52-4.25-1.55s-1.52-2.46-1.52-4.29c0-1.37.21-2.67.62-3.91s1.01-2.34,1.8-3.31c.76-.93,1.68-1.67,2.78-2.23,1.1-.56,2.3-.83,3.6-.83,1.76,0,3.16.5,4.2,1.5,1.04,1,1.56,2.44,1.56,4.32ZM148.04,140.08c.49-.73.87-1.57,1.13-2.53s.39-1.97.39-3.04c0-1.28-.31-2.24-.92-2.9s-1.47-.98-2.58-.98c-.88,0-1.68.21-2.38.64s-1.31,1-1.82,1.74c-.49.72-.87,1.56-1.13,2.53s-.4,1.97-.4,3.01c0,1.26.31,2.22.92,2.9s1.48,1.01,2.6,1.01c.88,0,1.67-.21,2.38-.63s1.32-1,1.82-1.75Z"/>
  <path class="cls-2" d="M165.66,128.91l-.46,2.08h-5.31l-1.63,7.05c-.09.36-.17.76-.25,1.23-.07.46-.11.83-.11,1.1,0,.67.17,1.16.51,1.49.34.32.96.49,1.87.49.37,0,.82-.06,1.33-.19s.86-.23,1.04-.3h.14l-.48,2.2c-.51.13-1.05.23-1.63.31-.58.08-1.09.12-1.54.12-1.26,0-2.23-.28-2.92-.83s-1.03-1.42-1.03-2.62c0-.29.02-.58.06-.87s.1-.61.17-.98l1.9-8.2h-1.73l.47-2.08h1.75l1.02-4.39h2.58l-1.03,4.39h5.29Z"/>
  <path class="cls-2" d="M184.78,142.55c-.25.15-.58.35-1,.62s-.86.5-1.29.69c-.46.21-.98.38-1.56.53s-1.23.21-1.98.21c-1.21,0-2.2-.35-2.95-1.06s-1.13-1.63-1.13-2.77c0-1.21.27-2.24.8-3.07s1.32-1.52,2.37-2.04c1.03-.52,2.27-.9,3.72-1.13s3.11-.38,4.97-.43c.06-.25.1-.48.14-.66s.06-.38.06-.58c0-.44-.09-.79-.26-1.07-.17-.27-.42-.49-.74-.66s-.69-.28-1.12-.33c-.42-.06-.89-.09-1.4-.09-.78,0-1.66.13-2.66.38-.99.25-1.8.5-2.42.75h-.14l.51-2.57c.52-.14,1.28-.29,2.28-.46,1-.17,1.96-.26,2.88-.26,1.9,0,3.32.3,4.27.89.95.59,1.42,1.53,1.42,2.82,0,.25-.02.51-.06.79s-.09.54-.14.79l-2.39,10.36h-2.55l.37-1.63ZM186.27,136.13c-1.4.05-2.65.16-3.74.32-1.09.16-1.99.39-2.7.69-.74.3-1.3.71-1.68,1.22s-.57,1.16-.57,1.92c0,.66.22,1.16.67,1.5.45.35,1.14.52,2.08.52.83,0,1.67-.18,2.53-.55.86-.37,1.67-.81,2.41-1.33l1.01-4.29Z"/>
  <path class="cls-2" d="M207.2,132.39c0,.22-.02.51-.06.89s-.1.7-.17.98l-2.29,9.91h-2.56l2-8.7c.11-.48.19-.9.25-1.26.06-.36.09-.72.09-1.07,0-.77-.19-1.34-.57-1.73-.38-.39-1.06-.58-2.05-.58-.69,0-1.46.19-2.29.57-.83.38-1.65.84-2.44,1.37l-2.63,11.4h-2.57l3.53-15.27h2.57l-.39,1.69c.97-.68,1.89-1.21,2.74-1.57.85-.36,1.73-.55,2.63-.55,1.33,0,2.37.33,3.11,1,.74.67,1.11,1.64,1.11,2.91Z"/>
  <path class="cls-2" d="M229.16,142.55c-.25.15-.58.35-1,.62s-.86.5-1.29.69c-.46.21-.98.38-1.56.53s-1.23.21-1.98.21c-1.21,0-2.2-.35-2.95-1.06s-1.13-1.63-1.13-2.77c0-1.21.27-2.24.8-3.07s1.32-1.52,2.37-2.04c1.03-.52,2.27-.9,3.72-1.13s3.11-.38,4.97-.43c.06-.25.1-.48.14-.66s.06-.38.06-.58c0-.44-.09-.79-.26-1.07-.17-.27-.42-.49-.74-.66s-.69-.28-1.12-.33c-.42-.06-.89-.09-1.4-.09-.78,0-1.66.13-2.66.38-.99.25-1.8.5-2.42.75h-.14l.51-2.57c.52-.14,1.28-.29,2.28-.46,1-.17,1.96-.26,2.88-.26,1.9,0,3.32.3,4.27.89.95.59,1.42,1.53,1.42,2.82,0,.25-.02.51-.06.79s-.09.54-.14.79l-2.39,10.36h-2.55l.37-1.63ZM230.65,136.13c-1.4.05-2.65.16-3.74.32-1.09.16-1.99.39-2.7.69-.74.3-1.3.71-1.68,1.22s-.57,1.16-.57,1.92c0,.66.22,1.16.67,1.5.45.35,1.14.52,2.08.52.83,0,1.67-.18,2.53-.55.86-.37,1.67-.81,2.41-1.33l1.01-4.29Z"/>
  <path class="cls-2" d="M248.61,131.61h-.14c-.36-.09-.7-.16-1.02-.2-.31-.04-.69-.06-1.14-.06-.86,0-1.7.19-2.55.58s-1.65.85-2.42,1.4l-2.48,10.85h-2.59l3.48-15.27h2.59l-.51,2.26c1.21-.85,2.24-1.44,3.08-1.76s1.65-.49,2.43-.49c.45,0,.77.01.97.03.2.02.49.07.88.13l-.59,2.54Z"/>
  <path class="cls-2" d="M263.75,133.73c0,1.49-.23,2.9-.7,4.25-.47,1.35-1.09,2.5-1.86,3.46-.81,1-1.72,1.78-2.72,2.33s-2.11.83-3.32.83c-.81,0-1.57-.11-2.28-.32-.71-.21-1.34-.5-1.89-.85l-.34.75h-2.4l4.9-21.27h2.57l-1.75,7.6c.85-.59,1.68-1.08,2.49-1.46.81-.38,1.72-.57,2.71-.57,1.49,0,2.63.46,3.42,1.38.79.92,1.18,2.21,1.18,3.87ZM259.52,139.87c.51-.79.89-1.66,1.15-2.61.25-.95.38-1.96.38-3.04s-.24-1.92-.71-2.51c-.47-.59-1.23-.88-2.27-.88-.76,0-1.54.19-2.35.56s-1.57.8-2.27,1.27l-2.01,8.74c.58.31,1.15.55,1.7.72s1.21.26,1.98.26c.95,0,1.8-.23,2.54-.7s1.37-1.07,1.86-1.82Z"/>
  <path class="cls-2" d="M271.8,128.91l-3.53,15.27h-2.57l3.53-15.27h2.57ZM273.19,123.69l-.62,2.67h-2.91l.62-2.67h2.91Z"/>
  <path class="cls-2" d="M284.82,128.91l-.46,2.08h-5.31l-1.63,7.05c-.09.36-.17.76-.25,1.23-.07.46-.11.83-.11,1.1,0,.67.17,1.16.51,1.49.34.32.96.49,1.87.49.37,0,.82-.06,1.33-.19s.86-.23,1.04-.3h.14l-.48,2.2c-.51.13-1.05.23-1.63.31-.58.08-1.09.12-1.54.12-1.26,0-2.23-.28-2.92-.83s-1.03-1.42-1.03-2.62c0-.29.02-.58.06-.87s.1-.61.17-.98l1.9-8.2h-1.73l.47-2.08h1.75l1.02-4.39h2.58l-1.03,4.39h5.29Z"/>
  <path class="cls-2" d="M296.72,131.61h-.14c-.36-.09-.7-.16-1.02-.2-.31-.04-.69-.06-1.14-.06-.86,0-1.7.19-2.55.58s-1.65.85-2.42,1.4l-2.48,10.85h-2.59l3.48-15.27h2.59l-.51,2.26c1.21-.85,2.24-1.44,3.08-1.76s1.65-.49,2.43-.49c.45,0,.77.01.97.03.2.02.49.07.88.13l-.59,2.54Z"/>
  <path class="cls-2" d="M306.04,142.55c-.25.15-.58.35-1,.62s-.86.5-1.29.69c-.46.21-.98.38-1.56.53s-1.23.21-1.98.21c-1.21,0-2.2-.35-2.95-1.06s-1.13-1.63-1.13-2.77c0-1.21.27-2.24.8-3.07s1.32-1.52,2.37-2.04c1.03-.52,2.27-.9,3.72-1.13s3.11-.38,4.97-.43c.06-.25.1-.48.14-.66s.06-.38.06-.58c0-.44-.09-.79-.26-1.07-.17-.27-.42-.49-.74-.66s-.69-.28-1.12-.33c-.42-.06-.89-.09-1.4-.09-.78,0-1.66.13-2.66.38-.99.25-1.8.5-2.42.75h-.14l.51-2.57c.52-.14,1.28-.29,2.28-.46,1-.17,1.96-.26,2.88-.26,1.9,0,3.32.3,4.27.89.95.59,1.42,1.53,1.42,2.82,0,.25-.02.51-.06.79s-.09.54-.14.79l-2.39,10.36h-2.55l.37-1.63ZM307.53,136.13c-1.4.05-2.65.16-3.74.32-1.09.16-1.99.39-2.7.69-.74.3-1.3.71-1.68,1.22s-.57,1.16-.57,1.92c0,.66.22,1.16.67,1.5.45.35,1.14.52,2.08.52.83,0,1.67-.18,2.53-.55.86-.37,1.67-.81,2.41-1.33l1.01-4.29Z"/>
  <path class="cls-2" d="M325.49,131.61h-.14c-.36-.09-.7-.16-1.02-.2-.31-.04-.69-.06-1.14-.06-.86,0-1.7.19-2.55.58s-1.65.85-2.42,1.4l-2.48,10.85h-2.59l3.48-15.27h2.59l-.51,2.26c1.21-.85,2.24-1.44,3.08-1.76s1.65-.49,2.43-.49c.45,0,.77.01.97.03.2.02.49.07.88.13l-.59,2.54Z"/>
  <path class="cls-2" d="M327.87,149.81h-2.83l4.44-6.53-2.76-14.38h2.65l2.16,11.37,7.3-11.37h2.8l-13.75,20.9Z"/>
  <path class="cls-2" d="M367.01,133.73c0,1.51-.23,2.93-.7,4.27-.47,1.33-1.09,2.46-1.87,3.39-.78.96-1.7,1.71-2.73,2.26-1.04.55-2.15.83-3.32.83-.82,0-1.57-.09-2.26-.28s-1.31-.46-1.88-.81l-1.48,6.42h-2.57l4.83-20.9h2.57l-.37,1.6c.85-.59,1.68-1.08,2.5-1.46.82-.38,1.73-.57,2.72-.57,1.49,0,2.62.46,3.4,1.38.78.92,1.17,2.21,1.17,3.87ZM364.32,134.23c0-1.08-.24-1.92-.71-2.51-.47-.59-1.23-.88-2.27-.88-.76,0-1.54.19-2.35.56s-1.57.8-2.27,1.27l-2,8.66c.59.32,1.16.55,1.7.71.54.16,1.19.23,1.95.23.94,0,1.78-.23,2.54-.68s1.37-1.05,1.87-1.78c.52-.77.91-1.62,1.16-2.56s.38-1.95.38-3.02Z"/>
  <path class="cls-2" d="M376.16,144.53c-2.11,0-3.77-.5-4.97-1.49s-1.8-2.45-1.8-4.36c0-2.8.88-5.2,2.65-7.2,1.77-2,3.95-3,6.56-3,1.73,0,3.05.43,3.97,1.29s1.38,2.07,1.38,3.63c0,.27-.04.71-.12,1.3s-.2,1.28-.38,2.06h-11.25c-.05.26-.09.52-.12.78s-.03.49-.03.71c0,1.29.39,2.29,1.18,3.03s1.9,1.1,3.34,1.1c1,0,2.04-.2,3.1-.59s1.95-.83,2.67-1.33h.15l-.56,2.78c-.46.16-.87.31-1.23.45s-.83.27-1.39.41c-.57.14-1.07.24-1.5.31s-.98.11-1.64.11ZM381.3,134.88c.05-.26.08-.49.1-.67s.03-.38.03-.6c0-.98-.27-1.74-.8-2.28s-1.39-.82-2.56-.82c-1.29,0-2.44.4-3.45,1.2s-1.68,1.86-2.04,3.17h8.72Z"/>
  <path class="cls-2" d="M397.95,131.61h-.14c-.36-.09-.7-.16-1.02-.2-.31-.04-.69-.06-1.14-.06-.86,0-1.7.19-2.55.58s-1.65.85-2.42,1.4l-2.48,10.85h-2.59l3.48-15.27h2.59l-.51,2.26c1.21-.85,2.24-1.44,3.08-1.76s1.65-.49,2.43-.49c.45,0,.77.01.97.03.2.02.49.07.88.13l-.59,2.54Z"/>
  <path class="cls-2" d="M407.44,136.51h-8.53l.57-2.47h8.53l-.57,2.47Z"/>
  <path class="cls-2" d="M425.8,133.73c0,1.51-.23,2.93-.7,4.27-.47,1.33-1.09,2.46-1.87,3.39-.78.96-1.7,1.71-2.73,2.26-1.04.55-2.15.83-3.32.83-.82,0-1.57-.09-2.26-.28s-1.31-.46-1.88-.81l-1.48,6.42h-2.57l4.83-20.9h2.57l-.37,1.6c.85-.59,1.68-1.08,2.5-1.46.82-.38,1.73-.57,2.72-.57,1.49,0,2.62.46,3.4,1.38.78.92,1.17,2.21,1.17,3.87ZM423.11,134.23c0-1.08-.24-1.92-.71-2.51-.47-.59-1.23-.88-2.27-.88-.76,0-1.54.19-2.35.56s-1.57.8-2.27,1.27l-2,8.66c.59.32,1.16.55,1.7.71.54.16,1.19.23,1.95.23.94,0,1.78-.23,2.54-.68s1.37-1.05,1.87-1.78c.52-.77.91-1.62,1.16-2.56s.38-1.95.38-3.02Z"/>
  <path class="cls-2" d="M437.42,142.55c-.25.15-.58.35-1,.62s-.86.5-1.29.69c-.46.21-.98.38-1.56.53s-1.23.21-1.98.21c-1.21,0-2.2-.35-2.95-1.06s-1.13-1.63-1.13-2.77c0-1.21.27-2.24.8-3.07s1.32-1.52,2.37-2.04c1.03-.52,2.27-.9,3.72-1.13s3.11-.38,4.97-.43c.06-.25.1-.48.14-.66s.06-.38.06-.58c0-.44-.09-.79-.26-1.07-.17-.27-.42-.49-.74-.66s-.69-.28-1.12-.33c-.42-.06-.89-.09-1.4-.09-.78,0-1.66.13-2.66.38-.99.25-1.8.5-2.42.75h-.14l.51-2.57c.52-.14,1.28-.29,2.28-.46,1-.17,1.96-.26,2.88-.26,1.9,0,3.32.3,4.27.89.95.59,1.42,1.53,1.42,2.82,0,.25-.02.51-.06.79s-.09.54-.14.79l-2.39,10.36h-2.55l.37-1.63ZM438.91,136.13c-1.4.05-2.65.16-3.74.32-1.09.16-1.99.39-2.7.69-.74.3-1.3.71-1.68,1.22s-.57,1.16-.57,1.92c0,.66.22,1.16.67,1.5.45.35,1.14.52,2.08.52.83,0,1.67-.18,2.53-.55.86-.37,1.67-.81,2.41-1.33l1.01-4.29Z"/>
  <path class="cls-2" d="M460.41,128.91l-3.11,13.58c-.6,2.59-1.59,4.48-2.96,5.68s-3.28,1.8-5.71,1.8c-.78,0-1.57-.06-2.37-.18-.8-.12-1.53-.28-2.19-.48l.59-2.56h.14c.51.23,1.2.45,2.06.66s1.68.31,2.45.31c.87,0,1.6-.11,2.21-.33s1.11-.53,1.5-.91c.38-.38.7-.83.94-1.33s.43-1.07.57-1.7l.31-1.34c-.92.62-1.73,1.08-2.43,1.39s-1.6.46-2.69.46c-1.49,0-2.65-.45-3.48-1.36s-1.26-2.19-1.26-3.83c0-1.32.22-2.6.65-3.85.43-1.24,1.04-2.35,1.81-3.32.76-.94,1.67-1.69,2.73-2.26,1.06-.56,2.2-.85,3.41-.85.88,0,1.66.1,2.35.3.69.2,1.29.46,1.8.78l.32-.66h2.38ZM457.22,131.66c-.58-.3-1.18-.54-1.8-.7-.62-.17-1.24-.25-1.87-.25-.9,0-1.71.2-2.45.61-.73.41-1.37.97-1.9,1.69-.5.67-.89,1.49-1.17,2.44-.28.95-.42,1.9-.42,2.85,0,1.08.25,1.91.74,2.5.49.59,1.28.88,2.37.88.76,0,1.53-.16,2.3-.48s1.54-.72,2.29-1.2l1.9-8.33Z"/>
  <path class="cls-2" d="M469.17,144.53c-2.11,0-3.77-.5-4.97-1.49s-1.8-2.45-1.8-4.36c0-2.8.88-5.2,2.65-7.2,1.77-2,3.95-3,6.56-3,1.73,0,3.05.43,3.97,1.29s1.38,2.07,1.38,3.63c0,.27-.04.71-.12,1.3s-.2,1.28-.38,2.06h-11.25c-.05.26-.09.52-.12.78s-.03.49-.03.71c0,1.29.39,2.29,1.18,3.03s1.9,1.1,3.34,1.1c1,0,2.04-.2,3.1-.59s1.95-.83,2.67-1.33h.15l-.56,2.78c-.46.16-.87.31-1.23.45s-.83.27-1.39.41c-.57.14-1.07.24-1.5.31s-.98.11-1.64.11ZM474.31,134.88c.05-.26.08-.49.1-.67s.03-.38.03-.6c0-.98-.27-1.74-.8-2.28s-1.39-.82-2.56-.82c-1.29,0-2.44.4-3.45,1.2s-1.68,1.86-2.04,3.17h8.72Z"/>
  <path class="cls-2" d="M500.8,131.61h-.14c-.36-.09-.7-.16-1.02-.2-.31-.04-.69-.06-1.14-.06-.86,0-1.7.19-2.55.58s-1.65.85-2.42,1.4l-2.48,10.85h-2.59l3.48-15.27h2.59l-.51,2.26c1.21-.85,2.24-1.44,3.08-1.76s1.65-.49,2.43-.49c.45,0,.77.01.97.03.2.02.49.07.88.13l-.59,2.54Z"/>
  <path class="cls-2" d="M510.12,142.55c-.25.15-.58.35-1,.62s-.86.5-1.29.69c-.46.21-.98.38-1.56.53s-1.23.21-1.98.21c-1.21,0-2.2-.35-2.95-1.06s-1.13-1.63-1.13-2.77c0-1.21.27-2.24.8-3.07s1.32-1.52,2.37-2.04c1.03-.52,2.27-.9,3.72-1.13s3.11-.38,4.97-.43c.06-.25.1-.48.14-.66s.06-.38.06-.58c0-.44-.09-.79-.26-1.07-.17-.27-.42-.49-.74-.66s-.69-.28-1.12-.33c-.42-.06-.89-.09-1.4-.09-.78,0-1.66.13-2.66.38-.99.25-1.8.5-2.42.75h-.14l.51-2.57c.52-.14,1.28-.29,2.28-.46,1-.17,1.96-.26,2.88-.26,1.9,0,3.32.3,4.27.89.95.59,1.42,1.53,1.42,2.82,0,.25-.02.51-.06.79s-.09.54-.14.79l-2.39,10.36h-2.55l.37-1.63ZM511.61,136.13c-1.4.05-2.65.16-3.74.32-1.09.16-1.99.39-2.7.69-.74.3-1.3.71-1.68,1.22s-.57,1.16-.57,1.92c0,.66.22,1.16.67,1.5.45.35,1.14.52,2.08.52.83,0,1.67-.18,2.53-.55.86-.37,1.67-.81,2.41-1.33l1.01-4.29Z"/>
  <path class="cls-2" d="M528.69,128.91l-.46,2.08h-5.31l-1.63,7.05c-.09.36-.17.76-.25,1.23-.07.46-.11.83-.11,1.1,0,.67.17,1.16.51,1.49.34.32.96.49,1.87.49.37,0,.82-.06,1.33-.19s.86-.23,1.04-.3h.14l-.48,2.2c-.51.13-1.05.23-1.63.31-.58.08-1.09.12-1.54.12-1.26,0-2.23-.28-2.92-.83s-1.03-1.42-1.03-2.62c0-.29.02-.58.06-.87s.1-.61.17-.98l1.9-8.2h-1.73l.47-2.08h1.75l1.02-4.39h2.58l-1.03,4.39h5.29Z"/>
  <path class="cls-2" d="M535.5,144.53c-2.11,0-3.77-.5-4.97-1.49s-1.8-2.45-1.8-4.36c0-2.8.88-5.2,2.65-7.2,1.77-2,3.95-3,6.56-3,1.73,0,3.05.43,3.97,1.29s1.38,2.07,1.38,3.63c0,.27-.04.71-.12,1.3s-.2,1.28-.38,2.06h-11.25c-.05.26-.09.52-.12.78s-.03.49-.03.71c0,1.29.39,2.29,1.18,3.03s1.9,1.1,3.34,1.1c1,0,2.04-.2,3.1-.59s1.95-.83,2.67-1.33h.15l-.56,2.78c-.46.16-.87.31-1.23.45s-.83.27-1.39.41c-.57.14-1.07.24-1.5.31s-.98.11-1.64.11ZM540.63,134.88c.05-.26.08-.49.1-.67s.03-.38.03-.6c0-.98-.27-1.74-.8-2.28s-1.39-.82-2.56-.82c-1.29,0-2.44.4-3.45,1.2s-1.68,1.86-2.04,3.17h8.72Z"/>
  <path class="cls-2" d="M549.16,144.18h-3.29l.9-3.9h3.29l-.9,3.9Z"/>
  <path class="cls-2" d="M574.99,122.91l-5.47,7.64h-1.89l4.02-7.64h3.34ZM580.51,122.91l-5.47,7.64h-1.89l4.02-7.64h3.34Z"/>
  <path class="cls-1" d="M196.96,166.63v.97h-3.71v-.97h3.71Z"/>
  <path class="cls-1" d="M203.21,171.18l-2.4-10.11h2.45l.76,4.17c.23,1.2.44,2.5.6,3.52h.03c.17-1.09.41-2.31.66-3.55l.86-4.14h2.43l.81,4.26c.23,1.18.39,2.26.54,3.39h.03c.15-1.12.38-2.31.58-3.51l.83-4.14h2.32l-2.61,10.11h-2.47l-.86-4.35c-.2-1.02-.36-1.96-.48-3.12h-.03c-.18,1.14-.34,2.1-.58,3.12l-.96,4.35h-2.5Z"/>
  <path class="cls-1" d="M216.77,161.8c0,.63-.48,1.14-1.23,1.14s-1.2-.51-1.19-1.14c-.01-.66.47-1.15,1.2-1.15s1.2.5,1.21,1.15ZM214.41,171.18v-7.33h2.28v7.33h-2.28Z"/>
  <path class="cls-1" d="M218.52,160.53h2.28v10.65h-2.28v-10.65Z"/>
  <path class="cls-1" d="M222.65,160.53h2.28v10.65h-2.28v-10.65Z"/>
  <path class="cls-1" d="M229.13,161.8c0,.63-.48,1.14-1.23,1.14s-1.2-.51-1.19-1.14c-.01-.66.47-1.15,1.2-1.15s1.2.5,1.21,1.15ZM226.77,171.18v-7.33h2.28v7.33h-2.28Z"/>
  <path class="cls-1" d="M235.05,171.18l-.13-.74h-.04c-.48.58-1.23.9-2.1.9-1.48,0-2.37-1.08-2.37-2.25,0-1.91,1.71-2.82,4.31-2.8v-.11c0-.39-.21-.94-1.33-.94-.75,0-1.54.25-2.03.55l-.42-1.47c.51-.29,1.51-.65,2.85-.65,2.45,0,3.23,1.44,3.23,3.17v2.55c0,.71.03,1.38.1,1.79h-2.05ZM234.78,167.71c-1.2-.01-2.13.27-2.13,1.16,0,.58.39.87.9.87.57,0,1.04-.37,1.18-.84.03-.12.04-.25.04-.39v-.79Z"/>
  <path class="cls-1" d="M238.8,166.18c0-.92-.03-1.69-.06-2.34h1.92l.11.99h.04c.32-.46.96-1.16,2.22-1.16.95,0,1.7.48,2.01,1.25h.03c.27-.38.6-.67.95-.88.4-.24.85-.36,1.39-.36,1.41,0,2.47.99,2.47,3.18v4.32h-2.22v-3.99c0-1.06-.34-1.68-1.08-1.68-.52,0-.9.36-1.05.79-.06.17-.09.41-.09.58v4.29h-2.22v-4.11c0-.93-.33-1.56-1.05-1.56-.58,0-.93.45-1.07.83-.08.18-.09.39-.09.57v4.27h-2.22v-5Z"/>
  <path class="cls-1" d="M257.1,161.07v3.88h3.76v-3.88h2.28v10.11h-2.28v-4.23h-3.76v4.23h-2.29v-10.11h2.29Z"/>
  <path class="cls-1" d="M269.24,171.18l-.13-.74h-.04c-.48.58-1.23.9-2.1.9-1.48,0-2.37-1.08-2.37-2.25,0-1.91,1.71-2.82,4.31-2.8v-.11c0-.39-.21-.94-1.33-.94-.75,0-1.54.25-2.03.55l-.42-1.47c.51-.29,1.51-.65,2.85-.65,2.45,0,3.23,1.44,3.23,3.17v2.55c0,.71.03,1.38.1,1.79h-2.05ZM268.97,167.71c-1.2-.01-2.13.27-2.13,1.16,0,.58.39.87.9.87.57,0,1.04-.37,1.18-.84.03-.12.04-.25.04-.39v-.79Z"/>
  <path class="cls-1" d="M272.99,166.26c0-1.08-.03-1.79-.06-2.42h1.97l.07,1.35h.06c.38-1.07,1.27-1.52,1.98-1.52.21,0,.32,0,.48.03v2.14c-.17-.03-.36-.06-.62-.06-.84,0-1.41.45-1.56,1.16-.03.15-.04.33-.04.51v3.72h-2.28v-4.92Z"/>
  <path class="cls-1" d="M281.55,161.74v2.1h1.63v1.68h-1.63v2.65c0,.88.21,1.29.9,1.29.28,0,.51-.03.67-.06v1.72c-.29.12-.83.2-1.47.2-.74,0-1.35-.26-1.71-.63-.42-.44-.63-1.14-.63-2.18v-3h-.97v-1.68h.97v-1.59l2.24-.51Z"/>
  <path class="cls-1" d="M284.51,160.53h2.28v10.65h-2.28v-10.65Z"/>
  <path class="cls-1" d="M290.39,168.24c.08.94,1,1.39,2.07,1.39.78,0,1.41-.11,2.02-.3l.3,1.54c-.75.3-1.67.45-2.65.45-2.49,0-3.92-1.44-3.92-3.74,0-1.86,1.16-3.92,3.71-3.92,2.37,0,3.27,1.85,3.27,3.66,0,.39-.04.74-.08.9h-4.72ZM293.07,166.68c0-.55-.24-1.48-1.29-1.48-.96,0-1.35.87-1.41,1.48h2.7Z"/>
  <path class="cls-1" d="M298.17,163.84l1.09,3.6c.12.43.27.97.36,1.36h.04c.1-.39.22-.94.33-1.36l.9-3.6h2.45l-1.71,4.83c-1.05,2.91-1.75,4.08-2.58,4.81-.79.69-1.63.93-2.21,1l-.48-1.93c.29-.04.64-.18.99-.39.35-.18.72-.54.95-.92.08-.11.12-.23.12-.33,0-.08-.01-.2-.11-.38l-2.68-6.71h2.54Z"/>
  <path class="cls-1" d="M303.63,173.02c.33-.88.73-2.49.9-3.58l1.47-.15c-.35,1.27-1.01,2.94-1.43,3.64l-.94.09Z"/>
  <path class="cls-1" d="M317.88,170.85c-.48.24-1.44.48-2.67.48-2.85,0-5-1.8-5-5.12s2.14-5.31,5.28-5.31c1.26,0,2.06.27,2.4.45l-.32,1.06c-.49-.24-1.2-.42-2.04-.42-2.37,0-3.95,1.51-3.95,4.17,0,2.47,1.42,4.06,3.88,4.06.79,0,1.61-.17,2.13-.42l.27,1.04Z"/>
  <path class="cls-1" d="M324.75,166.44h-3.93v3.65h4.38v1.09h-5.69v-10.11h5.46v1.09h-4.15v3.2h3.93v1.08Z"/>
  <path class="cls-1" d="M335.54,166.02c0,3.48-2.11,5.33-4.69,5.33s-4.54-2.07-4.54-5.13c0-3.21,2-5.31,4.69-5.31s4.54,2.12,4.54,5.11ZM327.69,166.18c0,2.16,1.17,4.09,3.23,4.09s3.24-1.9,3.24-4.2c0-2.01-1.05-4.11-3.22-4.11s-3.24,2-3.24,4.21Z"/>
  <path class="cls-1" d="M340.5,171.18v-6.25h-1.02v-1h1.02v-.34c0-1.02.23-1.95.84-2.54.49-.48,1.15-.67,1.77-.67.46,0,.87.1,1.12.21l-.18,1.02c-.2-.09-.46-.17-.84-.17-1.12,0-1.41.99-1.41,2.1v.39h1.75v1h-1.75v6.25h-1.31Z"/>
  <path class="cls-1" d="M351.12,167.49c0,2.68-1.86,3.85-3.62,3.85-1.96,0-3.48-1.44-3.48-3.74,0-2.43,1.59-3.85,3.6-3.85s3.5,1.51,3.5,3.74ZM345.36,167.56c0,1.59.92,2.79,2.2,2.79s2.21-1.18,2.21-2.82c0-1.23-.61-2.79-2.17-2.79s-2.23,1.44-2.23,2.82Z"/>
  <path class="cls-1" d="M363.08,170.85c-.48.24-1.44.48-2.67.48-2.85,0-5-1.8-5-5.12s2.14-5.31,5.28-5.31c1.26,0,2.06.27,2.4.45l-.32,1.06c-.49-.24-1.2-.42-2.04-.42-2.37,0-3.95,1.51-3.95,4.17,0,2.47,1.42,4.06,3.88,4.06.79,0,1.61-.17,2.13-.42l.27,1.04Z"/>
  <path class="cls-1" d="M365.24,167.79c.03,1.79,1.17,2.52,2.49,2.52.95,0,1.52-.17,2.01-.38l.22.95c-.46.21-1.26.45-2.42.45-2.23,0-3.57-1.47-3.57-3.66s1.29-3.92,3.4-3.92c2.37,0,3,2.08,3,3.42,0,.27-.03.48-.04.62h-5.1ZM369.11,166.84c.01-.84-.35-2.14-1.83-2.14-1.33,0-1.92,1.23-2.03,2.14h3.86Z"/>
  <path class="cls-1" d="M372.02,166.18c0-.85-.01-1.59-.06-2.26h1.15l.05,1.42h.06c.33-.97,1.12-1.59,2.01-1.59.15,0,.25.01.38.04v1.25c-.13-.03-.27-.04-.45-.04-.93,0-1.59.71-1.77,1.7-.03.18-.06.39-.06.61v3.87h-1.31v-5Z"/>
  <path class="cls-1" d="M378.87,161.83v2.08h1.89v1h-1.89v3.92c0,.9.25,1.41.99,1.41.34,0,.6-.04.76-.09l.06.99c-.25.11-.66.18-1.17.18-.62,0-1.11-.2-1.42-.56-.38-.39-.51-1.04-.51-1.89v-3.96h-1.12v-1h1.12v-1.74l1.29-.34Z"/>
  <path class="cls-1" d="M382.25,160.53h1.32v10.65h-1.32v-10.65Z"/>
  <path class="cls-1" d="M387.26,161.88c.02.45-.31.81-.84.81-.46,0-.79-.36-.79-.81s.35-.83.83-.83.81.36.81.83ZM385.79,171.18v-7.26h1.32v7.26h-1.32Z"/>
  <path class="cls-1" d="M389.3,165.88c0-.75-.01-1.37-.06-1.96h1.17l.08,1.2h.03c.36-.69,1.2-1.37,2.4-1.37,1,0,2.56.6,2.56,3.09v4.33h-1.32v-4.18c0-1.17-.44-2.15-1.68-2.15-.87,0-1.54.62-1.77,1.35-.06.17-.09.39-.09.61v4.37h-1.32v-5.29Z"/>
  <path class="cls-1" d="M403.88,163.92c-.03.53-.06,1.11-.06,2v4.21c0,1.67-.33,2.68-1.04,3.31-.71.66-1.72.87-2.64.87s-1.83-.21-2.42-.6l.33-1c.48.3,1.23.57,2.13.57,1.35,0,2.34-.71,2.34-2.53v-.81h-.03c-.41.67-1.18,1.21-2.31,1.21-1.8,0-3.09-1.53-3.09-3.54,0-2.46,1.6-3.85,3.27-3.85,1.26,0,1.95.66,2.26,1.26h.03l.06-1.09h1.16ZM402.51,166.78c0-.23-.01-.42-.07-.6-.24-.76-.89-1.39-1.85-1.39-1.26,0-2.16,1.06-2.16,2.75,0,1.42.72,2.61,2.14,2.61.81,0,1.54-.51,1.83-1.35.08-.23.1-.48.1-.71v-1.3Z"/>
</svg>