<?xml version="1.0" encoding="UTF-8"?>
<svg id="Layer_1" data-name="Layer 1" xmlns="http://www.w3.org/2000/svg" viewBox="0 0 597.71 60.26">
  <defs>
    <style>
      .cls-1 {
        fill: #263c75;
        stroke-width: 0px;
      }
    </style>
  </defs>
  <path class="cls-1" d="M34.42,2.73l-7.06,14.54h-4.03l-.63-9.65-4.71,9.65h-4.18l-.66-14.54h3.92l.03,10,4.88-10h3.75l.44,10,4.44-10h3.82Z"/>
  <path class="cls-1" d="M40.18,17.57c-1.87,0-3.31-.41-4.33-1.24s-1.52-1.97-1.52-3.43c0-1,.17-1.91.5-2.75.33-.83.81-1.57,1.44-2.2.6-.61,1.35-1.1,2.25-1.46.9-.36,1.89-.54,2.96-.54,1.64,0,2.87.33,3.7.99.83.66,1.25,1.64,1.25,2.93,0,.44-.04.88-.13,1.3-.09.42-.2.84-.35,1.26h-8.16v.22c0,.76.27,1.36.8,1.79s1.35.64,2.46.64c.77,0,1.5-.13,2.19-.39.69-.26,1.29-.55,1.8-.87h.39l-.65,2.82c-.68.3-1.4.53-2.16.68s-1.56.23-2.41.23ZM42.87,10.39c.02-.12.03-.23.04-.32s.01-.2.01-.3c0-.52-.16-.91-.48-1.19-.32-.27-.78-.41-1.38-.41-.73,0-1.33.2-1.83.59-.49.39-.87.94-1.12,1.64h4.75Z"/>
  <path class="cls-1" d="M69.55,2.08l-3.51,15.2h-3.54l.26-1.14c-.34.21-.64.41-.89.58-.26.17-.54.33-.85.47-.29.13-.58.23-.86.29s-.62.1-1.02.1c-1.06,0-1.91-.35-2.54-1.04s-.95-1.67-.95-2.94c0-1.04.17-2.02.5-2.93s.8-1.72,1.38-2.43c.57-.68,1.25-1.23,2.03-1.63.78-.4,1.6-.61,2.45-.61.6,0,1.12.06,1.56.18s.9.31,1.37.56l1.08-4.67h3.54ZM64.44,8.87c-.19-.09-.44-.17-.74-.25-.31-.07-.58-.11-.81-.11-.56,0-1.06.12-1.51.37-.45.25-.83.58-1.14,1.01-.28.38-.5.87-.66,1.47s-.24,1.17-.24,1.72c0,.66.15,1.13.46,1.43.31.3.77.45,1.4.45.32,0,.65-.07,1.01-.21s.69-.31,1.01-.51l1.24-5.37Z"/>
  <path class="cls-1" d="M76.14,17.57c-1.87,0-3.31-.41-4.33-1.24s-1.52-1.97-1.52-3.43c0-1,.17-1.91.5-2.75.33-.83.81-1.57,1.44-2.2.6-.61,1.35-1.1,2.25-1.46.9-.36,1.89-.54,2.96-.54,1.64,0,2.87.33,3.7.99.83.66,1.25,1.64,1.25,2.93,0,.44-.04.88-.13,1.3-.09.42-.2.84-.35,1.26h-8.16v.22c0,.76.27,1.36.8,1.79s1.35.64,2.46.64c.77,0,1.5-.13,2.19-.39s1.29-.55,1.8-.87h.39l-.66,2.82c-.68.3-1.4.53-2.16.68s-1.56.23-2.41.23ZM78.83,10.39c.02-.12.03-.23.04-.32s.01-.2.01-.3c0-.52-.16-.91-.48-1.19-.32-.27-.78-.41-1.38-.41-.73,0-1.33.2-1.83.59-.49.39-.87.94-1.12,1.64h4.75Z"/>
  <path class="cls-1" d="M90.9,2.08l-3.51,15.2h-3.54l3.51-15.2h3.54Z"/>
  <path class="cls-1" d="M97.39,6.3l-2.54,10.97h-3.54l2.54-10.97h3.54ZM98.47,2.08l-.62,2.67h-3.73l.62-2.67h3.73Z"/>
  <path class="cls-1" d="M112.23,6.3l-6.77,10.97h-4l-1.66-10.97h3.62l.8,7.57,4.23-7.57h3.78Z"/>
  <path class="cls-1" d="M118.55,17.57c-1.87,0-3.31-.41-4.33-1.24s-1.52-1.97-1.52-3.43c0-1,.17-1.91.5-2.75.33-.83.81-1.57,1.44-2.2.6-.61,1.35-1.1,2.25-1.46.9-.36,1.89-.54,2.96-.54,1.64,0,2.87.33,3.7.99.83.66,1.25,1.64,1.25,2.93,0,.44-.04.88-.13,1.3-.09.42-.2.84-.35,1.26h-8.16v.22c0,.76.27,1.36.8,1.79s1.35.64,2.46.64c.77,0,1.5-.13,2.19-.39s1.29-.55,1.8-.87h.39l-.66,2.82c-.68.3-1.4.53-2.16.68s-1.56.23-2.41.23ZM121.24,10.39c.02-.12.03-.23.04-.32s.01-.2.01-.3c0-.52-.16-.91-.48-1.19-.32-.27-.78-.41-1.38-.41-.73,0-1.33.2-1.83.59-.49.39-.87.94-1.12,1.64h4.75Z"/>
  <path class="cls-1" d="M135.99,9.65h-.31c-.16-.05-.38-.09-.66-.12-.29-.03-.57-.04-.85-.04-.46,0-.91.03-1.34.1s-.87.18-1.33.33l-1.7,7.34h-3.54l2.54-10.97h3.54l-.37,1.61c.66-.49,1.33-.89,1.99-1.19.66-.31,1.32-.46,1.99-.46.12,0,.26,0,.41,0,.15,0,.29.02.41.03l-.78,3.35Z"/>
  <path class="cls-1" d="M148.51,17.57c-.94,0-1.85-.09-2.72-.26s-1.55-.38-2.02-.62l.67-2.89h.32c.14.12.32.26.54.41s.53.31.93.47c.35.15.75.28,1.2.39s.95.16,1.48.16c.79,0,1.38-.09,1.77-.27s.59-.44.59-.78c0-.26-.14-.46-.42-.6s-.86-.31-1.74-.51c-1.49-.35-2.52-.76-3.07-1.25s-.83-1.1-.83-1.83c0-1.24.55-2.21,1.66-2.92s2.6-1.07,4.49-1.07c.82,0,1.64.08,2.46.25s1.42.34,1.81.53l-.65,2.77h-.3c-.46-.36-1.02-.65-1.68-.87s-1.33-.34-2.02-.34c-.75,0-1.33.09-1.73.27-.4.18-.6.45-.6.83,0,.29.17.51.52.66s.89.31,1.63.47c1.38.3,2.38.68,2.99,1.13.61.46.92,1.09.92,1.91,0,1.22-.56,2.19-1.68,2.9s-2.63,1.06-4.54,1.06Z"/>
  <path class="cls-1" d="M162.95,17.57c-1.87,0-3.31-.41-4.33-1.24s-1.52-1.97-1.52-3.43c0-1,.17-1.91.5-2.75.33-.83.81-1.57,1.44-2.2.6-.61,1.35-1.1,2.25-1.46.9-.36,1.89-.54,2.96-.54,1.64,0,2.87.33,3.7.99.83.66,1.25,1.64,1.25,2.93,0,.44-.04.88-.13,1.3-.09.42-.2.84-.35,1.26h-8.16v.22c0,.76.27,1.36.8,1.79s1.35.64,2.46.64c.77,0,1.5-.13,2.19-.39s1.29-.55,1.8-.87h.39l-.66,2.82c-.68.3-1.4.53-2.16.68s-1.56.23-2.41.23ZM165.65,10.39c.02-.12.03-.23.04-.32s.01-.2.01-.3c0-.52-.16-.91-.48-1.19-.32-.27-.78-.41-1.38-.41-.73,0-1.33.2-1.83.59-.49.39-.87.94-1.12,1.64h4.75Z"/>
  <path class="cls-1" d="M176.33,17.57c-.75,0-1.45-.09-2.1-.28-.65-.19-1.23-.47-1.71-.87-.48-.38-.85-.87-1.11-1.45-.27-.58-.4-1.25-.4-2.01,0-.98.19-1.9.56-2.74s.9-1.58,1.58-2.21c.66-.62,1.47-1.11,2.43-1.47s1.99-.54,3.11-.54c.67,0,1.34.07,2,.22s1.27.37,1.84.65l-.74,3h-.5c-.38-.46-.82-.81-1.3-1.03s-1.03-.34-1.64-.34c-1.11,0-2,.39-2.67,1.18s-1.01,1.77-1.01,2.94c0,.82.21,1.42.62,1.83s1.06.61,1.93.61c.68,0,1.29-.14,1.85-.42s1.03-.58,1.43-.92h.5l-.74,3c-.7.31-1.32.52-1.85.65s-1.22.2-2.07.2Z"/>
  <path class="cls-1" d="M196.53,6.3l-2.54,10.97h-3.54l.28-1.21c-.35.23-.7.44-1.03.64s-.65.36-.95.47c-.38.16-.72.26-1.04.32s-.62.08-.93.08c-.96,0-1.72-.23-2.28-.69-.56-.46-.83-1.15-.83-2.05,0-.25.01-.48.04-.69s.07-.44.13-.7l1.65-7.14h3.55l-1.26,5.44c-.1.42-.17.77-.22,1.07-.05.3-.07.55-.07.76,0,.43.1.74.31.93.21.19.6.29,1.18.29.29,0,.62-.06.99-.19.38-.12.78-.3,1.22-.54l1.8-7.77h3.54Z"/>
  <path class="cls-1" d="M207.65,9.65h-.31c-.16-.05-.38-.09-.66-.12-.29-.03-.57-.04-.85-.04-.46,0-.91.03-1.34.1s-.87.18-1.33.33l-1.7,7.34h-3.54l2.54-10.97h3.54l-.37,1.61c.66-.49,1.33-.89,1.99-1.19.66-.31,1.32-.46,1.99-.46.12,0,.26,0,.41,0,.15,0,.29.02.41.03l-.78,3.35Z"/>
  <path class="cls-1" d="M214.67,17.57c-1.87,0-3.31-.41-4.33-1.24s-1.52-1.97-1.52-3.43c0-1,.17-1.91.5-2.75.33-.83.81-1.57,1.44-2.2.6-.61,1.35-1.1,2.25-1.46.9-.36,1.89-.54,2.96-.54,1.64,0,2.87.33,3.7.99.83.66,1.25,1.64,1.25,2.93,0,.44-.04.88-.13,1.3-.09.42-.2.84-.35,1.26h-8.16v.22c0,.76.27,1.36.8,1.79s1.35.64,2.46.64c.77,0,1.5-.13,2.19-.39s1.29-.55,1.8-.87h.39l-.66,2.82c-.68.3-1.4.53-2.16.68s-1.56.23-2.41.23ZM217.36,10.39c.02-.12.03-.23.04-.32s.01-.2.01-.3c0-.52-.16-.91-.48-1.19-.32-.27-.78-.41-1.38-.41-.73,0-1.33.2-1.83.59-.49.39-.87.94-1.12,1.64h4.75Z"/>
  <path class="cls-1" d="M227.7,13.43l-5.25,7.45h-2.18l3.62-7.45h3.81Z"/>
  <path class="cls-1" d="M250.64,9.81c0,1.01-.16,1.99-.49,2.93-.33.95-.78,1.76-1.34,2.45-.59.72-1.26,1.29-2.01,1.69s-1.58.61-2.5.61c-.59,0-1.12-.07-1.62-.2-.49-.13-.94-.32-1.33-.56l-1.06,4.57h-3.54l3.46-14.99h3.54l-.26,1.14c.66-.46,1.28-.81,1.84-1.06s1.19-.38,1.87-.38c1.11,0,1.96.34,2.55,1.01s.89,1.61.89,2.8ZM246.06,13.66c.28-.41.49-.89.64-1.44.15-.55.22-1.15.22-1.79,0-.59-.13-1.05-.39-1.36-.26-.32-.72-.47-1.39-.47-.34,0-.68.06-1.01.18-.33.12-.68.28-1.05.47l-1.28,5.52c.21.09.45.16.73.21.28.05.56.07.85.07.59,0,1.12-.13,1.57-.38s.82-.59,1.1-1.01Z"/>
  <path class="cls-1" d="M258.48,17.57c-1.87,0-3.31-.41-4.33-1.24s-1.52-1.97-1.52-3.43c0-1,.17-1.91.5-2.75.33-.83.81-1.57,1.44-2.2.6-.61,1.35-1.1,2.25-1.46.9-.36,1.89-.54,2.96-.54,1.64,0,2.87.33,3.7.99.83.66,1.25,1.64,1.25,2.93,0,.44-.04.88-.13,1.3-.09.42-.2.84-.35,1.26h-8.16v.22c0,.76.27,1.36.8,1.79s1.35.64,2.46.64c.77,0,1.5-.13,2.19-.39s1.29-.55,1.8-.87h.39l-.66,2.82c-.68.3-1.4.53-2.16.68s-1.56.23-2.41.23ZM261.17,10.39c.02-.12.03-.23.04-.32s.01-.2.01-.3c0-.52-.16-.91-.48-1.19-.32-.27-.78-.41-1.38-.41-.73,0-1.33.2-1.83.59-.49.39-.87.94-1.12,1.64h4.75Z"/>
  <path class="cls-1" d="M275.92,9.65h-.31c-.16-.05-.38-.09-.66-.12-.29-.03-.57-.04-.85-.04-.46,0-.91.03-1.34.1s-.87.18-1.33.33l-1.7,7.34h-3.54l2.54-10.97h3.54l-.37,1.61c.66-.49,1.33-.89,1.99-1.19.66-.31,1.32-.46,1.99-.46.12,0,.26,0,.41,0,.15,0,.29.02.41.03l-.78,3.35Z"/>
  <path class="cls-1" d="M280.99,17.57c-.94,0-1.85-.09-2.72-.26s-1.55-.38-2.02-.62l.67-2.89h.32c.14.12.32.26.54.41s.53.31.93.47c.35.15.75.28,1.2.39s.95.16,1.48.16c.79,0,1.38-.09,1.77-.27s.59-.44.59-.78c0-.26-.14-.46-.42-.6s-.86-.31-1.74-.51c-1.49-.35-2.52-.76-3.07-1.25s-.83-1.1-.83-1.83c0-1.24.55-2.21,1.66-2.92s2.6-1.07,4.49-1.07c.82,0,1.64.08,2.46.25s1.42.34,1.81.53l-.65,2.77h-.3c-.46-.36-1.02-.65-1.68-.87s-1.33-.34-2.02-.34c-.75,0-1.33.09-1.73.27-.4.18-.6.45-.6.83,0,.29.17.51.52.66s.89.31,1.63.47c1.38.3,2.38.68,2.99,1.13.61.46.92,1.09.92,1.91,0,1.22-.56,2.19-1.68,2.9s-2.63,1.06-4.54,1.06Z"/>
  <path class="cls-1" d="M301.89,10.32c0,1.03-.17,1.99-.52,2.89s-.83,1.67-1.46,2.31c-.65.67-1.41,1.19-2.27,1.55s-1.86.54-3.01.54c-1.63,0-2.89-.39-3.76-1.17s-1.31-1.86-1.31-3.24c0-.98.16-1.9.49-2.78s.81-1.65,1.45-2.32c.62-.66,1.38-1.18,2.28-1.56s1.91-.57,3.03-.57c1.64,0,2.9.39,3.76,1.16s1.3,1.84,1.3,3.2ZM297.32,13.91c.3-.46.53-.95.68-1.49s.23-1.2.23-1.97c0-.67-.15-1.19-.44-1.55s-.76-.54-1.4-.54c-.5,0-.93.12-1.3.36s-.71.58-.99,1.03c-.27.41-.48.92-.63,1.52s-.23,1.23-.23,1.87c0,.75.17,1.28.5,1.61s.79.48,1.37.48c.42,0,.83-.12,1.22-.35s.72-.55,1-.96Z"/>
  <path class="cls-1" d="M316.42,8.78c0,.2-.01.41-.04.63s-.07.47-.13.71l-1.64,7.14h-3.56l1.25-5.44c.09-.4.16-.75.21-1.03s.08-.55.08-.8c0-.42-.11-.73-.32-.93s-.61-.29-1.18-.29c-.28,0-.6.06-.97.18-.36.12-.78.3-1.23.54l-1.79,7.77h-3.54l2.53-10.97h3.54l-.29,1.21c.72-.48,1.38-.85,1.98-1.11s1.25-.4,1.97-.4c.98,0,1.75.24,2.3.71s.82,1.17.82,2.07Z"/>
  <path class="cls-1" d="M325.36,16.11c-.22.14-.49.32-.8.52-.31.2-.6.36-.87.48-.37.15-.71.27-1.03.34-.32.08-.76.12-1.33.12-.91,0-1.66-.26-2.23-.77-.58-.51-.87-1.18-.87-2,0-.87.21-1.6.61-2.2.41-.6,1.02-1.08,1.83-1.44.75-.34,1.65-.58,2.7-.73s2.17-.26,3.39-.33c0-.04.02-.1.04-.19s.03-.19.03-.3c0-.46-.21-.79-.64-.97s-1.07-.28-1.92-.28c-.58,0-1.22.1-1.92.29-.7.2-1.23.36-1.58.49h-.32l.52-2.6c.41-.1,1.04-.22,1.9-.35s1.72-.2,2.57-.2c1.72,0,2.98.22,3.78.67s1.21,1.15,1.21,2.09c0,.13-.01.3-.03.51s-.05.39-.09.55l-1.72,7.46h-3.5l.27-1.16ZM326.3,12.09c-.63.05-1.22.11-1.77.19s-1.02.18-1.4.31c-.4.14-.7.35-.91.61-.21.26-.31.61-.31,1.04,0,.38.14.64.42.8s.68.23,1.21.23c.35,0,.72-.08,1.11-.24.4-.16.77-.36,1.11-.61l.54-2.32Z"/>
  <path class="cls-1" d="M339.47,2.08l-3.51,15.2h-3.54l3.51-15.2h3.54Z"/>
  <path class="cls-1" d="M345.96,6.3l-2.54,10.97h-3.54l2.54-10.97h3.54ZM347.04,2.08l-.62,2.67h-3.73l.62-2.67h3.73Z"/>
  <path class="cls-1" d="M351.56,17.57c-.94,0-1.85-.09-2.72-.26s-1.55-.38-2.02-.62l.67-2.89h.32c.14.12.32.26.54.41s.53.31.93.47c.35.15.75.28,1.2.39s.95.16,1.48.16c.79,0,1.38-.09,1.77-.27s.59-.44.59-.78c0-.26-.14-.46-.42-.6s-.86-.31-1.74-.51c-1.49-.35-2.52-.76-3.07-1.25s-.83-1.1-.83-1.83c0-1.24.55-2.21,1.66-2.92s2.6-1.07,4.49-1.07c.82,0,1.64.08,2.46.25s1.42.34,1.81.53l-.65,2.77h-.3c-.46-.36-1.02-.65-1.68-.87s-1.33-.34-2.02-.34c-.75,0-1.33.09-1.73.27-.4.18-.6.45-.6.83,0,.29.17.51.52.66s.89.31,1.63.47c1.38.3,2.38.68,2.99,1.13.61.46.92,1.09.92,1.91,0,1.22-.56,2.19-1.68,2.9s-2.63,1.06-4.54,1.06Z"/>
  <path class="cls-1" d="M366.01,17.57c-1.87,0-3.31-.41-4.33-1.24s-1.52-1.97-1.52-3.43c0-1,.17-1.91.5-2.75.33-.83.81-1.57,1.44-2.2.6-.61,1.35-1.1,2.25-1.46.9-.36,1.89-.54,2.96-.54,1.64,0,2.87.33,3.7.99.83.66,1.25,1.64,1.25,2.93,0,.44-.04.88-.13,1.3-.09.42-.2.84-.35,1.26h-8.16v.22c0,.76.27,1.36.8,1.79s1.35.64,2.46.64c.77,0,1.5-.13,2.19-.39s1.29-.55,1.8-.87h.39l-.66,2.82c-.68.3-1.4.53-2.16.68s-1.56.23-2.41.23ZM368.7,10.39c.02-.12.03-.23.04-.32s.01-.2.01-.3c0-.52-.16-.91-.48-1.19-.32-.27-.78-.41-1.38-.41-.73,0-1.33.2-1.83.59-.49.39-.87.94-1.12,1.64h4.75Z"/>
  <path class="cls-1" d="M387.92,2.08l-3.51,15.2h-3.54l.26-1.14c-.34.21-.64.41-.89.58-.26.17-.54.33-.85.47-.29.13-.58.23-.86.29s-.62.1-1.02.1c-1.06,0-1.91-.35-2.54-1.04s-.95-1.67-.95-2.94c0-1.04.17-2.02.5-2.93s.8-1.72,1.38-2.43c.57-.68,1.25-1.23,2.03-1.63.78-.4,1.6-.61,2.45-.61.6,0,1.12.06,1.56.18.44.12.9.31,1.37.56l1.08-4.67h3.54ZM382.81,8.87c-.19-.09-.44-.17-.74-.25-.31-.07-.58-.11-.81-.11-.56,0-1.06.12-1.51.37s-.83.58-1.14,1.01c-.28.38-.5.87-.66,1.47-.16.59-.24,1.17-.24,1.72,0,.66.15,1.13.46,1.43.3.3.77.45,1.39.45.32,0,.66-.07,1.01-.21s.69-.31,1.01-.51l1.24-5.37Z"/>
  <path class="cls-1" d="M400.01,17.57c-.94,0-1.85-.09-2.72-.26s-1.55-.38-2.02-.62l.67-2.89h.32c.14.12.32.26.54.41s.53.31.93.47c.35.15.75.28,1.2.39s.95.16,1.48.16c.79,0,1.38-.09,1.77-.27s.59-.44.59-.78c0-.26-.14-.46-.42-.6s-.86-.31-1.74-.51c-1.49-.35-2.52-.76-3.07-1.25s-.83-1.1-.83-1.83c0-1.24.55-2.21,1.66-2.92s2.6-1.07,4.49-1.07c.82,0,1.64.08,2.46.25s1.42.34,1.81.53l-.65,2.77h-.3c-.46-.36-1.02-.65-1.68-.87s-1.33-.34-2.02-.34c-.75,0-1.33.09-1.73.27-.4.18-.6.45-.6.83,0,.29.17.51.52.66s.89.31,1.63.47c1.38.3,2.38.68,2.99,1.13.61.46.92,1.09.92,1.91,0,1.22-.56,2.19-1.68,2.9s-2.63,1.06-4.54,1.06Z"/>
  <path class="cls-1" d="M414.45,17.57c-1.87,0-3.31-.41-4.33-1.24s-1.52-1.97-1.52-3.43c0-1,.17-1.91.5-2.75.33-.83.81-1.57,1.44-2.2.6-.61,1.35-1.1,2.25-1.46.9-.36,1.89-.54,2.96-.54,1.64,0,2.87.33,3.7.99.83.66,1.25,1.64,1.25,2.93,0,.44-.04.88-.13,1.3-.09.42-.2.84-.35,1.26h-8.16v.22c0,.76.27,1.36.8,1.79s1.35.64,2.46.64c.77,0,1.5-.13,2.19-.39s1.29-.55,1.8-.87h.39l-.66,2.82c-.68.3-1.4.53-2.16.68s-1.56.23-2.41.23ZM417.14,10.39c.02-.12.03-.23.04-.32s.01-.2.01-.3c0-.52-.16-.91-.48-1.19-.32-.27-.78-.41-1.38-.41-.73,0-1.33.2-1.83.59-.49.39-.87.94-1.12,1.64h4.75Z"/>
  <path class="cls-1" d="M431.89,9.65h-.31c-.16-.05-.38-.09-.66-.12-.29-.03-.57-.04-.85-.04-.46,0-.91.03-1.34.1s-.87.18-1.33.33l-1.7,7.34h-3.54l2.54-10.97h3.54l-.37,1.61c.66-.49,1.33-.89,1.99-1.19.66-.31,1.32-.46,1.99-.46.12,0,.26,0,.41,0,.15,0,.29.02.41.03l-.78,3.35Z"/>
  <path class="cls-1" d="M446.19,6.3l-6.77,10.97h-4l-1.66-10.97h3.62l.8,7.57,4.23-7.57h3.78Z"/>
  <path class="cls-1" d="M452.41,6.3l-2.54,10.97h-3.54l2.54-10.97h3.54ZM453.48,2.08l-.62,2.67h-3.73l.62-2.67h3.73Z"/>
  <path class="cls-1" d="M459.45,17.57c-.75,0-1.45-.09-2.1-.28-.65-.19-1.23-.47-1.71-.87-.48-.38-.85-.87-1.11-1.45-.27-.58-.4-1.25-.4-2.01,0-.98.19-1.9.56-2.74s.9-1.58,1.58-2.21c.66-.62,1.47-1.11,2.43-1.47s1.99-.54,3.11-.54c.67,0,1.34.07,2,.22s1.27.37,1.84.65l-.74,3h-.5c-.38-.46-.82-.81-1.3-1.03s-1.03-.34-1.64-.34c-1.11,0-2,.39-2.67,1.18s-1.01,1.77-1.01,2.94c0,.82.21,1.42.62,1.83s1.06.61,1.93.61c.68,0,1.29-.14,1.85-.42s1.03-.58,1.43-.92h.5l-.74,3c-.7.31-1.32.52-1.85.65s-1.22.2-2.07.2Z"/>
  <path class="cls-1" d="M472.36,17.57c-1.87,0-3.31-.41-4.33-1.24s-1.52-1.97-1.52-3.43c0-1,.17-1.91.5-2.75.33-.83.81-1.57,1.44-2.2.6-.61,1.35-1.1,2.25-1.46.9-.36,1.89-.54,2.96-.54,1.64,0,2.87.33,3.7.99.83.66,1.25,1.64,1.25,2.93,0,.44-.04.88-.13,1.3-.09.42-.2.84-.35,1.26h-8.16v.22c0,.76.27,1.36.8,1.79s1.35.64,2.46.64c.77,0,1.5-.13,2.19-.39s1.29-.55,1.8-.87h.39l-.66,2.82c-.68.3-1.4.53-2.16.68s-1.56.23-2.41.23ZM475.05,10.39c.02-.12.03-.23.04-.32s.01-.2.01-.3c0-.52-.16-.91-.48-1.19-.32-.27-.78-.41-1.38-.41-.73,0-1.33.2-1.83.59-.49.39-.87.94-1.12,1.64h4.75Z"/>
  <path class="cls-1" d="M507.56,6.3l-5.73,10.97h-3.73l-.73-7.41-3.7,7.41h-3.78l-1.04-10.97h3.6l.32,7.56,3.89-7.56h3.12l.68,7.56,3.39-7.56h3.71Z"/>
  <path class="cls-1" d="M513.82,6.3l-2.54,10.97h-3.54l2.54-10.97h3.54ZM514.89,2.08l-.62,2.67h-3.73l.62-2.67h3.73Z"/>
  <path class="cls-1" d="M519.4,17.49c-1.22,0-2.09-.2-2.61-.6s-.78-.99-.78-1.78c0-.21.02-.41.05-.61s.08-.42.13-.68l1.2-5.2h-1.45l.54-2.31h1.45l.72-3.13h3.53l-.72,3.13h3.29l-.54,2.31h-3.29l-.92,3.96c-.07.27-.13.55-.19.83-.06.28-.09.51-.09.71,0,.39.11.66.33.82s.55.23,1.01.23c.18,0,.42-.03.72-.1s.53-.15.71-.23h.29l-.55,2.35c-.4.1-.82.17-1.25.23s-.96.08-1.58.08Z"/>
  <path class="cls-1" d="M537.78,8.78c0,.16-.01.36-.04.61s-.07.49-.13.74l-1.65,7.14h-3.56l1.26-5.44c.09-.42.16-.77.21-1.06.05-.29.08-.54.08-.77,0-.44-.11-.75-.33-.94-.22-.19-.61-.29-1.19-.29-.28,0-.6.06-.97.18-.36.12-.77.3-1.22.54l-1.79,7.77h-3.54l3.5-15.2h3.54l-1.25,5.44c.72-.48,1.38-.85,1.97-1.11.6-.27,1.26-.4,1.97-.4,1,0,1.77.24,2.31.73.54.48.81,1.17.81,2.06Z"/>
  <path class="cls-1" d="M553.47,6.3h2.7l-.53,2.31h-2.59l-2.01,8.65h-3.54l2.01-8.65h-1.51l.53-2.31h1.51l.07-.28c.3-1.32.84-2.33,1.64-3.01s1.97-1.03,3.53-1.03c.57,0,1.07.02,1.49.05s.79.08,1.09.14l-.57,2.48h-.26c-.15-.05-.36-.11-.64-.16-.28-.06-.53-.08-.76-.08-.65,0-1.12.13-1.42.38-.3.25-.53.73-.72,1.44l-.02.08Z"/>
  <path class="cls-1" d="M563.23,16.11c-.22.14-.49.32-.8.52-.31.2-.6.36-.87.48-.37.15-.71.27-1.03.34-.32.08-.76.12-1.33.12-.91,0-1.66-.26-2.23-.77-.58-.51-.87-1.18-.87-2,0-.87.21-1.6.61-2.2.41-.6,1.02-1.08,1.83-1.44.75-.34,1.65-.58,2.7-.73s2.17-.26,3.39-.33c0-.04.02-.1.04-.19s.03-.19.03-.3c0-.46-.21-.79-.64-.97s-1.07-.28-1.92-.28c-.58,0-1.22.1-1.92.29-.7.2-1.23.36-1.58.49h-.32l.52-2.6c.41-.1,1.04-.22,1.9-.35s1.72-.2,2.57-.2c1.72,0,2.98.22,3.78.67s1.21,1.15,1.21,2.09c0,.13-.01.3-.03.51s-.05.39-.09.55l-1.72,7.46h-3.5l.27-1.16ZM564.17,12.09c-.63.05-1.22.11-1.77.19s-1.02.18-1.4.31c-.4.14-.7.35-.91.61-.21.26-.31.61-.31,1.04,0,.38.14.64.42.8s.68.23,1.21.23c.35,0,.72-.08,1.11-.24.4-.16.77-.36,1.11-.61l.54-2.32Z"/>
  <path class="cls-1" d="M576.38,6.3l-2.54,10.97h-3.54l2.54-10.97h3.54ZM577.45,2.08l-.62,2.67h-3.73l.62-2.67h3.73Z"/>
  <path class="cls-1" d="M587.48,9.65h-.31c-.16-.05-.38-.09-.66-.12-.29-.03-.57-.04-.85-.04-.46,0-.91.03-1.34.1s-.87.18-1.33.33l-1.7,7.34h-3.54l2.54-10.97h3.54l-.37,1.61c.66-.49,1.33-.89,1.99-1.19.66-.31,1.32-.46,1.99-.46.12,0,.26,0,.41,0,.15,0,.29.02.41.03l-.78,3.35Z"/>
  <path class="cls-1" d="M22.28,39.81c0,1.01-.16,1.99-.49,2.93s-.78,1.76-1.34,2.45c-.59.72-1.26,1.29-2.01,1.69s-1.58.61-2.5.61c-.59,0-1.12-.07-1.62-.2s-.94-.32-1.33-.56l-1.06,4.57h-3.54l3.46-14.99h3.54l-.26,1.14c.66-.46,1.28-.81,1.84-1.06s1.19-.38,1.87-.38c1.11,0,1.96.34,2.55,1.01.59.67.89,1.61.89,2.8ZM17.7,43.66c.28-.41.5-.89.65-1.44s.22-1.15.22-1.79c0-.59-.13-1.05-.39-1.36-.26-.32-.73-.47-1.4-.47-.34,0-.68.06-1.01.18-.33.12-.68.28-1.05.47l-1.27,5.52c.21.09.45.16.73.21s.56.07.85.07c.59,0,1.12-.13,1.57-.38.46-.25.82-.59,1.1-1.01Z"/>
  <path class="cls-1" d="M33.66,39.65h-.31c-.16-.05-.38-.09-.66-.12-.29-.03-.57-.04-.85-.04-.46,0-.91.03-1.34.1s-.87.18-1.33.33l-1.7,7.34h-3.54l2.54-10.97h3.54l-.37,1.61c.66-.49,1.32-.89,1.98-1.19s1.32-.46,1.99-.46c.12,0,.26,0,.41,0s.29.02.4.03l-.78,3.35Z"/>
  <path class="cls-1" d="M40.58,36.3l-2.54,10.97h-3.54l2.54-10.97h3.54ZM41.65,32.08l-.62,2.67h-3.73l.62-2.67h3.73Z"/>
  <path class="cls-1" d="M47.62,47.57c-.75,0-1.45-.09-2.1-.28-.65-.19-1.23-.47-1.71-.87-.48-.38-.85-.87-1.11-1.45-.27-.58-.4-1.25-.4-2.01,0-.98.19-1.9.56-2.74s.9-1.58,1.58-2.21c.66-.62,1.47-1.11,2.43-1.47s1.99-.54,3.11-.54c.67,0,1.34.07,2,.22s1.27.37,1.84.65l-.74,3h-.5c-.38-.46-.82-.81-1.3-1.03s-1.03-.34-1.64-.34c-1.11,0-2,.39-2.67,1.18s-1.01,1.77-1.01,2.94c0,.82.21,1.42.62,1.83s1.06.61,1.93.61c.68,0,1.29-.14,1.85-.42s1.03-.58,1.43-.92h.5l-.74,3c-.7.31-1.32.52-1.85.65s-1.22.2-2.07.2Z"/>
  <path class="cls-1" d="M60.42,36.3l-2.54,10.97h-3.54l2.54-10.97h3.54ZM61.5,32.08l-.62,2.67h-3.73l.62-2.67h3.73Z"/>
  <path class="cls-1" d="M74.65,38.78c0,.2-.01.41-.04.63-.03.23-.07.47-.13.71l-1.64,7.14h-3.56l1.25-5.44c.09-.4.16-.75.21-1.03.05-.29.08-.55.08-.8,0-.42-.11-.73-.32-.93s-.61-.29-1.18-.29c-.28,0-.6.06-.97.18s-.78.3-1.23.54l-1.79,7.77h-3.54l2.53-10.97h3.54l-.29,1.21c.72-.48,1.38-.85,1.98-1.11.6-.27,1.25-.4,1.97-.4.98,0,1.75.24,2.3.71.55.48.82,1.17.82,2.07Z"/>
  <path class="cls-1" d="M89.87,36.3l-2.2,9.71c-.24,1.04-.58,1.91-1.02,2.6-.44.69-.98,1.24-1.61,1.65-.65.42-1.36.72-2.12.89-.76.17-1.62.25-2.57.25-.79,0-1.54-.05-2.27-.14-.72-.09-1.33-.2-1.83-.33l.54-2.7h.43c.54.21,1.09.37,1.64.5.55.12,1.05.19,1.48.19.62,0,1.16-.06,1.61-.17.46-.11.82-.28,1.08-.49.28-.23.5-.51.67-.84.17-.33.3-.74.4-1.22l.05-.21c-.51.35-1.01.62-1.51.82-.5.2-1.07.3-1.7.3-1.23,0-2.19-.31-2.89-.93-.69-.62-1.04-1.55-1.04-2.8,0-2.15.61-3.92,1.83-5.31,1.22-1.38,2.7-2.08,4.44-2.08.63,0,1.19.07,1.71.22.51.15.92.34,1.24.57l.25-.49h3.42ZM85.76,38.84c-.19-.08-.44-.16-.75-.24-.31-.07-.58-.11-.82-.11-1.05,0-1.9.39-2.54,1.18s-.96,1.8-.96,3.04c0,.56.14,1,.41,1.31s.77.47,1.48.47c.35,0,.7-.07,1.05-.2s.69-.29,1-.47l1.11-4.97Z"/>
  <path class="cls-1" d="M111.68,39.81c0,1-.16,1.96-.48,2.9s-.76,1.75-1.32,2.45c-.57.71-1.24,1.27-2.01,1.69-.77.42-1.62.63-2.55.63-.61,0-1.16-.06-1.65-.19-.48-.12-.92-.32-1.29-.58l-.26.55h-3.4l3.5-15.2h3.54l-1.24,5.37c.63-.44,1.23-.79,1.8-1.05s1.21-.4,1.91-.4c1.13,0,1.99.34,2.57,1.01.58.67.87,1.61.87,2.8ZM107.96,40.46c0-.61-.13-1.08-.4-1.4-.27-.32-.73-.48-1.39-.48-.35,0-.68.06-1.02.18s-.68.28-1.06.47l-1.26,5.51c.23.09.47.16.72.22s.54.08.86.08c1.09,0,1.95-.43,2.58-1.28.64-.86.96-1.96.96-3.31Z"/>
  <path class="cls-1" d="M120.25,46.11c-.22.14-.49.32-.8.52-.31.2-.6.36-.87.48-.37.15-.71.27-1.03.34-.32.08-.76.12-1.33.12-.91,0-1.66-.26-2.23-.77-.58-.51-.87-1.18-.87-2,0-.87.21-1.6.61-2.2.41-.6,1.02-1.08,1.83-1.44.75-.34,1.65-.58,2.7-.73s2.17-.26,3.39-.33c0-.04.02-.1.04-.19s.03-.19.03-.3c0-.46-.21-.79-.64-.97s-1.07-.28-1.92-.28c-.58,0-1.22.1-1.92.29-.7.2-1.23.36-1.58.49h-.32l.52-2.6c.41-.1,1.04-.22,1.9-.35s1.72-.2,2.57-.2c1.72,0,2.98.22,3.78.67s1.21,1.15,1.21,2.09c0,.13-.01.3-.03.51s-.05.39-.09.55l-1.72,7.46h-3.5l.27-1.16ZM121.18,42.09c-.63.05-1.22.11-1.77.19s-1.02.18-1.4.31c-.4.14-.7.35-.91.61-.21.26-.31.61-.31,1.04,0,.38.14.64.42.8s.68.23,1.21.23c.35,0,.72-.08,1.11-.24.4-.16.77-.36,1.11-.61l.54-2.32Z"/>
  <path class="cls-1" d="M131.54,47.57c-.94,0-1.85-.09-2.72-.26s-1.55-.38-2.02-.62l.67-2.89h.32c.14.12.32.26.54.41s.53.31.93.47c.35.15.75.28,1.2.39s.95.16,1.48.16c.79,0,1.38-.09,1.77-.27s.59-.44.59-.78c0-.26-.14-.46-.42-.6s-.86-.31-1.74-.51c-1.49-.35-2.52-.76-3.07-1.25s-.83-1.1-.83-1.83c0-1.24.55-2.21,1.66-2.92s2.6-1.07,4.49-1.07c.82,0,1.64.08,2.46.25s1.42.34,1.81.53l-.65,2.77h-.3c-.46-.36-1.02-.65-1.68-.87s-1.33-.34-2.02-.34c-.75,0-1.33.09-1.73.27-.4.18-.6.45-.6.83,0,.29.17.51.52.66s.89.31,1.63.47c1.38.3,2.38.68,2.99,1.13.61.46.92,1.09.92,1.91,0,1.22-.56,2.19-1.68,2.9s-2.63,1.06-4.54,1.06Z"/>
  <path class="cls-1" d="M145.98,47.57c-1.87,0-3.31-.41-4.33-1.24s-1.52-1.97-1.52-3.43c0-1,.17-1.91.5-2.75.33-.83.81-1.57,1.44-2.2.6-.61,1.35-1.1,2.25-1.46.9-.36,1.89-.54,2.96-.54,1.64,0,2.87.33,3.7.99.83.66,1.25,1.64,1.25,2.93,0,.44-.04.88-.13,1.3-.09.42-.2.84-.35,1.26h-8.16v.22c0,.76.27,1.36.8,1.79s1.35.64,2.46.64c.77,0,1.5-.13,2.19-.39s1.29-.55,1.8-.87h.39l-.66,2.82c-.68.3-1.4.53-2.16.68s-1.56.23-2.41.23ZM148.67,40.39c.02-.12.03-.23.04-.32s.01-.2.01-.3c0-.52-.16-.91-.48-1.19-.32-.27-.78-.41-1.38-.41-.73,0-1.33.2-1.83.59-.49.39-.87.94-1.12,1.64h4.75Z"/>
  <path class="cls-1" d="M167.89,32.08l-3.51,15.2h-3.54l.26-1.14c-.34.21-.64.41-.89.58-.26.17-.54.33-.85.47-.29.13-.58.23-.86.29s-.62.1-1.02.1c-1.06,0-1.91-.35-2.54-1.04s-.95-1.67-.95-2.94c0-1.04.17-2.02.5-2.93s.8-1.72,1.38-2.43c.57-.68,1.25-1.23,2.03-1.63.78-.4,1.6-.61,2.45-.61.6,0,1.12.06,1.56.18.44.12.9.31,1.37.56l1.08-4.67h3.54ZM162.78,38.87c-.19-.09-.44-.17-.74-.25-.31-.07-.58-.11-.81-.11-.56,0-1.06.12-1.51.37s-.83.58-1.14,1.01c-.28.38-.5.87-.66,1.47-.16.59-.24,1.17-.24,1.72,0,.66.15,1.13.46,1.43.3.3.77.45,1.39.45.32,0,.66-.07,1.01-.21s.69-.31,1.01-.51l1.24-5.37Z"/>
  <path class="cls-1" d="M188.4,40.32c0,1.03-.17,1.99-.52,2.89s-.83,1.67-1.46,2.31c-.65.67-1.41,1.19-2.27,1.55s-1.86.54-3.01.54c-1.63,0-2.89-.39-3.76-1.17s-1.31-1.86-1.31-3.24c0-.98.16-1.9.49-2.78s.81-1.65,1.45-2.32c.62-.66,1.38-1.18,2.28-1.56s1.91-.57,3.03-.57c1.64,0,2.9.39,3.76,1.16s1.3,1.84,1.3,3.2ZM183.83,43.91c.3-.46.53-.95.68-1.49s.23-1.2.23-1.97c0-.67-.15-1.19-.44-1.55s-.76-.54-1.4-.54c-.5,0-.93.12-1.3.36s-.71.58-.99,1.03c-.27.41-.48.92-.63,1.52s-.23,1.23-.23,1.87c0,.75.17,1.28.5,1.61s.79.48,1.37.48c.42,0,.83-.12,1.22-.35s.72-.55,1-.96Z"/>
  <path class="cls-1" d="M202.94,38.78c0,.2-.01.41-.04.63s-.07.47-.13.71l-1.64,7.14h-3.56l1.25-5.44c.09-.4.16-.75.21-1.03s.08-.55.08-.8c0-.42-.11-.73-.32-.93s-.61-.29-1.18-.29c-.28,0-.6.06-.97.18-.36.12-.78.3-1.23.54l-1.79,7.77h-3.54l2.53-10.97h3.54l-.29,1.21c.72-.48,1.38-.85,1.98-1.11s1.25-.4,1.97-.4c.98,0,1.75.24,2.3.71s.82,1.17.82,2.07Z"/>
  <path class="cls-1" d="M232.44,36.3l-5.73,10.97h-3.73l-.73-7.41-3.7,7.41h-3.78l-1.04-10.97h3.6l.32,7.56,3.89-7.56h3.12l.68,7.56,3.39-7.56h3.71Z"/>
  <path class="cls-1" d="M245.27,40.32c0,1.03-.17,1.99-.52,2.89s-.83,1.67-1.46,2.31c-.65.67-1.41,1.19-2.27,1.55s-1.86.54-3.01.54c-1.63,0-2.89-.39-3.76-1.17s-1.31-1.86-1.31-3.24c0-.98.16-1.9.49-2.78s.81-1.65,1.45-2.32c.62-.66,1.38-1.18,2.28-1.56s1.91-.57,3.03-.57c1.64,0,2.9.39,3.76,1.16s1.3,1.84,1.3,3.2ZM240.7,43.91c.3-.46.53-.95.68-1.49s.23-1.2.23-1.97c0-.67-.15-1.19-.44-1.55s-.76-.54-1.4-.54c-.5,0-.93.12-1.3.36s-.71.58-.99,1.03c-.27.41-.48.92-.63,1.52s-.23,1.23-.23,1.87c0,.75.17,1.28.5,1.61s.79.48,1.37.48c.42,0,.83-.12,1.22-.35.39-.23.72-.55,1-.96Z"/>
  <path class="cls-1" d="M256.68,39.65h-.31c-.16-.05-.38-.09-.66-.12-.29-.03-.57-.04-.85-.04-.46,0-.91.03-1.34.1s-.87.18-1.33.33l-1.7,7.34h-3.54l2.54-10.97h3.54l-.37,1.61c.66-.49,1.33-.89,1.99-1.19.66-.31,1.32-.46,1.99-.46.12,0,.26,0,.41,0,.15,0,.29.02.41.03l-.78,3.35Z"/>
  <path class="cls-1" d="M271.71,32.08l-3.51,15.2h-3.54l.26-1.14c-.34.21-.64.41-.89.58-.26.17-.54.33-.85.47-.29.13-.58.23-.86.29s-.62.1-1.02.1c-1.06,0-1.91-.35-2.54-1.04s-.95-1.67-.95-2.94c0-1.04.17-2.02.5-2.93s.8-1.72,1.38-2.43c.57-.68,1.25-1.23,2.03-1.63.78-.4,1.6-.61,2.45-.61.6,0,1.12.06,1.56.18.44.12.9.31,1.37.56l1.08-4.67h3.54ZM266.6,38.87c-.19-.09-.44-.17-.74-.25-.31-.07-.58-.11-.81-.11-.56,0-1.06.12-1.51.37s-.83.58-1.14,1.01c-.28.38-.5.87-.66,1.47-.16.59-.24,1.17-.24,1.72,0,.66.15,1.13.46,1.43.3.3.77.45,1.39.45.32,0,.66-.07,1.01-.21s.69-.31,1.01-.51l1.24-5.37Z"/>
  <path class="cls-1" d="M285.24,47.57c-.75,0-1.45-.09-2.1-.28-.65-.19-1.23-.47-1.71-.87-.48-.38-.85-.87-1.11-1.45-.27-.58-.4-1.25-.4-2.01,0-.98.19-1.9.56-2.74s.9-1.58,1.58-2.21c.66-.62,1.47-1.11,2.43-1.47s1.99-.54,3.11-.54c.67,0,1.34.07,2,.22s1.27.37,1.84.65l-.74,3h-.5c-.38-.46-.82-.81-1.3-1.03s-1.03-.34-1.64-.34c-1.11,0-2,.39-2.67,1.18s-1.01,1.77-1.01,2.94c0,.82.21,1.42.62,1.83s1.06.61,1.93.61c.68,0,1.29-.14,1.85-.42s1.03-.58,1.43-.92h.5l-.74,3c-.7.31-1.32.52-1.85.65s-1.22.2-2.07.2Z"/>
  <path class="cls-1" d="M304.61,40.32c0,1.03-.17,1.99-.52,2.89s-.83,1.67-1.46,2.31c-.65.67-1.41,1.19-2.27,1.55s-1.86.54-3.01.54c-1.63,0-2.89-.39-3.76-1.17s-1.31-1.86-1.31-3.24c0-.98.16-1.9.49-2.78s.81-1.65,1.45-2.32c.62-.66,1.38-1.18,2.28-1.56s1.91-.57,3.03-.57c1.64,0,2.9.39,3.76,1.16s1.3,1.84,1.3,3.2ZM300.04,43.91c.3-.46.53-.95.68-1.49s.23-1.2.23-1.97c0-.67-.15-1.19-.44-1.55s-.76-.54-1.4-.54c-.5,0-.93.12-1.3.36s-.71.58-.99,1.03c-.27.41-.48.92-.63,1.52s-.23,1.23-.23,1.87c0,.75.17,1.28.5,1.61s.79.48,1.37.48c.42,0,.83-.12,1.22-.35s.72-.55,1-.96Z"/>
  <path class="cls-1" d="M319.77,36.3l-2.54,10.97h-3.54l.28-1.21c-.35.23-.7.44-1.03.64s-.65.36-.95.47c-.38.16-.72.26-1.04.32s-.62.08-.93.08c-.96,0-1.72-.23-2.28-.69-.56-.46-.83-1.15-.83-2.05,0-.25.01-.48.04-.69s.07-.44.13-.7l1.65-7.14h3.55l-1.26,5.44c-.1.42-.17.77-.22,1.07-.05.3-.07.55-.07.76,0,.43.1.74.31.93.21.19.6.29,1.18.29.29,0,.62-.06.99-.19.38-.12.78-.3,1.22-.54l1.8-7.77h3.54Z"/>
  <path class="cls-1" d="M334.01,38.78c0,.2-.01.41-.04.63s-.07.47-.13.71l-1.64,7.14h-3.56l1.25-5.44c.09-.4.16-.75.21-1.03s.08-.55.08-.8c0-.42-.11-.73-.32-.93s-.61-.29-1.18-.29c-.28,0-.6.06-.97.18-.36.12-.78.3-1.23.54l-1.79,7.77h-3.54l2.53-10.97h3.54l-.29,1.21c.72-.48,1.38-.85,1.98-1.11s1.25-.4,1.97-.4c.98,0,1.75.24,2.3.71s.82,1.17.82,2.07Z"/>
  <path class="cls-1" d="M340.24,47.49c-1.22,0-2.09-.2-2.61-.6s-.78-.99-.78-1.78c0-.21.02-.41.05-.61s.08-.42.13-.68l1.2-5.2h-1.45l.54-2.31h1.45l.72-3.13h3.53l-.72,3.13h3.29l-.54,2.31h-3.29l-.92,3.96c-.07.27-.13.55-.19.83-.06.28-.09.51-.09.71,0,.39.11.66.33.82s.55.23,1.01.23c.18,0,.42-.03.72-.1s.53-.15.71-.23h.29l-.55,2.35c-.4.1-.82.17-1.25.23s-.96.08-1.58.08Z"/>
  <path class="cls-1" d="M351.07,43.43l-5.25,7.45h-2.18l3.62-7.45h3.81Z"/>
  <path class="cls-1" d="M373.91,38.78c0,.2-.01.41-.04.63s-.07.47-.13.71l-1.64,7.14h-3.56l1.25-5.44c.09-.4.16-.75.21-1.03s.08-.55.08-.8c0-.42-.11-.73-.32-.93s-.61-.29-1.18-.29c-.28,0-.6.06-.97.18-.36.12-.78.3-1.23.54l-1.79,7.77h-3.54l2.53-10.97h3.54l-.29,1.21c.72-.48,1.38-.85,1.98-1.11s1.25-.4,1.97-.4c.98,0,1.75.24,2.3.71s.82,1.17.82,2.07Z"/>
  <path class="cls-1" d="M388.57,40.32c0,1.03-.17,1.99-.52,2.89s-.83,1.67-1.46,2.31c-.65.67-1.41,1.19-2.27,1.55s-1.86.54-3.01.54c-1.63,0-2.89-.39-3.76-1.17s-1.31-1.86-1.31-3.24c0-.98.16-1.9.49-2.78s.81-1.65,1.45-2.32c.62-.66,1.38-1.18,2.28-1.56s1.91-.57,3.03-.57c1.64,0,2.9.39,3.76,1.16s1.3,1.84,1.3,3.2ZM384,43.91c.3-.46.53-.95.68-1.49s.23-1.2.23-1.97c0-.67-.15-1.19-.44-1.55s-.76-.54-1.4-.54c-.5,0-.93.12-1.3.36s-.71.58-.99,1.03c-.27.41-.48.92-.63,1.52s-.23,1.23-.23,1.87c0,.75.17,1.28.5,1.61s.79.48,1.37.48c.42,0,.83-.12,1.22-.35s.72-.55,1-.96Z"/>
  <path class="cls-1" d="M394.47,47.49c-1.22,0-2.09-.2-2.61-.6s-.78-.99-.78-1.78c0-.21.02-.41.05-.61s.08-.42.13-.68l1.2-5.2h-1.45l.54-2.31h1.45l.72-3.13h3.53l-.72,3.13h3.29l-.54,2.31h-3.29l-.92,3.96c-.07.27-.13.55-.19.83-.06.28-.09.51-.09.71,0,.39.11.66.33.82s.55.23,1.01.23c.18,0,.42-.03.72-.1s.53-.15.71-.23h.29l-.55,2.35c-.4.1-.82.17-1.25.23s-.96.08-1.58.08Z"/>
  <path class="cls-1" d="M420.4,39.81c0,1.01-.16,1.99-.49,2.93-.33.95-.78,1.76-1.34,2.45-.59.72-1.26,1.29-2.01,1.69s-1.58.61-2.5.61c-.59,0-1.12-.07-1.62-.2-.49-.13-.94-.32-1.33-.56l-1.06,4.57h-3.54l3.46-14.99h3.54l-.26,1.14c.66-.46,1.28-.81,1.84-1.06s1.19-.38,1.87-.38c1.11,0,1.96.34,2.55,1.01s.89,1.61.89,2.8ZM415.82,43.66c.28-.41.49-.89.64-1.44.15-.55.22-1.15.22-1.79,0-.59-.13-1.05-.39-1.36-.26-.32-.72-.47-1.39-.47-.34,0-.68.06-1.01.18-.33.12-.68.28-1.05.47l-1.28,5.52c.21.09.45.16.73.21.28.05.56.07.85.07.59,0,1.12-.13,1.57-.38s.82-.59,1.1-1.01Z"/>
  <path class="cls-1" d="M428.24,47.57c-1.87,0-3.31-.41-4.33-1.24s-1.52-1.97-1.52-3.43c0-1,.17-1.91.5-2.75.33-.83.81-1.57,1.44-2.2.6-.61,1.35-1.1,2.25-1.46.9-.36,1.89-.54,2.96-.54,1.64,0,2.87.33,3.7.99.83.66,1.25,1.64,1.25,2.93,0,.44-.04.88-.13,1.3-.09.42-.2.84-.35,1.26h-8.16v.22c0,.76.27,1.36.8,1.79s1.35.64,2.46.64c.77,0,1.5-.13,2.19-.39s1.29-.55,1.8-.87h.39l-.66,2.82c-.68.3-1.4.53-2.16.68s-1.56.23-2.41.23ZM430.93,40.39c.02-.12.03-.23.04-.32s.01-.2.01-.3c0-.52-.16-.91-.48-1.19-.32-.27-.78-.41-1.38-.41-.73,0-1.33.2-1.83.59-.49.39-.87.94-1.12,1.64h4.75Z"/>
  <path class="cls-1" d="M445.68,39.65h-.31c-.16-.05-.38-.09-.66-.12-.29-.03-.57-.04-.85-.04-.46,0-.91.03-1.34.1s-.87.18-1.33.33l-1.7,7.34h-3.54l2.54-10.97h3.54l-.37,1.61c.66-.49,1.33-.89,1.99-1.19.66-.31,1.32-.46,1.99-.46.12,0,.26,0,.41,0,.15,0,.29.02.41.03l-.78,3.35Z"/>
  <path class="cls-1" d="M454.55,42.21h-7.45l.64-2.81h7.45l-.64,2.81Z"/>
  <path class="cls-1" d="M469.68,39.81c0,1.01-.16,1.99-.49,2.93-.33.95-.78,1.76-1.34,2.45-.59.72-1.26,1.29-2.01,1.69s-1.58.61-2.5.61c-.59,0-1.12-.07-1.62-.2-.49-.13-.94-.32-1.33-.56l-1.06,4.57h-3.54l3.46-14.99h3.54l-.26,1.14c.66-.46,1.28-.81,1.84-1.06s1.19-.38,1.87-.38c1.11,0,1.96.34,2.55,1.01s.89,1.61.89,2.8ZM465.1,43.66c.28-.41.49-.89.64-1.44.15-.55.22-1.15.22-1.79,0-.59-.13-1.05-.39-1.36-.26-.32-.72-.47-1.39-.47-.34,0-.68.06-1.01.18-.33.12-.68.28-1.05.47l-1.28,5.52c.21.09.45.16.73.21.28.05.56.07.85.07.59,0,1.12-.13,1.57-.38s.82-.59,1.1-1.01Z"/>
  <path class="cls-1" d="M478.26,46.11c-.22.14-.49.32-.8.52-.31.2-.6.36-.87.48-.37.15-.71.27-1.03.34-.32.08-.76.12-1.33.12-.91,0-1.66-.26-2.23-.77-.58-.51-.87-1.18-.87-2,0-.87.21-1.6.61-2.2.41-.6,1.02-1.08,1.83-1.44.75-.34,1.65-.58,2.7-.73s2.17-.26,3.39-.33c0-.04.02-.1.04-.19s.03-.19.03-.3c0-.46-.21-.79-.64-.97s-1.07-.28-1.92-.28c-.58,0-1.22.1-1.92.29-.7.2-1.23.36-1.58.49h-.32l.52-2.6c.41-.1,1.04-.22,1.9-.35s1.72-.2,2.57-.2c1.72,0,2.98.22,3.78.67s1.21,1.15,1.21,2.09c0,.13-.01.3-.03.51s-.05.39-.09.55l-1.72,7.46h-3.5l.27-1.16ZM479.19,42.09c-.63.05-1.22.11-1.77.19s-1.02.18-1.4.31c-.4.14-.7.35-.91.61-.21.26-.31.61-.31,1.04,0,.38.14.64.42.8s.68.23,1.21.23c.35,0,.72-.08,1.11-.24.4-.16.77-.36,1.11-.61l.54-2.32Z"/>
  <path class="cls-1" d="M498.52,36.3l-2.2,9.71c-.24,1.04-.58,1.91-1.02,2.6-.44.69-.98,1.24-1.61,1.65-.65.42-1.36.72-2.12.89-.76.17-1.62.25-2.57.25-.79,0-1.54-.05-2.27-.14-.72-.09-1.33-.2-1.83-.33l.54-2.7h.43c.54.21,1.09.37,1.64.5.55.12,1.05.19,1.48.19.62,0,1.16-.06,1.61-.17.46-.11.82-.28,1.08-.49.28-.23.5-.51.67-.84.17-.33.3-.74.4-1.22l.05-.21c-.51.35-1.01.62-1.51.82-.5.2-1.07.3-1.7.3-1.23,0-2.19-.31-2.89-.93-.69-.62-1.04-1.55-1.04-2.8,0-2.15.61-3.92,1.83-5.31,1.22-1.38,2.7-2.08,4.44-2.08.63,0,1.19.07,1.71.22.51.15.92.34,1.24.57l.25-.49h3.42ZM494.41,38.84c-.19-.08-.44-.16-.75-.24-.31-.07-.58-.11-.82-.11-1.05,0-1.9.39-2.54,1.18s-.96,1.8-.96,3.04c0,.56.14,1,.41,1.31s.77.47,1.48.47c.35,0,.7-.07,1.05-.2s.69-.29,1-.47l1.11-4.97Z"/>
  <path class="cls-1" d="M506.11,47.57c-1.87,0-3.31-.41-4.33-1.24s-1.52-1.97-1.52-3.43c0-1,.17-1.91.5-2.75.33-.83.81-1.57,1.44-2.2.6-.61,1.35-1.1,2.25-1.46.9-.36,1.89-.54,2.96-.54,1.64,0,2.87.33,3.7.99.83.66,1.25,1.64,1.25,2.93,0,.44-.04.88-.13,1.3-.09.42-.2.84-.35,1.26h-8.16v.22c0,.76.27,1.36.8,1.79s1.35.64,2.46.64c.77,0,1.5-.13,2.19-.39s1.29-.55,1.8-.87h.39l-.66,2.82c-.68.3-1.4.53-2.16.68s-1.56.23-2.41.23ZM508.8,40.39c.02-.12.03-.23.04-.32s.01-.2.01-.3c0-.52-.16-.91-.48-1.19-.32-.27-.78-.41-1.38-.41-.73,0-1.33.2-1.83.59-.49.39-.87.94-1.12,1.64h4.75Z"/>
  <path class="cls-1" d="M531.01,39.65h-.31c-.16-.05-.38-.09-.66-.12-.29-.03-.57-.04-.85-.04-.46,0-.91.03-1.34.1s-.87.18-1.33.33l-1.7,7.34h-3.54l2.54-10.97h3.54l-.37,1.61c.66-.49,1.33-.89,1.99-1.19.66-.31,1.32-.46,1.99-.46.12,0,.26,0,.41,0,.15,0,.29.02.41.03l-.78,3.35Z"/>
  <path class="cls-1" d="M538.76,46.11c-.22.14-.49.32-.8.52-.31.2-.6.36-.87.48-.37.15-.71.27-1.03.34-.32.08-.76.12-1.33.12-.91,0-1.66-.26-2.23-.77-.58-.51-.87-1.18-.87-2,0-.87.21-1.6.61-2.2.41-.6,1.02-1.08,1.83-1.44.75-.34,1.65-.58,2.7-.73s2.17-.26,3.39-.33c0-.04.02-.1.04-.19s.03-.19.03-.3c0-.46-.21-.79-.64-.97s-1.07-.28-1.92-.28c-.58,0-1.22.1-1.92.29-.7.2-1.23.36-1.58.49h-.32l.52-2.6c.41-.1,1.04-.22,1.9-.35s1.72-.2,2.57-.2c1.72,0,2.98.22,3.78.67s1.21,1.15,1.21,2.09c0,.13-.01.3-.03.51s-.05.39-.09.55l-1.72,7.46h-3.5l.27-1.16ZM539.7,42.09c-.63.05-1.22.11-1.77.19s-1.02.18-1.4.31c-.4.14-.7.35-.91.61-.21.26-.31.61-.31,1.04,0,.38.14.64.42.8s.68.23,1.21.23c.35,0,.72-.08,1.11-.24.4-.16.77-.36,1.11-.61l.54-2.32Z"/>
  <path class="cls-1" d="M550.03,47.49c-1.22,0-2.09-.2-2.61-.6s-.78-.99-.78-1.78c0-.21.02-.41.05-.61s.08-.42.13-.68l1.2-5.2h-1.45l.54-2.31h1.45l.72-3.13h3.53l-.72,3.13h3.29l-.54,2.31h-3.29l-.92,3.96c-.07.27-.13.55-.19.83-.06.28-.09.51-.09.71,0,.39.11.66.33.82s.55.23,1.01.23c.18,0,.42-.03.72-.1s.53-.15.71-.23h.29l-.55,2.35c-.4.1-.82.17-1.25.23s-.96.08-1.58.08Z"/>
  <path class="cls-1" d="M561.74,47.57c-1.87,0-3.31-.41-4.33-1.24s-1.52-1.97-1.52-3.43c0-1,.17-1.91.5-2.75.33-.83.81-1.57,1.44-2.2.6-.61,1.35-1.1,2.25-1.46.9-.36,1.89-.54,2.96-.54,1.64,0,2.87.33,3.7.99.83.66,1.25,1.64,1.25,2.93,0,.44-.04.88-.13,1.3-.09.42-.2.84-.35,1.26h-8.16v.22c0,.76.27,1.36.8,1.79s1.35.64,2.46.64c.77,0,1.5-.13,2.19-.39s1.29-.55,1.8-.87h.39l-.66,2.82c-.68.3-1.4.53-2.16.68s-1.56.23-2.41.23ZM564.43,40.39c.02-.12.03-.23.04-.32s.01-.2.01-.3c0-.52-.16-.91-.48-1.19-.32-.27-.78-.41-1.38-.41-.73,0-1.33.2-1.83.59-.49.39-.87.94-1.12,1.64h4.75Z"/>
  <path class="cls-1" d="M573.68,47.57c-.94,0-1.85-.09-2.72-.26s-1.55-.38-2.02-.62l.67-2.89h.32c.14.12.32.26.54.41s.53.31.93.47c.35.15.75.28,1.2.39s.95.16,1.48.16c.79,0,1.38-.09,1.77-.27s.59-.44.59-.78c0-.26-.14-.46-.42-.6s-.86-.31-1.74-.51c-1.49-.35-2.52-.76-3.07-1.25s-.83-1.1-.83-1.83c0-1.24.55-2.21,1.66-2.92s2.6-1.07,4.49-1.07c.82,0,1.64.08,2.46.25s1.42.34,1.81.53l-.65,2.77h-.3c-.46-.36-1.02-.65-1.68-.87s-1.33-.34-2.02-.34c-.75,0-1.33.09-1.73.27-.4.18-.6.45-.6.83,0,.29.17.51.52.66s.89.31,1.63.47c1.38.3,2.38.68,2.99,1.13.61.46.92,1.09.92,1.91,0,1.22-.56,2.19-1.68,2.9s-2.63,1.06-4.54,1.06Z"/>
  <path class="cls-1" d="M585.73,47.27h-3.66l.88-3.84h3.66l-.88,3.84Z"/>
</svg>