<?xml version="1.0" encoding="UTF-8"?>
<svg id="Layer_1" data-name="Layer 1" xmlns="http://www.w3.org/2000/svg" viewBox="0 0 597.71 105.47">
  <defs>
    <style>
      .cls-1 {
        fill: #263c75;
        stroke-width: 0px;
      }
    </style>
  </defs>
  <path class="cls-1" d="M69.21,4.23l-10.82,22.54h-3.47l-.67-18.66-8.75,18.66h-3.33l-.92-22.54h3.04l.6,18.71,8.83-18.71h3.04l.61,18.9,8.89-18.9h2.94Z"/>
  <path class="cls-1" d="M77.36,27.16c-2.34,0-4.17-.55-5.5-1.65-1.33-1.1-2-2.71-2-4.83,0-3.1.98-5.75,2.93-7.97,1.96-2.21,4.38-3.32,7.26-3.32,1.91,0,3.38.48,4.4,1.43,1.02.95,1.53,2.29,1.53,4.02,0,.3-.04.78-.13,1.44-.09.66-.22,1.42-.42,2.29h-12.46c-.06.29-.1.58-.13.86-.03.28-.04.54-.04.79,0,1.42.43,2.54,1.3,3.35.87.81,2.1,1.22,3.69,1.22,1.11,0,2.25-.22,3.43-.65,1.18-.43,2.16-.92,2.96-1.47h.17l-.62,3.07c-.5.18-.96.35-1.36.5-.4.15-.92.3-1.54.45s-1.18.27-1.66.35c-.48.08-1.09.12-1.81.12ZM83.04,16.48c.05-.29.09-.54.11-.74.02-.2.03-.42.03-.67,0-1.08-.29-1.92-.88-2.53-.59-.61-1.54-.91-2.84-.91-1.43,0-2.7.44-3.81,1.33-1.11.89-1.86,2.06-2.25,3.51h9.66Z"/>
  <path class="cls-1" d="M119.8,3.22l-5.44,23.55h-2.84l.41-1.77c-1.28.88-2.31,1.47-3.1,1.78-.78.31-1.63.46-2.55.46-1.59,0-2.86-.5-3.79-1.51-.93-1.01-1.4-2.48-1.4-4.4,0-1.62.25-3.16.76-4.61.5-1.45,1.19-2.72,2.06-3.81.86-1.08,1.87-1.94,3.04-2.57,1.17-.63,2.41-.95,3.72-.95.9,0,1.73.1,2.48.29.76.19,1.46.48,2.12.86l1.69-7.33h2.84ZM114.72,12.9c-.68-.35-1.34-.61-1.99-.78-.65-.17-1.34-.25-2.08-.25-1.05,0-1.98.25-2.81.76-.82.5-1.53,1.2-2.11,2.07-.54.8-.95,1.76-1.23,2.88-.29,1.12-.43,2.21-.43,3.25,0,1.23.26,2.17.79,2.82.53.65,1.39.98,2.58.98.85,0,1.71-.21,2.59-.64.88-.42,1.7-.89,2.44-1.39l2.24-9.71Z"/>
  <path class="cls-1" d="M128.92,27.16c-2.34,0-4.17-.55-5.5-1.65-1.33-1.1-2-2.71-2-4.83,0-3.1.98-5.75,2.93-7.97,1.96-2.21,4.38-3.32,7.26-3.32,1.92,0,3.38.48,4.4,1.43,1.02.95,1.53,2.29,1.53,4.02,0,.3-.04.78-.13,1.44-.09.66-.22,1.42-.42,2.29h-12.46c-.06.29-.1.58-.13.86-.03.28-.04.54-.04.79,0,1.42.43,2.54,1.3,3.35.87.81,2.1,1.22,3.69,1.22,1.11,0,2.25-.22,3.43-.65,1.17-.43,2.16-.92,2.96-1.47h.17l-.62,3.07c-.5.18-.96.35-1.36.5s-.92.3-1.54.45-1.18.27-1.66.35c-.48.08-1.09.12-1.81.12ZM134.6,16.48c.05-.29.09-.54.11-.74.02-.2.03-.42.03-.67,0-1.08-.3-1.92-.89-2.53-.59-.61-1.54-.91-2.84-.91-1.43,0-2.7.44-3.81,1.33-1.11.89-1.86,2.06-2.25,3.51h9.66Z"/>
  <path class="cls-1" d="M148.66,3.22l-5.44,23.55h-2.84l5.44-23.55h2.84Z"/>
  <path class="cls-1" d="M156.59,9.86l-3.91,16.91h-2.84l3.91-16.91h2.84ZM158.14,4.08l-.68,2.95h-3.22l.68-2.95h3.22Z"/>
  <path class="cls-1" d="M177.6,9.86l-10.75,16.91h-2.83l-2.89-16.91h2.89l2.14,13.51,8.32-13.51h3.12Z"/>
  <path class="cls-1" d="M186.56,27.16c-2.34,0-4.17-.55-5.5-1.65-1.33-1.1-2-2.71-2-4.83,0-3.1.98-5.75,2.93-7.97,1.96-2.21,4.38-3.32,7.26-3.32,1.92,0,3.38.48,4.4,1.43,1.02.95,1.53,2.29,1.53,4.02,0,.3-.04.78-.13,1.44-.09.66-.22,1.42-.42,2.29h-12.46c-.06.29-.1.58-.13.86-.03.28-.04.54-.04.79,0,1.42.43,2.54,1.3,3.35.87.81,2.1,1.22,3.69,1.22,1.11,0,2.25-.22,3.43-.65,1.17-.43,2.16-.92,2.96-1.47h.17l-.62,3.07c-.5.18-.96.35-1.36.5s-.92.3-1.54.45-1.18.27-1.66.35c-.48.08-1.09.12-1.81.12ZM192.24,16.48c.05-.29.09-.54.11-.74.02-.2.03-.42.03-.67,0-1.08-.3-1.92-.89-2.53-.59-.61-1.54-.91-2.84-.91-1.43,0-2.7.44-3.81,1.33-1.11.89-1.86,2.06-2.25,3.51h9.66Z"/>
  <path class="cls-1" d="M211.64,12.86h-.15c-.4-.1-.78-.17-1.13-.22-.35-.05-.77-.07-1.26-.07-.95,0-1.89.21-2.82.64-.93.43-1.83.94-2.68,1.54l-2.74,12.01h-2.87l3.86-16.91h2.87l-.57,2.5c1.34-.94,2.48-1.59,3.41-1.95.93-.36,1.83-.54,2.69-.54.49,0,.85.01,1.08.04.22.03.54.07.97.14l-.65,2.82Z"/>
  <path class="cls-1" d="M229.32,27.18c-1.26,0-2.39-.16-3.38-.47s-1.82-.65-2.49-1.01l.63-3.04h.15c.21.18.49.4.82.64.34.25.77.49,1.29.73.47.23,1.02.43,1.63.6.61.17,1.26.25,1.96.25,1.42,0,2.54-.26,3.34-.79.81-.52,1.21-1.3,1.21-2.32,0-.53-.21-.95-.62-1.23-.41-.29-1.01-.52-1.79-.7-.39-.09-.87-.19-1.42-.3-.55-.11-1.11-.24-1.67-.39-1.18-.33-2.05-.81-2.62-1.45-.56-.63-.85-1.4-.85-2.31,0-.79.17-1.52.52-2.21.34-.69.85-1.32,1.53-1.89.65-.54,1.47-.99,2.47-1.32,1-.34,2.11-.51,3.33-.51,1.01,0,2.01.13,3.02.38,1,.25,1.82.57,2.46.94l-.61,2.91h-.15c-.16-.13-.41-.31-.73-.53-.33-.22-.74-.45-1.25-.68-.43-.19-.94-.36-1.52-.5-.58-.14-1.18-.21-1.81-.21-1.26,0-2.29.26-3.07.79-.79.53-1.18,1.25-1.18,2.17,0,.5.19.93.57,1.26.38.34.97.6,1.76.79.5.12,1.01.23,1.55.34.54.11,1.06.22,1.57.34,1.17.29,2.05.75,2.64,1.36.59.62.89,1.39.89,2.32,0,.78-.18,1.54-.55,2.28-.37.74-.9,1.38-1.6,1.93-.72.58-1.58,1.02-2.6,1.35s-2.16.48-3.44.48Z"/>
  <path class="cls-1" d="M249.15,27.16c-2.34,0-4.17-.55-5.5-1.65-1.33-1.1-2-2.71-2-4.83,0-3.1.98-5.75,2.93-7.97,1.96-2.21,4.38-3.32,7.26-3.32,1.92,0,3.38.48,4.4,1.43,1.02.95,1.53,2.29,1.53,4.02,0,.3-.04.78-.13,1.44-.09.66-.22,1.42-.42,2.29h-12.46c-.06.29-.1.58-.13.86-.03.28-.04.54-.04.79,0,1.42.43,2.54,1.3,3.35.87.81,2.1,1.22,3.69,1.22,1.11,0,2.25-.22,3.43-.65,1.17-.43,2.16-.92,2.96-1.47h.17l-.62,3.07c-.5.18-.96.35-1.36.5s-.92.3-1.54.45-1.18.27-1.66.35c-.48.08-1.09.12-1.81.12ZM254.83,16.48c.05-.29.09-.54.11-.74.02-.2.03-.42.03-.67,0-1.08-.3-1.92-.89-2.53-.59-.61-1.54-.91-2.84-.91-1.43,0-2.7.44-3.81,1.33-1.11.89-1.86,2.06-2.25,3.51h9.66Z"/>
  <path class="cls-1" d="M267.9,27.15c-1.07,0-2.02-.13-2.84-.38-.82-.25-1.54-.65-2.16-1.2-.6-.52-1.05-1.19-1.38-1.98-.32-.8-.48-1.73-.48-2.79,0-1.58.25-3.06.74-4.44.49-1.37,1.2-2.58,2.1-3.62.88-1.01,1.96-1.81,3.25-2.4,1.29-.59,2.68-.89,4.18-.89.99,0,1.92.14,2.79.41.87.27,1.64.6,2.31.97l-.62,3.07h-.17c-.2-.18-.45-.39-.76-.63s-.66-.47-1.08-.68c-.41-.22-.87-.4-1.38-.55-.5-.15-1.08-.22-1.72-.22-1.96,0-3.56.83-4.79,2.48-1.24,1.65-1.85,3.66-1.85,6.03,0,1.42.37,2.51,1.1,3.28.73.77,1.77,1.15,3.13,1.15.63,0,1.27-.09,1.91-.27.64-.18,1.18-.38,1.62-.59.49-.23.95-.48,1.38-.74s.73-.46.92-.59h.17l-.61,3.1c-.88.39-1.81.73-2.79,1.02-.98.29-1.97.43-2.98.43Z"/>
  <path class="cls-1" d="M295.58,9.86l-3.88,16.91h-2.84l.43-1.87c-1.08.73-2.08,1.31-3.02,1.72s-1.92.62-2.96.62c-1.45,0-2.59-.37-3.4-1.1-.82-.73-1.22-1.8-1.22-3.2,0-.34.02-.68.07-1,.04-.32.11-.69.19-1.1l2.52-10.97h2.84l-2.21,9.63c-.09.39-.18.84-.26,1.35-.08.5-.12.9-.12,1.2,0,.87.22,1.52.66,1.95.44.43,1.19.65,2.24.65.75,0,1.6-.22,2.56-.65.96-.43,1.85-.93,2.67-1.49l2.9-12.63h2.84Z"/>
  <path class="cls-1" d="M311.92,12.86h-.15c-.4-.1-.78-.17-1.13-.22-.35-.05-.77-.07-1.26-.07-.95,0-1.89.21-2.82.64-.93.43-1.83.94-2.68,1.54l-2.74,12.01h-2.87l3.86-16.91h2.87l-.57,2.5c1.34-.94,2.48-1.59,3.41-1.95.93-.36,1.83-.54,2.69-.54.49,0,.85.01,1.08.04.22.03.54.07.97.14l-.65,2.82Z"/>
  <path class="cls-1" d="M320.46,27.16c-2.34,0-4.17-.55-5.5-1.65-1.33-1.1-2-2.71-2-4.83,0-3.1.98-5.75,2.93-7.97,1.96-2.21,4.38-3.32,7.26-3.32,1.92,0,3.38.48,4.4,1.43,1.02.95,1.53,2.29,1.53,4.02,0,.3-.04.78-.13,1.44-.09.66-.22,1.42-.42,2.29h-12.46c-.06.29-.1.58-.13.86-.03.28-.04.54-.04.79,0,1.42.43,2.54,1.3,3.35.87.81,2.1,1.22,3.69,1.22,1.11,0,2.25-.22,3.43-.65,1.17-.43,2.16-.92,2.96-1.47h.17l-.62,3.07c-.5.18-.96.35-1.36.5s-.92.3-1.54.45-1.18.27-1.66.35c-.48.08-1.09.12-1.81.12ZM326.14,16.48c.05-.29.09-.54.11-.74.02-.2.03-.42.03-.67,0-1.08-.3-1.92-.89-2.53-.59-.61-1.54-.91-2.84-.91-1.43,0-2.7.44-3.81,1.33-1.11.89-1.86,2.06-2.25,3.51h9.66Z"/>
  <path class="cls-1" d="M338.92,22.46l-6.57,9.91h-2.21l4.9-9.91h3.88Z"/>
  <path class="cls-1" d="M373.16,15.2c0,1.68-.26,3.25-.78,4.72-.52,1.47-1.21,2.72-2.07,3.75-.87,1.06-1.88,1.89-3.03,2.5-1.15.61-2.38.92-3.68.92-.91,0-1.74-.1-2.5-.31-.76-.21-1.46-.51-2.08-.9l-1.64,7.11h-2.84l5.35-23.14h2.84l-.41,1.77c.94-.66,1.86-1.19,2.77-1.61.91-.42,1.91-.63,3.01-.63,1.64,0,2.9.51,3.76,1.53.86,1.02,1.29,2.45,1.29,4.28ZM370.18,15.75c0-1.2-.26-2.13-.79-2.78-.52-.65-1.36-.98-2.51-.98-.84,0-1.7.21-2.6.62-.9.41-1.73.88-2.51,1.4l-2.21,9.59c.66.35,1.28.62,1.88.79.59.17,1.32.26,2.16.26,1.04,0,1.97-.25,2.81-.76.83-.5,1.52-1.16,2.07-1.97.58-.85,1-1.79,1.29-2.83.28-1.04.42-2.15.42-3.35Z"/>
  <path class="cls-1" d="M384.26,27.16c-2.34,0-4.17-.55-5.5-1.65-1.33-1.1-2-2.71-2-4.83,0-3.1.98-5.75,2.93-7.97,1.96-2.21,4.38-3.32,7.26-3.32,1.92,0,3.38.48,4.4,1.43,1.02.95,1.53,2.29,1.53,4.02,0,.3-.04.78-.13,1.44-.09.66-.22,1.42-.42,2.29h-12.46c-.06.29-.1.58-.13.86-.03.28-.04.54-.04.79,0,1.42.43,2.54,1.3,3.35.87.81,2.1,1.22,3.69,1.22,1.11,0,2.25-.22,3.43-.65,1.17-.43,2.16-.92,2.96-1.47h.17l-.62,3.07c-.5.18-.96.35-1.36.5s-.92.3-1.54.45-1.18.27-1.66.35c-.48.08-1.09.12-1.81.12ZM389.94,16.48c.05-.29.09-.54.11-.74.02-.2.03-.42.03-.67,0-1.08-.3-1.92-.89-2.53-.59-.61-1.54-.91-2.84-.91-1.43,0-2.7.44-3.81,1.33-1.11.89-1.86,2.06-2.25,3.51h9.66Z"/>
  <path class="cls-1" d="M409.34,12.86h-.15c-.4-.1-.78-.17-1.13-.22-.35-.05-.77-.07-1.26-.07-.95,0-1.89.21-2.82.64-.93.43-1.83.94-2.68,1.54l-2.74,12.01h-2.87l3.86-16.91h2.87l-.57,2.5c1.34-.94,2.48-1.59,3.41-1.95.93-.36,1.83-.54,2.69-.54.49,0,.85.01,1.08.04.22.03.54.07.97.14l-.65,2.82Z"/>
  <path class="cls-1" d="M415.16,27.18c-1.26,0-2.39-.16-3.38-.47s-1.82-.65-2.49-1.01l.63-3.04h.15c.21.18.49.4.82.64.34.25.77.49,1.29.73.47.23,1.02.43,1.63.6.61.17,1.26.25,1.96.25,1.42,0,2.54-.26,3.34-.79.81-.52,1.21-1.3,1.21-2.32,0-.53-.21-.95-.62-1.23-.41-.29-1.01-.52-1.79-.7-.39-.09-.87-.19-1.42-.3-.55-.11-1.11-.24-1.67-.39-1.18-.33-2.05-.81-2.62-1.45-.56-.63-.85-1.4-.85-2.31,0-.79.17-1.52.52-2.21.34-.69.85-1.32,1.53-1.89.65-.54,1.47-.99,2.47-1.32,1-.34,2.11-.51,3.33-.51,1.01,0,2.01.13,3.02.38,1,.25,1.82.57,2.46.94l-.61,2.91h-.15c-.16-.13-.41-.31-.73-.53-.33-.22-.74-.45-1.25-.68-.43-.19-.94-.36-1.52-.5-.58-.14-1.18-.21-1.81-.21-1.26,0-2.29.26-3.07.79-.79.53-1.18,1.25-1.18,2.17,0,.5.19.93.57,1.26.38.34.97.6,1.76.79.5.12,1.01.23,1.55.34.54.11,1.06.22,1.57.34,1.17.29,2.05.75,2.64,1.36.59.62.89,1.39.89,2.32,0,.78-.18,1.54-.55,2.28-.37.74-.9,1.38-1.6,1.93-.72.58-1.58,1.02-2.6,1.35s-2.16.48-3.44.48Z"/>
  <path class="cls-1" d="M443.61,15.84c0,1.51-.23,2.97-.7,4.36s-1.12,2.6-1.97,3.63c-.88,1.07-1.89,1.9-3.04,2.5-1.15.6-2.49.9-4.03.9-2.01,0-3.57-.57-4.7-1.72-1.13-1.15-1.69-2.73-1.69-4.75,0-1.51.23-2.96.69-4.33.46-1.37,1.12-2.59,1.99-3.66.84-1.03,1.86-1.85,3.08-2.47,1.22-.62,2.55-.92,3.99-.92,1.95,0,3.5.56,4.65,1.67,1.15,1.11,1.73,2.7,1.73,4.78ZM438.97,22.23c.54-.81.96-1.74,1.25-2.8.29-1.06.43-2.18.43-3.36,0-1.41-.34-2.48-1.01-3.21s-1.63-1.09-2.86-1.09c-.98,0-1.86.23-2.63.7-.78.47-1.45,1.11-2.01,1.93-.54.8-.96,1.73-1.26,2.8-.29,1.07-.44,2.18-.44,3.33,0,1.39.34,2.46,1.01,3.21.68.75,1.63,1.12,2.88,1.12.97,0,1.85-.23,2.63-.7.79-.46,1.46-1.11,2.01-1.94Z"/>
  <path class="cls-1" d="M463.7,13.72c0,.24-.02.57-.07.98-.05.41-.11.78-.19,1.09l-2.53,10.97h-2.84l2.21-9.63c.12-.53.21-1,.28-1.4.07-.4.1-.79.1-1.19,0-.85-.21-1.49-.63-1.91-.42-.43-1.17-.64-2.27-.64-.77,0-1.62.21-2.54.64s-1.83.93-2.71,1.52l-2.92,12.62h-2.84l3.91-16.91h2.84l-.43,1.88c1.08-.76,2.09-1.34,3.03-1.74.94-.4,1.91-.61,2.91-.61,1.47,0,2.62.37,3.44,1.11.82.74,1.23,1.81,1.23,3.22Z"/>
  <path class="cls-1" d="M478.07,24.97c-.27.16-.64.39-1.11.69-.47.3-.95.55-1.43.76-.51.23-1.09.43-1.73.58-.64.16-1.37.23-2.2.23-1.34,0-2.43-.39-3.27-1.17-.84-.78-1.26-1.8-1.26-3.06,0-1.34.3-2.48.89-3.4.59-.92,1.47-1.68,2.63-2.26,1.14-.58,2.51-.99,4.12-1.25,1.61-.26,3.44-.42,5.5-.48.06-.28.12-.53.16-.73.04-.21.06-.42.06-.64,0-.48-.1-.88-.29-1.18-.19-.3-.46-.55-.82-.73-.35-.18-.77-.3-1.24-.37s-.99-.1-1.55-.1c-.86,0-1.84.14-2.94.42-1.1.28-1.99.55-2.68.82h-.15l.56-2.85c.58-.15,1.42-.32,2.53-.51,1.11-.19,2.17-.29,3.19-.29,2.1,0,3.67.33,4.72.98,1.05.66,1.57,1.7,1.57,3.12,0,.27-.02.56-.07.87-.04.31-.1.6-.16.87l-2.64,11.47h-2.82l.41-1.8ZM479.72,17.85c-1.55.06-2.93.18-4.14.36-1.21.18-2.2.43-2.99.76-.82.33-1.44.78-1.86,1.35-.42.57-.64,1.28-.64,2.13,0,.73.25,1.28.74,1.67.49.38,1.26.58,2.3.58.92,0,1.85-.2,2.81-.61.95-.41,1.84-.9,2.67-1.48l1.11-4.75Z"/>
  <path class="cls-1" d="M495.24,3.22l-5.44,23.55h-2.84l5.44-23.55h2.84Z"/>
  <path class="cls-1" d="M503.17,9.86l-3.91,16.91h-2.84l3.91-16.91h2.84ZM504.71,4.08l-.68,2.95h-3.22l.68-2.95h3.22Z"/>
  <path class="cls-1" d="M511.14,27.18c-1.26,0-2.39-.16-3.38-.47s-1.82-.65-2.49-1.01l.63-3.04h.15c.21.18.49.4.82.64.34.25.77.49,1.29.73.47.23,1.02.43,1.63.6.61.17,1.26.25,1.96.25,1.42,0,2.54-.26,3.34-.79.81-.52,1.21-1.3,1.21-2.32,0-.53-.21-.95-.62-1.23-.41-.29-1.01-.52-1.79-.7-.39-.09-.87-.19-1.42-.3-.55-.11-1.11-.24-1.67-.39-1.18-.33-2.05-.81-2.62-1.45-.56-.63-.85-1.4-.85-2.31,0-.79.17-1.52.52-2.21.34-.69.85-1.32,1.53-1.89.65-.54,1.47-.99,2.47-1.32,1-.34,2.11-.51,3.33-.51,1.01,0,2.01.13,3.02.38,1,.25,1.82.57,2.46.94l-.61,2.91h-.15c-.16-.13-.41-.31-.73-.53-.33-.22-.74-.45-1.25-.68-.43-.19-.94-.36-1.52-.5-.58-.14-1.18-.21-1.81-.21-1.26,0-2.29.26-3.07.79-.79.53-1.18,1.25-1.18,2.17,0,.5.19.93.57,1.26.38.34.97.6,1.76.79.5.12,1.01.23,1.55.34.54.11,1.06.22,1.57.34,1.17.29,2.05.75,2.64,1.36.59.62.89,1.39.89,2.32,0,.78-.18,1.54-.55,2.28-.37.74-.9,1.38-1.6,1.93-.72.58-1.58,1.02-2.6,1.35s-2.16.48-3.44.48Z"/>
  <path class="cls-1" d="M530.97,27.16c-2.34,0-4.17-.55-5.5-1.65-1.33-1.1-2-2.71-2-4.83,0-3.1.98-5.75,2.93-7.97,1.96-2.21,4.38-3.32,7.26-3.32,1.92,0,3.38.48,4.4,1.43,1.02.95,1.53,2.29,1.53,4.02,0,.3-.04.78-.13,1.44-.09.66-.22,1.42-.42,2.29h-12.46c-.06.29-.1.58-.13.86-.03.28-.04.54-.04.79,0,1.42.43,2.54,1.3,3.35.87.81,2.1,1.22,3.69,1.22,1.11,0,2.25-.22,3.43-.65,1.17-.43,2.16-.92,2.96-1.47h.17l-.62,3.07c-.5.18-.96.35-1.36.5s-.92.3-1.54.45-1.18.27-1.66.35c-.48.08-1.09.12-1.81.12ZM536.65,16.48c.05-.29.09-.54.11-.74.02-.2.03-.42.03-.67,0-1.08-.3-1.92-.89-2.53-.59-.61-1.54-.91-2.84-.91-1.43,0-2.7.44-3.81,1.33-1.11.89-1.86,2.06-2.25,3.51h9.66Z"/>
  <path class="cls-1" d="M561.55,3.22l-5.44,23.55h-2.84l.41-1.77c-1.28.88-2.31,1.47-3.1,1.78-.78.31-1.63.46-2.55.46-1.59,0-2.86-.5-3.79-1.51-.93-1.01-1.4-2.48-1.4-4.4,0-1.62.25-3.16.76-4.61.5-1.45,1.19-2.72,2.06-3.81.86-1.08,1.87-1.94,3.04-2.57,1.17-.63,2.41-.95,3.72-.95.9,0,1.73.1,2.48.29.76.19,1.46.48,2.12.86l1.69-7.33h2.84ZM556.47,12.9c-.68-.35-1.34-.61-1.99-.78-.65-.17-1.34-.25-2.08-.25-1.05,0-1.98.25-2.81.76-.82.5-1.53,1.2-2.11,2.07-.54.8-.95,1.76-1.23,2.88-.29,1.12-.43,2.21-.43,3.25,0,1.23.26,2.17.79,2.82.53.65,1.39.98,2.58.98.85,0,1.71-.21,2.59-.64.88-.42,1.7-.89,2.44-1.39l2.24-9.71Z"/>
  <path class="cls-1" d="M31.31,57.18c-1.26,0-2.39-.16-3.38-.47-.99-.31-1.82-.65-2.49-1.01l.64-3.04h.15c.21.18.49.4.82.64.34.25.77.49,1.29.73.47.23,1.02.43,1.63.6.61.17,1.26.25,1.96.25,1.42,0,2.54-.26,3.35-.79.81-.52,1.21-1.3,1.21-2.32,0-.53-.21-.95-.62-1.23-.41-.29-1.01-.52-1.79-.7-.39-.09-.87-.19-1.42-.3-.55-.11-1.11-.24-1.67-.39-1.18-.33-2.05-.81-2.62-1.45-.57-.63-.85-1.4-.85-2.31,0-.79.17-1.52.51-2.21.34-.69.85-1.32,1.53-1.89.65-.54,1.47-.99,2.47-1.32,1-.34,2.11-.51,3.33-.51,1.01,0,2.02.13,3.02.38,1,.25,1.82.57,2.46.94l-.61,2.91h-.15c-.16-.13-.41-.31-.73-.53-.33-.22-.74-.45-1.25-.68-.43-.19-.94-.36-1.52-.5-.58-.14-1.18-.21-1.81-.21-1.26,0-2.29.26-3.07.79-.79.53-1.18,1.25-1.18,2.17,0,.5.19.93.58,1.26.38.34.97.6,1.76.79.49.12,1.01.23,1.55.34.54.11,1.06.22,1.57.34,1.17.29,2.05.75,2.64,1.36.59.62.89,1.39.89,2.32,0,.78-.18,1.54-.55,2.28-.37.74-.9,1.38-1.6,1.93-.72.58-1.58,1.02-2.6,1.35-1.02.32-2.16.48-3.44.48Z"/>
  <path class="cls-1" d="M51.14,57.16c-2.34,0-4.17-.55-5.5-1.65-1.33-1.1-2-2.71-2-4.83,0-3.1.98-5.75,2.93-7.97,1.96-2.21,4.38-3.32,7.26-3.32,1.92,0,3.38.48,4.4,1.43,1.02.95,1.53,2.29,1.53,4.02,0,.3-.04.78-.13,1.44-.09.66-.22,1.42-.42,2.29h-12.46c-.06.29-.1.58-.13.86-.03.28-.04.54-.04.79,0,1.42.43,2.54,1.3,3.35.87.81,2.1,1.22,3.69,1.22,1.11,0,2.25-.22,3.43-.65,1.18-.43,2.16-.92,2.96-1.47h.17l-.62,3.07c-.5.18-.96.35-1.36.5s-.92.3-1.54.45c-.62.15-1.18.27-1.66.35-.48.08-1.09.12-1.81.12ZM56.83,46.48c.05-.29.09-.54.11-.74.02-.2.03-.42.03-.67,0-1.08-.3-1.92-.89-2.53-.59-.61-1.54-.91-2.84-.91-1.43,0-2.7.44-3.81,1.33-1.11.89-1.86,2.06-2.26,3.51h9.66Z"/>
  <path class="cls-1" d="M76.22,42.86h-.15c-.4-.1-.78-.17-1.13-.22-.35-.05-.77-.07-1.26-.07-.95,0-1.89.21-2.82.64-.93.43-1.83.94-2.68,1.54l-2.74,12.01h-2.87l3.86-16.91h2.87l-.57,2.5c1.34-.94,2.48-1.59,3.41-1.95s1.83-.54,2.69-.54c.49,0,.85.01,1.07.04.22.03.54.07.97.14l-.65,2.82Z"/>
  <path class="cls-1" d="M95.08,39.86l-10.75,16.91h-2.83l-2.89-16.91h2.89l2.14,13.51,8.32-13.51h3.12Z"/>
  <path class="cls-1" d="M102.82,39.86l-3.91,16.91h-2.84l3.91-16.91h2.84ZM104.36,34.08l-.68,2.95h-3.22l.68-2.95h3.22Z"/>
  <path class="cls-1" d="M112.83,57.15c-1.07,0-2.02-.13-2.84-.38-.82-.25-1.54-.65-2.16-1.2-.6-.52-1.05-1.19-1.38-1.98-.32-.8-.48-1.73-.48-2.79,0-1.58.25-3.06.74-4.44.49-1.37,1.2-2.58,2.1-3.62.88-1.01,1.96-1.81,3.25-2.4,1.29-.59,2.68-.89,4.18-.89.99,0,1.92.14,2.79.41.87.27,1.64.6,2.31.97l-.62,3.07h-.17c-.2-.18-.45-.39-.76-.63s-.66-.47-1.08-.68c-.41-.22-.87-.4-1.38-.55-.5-.15-1.08-.22-1.72-.22-1.96,0-3.56.83-4.79,2.48-1.24,1.65-1.85,3.66-1.85,6.03,0,1.42.37,2.51,1.1,3.28.73.77,1.77,1.15,3.13,1.15.63,0,1.27-.09,1.91-.27.64-.18,1.18-.38,1.62-.59.49-.23.95-.48,1.38-.74s.73-.46.92-.59h.17l-.61,3.1c-.88.39-1.81.73-2.79,1.02-.98.29-1.97.43-2.98.43Z"/>
  <path class="cls-1" d="M130.62,57.16c-2.34,0-4.17-.55-5.5-1.65-1.33-1.1-2-2.71-2-4.83,0-3.1.98-5.75,2.93-7.97,1.96-2.21,4.38-3.32,7.26-3.32,1.92,0,3.38.48,4.4,1.43,1.02.95,1.53,2.29,1.53,4.02,0,.3-.04.78-.13,1.44-.09.66-.22,1.42-.42,2.29h-12.46c-.06.29-.1.58-.13.86-.03.28-.04.54-.04.79,0,1.42.43,2.54,1.3,3.35.87.81,2.1,1.22,3.69,1.22,1.11,0,2.25-.22,3.43-.65,1.17-.43,2.16-.92,2.96-1.47h.17l-.62,3.07c-.5.18-.96.35-1.36.5s-.92.3-1.54.45-1.18.27-1.66.35c-.48.08-1.09.12-1.81.12ZM136.3,46.48c.05-.29.09-.54.11-.74.02-.2.03-.42.03-.67,0-1.08-.3-1.92-.89-2.53-.59-.61-1.54-.91-2.84-.91-1.43,0-2.7.44-3.81,1.33-1.11.89-1.86,2.06-2.25,3.51h9.66Z"/>
  <path class="cls-1" d="M178.87,39.86l-7.86,16.91h-2.66l-1.7-13.06-6.97,13.06h-2.64l-1.06-16.91h2.91l.44,13.08,6.89-13.08h2.38l1.65,13.08,5.62-13.08h2.99Z"/>
  <path class="cls-1" d="M187.01,39.86l-3.91,16.91h-2.84l3.91-16.91h2.84ZM188.56,34.08l-.68,2.95h-3.22l.68-2.95h3.22Z"/>
  <path class="cls-1" d="M202.39,39.86l-.51,2.3h-5.88l-1.81,7.8c-.1.4-.19.85-.27,1.36-.08.51-.12.92-.12,1.22,0,.74.19,1.29.56,1.64.37.36,1.06.54,2.07.54.41,0,.91-.07,1.47-.21.57-.14.96-.25,1.16-.33h.15l-.53,2.44c-.57.14-1.17.26-1.81.35s-1.21.14-1.7.14c-1.39,0-2.47-.31-3.23-.92-.76-.61-1.14-1.58-1.14-2.9,0-.32.02-.64.07-.96.04-.32.11-.68.19-1.08l2.1-9.08h-1.92l.52-2.3h1.94l1.12-4.86h2.86l-1.13,4.86h5.85Z"/>
  <path class="cls-1" d="M219.82,43.72c0,.24-.02.57-.07.98-.05.41-.11.78-.19,1.09l-2.54,10.97h-2.84l2.22-9.63c.12-.53.21-1,.28-1.4.07-.4.1-.79.1-1.19,0-.85-.21-1.49-.63-1.91-.42-.43-1.18-.64-2.27-.64-.77,0-1.62.21-2.54.64s-1.83.93-2.71,1.52l-2.91,12.62h-2.84l5.43-23.55h2.84l-1.96,8.52c1.08-.76,2.09-1.34,3.04-1.74.94-.4,1.92-.61,2.92-.61,1.47,0,2.62.37,3.45,1.11.82.74,1.23,1.81,1.23,3.22Z"/>
  <path class="cls-1" d="M249.08,35.87h-.15c-.29-.1-.68-.2-1.17-.29-.48-.09-.92-.14-1.3-.14-1.24,0-2.17.31-2.79.94-.62.63-1.09,1.59-1.4,2.91l-.14.58h5.14l-.54,2.27h-5.03l-3.31,14.64h-2.87l3.31-14.64h-1.93l.54-2.27h1.92l.12-.56c.41-1.98,1.22-3.51,2.43-4.6,1.21-1.09,2.76-1.63,4.66-1.63.64,0,1.21.03,1.73.09.52.06.98.13,1.39.21l-.59,2.5Z"/>
  <path class="cls-1" d="M257.91,54.97c-.27.16-.64.39-1.11.69-.47.3-.95.55-1.43.76-.51.23-1.09.43-1.73.58-.64.16-1.37.23-2.2.23-1.34,0-2.43-.39-3.27-1.17-.84-.78-1.26-1.8-1.26-3.06,0-1.34.3-2.48.89-3.4.59-.92,1.47-1.68,2.63-2.26,1.14-.58,2.51-.99,4.12-1.25,1.61-.26,3.44-.42,5.5-.48.06-.28.12-.53.16-.73.04-.21.06-.42.06-.64,0-.48-.1-.88-.29-1.18-.19-.3-.46-.55-.82-.73-.35-.18-.77-.3-1.24-.37s-.99-.1-1.55-.1c-.86,0-1.84.14-2.94.42-1.1.28-1.99.55-2.68.82h-.15l.56-2.85c.58-.15,1.42-.32,2.53-.51,1.11-.19,2.17-.29,3.19-.29,2.1,0,3.67.33,4.72.98,1.05.66,1.57,1.7,1.57,3.12,0,.27-.02.56-.07.87-.04.31-.1.6-.16.87l-2.64,11.47h-2.82l.41-1.8ZM259.56,47.85c-1.55.06-2.93.18-4.14.36-1.21.18-2.2.43-2.99.76-.82.33-1.44.78-1.86,1.35-.42.57-.64,1.28-.64,2.13,0,.73.25,1.28.74,1.67.49.38,1.26.58,2.3.58.92,0,1.85-.2,2.81-.61.95-.41,1.84-.9,2.67-1.48l1.11-4.75Z"/>
  <path class="cls-1" d="M273.53,39.86l-3.91,16.91h-2.84l3.91-16.91h2.84ZM275.08,34.08l-.68,2.95h-3.22l.68-2.95h3.22Z"/>
  <path class="cls-1" d="M289.88,42.86h-.15c-.4-.1-.78-.17-1.13-.22-.35-.05-.77-.07-1.26-.07-.95,0-1.89.21-2.82.64-.93.43-1.83.94-2.68,1.54l-2.74,12.01h-2.87l3.86-16.91h2.87l-.57,2.5c1.34-.94,2.48-1.59,3.41-1.95.93-.36,1.83-.54,2.69-.54.49,0,.85.01,1.08.04.22.03.54.07.97.14l-.65,2.82Z"/>
  <path class="cls-1" d="M319.45,45.2c0,1.68-.26,3.25-.78,4.72-.52,1.47-1.21,2.72-2.07,3.75-.87,1.06-1.88,1.89-3.03,2.5-1.15.61-2.38.92-3.68.92-.91,0-1.74-.1-2.5-.31-.76-.21-1.46-.51-2.08-.9l-1.64,7.11h-2.84l5.35-23.14h2.84l-.41,1.77c.94-.66,1.86-1.19,2.77-1.61.91-.42,1.91-.63,3.01-.63,1.64,0,2.9.51,3.76,1.53.86,1.02,1.29,2.45,1.29,4.28ZM316.47,45.75c0-1.2-.26-2.13-.79-2.78-.52-.65-1.36-.98-2.51-.98-.84,0-1.7.21-2.6.62-.9.41-1.73.88-2.51,1.4l-2.21,9.59c.66.35,1.28.62,1.88.79.59.17,1.32.26,2.16.26,1.04,0,1.97-.25,2.81-.76.83-.5,1.52-1.16,2.07-1.97.58-.85,1-1.79,1.29-2.83.28-1.04.42-2.15.42-3.35Z"/>
  <path class="cls-1" d="M336.2,42.86h-.15c-.4-.1-.78-.17-1.13-.22-.35-.05-.77-.07-1.26-.07-.95,0-1.89.21-2.82.64-.93.43-1.83.94-2.68,1.54l-2.74,12.01h-2.87l3.86-16.91h2.87l-.57,2.5c1.34-.94,2.48-1.59,3.41-1.95.93-.36,1.83-.54,2.69-.54.49,0,.85.01,1.08.04.22.03.54.07.97.14l-.65,2.82Z"/>
  <path class="cls-1" d="M343.52,39.86l-3.91,16.91h-2.84l3.91-16.91h2.84ZM345.06,34.08l-.68,2.95h-3.22l.68-2.95h3.22Z"/>
  <path class="cls-1" d="M353.53,57.15c-1.07,0-2.02-.13-2.84-.38-.82-.25-1.54-.65-2.16-1.2-.6-.52-1.05-1.19-1.38-1.98-.32-.8-.48-1.73-.48-2.79,0-1.58.25-3.06.74-4.44.49-1.37,1.2-2.58,2.1-3.62.88-1.01,1.96-1.81,3.25-2.4,1.29-.59,2.68-.89,4.18-.89.99,0,1.92.14,2.79.41.87.27,1.64.6,2.31.97l-.62,3.07h-.17c-.2-.18-.45-.39-.76-.63s-.66-.47-1.08-.68c-.41-.22-.87-.4-1.38-.55-.5-.15-1.08-.22-1.72-.22-1.96,0-3.56.83-4.79,2.48-1.24,1.65-1.85,3.66-1.85,6.03,0,1.42.37,2.51,1.1,3.28.73.77,1.77,1.15,3.13,1.15.63,0,1.27-.09,1.91-.27.64-.18,1.18-.38,1.62-.59.49-.23.95-.48,1.38-.74s.73-.46.92-.59h.17l-.61,3.1c-.88.39-1.81.73-2.79,1.02-.98.29-1.97.43-2.98.43Z"/>
  <path class="cls-1" d="M370.1,39.86l-3.91,16.91h-2.84l3.91-16.91h2.84ZM371.64,34.08l-.68,2.95h-3.22l.68-2.95h3.22Z"/>
  <path class="cls-1" d="M389.72,43.72c0,.24-.02.57-.07.98-.05.41-.11.78-.19,1.09l-2.53,10.97h-2.84l2.21-9.63c.12-.53.21-1,.28-1.4.07-.4.1-.79.1-1.19,0-.85-.21-1.49-.63-1.91-.42-.43-1.17-.64-2.27-.64-.77,0-1.62.21-2.54.64s-1.83.93-2.71,1.52l-2.92,12.62h-2.84l3.91-16.91h2.84l-.43,1.88c1.08-.76,2.09-1.34,3.03-1.74.94-.4,1.91-.61,2.91-.61,1.47,0,2.62.37,3.44,1.11.82.74,1.23,1.81,1.23,3.22Z"/>
  <path class="cls-1" d="M410.93,39.86l-3.44,15.03c-.67,2.87-1.76,4.96-3.27,6.29-1.52,1.33-3.63,1.99-6.33,1.99-.87,0-1.74-.07-2.62-.2-.88-.13-1.69-.31-2.43-.53l.65-2.83h.15c.57.25,1.33.49,2.29.73.96.23,1.86.35,2.71.35.96,0,1.77-.12,2.44-.37.67-.25,1.22-.58,1.66-1.01.42-.42.77-.92,1.04-1.48.27-.56.48-1.19.63-1.88l.34-1.48c-1.02.69-1.92,1.2-2.69,1.54-.78.34-1.77.51-2.98.51-1.64,0-2.93-.5-3.86-1.51-.93-1-1.39-2.42-1.39-4.25,0-1.46.24-2.88.72-4.26.48-1.38,1.15-2.6,2.01-3.67.84-1.04,1.84-1.87,3.02-2.5,1.18-.63,2.43-.94,3.78-.94.97,0,1.83.11,2.6.33.76.22,1.43.51,1.99.86l.35-.73h2.64ZM407.4,42.9c-.65-.33-1.31-.59-1.99-.78-.68-.19-1.37-.28-2.07-.28-.99,0-1.89.22-2.71.67-.81.45-1.51,1.07-2.1,1.87-.56.75-.99,1.65-1.3,2.7-.31,1.05-.46,2.11-.46,3.16,0,1.19.27,2.11.82,2.76.55.65,1.42.98,2.62.98.84,0,1.69-.18,2.55-.53.86-.35,1.7-.8,2.53-1.33l2.1-9.22Z"/>
  <path class="cls-1" d="M442.63,45.2c0,1.65-.26,3.21-.77,4.71-.52,1.49-1.2,2.77-2.06,3.83-.9,1.11-1.9,1.97-3.01,2.58-1.11.61-2.34.92-3.68.92-.9,0-1.74-.12-2.52-.36-.78-.24-1.48-.55-2.1-.95l-.38.83h-2.66l5.43-23.55h2.84l-1.94,8.42c.94-.66,1.86-1.19,2.76-1.61.9-.42,1.9-.63,3-.63,1.65,0,2.91.51,3.78,1.53.87,1.02,1.31,2.45,1.31,4.28ZM437.96,52c.57-.88.99-1.84,1.27-2.89.28-1.05.42-2.17.42-3.36s-.26-2.13-.79-2.78c-.53-.65-1.36-.98-2.51-.98-.84,0-1.71.21-2.6.62-.9.41-1.74.88-2.51,1.41l-2.23,9.67c.65.34,1.27.61,1.89.8.61.19,1.34.29,2.19.29,1.05,0,1.99-.26,2.82-.77.83-.51,1.51-1.19,2.06-2.01Z"/>
  <path class="cls-1" d="M456.46,54.97c-.27.16-.64.39-1.11.69-.47.3-.95.55-1.43.76-.51.23-1.09.43-1.73.58-.64.16-1.37.23-2.2.23-1.34,0-2.43-.39-3.27-1.17-.84-.78-1.26-1.8-1.26-3.06,0-1.34.3-2.48.89-3.4.59-.92,1.47-1.68,2.63-2.26,1.14-.58,2.51-.99,4.12-1.25,1.61-.26,3.44-.42,5.5-.48.06-.28.12-.53.16-.73.04-.21.06-.42.06-.64,0-.48-.1-.88-.29-1.18-.19-.3-.46-.55-.82-.73-.35-.18-.77-.3-1.24-.37s-.99-.1-1.55-.1c-.86,0-1.84.14-2.94.42-1.1.28-1.99.55-2.68.82h-.15l.56-2.85c.58-.15,1.42-.32,2.53-.51,1.11-.19,2.17-.29,3.19-.29,2.1,0,3.67.33,4.72.98,1.05.66,1.57,1.7,1.57,3.12,0,.27-.02.56-.07.87-.04.31-.1.6-.16.87l-2.64,11.47h-2.82l.41-1.8ZM458.12,47.85c-1.55.06-2.93.18-4.14.36-1.21.18-2.2.43-2.99.76-.82.33-1.44.78-1.86,1.35-.42.57-.64,1.28-.64,2.13,0,.73.25,1.28.74,1.67.49.38,1.26.58,2.3.58.92,0,1.85-.2,2.81-.61.95-.41,1.84-.9,2.67-1.48l1.11-4.75Z"/>
  <path class="cls-1" d="M470.59,57.18c-1.26,0-2.39-.16-3.38-.47s-1.82-.65-2.49-1.01l.63-3.04h.15c.21.18.49.4.82.64.34.25.77.49,1.29.73.47.23,1.02.43,1.63.6.61.17,1.26.25,1.96.25,1.42,0,2.54-.26,3.34-.79.81-.52,1.21-1.3,1.21-2.32,0-.53-.21-.95-.62-1.23-.41-.29-1.01-.52-1.79-.7-.39-.09-.87-.19-1.42-.3-.55-.11-1.11-.24-1.67-.39-1.18-.33-2.05-.81-2.62-1.45-.56-.63-.85-1.4-.85-2.31,0-.79.17-1.52.52-2.21.34-.69.85-1.32,1.53-1.89.65-.54,1.47-.99,2.47-1.32,1-.34,2.11-.51,3.33-.51,1.01,0,2.01.13,3.02.38,1,.25,1.82.57,2.46.94l-.61,2.91h-.15c-.16-.13-.41-.31-.73-.53-.33-.22-.74-.45-1.25-.68-.43-.19-.94-.36-1.52-.5-.58-.14-1.18-.21-1.81-.21-1.26,0-2.29.26-3.07.79-.79.53-1.18,1.25-1.18,2.17,0,.5.19.93.57,1.26.38.34.97.6,1.76.79.5.12,1.01.23,1.55.34.54.11,1.06.22,1.57.34,1.17.29,2.05.75,2.64,1.36.59.62.89,1.39.89,2.32,0,.78-.18,1.54-.55,2.28-.37.74-.9,1.38-1.6,1.93-.72.58-1.58,1.02-2.6,1.35s-2.16.48-3.44.48Z"/>
  <path class="cls-1" d="M490.42,57.16c-2.34,0-4.17-.55-5.5-1.65-1.33-1.1-2-2.71-2-4.83,0-3.1.98-5.75,2.93-7.97,1.96-2.21,4.38-3.32,7.26-3.32,1.92,0,3.38.48,4.4,1.43,1.02.95,1.53,2.29,1.53,4.02,0,.3-.04.78-.13,1.44-.09.66-.22,1.42-.42,2.29h-12.46c-.06.29-.1.58-.13.86-.03.28-.04.54-.04.79,0,1.42.43,2.54,1.3,3.35.87.81,2.1,1.22,3.69,1.22,1.11,0,2.25-.22,3.43-.65,1.17-.43,2.16-.92,2.96-1.47h.17l-.62,3.07c-.5.18-.96.35-1.36.5s-.92.3-1.54.45-1.18.27-1.66.35c-.48.08-1.09.12-1.81.12ZM496.11,46.48c.05-.29.09-.54.11-.74.02-.2.03-.42.03-.67,0-1.08-.3-1.92-.89-2.53-.59-.61-1.54-.91-2.84-.91-1.43,0-2.7.44-3.81,1.33-1.11.89-1.86,2.06-2.25,3.51h9.66Z"/>
  <path class="cls-1" d="M521.01,33.22l-5.44,23.55h-2.84l.41-1.77c-1.28.88-2.31,1.47-3.1,1.78-.78.31-1.63.46-2.55.46-1.59,0-2.86-.5-3.79-1.51-.93-1.01-1.4-2.48-1.4-4.4,0-1.62.25-3.16.76-4.61.5-1.45,1.19-2.72,2.06-3.81.86-1.08,1.87-1.94,3.04-2.57,1.17-.63,2.41-.95,3.72-.95.9,0,1.73.1,2.48.29.76.19,1.46.48,2.12.86l1.69-7.33h2.84ZM515.92,42.9c-.68-.35-1.34-.61-1.99-.78-.65-.17-1.34-.25-2.08-.25-1.05,0-1.98.25-2.81.76-.82.5-1.53,1.2-2.11,2.07-.54.8-.95,1.76-1.23,2.88-.29,1.12-.43,2.21-.43,3.25,0,1.23.26,2.17.79,2.82.53.65,1.39.98,2.58.98.85,0,1.71-.21,2.59-.64.88-.42,1.7-.89,2.44-1.39l2.24-9.71Z"/>
  <path class="cls-1" d="M550.6,45.84c0,1.51-.23,2.97-.7,4.36s-1.12,2.6-1.97,3.63c-.88,1.07-1.89,1.9-3.04,2.5-1.15.6-2.49.9-4.03.9-2.01,0-3.57-.57-4.7-1.72-1.13-1.15-1.69-2.73-1.69-4.75,0-1.51.23-2.96.69-4.33.46-1.37,1.12-2.59,1.99-3.66.84-1.03,1.86-1.85,3.08-2.47,1.22-.62,2.55-.92,3.99-.92,1.95,0,3.5.56,4.65,1.67,1.15,1.11,1.73,2.7,1.73,4.78ZM545.97,52.23c.54-.81.96-1.74,1.25-2.8.29-1.06.43-2.18.43-3.36,0-1.41-.34-2.48-1.01-3.21s-1.63-1.09-2.86-1.09c-.98,0-1.86.23-2.63.7-.78.47-1.45,1.11-2.01,1.93-.54.8-.96,1.73-1.26,2.8-.29,1.07-.44,2.18-.44,3.33,0,1.39.34,2.46,1.01,3.21.68.75,1.63,1.12,2.88,1.12.97,0,1.85-.23,2.63-.7.79-.46,1.46-1.11,2.01-1.94Z"/>
  <path class="cls-1" d="M570.7,43.72c0,.24-.02.57-.07.98-.05.41-.11.78-.19,1.09l-2.53,10.97h-2.84l2.21-9.63c.12-.53.21-1,.28-1.4.07-.4.1-.79.1-1.19,0-.85-.21-1.49-.63-1.91-.42-.43-1.17-.64-2.27-.64-.77,0-1.62.21-2.54.64s-1.83.93-2.71,1.52l-2.92,12.62h-2.84l3.91-16.91h2.84l-.43,1.88c1.08-.76,2.09-1.34,3.03-1.74.94-.4,1.91-.61,2.91-.61,1.47,0,2.62.37,3.44,1.11.82.74,1.23,1.81,1.23,3.22Z"/>
  <path class="cls-1" d="M60.56,69.86l-7.86,16.91h-2.66l-1.7-13.06-6.97,13.06h-2.64l-1.06-16.91h2.91l.44,13.08,6.9-13.08h2.38l1.65,13.08,5.62-13.08h2.99Z"/>
  <path class="cls-1" d="M78.55,75.84c0,1.51-.23,2.97-.7,4.36-.46,1.39-1.12,2.6-1.97,3.63-.88,1.07-1.89,1.9-3.04,2.5-1.15.6-2.49.9-4.03.9-2.01,0-3.57-.57-4.7-1.72-1.13-1.15-1.69-2.73-1.69-4.75,0-1.51.23-2.96.69-4.33.46-1.37,1.12-2.59,1.99-3.66.84-1.03,1.86-1.85,3.08-2.47,1.22-.62,2.55-.92,3.99-.92,1.95,0,3.5.56,4.65,1.67,1.15,1.11,1.72,2.7,1.72,4.78ZM73.92,82.23c.54-.81.96-1.74,1.25-2.8s.43-2.18.43-3.36c0-1.41-.34-2.48-1.01-3.21s-1.63-1.09-2.86-1.09c-.98,0-1.86.23-2.63.7-.78.47-1.45,1.11-2.01,1.93-.54.8-.96,1.73-1.26,2.8-.29,1.07-.44,2.18-.44,3.33,0,1.39.34,2.46,1.01,3.21.68.75,1.63,1.12,2.88,1.12.97,0,1.85-.23,2.63-.7.79-.46,1.46-1.11,2.01-1.94Z"/>
  <path class="cls-1" d="M95.36,72.86h-.15c-.4-.1-.78-.17-1.13-.22-.35-.05-.77-.07-1.26-.07-.95,0-1.89.21-2.82.64-.93.43-1.83.94-2.68,1.54l-2.74,12.01h-2.87l3.86-16.91h2.87l-.57,2.5c1.34-.94,2.48-1.59,3.41-1.95.93-.36,1.83-.54,2.69-.54.49,0,.85.01,1.08.04.22.03.54.07.97.14l-.65,2.82Z"/>
  <path class="cls-1" d="M115.05,63.22l-5.44,23.55h-2.84l.41-1.77c-1.28.88-2.31,1.47-3.1,1.78-.78.31-1.63.46-2.55.46-1.59,0-2.86-.5-3.79-1.51-.93-1.01-1.4-2.48-1.4-4.4,0-1.62.25-3.16.76-4.61.5-1.45,1.19-2.72,2.06-3.81.86-1.08,1.87-1.94,3.04-2.57,1.17-.63,2.41-.95,3.72-.95.9,0,1.73.1,2.48.29.76.19,1.46.48,2.12.86l1.69-7.33h2.84ZM109.97,72.9c-.68-.35-1.34-.61-1.99-.78-.65-.17-1.34-.25-2.08-.25-1.05,0-1.98.25-2.81.76-.82.5-1.53,1.2-2.11,2.07-.54.8-.95,1.76-1.23,2.88-.29,1.12-.43,2.21-.43,3.25,0,1.23.26,2.17.79,2.82.53.65,1.39.98,2.58.98.85,0,1.71-.21,2.59-.64.88-.42,1.7-.89,2.44-1.39l2.24-9.71Z"/>
  <path class="cls-1" d="M135.36,87.15c-1.07,0-2.02-.13-2.84-.38-.82-.25-1.54-.65-2.16-1.2-.6-.52-1.05-1.19-1.38-1.98-.32-.8-.48-1.73-.48-2.79,0-1.58.25-3.06.74-4.44.49-1.37,1.2-2.58,2.1-3.62.88-1.01,1.96-1.81,3.25-2.4,1.29-.59,2.68-.89,4.18-.89.99,0,1.92.14,2.79.41.87.27,1.64.6,2.31.97l-.62,3.07h-.17c-.2-.18-.45-.39-.76-.63s-.66-.47-1.08-.68c-.41-.22-.87-.4-1.38-.55-.5-.15-1.08-.22-1.72-.22-1.96,0-3.56.83-4.79,2.48-1.24,1.65-1.85,3.66-1.85,6.03,0,1.42.37,2.51,1.1,3.28.73.77,1.77,1.15,3.13,1.15.63,0,1.27-.09,1.91-.27.64-.18,1.18-.38,1.62-.59.49-.23.95-.48,1.38-.74s.73-.46.92-.59h.17l-.61,3.1c-.88.39-1.81.73-2.79,1.02-.98.29-1.97.43-2.98.43Z"/>
  <path class="cls-1" d="M161.76,75.84c0,1.51-.23,2.97-.7,4.36s-1.12,2.6-1.97,3.63c-.88,1.07-1.89,1.9-3.04,2.5-1.15.6-2.49.9-4.03.9-2.01,0-3.57-.57-4.7-1.72-1.13-1.15-1.69-2.73-1.69-4.75,0-1.51.23-2.96.69-4.33.46-1.37,1.12-2.59,1.99-3.66.84-1.03,1.86-1.85,3.08-2.47,1.22-.62,2.55-.92,3.99-.92,1.95,0,3.5.56,4.65,1.67,1.15,1.11,1.73,2.7,1.73,4.78ZM157.13,82.23c.54-.81.96-1.74,1.25-2.8.29-1.06.43-2.18.43-3.36,0-1.41-.34-2.48-1.01-3.21s-1.63-1.09-2.86-1.09c-.98,0-1.86.23-2.63.7-.78.47-1.45,1.11-2.01,1.93-.54.8-.96,1.73-1.26,2.8-.29,1.07-.44,2.18-.44,3.33,0,1.39.34,2.46,1.01,3.21.68.75,1.63,1.12,2.88,1.12.97,0,1.85-.23,2.63-.7.79-.46,1.46-1.11,2.01-1.94Z"/>
  <path class="cls-1" d="M182.82,69.86l-3.88,16.91h-2.84l.43-1.87c-1.08.73-2.08,1.31-3.02,1.72s-1.92.62-2.96.62c-1.45,0-2.59-.37-3.4-1.1-.82-.73-1.22-1.8-1.22-3.2,0-.34.02-.68.07-1,.04-.32.11-.69.19-1.1l2.52-10.97h2.84l-2.21,9.63c-.09.39-.18.84-.26,1.35-.08.5-.12.9-.12,1.2,0,.87.22,1.52.66,1.95.44.43,1.19.65,2.24.65.75,0,1.6-.22,2.56-.65.96-.43,1.85-.93,2.67-1.49l2.9-12.63h2.84Z"/>
  <path class="cls-1" d="M202.44,73.72c0,.24-.02.57-.07.98-.05.41-.11.78-.19,1.09l-2.53,10.97h-2.84l2.21-9.63c.12-.53.21-1,.28-1.4.07-.4.1-.79.1-1.19,0-.85-.21-1.49-.63-1.91-.42-.43-1.17-.64-2.27-.64-.77,0-1.62.21-2.54.64s-1.83.93-2.71,1.52l-2.92,12.62h-2.84l3.91-16.91h2.84l-.43,1.88c1.08-.76,2.09-1.34,3.03-1.74.94-.4,1.91-.61,2.91-.61,1.47,0,2.62.37,3.44,1.11.82.74,1.23,1.81,1.23,3.22Z"/>
  <path class="cls-1" d="M218.76,69.86l-.51,2.3h-5.88l-1.81,7.8c-.1.4-.19.85-.27,1.36-.08.51-.12.92-.12,1.22,0,.74.19,1.29.56,1.64.37.36,1.06.54,2.07.54.41,0,.91-.07,1.47-.21.57-.14.96-.25,1.16-.33h.15l-.53,2.44c-.57.14-1.17.26-1.81.35s-1.21.14-1.7.14c-1.39,0-2.47-.31-3.23-.92-.76-.61-1.14-1.58-1.14-2.9,0-.32.02-.64.07-.96.04-.32.11-.68.19-1.08l2.1-9.08h-1.92l.52-2.3h1.94l1.12-4.86h2.86l-1.13,4.86h5.85Z"/>
  <path class="cls-1" d="M226.29,82.46l-6.57,9.91h-2.21l4.9-9.91h3.88Z"/>
  <path class="cls-1" d="M260.29,73.72c0,.24-.02.57-.07.98-.05.41-.11.78-.19,1.09l-2.53,10.97h-2.84l2.21-9.63c.12-.53.21-1,.28-1.4.07-.4.1-.79.1-1.19,0-.85-.21-1.49-.63-1.91-.42-.43-1.17-.64-2.27-.64-.77,0-1.62.21-2.54.64s-1.83.93-2.71,1.52l-2.92,12.62h-2.84l3.91-16.91h2.84l-.43,1.88c1.08-.76,2.09-1.34,3.03-1.74.94-.4,1.91-.61,2.91-.61,1.47,0,2.62.37,3.44,1.11.82.74,1.23,1.81,1.23,3.22Z"/>
  <path class="cls-1" d="M280.55,75.84c0,1.51-.23,2.97-.7,4.36s-1.12,2.6-1.97,3.63c-.88,1.07-1.89,1.9-3.04,2.5-1.15.6-2.49.9-4.03.9-2.01,0-3.57-.57-4.7-1.72-1.13-1.15-1.69-2.73-1.69-4.75,0-1.51.23-2.96.69-4.33.46-1.37,1.12-2.59,1.99-3.66.84-1.03,1.86-1.85,3.08-2.47,1.22-.62,2.55-.92,3.99-.92,1.95,0,3.5.56,4.65,1.67,1.15,1.11,1.73,2.7,1.73,4.78ZM275.92,82.23c.54-.81.96-1.74,1.25-2.8.29-1.06.43-2.18.43-3.36,0-1.41-.34-2.48-1.01-3.21s-1.63-1.09-2.86-1.09c-.98,0-1.86.23-2.63.7-.78.47-1.45,1.11-2.01,1.93-.54.8-.96,1.73-1.26,2.8-.29,1.07-.44,2.18-.44,3.33,0,1.39.34,2.46,1.01,3.21.68.75,1.63,1.12,2.88,1.12.97,0,1.85-.23,2.63-.7.79-.46,1.46-1.11,2.01-1.94Z"/>
  <path class="cls-1" d="M296.39,69.86l-.51,2.3h-5.88l-1.81,7.8c-.1.4-.19.85-.27,1.36-.08.51-.12.92-.12,1.22,0,.74.19,1.29.56,1.64.37.36,1.06.54,2.07.54.41,0,.91-.07,1.47-.21.57-.14.96-.25,1.16-.33h.15l-.53,2.44c-.57.14-1.17.26-1.81.35s-1.21.14-1.7.14c-1.39,0-2.47-.31-3.23-.92-.76-.61-1.14-1.58-1.14-2.9,0-.32.02-.64.07-.96.04-.32.11-.68.19-1.08l2.1-9.08h-1.92l.52-2.3h1.94l1.12-4.86h2.86l-1.13,4.86h5.85Z"/>
  <path class="cls-1" d="M325.92,75.2c0,1.68-.26,3.25-.78,4.72-.52,1.47-1.21,2.72-2.07,3.75-.87,1.06-1.88,1.89-3.03,2.5-1.15.61-2.38.92-3.68.92-.91,0-1.74-.1-2.5-.31-.76-.21-1.46-.51-2.08-.9l-1.64,7.11h-2.84l5.35-23.14h2.84l-.41,1.77c.94-.66,1.86-1.19,2.77-1.61.91-.42,1.91-.63,3.01-.63,1.64,0,2.9.51,3.76,1.53.86,1.02,1.29,2.45,1.29,4.28ZM322.94,75.75c0-1.2-.26-2.13-.79-2.78-.52-.65-1.36-.98-2.51-.98-.84,0-1.7.21-2.6.62-.9.41-1.73.88-2.51,1.4l-2.21,9.59c.66.35,1.28.62,1.88.79.59.17,1.32.26,2.16.26,1.04,0,1.97-.25,2.81-.76.83-.5,1.52-1.16,2.07-1.97.58-.85,1-1.79,1.29-2.83.28-1.04.42-2.15.42-3.35Z"/>
  <path class="cls-1" d="M337.01,87.16c-2.34,0-4.17-.55-5.5-1.65-1.33-1.1-2-2.71-2-4.83,0-3.1.98-5.75,2.93-7.97,1.96-2.21,4.38-3.32,7.26-3.32,1.92,0,3.38.48,4.4,1.43,1.02.95,1.53,2.29,1.53,4.02,0,.3-.04.78-.13,1.44-.09.66-.22,1.42-.42,2.29h-12.46c-.06.29-.1.58-.13.86-.03.28-.04.54-.04.79,0,1.42.43,2.54,1.3,3.35.87.81,2.1,1.22,3.69,1.22,1.11,0,2.25-.22,3.43-.65,1.17-.43,2.16-.92,2.96-1.47h.17l-.62,3.07c-.5.18-.96.35-1.36.5s-.92.3-1.54.45-1.18.27-1.66.35c-.48.08-1.09.12-1.81.12ZM342.7,76.48c.05-.29.09-.54.11-.74.02-.2.03-.42.03-.67,0-1.08-.3-1.92-.89-2.53-.59-.61-1.54-.91-2.84-.91-1.43,0-2.7.44-3.81,1.33-1.11.89-1.86,2.06-2.25,3.51h9.66Z"/>
  <path class="cls-1" d="M362.1,72.86h-.15c-.4-.1-.78-.17-1.13-.22-.35-.05-.77-.07-1.26-.07-.95,0-1.89.21-2.82.64-.93.43-1.83.94-2.68,1.54l-2.74,12.01h-2.87l3.86-16.91h2.87l-.57,2.5c1.34-.94,2.48-1.59,3.41-1.95.93-.36,1.83-.54,2.69-.54.49,0,.85.01,1.08.04.22.03.54.07.97.14l-.65,2.82Z"/>
  <path class="cls-1" d="M373.56,78.28h-9.45l.64-2.74h9.45l-.64,2.74Z"/>
  <path class="cls-1" d="M394.85,75.2c0,1.68-.26,3.25-.78,4.72-.52,1.47-1.21,2.72-2.07,3.75-.87,1.06-1.88,1.89-3.03,2.5-1.15.61-2.38.92-3.68.92-.91,0-1.74-.1-2.5-.31-.76-.21-1.46-.51-2.08-.9l-1.64,7.11h-2.84l5.35-23.14h2.84l-.41,1.77c.94-.66,1.86-1.19,2.77-1.61.91-.42,1.91-.63,3.01-.63,1.64,0,2.9.51,3.76,1.53.86,1.02,1.29,2.45,1.29,4.28ZM391.87,75.75c0-1.2-.26-2.13-.79-2.78-.52-.65-1.36-.98-2.51-.98-.84,0-1.7.21-2.6.62-.9.41-1.73.88-2.51,1.4l-2.21,9.59c.66.35,1.28.62,1.88.79.59.17,1.32.26,2.16.26,1.04,0,1.97-.25,2.81-.76.83-.5,1.52-1.16,2.07-1.97.58-.85,1-1.79,1.29-2.83.28-1.04.42-2.15.42-3.35Z"/>
  <path class="cls-1" d="M408.68,84.97c-.27.16-.64.39-1.11.69-.47.3-.95.55-1.43.76-.51.23-1.09.43-1.73.58-.64.16-1.37.23-2.2.23-1.34,0-2.43-.39-3.27-1.17-.84-.78-1.26-1.8-1.26-3.06,0-1.34.3-2.48.89-3.4.59-.92,1.47-1.68,2.63-2.26,1.14-.58,2.51-.99,4.12-1.25,1.61-.26,3.44-.42,5.5-.48.06-.28.12-.53.16-.73.04-.21.06-.42.06-.64,0-.48-.1-.88-.29-1.18-.19-.3-.46-.55-.82-.73-.35-.18-.77-.3-1.24-.37s-.99-.1-1.55-.1c-.86,0-1.84.14-2.94.42-1.1.28-1.99.55-2.68.82h-.15l.56-2.85c.58-.15,1.42-.32,2.53-.51,1.11-.19,2.17-.29,3.19-.29,2.1,0,3.67.33,4.72.98,1.05.66,1.57,1.7,1.57,3.12,0,.27-.02.56-.07.87-.04.31-.1.6-.16.87l-2.64,11.47h-2.82l.41-1.8ZM410.33,77.85c-1.55.06-2.93.18-4.14.36-1.21.18-2.2.43-2.99.76-.82.33-1.44.78-1.86,1.35-.42.57-.64,1.28-.64,2.13,0,.73.25,1.28.74,1.67.49.38,1.26.58,2.3.58.92,0,1.85-.2,2.81-.61.95-.41,1.84-.9,2.67-1.48l1.11-4.75Z"/>
  <path class="cls-1" d="M435.09,69.86l-3.44,15.03c-.67,2.87-1.76,4.96-3.27,6.29-1.52,1.33-3.63,1.99-6.33,1.99-.87,0-1.74-.07-2.62-.2-.88-.13-1.69-.31-2.43-.53l.65-2.83h.15c.57.25,1.33.49,2.29.73.96.23,1.86.35,2.71.35.96,0,1.77-.12,2.44-.37.67-.25,1.22-.58,1.66-1.01.42-.42.77-.92,1.04-1.48.27-.56.48-1.19.63-1.88l.34-1.48c-1.02.69-1.92,1.2-2.69,1.54-.78.34-1.77.51-2.98.51-1.64,0-2.93-.5-3.86-1.51-.93-1-1.39-2.42-1.39-4.25,0-1.46.24-2.88.72-4.26.48-1.38,1.15-2.6,2.01-3.67.84-1.04,1.84-1.87,3.02-2.5,1.18-.63,2.43-.94,3.78-.94.97,0,1.83.11,2.6.33.76.22,1.43.51,1.99.86l.35-.73h2.64ZM431.56,72.9c-.65-.33-1.31-.59-1.99-.78-.68-.19-1.37-.28-2.07-.28-.99,0-1.89.22-2.71.67-.81.45-1.51,1.07-2.1,1.87-.56.75-.99,1.65-1.3,2.7-.31,1.05-.46,2.11-.46,3.16,0,1.19.27,2.11.82,2.76.55.65,1.42.98,2.62.98.84,0,1.69-.18,2.55-.53.86-.35,1.7-.8,2.53-1.33l2.1-9.22Z"/>
  <path class="cls-1" d="M445.76,87.16c-2.34,0-4.17-.55-5.5-1.65-1.33-1.1-2-2.71-2-4.83,0-3.1.98-5.75,2.93-7.97,1.96-2.21,4.38-3.32,7.26-3.32,1.92,0,3.38.48,4.4,1.43,1.02.95,1.53,2.29,1.53,4.02,0,.3-.04.78-.13,1.44-.09.66-.22,1.42-.42,2.29h-12.46c-.06.29-.1.58-.13.86-.03.28-.04.54-.04.79,0,1.42.43,2.54,1.3,3.35.87.81,2.1,1.22,3.69,1.22,1.11,0,2.25-.22,3.43-.65,1.17-.43,2.16-.92,2.96-1.47h.17l-.62,3.07c-.5.18-.96.35-1.36.5s-.92.3-1.54.45-1.18.27-1.66.35c-.48.08-1.09.12-1.81.12ZM451.44,76.48c.05-.29.09-.54.11-.74.02-.2.03-.42.03-.67,0-1.08-.3-1.92-.89-2.53-.59-.61-1.54-.91-2.84-.91-1.43,0-2.7.44-3.81,1.33-1.11.89-1.86,2.06-2.25,3.51h9.66Z"/>
  <path class="cls-1" d="M482.7,72.86h-.15c-.4-.1-.78-.17-1.13-.22-.35-.05-.77-.07-1.26-.07-.95,0-1.89.21-2.82.64-.93.43-1.83.94-2.68,1.54l-2.74,12.01h-2.87l3.86-16.91h2.87l-.57,2.5c1.34-.94,2.48-1.59,3.41-1.95.93-.36,1.83-.54,2.69-.54.49,0,.85.01,1.08.04.22.03.54.07.97.14l-.65,2.82Z"/>
  <path class="cls-1" d="M493.97,84.97c-.27.16-.64.39-1.11.69-.47.3-.95.55-1.43.76-.51.23-1.09.43-1.73.58-.64.16-1.37.23-2.2.23-1.34,0-2.43-.39-3.27-1.17-.84-.78-1.26-1.8-1.26-3.06,0-1.34.3-2.48.89-3.4.59-.92,1.47-1.68,2.63-2.26,1.14-.58,2.51-.99,4.12-1.25,1.61-.26,3.44-.42,5.5-.48.06-.28.12-.53.16-.73.04-.21.06-.42.06-.64,0-.48-.1-.88-.29-1.18-.19-.3-.46-.55-.82-.73-.35-.18-.77-.3-1.24-.37s-.99-.1-1.55-.1c-.86,0-1.84.14-2.94.42-1.1.28-1.99.55-2.68.82h-.15l.56-2.85c.58-.15,1.42-.32,2.53-.51,1.11-.19,2.17-.29,3.19-.29,2.1,0,3.67.33,4.72.98,1.05.66,1.57,1.7,1.57,3.12,0,.27-.02.56-.07.87-.04.31-.1.6-.16.87l-2.64,11.47h-2.82l.41-1.8ZM495.62,77.85c-1.55.06-2.93.18-4.14.36-1.21.18-2.2.43-2.99.76-.82.33-1.44.78-1.86,1.35-.42.57-.64,1.28-.64,2.13,0,.73.25,1.28.74,1.67.49.38,1.26.58,2.3.58.92,0,1.85-.2,2.81-.61.95-.41,1.84-.9,2.67-1.48l1.11-4.75Z"/>
  <path class="cls-1" d="M515.5,69.86l-.51,2.3h-5.88l-1.81,7.8c-.1.4-.19.85-.27,1.36-.08.51-.12.92-.12,1.22,0,.74.19,1.29.56,1.64.37.36,1.06.54,2.07.54.41,0,.91-.07,1.47-.21.57-.14.96-.25,1.16-.33h.15l-.53,2.44c-.57.14-1.17.26-1.81.35s-1.21.14-1.7.14c-1.39,0-2.47-.31-3.23-.92-.76-.61-1.14-1.58-1.14-2.9,0-.32.02-.64.07-.96.04-.32.11-.68.19-1.08l2.1-9.08h-1.92l.52-2.3h1.94l1.12-4.86h2.86l-1.13,4.86h5.85Z"/>
  <path class="cls-1" d="M523.99,87.16c-2.34,0-4.17-.55-5.5-1.65-1.33-1.1-2-2.71-2-4.83,0-3.1.98-5.75,2.93-7.97,1.96-2.21,4.38-3.32,7.26-3.32,1.92,0,3.38.48,4.4,1.43,1.02.95,1.53,2.29,1.53,4.02,0,.3-.04.78-.13,1.44-.09.66-.22,1.42-.42,2.29h-12.46c-.06.29-.1.58-.13.86-.03.28-.04.54-.04.79,0,1.42.43,2.54,1.3,3.35.87.81,2.1,1.22,3.69,1.22,1.11,0,2.25-.22,3.43-.65,1.17-.43,2.16-.92,2.96-1.47h.17l-.62,3.07c-.5.18-.96.35-1.36.5s-.92.3-1.54.45-1.18.27-1.66.35c-.48.08-1.09.12-1.81.12ZM529.67,76.48c.05-.29.09-.54.11-.74.02-.2.03-.42.03-.67,0-1.08-.3-1.92-.89-2.53-.59-.61-1.54-.91-2.84-.91-1.43,0-2.7.44-3.81,1.33-1.11.89-1.86,2.06-2.25,3.51h9.66Z"/>
  <path class="cls-1" d="M540.7,87.18c-1.26,0-2.39-.16-3.38-.47s-1.82-.65-2.49-1.01l.63-3.04h.15c.21.18.49.4.82.64.34.25.77.49,1.29.73.47.23,1.02.43,1.63.6.61.17,1.26.25,1.96.25,1.42,0,2.54-.26,3.34-.79.81-.52,1.21-1.3,1.21-2.32,0-.53-.21-.95-.62-1.23-.41-.29-1.01-.52-1.79-.7-.39-.09-.87-.19-1.42-.3-.55-.11-1.11-.24-1.67-.39-1.18-.33-2.05-.81-2.62-1.45-.56-.63-.85-1.4-.85-2.31,0-.79.17-1.52.52-2.21.34-.69.85-1.32,1.53-1.89.65-.54,1.47-.99,2.47-1.32,1-.34,2.11-.51,3.33-.51,1.01,0,2.01.13,3.02.38,1,.25,1.82.57,2.46.94l-.61,2.91h-.15c-.16-.13-.41-.31-.73-.53-.33-.22-.74-.45-1.25-.68-.43-.19-.94-.36-1.52-.5-.58-.14-1.18-.21-1.81-.21-1.26,0-2.29.26-3.07.79-.79.53-1.18,1.25-1.18,2.17,0,.5.19.93.57,1.26.38.34.97.6,1.76.79.5.12,1.01.23,1.55.34.54.11,1.06.22,1.57.34,1.17.29,2.05.75,2.64,1.36.59.62.89,1.39.89,2.32,0,.78-.18,1.54-.55,2.28-.37.74-.9,1.38-1.6,1.93-.72.58-1.58,1.02-2.6,1.35s-2.16.48-3.44.48Z"/>
  <path class="cls-1" d="M557.19,86.77h-3.65l1-4.31h3.65l-1,4.31Z"/>
</svg>