<?xml version="1.0" encoding="UTF-8"?>
<svg id="Layer_1" data-name="Layer 1" xmlns="http://www.w3.org/2000/svg" viewBox="0 0 598.38 242.54">
  <defs>
    <style>
      .cls-1 {
        fill: #231f20;
      }

      .cls-1, .cls-2 {
        stroke-width: 0px;
      }

      .cls-2 {
        fill: #fbc531;
      }
    </style>
  </defs>
  <path class="cls-2" d="M57.15,11.09c.64-2.35,1.85-5.38,2.63-6.66l1.57-.17c-.62,1.65-1.34,4.54-1.65,6.55l-2.55.28ZM61.32,11.09c.62-2.35,1.85-5.38,2.6-6.66l1.57-.17c-.62,1.65-1.34,4.54-1.65,6.55l-2.52.28Z"/>
  <path class="cls-2" d="M72.1,23.44l-4.79-18.87h2.58l2.24,9.55c.56,2.35,1.06,4.7,1.4,6.52h.06c.31-1.88.9-4.12,1.54-6.55l2.52-9.52h2.55l2.3,9.58c.53,2.24,1.04,4.48,1.32,6.47h.06c.39-2.07.92-4.17,1.51-6.52l2.49-9.52h2.49l-5.35,18.87h-2.55l-2.38-9.83c-.59-2.41-.98-4.26-1.23-6.16h-.06c-.34,1.88-.76,3.72-1.46,6.16l-2.69,9.83h-2.55Z"/>
  <path class="cls-2" d="M93.07,17.11c.06,3.33,2.18,4.7,4.65,4.7,1.76,0,2.83-.31,3.75-.7l.42,1.76c-.87.39-2.35.84-4.51.84-4.17,0-6.66-2.74-6.66-6.83s2.41-7.31,6.36-7.31c4.42,0,5.6,3.89,5.6,6.38,0,.5-.06.9-.08,1.15h-9.52ZM100.3,15.34c.03-1.57-.64-4-3.42-4-2.49,0-3.58,2.3-3.78,4h7.2Z"/>
  <path class="cls-2" d="M119.17,23.44l-.2-1.71h-.08c-.76,1.06-2.21,2.02-4.14,2.02-2.74,0-4.14-1.93-4.14-3.89,0-3.28,2.91-5.07,8.15-5.04v-.28c0-1.12-.31-3.14-3.08-3.14-1.26,0-2.58.39-3.53,1.01l-.56-1.62c1.12-.73,2.74-1.2,4.45-1.2,4.14,0,5.15,2.83,5.15,5.54v5.07c0,1.18.06,2.32.22,3.25h-2.24ZM118.8,16.52c-2.69-.06-5.74.42-5.74,3.05,0,1.6,1.06,2.35,2.32,2.35,1.76,0,2.88-1.12,3.28-2.27.08-.25.14-.53.14-.78v-2.35Z"/>
  <path class="cls-2" d="M125.16,14.11c0-1.6-.03-2.97-.11-4.23h2.16l.08,2.66h.11c.62-1.82,2.1-2.97,3.75-2.97.28,0,.48.03.7.08v2.32c-.25-.06-.5-.08-.84-.08-1.74,0-2.97,1.32-3.3,3.16-.06.34-.11.73-.11,1.15v7.22h-2.44v-9.32Z"/>
  <path class="cls-2" d="M135.41,17.11c.06,3.33,2.18,4.7,4.65,4.7,1.76,0,2.83-.31,3.75-.7l.42,1.76c-.87.39-2.35.84-4.51.84-4.17,0-6.66-2.74-6.66-6.83s2.41-7.31,6.36-7.31c4.42,0,5.6,3.89,5.6,6.38,0,.5-.06.9-.08,1.15h-9.52ZM142.63,15.34c.03-1.57-.64-4-3.42-4-2.49,0-3.58,2.3-3.78,4h7.2Z"/>
  <path class="cls-2" d="M163.66,22.93c-.64.34-2.07.78-3.89.78-4.09,0-6.75-2.77-6.75-6.92s2.86-7.2,7.28-7.2c1.46,0,2.74.36,3.42.7l-.56,1.9c-.59-.34-1.51-.64-2.86-.64-3.11,0-4.79,2.3-4.79,5.12,0,3.14,2.02,5.07,4.7,5.07,1.4,0,2.32-.36,3.02-.67l.42,1.85Z"/>
  <path class="cls-2" d="M178.64,16.55c0,5.01-3.47,7.2-6.75,7.2-3.67,0-6.5-2.69-6.5-6.97,0-4.54,2.97-7.2,6.72-7.2s6.52,2.83,6.52,6.97ZM167.89,16.69c0,2.97,1.71,5.21,4.12,5.21s4.12-2.21,4.12-5.26c0-2.3-1.15-5.21-4.06-5.21s-4.17,2.69-4.17,5.26Z"/>
  <path class="cls-2" d="M181.75,13.55c0-1.4-.03-2.55-.11-3.67h2.16l.11,2.18h.08c.76-1.29,2.02-2.49,4.26-2.49,1.85,0,3.25,1.12,3.84,2.72h.06c.42-.76.95-1.34,1.51-1.76.81-.62,1.71-.95,3-.95,1.79,0,4.45,1.18,4.45,5.88v7.98h-2.41v-7.67c0-2.6-.95-4.17-2.94-4.17-1.4,0-2.49,1.04-2.91,2.24-.11.34-.2.78-.2,1.23v8.37h-2.41v-8.12c0-2.16-.95-3.72-2.83-3.72-1.54,0-2.66,1.23-3.05,2.46-.14.36-.2.78-.2,1.2v8.18h-2.41v-9.88Z"/>
  <path class="cls-2" d="M205.1,13.55c0-1.4-.03-2.55-.11-3.67h2.16l.11,2.18h.08c.76-1.29,2.02-2.49,4.26-2.49,1.85,0,3.25,1.12,3.84,2.72h.06c.42-.76.95-1.34,1.51-1.76.81-.62,1.71-.95,3-.95,1.79,0,4.45,1.18,4.45,5.88v7.98h-2.41v-7.67c0-2.6-.95-4.17-2.94-4.17-1.4,0-2.49,1.04-2.91,2.24-.11.34-.2.78-.2,1.23v8.37h-2.41v-8.12c0-2.16-.95-3.72-2.83-3.72-1.54,0-2.66,1.23-3.05,2.46-.14.36-.2.78-.2,1.2v8.18h-2.41v-9.88Z"/>
  <path class="cls-2" d="M231.19,6.08c.03.84-.59,1.51-1.57,1.51-.87,0-1.48-.67-1.48-1.51s.64-1.54,1.54-1.54,1.51.67,1.51,1.54ZM228.45,23.44v-13.55h2.46v13.55h-2.46Z"/>
  <path class="cls-2" d="M237.97,5.99v3.89h3.53v1.88h-3.53v7.31c0,1.68.48,2.63,1.85,2.63.64,0,1.12-.08,1.43-.17l.11,1.85c-.48.2-1.23.34-2.19.34-1.15,0-2.07-.36-2.66-1.04-.7-.73-.95-1.93-.95-3.53v-7.39h-2.1v-1.88h2.1v-3.25l2.41-.64Z"/>
  <path class="cls-2" d="M247.24,5.99v3.89h3.53v1.88h-3.53v7.31c0,1.68.48,2.63,1.85,2.63.64,0,1.12-.08,1.43-.17l.11,1.85c-.48.2-1.23.34-2.18.34-1.15,0-2.07-.36-2.66-1.04-.7-.73-.95-1.93-.95-3.53v-7.39h-2.1v-1.88h2.1v-3.25l2.41-.64Z"/>
  <path class="cls-2" d="M254.74,17.11c.06,3.33,2.18,4.7,4.65,4.7,1.76,0,2.83-.31,3.75-.7l.42,1.76c-.87.39-2.35.84-4.51.84-4.17,0-6.66-2.74-6.66-6.83s2.41-7.31,6.36-7.31c4.42,0,5.6,3.89,5.6,6.38,0,.5-.06.9-.08,1.15h-9.52ZM261.97,15.34c.03-1.57-.64-4-3.42-4-2.49,0-3.58,2.3-3.78,4h7.2Z"/>
  <path class="cls-2" d="M279.1,3.56v16.38c0,1.2.03,2.58.11,3.5h-2.21l-.11-2.35h-.06c-.76,1.51-2.41,2.66-4.62,2.66-3.28,0-5.8-2.77-5.8-6.89-.03-4.51,2.77-7.28,6.08-7.28,2.07,0,3.47.98,4.09,2.07h.06V3.56h2.46ZM276.64,15.4c0-.31-.03-.73-.11-1.04-.36-1.57-1.71-2.86-3.56-2.86-2.55,0-4.06,2.24-4.06,5.24,0,2.74,1.34,5.01,4,5.01,1.65,0,3.16-1.09,3.61-2.94.08-.34.11-.67.11-1.06v-2.35Z"/>
  <path class="cls-2" d="M292.09,5.99v3.89h3.53v1.88h-3.53v7.31c0,1.68.48,2.63,1.85,2.63.64,0,1.12-.08,1.43-.17l.11,1.85c-.48.2-1.23.34-2.18.34-1.15,0-2.07-.36-2.66-1.04-.7-.73-.95-1.93-.95-3.53v-7.39h-2.1v-1.88h2.1v-3.25l2.41-.64Z"/>
  <path class="cls-2" d="M310.49,16.55c0,5.01-3.47,7.2-6.75,7.2-3.67,0-6.5-2.69-6.5-6.97,0-4.54,2.97-7.2,6.72-7.2s6.52,2.83,6.52,6.97ZM299.74,16.69c0,2.97,1.71,5.21,4.12,5.21s4.12-2.21,4.12-5.26c0-2.3-1.15-5.21-4.06-5.21s-4.17,2.69-4.17,5.26Z"/>
  <path class="cls-2" d="M331.24,3.56v16.38c0,1.2.03,2.58.11,3.5h-2.21l-.11-2.35h-.06c-.76,1.51-2.41,2.66-4.62,2.66-3.28,0-5.8-2.77-5.8-6.89-.03-4.51,2.77-7.28,6.08-7.28,2.07,0,3.47.98,4.09,2.07h.06V3.56h2.46ZM328.77,15.4c0-.31-.03-.73-.11-1.04-.36-1.57-1.71-2.86-3.56-2.86-2.55,0-4.06,2.24-4.06,5.24,0,2.74,1.34,5.01,4,5.01,1.65,0,3.16-1.09,3.61-2.94.08-.34.11-.67.11-1.06v-2.35Z"/>
  <path class="cls-2" d="M336.7,17.11c.06,3.33,2.18,4.7,4.65,4.7,1.76,0,2.83-.31,3.75-.7l.42,1.76c-.87.39-2.35.84-4.51.84-4.17,0-6.66-2.74-6.66-6.83s2.41-7.31,6.36-7.31c4.42,0,5.6,3.89,5.6,6.38,0,.5-.06.9-.08,1.15h-9.52ZM343.92,15.34c.03-1.57-.64-4-3.42-4-2.49,0-3.58,2.3-3.78,4h7.2Z"/>
  <path class="cls-2" d="M349.35,3.56h2.46v19.88h-2.46V3.56Z"/>
  <path class="cls-2" d="M358.7,6.08c.03.84-.59,1.51-1.57,1.51-.87,0-1.48-.67-1.48-1.51s.64-1.54,1.54-1.54,1.51.67,1.51,1.54ZM355.96,23.44v-13.55h2.46v13.55h-2.46Z"/>
  <path class="cls-2" d="M363.46,9.88l2.66,7.62c.45,1.23.81,2.35,1.09,3.47h.08c.31-1.12.7-2.24,1.15-3.47l2.63-7.62h2.58l-5.32,13.55h-2.35l-5.15-13.55h2.63Z"/>
  <path class="cls-2" d="M377.07,17.11c.06,3.33,2.18,4.7,4.65,4.7,1.76,0,2.83-.31,3.75-.7l.42,1.76c-.87.39-2.35.84-4.51.84-4.17,0-6.66-2.74-6.66-6.83s2.41-7.31,6.36-7.31c4.42,0,5.6,3.89,5.6,6.38,0,.5-.06.9-.08,1.15h-9.52ZM384.29,15.34c.03-1.57-.64-4-3.42-4-2.49,0-3.58,2.3-3.78,4h7.2Z"/>
  <path class="cls-2" d="M389.73,14.11c0-1.6-.03-2.97-.11-4.23h2.16l.08,2.66h.11c.62-1.82,2.1-2.97,3.75-2.97.28,0,.48.03.7.08v2.32c-.25-.06-.5-.08-.84-.08-1.74,0-2.97,1.32-3.3,3.16-.06.34-.11.73-.11,1.15v7.22h-2.44v-9.32Z"/>
  <path class="cls-2" d="M401.74,6.08c.03.84-.59,1.51-1.57,1.51-.87,0-1.48-.67-1.48-1.51s.64-1.54,1.54-1.54,1.51.67,1.51,1.54ZM398.99,23.44v-13.55h2.46v13.55h-2.46Z"/>
  <path class="cls-2" d="M405.55,13.55c0-1.4-.03-2.55-.11-3.67h2.18l.14,2.24h.06c.67-1.29,2.24-2.55,4.48-2.55,1.88,0,4.79,1.12,4.79,5.77v8.09h-2.46v-7.81c0-2.18-.81-4-3.14-4-1.62,0-2.88,1.15-3.3,2.52-.11.31-.17.73-.17,1.15v8.15h-2.46v-9.88Z"/>
  <path class="cls-2" d="M432.76,9.88c-.06.98-.11,2.07-.11,3.72v7.87c0,3.11-.62,5.01-1.93,6.19-1.32,1.23-3.22,1.62-4.93,1.62s-3.42-.39-4.51-1.12l.62-1.88c.9.56,2.3,1.06,3.98,1.06,2.52,0,4.37-1.32,4.37-4.73v-1.51h-.06c-.76,1.26-2.21,2.27-4.31,2.27-3.36,0-5.77-2.86-5.77-6.61,0-4.59,3-7.2,6.1-7.2,2.35,0,3.64,1.23,4.23,2.35h.06l.11-2.04h2.16ZM430.21,15.23c0-.42-.03-.78-.14-1.12-.45-1.43-1.65-2.6-3.44-2.6-2.35,0-4.03,1.99-4.03,5.12,0,2.66,1.34,4.87,4,4.87,1.51,0,2.88-.95,3.42-2.52.14-.42.2-.9.2-1.32v-2.44Z"/>
  <path class="cls-2" d="M450.18,23.44l-.2-1.71h-.08c-.76,1.06-2.21,2.02-4.14,2.02-2.74,0-4.14-1.93-4.14-3.89,0-3.28,2.91-5.07,8.15-5.04v-.28c0-1.12-.31-3.14-3.08-3.14-1.26,0-2.58.39-3.53,1.01l-.56-1.62c1.12-.73,2.74-1.2,4.45-1.2,4.14,0,5.15,2.83,5.15,5.54v5.07c0,1.18.06,2.32.22,3.25h-2.24ZM449.81,16.52c-2.69-.06-5.74.42-5.74,3.05,0,1.6,1.06,2.35,2.32,2.35,1.76,0,2.88-1.12,3.28-2.27.08-.25.14-.53.14-.78v-2.35Z"/>
  <path class="cls-2" d="M461.77,20.92c.73.48,2.02.98,3.25.98,1.79,0,2.63-.9,2.63-2.02,0-1.18-.7-1.82-2.52-2.49-2.44-.87-3.58-2.21-3.58-3.84,0-2.18,1.76-3.98,4.68-3.98,1.37,0,2.58.39,3.33.84l-.62,1.79c-.53-.34-1.51-.78-2.77-.78-1.46,0-2.27.84-2.27,1.85,0,1.12.81,1.62,2.58,2.3,2.35.9,3.56,2.07,3.56,4.09,0,2.38-1.85,4.06-5.07,4.06-1.48,0-2.86-.36-3.81-.92l.62-1.88Z"/>
  <path class="cls-2" d="M474.56,17.11c.06,3.33,2.18,4.7,4.65,4.7,1.76,0,2.83-.31,3.75-.7l.42,1.76c-.87.39-2.35.84-4.51.84-4.17,0-6.66-2.74-6.66-6.83s2.41-7.31,6.36-7.31c4.42,0,5.6,3.89,5.6,6.38,0,.5-.06.9-.08,1.15h-9.52ZM481.79,15.34c.03-1.57-.64-4-3.42-4-2.49,0-3.58,2.3-3.78,4h7.2Z"/>
  <path class="cls-2" d="M496.88,22.93c-.64.34-2.07.78-3.89.78-4.09,0-6.75-2.77-6.75-6.92s2.86-7.2,7.28-7.2c1.46,0,2.74.36,3.42.7l-.56,1.9c-.59-.34-1.51-.64-2.86-.64-3.11,0-4.79,2.3-4.79,5.12,0,3.14,2.02,5.07,4.7,5.07,1.4,0,2.32-.36,3.02-.67l.42,1.85Z"/>
  <path class="cls-2" d="M511.1,19.74c0,1.4.03,2.63.11,3.7h-2.18l-.14-2.21h-.06c-.64,1.09-2.07,2.52-4.48,2.52-2.13,0-4.68-1.18-4.68-5.94v-7.92h2.46v7.5c0,2.58.78,4.31,3.02,4.31,1.65,0,2.8-1.15,3.25-2.24.14-.36.22-.81.22-1.26v-8.32h2.46v9.86Z"/>
  <path class="cls-2" d="M515.19,14.11c0-1.6-.03-2.97-.11-4.23h2.16l.08,2.66h.11c.62-1.82,2.1-2.97,3.75-2.97.28,0,.48.03.7.08v2.32c-.25-.06-.5-.08-.84-.08-1.74,0-2.97,1.32-3.3,3.16-.06.34-.11.73-.11,1.15v7.22h-2.44v-9.32Z"/>
  <path class="cls-2" d="M525.44,17.11c.06,3.33,2.18,4.7,4.65,4.7,1.76,0,2.83-.31,3.75-.7l.42,1.76c-.87.39-2.35.84-4.51.84-4.17,0-6.66-2.74-6.66-6.83s2.41-7.31,6.36-7.31c4.42,0,5.6,3.89,5.6,6.38,0,.5-.06.9-.08,1.15h-9.52ZM532.66,15.34c.03-1.57-.64-4-3.42-4-2.49,0-3.58,2.3-3.78,4h7.2Z"/>
  <path class="cls-2" d="M536.16,26.88c.62-1.65,1.37-4.65,1.68-6.69l2.74-.28c-.64,2.38-1.88,5.49-2.66,6.8l-1.76.17Z"/>
  <path class="cls-2" d="M17.81,50.92c.73.48,2.02.98,3.25.98,1.79,0,2.63-.9,2.63-2.02,0-1.18-.7-1.82-2.52-2.49-2.44-.87-3.58-2.21-3.58-3.84,0-2.18,1.76-3.98,4.68-3.98,1.37,0,2.58.39,3.33.84l-.62,1.79c-.53-.34-1.51-.78-2.77-.78-1.46,0-2.27.84-2.27,1.85,0,1.12.81,1.62,2.58,2.3,2.35.9,3.56,2.07,3.56,4.09,0,2.38-1.85,4.06-5.07,4.06-1.48,0-2.86-.36-3.81-.92l.62-1.88Z"/>
  <path class="cls-2" d="M32.2,35.99v3.89h3.53v1.88h-3.53v7.31c0,1.68.48,2.63,1.85,2.63.64,0,1.12-.08,1.43-.17l.11,1.85c-.48.2-1.23.34-2.18.34-1.15,0-2.07-.36-2.66-1.04-.7-.73-.95-1.93-.95-3.53v-7.39h-2.1v-1.88h2.1v-3.25l2.41-.64Z"/>
  <path class="cls-2" d="M38.5,44.11c0-1.6-.03-2.97-.11-4.23h2.16l.08,2.66h.11c.62-1.82,2.1-2.97,3.75-2.97.28,0,.48.03.7.08v2.32c-.25-.06-.5-.08-.84-.08-1.74,0-2.97,1.32-3.3,3.16-.06.34-.11.73-.11,1.15v7.22h-2.44v-9.32Z"/>
  <path class="cls-2" d="M48.75,47.11c.06,3.33,2.18,4.7,4.65,4.7,1.76,0,2.83-.31,3.75-.7l.42,1.76c-.87.39-2.35.84-4.51.84-4.17,0-6.66-2.74-6.66-6.83s2.41-7.31,6.36-7.31c4.42,0,5.6,3.89,5.6,6.38,0,.5-.06.9-.08,1.15h-9.52ZM55.97,45.34c.03-1.57-.64-4-3.42-4-2.49,0-3.58,2.3-3.78,4h7.2Z"/>
  <path class="cls-2" d="M68.91,53.44l-.2-1.71h-.08c-.76,1.06-2.21,2.02-4.14,2.02-2.74,0-4.14-1.93-4.14-3.89,0-3.28,2.91-5.07,8.15-5.04v-.28c0-1.12-.31-3.14-3.08-3.14-1.26,0-2.58.39-3.53,1.01l-.56-1.62c1.12-.73,2.74-1.2,4.45-1.2,4.14,0,5.15,2.83,5.15,5.54v5.07c0,1.18.06,2.32.22,3.25h-2.24ZM68.55,46.52c-2.69-.06-5.74.42-5.74,3.05,0,1.6,1.06,2.35,2.32,2.35,1.76,0,2.88-1.12,3.28-2.27.08-.25.14-.53.14-.78v-2.35Z"/>
  <path class="cls-2" d="M74.9,43.55c0-1.4-.03-2.55-.11-3.67h2.16l.11,2.18h.08c.76-1.29,2.02-2.49,4.26-2.49,1.85,0,3.25,1.12,3.84,2.72h.06c.42-.76.95-1.34,1.51-1.76.81-.62,1.71-.95,3-.95,1.79,0,4.45,1.18,4.45,5.88v7.98h-2.41v-7.67c0-2.6-.95-4.17-2.94-4.17-1.4,0-2.49,1.04-2.91,2.24-.11.34-.2.78-.2,1.23v8.37h-2.41v-8.12c0-2.16-.95-3.72-2.83-3.72-1.54,0-2.66,1.23-3.05,2.46-.14.36-.2.78-.2,1.2v8.18h-2.41v-9.88Z"/>
  <path class="cls-2" d="M98.25,33.56h2.46v19.88h-2.46v-19.88Z"/>
  <path class="cls-2" d="M107.6,36.08c.03.84-.59,1.51-1.57,1.51-.87,0-1.48-.67-1.48-1.51s.64-1.54,1.54-1.54,1.51.67,1.51,1.54ZM104.86,53.44v-13.55h2.46v13.55h-2.46Z"/>
  <path class="cls-2" d="M111.41,43.55c0-1.4-.03-2.55-.11-3.67h2.18l.14,2.24h.06c.67-1.29,2.24-2.55,4.48-2.55,1.88,0,4.79,1.12,4.79,5.77v8.09h-2.46v-7.81c0-2.18-.81-4-3.14-4-1.62,0-2.88,1.15-3.3,2.52-.11.31-.17.73-.17,1.15v8.15h-2.46v-9.88Z"/>
  <path class="cls-2" d="M128.32,47.11c.06,3.33,2.18,4.7,4.65,4.7,1.76,0,2.83-.31,3.75-.7l.42,1.76c-.87.39-2.35.84-4.51.84-4.17,0-6.66-2.74-6.66-6.83s2.41-7.31,6.36-7.31c4.42,0,5.6,3.89,5.6,6.38,0,.5-.06.9-.08,1.15h-9.52ZM135.55,45.34c.03-1.57-.64-4-3.42-4-2.49,0-3.58,2.3-3.78,4h7.2Z"/>
  <path class="cls-2" d="M152.68,33.56v16.38c0,1.2.03,2.58.11,3.5h-2.21l-.11-2.35h-.06c-.76,1.51-2.41,2.66-4.62,2.66-3.28,0-5.8-2.77-5.8-6.89-.03-4.51,2.77-7.28,6.08-7.28,2.07,0,3.47.98,4.09,2.07h.06v-8.09h2.46ZM150.22,45.4c0-.31-.03-.73-.11-1.04-.36-1.57-1.71-2.86-3.56-2.86-2.55,0-4.06,2.24-4.06,5.24,0,2.74,1.34,5.01,4,5.01,1.65,0,3.16-1.09,3.61-2.94.08-.34.11-.67.11-1.06v-2.35Z"/>
  <path class="cls-2" d="M154.9,56.88c.62-1.65,1.37-4.65,1.68-6.69l2.74-.28c-.64,2.38-1.88,5.49-2.66,6.8l-1.76.17Z"/>
  <path class="cls-2" d="M175.73,53.44l-.2-1.71h-.08c-.76,1.06-2.21,2.02-4.14,2.02-2.74,0-4.14-1.93-4.14-3.89,0-3.28,2.91-5.07,8.15-5.04v-.28c0-1.12-.31-3.14-3.08-3.14-1.26,0-2.58.39-3.53,1.01l-.56-1.62c1.12-.73,2.74-1.2,4.45-1.2,4.14,0,5.15,2.83,5.15,5.54v5.07c0,1.18.06,2.32.22,3.25h-2.24ZM175.36,46.52c-2.69-.06-5.74.42-5.74,3.05,0,1.6,1.06,2.35,2.32,2.35,1.76,0,2.88-1.12,3.28-2.27.08-.25.14-.53.14-.78v-2.35Z"/>
  <path class="cls-2" d="M181.72,43.55c0-1.4-.03-2.55-.11-3.67h2.18l.14,2.24h.06c.67-1.29,2.24-2.55,4.48-2.55,1.88,0,4.79,1.12,4.79,5.77v8.09h-2.46v-7.81c0-2.18-.81-4-3.14-4-1.62,0-2.88,1.15-3.3,2.52-.11.31-.17.73-.17,1.15v8.15h-2.46v-9.88Z"/>
  <path class="cls-2" d="M208.96,33.56v16.38c0,1.2.03,2.58.11,3.5h-2.21l-.11-2.35h-.06c-.76,1.51-2.41,2.66-4.62,2.66-3.28,0-5.8-2.77-5.8-6.89-.03-4.51,2.77-7.28,6.08-7.28,2.07,0,3.47.98,4.09,2.07h.06v-8.09h2.46ZM206.5,45.4c0-.31-.03-.73-.11-1.04-.36-1.57-1.71-2.86-3.56-2.86-2.55,0-4.06,2.24-4.06,5.24,0,2.74,1.34,5.01,4,5.01,1.65,0,3.16-1.09,3.61-2.94.08-.34.11-.67.11-1.06v-2.35Z"/>
  <path class="cls-2" d="M218.99,44.31c0-1.74-.06-3.14-.11-4.42h2.21l.11,2.32h.06c1.01-1.65,2.6-2.63,4.82-2.63,3.28,0,5.74,2.77,5.74,6.89,0,4.87-2.97,7.28-6.16,7.28-1.79,0-3.36-.78-4.17-2.13h-.06v7.36h-2.44v-14.67ZM221.42,47.92c0,.36.06.7.11,1.01.45,1.71,1.93,2.88,3.7,2.88,2.6,0,4.12-2.13,4.12-5.24,0-2.72-1.43-5.04-4.03-5.04-1.68,0-3.25,1.2-3.72,3.05-.08.31-.17.67-.17,1.01v2.32Z"/>
  <path class="cls-2" d="M236.29,47.11c.06,3.33,2.18,4.7,4.65,4.7,1.76,0,2.83-.31,3.75-.7l.42,1.76c-.87.39-2.35.84-4.51.84-4.17,0-6.66-2.74-6.66-6.83s2.41-7.31,6.36-7.31c4.42,0,5.6,3.89,5.6,6.38,0,.5-.06.9-.08,1.15h-9.52ZM243.51,45.34c.03-1.57-.64-4-3.42-4-2.49,0-3.58,2.3-3.78,4h7.2Z"/>
  <path class="cls-2" d="M248.95,44.11c0-1.6-.03-2.97-.11-4.23h2.16l.08,2.66h.11c.62-1.82,2.1-2.97,3.75-2.97.28,0,.48.03.7.08v2.32c-.25-.06-.5-.08-.84-.08-1.74,0-2.97,1.32-3.3,3.16-.06.34-.11.73-.11,1.15v7.22h-2.44v-9.32Z"/>
  <path class="cls-2" d="M257.77,50.92c.73.48,2.02.98,3.25.98,1.79,0,2.63-.9,2.63-2.02,0-1.18-.7-1.82-2.52-2.49-2.44-.87-3.58-2.21-3.58-3.84,0-2.18,1.76-3.98,4.68-3.98,1.37,0,2.58.39,3.33.84l-.62,1.79c-.53-.34-1.51-.78-2.77-.78-1.46,0-2.27.84-2.27,1.85,0,1.12.81,1.62,2.58,2.3,2.35.9,3.56,2.07,3.56,4.09,0,2.38-1.85,4.06-5.07,4.06-1.48,0-2.86-.36-3.81-.92l.62-1.88Z"/>
  <path class="cls-2" d="M281.45,46.55c0,5.01-3.47,7.2-6.75,7.2-3.67,0-6.5-2.69-6.5-6.97,0-4.54,2.97-7.2,6.72-7.2s6.52,2.83,6.52,6.97ZM270.7,46.69c0,2.97,1.71,5.21,4.12,5.21s4.12-2.21,4.12-5.26c0-2.3-1.15-5.21-4.06-5.21s-4.17,2.69-4.17,5.26Z"/>
  <path class="cls-2" d="M284.56,43.55c0-1.4-.03-2.55-.11-3.67h2.18l.14,2.24h.06c.67-1.29,2.24-2.55,4.48-2.55,1.88,0,4.79,1.12,4.79,5.77v8.09h-2.46v-7.81c0-2.18-.81-4-3.14-4-1.62,0-2.88,1.15-3.3,2.52-.11.31-.17.73-.17,1.15v8.15h-2.46v-9.88Z"/>
  <path class="cls-2" d="M307.61,53.44l-.2-1.71h-.08c-.76,1.06-2.21,2.02-4.14,2.02-2.74,0-4.14-1.93-4.14-3.89,0-3.28,2.91-5.07,8.15-5.04v-.28c0-1.12-.31-3.14-3.08-3.14-1.26,0-2.58.39-3.53,1.01l-.56-1.62c1.12-.73,2.74-1.2,4.45-1.2,4.14,0,5.15,2.83,5.15,5.54v5.07c0,1.18.06,2.32.22,3.25h-2.24ZM307.24,46.52c-2.69-.06-5.74.42-5.74,3.05,0,1.6,1.06,2.35,2.32,2.35,1.76,0,2.88-1.12,3.28-2.27.08-.25.14-.53.14-.78v-2.35Z"/>
  <path class="cls-2" d="M313.6,33.56h2.46v19.88h-2.46v-19.88Z"/>
  <path class="cls-2" d="M322.95,36.08c.03.84-.59,1.51-1.57,1.51-.87,0-1.48-.67-1.48-1.51s.64-1.54,1.54-1.54,1.51.67,1.51,1.54ZM320.21,53.44v-13.55h2.46v13.55h-2.46Z"/>
  <path class="cls-2" d="M326.42,50.92c.73.48,2.02.98,3.25.98,1.79,0,2.63-.9,2.63-2.02,0-1.18-.7-1.82-2.52-2.49-2.44-.87-3.58-2.21-3.58-3.84,0-2.18,1.76-3.98,4.68-3.98,1.37,0,2.58.39,3.33.84l-.62,1.79c-.53-.34-1.51-.78-2.77-.78-1.46,0-2.27.84-2.27,1.85,0,1.12.81,1.62,2.58,2.3,2.35.9,3.56,2.07,3.56,4.09,0,2.38-1.85,4.06-5.07,4.06-1.48,0-2.86-.36-3.81-.92l.62-1.88Z"/>
  <path class="cls-2" d="M339.22,47.11c.06,3.33,2.18,4.7,4.65,4.7,1.76,0,2.83-.31,3.75-.7l.42,1.76c-.87.39-2.35.84-4.51.84-4.17,0-6.66-2.74-6.66-6.83s2.41-7.31,6.36-7.31c4.42,0,5.6,3.89,5.6,6.38,0,.5-.06.9-.08,1.15h-9.52ZM346.44,45.34c.03-1.57-.64-4-3.42-4-2.49,0-3.58,2.3-3.78,4h7.2Z"/>
  <path class="cls-2" d="M363.58,33.56v16.38c0,1.2.03,2.58.11,3.5h-2.21l-.11-2.35h-.06c-.76,1.51-2.41,2.66-4.62,2.66-3.28,0-5.8-2.77-5.8-6.89-.03-4.51,2.77-7.28,6.08-7.28,2.07,0,3.47.98,4.09,2.07h.06v-8.09h2.46ZM361.11,45.4c0-.31-.03-.73-.11-1.04-.36-1.57-1.71-2.86-3.56-2.86-2.55,0-4.06,2.24-4.06,5.24,0,2.74,1.34,5.01,4,5.01,1.65,0,3.16-1.09,3.61-2.94.08-.34.11-.67.11-1.06v-2.35Z"/>
  <path class="cls-2" d="M373.26,50.92c.73.48,2.02.98,3.25.98,1.79,0,2.63-.9,2.63-2.02,0-1.18-.7-1.82-2.52-2.49-2.44-.87-3.58-2.21-3.58-3.84,0-2.18,1.76-3.98,4.68-3.98,1.37,0,2.58.39,3.33.84l-.62,1.79c-.53-.34-1.51-.78-2.77-.78-1.46,0-2.27.84-2.27,1.85,0,1.12.81,1.62,2.58,2.3,2.35.9,3.56,2.07,3.56,4.09,0,2.38-1.85,4.06-5.07,4.06-1.48,0-2.86-.36-3.81-.92l.62-1.88Z"/>
  <path class="cls-2" d="M386.06,47.11c.06,3.33,2.18,4.7,4.65,4.7,1.76,0,2.83-.31,3.75-.7l.42,1.76c-.87.39-2.35.84-4.51.84-4.17,0-6.66-2.74-6.66-6.83s2.41-7.31,6.36-7.31c4.42,0,5.6,3.89,5.6,6.38,0,.5-.06.9-.08,1.15h-9.52ZM393.28,45.34c.03-1.57-.64-4-3.42-4-2.49,0-3.58,2.3-3.78,4h7.2Z"/>
  <path class="cls-2" d="M398.72,44.11c0-1.6-.03-2.97-.11-4.23h2.16l.08,2.66h.11c.62-1.82,2.1-2.97,3.75-2.97.28,0,.48.03.7.08v2.32c-.25-.06-.5-.08-.84-.08-1.74,0-2.97,1.32-3.3,3.16-.06.34-.11.73-.11,1.15v7.22h-2.44v-9.32Z"/>
  <path class="cls-2" d="M409.52,39.88l2.66,7.62c.45,1.23.81,2.35,1.09,3.47h.08c.31-1.12.7-2.24,1.15-3.47l2.63-7.62h2.58l-5.32,13.55h-2.35l-5.15-13.55h2.63Z"/>
  <path class="cls-2" d="M424.78,36.08c.03.84-.59,1.51-1.57,1.51-.87,0-1.48-.67-1.48-1.51s.64-1.54,1.54-1.54,1.51.67,1.51,1.54ZM422.04,53.44v-13.55h2.46v13.55h-2.46Z"/>
  <path class="cls-2" d="M438.25,52.93c-.64.34-2.07.78-3.89.78-4.09,0-6.75-2.77-6.75-6.92s2.86-7.2,7.28-7.2c1.46,0,2.74.36,3.42.7l-.56,1.9c-.59-.34-1.51-.64-2.86-.64-3.11,0-4.79,2.3-4.79,5.12,0,3.14,2.02,5.07,4.7,5.07,1.4,0,2.32-.36,3.02-.67l.42,1.85Z"/>
  <path class="cls-2" d="M442.34,47.11c.06,3.33,2.18,4.7,4.65,4.7,1.76,0,2.83-.31,3.75-.7l.42,1.76c-.87.39-2.35.84-4.51.84-4.17,0-6.66-2.74-6.66-6.83s2.41-7.31,6.36-7.31c4.42,0,5.6,3.89,5.6,6.38,0,.5-.06.9-.08,1.15h-9.52ZM449.56,45.34c.03-1.57-.64-4-3.42-4-2.49,0-3.58,2.3-3.78,4h7.2Z"/>
  <path class="cls-2" d="M461.91,39.88l1.79,6.89c.39,1.51.76,2.91,1.01,4.31h.08c.31-1.37.76-2.83,1.2-4.28l2.21-6.92h2.07l2.1,6.78c.5,1.62.9,3.05,1.2,4.42h.08c.22-1.37.59-2.8,1.04-4.4l1.93-6.8h2.44l-4.37,13.55h-2.24l-2.07-6.47c-.48-1.51-.87-2.86-1.2-4.45h-.06c-.34,1.62-.76,3.02-1.23,4.48l-2.18,6.44h-2.24l-4.09-13.55h2.52Z"/>
  <path class="cls-2" d="M481.54,33.56h2.46v8.46h.06c.39-.7,1.01-1.32,1.76-1.74.73-.42,1.6-.7,2.52-.7,1.82,0,4.73,1.12,4.73,5.8v8.06h-2.46v-7.78c0-2.18-.81-4.03-3.14-4.03-1.6,0-2.86,1.12-3.3,2.46-.14.34-.17.7-.17,1.18v8.18h-2.46v-19.88Z"/>
  <path class="cls-2" d="M498.45,47.11c.06,3.33,2.18,4.7,4.65,4.7,1.76,0,2.83-.31,3.75-.7l.42,1.76c-.87.39-2.35.84-4.51.84-4.17,0-6.66-2.74-6.66-6.83s2.41-7.31,6.36-7.31c4.42,0,5.6,3.89,5.6,6.38,0,.5-.06.9-.08,1.15h-9.52ZM505.67,45.34c.03-1.57-.64-4-3.42-4-2.49,0-3.58,2.3-3.78,4h7.2Z"/>
  <path class="cls-2" d="M511.11,44.11c0-1.6-.03-2.97-.11-4.23h2.16l.08,2.66h.11c.62-1.82,2.1-2.97,3.75-2.97.28,0,.48.03.7.08v2.32c-.25-.06-.5-.08-.84-.08-1.74,0-2.97,1.32-3.3,3.16-.06.34-.11.73-.11,1.15v7.22h-2.44v-9.32Z"/>
  <path class="cls-2" d="M521.35,47.11c.06,3.33,2.18,4.7,4.65,4.7,1.76,0,2.83-.31,3.75-.7l.42,1.76c-.87.39-2.35.84-4.51.84-4.17,0-6.66-2.74-6.66-6.83s2.41-7.31,6.36-7.31c4.42,0,5.6,3.89,5.6,6.38,0,.5-.06.9-.08,1.15h-9.52ZM528.58,45.34c.03-1.57-.64-4-3.42-4-2.49,0-3.58,2.3-3.78,4h7.2Z"/>
  <path class="cls-2" d="M540.84,39.88l2.97,8.01c.31.9.64,1.96.87,2.77h.06c.25-.81.53-1.85.87-2.83l2.69-7.95h2.6l-3.7,9.66c-1.76,4.65-2.97,7.03-4.65,8.48-1.2,1.06-2.41,1.48-3.02,1.6l-.62-2.07c.62-.2,1.43-.59,2.16-1.2.67-.53,1.51-1.48,2.07-2.74.11-.25.2-.45.2-.59s-.06-.34-.17-.64l-5.01-12.49h2.69Z"/>
  <path class="cls-2" d="M565.12,46.55c0,5.01-3.47,7.2-6.75,7.2-3.67,0-6.5-2.69-6.5-6.97,0-4.54,2.97-7.2,6.72-7.2s6.52,2.83,6.52,6.97ZM554.36,46.69c0,2.97,1.71,5.21,4.12,5.21s4.12-2.21,4.12-5.26c0-2.3-1.15-5.21-4.06-5.21s-4.17,2.69-4.17,5.26Z"/>
  <path class="cls-2" d="M579.56,49.74c0,1.4.03,2.63.11,3.7h-2.18l-.14-2.21h-.06c-.64,1.09-2.07,2.52-4.48,2.52-2.13,0-4.68-1.18-4.68-5.94v-7.92h2.46v7.5c0,2.58.78,4.31,3.02,4.31,1.65,0,2.8-1.15,3.25-2.24.14-.36.22-.81.22-1.26v-8.32h2.46v9.86Z"/>
  <path class="cls-2" d="M7.31,74.31c0-1.74-.06-3.14-.11-4.42h2.21l.11,2.32h.06c1.01-1.65,2.6-2.63,4.82-2.63,3.28,0,5.74,2.77,5.74,6.89,0,4.87-2.97,7.28-6.16,7.28-1.79,0-3.36-.78-4.17-2.13h-.06v7.36h-2.44v-14.67ZM9.75,77.92c0,.36.06.7.11,1.01.45,1.71,1.93,2.88,3.7,2.88,2.6,0,4.12-2.13,4.12-5.24,0-2.72-1.43-5.04-4.03-5.04-1.68,0-3.25,1.2-3.72,3.05-.08.31-.17.67-.17,1.01v2.32Z"/>
  <path class="cls-2" d="M30.75,83.44l-.2-1.71h-.08c-.76,1.06-2.21,2.02-4.14,2.02-2.74,0-4.14-1.93-4.14-3.89,0-3.28,2.91-5.07,8.15-5.04v-.28c0-1.12-.31-3.14-3.08-3.14-1.26,0-2.58.39-3.53,1.01l-.56-1.62c1.12-.73,2.74-1.2,4.45-1.2,4.14,0,5.15,2.83,5.15,5.54v5.07c0,1.18.06,2.32.22,3.25h-2.24ZM30.38,76.52c-2.69-.06-5.74.42-5.74,3.05,0,1.6,1.06,2.35,2.32,2.35,1.76,0,2.88-1.12,3.28-2.27.08-.25.14-.53.14-.78v-2.35Z"/>
  <path class="cls-2" d="M37.41,69.88l2.97,8.01c.31.9.64,1.96.87,2.77h.06c.25-.81.53-1.85.87-2.83l2.69-7.95h2.6l-3.7,9.66c-1.76,4.65-2.97,7.03-4.65,8.48-1.2,1.06-2.41,1.48-3.02,1.6l-.62-2.07c.62-.2,1.43-.59,2.16-1.2.67-.53,1.51-1.48,2.07-2.74.11-.25.2-.45.2-.59s-.06-.34-.17-.64l-5.01-12.49h2.69Z"/>
  <path class="cls-2" d="M63.14,83.44l-.2-1.71h-.08c-.76,1.06-2.21,2.02-4.14,2.02-2.74,0-4.14-1.93-4.14-3.89,0-3.28,2.91-5.07,8.15-5.04v-.28c0-1.12-.31-3.14-3.08-3.14-1.26,0-2.58.39-3.53,1.01l-.56-1.62c1.12-.73,2.74-1.2,4.45-1.2,4.14,0,5.15,2.83,5.15,5.54v5.07c0,1.18.06,2.32.22,3.25h-2.24ZM62.78,76.52c-2.69-.06-5.74.42-5.74,3.05,0,1.6,1.06,2.35,2.32,2.35,1.76,0,2.88-1.12,3.28-2.27.08-.25.14-.53.14-.78v-2.35Z"/>
  <path class="cls-2" d="M75.32,83.44v-11.68h-1.9v-1.88h1.9v-.64c0-1.9.42-3.64,1.57-4.73.92-.9,2.16-1.26,3.3-1.26.87,0,1.62.2,2.1.39l-.34,1.9c-.36-.17-.87-.31-1.57-.31-2.1,0-2.63,1.85-2.63,3.92v.73h3.28v1.88h-3.28v11.68h-2.44Z"/>
  <path class="cls-2" d="M90.75,83.44l-.2-1.71h-.08c-.76,1.06-2.21,2.02-4.14,2.02-2.74,0-4.14-1.93-4.14-3.89,0-3.28,2.91-5.07,8.15-5.04v-.28c0-1.12-.31-3.14-3.08-3.14-1.26,0-2.58.39-3.53,1.01l-.56-1.62c1.12-.73,2.74-1.2,4.45-1.2,4.14,0,5.15,2.83,5.15,5.54v5.07c0,1.18.06,2.32.22,3.25h-2.24ZM90.38,76.52c-2.69-.06-5.74.42-5.74,3.05,0,1.6,1.06,2.35,2.32,2.35,1.76,0,2.88-1.12,3.28-2.27.08-.25.14-.53.14-.78v-2.35Z"/>
  <path class="cls-2" d="M99.49,66.08c.03.84-.59,1.51-1.57,1.51-.87,0-1.48-.67-1.48-1.51s.64-1.54,1.54-1.54,1.51.67,1.51,1.54ZM96.74,83.44v-13.55h2.46v13.55h-2.46Z"/>
  <path class="cls-2" d="M103.29,74.11c0-1.6-.03-2.97-.11-4.23h2.16l.08,2.66h.11c.62-1.82,2.1-2.97,3.75-2.97.28,0,.48.03.7.08v2.32c-.25-.06-.5-.08-.84-.08-1.74,0-2.97,1.32-3.3,3.16-.06.34-.11.73-.11,1.15v7.22h-2.44v-9.32Z"/>
  <path class="cls-2" d="M118.38,74.31c0-1.74-.06-3.14-.11-4.42h2.21l.11,2.32h.06c1.01-1.65,2.6-2.63,4.82-2.63,3.28,0,5.74,2.77,5.74,6.89,0,4.87-2.97,7.28-6.16,7.28-1.79,0-3.36-.78-4.17-2.13h-.06v7.36h-2.44v-14.67ZM120.82,77.92c0,.36.06.7.11,1.01.45,1.71,1.93,2.88,3.7,2.88,2.6,0,4.12-2.13,4.12-5.24,0-2.72-1.43-5.04-4.03-5.04-1.68,0-3.25,1.2-3.72,3.05-.08.31-.17.67-.17,1.01v2.32Z"/>
  <path class="cls-2" d="M134.32,74.11c0-1.6-.03-2.97-.11-4.23h2.16l.08,2.66h.11c.62-1.82,2.1-2.97,3.75-2.97.28,0,.48.03.7.08v2.32c-.25-.06-.5-.08-.84-.08-1.74,0-2.97,1.32-3.3,3.16-.06.34-.11.73-.11,1.15v7.22h-2.44v-9.32Z"/>
  <path class="cls-2" d="M146.33,66.08c.03.84-.59,1.51-1.57,1.51-.87,0-1.48-.67-1.48-1.51s.64-1.54,1.54-1.54,1.51.67,1.51,1.54ZM143.58,83.44v-13.55h2.46v13.55h-2.46Z"/>
  <path class="cls-2" d="M159.8,82.93c-.64.34-2.07.78-3.89.78-4.09,0-6.75-2.77-6.75-6.92s2.86-7.2,7.28-7.2c1.46,0,2.74.36,3.42.7l-.56,1.9c-.59-.34-1.51-.64-2.86-.64-3.11,0-4.79,2.3-4.79,5.12,0,3.14,2.02,5.07,4.7,5.07,1.4,0,2.32-.36,3.02-.67l.42,1.85Z"/>
  <path class="cls-2" d="M163.88,77.11c.06,3.33,2.18,4.7,4.65,4.7,1.76,0,2.83-.31,3.75-.7l.42,1.76c-.87.39-2.35.84-4.51.84-4.17,0-6.66-2.74-6.66-6.83s2.41-7.31,6.36-7.31c4.42,0,5.6,3.89,5.6,6.38,0,.5-.06.9-.08,1.15h-9.52ZM171.11,75.34c.03-1.57-.64-4-3.42-4-2.49,0-3.58,2.3-3.78,4h7.2Z"/>
  <path class="cls-2" d="M182.73,83.44v-11.68h-1.9v-1.88h1.9v-.64c0-1.9.42-3.64,1.57-4.73.92-.9,2.16-1.26,3.3-1.26.87,0,1.62.2,2.1.39l-.34,1.9c-.36-.17-.87-.31-1.57-.31-2.1,0-2.63,1.85-2.63,3.92v.73h3.28v1.88h-3.28v11.68h-2.44Z"/>
  <path class="cls-2" d="M202.55,76.55c0,5.01-3.47,7.2-6.75,7.2-3.67,0-6.5-2.69-6.5-6.97,0-4.54,2.97-7.2,6.72-7.2s6.52,2.83,6.52,6.97ZM191.8,76.69c0,2.97,1.71,5.21,4.12,5.21s4.12-2.21,4.12-5.26c0-2.3-1.15-5.21-4.06-5.21s-4.17,2.69-4.17,5.26Z"/>
  <path class="cls-2" d="M205.66,74.11c0-1.6-.03-2.97-.11-4.23h2.16l.08,2.66h.11c.62-1.82,2.1-2.97,3.75-2.97.28,0,.48.03.7.08v2.32c-.25-.06-.5-.08-.84-.08-1.74,0-2.97,1.32-3.3,3.16-.06.34-.11.73-.11,1.15v7.22h-2.44v-9.32Z"/>
  <path class="cls-2" d="M221.65,69.88l2.97,8.01c.31.9.64,1.96.87,2.77h.06c.25-.81.53-1.85.87-2.83l2.69-7.95h2.6l-3.7,9.66c-1.76,4.65-2.97,7.03-4.65,8.48-1.2,1.06-2.41,1.48-3.02,1.6l-.62-2.07c.62-.2,1.43-.59,2.16-1.2.67-.53,1.51-1.48,2.07-2.74.11-.25.2-.45.2-.59s-.06-.34-.17-.64l-5.01-12.49h2.69Z"/>
  <path class="cls-2" d="M245.92,76.55c0,5.01-3.47,7.2-6.75,7.2-3.67,0-6.5-2.69-6.5-6.97,0-4.54,2.97-7.2,6.72-7.2s6.52,2.83,6.52,6.97ZM235.17,76.69c0,2.97,1.71,5.21,4.12,5.21s4.12-2.21,4.12-5.26c0-2.3-1.15-5.21-4.06-5.21s-4.17,2.69-4.17,5.26Z"/>
  <path class="cls-2" d="M260.37,79.74c0,1.4.03,2.63.11,3.7h-2.18l-.14-2.21h-.06c-.64,1.09-2.07,2.52-4.48,2.52-2.13,0-4.68-1.18-4.68-5.94v-7.92h2.46v7.5c0,2.58.78,4.31,3.02,4.31,1.65,0,2.8-1.15,3.25-2.24.14-.36.22-.81.22-1.26v-8.32h2.46v9.86Z"/>
  <path class="cls-2" d="M264.46,74.11c0-1.6-.03-2.97-.11-4.23h2.16l.08,2.66h.11c.62-1.82,2.1-2.97,3.75-2.97.28,0,.48.03.7.08v2.32c-.25-.06-.5-.08-.84-.08-1.74,0-2.97,1.32-3.3,3.16-.06.34-.11.73-.11,1.15v7.22h-2.44v-9.32Z"/>
  <path class="cls-2" d="M289.21,82.93c-.64.34-2.07.78-3.89.78-4.09,0-6.75-2.77-6.75-6.92s2.86-7.2,7.28-7.2c1.46,0,2.74.36,3.42.7l-.56,1.9c-.59-.34-1.51-.64-2.86-.64-3.11,0-4.79,2.3-4.79,5.12,0,3.14,2.02,5.07,4.7,5.07,1.4,0,2.32-.36,3.02-.67l.42,1.85Z"/>
  <path class="cls-2" d="M293.3,77.11c.06,3.33,2.18,4.7,4.65,4.7,1.76,0,2.83-.31,3.75-.7l.42,1.76c-.87.39-2.35.84-4.51.84-4.17,0-6.66-2.74-6.66-6.83s2.41-7.31,6.36-7.31c4.42,0,5.6,3.89,5.6,6.38,0,.5-.06.9-.08,1.15h-9.52ZM300.52,75.34c.03-1.57-.64-4-3.42-4-2.49,0-3.58,2.3-3.78,4h7.2Z"/>
  <path class="cls-2" d="M305.95,74.11c0-1.6-.03-2.97-.11-4.23h2.16l.08,2.66h.11c.62-1.82,2.1-2.97,3.75-2.97.28,0,.48.03.7.08v2.32c-.25-.06-.5-.08-.84-.08-1.74,0-2.97,1.32-3.3,3.16-.06.34-.11.73-.11,1.15v7.22h-2.44v-9.32Z"/>
  <path class="cls-2" d="M318.75,65.99v3.89h3.53v1.88h-3.53v7.31c0,1.68.48,2.63,1.85,2.63.64,0,1.12-.08,1.43-.17l.11,1.85c-.48.2-1.23.34-2.18.34-1.15,0-2.07-.36-2.66-1.04-.7-.73-.95-1.93-.95-3.53v-7.39h-2.1v-1.88h2.1v-3.25l2.41-.64Z"/>
  <path class="cls-2" d="M327.79,66.08c.03.84-.59,1.51-1.57,1.51-.87,0-1.48-.67-1.48-1.51s.64-1.54,1.54-1.54,1.51.67,1.51,1.54ZM325.05,83.44v-13.55h2.46v13.55h-2.46Z"/>
  <path class="cls-2" d="M331.85,83.44v-11.68h-1.9v-1.88h1.9v-.73c0-3.58,2.1-5.91,5.91-5.91,1.26,0,2.74.39,3.44.9l-.7,1.88c-.59-.42-1.65-.78-2.86-.78-2.6,0-3.36,1.82-3.36,3.98v.67h7.87v13.55h-2.44v-11.68h-5.43v11.68h-2.44Z"/>
  <path class="cls-2" d="M347.62,77.11c.06,3.33,2.18,4.7,4.65,4.7,1.76,0,2.83-.31,3.75-.7l.42,1.76c-.87.39-2.35.84-4.51.84-4.17,0-6.66-2.74-6.66-6.83s2.41-7.31,6.36-7.31c4.42,0,5.6,3.89,5.6,6.38,0,.5-.06.9-.08,1.15h-9.52ZM354.84,75.34c.03-1.57-.64-4-3.42-4-2.49,0-3.58,2.3-3.78,4h7.2Z"/>
  <path class="cls-2" d="M371.98,63.56v16.38c0,1.2.03,2.58.11,3.5h-2.21l-.11-2.35h-.06c-.76,1.51-2.41,2.66-4.62,2.66-3.28,0-5.8-2.77-5.8-6.89-.03-4.51,2.77-7.28,6.08-7.28,2.07,0,3.47.98,4.09,2.07h.06v-8.09h2.46ZM369.51,75.4c0-.31-.03-.73-.11-1.04-.36-1.57-1.71-2.86-3.56-2.86-2.55,0-4.06,2.24-4.06,5.24,0,2.74,1.34,5.01,4,5.01,1.65,0,3.16-1.09,3.61-2.94.08-.34.11-.67.11-1.06v-2.35Z"/>
  <path class="cls-2" d="M384.97,65.99v3.89h3.53v1.88h-3.53v7.31c0,1.68.48,2.63,1.85,2.63.64,0,1.12-.08,1.43-.17l.11,1.85c-.48.2-1.23.34-2.18.34-1.15,0-2.07-.36-2.66-1.04-.7-.73-.95-1.93-.95-3.53v-7.39h-2.1v-1.88h2.1v-3.25l2.41-.64Z"/>
  <path class="cls-2" d="M391.27,74.11c0-1.6-.03-2.97-.11-4.23h2.16l.08,2.66h.11c.62-1.82,2.1-2.97,3.75-2.97.28,0,.48.03.7.08v2.32c-.25-.06-.5-.08-.84-.08-1.74,0-2.97,1.32-3.3,3.16-.06.34-.11.73-.11,1.15v7.22h-2.44v-9.32Z"/>
  <path class="cls-2" d="M407.79,83.44l-.2-1.71h-.08c-.76,1.06-2.21,2.02-4.14,2.02-2.74,0-4.14-1.93-4.14-3.89,0-3.28,2.91-5.07,8.15-5.04v-.28c0-1.12-.31-3.14-3.08-3.14-1.26,0-2.58.39-3.53,1.01l-.56-1.62c1.12-.73,2.74-1.2,4.45-1.2,4.14,0,5.15,2.83,5.15,5.54v5.07c0,1.18.06,2.32.22,3.25h-2.24ZM407.42,76.52c-2.69-.06-5.74.42-5.74,3.05,0,1.6,1.06,2.35,2.32,2.35,1.76,0,2.88-1.12,3.28-2.27.08-.25.14-.53.14-.78v-2.35Z"/>
  <path class="cls-2" d="M413.78,73.55c0-1.4-.03-2.55-.11-3.67h2.18l.14,2.24h.06c.67-1.29,2.24-2.55,4.48-2.55,1.88,0,4.79,1.12,4.79,5.77v8.09h-2.46v-7.81c0-2.18-.81-4-3.14-4-1.62,0-2.88,1.15-3.3,2.52-.11.31-.17.73-.17,1.15v8.15h-2.46v-9.88Z"/>
  <path class="cls-2" d="M428.98,80.92c.73.48,2.02.98,3.25.98,1.79,0,2.63-.9,2.63-2.02,0-1.18-.7-1.82-2.52-2.49-2.44-.87-3.58-2.21-3.58-3.84,0-2.18,1.76-3.98,4.68-3.98,1.37,0,2.58.39,3.33.84l-.62,1.79c-.53-.34-1.51-.78-2.77-.78-1.46,0-2.27.84-2.27,1.85,0,1.12.81,1.62,2.58,2.3,2.35.9,3.56,2.07,3.56,4.09,0,2.38-1.85,4.06-5.07,4.06-1.48,0-2.86-.36-3.81-.92l.62-1.88Z"/>
  <path class="cls-2" d="M440.41,63.56h2.46v19.88h-2.46v-19.88Z"/>
  <path class="cls-2" d="M454.52,83.44l-.2-1.71h-.08c-.76,1.06-2.21,2.02-4.14,2.02-2.74,0-4.14-1.93-4.14-3.89,0-3.28,2.91-5.07,8.15-5.04v-.28c0-1.12-.31-3.14-3.08-3.14-1.26,0-2.58.39-3.53,1.01l-.56-1.62c1.12-.73,2.74-1.2,4.45-1.2,4.14,0,5.15,2.83,5.15,5.54v5.07c0,1.18.06,2.32.22,3.25h-2.24ZM454.15,76.52c-2.69-.06-5.74.42-5.74,3.05,0,1.6,1.06,2.35,2.32,2.35,1.76,0,2.88-1.12,3.28-2.27.08-.25.14-.53.14-.78v-2.35Z"/>
  <path class="cls-2" d="M463.37,65.99v3.89h3.53v1.88h-3.53v7.31c0,1.68.48,2.63,1.85,2.63.64,0,1.12-.08,1.43-.17l.11,1.85c-.48.2-1.23.34-2.18.34-1.15,0-2.07-.36-2.66-1.04-.7-.73-.95-1.93-.95-3.53v-7.39h-2.1v-1.88h2.1v-3.25l2.41-.64Z"/>
  <path class="cls-2" d="M472.41,66.08c.03.84-.59,1.51-1.57,1.51-.87,0-1.48-.67-1.48-1.51s.64-1.54,1.54-1.54,1.51.67,1.51,1.54ZM469.67,83.44v-13.55h2.46v13.55h-2.46Z"/>
  <path class="cls-2" d="M488.48,76.55c0,5.01-3.47,7.2-6.75,7.2-3.67,0-6.5-2.69-6.5-6.97,0-4.54,2.97-7.2,6.72-7.2s6.52,2.83,6.52,6.97ZM477.73,76.69c0,2.97,1.71,5.21,4.12,5.21s4.12-2.21,4.12-5.26c0-2.3-1.15-5.21-4.06-5.21s-4.17,2.69-4.17,5.26Z"/>
  <path class="cls-2" d="M491.59,73.55c0-1.4-.03-2.55-.11-3.67h2.18l.14,2.24h.06c.67-1.29,2.24-2.55,4.48-2.55,1.88,0,4.79,1.12,4.79,5.77v8.09h-2.46v-7.81c0-2.18-.81-4-3.14-4-1.62,0-2.88,1.15-3.3,2.52-.11.31-.17.73-.17,1.15v8.15h-2.46v-9.88Z"/>
  <path class="cls-2" d="M506.8,80.92c.73.48,2.02.98,3.25.98,1.79,0,2.63-.9,2.63-2.02,0-1.18-.7-1.82-2.52-2.49-2.44-.87-3.58-2.21-3.58-3.84,0-2.18,1.76-3.98,4.68-3.98,1.37,0,2.58.39,3.33.84l-.62,1.79c-.53-.34-1.51-.78-2.77-.78-1.46,0-2.27.84-2.27,1.85,0,1.12.81,1.62,2.58,2.3,2.35.9,3.56,2.07,3.56,4.09,0,2.38-1.85,4.06-5.07,4.06-1.48,0-2.86-.36-3.81-.92l.62-1.88Z"/>
  <path class="cls-2" d="M524.04,83.44c.06-.92.11-2.3.11-3.5v-16.38h2.44v8.51h.06c.87-1.51,2.44-2.49,4.62-2.49,3.36,0,5.74,2.8,5.71,6.92,0,4.84-3.05,7.25-6.08,7.25-1.96,0-3.53-.76-4.54-2.55h-.08l-.11,2.24h-2.13ZM526.59,78c0,.31.06.62.11.9.48,1.71,1.9,2.88,3.7,2.88,2.58,0,4.12-2.1,4.12-5.21,0-2.72-1.4-5.04-4.03-5.04-1.68,0-3.25,1.15-3.75,3.02-.06.28-.14.62-.14,1.01v2.44Z"/>
  <path class="cls-2" d="M547.59,83.44l-.2-1.71h-.08c-.76,1.06-2.21,2.02-4.14,2.02-2.74,0-4.14-1.93-4.14-3.89,0-3.28,2.91-5.07,8.15-5.04v-.28c0-1.12-.31-3.14-3.08-3.14-1.26,0-2.58.39-3.53,1.01l-.56-1.62c1.12-.73,2.74-1.2,4.45-1.2,4.14,0,5.15,2.83,5.15,5.54v5.07c0,1.18.06,2.32.22,3.25h-2.24ZM547.23,76.52c-2.69-.06-5.74.42-5.74,3.05,0,1.6,1.06,2.35,2.32,2.35,1.76,0,2.88-1.12,3.28-2.27.08-.25.14-.53.14-.78v-2.35Z"/>
  <path class="cls-2" d="M553.25,80.92c.73.48,2.02.98,3.25.98,1.79,0,2.63-.9,2.63-2.02,0-1.18-.7-1.82-2.52-2.49-2.44-.87-3.58-2.21-3.58-3.84,0-2.18,1.76-3.98,4.68-3.98,1.37,0,2.58.39,3.33.84l-.62,1.79c-.53-.34-1.51-.78-2.77-.78-1.46,0-2.27.84-2.27,1.85,0,1.12.81,1.62,2.58,2.3,2.35.9,3.56,2.07,3.56,4.09,0,2.38-1.85,4.06-5.07,4.06-1.48,0-2.86-.36-3.81-.92l.62-1.88Z"/>
  <path class="cls-2" d="M566.04,77.11c.06,3.33,2.18,4.7,4.65,4.7,1.76,0,2.83-.31,3.75-.7l.42,1.76c-.87.39-2.35.84-4.51.84-4.17,0-6.66-2.74-6.66-6.83s2.41-7.31,6.36-7.31c4.42,0,5.6,3.89,5.6,6.38,0,.5-.06.9-.08,1.15h-9.52ZM573.27,75.34c.03-1.57-.64-4-3.42-4-2.49,0-3.58,2.3-3.78,4h7.2Z"/>
  <path class="cls-2" d="M590.4,63.56v16.38c0,1.2.03,2.58.11,3.5h-2.21l-.11-2.35h-.06c-.76,1.51-2.41,2.66-4.62,2.66-3.28,0-5.8-2.77-5.8-6.89-.03-4.51,2.77-7.28,6.08-7.28,2.07,0,3.47.98,4.09,2.07h.06v-8.09h2.46ZM587.94,75.4c0-.31-.03-.73-.11-1.04-.36-1.57-1.71-2.86-3.56-2.86-2.55,0-4.06,2.24-4.06,5.24,0,2.74,1.34,5.01,4,5.01,1.65,0,3.16-1.09,3.61-2.94.08-.34.11-.67.11-1.06v-2.35Z"/>
  <path class="cls-2" d="M39.76,106.55c0,5.01-3.47,7.2-6.75,7.2-3.67,0-6.5-2.69-6.5-6.97,0-4.54,2.97-7.2,6.72-7.2s6.52,2.83,6.52,6.97ZM29.01,106.69c0,2.97,1.71,5.21,4.12,5.21s4.12-2.21,4.12-5.26c0-2.3-1.15-5.21-4.06-5.21s-4.17,2.69-4.17,5.26Z"/>
  <path class="cls-2" d="M42.87,103.55c0-1.4-.03-2.55-.11-3.67h2.18l.14,2.24h.06c.67-1.29,2.24-2.55,4.48-2.55,1.88,0,4.79,1.12,4.79,5.77v8.09h-2.46v-7.81c0-2.18-.81-4-3.14-4-1.62,0-2.88,1.15-3.3,2.52-.11.31-.17.73-.17,1.15v8.15h-2.46v-9.88Z"/>
  <path class="cls-2" d="M65.33,99.88l1.79,6.89c.39,1.51.76,2.91,1.01,4.31h.08c.31-1.37.76-2.83,1.2-4.28l2.21-6.92h2.07l2.1,6.78c.5,1.62.9,3.05,1.2,4.42h.08c.22-1.37.59-2.8,1.04-4.4l1.93-6.8h2.44l-4.37,13.55h-2.24l-2.07-6.47c-.48-1.51-.87-2.86-1.2-4.45h-.06c-.34,1.62-.76,3.02-1.23,4.48l-2.18,6.44h-2.24l-4.09-13.55h2.52Z"/>
  <path class="cls-2" d="M96.94,106.55c0,5.01-3.47,7.2-6.75,7.2-3.67,0-6.5-2.69-6.5-6.97,0-4.54,2.97-7.2,6.72-7.2s6.52,2.83,6.52,6.97ZM86.18,106.69c0,2.97,1.71,5.21,4.12,5.21s4.12-2.21,4.12-5.26c0-2.3-1.15-5.21-4.06-5.21s-4.17,2.69-4.17,5.26Z"/>
  <path class="cls-2" d="M100.04,104.11c0-1.6-.03-2.97-.11-4.23h2.16l.08,2.66h.11c.62-1.82,2.1-2.97,3.75-2.97.28,0,.48.03.7.08v2.32c-.25-.06-.5-.08-.84-.08-1.74,0-2.97,1.32-3.3,3.16-.06.34-.11.73-.11,1.15v7.22h-2.44v-9.32Z"/>
  <path class="cls-2" d="M120.63,93.56v16.38c0,1.2.03,2.58.11,3.5h-2.21l-.11-2.35h-.06c-.76,1.51-2.41,2.66-4.62,2.66-3.28,0-5.8-2.77-5.8-6.89-.03-4.51,2.77-7.28,6.08-7.28,2.07,0,3.47.98,4.09,2.07h.06v-8.09h2.46ZM118.16,105.4c0-.31-.03-.73-.11-1.04-.36-1.57-1.71-2.86-3.56-2.86-2.55,0-4.06,2.24-4.06,5.24,0,2.74,1.34,5.01,4,5.01,1.65,0,3.16-1.09,3.61-2.94.08-.34.11-.67.11-1.06v-2.35Z"/>
  <path class="cls-2" d="M140.31,112.93c-.64.34-2.07.78-3.89.78-4.09,0-6.75-2.77-6.75-6.92s2.86-7.2,7.28-7.2c1.46,0,2.74.36,3.42.7l-.56,1.9c-.59-.34-1.51-.64-2.86-.64-3.11,0-4.79,2.3-4.79,5.12,0,3.14,2.02,5.07,4.7,5.07,1.4,0,2.32-.36,3.02-.67l.42,1.85Z"/>
  <path class="cls-2" d="M155.29,106.55c0,5.01-3.47,7.2-6.75,7.2-3.67,0-6.5-2.69-6.5-6.97,0-4.54,2.97-7.2,6.72-7.2s6.52,2.83,6.52,6.97ZM144.54,106.69c0,2.97,1.71,5.21,4.12,5.21s4.12-2.21,4.12-5.26c0-2.3-1.15-5.21-4.06-5.21s-4.17,2.69-4.17,5.26Z"/>
  <path class="cls-2" d="M169.74,109.74c0,1.4.03,2.63.11,3.7h-2.18l-.14-2.21h-.06c-.64,1.09-2.07,2.52-4.48,2.52-2.13,0-4.68-1.18-4.68-5.94v-7.92h2.46v7.5c0,2.58.78,4.31,3.02,4.31,1.65,0,2.8-1.15,3.25-2.24.14-.36.22-.81.22-1.26v-8.32h2.46v9.86Z"/>
  <path class="cls-2" d="M173.82,103.55c0-1.4-.03-2.55-.11-3.67h2.18l.14,2.24h.06c.67-1.29,2.24-2.55,4.48-2.55,1.88,0,4.79,1.12,4.79,5.77v8.09h-2.46v-7.81c0-2.18-.81-4-3.14-4-1.62,0-2.88,1.15-3.3,2.52-.11.31-.17.73-.17,1.15v8.15h-2.46v-9.88Z"/>
  <path class="cls-2" d="M192.22,95.99v3.89h3.53v1.88h-3.53v7.31c0,1.68.48,2.63,1.85,2.63.64,0,1.12-.08,1.43-.17l.11,1.85c-.48.2-1.23.34-2.18.34-1.15,0-2.07-.36-2.66-1.04-.7-.73-.95-1.93-.95-3.53v-7.39h-2.1v-1.88h2.1v-3.25l2.41-.64Z"/>
  <path class="cls-2" d="M196.84,116.88c.62-1.65,1.37-4.65,1.68-6.69l2.74-.28c-.64,2.38-1.88,5.49-2.66,6.8l-1.76.17Z"/>
  <path class="cls-2" d="M210.17,103.55c0-1.4-.03-2.55-.11-3.67h2.18l.14,2.24h.06c.67-1.29,2.24-2.55,4.48-2.55,1.88,0,4.79,1.12,4.79,5.77v8.09h-2.46v-7.81c0-2.18-.81-4-3.14-4-1.62,0-2.88,1.15-3.3,2.52-.11.31-.17.73-.17,1.15v8.15h-2.46v-9.88Z"/>
  <path class="cls-2" d="M237.97,106.55c0,5.01-3.47,7.2-6.75,7.2-3.67,0-6.5-2.69-6.5-6.97,0-4.54,2.97-7.2,6.72-7.2s6.52,2.83,6.52,6.97ZM227.22,106.69c0,2.97,1.71,5.21,4.12,5.21s4.12-2.21,4.12-5.26c0-2.3-1.15-5.21-4.06-5.21s-4.17,2.69-4.17,5.26Z"/>
  <path class="cls-2" d="M244.05,95.99v3.89h3.53v1.88h-3.53v7.31c0,1.68.48,2.63,1.85,2.63.64,0,1.12-.08,1.43-.17l.11,1.85c-.48.2-1.23.34-2.18.34-1.15,0-2.07-.36-2.66-1.04-.7-.73-.95-1.93-.95-3.53v-7.39h-2.1v-1.88h2.1v-3.25l2.41-.64Z"/>
  <path class="cls-2" d="M263.79,113.44l-.2-1.71h-.08c-.76,1.06-2.21,2.02-4.14,2.02-2.74,0-4.14-1.93-4.14-3.89,0-3.28,2.91-5.07,8.15-5.04v-.28c0-1.12-.31-3.14-3.08-3.14-1.26,0-2.58.39-3.53,1.01l-.56-1.62c1.12-.73,2.74-1.2,4.45-1.2,4.14,0,5.15,2.83,5.15,5.54v5.07c0,1.18.06,2.32.22,3.25h-2.24ZM263.42,106.52c-2.69-.06-5.74.42-5.74,3.05,0,1.6,1.06,2.35,2.32,2.35,1.76,0,2.88-1.12,3.28-2.27.08-.25.14-.53.14-.78v-2.35Z"/>
  <path class="cls-2" d="M269.78,103.55c0-1.4-.03-2.55-.11-3.67h2.18l.14,2.24h.06c.67-1.29,2.24-2.55,4.48-2.55,1.88,0,4.79,1.12,4.79,5.77v8.09h-2.46v-7.81c0-2.18-.81-4-3.14-4-1.62,0-2.88,1.15-3.3,2.52-.11.31-.17.73-.17,1.15v8.15h-2.46v-9.88Z"/>
  <path class="cls-2" d="M298.76,113.44l-.2-1.71h-.08c-.76,1.06-2.21,2.02-4.14,2.02-2.74,0-4.14-1.93-4.14-3.89,0-3.28,2.91-5.07,8.15-5.04v-.28c0-1.12-.31-3.14-3.08-3.14-1.26,0-2.58.39-3.53,1.01l-.56-1.62c1.12-.73,2.74-1.2,4.45-1.2,4.14,0,5.15,2.83,5.15,5.54v5.07c0,1.18.06,2.32.22,3.25h-2.24ZM298.4,106.52c-2.69-.06-5.74.42-5.74,3.05,0,1.6,1.06,2.35,2.32,2.35,1.76,0,2.88-1.12,3.28-2.27.08-.25.14-.53.14-.78v-2.35Z"/>
  <path class="cls-2" d="M304.75,104.11c0-1.6-.03-2.97-.11-4.23h2.16l.08,2.66h.11c.62-1.82,2.1-2.97,3.75-2.97.28,0,.48.03.7.08v2.32c-.25-.06-.5-.08-.84-.08-1.74,0-2.97,1.32-3.3,3.16-.06.34-.11.73-.11,1.15v7.22h-2.44v-9.32Z"/>
  <path class="cls-2" d="M313.91,113.44c.06-.92.11-2.3.11-3.5v-16.38h2.44v8.51h.06c.87-1.51,2.44-2.49,4.62-2.49,3.36,0,5.74,2.8,5.71,6.92,0,4.84-3.05,7.25-6.08,7.25-1.96,0-3.53-.76-4.54-2.55h-.08l-.11,2.24h-2.13ZM316.46,108c0,.31.06.62.11.9.48,1.71,1.9,2.88,3.7,2.88,2.58,0,4.12-2.1,4.12-5.21,0-2.72-1.4-5.04-4.03-5.04-1.68,0-3.25,1.15-3.75,3.02-.06.28-.14.62-.14,1.01v2.44Z"/>
  <path class="cls-2" d="M332.7,96.08c.03.84-.59,1.51-1.57,1.51-.87,0-1.48-.67-1.48-1.51s.64-1.54,1.54-1.54,1.51.67,1.51,1.54ZM329.95,113.44v-13.55h2.46v13.55h-2.46Z"/>
  <path class="cls-2" d="M339.47,95.99v3.89h3.53v1.88h-3.53v7.31c0,1.68.48,2.63,1.85,2.63.64,0,1.12-.08,1.43-.17l.11,1.85c-.48.2-1.23.34-2.18.34-1.15,0-2.07-.36-2.66-1.04-.7-.73-.95-1.93-.95-3.53v-7.39h-2.1v-1.88h2.1v-3.25l2.41-.64Z"/>
  <path class="cls-2" d="M345.77,104.11c0-1.6-.03-2.97-.11-4.23h2.16l.08,2.66h.11c.62-1.82,2.1-2.97,3.75-2.97.28,0,.48.03.7.08v2.32c-.25-.06-.5-.08-.84-.08-1.74,0-2.97,1.32-3.3,3.16-.06.34-.11.73-.11,1.15v7.22h-2.44v-9.32Z"/>
  <path class="cls-2" d="M362.29,113.44l-.2-1.71h-.08c-.76,1.06-2.21,2.02-4.14,2.02-2.74,0-4.14-1.93-4.14-3.89,0-3.28,2.91-5.07,8.15-5.04v-.28c0-1.12-.31-3.14-3.08-3.14-1.26,0-2.58.39-3.53,1.01l-.56-1.62c1.12-.73,2.74-1.2,4.45-1.2,4.14,0,5.15,2.83,5.15,5.54v5.07c0,1.18.06,2.32.22,3.25h-2.24ZM361.93,106.52c-2.69-.06-5.74.42-5.74,3.05,0,1.6,1.06,2.35,2.32,2.35,1.76,0,2.88-1.12,3.28-2.27.08-.25.14-.53.14-.78v-2.35Z"/>
  <path class="cls-2" d="M368.28,104.11c0-1.6-.03-2.97-.11-4.23h2.16l.08,2.66h.11c.62-1.82,2.1-2.97,3.75-2.97.28,0,.48.03.7.08v2.32c-.25-.06-.5-.08-.84-.08-1.74,0-2.97,1.32-3.3,3.16-.06.34-.11.73-.11,1.15v7.22h-2.44v-9.32Z"/>
  <path class="cls-2" d="M379.04,99.88l2.97,8.01c.31.9.64,1.96.87,2.77h.06c.25-.81.53-1.85.87-2.83l2.69-7.95h2.6l-3.7,9.66c-1.76,4.65-2.97,7.03-4.65,8.48-1.2,1.06-2.41,1.48-3.02,1.6l-.62-2.07c.62-.2,1.43-.59,2.16-1.2.67-.53,1.51-1.48,2.07-2.74.11-.25.2-.45.2-.59s-.06-.34-.17-.64l-5.01-12.49h2.69Z"/>
  <path class="cls-2" d="M397.26,104.31c0-1.74-.06-3.14-.11-4.42h2.21l.11,2.32h.06c1.01-1.65,2.6-2.63,4.82-2.63,3.28,0,5.74,2.77,5.74,6.89,0,4.87-2.97,7.28-6.16,7.28-1.79,0-3.36-.78-4.17-2.13h-.06v7.36h-2.44v-14.67ZM399.7,107.92c0,.36.06.7.11,1.01.45,1.71,1.93,2.88,3.7,2.88,2.6,0,4.12-2.13,4.12-5.24,0-2.72-1.43-5.04-4.03-5.04-1.68,0-3.25,1.2-3.72,3.05-.08.31-.17.67-.17,1.01v2.32Z"/>
  <path class="cls-2" d="M414.57,107.11c.06,3.33,2.18,4.7,4.65,4.7,1.76,0,2.83-.31,3.75-.7l.42,1.76c-.87.39-2.35.84-4.51.84-4.17,0-6.66-2.74-6.66-6.83s2.41-7.31,6.36-7.31c4.42,0,5.6,3.89,5.6,6.38,0,.5-.06.9-.08,1.15h-9.52ZM421.79,105.34c.03-1.57-.64-4-3.42-4-2.49,0-3.58,2.3-3.78,4h7.2Z"/>
  <path class="cls-2" d="M427.22,104.11c0-1.6-.03-2.97-.11-4.23h2.16l.08,2.66h.11c.62-1.82,2.1-2.97,3.75-2.97.28,0,.48.03.7.08v2.32c-.25-.06-.5-.08-.84-.08-1.74,0-2.97,1.32-3.3,3.16-.06.34-.11.73-.11,1.15v7.22h-2.44v-9.32Z"/>
  <path class="cls-2" d="M441.95,104.95v1.82h-6.92v-1.82h6.92Z"/>
  <path class="cls-2" d="M444.83,104.31c0-1.74-.06-3.14-.11-4.42h2.21l.11,2.32h.06c1.01-1.65,2.6-2.63,4.82-2.63,3.28,0,5.74,2.77,5.74,6.89,0,4.87-2.97,7.28-6.16,7.28-1.79,0-3.36-.78-4.17-2.13h-.06v7.36h-2.44v-14.67ZM447.27,107.92c0,.36.06.7.11,1.01.45,1.71,1.93,2.88,3.7,2.88,2.6,0,4.12-2.13,4.12-5.24,0-2.72-1.43-5.04-4.03-5.04-1.68,0-3.25,1.2-3.72,3.05-.08.31-.17.67-.17,1.01v2.32Z"/>
  <path class="cls-2" d="M468.27,113.44l-.2-1.71h-.08c-.76,1.06-2.21,2.02-4.14,2.02-2.74,0-4.14-1.93-4.14-3.89,0-3.28,2.91-5.07,8.15-5.04v-.28c0-1.12-.31-3.14-3.08-3.14-1.26,0-2.58.39-3.53,1.01l-.56-1.62c1.12-.73,2.74-1.2,4.45-1.2,4.14,0,5.15,2.83,5.15,5.54v5.07c0,1.18.06,2.32.22,3.25h-2.24ZM467.91,106.52c-2.69-.06-5.74.42-5.74,3.05,0,1.6,1.06,2.35,2.32,2.35,1.76,0,2.88-1.12,3.28-2.27.08-.25.14-.53.14-.78v-2.35Z"/>
  <path class="cls-2" d="M485.94,99.88c-.06.98-.11,2.07-.11,3.72v7.87c0,3.11-.62,5.01-1.93,6.19-1.32,1.23-3.22,1.62-4.93,1.62s-3.42-.39-4.51-1.12l.62-1.88c.9.56,2.3,1.06,3.98,1.06,2.52,0,4.37-1.32,4.37-4.73v-1.51h-.06c-.76,1.26-2.21,2.27-4.31,2.27-3.36,0-5.77-2.86-5.77-6.61,0-4.59,3-7.2,6.1-7.2,2.35,0,3.64,1.23,4.23,2.35h.06l.11-2.04h2.16ZM483.39,105.23c0-.42-.03-.78-.14-1.12-.45-1.43-1.65-2.6-3.44-2.6-2.35,0-4.03,1.99-4.03,5.12,0,2.66,1.34,4.87,4,4.87,1.51,0,2.88-.95,3.42-2.52.14-.42.2-.9.2-1.32v-2.44Z"/>
  <path class="cls-2" d="M491.29,107.11c.06,3.33,2.18,4.7,4.65,4.7,1.76,0,2.83-.31,3.75-.7l.42,1.76c-.87.39-2.35.84-4.51.84-4.17,0-6.66-2.74-6.66-6.83s2.41-7.31,6.36-7.31c4.42,0,5.6,3.89,5.6,6.38,0,.5-.06.9-.08,1.15h-9.52ZM498.51,105.34c.03-1.57-.64-4-3.42-4-2.49,0-3.58,2.3-3.78,4h7.2Z"/>
  <path class="cls-2" d="M509.88,104.11c0-1.6-.03-2.97-.11-4.23h2.16l.08,2.66h.11c.62-1.82,2.1-2.97,3.75-2.97.28,0,.48.03.7.08v2.32c-.25-.06-.5-.08-.84-.08-1.74,0-2.97,1.32-3.3,3.16-.06.34-.11.73-.11,1.15v7.22h-2.44v-9.32Z"/>
  <path class="cls-2" d="M526.4,113.44l-.2-1.71h-.08c-.76,1.06-2.21,2.02-4.14,2.02-2.74,0-4.14-1.93-4.14-3.89,0-3.28,2.91-5.07,8.15-5.04v-.28c0-1.12-.31-3.14-3.08-3.14-1.26,0-2.58.39-3.53,1.01l-.56-1.62c1.12-.73,2.74-1.2,4.45-1.2,4.14,0,5.15,2.83,5.15,5.54v5.07c0,1.18.06,2.32.22,3.25h-2.24ZM526.03,106.52c-2.69-.06-5.74.42-5.74,3.05,0,1.6,1.06,2.35,2.32,2.35,1.76,0,2.88-1.12,3.28-2.27.08-.25.14-.53.14-.78v-2.35Z"/>
  <path class="cls-2" d="M535.24,95.99v3.89h3.53v1.88h-3.53v7.31c0,1.68.48,2.63,1.85,2.63.64,0,1.12-.08,1.43-.17l.11,1.85c-.48.2-1.23.34-2.18.34-1.15,0-2.07-.36-2.66-1.04-.7-.73-.95-1.93-.95-3.53v-7.39h-2.1v-1.88h2.1v-3.25l2.41-.64Z"/>
  <path class="cls-2" d="M542.75,107.11c.06,3.33,2.18,4.7,4.65,4.7,1.76,0,2.83-.31,3.75-.7l.42,1.76c-.87.39-2.35.84-4.51.84-4.17,0-6.66-2.74-6.66-6.83s2.41-7.31,6.36-7.31c4.42,0,5.6,3.89,5.6,6.38,0,.5-.06.9-.08,1.15h-9.52ZM549.97,105.34c.03-1.57-.64-4-3.42-4-2.49,0-3.58,2.3-3.78,4h7.2Z"/>
  <path class="cls-2" d="M554.48,111.98c0-1.04.7-1.76,1.68-1.76s1.65.73,1.65,1.76-.64,1.76-1.68,1.76c-.98,0-1.65-.76-1.65-1.76Z"/>
  <path class="cls-2" d="M569.88,94.26c-.64,2.35-1.85,5.35-2.6,6.64l-1.57.2c.59-1.65,1.34-4.56,1.65-6.58l2.52-.25ZM574.02,94.26c-.64,2.35-1.85,5.35-2.6,6.64l-1.57.2c.62-1.65,1.34-4.56,1.65-6.58l2.52-.25Z"/>
  <path class="cls-1" d="M149.4,141.77v1.43h-5.43v-1.43h5.43Z"/>
  <path class="cls-1" d="M158.58,148.44l-3.52-14.83h3.59l1.12,6.12c.33,1.76.64,3.67.88,5.17h.04c.24-1.61.59-3.39.97-5.21l1.25-6.07h3.56l1.19,6.25c.33,1.74.57,3.32.79,4.97h.04c.22-1.65.55-3.39.86-5.15l1.21-6.07h3.41l-3.83,14.83h-3.63l-1.25-6.38c-.29-1.5-.53-2.88-.7-4.58h-.04c-.26,1.67-.51,3.08-.86,4.58l-1.41,6.38h-3.67Z"/>
  <path class="cls-1" d="M178.46,134.68c0,.92-.7,1.67-1.8,1.67s-1.76-.75-1.74-1.67c-.02-.97.68-1.69,1.76-1.69s1.76.73,1.78,1.69ZM175.01,148.44v-10.76h3.34v10.76h-3.34Z"/>
  <path class="cls-1" d="M181.04,132.81h3.34v15.62h-3.34v-15.62Z"/>
  <path class="cls-1" d="M187.09,132.81h3.34v15.62h-3.34v-15.62Z"/>
  <path class="cls-1" d="M196.59,134.68c0,.92-.7,1.67-1.8,1.67s-1.76-.75-1.74-1.67c-.02-.97.68-1.69,1.76-1.69s1.76.73,1.78,1.69ZM193.14,148.44v-10.76h3.34v10.76h-3.34Z"/>
  <path class="cls-1" d="M205.28,148.44l-.2-1.08h-.07c-.7.86-1.8,1.32-3.08,1.32-2.18,0-3.48-1.58-3.48-3.3,0-2.79,2.51-4.14,6.32-4.11v-.15c0-.57-.31-1.39-1.96-1.39-1.1,0-2.27.37-2.97.81l-.62-2.16c.75-.42,2.22-.95,4.18-.95,3.59,0,4.73,2.11,4.73,4.64v3.74c0,1.03.04,2.02.15,2.62h-3.01ZM204.89,143.35c-1.76-.02-3.12.4-3.12,1.69,0,.86.57,1.28,1.32,1.28.84,0,1.52-.55,1.74-1.23.04-.18.07-.37.07-.57v-1.17Z"/>
  <path class="cls-1" d="M210.78,141.11c0-1.34-.04-2.49-.09-3.43h2.82l.15,1.45h.07c.46-.68,1.41-1.69,3.26-1.69,1.39,0,2.49.7,2.95,1.83h.04c.4-.55.88-.99,1.39-1.3.59-.35,1.25-.53,2.05-.53,2.07,0,3.63,1.45,3.63,4.67v6.34h-3.26v-5.85c0-1.56-.51-2.46-1.58-2.46-.77,0-1.32.53-1.54,1.17-.09.24-.13.59-.13.86v6.29h-3.26v-6.03c0-1.36-.48-2.29-1.54-2.29-.86,0-1.36.66-1.56,1.21-.11.26-.13.57-.13.84v6.27h-3.26v-7.33Z"/>
  <path class="cls-1" d="M237.62,133.61v5.7h5.52v-5.7h3.34v14.83h-3.34v-6.21h-5.52v6.21h-3.37v-14.83h3.37Z"/>
  <path class="cls-1" d="M255.42,148.44l-.2-1.08h-.07c-.7.86-1.8,1.32-3.08,1.32-2.18,0-3.48-1.58-3.48-3.3,0-2.79,2.51-4.14,6.32-4.11v-.15c0-.57-.31-1.39-1.96-1.39-1.1,0-2.27.37-2.97.81l-.62-2.16c.75-.42,2.22-.95,4.18-.95,3.59,0,4.73,2.11,4.73,4.64v3.74c0,1.03.04,2.02.15,2.62h-3.01ZM255.02,143.35c-1.76-.02-3.12.4-3.12,1.69,0,.86.57,1.28,1.32,1.28.84,0,1.52-.55,1.74-1.23.04-.18.07-.37.07-.57v-1.17Z"/>
  <path class="cls-1" d="M260.92,141.22c0-1.58-.04-2.62-.09-3.54h2.88l.11,1.98h.09c.55-1.56,1.87-2.22,2.9-2.22.31,0,.46,0,.7.04v3.15c-.24-.04-.53-.09-.9-.09-1.23,0-2.07.66-2.29,1.69-.04.22-.07.48-.07.75v5.46h-3.34v-7.22Z"/>
  <path class="cls-1" d="M273.48,134.6v3.08h2.4v2.46h-2.4v3.89c0,1.3.31,1.89,1.32,1.89.42,0,.75-.04.99-.09l.02,2.53c-.44.18-1.23.29-2.18.29-1.08,0-1.98-.37-2.51-.92-.62-.64-.92-1.67-.92-3.19v-4.4h-1.43v-2.46h1.43v-2.33l3.28-.75Z"/>
  <path class="cls-1" d="M277.81,132.81h3.34v15.62h-3.34v-15.62Z"/>
  <path class="cls-1" d="M286.44,144.12c.11,1.39,1.47,2.05,3.04,2.05,1.14,0,2.07-.15,2.97-.44l.44,2.27c-1.1.44-2.44.66-3.89.66-3.65,0-5.74-2.11-5.74-5.48,0-2.73,1.69-5.74,5.43-5.74,3.48,0,4.8,2.71,4.8,5.37,0,.57-.07,1.08-.11,1.32h-6.93ZM290.38,141.84c0-.81-.35-2.18-1.89-2.18-1.41,0-1.98,1.28-2.07,2.18h3.96Z"/>
  <path class="cls-1" d="M297.86,137.68l1.61,5.28c.18.64.4,1.43.53,2h.07c.15-.57.33-1.39.48-2l1.32-5.28h3.59l-2.51,7.08c-1.54,4.27-2.57,5.99-3.79,7.06-1.17,1.01-2.4,1.36-3.23,1.47l-.7-2.84c.42-.07.95-.26,1.45-.57.51-.26,1.06-.79,1.39-1.34.11-.15.18-.33.18-.48,0-.11-.02-.29-.15-.55l-3.94-9.84h3.72Z"/>
  <path class="cls-1" d="M305.87,151.14c.48-1.3,1.08-3.65,1.32-5.26l2.16-.22c-.51,1.87-1.47,4.31-2.09,5.35l-1.39.13Z"/>
  <path class="cls-1" d="M326.77,147.95c-.7.35-2.11.7-3.92.7-4.18,0-7.33-2.64-7.33-7.5s3.15-7.79,7.75-7.79c1.85,0,3.01.4,3.52.66l-.46,1.56c-.73-.35-1.76-.62-2.99-.62-3.48,0-5.79,2.22-5.79,6.12,0,3.63,2.09,5.96,5.7,5.96,1.17,0,2.35-.24,3.12-.62l.4,1.52Z"/>
  <path class="cls-1" d="M336.84,141.48h-5.76v5.35h6.42v1.61h-8.34v-14.83h8.01v1.61h-6.09v4.69h5.76v1.58Z"/>
  <path class="cls-1" d="M352.66,140.87c0,5.11-3.1,7.81-6.89,7.81s-6.67-3.04-6.67-7.53c0-4.71,2.93-7.79,6.89-7.79s6.67,3.1,6.67,7.5ZM341.15,141.11c0,3.17,1.72,6.01,4.73,6.01s4.75-2.79,4.75-6.16c0-2.95-1.54-6.03-4.73-6.03s-4.75,2.93-4.75,6.18Z"/>
  <path class="cls-1" d="M359.94,148.44v-9.18h-1.5v-1.47h1.5v-.51c0-1.5.33-2.86,1.23-3.72.73-.7,1.69-.99,2.6-.99.68,0,1.28.15,1.65.31l-.26,1.5c-.29-.13-.68-.24-1.23-.24-1.65,0-2.07,1.45-2.07,3.08v.57h2.57v1.47h-2.57v9.18h-1.91Z"/>
  <path class="cls-1" d="M375.52,143.02c0,3.94-2.73,5.66-5.3,5.66-2.88,0-5.1-2.11-5.1-5.48,0-3.57,2.33-5.66,5.28-5.66s5.13,2.22,5.13,5.48ZM367.07,143.13c0,2.33,1.34,4.09,3.24,4.09s3.23-1.74,3.23-4.14c0-1.8-.9-4.09-3.19-4.09s-3.28,2.11-3.28,4.14Z"/>
  <path class="cls-1" d="M393.05,147.95c-.7.35-2.11.7-3.92.7-4.18,0-7.33-2.64-7.33-7.5s3.15-7.79,7.75-7.79c1.85,0,3.01.4,3.52.66l-.46,1.56c-.73-.35-1.76-.62-2.99-.62-3.48,0-5.79,2.22-5.79,6.12,0,3.63,2.09,5.96,5.7,5.96,1.17,0,2.35-.24,3.12-.62l.4,1.52Z"/>
  <path class="cls-1" d="M396.22,143.46c.04,2.62,1.72,3.7,3.65,3.7,1.39,0,2.22-.24,2.95-.55l.33,1.39c-.68.31-1.85.66-3.54.66-3.28,0-5.24-2.16-5.24-5.37s1.89-5.74,5-5.74c3.48,0,4.4,3.06,4.4,5.02,0,.4-.04.7-.07.9h-7.48ZM401.9,142.08c.02-1.23-.51-3.15-2.68-3.15-1.96,0-2.82,1.8-2.97,3.15h5.66Z"/>
  <path class="cls-1" d="M406.16,141.11c0-1.25-.02-2.33-.09-3.32h1.69l.07,2.09h.09c.48-1.43,1.65-2.33,2.95-2.33.22,0,.38.02.55.07v1.83c-.2-.04-.4-.07-.66-.07-1.36,0-2.33,1.03-2.6,2.49-.04.26-.09.57-.09.9v5.68h-1.91v-7.33Z"/>
  <path class="cls-1" d="M416.22,134.73v3.06h2.77v1.47h-2.77v5.74c0,1.32.37,2.07,1.45,2.07.51,0,.88-.07,1.12-.13l.09,1.45c-.37.15-.97.26-1.72.26-.9,0-1.63-.29-2.09-.81-.55-.57-.75-1.52-.75-2.77v-5.81h-1.65v-1.47h1.65v-2.55l1.89-.51Z"/>
  <path class="cls-1" d="M421.17,132.81h1.94v15.62h-1.94v-15.62Z"/>
  <path class="cls-1" d="M428.51,134.79c.02.66-.46,1.19-1.23,1.19-.68,0-1.17-.53-1.17-1.19s.51-1.21,1.21-1.21,1.19.53,1.19,1.21ZM426.36,148.44v-10.65h1.94v10.65h-1.94Z"/>
  <path class="cls-1" d="M431.51,140.67c0-1.1-.02-2-.09-2.88h1.72l.11,1.76h.04c.53-1.01,1.76-2,3.52-2,1.47,0,3.76.88,3.76,4.53v6.36h-1.94v-6.14c0-1.72-.64-3.15-2.46-3.15-1.28,0-2.27.9-2.6,1.98-.09.24-.13.57-.13.9v6.4h-1.94v-7.77Z"/>
  <path class="cls-1" d="M452.89,137.79c-.04.77-.09,1.63-.09,2.93v6.18c0,2.44-.48,3.94-1.52,4.86-1.03.97-2.53,1.28-3.87,1.28s-2.68-.31-3.54-.88l.48-1.47c.7.44,1.8.84,3.12.84,1.98,0,3.43-1.03,3.43-3.72v-1.19h-.04c-.59.99-1.74,1.78-3.39,1.78-2.64,0-4.53-2.24-4.53-5.19,0-3.61,2.35-5.66,4.8-5.66,1.85,0,2.86.97,3.32,1.85h.04l.09-1.61h1.69ZM450.89,141.99c0-.33-.02-.62-.11-.88-.35-1.12-1.3-2.05-2.71-2.05-1.85,0-3.17,1.56-3.17,4.03,0,2.09,1.06,3.83,3.15,3.83,1.19,0,2.27-.75,2.68-1.98.11-.33.15-.7.15-1.03v-1.92Z"/>
</svg>