<?xml version="1.0" encoding="UTF-8"?>
<svg id="Layer_2" data-name="Layer 2" xmlns="http://www.w3.org/2000/svg" viewBox="0 0 253.78 101.46">
  <defs>
    <style>
      .cls-1 {
        fill: #577aac;
      }

      .cls-1, .cls-2, .cls-3, .cls-4, .cls-5, .cls-6 {
        stroke-width: 0px;
      }

      .cls-2 {
        fill: #04619b;
      }

      .cls-3 {
        fill: #f3a355;
      }

      .cls-4 {
        fill: #ef8a22;
      }

      .cls-5 {
        fill: #454444;
      }

      .cls-6 {
        fill: #fdfdfd;
      }
    </style>
  </defs>
  <g id="Layer_1-2" data-name="Layer 1">
    <g>
      <path class="cls-2" d="M66.09,0c.56.32,1.21.26,1.81.41,6.15,1.53,10.43,6.85,10.44,13.18.03,17.04.04,34.08,0,51.12-.02,7.62-6.08,13.54-13.71,13.54-16.89,0-33.79,0-50.68,0-7.22,0-12.72-4.7-13.83-11.83-.1-.62-.09-1.27-.09-1.9,0-16.9,0-33.8,0-50.7C.02,6.72,4.85,1.18,11.92.16c.12-.02.21-.04.25-.16h.66c.24.29.57.16.85.16,16.96,0,33.93,0,50.89,0,.29,0,.61.12.86-.16h.66ZM40.8,24.64c0-.47.01-.93,0-1.4-.09-3.52-2.75-6.18-6.15-6.17-3.43.02-6.04,2.74-6.05,6.34-.01,5.99,0,11.98,0,17.98,0,4.69-.04,9.39.02,14.08.04,3.26,2.69,5.84,5.94,5.94,3.11.1,5.89-2.26,6.15-5.42.28-3.38.06-6.79.1-10.18.03-2.04-.06-4.08.23-6.12.8-5.55,3.61-9.72,9.57-11.08,2.39-.55,3.87-2.13,4.32-4.59.82-4.54-3.27-8.14-7.58-6.63-1.62.57-2.8,1.72-3.84,3.04-1.03,1.3-1.79,2.75-2.7,4.21Z"/>
      <path class="cls-2" d="M241.47,0c1.37.38,2.79.54,4.09,1.16,5.17,2.45,8.11,6.53,8.15,12.23.12,17.17.07,34.35.03,51.52-.02,7.36-6.1,13.33-13.48,13.33-17.11.02-34.22.02-51.34,0-7.41,0-13.46-6.03-13.47-13.42-.02-17.12-.02-34.24,0-51.36,0-6.65,4.97-12.29,11.59-13.29.18-.03.4.05.51-.18h.66c.21.28.51.16.77.16,16.99,0,33.99,0,50.98,0,.28,0,.61.13.85-.16h.66ZM214.69,46.77c-.12-.26-.2-.42-.27-.6-2.22-5.99-4.42-11.99-6.66-17.97-.93-2.5-1.68-5.09-2.86-7.48-1.9-3.86-7.27-4.37-10-1.04-1.72,2.1-1.62,4.33-.6,6.67,3.6,8.29,7.18,16.58,10.78,24.87.94,2.17,1.83,4.37,2.88,6.49,2.49,4.99,8.05,4.91,10.83,2.84,1.44-1.07,2.35-2.54,3.05-4.15,3.23-7.46,6.47-14.91,9.69-22.37,1.24-2.88,2.61-5.72,3.66-8.68,1.57-4.42-1.73-8.37-6.39-7.78-2.5.32-3.92,1.97-4.76,4.2-1.78,4.71-3.54,9.44-5.3,14.16-1.34,3.58-2.68,7.17-4.05,10.84Z"/>
      <path class="cls-4" d="M153.86,0c.97.37,2.01.44,2.99.78,5.49,1.89,9.15,6.98,9.15,12.79,0,17.04,0,34.07,0,51.11,0,7.56-5.98,13.56-13.56,13.57-17.03.01-34.06.01-51.09,0-7.64,0-13.6-5.98-13.6-13.61,0-16.98,0-33.96,0-50.94,0-6.7,4.54-12.16,11.11-13.42.3-.06.67.03.91-.27h1c.21.26.51.16.77.16,16.96,0,33.92,0,50.89,0,.26,0,.56.11.77-.16h.66ZM108.27,24.51c-.08-.6-.13-1.08-.2-1.56-.35-2.45-2.36-4.54-4.66-4.87-2.36-.34-4.67,1.04-5.69,3.4-.41.95-.58,1.95-.58,2.98,0,10.38,0,20.77,0,31.15,0,.78.1,1.54.32,2.29.63,2.16,2.56,3.89,4.54,4.09,2.32.23,4.32-.87,5.44-3,.58-1.1.76-2.29.76-3.52,0-6.13,0-12.26,0-18.39,0-1.62.24-3.19.9-4.68,1.09-2.49,3.12-3.68,6.12-3.63,2.54.04,4.38,1.35,5.37,3.82.48,1.22.74,2.49.75,3.79.03,6.46.03,12.92.03,19.39,0,.75.1,1.49.32,2.2,1.11,3.53,4.87,5.14,7.84,3.3,2-1.24,2.85-3.17,2.85-5.47.01-6.08,0-12.15,0-18.23,0-1.44.14-2.86.56-4.25.88-2.89,3.01-4.54,5.97-4.56,3.15-.02,5.15,1.42,6.09,4.44.4,1.27.56,2.59.56,3.92,0,6.19,0,12.37,0,18.56,0,1.07.16,2.1.63,3.05.94,1.91,2.4,3.16,4.62,3.27,2.33.11,3.92-1.06,5.03-3.01.65-1.14.77-2.41.77-3.69,0-7.1.02-14.19,0-21.29,0-2.26-.15-4.52-.75-6.72-1.18-4.39-3.61-7.73-8.15-8.99-4.92-1.36-9.52-.55-13.59,2.67-1.28,1.01-2.36,2.22-3.41,3.5-.51-.8-.93-1.57-1.47-2.26-4.15-5.39-12.42-6.07-17.63-1.47-1.24,1.1-2.29,2.36-3.34,3.78Z"/>
      <path class="cls-1" d="M65.42,0c-.24.28-.57.16-.86.16-16.96,0-33.93,0-50.89,0-.29,0-.61.13-.85-.16h52.6Z"/>
      <path class="cls-1" d="M240.81,0c-.24.29-.57.16-.85.16-16.99,0-33.99,0-50.98,0-.26,0-.56.12-.77-.16h52.6Z"/>
      <path class="cls-3" d="M153.2,0c-.21.27-.51.16-.77.16-16.96,0-33.92,0-50.89,0-.26,0-.56.1-.77-.16h52.43Z"/>
      <path class="cls-5" d="M117.52,93.42c-1.11,1.65-2.11,3.1-3.06,4.57-.34.53-.53.57-.89.02-.94-1.46-1.91-2.89-2.89-4.35-.25.22-.13.49-.13.71-.01,2.07-.02,4.14,0,6.21,0,.52-.1.71-.67.7-1.32-.03-1.32,0-1.32-1.29,0-3.01.01-6.02-.01-9.03,0-.58.1-.77.75-.82,1.04-.08,1.66.25,2.15,1.19.63,1.19,1.47,2.27,2.17,3.42.34.56.51.46.81-.02.83-1.33,1.7-2.64,2.55-3.96.3-.47,1.92-.85,2.36-.55.17.11.14.29.14.45,0,3.37,0,6.74,0,10.11,0,.41-.14.5-.52.51-1.46.05-1.46.07-1.46-1.38,0-2.07,0-4.14,0-6.47Z"/>
      <path class="cls-5" d="M150.61,101.43c-3.32,0-5.72-2.42-5.71-5.77,0-3.22,2.55-5.68,5.86-5.66,3.25.02,5.73,2.48,5.74,5.71.02,3.24-2.55,5.73-5.89,5.73ZM147.01,95.71c0,2.22,1.61,3.9,3.73,3.89,2.06-.01,3.63-1.7,3.62-3.91,0-2.15-1.63-3.85-3.7-3.87-2.02-.02-3.65,1.72-3.65,3.89Z"/>
      <path class="cls-5" d="M127.4,101.43c-3.36,0-5.77-2.38-5.77-5.7,0-3.27,2.48-5.73,5.78-5.73,3.29,0,5.81,2.47,5.81,5.72,0,3.22-2.55,5.71-5.83,5.71ZM131.09,95.69c-.02-2.16-1.65-3.86-3.7-3.87-2.03-.01-3.69,1.74-3.68,3.89,0,2.2,1.65,3.9,3.76,3.89,2.06-.01,3.64-1.72,3.62-3.91Z"/>
      <path class="cls-5" d="M68.06,101.26c-.73,0-1.28-.02-1.83,0-.4.02-.65-.1-.88-.45-.61-.92-1.3-1.78-1.89-2.71-.34-.53-.72-.71-1.34-.69-1.53.05-1.53.01-1.53,1.57,0,.55-.04,1.11.01,1.66.05.53-.16.64-.65.63-1.33,0-1.33.02-1.33-1.34,0-3.01.01-6.02-.01-9.03,0-.55.1-.77.71-.75,1.49.05,2.98,0,4.48.02,2.73.05,4.32,1.91,3.79,4.4-.22,1.01-.79,1.79-1.74,2.17-.73.29-.64.56-.25,1.08.81,1.07,1.57,2.18,2.46,3.44ZM62.43,91.98c-.44,0-.88.02-1.32,0-.39-.03-.53.1-.52.5.03.91,0,1.82.01,2.72,0,.18-.06.44.24.43,1.26-.06,2.55.25,3.76-.23.74-.29,1.07-.91,1.03-1.71-.04-.82-.48-1.3-1.24-1.55-.65-.21-1.31-.14-1.97-.15Z"/>
      <path class="cls-5" d="M9.47,101.26c-.82,0-1.47-.01-2.12,0-.32.01-.41-.23-.55-.42-.64-.9-1.32-1.77-1.9-2.71-.35-.56-.77-.74-1.42-.72-1.48.05-1.48.01-1.48,1.54,0,.55-.03,1.11,0,1.66.04.49-.1.67-.63.66-1.35,0-1.35.02-1.35-1.33,0-2.98.01-5.97-.01-8.95,0-.61.09-.89.79-.84,1.7.12,3.41-.09,5.11.15,1.6.22,2.81,1.14,3.09,2.54.34,1.76-.31,3.26-1.82,3.95-.61.28-.63.45-.24.95.84,1.09,1.62,2.23,2.53,3.51ZM3.82,91.98c-.47,0-.94.01-1.4,0-.32-.01-.43.1-.43.42.02.94,0,1.87,0,2.81,0,.18-.04.43.25.42,1.23-.05,2.49.23,3.69-.21.78-.28,1.15-.9,1.11-1.74-.05-.82-.49-1.3-1.25-1.55-.65-.21-1.31-.14-1.97-.15Z"/>
      <path class="cls-5" d="M167.99,101.16c-.12.06-.14.08-.16.08-1.45.24-2.63-.06-3.28-1.55-.15-.35-.5-.61-.65-.95-.55-1.33-1.62-1.44-2.84-1.32-.37.04-.46.16-.46.5.02.88-.02,1.77.01,2.65.02.51-.08.73-.67.72-1.32-.03-1.32.01-1.32-1.28,0-3.03.01-6.07-.01-9.1,0-.57.14-.77.73-.73,1.82.1,3.65-.17,5.45.16,1.61.29,2.66,1.37,2.83,2.82.2,1.8-.43,3.03-2.04,3.74-.47.21-.43.33-.18.67.86,1.17,1.7,2.37,2.58,3.6ZM162.33,95.64c.74-.02,1.49.09,2.21-.21.73-.3,1.16-.99,1.09-1.77-.07-.8-.5-1.3-1.28-1.54-.6-.18-1.2-.15-1.81-.15q-1.94,0-1.94,1.97,0,1.69,1.72,1.7Z"/>
      <path class="cls-5" d="M29.14,95.01c.61,0,1.22.02,1.82,0,.44-.02.58.15.57.58-.02,1.24-.02,2.49,0,3.73,0,.32-.13.51-.37.69-1.93,1.42-4.06,1.85-6.34,1.1-2.57-.84-4.05-3.4-3.66-6.15.39-2.72,2.56-4.79,5.21-4.95,1.56-.1,3.02.19,4.31,1.13.36.26.54.47.12.81-.04.03-.07.08-.1.13-.46.77-.89.96-1.76.34-1.41-1-3.33-.73-4.5.41-1.27,1.23-1.56,3.37-.68,4.97.79,1.44,2.48,2.14,4.2,1.73.16-.04.32-.08.48-.13,1.05-.36,1.5-1.33,1.15-2.4-.09-.29-.29-.21-.46-.21-.61-.01-1.22-.03-1.82,0-.45.03-.6-.13-.55-.56.03-.22.02-.44,0-.66-.05-.43.11-.59.55-.57.61.03,1.22,0,1.82,0Z"/>
      <path class="cls-5" d="M11.22,95.67c0-1.63.01-3.26,0-4.89,0-.45.11-.63.6-.62,2.35.02,4.7.02,7.05,0,.49,0,.59.17.59.62,0,1.19.03,1.19-1.16,1.19-1.47,0-2.93.02-4.4,0-.5,0-.72.07-.72.66,0,2.12-.03,2.12,2.08,2.12.94,0,1.88.02,2.82,0,.48-.02.68.09.68.63,0,1.23.03,1.23-1.23,1.23s-2.49.02-3.73,0c-.47-.01-.6.14-.61.61-.05,2.25-.06,2.25,2.18,2.25,1.16,0,2.32.02,3.48-.01.5-.02.67.12.66.64,0,1.18.02,1.18-1.17,1.18-2.1,0-4.2-.02-6.3.01-.62.01-.86-.11-.84-.8.06-1.6.02-3.2.02-4.8Z"/>
      <path class="cls-5" d="M186.73,95.69c0-1.6.02-3.2,0-4.8,0-.5.07-.73.66-.73,2.32.04,4.64.04,6.96,0,.92-.02.55.61.6,1.02.06.45.09.84-.63.82-1.66-.05-3.32,0-4.97-.03-.49,0-.65.09-.66.62,0,2.16-.03,2.16,2.11,2.16.8,0,1.61.06,2.4-.02.81-.07,1.1.14,1.05,1.01-.04.66-.15.9-.86.87-1.35-.06-2.71,0-4.06-.03-.53-.02-.68.15-.63.65.07.71-.29,1.63.13,2.07.43.44,1.36.12,2.07.13,1.16.02,2.32.03,3.48,0,.52-.02.71.14.64.65-.03.24-.02.5,0,.74.02.31-.08.44-.41.44-2.49-.01-4.97-.01-7.46,0-.51,0-.41-.33-.41-.61,0-1.66,0-3.31,0-4.97Z"/>
      <path class="cls-5" d="M234.83,95.7c0-1.63.02-3.26-.01-4.89,0-.5.11-.66.64-.65,2.32.03,4.65.05,6.97,0,.97-.02.58.63.65,1.07.08.52-.03.8-.68.77-1.6-.05-3.21,0-4.81-.03-.58-.01-.81.08-.8.74.04,2.04,0,2.04,2.07,2.04.94,0,1.88.04,2.82-.01.57-.03.74.18.67.7-.03.19-.03.39,0,.58.07.49-.17.59-.61.59-1.41-.02-2.82.01-4.23-.02-.51-.01-.77.08-.7.66.08.7-.29,1.62.15,2.07.4.42,1.31.11,1.99.12,1.19.02,2.38.03,3.57,0,.53-.02.76.17.61.65-.13.39.47,1.14-.4,1.16-2.49.05-4.98,0-7.46.03-.51,0-.42-.31-.42-.6,0-1.66,0-3.31,0-4.97Z"/>
      <path class="cls-5" d="M197.13,95.73c0-1.63.02-3.26-.01-4.89-.01-.56.17-.69.7-.68,1.33.02,1.33,0,1.33,1.29,0,.88.02,1.77,0,2.65-.02.48.09.69.63.67,1.3-.04,2.6-.04,3.9,0,.58.02.68-.2.67-.71-.03-1.08.01-2.15-.02-3.23-.01-.49.1-.67.64-.67,1.35,0,1.35-.02,1.35,1.34,0,2.98-.03,5.97.02,8.95.01.72-.21.93-.87.82-.16-.03-.33-.03-.5,0-.52.08-.66-.14-.64-.64.04-1.13,0-2.26.02-3.4.01-.44-.08-.63-.58-.62-1.35.03-2.71.03-4.06,0-.44,0-.56.12-.55.56.03,1.16,0,2.32.02,3.48,0,.44-.08.62-.58.63-1.45.02-1.44.04-1.44-1.4,0-1.38,0-2.76,0-4.14Z"/>
      <path class="cls-5" d="M249.04,101.41c-1.51-.02-2.86-.47-4.08-1.36-.41-.3-.49-.54-.09-.89.12-.11.24-.24.32-.38.3-.5.58-.59,1.09-.16.89.75,1.96,1.08,3.15,1.01.92-.06,1.59-.52,1.66-1.2.1-.88-.51-1.23-1.19-1.45-.84-.27-1.7-.45-2.54-.72-1.82-.59-2.53-1.58-2.41-3.25.1-1.5,1.13-2.54,2.83-2.88,1.63-.32,3.1.09,4.5.94.45.28.46.52.13.88-.15.16-.28.34-.38.54-.22.42-.45.43-.84.16-.79-.53-1.65-.87-2.63-.83-.9.04-1.53.46-1.61,1.12-.11.88.47,1.24,1.16,1.46.81.26,1.64.45,2.45.72,1.99.67,2.76,1.76,2.51,3.51-.22,1.56-1.6,2.67-3.43,2.77-.19.01-.39,0-.58,0Z"/>
      <path class="cls-5" d="M42.5,101.41c-1.51,0-2.87-.46-4.1-1.34-.45-.33-.49-.59-.08-.96.16-.15.3-.32.43-.5.23-.34.43-.38.79-.09.97.79,2.09,1.21,3.37,1.1.87-.07,1.52-.53,1.6-1.18.1-.87-.49-1.24-1.18-1.46-.84-.27-1.71-.45-2.54-.72-1.83-.6-2.52-1.55-2.41-3.25.1-1.5,1.11-2.55,2.83-2.88,1.66-.32,3.16.08,4.56,1,.39.26.4.45.1.76-.11.12-.21.26-.28.41-.27.54-.57.67-1.13.27-.78-.55-1.68-.84-2.66-.73-.66.07-1.27.3-1.41,1.05-.16.81.32,1.24,1.02,1.47.84.27,1.69.49,2.53.76,2,.65,2.79,1.74,2.57,3.48-.21,1.6-1.61,2.73-3.49,2.82-.17,0-.33,0-.5,0Z"/>
      <path class="cls-5" d="M219.03,101.43c-3.53,0-6.06-2.81-5.74-6.29.31-3.34,3.38-5.65,6.76-5.09,1,.17,1.9.54,2.72,1.13.47.34.71.65.14,1.1-.02.02-.04.04-.05.06-.45.73-.86.83-1.64.23-1.58-1.22-3.62-.96-4.85.44-1.28,1.45-1.3,3.86-.05,5.33,1.22,1.43,3.19,1.66,4.86.58.16-.1.35-.2.47-.34.39-.48.67-.33,1.04.06.85.89.88.88-.11,1.63-1.07.82-2.27,1.21-3.56,1.15Z"/>
      <path class="cls-5" d="M185.08,90.15c-1.27,3.09-2.51,6.08-3.75,9.08-.15.36-.34.7-.43,1.07-.21.92-.79,1.12-1.64,1.01-.36-.05-.58-.08-.74-.47-1.4-3.44-2.83-6.87-4.25-10.3-.04-.1-.05-.21-.09-.33.1-.02.17-.05.25-.05q1.86-.07,2.55,1.66c.77,1.94,1.53,3.89,2.3,5.84.1.25.13.54.39.74.96-2.44,1.95-4.86,2.84-7.31.28-.77.66-1.04,1.42-.93.34.05.7,0,1.14,0Z"/>
      <path class="cls-5" d="M68.67,90.17c.78,0,1.4.02,2.03,0,.4-.02.51.27.66.51.9,1.41,1.8,2.83,2.75,4.33.85-1.34,1.71-2.57,2.45-3.87.44-.78.97-1.12,1.84-.97.29.05.6,0,.95,0-.04.5-.37.81-.59,1.16-1.06,1.64-2.14,3.27-3.24,4.89-.31.46-.45.91-.43,1.45.03.99-.01,1.99.02,2.98.01.44-.07.62-.58.62-1.45,0-1.57.02-1.42-1.4.22-2.13-.39-3.9-1.69-5.56-.99-1.27-1.79-2.68-2.74-4.15Z"/>
      <path class="cls-5" d="M88.97,100.14c-2.6,0-4.48-1.82-4.5-4.37-.03-2.54,1.92-4.49,4.5-4.5,2.57-.01,4.49,1.86,4.5,4.39.01,2.59-1.88,4.47-4.49,4.47ZM86.15,95.67c0,1.75,1.24,3.08,2.87,3.06,1.57-.02,2.8-1.33,2.81-2.97,0-1.72-1.28-3.08-2.89-3.06-1.58.02-2.77,1.3-2.78,2.98Z"/>
      <path class="cls-5" d="M140.07,96.67c0,1.3-.02,2.6.01,3.89.01.51-.09.72-.67.71-1.36-.02-1.36.01-1.36-1.32,0-2.4-.02-4.8.01-7.21,0-.58-.16-.78-.74-.74-.74.05-1.49-.02-2.24.02-.49.02-.65-.16-.6-.62.03-.25.02-.5,0-.74-.02-.34.09-.5.47-.5,2.71.01,5.42.01,8.13,0,.37,0,.49.14.47.49-.02.25-.03.5,0,.74.08.54-.17.65-.66.63-.74-.04-1.49.02-2.24-.02-.47-.02-.62.14-.61.61.03,1.35,0,2.71,0,4.06Z"/>
      <path class="cls-5" d="M53.3,96.7c0,1.3-.03,2.59.01,3.89.02.55-.16.69-.69.68-1.34-.02-1.34,0-1.34-1.34,0-2.37-.03-4.74.02-7.12.01-.68-.21-.85-.84-.81-.69.05-1.38-.02-2.07.02-.48.03-.65-.14-.59-.61.03-.22.03-.44,0-.66-.06-.48.14-.6.6-.6,2.6.02,5.19.02,7.79,0,.47,0,.65.14.6.61-.03.24-.03.5,0,.74.04.41-.14.52-.52.51-.77-.02-1.55.02-2.32-.02-.5-.03-.67.12-.66.64.04,1.35.01,2.7.01,4.05Z"/>
      <path class="cls-5" d="M225.22,95.76c0-1.63.02-3.26-.01-4.89,0-.52.1-.8.67-.7.03,0,.06,0,.08,0q1.23-.01,1.23,1.19c0,2.48.01,4.97-.01,7.45,0,.5.11.66.64.65,1.52-.04,3.04.01,4.56-.03.53-.01.64.16.64.65-.01,1.17.01,1.17-1.18,1.17-1.93,0-3.87-.02-5.8.01-.62.01-.86-.11-.83-.8.06-1.57.02-3.15.02-4.72Z"/>
      <path class="cls-5" d="M95.12,95.75c0-1.24.02-2.48-.01-3.73-.01-.47.13-.61.6-.6,1.74.03,3.48.03,5.22,0,.56-.01.63.23.62.69-.01.43,0,.73-.59.7-1.24-.05-2.49,0-3.73-.02-.41,0-.57.08-.59.54-.06,1.79-.08,1.79,1.73,1.79.64,0,1.27.03,1.91,0,.51-.03.74.09.7.66-.03.49,0,.88-.68.79-.38-.05-.77-.02-1.16,0-.8.03-1.83-.33-2.33.13-.51.48-.1,1.52-.16,2.31-.01.16-.02.33,0,.5.07.72-.46.51-.83.54-.4.03-.75.05-.72-.56.05-1.24.01-2.48.01-3.73Z"/>
      <path class="cls-5" d="M209.07,95.69c0-1.6.02-3.2-.01-4.79-.01-.56.11-.83.71-.73.19.03.39.03.58,0,.52-.07.72.1.71.67-.03,3.28-.02,6.55,0,9.83,0,.47-.13.6-.6.6-1.38,0-1.38.03-1.38-1.37,0-1.4,0-2.81,0-4.21Z"/>
      <path class="cls-5" d="M35.89,95.8c0,1.6-.02,3.2.01,4.79.01.54-.13.77-.68.67-.03,0-.06,0-.08,0q-1.23,0-1.23-1.19c0-3.03.02-6.06-.02-9.09,0-.65.15-.85.82-.82,1.17.05,1.17,0,1.17,1.18,0,1.49,0,2.98,0,4.46Z"/>
      <path class="cls-6" d="M40.8,24.64c.91-1.46,1.67-2.91,2.7-4.21,1.04-1.31,2.22-2.47,3.84-3.04,4.31-1.5,8.41,2.09,7.58,6.63-.45,2.46-1.93,4.04-4.32,4.59-5.96,1.37-8.77,5.54-9.57,11.08-.29,2.03-.21,4.08-.23,6.12-.04,3.39.18,6.8-.1,10.18-.26,3.16-3.04,5.52-6.15,5.42-3.25-.11-5.9-2.68-5.94-5.94-.06-4.69-.02-9.39-.02-14.08,0-5.99,0-11.98,0-17.98,0-3.6,2.62-6.32,6.05-6.34,3.4-.02,6.06,2.64,6.15,6.17.01.47,0,.93,0,1.4Z"/>
      <path class="cls-6" d="M214.69,46.77c1.37-3.67,2.71-7.25,4.05-10.84,1.77-4.72,3.53-9.44,5.3-14.16.84-2.23,2.27-3.88,4.76-4.2,4.66-.59,7.95,3.35,6.39,7.78-1.05,2.95-2.41,5.79-3.66,8.68-3.22,7.46-6.46,14.92-9.69,22.37-.7,1.61-1.61,3.08-3.05,4.15-2.79,2.06-8.35,2.15-10.83-2.84-1.06-2.12-1.94-4.32-2.88-6.49-3.6-8.29-7.18-16.58-10.78-24.87-1.02-2.34-1.12-4.57.6-6.67,2.73-3.33,8.1-2.82,10,1.04,1.18,2.4,1.92,4.98,2.86,7.48,2.24,5.98,4.44,11.98,6.66,17.97.06.17.15.34.27.6Z"/>
      <path class="cls-6" d="M108.27,24.51c1.05-1.42,2.1-2.68,3.34-3.78,5.21-4.6,13.48-3.92,17.63,1.47.53.69.95,1.47,1.47,2.26,1.06-1.28,2.13-2.49,3.41-3.5,4.08-3.21,8.68-4.03,13.59-2.67,4.53,1.26,6.96,4.6,8.15,8.99.59,2.2.74,4.46.75,6.72.02,7.1.01,14.19,0,21.29,0,1.28-.12,2.54-.77,3.69-1.1,1.95-2.7,3.12-5.03,3.01-2.21-.11-3.67-1.36-4.62-3.27-.47-.95-.64-1.98-.63-3.05,0-6.19,0-12.37,0-18.56,0-1.33-.16-2.65-.56-3.92-.94-3.02-2.94-4.46-6.09-4.44-2.96.02-5.1,1.66-5.97,4.56-.42,1.39-.56,2.81-.56,4.25,0,6.08,0,12.15,0,18.23,0,2.3-.85,4.23-2.85,5.47-2.97,1.84-6.73.23-7.84-3.3-.22-.71-.32-1.45-.32-2.2,0-6.46,0-12.92-.03-19.39,0-1.3-.26-2.58-.75-3.79-.98-2.47-2.83-3.78-5.37-3.82-3-.05-5.03,1.15-6.12,3.63-.65,1.49-.9,3.06-.9,4.68,0,6.13,0,12.26,0,18.39,0,1.23-.18,2.42-.76,3.52-1.12,2.13-3.12,3.23-5.44,3-1.98-.2-3.91-1.93-4.54-4.09-.22-.75-.32-1.51-.32-2.29,0-10.38,0-20.77,0-31.15,0-1.03.17-2.03.58-2.98,1.01-2.35,3.33-3.73,5.69-3.4,2.3.33,4.31,2.42,4.66,4.87.07.48.12.96.2,1.56Z"/>
    </g>
  </g>
</svg>