<?xml version="1.0" encoding="UTF-8" standalone="no"?>
<!DOCTYPE svg PUBLIC "-//W3C//DTD SVG 1.1//EN" "http://www.w3.org/Graphics/SVG/1.1/DTD/svg11.dtd">
<svg width="100%" height="100%" viewBox="0 0 4000 3000" version="1.1" xmlns="http://www.w3.org/2000/svg" xmlns:xlink="http://www.w3.org/1999/xlink" xml:space="preserve" xmlns:serif="http://www.serif.com/" style="fill-rule:evenodd;clip-rule:evenodd;stroke-linejoin:round;stroke-miterlimit:2;">
    <rect id="secure-1" serif:id="secure 1" x="0" y="0" width="4000" height="3000" style="fill:none;"/>
    <g id="secure-11" serif:id="secure 1">
        <rect x="0" y="0" width="4000" height="3000" style="fill:white;"/>
        <g id="back">
            <path d="M704.75,2588.41l2585.37,-0c188.872,-168.779 373.661,-576.52 231.417,-973.46c-97.744,-272.76 -431.058,-563.531 -853.683,-464.716c-346.026,80.905 -288.834,-454.136 -531.678,-627.079c-364.394,-259.506 -792.593,-117.579 -1002.58,141.943c-221.555,273.817 74.193,551.276 -353.861,786.713c-414.293,227.869 -491.587,834.861 -74.98,1136.6Z" style="fill:url(#_Linear1);"/>
            <path d="M3351.13,2601.41c-0,-7.175 -5.825,-13 -13,-13l-2688.56,-0c-7.175,-0 -13,5.825 -13,13c0,7.174 5.825,13 13,13l2688.56,-0c7.175,-0 13,-5.826 13,-13Z" style="fill:rgb(85,102,176);"/>
        </g>
        <g id="front">
            <g>
                <path d="M776.824,2299.16l0,287.46l780.794,3.001l0,-308.021l-780.794,17.56Z" style="fill:rgb(200,217,244);"/>
                <path d="M1557.62,2589.62l0,-308.021l-780.794,17.56l0,287.46l70.776,0c-0,0 -10.318,-112.657 38.704,-126.519c103.586,-29.292 461.196,-47.077 560.215,-25.991c57.3,12.202 51.852,155.511 51.852,155.511l59.247,-0Zm-326.359,-3.001l-33.209,0l18.221,-59.612l14.988,59.612Z" style="fill:rgb(165,191,236);"/>
                <path d="M1233.5,2586.12l-14.275,-84.863c-0.274,-1.632 -1.823,-2.735 -3.456,-2.46c-1.633,0.274 -2.735,1.823 -2.461,3.456l14.275,84.862c0.275,1.633 1.823,2.735 3.456,2.461c1.633,-0.275 2.736,-1.824 2.461,-3.456Z" style="fill:rgb(84,106,187);"/>
                <path d="M1042.53,1284.21l-10.709,274.501l243.376,0l-9.138,-170.042c-103.752,19.764 -162.125,-21.892 -206.381,-104.459l-17.148,-0Z" style="fill:rgb(252,189,209);"/>
                <path d="M1039.84,1353.21c36.473,47.327 113.936,123.616 230.578,116.532l-4.357,-81.07c-103.752,19.764 -162.125,-21.892 -206.381,-104.459l-17.148,-0l-2.692,68.997Z" style="fill:rgb(233,127,160);"/>
                <path d="M1036.5,1455.35c-0,0 116.561,87.523 170.336,83.886c63.15,-4.271 62.846,-71.963 62.846,-71.963c-0,-0 194.047,48.226 240.061,82.37c46.015,34.143 90.75,211.978 90.75,211.978l-13.944,537.533c-0,91.409 -756.155,107.466 -827.268,45.898c-65.206,-56.454 -0,-408.908 -0,-408.908c-0,-0 -105.264,-169.199 -61.447,-306.455c41.102,-128.749 338.666,-174.339 338.666,-174.339Z" style="fill:url(#_Linear2);"/>
                <path d="M1036.84,1455.61c0.774,0.577 2.852,2.116 6,4.387l0,29.495l43.73,0c3.147,1.983 6.381,3.991 9.679,6l-53.409,0l0,135.397l135.397,0l0,-95.783c2.033,0.596 4.035,1.136 6,1.615l0,94.168l135.397,0l0,-135.397l-55.228,0c0.724,-2.045 1.349,-4.055 1.888,-6l53.34,0l0,-9.013c1.964,0.541 3.966,1.094 6,1.66l0,7.353l25.924,0c6.624,1.92 13.433,3.925 20.339,6l-46.263,0l0,135.397l135.398,0l-0,-105.349c2.034,0.8 4.034,1.601 6,2.401l-0,102.948l91.311,0c0.804,1.989 1.6,3.988 2.392,6l-93.703,0l-0,135.398l133.186,-0l-0.156,6l-133.03,-0l-0,135.397l129.518,-0l-0.155,6l-129.363,-0l-0,135.397l125.85,-0l-0.155,6l-125.695,-0l-0,135.397l122.182,-0l-0.155,6l-122.027,-0l-0,135.397l65.391,0c-6.471,2.073 -13.445,4.072 -20.875,6l-44.516,0l-0,9.727c-1.989,0.369 -3.995,0.735 -6,1.093l-0,-10.82l-135.398,0l0,27.836c-1.987,0.172 -3.98,0.341 -6,0.511l0,-28.347l-135.397,0l0,36.163c-2.008,0.068 -4.017,0.135 -6,0.198l0,-36.361l-135.397,0l0,37.713l-1.709,-0.023c-0.74,-0.01 -1.48,-0.02 -2.22,-0.031l-2.071,-0.031l0,-37.628l-135.397,0l0,31.533c-2.016,-0.166 -4.017,-0.335 -6,-0.508l0,-31.025l-135.397,0l-0,1.82c-0.257,-0.206 -0.514,-0.421 -0.763,-0.636c-2.341,-2.027 -4.514,-4.435 -6.519,-7.184l1.282,0l-0,-135.397l-23.66,-0c0.029,-1.993 0.064,-3.994 0.107,-6l23.553,-0l-0,-135.397l-13.219,-0c0.239,-2.016 0.479,-4.019 0.72,-6l12.499,-0l-0,-88.207c3.105,-19.202 5.237,-30.723 5.237,-30.723c-0,-0 -1.961,-3.153 -5.237,-8.947l-0,-7.52l-4.16,-0c-1.007,-1.858 -2.076,-3.859 -3.2,-6l7.36,-0l-0,-135.397l-58.038,-0c-0.441,-1.994 -0.869,-3.997 -1.281,-6l59.319,-0l-0,-135.398l-58.363,0c0.562,-2.006 1.153,-4.006 1.777,-6l56.586,0l-0,-72.805c1.963,-1.484 3.959,-2.949 6,-4.405l-0,77.21l135.397,0l0,-135.397l-16.438,0c7.536,-2.646 15.035,-5.148 22.438,-7.508l0,1.508l135.397,0l0,-33.882Zm288.794,746.868l0,135.397l135.398,0l-0,-135.397l-135.398,-0Zm-141.397,-0l0,135.397l135.397,0l0,-135.397l-135.397,-0Zm-141.397,-0l0,135.397l135.397,0l0,-135.397l-135.397,-0Zm-141.397,-0l0,135.397l135.397,0l0,-135.397l-135.397,-0Zm-141.397,-0l-0,135.397l135.397,0l0,-135.397l-135.397,-0Zm282.794,-141.397l0,135.397l135.397,-0l0,-135.397l-135.397,-0Zm-282.794,-0l-0,135.397l135.397,-0l0,-135.397l-135.397,-0Zm141.397,-0l0,135.397l135.397,-0l0,-135.397l-135.397,-0Zm282.794,-0l0,135.397l135.397,-0l0,-135.397l-135.397,-0Zm141.397,-0l0,135.397l135.398,-0l-0,-135.397l-135.398,-0Zm-141.397,-141.397l0,135.397l135.397,-0l0,-135.397l-135.397,-0Zm-141.397,-0l0,135.397l135.397,-0l0,-135.397l-135.397,-0Zm-141.397,-0l0,135.397l135.397,-0l0,-135.397l-135.397,-0Zm-141.397,-0l-0,135.397l135.397,-0l0,-135.397l-135.397,-0Zm565.588,-0l0,135.397l135.398,-0l-0,-135.397l-135.398,-0Zm-565.588,-141.397l-0,135.397l135.397,-0l0,-135.397l-135.397,-0Zm141.397,-0l0,135.397l135.397,-0l0,-135.397l-135.397,-0Zm141.397,-0l0,135.397l135.397,-0l0,-135.397l-135.397,-0Zm141.397,-0l0,135.397l135.397,-0l0,-135.397l-135.397,-0Zm141.397,-0l0,135.397l135.398,-0l-0,-135.397l-135.398,-0Zm-141.397,-141.398l0,135.398l135.397,-0l0,-135.398l-135.397,0Zm-424.191,0l-0,135.398l135.397,-0l0,-135.398l-135.397,0Zm141.397,0l0,135.398l135.397,-0l0,-135.398l-135.397,0Zm141.397,0l0,135.398l135.397,-0l0,-135.398l-135.397,0Zm282.794,0l0,135.398l135.398,-0l-0,-135.398l-135.398,0Zm-424.191,-141.397l0,135.397l135.397,0l0,-135.397l-135.397,0Z" style="fill:url(#_Linear3);"/>
                <path d="M1265,1493.74c4.735,-14.323 4.68,-26.464 4.68,-26.464c-0,-0 194.047,48.226 240.061,82.37c32.997,24.484 65.336,122.859 80.994,176.565c-25.717,-56.067 -71.073,-141.848 -116.882,-165.303c-47.739,-24.444 -201.311,-70.909 -201.311,-70.909c-2.536,1.328 -5.046,2.572 -7.542,3.741Zm-570.955,149.344c1.112,-4.492 2.372,-8.958 3.787,-13.392c41.102,-128.749 338.666,-174.339 338.666,-174.339c-0,0 17.893,13.436 42.888,29.557c-6.897,-1.404 -13.973,-2.674 -21.264,-3.737c0,0 -213.539,8.976 -342.452,131.537l-21.625,30.374Z" style="fill:rgb(247,164,164);"/>
                <path d="M759.28,1936.15c-0,-0 157.377,-290.489 164.65,-283.152c85.064,85.807 181.788,209.725 181.788,209.725l279.013,-114.781l13.623,16.049c11.918,-5.691 19.305,-9.219 19.305,-9.219c-0,-0 24.241,-67.189 51.228,-71.507c26.988,-4.318 26.167,71.507 26.167,71.507c-0,-0 50.627,-19.833 63.22,-6.386c31.846,34.005 28.452,596.672 28.452,596.672l-94.809,3.507c0,-0 -1.073,-292.094 -12.977,-283.979c-97.74,66.635 -336.994,218.061 -467.982,199.723c-63.156,-8.842 -127.567,-45.616 -207.132,-117.547c-6.362,-5.752 -27.196,61.297 -23.896,135.246c1.168,26.172 7.626,52.782 13.724,77.678c-16.237,-4.262 -28.031,-9.136 -34.374,-14.628c-65.206,-56.454 -0,-408.908 -0,-408.908Z" style="fill:url(#_Linear4);"/>
                <path d="M1467.03,1772.28l99.568,-0c0.383,1.906 0.758,3.909 1.125,6l-100.693,-0l-0,135.397l112.557,-0c0.097,1.982 0.193,3.974 0.289,6l-112.846,-0l-0,135.397l117.317,-0l0.096,4.394l0.034,1.606l-117.447,-0l-0,11.57c-1.957,1.316 -3.957,2.656 -6,4.02l-0,-15.59l-135.398,-0l0,99.035c-1.995,1.122 -3.997,2.243 -6,3.358l0,-102.393l-135.397,-0l0,135.397l72.851,-0c-4.079,2.024 -8.167,4.025 -12.259,6l-60.592,-0l0,26.958c-2.004,0.809 -4.007,1.608 -6,2.395l0,-29.353l-135.397,-0l0,63.173c-2.016,0.085 -4.016,0.141 -6,0.168l0,-63.341l-135.397,-0l0,19.556c-1.993,-1.224 -3.994,-2.475 -6,-3.752l0,-15.804l-23.339,-0c-2.723,-1.952 -5.462,-3.951 -8.221,-6l31.56,-0l0,-135.397l-135.397,-0l-0,135.397l25.802,-0c-0.357,1.958 -0.705,3.958 -1.042,6l-24.76,-0l-0,135.397l28.405,0c0.455,2.007 0.919,4.007 1.388,6l-29.793,0l-0,1.82l-0.08,-0.065c0,0 -6.827,-7.24 -7.202,-7.755l1.282,0l-0,-135.397l-23.66,-0c0,-0 0.023,-1.465 0.023,-1.465l0.001,-0.102c0.024,-1.474 0.051,-2.952 0.083,-4.433l23.553,-0l-0,-135.397l-13.219,-0c0,-0 0.341,-2.859 0.341,-2.859l0.044,-0.37l0.335,-2.771l12.499,-0l-0,-88.207l6,-32.129l-0,120.336l135.397,-0l0,-135.397l-127.204,-0l1.398,-2.565l1.874,-3.435l123.932,-0l0,-135.397l-48.945,-0l1.815,-3.218l1.573,-2.782l45.557,-0l0,-78.646c2.085,-3.459 4.088,-6.752 6,-9.857l0,88.503l130.359,-0c3.774,4.456 7.458,8.833 11.038,13.106l0,128.291l135.397,-0l0,-80.792l6,-2.468l0,83.26l135.397,-0l0,-135.397l-8.659,-0l14.659,-6.031l0,0.031l135.398,-0l-0,-86.048c1.975,-1.161 3.978,-2.039 6,-2.576l-0,88.624Zm24.83,565.588l40.561,0c-6.471,2.073 -13.445,4.072 -20.875,6l-19.65,0l-0.014,-2.523l-0.022,-3.477Zm-2.143,-141.397l96.699,-0l0.043,5.395l0.004,0.605l-96.595,-0c-0.05,-1.999 -0.1,-3.996 -0.151,-6Zm-588.276,-135.397l0,135.397l135.397,-0l0,-135.397l-135.397,-0Zm141.397,-0l0,135.397l135.397,-0l0,-135.397l-135.397,-0Zm141.397,-141.397l0,135.397l135.397,-0l0,-135.397l-135.397,-0Zm-141.397,-0l0,135.397l135.397,-0l0,-135.397l-135.397,-0Zm-141.397,-0l0,135.397l135.397,-0l0,-135.397l-135.397,-0Zm424.191,-0l0,135.397l135.398,-0l-0,-135.397l-135.398,-0Zm-424.191,-141.397l0,135.397l135.397,-0l0,-135.397l-135.397,-0Zm424.191,-0l0,135.397l135.398,-0l-0,-135.397l-135.398,-0Z" style="fill:url(#_Linear5);"/>
                <path d="M1020.93,1465.67c0.007,0.008 35.135,37.143 83.065,65.714c33.238,19.813 72.524,35.222 110.697,33.059c87.847,-4.979 83.777,-96.3 83.777,-96.3c-0.397,-8.269 -7.433,-14.661 -15.703,-14.264c-8.269,0.397 -14.66,7.433 -14.263,15.702c0,0 3.272,61.579 -55.509,64.91c-32.377,1.835 -65.446,-12.071 -93.639,-28.876c-44.21,-26.354 -76.641,-60.57 -76.641,-60.57c-5.691,-6.012 -15.193,-6.272 -21.205,-0.58c-6.012,5.692 -6.271,15.194 -0.579,21.205Zm-0,0c-0,0 -0,0 -0,0Z" style="fill:rgb(161,18,24);"/>
                <g>
                    <path d="M1417.25,1069.4c0,-0 15.77,140.18 -34.69,180.023l-16.1,-153.888l50.79,-26.135Z" style="fill:rgb(114,52,29);"/>
                    <path d="M1069.63,1239.62c-11.441,-16.419 -49.015,-70.32 -84.347,-27.556c-39.95,48.354 25.851,103.716 67.269,80.333c0,0 20.148,73.821 84.892,105.666c89.185,43.867 200.079,10.841 229.017,-40.203c47.897,-84.482 25.294,-234.958 5.471,-254.781l-302.302,9.995l0,126.546Z" style="fill:rgb(252,189,209);"/>
                    <path d="M1166.78,1409.61c-23.042,-26.383 -59.607,-74.628 -45.675,-101.459c19.365,-37.294 16.327,-134.206 9.538,-150.354c-0,-0 51.492,9.464 74.463,-5.045c36.986,-23.36 84.846,-0.559 115.068,-0.758c24.333,-0.16 48.641,-6.258 66.144,-11.968c-4.182,-18.547 -9.375,-31.926 -14.39,-36.941l-302.302,9.995l0,126.546c-11.441,-16.419 -49.015,-70.32 -84.347,-27.556c-39.95,48.354 25.851,103.716 67.269,80.333c0,0 20.148,73.821 84.892,105.666c9.569,4.707 19.389,8.529 29.34,11.541Z" style="fill:rgb(251,160,184);"/>
                    <path d="M1043.32,1262.28c0.705,-6.204 -2.929,-13.447 -8.83,-18.677c-8.809,-7.81 -22.303,-11.071 -32.321,-0.564c-0.952,0.998 -0.915,2.582 0.084,3.534c0.999,0.952 2.582,0.915 3.535,-0.084c7.871,-8.256 18.463,-5.281 25.386,0.855c4.587,4.068 7.726,9.547 7.178,14.371c-0.156,1.371 0.83,2.611 2.201,2.767c1.371,0.155 2.611,-0.831 2.767,-2.202Z" style="fill:rgb(202,73,107);"/>
                    <ellipse cx="1203.12" cy="1241.13" rx="9.996" ry="17.709" style="fill:rgb(100,41,16);"/>
                    <ellipse cx="1321.59" cy="1241.13" rx="9.996" ry="17.709" style="fill:rgb(100,41,16);"/>
                    <path d="M1169.06,1206.77c-0,0 6.281,-5.141 16.32,-9.018c3.432,-1.326 7.321,-2.345 11.615,-3.134c1.878,-0.345 3.818,-0.705 5.856,-0.943c2.857,-0.334 5.838,-0.619 9.051,-0.516c4.856,0.157 10.038,0.639 15.721,2.35c2.17,0.957 4.709,-0.029 5.666,-2.199c0.957,-2.171 -0.028,-4.71 -2.199,-5.667c-7.466,-4.408 -14.549,-6.833 -21.29,-7.967c-3.262,-0.549 -6.415,-0.663 -9.443,-0.53c-2.175,0.096 -4.283,0.37 -6.291,0.812c-5.548,1.222 -10.449,3.304 -14.557,5.765c-11.379,6.814 -16.992,15.472 -16.992,15.472c-1.538,1.806 -1.322,4.521 0.484,6.059c1.805,1.538 4.52,1.322 6.059,-0.484Z" style="fill:rgb(162,82,22);"/>
                    <path d="M1362.2,1201.2c0,0 -5.613,-8.658 -16.991,-15.472c-4.109,-2.461 -9.01,-4.543 -14.558,-5.765c-2.008,-0.442 -4.116,-0.716 -6.291,-0.812c-3.028,-0.133 -6.18,-0.019 -9.443,0.53c-6.741,1.134 -13.823,3.559 -21.29,7.967c-2.171,0.957 -3.156,3.496 -2.199,5.667c0.957,2.17 3.496,3.156 5.666,2.199c5.683,-1.711 10.865,-2.193 15.722,-2.35c3.212,-0.103 6.193,0.182 9.05,0.516c2.038,0.239 3.978,0.598 5.857,0.943c4.293,0.789 8.182,1.808 11.614,3.134c10.039,3.877 16.32,9.018 16.32,9.018c1.539,1.806 4.254,2.022 6.059,0.484c1.806,-1.538 2.023,-4.253 0.484,-6.059Z" style="fill:rgb(162,82,22);"/>
                    <path d="M1264.75,1257.61c0,-0 10.276,39.048 18.889,58.367c-2.309,2.182 -6.371,3.179 -13.796,2.797c-2.755,-0.142 -5.108,1.98 -5.25,4.736c-0.142,2.756 1.981,5.109 4.737,5.251c15.351,0.789 21.289,-4.058 24.467,-9.761c0.798,-1.431 0.844,-3.163 0.122,-4.635c-8.568,-17.474 -19.496,-59.292 -19.496,-59.292c-0.7,-2.669 -3.435,-4.268 -6.105,-3.568c-2.669,0.7 -4.268,3.436 -3.568,6.105Z" style="fill:rgb(238,115,154);"/>
                    <path d="M1209.7,1365.41c-0,-0 5.285,8.876 17.29,12.517c7.596,2.304 18.016,2.579 31.597,-3.38c2.022,-0.886 2.943,-3.248 2.056,-5.27c-0.887,-2.021 -3.248,-2.942 -5.27,-2.056c-11.214,4.92 -19.789,4.953 -26.061,3.051c-8.797,-2.669 -12.778,-9.021 -12.778,-9.021c-1.148,-1.886 -3.611,-2.485 -5.497,-1.338c-1.885,1.148 -2.485,3.611 -1.337,5.497Z" style="fill:rgb(223,60,79);"/>
                    <path d="M1067.91,1238.32c-0,0 7.31,54.373 25.13,42.036c17.819,-12.337 18.276,-142.099 18.276,-142.099c0,-0 55.743,16.448 80.417,-0c24.673,-16.449 69.176,-9.595 98.875,-0c29.699,9.595 87.014,-4.661 104.376,-18.825c17.363,-14.164 48.799,-36.277 43.252,-67.503c-5.592,-31.481 -31.691,-41.386 -35.88,-64.967c-5.462,-30.75 15.071,-71.156 -38.237,-93.524c-43.579,-18.285 -98.71,26.275 -159.708,34.72c-51.735,7.162 -150.708,-43.361 -203.81,58.804c-49.435,18.747 -78.121,97.546 -23.997,240.265c13.852,-35.457 52.161,-49.633 91.306,11.093Z" style="fill:rgb(159,86,49);"/>
                    <path d="M1438.06,1050.98c0.062,0.315 0.121,0.634 0.178,0.955c5.547,31.226 -25.889,53.339 -43.252,67.503c-17.362,14.164 -74.677,28.42 -104.376,18.825c-29.699,-9.595 -74.202,-16.449 -98.875,-0c-24.674,16.448 -80.417,-0 -80.417,-0c0,-0 -0.457,129.762 -18.276,142.099c-17.82,12.337 -25.13,-42.036 -25.13,-42.036c-39.145,-60.726 -77.454,-46.55 -91.306,-11.093c-8.952,-23.605 -15.639,-45.462 -20.344,-65.606c27.616,-5.675 70.642,-8.193 107.223,17.284c-0,-0 25.743,-30.406 19.917,-80.198c-0,0 69.603,33.584 97.677,5.509c20.119,-20.118 93.995,-8.433 115.476,0c42.606,16.727 109.423,-10.987 141.505,-53.242Z" style="fill:rgb(138,64,35);"/>
                </g>
            </g>
            <g>
                <path d="M2960.71,829.533c0,-15.15 -12.299,-27.449 -27.449,-27.449l-860.065,0c-15.149,0 -27.448,12.299 -27.448,27.449l-0,1314.93c-0,15.15 12.299,27.449 27.448,27.449l860.065,-0c15.15,-0 27.449,-12.299 27.449,-27.449l0,-1314.93Z" style="fill:url(#_Linear6);"/>
                <path d="M2863.81,1987.35l-721.152,0l0,47.015l721.152,0l-0,-47.015Zm-0,-116.413l-721.152,0l0,47.015l721.152,0l-0,-47.015Zm-0,-116.413l-721.152,0l0,47.015l721.152,0l-0,-47.015Zm-0,-116.413l-721.152,0l0,47.015l721.152,0l-0,-47.015Zm-0,-116.413l-721.152,0l0,47.015l721.152,0l-0,-47.015Zm-0,-116.413l-721.152,-0l0,47.015l721.152,-0l-0,-47.015Zm-0,-116.413l-721.152,-0l0,47.015l721.152,-0l-0,-47.015Zm-0,-116.413l-721.152,-0l0,47.015l721.152,-0l-0,-47.015Zm-0,-116.413l-721.152,-0l0,47.015l721.152,-0l-0,-47.015Zm-0,-116.413l-721.152,-0l0,47.015l721.152,-0l-0,-47.015Z" style="fill:url(#_Linear7);"/>
                <path d="M2960.71,1319.52l-492.881,-0c-26.302,-0 -47.623,20.732 -47.623,46.306l-0,806.092l513.055,-0c15.15,-0 27.449,-12.299 27.449,-27.449l0,-824.949Z" style="fill:rgb(50,126,238);"/>
            </g>
            <g>
                <path d="M3312.14,1600.98l-247.577,-247.585l-551.454,-0c-24.891,-0 -45.069,20.178 -45.069,45.07c-0,193.346 -0,951.524 -0,1144.87c-0,24.891 20.178,45.07 45.069,45.07c146.4,-0 607.562,-0 753.961,-0c24.891,-0 45.07,-20.179 45.07,-45.07c-0,-150.601 -0,-640.229 -0,-942.356Z" style="fill:url(#_Linear8);"/>
                <path d="M3064.56,1353.4l247.577,247.585l0.286,17.955l-269.088,-0l-0,-265.54l21.225,-0Z" style="fill:rgb(227,162,34);"/>
                <path d="M2468.04,1653.07c199.708,-31.987 432.887,-31.779 626.14,54.185c53.87,23.963 82.459,86.911 83.167,126.977c6.482,340.461 -139.777,561.617 -430.143,735.914c-9.554,5.742 -25.417,12.399 -43.623,18.26l-125.235,-0c-43.839,-33.011 -72.815,-86.31 -110.306,-118.732l-0,-816.604Z" style="fill:url(#_Linear9);"/>
                <path d="M3188.35,2427.07l-596.523,-0l0,40.648l596.523,0l0,-40.648Zm0,-100.649l-596.523,-0l0,40.648l596.523,0l0,-40.648Zm0,-100.649l-596.523,-0l0,40.648l596.523,0l0,-40.648Zm0,-100.649l-596.523,0l0,40.648l596.523,0l0,-40.648Zm0,-100.649l-596.523,0l0,40.648l596.523,0l0,-40.648Zm0,-100.649l-596.523,0l0,40.649l596.523,-0l0,-40.649Zm0,-100.649l-596.523,0l0,40.649l596.523,-0l0,-40.649Zm0,-100.649l-596.523,0l0,40.649l596.523,-0l0,-40.649Zm0,-100.649l-596.523,0l0,40.649l596.523,-0l0,-40.649Zm0,-100.649l-596.523,0l0,40.649l596.523,-0l0,-40.649Z" style="fill:rgb(198,136,12);"/>
                <path d="M2940.44,2427.07c-14.792,13.848 -30.265,27.391 -46.412,40.648l-302.203,0l0,-40.648l348.615,-0Zm91.191,-100.649c-10.472,13.83 -21.502,27.37 -33.097,40.648l-406.709,0l0,-40.648l439.806,-0Zm63.61,-100.649c-7.139,13.81 -14.739,27.352 -22.807,40.648l-480.609,0l0,-40.648l503.416,-0Zm42.244,-100.649c-4.554,13.798 -9.495,27.348 -14.818,40.648l-530.842,0l0,-40.648l545.66,0Zm25.544,-100.649c-2.524,13.775 -5.376,27.323 -8.551,40.648l-562.653,0l0,-40.648l571.204,0Zm12.326,-100.649c-0.909,13.771 -2.101,27.332 -3.571,40.649l-579.959,-0l0,-40.649l583.53,0Zm1.156,-100.649c0.492,3.834 0.77,7.537 0.833,11.063c0.19,9.975 0.248,19.848 0.177,29.586l-585.696,-0l0,-40.649l584.686,0Zm-57.106,-100.649c14.446,11.315 26.267,25.537 35.376,40.649l-562.956,-0l0,-40.649l527.58,0Zm-527.58,-84.393c121.885,-9.799 250.087,-5.152 370.276,24.393l-370.276,-0l0,-24.393Z" style="fill:rgb(198,121,12);"/>
                <rect x="3043.34" y="1521.23" width="145.014" height="40.648" style="fill:rgb(170,108,13);"/>
                <path d="M3064.56,1353.4l247.577,247.585l-247.577,-0l-0,-247.585Z" style="fill:rgb(255,232,185);"/>
            </g>
            <g>
                <path d="M2563.04,1821.24l-0,-640.921c-0,-267.035 -216.475,-483.51 -483.51,-483.51l-0.001,0c-267.035,0 -483.51,216.475 -483.51,483.51l-0,640.921l150,-0l-0,-640.921c-0,-184.192 149.317,-333.51 333.51,-333.51l0.001,0c184.192,0 333.51,149.318 333.51,333.51c-0,0 -0,640.921 -0,640.921l150,-0Z" style="fill:rgb(131,155,216);"/>
                <path d="M2079.53,846.812l1.08,0.002c183.71,0.596 332.431,149.684 332.431,333.508c-0,0 -0,640.921 -0,640.921l49.436,-0c-0,-0 -0,-346.208 -0,-640.921c-0,-159.71 -152.804,-368.672 -382.946,-368.672c-0,0 -0.001,0 -0.001,0c-168.028,0 -378.868,116.73 -378.868,368.672c0,294.713 0,640.921 0,640.921l45.358,-0l-0,-640.921c-0,-184.192 149.317,-333.51 333.51,-333.51Z" style="fill:rgb(103,123,198);"/>
                <path d="M1628.1,1821.24c-0,-0 -0,-0 -0,-640.921c-0,-227.456 169.683,-458.312 456.906,-458.312c0,0 0.001,0 0.001,0c252.342,0 438.222,206.663 456.903,458.312l0,640.921l21.124,-0l-0,-640.921c-0,-267.035 -216.475,-483.51 -483.51,-483.51l-0.001,0c-267.035,0 -483.51,216.475 -483.51,483.51l-0,640.921l32.087,-0Z" style="fill:rgb(173,196,233);"/>
                <path d="M2651.44,1765.14c0,-29.002 -23.546,-52.548 -52.549,-52.548l-1038.73,-0c-29.002,-0 -52.549,23.546 -52.549,52.548l0,770.717c0,29.002 23.547,52.549 52.549,52.549l1038.73,-0c29.003,-0 52.549,-23.547 52.549,-52.549l0,-770.717Z" style="fill:url(#_Linear10);"/>
                <path d="M1639.53,1712.6l-79.368,-0c-29.002,-0 -52.549,23.546 -52.549,52.548l0,770.717c0,29.002 23.547,52.549 52.549,52.549l79.368,-0c4.647,-0 8.42,-3.773 8.42,-8.421l0,-858.973c0,-4.647 -3.773,-8.42 -8.42,-8.42Z" style="fill:url(#_Linear11);"/>
                <path d="M2598.89,1712.6l-419.9,-0c-0,-0 -47.053,28.184 -53.809,59.974c-53.909,253.694 154.536,728.588 389.611,815.84l84.098,-0c29.003,-0 52.549,-23.547 52.549,-52.549l0,-770.717c0,-29.002 -23.546,-52.548 -52.549,-52.548Z" style="fill:url(#_Linear12);"/>
                <path d="M2023.4,2112.62c-19.017,-16.147 -31.093,-40.227 -31.093,-67.105c-0,-48.569 39.431,-88 88,-88c48.569,-0 88.001,39.431 88.001,88c0,27.485 -12.628,52.045 -32.39,68.185l32.39,129.559l-177.567,0l32.659,-130.639Z" style="fill:rgb(174,196,254);"/>
            </g>
            <g>
                <path d="M2186.55,1829.87c-1.921,-42.413 24.375,-81.006 64.551,-94.735c272.035,-93.43 544.073,-93.191 816.111,1.607c37.855,13.143 63.488,48.511 64.195,88.576c6.483,340.461 -134.976,570.821 -425.342,745.118c-30.456,18.303 -68.552,18.192 -98.9,-0.289c-286.08,-173.977 -406.152,-409.26 -420.615,-740.277Z" style="fill:url(#_Linear13);"/>
                <path d="M2285.22,1871.27c-1.52,-34.001 19.285,-64.939 51.069,-75.946c215.221,-74.9 430.444,-74.707 645.666,1.289c29.949,10.536 50.228,38.889 50.788,71.009c5.129,272.936 -106.787,457.608 -336.509,597.336c-24.095,14.673 -54.235,14.584 -78.245,-0.231c-226.331,-139.472 -321.326,-328.091 -332.769,-593.457Z" style="fill:url(#_Linear14);"/>
                <path d="M2285.22,1871.27c-1.52,-34.001 19.285,-64.939 51.069,-75.946c215.221,-74.9 430.444,-74.707 645.666,1.289c29.949,10.536 50.228,38.889 50.788,71.009c5.129,272.936 -106.787,457.608 -336.509,597.336c-24.095,14.673 -54.235,14.584 -78.245,-0.231c-226.331,-139.472 -321.326,-328.091 -332.769,-593.457Zm721.922,-7.758c-9.317,-109.235 -624.688,-139.127 -683.38,-16.586c-62.99,131.516 165.642,620.07 335.265,587.706c203.573,-38.843 364.148,-383.149 348.115,-571.12Z" style="fill:rgb(0,121,119);"/>
                <path d="M2624.78,2125.02l173.073,-173.073l69.791,69.792l-241.585,241.585l-1.279,-1.278l-1.278,1.278l-173.073,-173.072l69.792,-69.792l104.559,104.56Z" style="fill:rgb(222,252,244);"/>
            </g>
            <path d="M1356.41,1790.72c6.477,-2.698 62.788,-29.734 62.788,-29.734c0,0 21.475,-66.881 48.463,-71.199c26.988,-4.318 17.869,71.199 17.869,71.199c0,0 60.154,-29.052 72.747,-15.605c31.846,34.005 26.808,141.444 17.823,161.386c-11.085,24.602 -135.374,45.339 -135.374,45.339c0,0 -90.793,-158.687 -84.316,-161.386Z" style="fill:rgb(252,189,209);"/>
            <path d="M1581.95,1873.52c-0.139,1.819 -0.291,3.591 -0.456,5.312l-80.587,22.182c-1.33,0.366 -2.708,-0.416 -3.074,-1.747c-0.366,-1.33 0.417,-2.707 1.747,-3.073l82.37,-22.674Zm0.302,-46.666c0.104,1.708 0.195,3.414 0.273,5.111l-90.032,24.783c-1.331,0.366 -2.708,-0.417 -3.074,-1.747c-0.366,-1.331 0.416,-2.708 1.747,-3.074l91.086,-25.073Zm-6.443,-44.507c0.405,1.601 0.791,3.225 1.158,4.867l-91.791,25.267c-1.331,0.366 -2.708,-0.417 -3.074,-1.747c-0.366,-1.33 0.417,-2.708 1.747,-3.074l91.96,-25.313Z" style="fill:rgb(225,118,149);"/>
            <path d="M1407.14,1766.77c14.223,25.31 71.532,127.201 97.428,171.819c-32.576,8.308 -63.848,13.525 -63.848,13.525c0,0 -70.646,-123.474 -82.86,-154.444l-0.361,-7.417c6.968,-3.096 33.742,-15.874 49.641,-23.483Z" style="fill:rgb(250,153,184);"/>
            <path d="M861.749,1598.05c97.294,59.843 231.643,294.756 231.643,294.756l287.498,-139.701l116.477,254.59c0,0 -315.525,219.961 -482.85,196.535c-124.055,-17.368 -290.066,-259.899 -339.741,-375.271c-69.161,-160.633 58.571,-309.887 186.973,-230.909Z" style="fill:url(#_Linear15);"/>
            <path d="M760.043,1580.16l-0,47.722l135.397,0l0,-3.858c3.474,3.15 6.967,6.446 10.461,9.858l-4.461,0l0,135.398l113.593,-0c1.385,2.008 2.758,4.009 4.118,6l-117.711,-0l0,135.397l135.397,-0l0,-109.023c2.042,3.101 4.044,6.161 6,9.169l0,99.854l135.397,-0l0,-59.103l6,-2.916l0,62.019l135.397,-0l0,-127.811l6,-2.916l0,130.727l127.352,-0l2.745,6l-130.097,-0l0,135.397l103.131,-0c-3.182,1.957 -6.452,3.956 -9.819,6l-93.312,-0l0,53.023l-2.279,1.202c-0.776,0.407 -1.552,0.814 -2.328,1.221l-1.393,0.729l0,-56.175l-135.397,-0l0,117.134c-2.003,0.73 -4.006,1.451 -6,2.16l0,-119.294l-135.397,-0l0,135.397l83.525,-0c-8.757,2.283 -17.413,4.295 -25.934,6l-57.591,-0l0,6.491c-2.015,0.017 -4.016,0.007 -6,-0.03l0,-6.461l-42.837,-0c-5.236,-1.665 -10.527,-3.673 -15.859,-6l58.696,-0l0,-135.397l-135.397,-0l0,84.199c-1.996,-1.735 -3.992,-3.496 -6,-5.296l0,-78.903l-74.786,-0c-1.648,-1.988 -3.29,-3.985 -4.934,-6l79.72,-0l0,-135.397l-135.397,-0l-0,60.897c-2.022,-2.943 -4.023,-5.885 -6,-8.819l-0,-52.078l-33.161,-0c-1.205,-2.011 -2.397,-4.013 -3.571,-6l36.732,-0l-0,-135.397l-95.447,-0c-0.352,-2.012 -0.675,-4.017 -0.967,-6l96.414,-0l-0,-135.398l-67.636,0c1.421,-2.043 2.883,-4.042 4.389,-6l63.247,0l-0,-45.95c1.984,-0.644 3.986,-1.235 6,-1.772Zm141.397,336.517l0,135.397l135.397,-0l0,-135.397l-135.397,-0Zm141.397,-0l0,135.397l135.397,-0l0,-135.397l-135.397,-0Zm141.397,-0l0,135.397l135.397,-0l0,-135.397l-135.397,-0Zm276.795,115.107l-0,-103.522l6,13.114l-0,86.534l-2.316,1.499c-0.838,0.541 -1.676,1.082 -2.515,1.623l-1.169,0.752Zm-700.986,-256.504l-0,135.397l135.397,-0l0,-135.397l-135.397,-0Zm630.995,-0l-55.795,-0l12.348,-6l40.702,-0l2.745,6Zm-630.995,-141.398l-0,135.398l135.397,-0l0,-135.398l-135.397,0Z" style="fill:url(#_Linear16);"/>
            <path d="M1319.75,1782.81l61.137,-29.708l116.477,254.59c0,0 -22.041,15.365 -57.555,37.538l-120.059,-262.42Z" style="fill:rgb(255,246,249);"/>
            <path d="M1092.04,1890.13l-70.652,35.632c-1.478,0.746 -2.073,2.551 -1.327,4.03c0.745,1.478 2.551,2.073 4.029,1.327l70.652,-35.632c1.479,-0.746 2.074,-2.551 1.328,-4.03c-0.746,-1.478 -2.551,-2.073 -4.03,-1.327Z" style="fill:rgb(145,10,15);"/>
            <path d="M751.167,1972.51c0,-0 52.114,82.319 120.858,149.741c46.222,45.333 100.013,83.794 150.542,86.72c74.088,4.289 165.298,-25.717 248.05,-63.379c123.69,-56.294 228.469,-129.549 228.469,-129.549c1.357,-0.948 1.689,-2.82 0.74,-4.177c-0.949,-1.357 -2.821,-1.689 -4.178,-0.74c0,-0 -104.343,72.946 -227.516,129.005c-81.823,37.239 -171.963,67.091 -245.218,62.85c-49.311,-2.856 -101.58,-40.774 -146.688,-85.014c-68.251,-66.938 -119.989,-148.666 -119.989,-148.666c-0.886,-1.399 -2.741,-1.816 -4.14,-0.931c-1.399,0.886 -1.815,2.741 -0.93,4.14Z" style="fill:rgb(145,10,15);"/>
        </g>
    </g>
    <defs>
        <linearGradient id="_Linear1" x1="0" y1="0" x2="1" y2="0" gradientUnits="userSpaceOnUse" gradientTransform="matrix(1.15851e-13,1891.99,-1891.99,1.15851e-13,1882.91,696.418)"><stop offset="0" style="stop-color:rgb(228,237,253);stop-opacity:1"/><stop offset="1" style="stop-color:white;stop-opacity:1"/></linearGradient>
        <linearGradient id="_Linear2" x1="0" y1="0" x2="1" y2="0" gradientUnits="userSpaceOnUse" gradientTransform="matrix(4.87437e-14,796.045,-796.045,4.87437e-14,1283.51,1549.65)"><stop offset="0" style="stop-color:rgb(248,109,115);stop-opacity:1"/><stop offset="1" style="stop-color:rgb(234,102,128);stop-opacity:1"/></linearGradient>
        <linearGradient id="_Linear3" x1="0" y1="0" x2="1" y2="0" gradientUnits="userSpaceOnUse" gradientTransform="matrix(4.83253e-14,795.623,-789.212,4.87179e-14,1285.96,1549.85)"><stop offset="0" style="stop-color:rgb(249,135,140);stop-opacity:1"/><stop offset="1" style="stop-color:rgb(240,142,162);stop-opacity:1"/></linearGradient>
        <linearGradient id="_Linear4" x1="0" y1="0" x2="1" y2="0" gradientUnits="userSpaceOnUse" gradientTransform="matrix(4.57124e-14,607.321,-746.54,3.71877e-14,1289.57,1724.8)"><stop offset="0" style="stop-color:rgb(229,86,92);stop-opacity:1"/><stop offset="1" style="stop-color:rgb(209,47,96);stop-opacity:1"/></linearGradient>
        <linearGradient id="_Linear5" x1="0" y1="0" x2="1" y2="0" gradientUnits="userSpaceOnUse" gradientTransform="matrix(4.56882e-14,568.834,-746.145,3.4831e-14,1289.35,1751.04)"><stop offset="0" style="stop-color:rgb(233,115,120);stop-opacity:1"/><stop offset="1" style="stop-color:rgb(228,91,132);stop-opacity:1"/></linearGradient>
        <linearGradient id="_Linear6" x1="0" y1="0" x2="1" y2="0" gradientUnits="userSpaceOnUse" gradientTransform="matrix(5.6726e-14,926.406,-926.406,5.6726e-14,2307.2,694.276)"><stop offset="0" style="stop-color:rgb(136,214,250);stop-opacity:1"/><stop offset="1" style="stop-color:rgb(54,115,236);stop-opacity:1"/></linearGradient>
        <linearGradient id="_Linear7" x1="0" y1="0" x2="1" y2="0" gradientUnits="userSpaceOnUse" gradientTransform="matrix(4.47101e-14,740.359,-730.171,4.53339e-14,2348.72,853.477)"><stop offset="0" style="stop-color:rgb(95,131,227);stop-opacity:1"/><stop offset="1" style="stop-color:rgb(45,83,180);stop-opacity:1"/></linearGradient>
        <linearGradient id="_Linear8" x1="0" y1="0" x2="1" y2="0" gradientUnits="userSpaceOnUse" gradientTransform="matrix(5.11379e-14,835.145,-835.145,5.11379e-14,3229.03,1600.98)"><stop offset="0" style="stop-color:rgb(250,211,81);stop-opacity:1"/><stop offset="1" style="stop-color:rgb(245,186,67);stop-opacity:1"/></linearGradient>
        <linearGradient id="_Linear9" x1="0" y1="0" x2="1" y2="0" gradientUnits="userSpaceOnUse" gradientTransform="matrix(4.44609e-14,726.102,-789.35,4.83338e-14,3107.7,1741.61)"><stop offset="0" style="stop-color:rgb(242,180,6);stop-opacity:1"/><stop offset="1" style="stop-color:rgb(225,147,12);stop-opacity:1"/></linearGradient>
        <linearGradient id="_Linear10" x1="0" y1="0" x2="1" y2="0" gradientUnits="userSpaceOnUse" gradientTransform="matrix(4.68804e-14,765.615,-765.615,4.68804e-14,1877.81,1712.6)"><stop offset="0" style="stop-color:rgb(30,45,146);stop-opacity:1"/><stop offset="1" style="stop-color:rgb(21,27,109);stop-opacity:1"/></linearGradient>
        <linearGradient id="_Linear11" x1="0" y1="0" x2="1" y2="0" gradientUnits="userSpaceOnUse" gradientTransform="matrix(5.75176e-15,765.615,-93.9334,4.68804e-14,1553.03,1712.6)"><stop offset="0" style="stop-color:rgb(47,79,183);stop-opacity:1"/><stop offset="1" style="stop-color:rgb(27,45,147);stop-opacity:1"/></linearGradient>
        <linearGradient id="_Linear12" x1="0" y1="0" x2="1" y2="0" gradientUnits="userSpaceOnUse" gradientTransform="matrix(2.19207e-14,765.615,-357.992,4.68804e-14,2289.7,1712.6)"><stop offset="0" style="stop-color:rgb(26,46,127);stop-opacity:1"/><stop offset="1" style="stop-color:rgb(17,21,87);stop-opacity:1"/></linearGradient>
        <linearGradient id="_Linear13" x1="0" y1="0" x2="1" y2="0" gradientUnits="userSpaceOnUse" gradientTransform="matrix(4.63612e-14,757.136,-757.136,4.63612e-14,2659.03,1718.76)"><stop offset="0" style="stop-color:rgb(85,239,196);stop-opacity:1"/><stop offset="1" style="stop-color:rgb(81,243,162);stop-opacity:1"/></linearGradient>
        <linearGradient id="_Linear14" x1="0" y1="0" x2="1" y2="0" gradientUnits="userSpaceOnUse" gradientTransform="matrix(3.1984e-14,522.338,-522.338,3.1984e-14,2659.03,1871.23)"><stop offset="0" style="stop-color:rgb(0,145,140);stop-opacity:1"/><stop offset="1" style="stop-color:rgb(0,114,116);stop-opacity:1"/></linearGradient>
        <linearGradient id="_Linear15" x1="0" y1="0" x2="1" y2="0" gradientUnits="userSpaceOnUse" gradientTransform="matrix(4.49392e-14,541.066,-733.913,3.31307e-14,1205.13,1640.35)"><stop offset="0" style="stop-color:rgb(248,109,115);stop-opacity:1"/><stop offset="1" style="stop-color:rgb(242,94,123);stop-opacity:1"/></linearGradient>
        <linearGradient id="_Linear16" x1="0" y1="0" x2="1" y2="0" gradientUnits="userSpaceOnUse" gradientTransform="matrix(4.83253e-14,795.623,-789.212,4.87179e-14,1285.96,1546.85)"><stop offset="0" style="stop-color:rgb(249,135,140);stop-opacity:1"/><stop offset="1" style="stop-color:rgb(240,142,162);stop-opacity:1"/></linearGradient>
    </defs>
</svg>
