<?xml version="1.0" encoding="UTF-8"?>
<svg xmlns="http://www.w3.org/2000/svg" version="1.1" viewBox="0 0 800 400">
  <defs>
    <style>
      .cls-1 {
        fill: #fff;
      }

      .cls-2 {
        fill: #6789b6;
      }

      .cls-3 {
        fill: #606161;
      }

      .cls-4 {
        fill: #1a406e;
      }

      .cls-5 {
        fill: #3cb54a;
      }

      .cls-6 {
        fill: #dcdcdc;
      }

      .cls-7 {
        fill: #e03989;
      }
    </style>
  </defs>
  <!-- Generator: Adobe Illustrator 28.7.4, SVG Export Plug-In . SVG Version: 1.2.0 Build 166)  -->
  <g>
    <g id="Layer_1">
      <g>
        <path class="cls-6" d="M786.35,35.95v327.31c0,15.69-13.33,28.41-29.76,28.41h-460.18c-16.43,0-29.76-12.72-29.76-28.41V35.95c0-15.69,13.33-28.41,29.76-28.41h460.18c16.43,0,29.76,12.72,29.76,28.41Z"/>
        <path class="cls-4" d="M786.35,71.56v291.7c0,15.69-13.33,28.41-29.76,28.41h-460.18c-16.43,0-29.76-12.72-29.76-28.41V71.56h519.7Z"/>
        <rect class="cls-1" x="300.18" y="103.57" width="452.64" height="256.09" rx="1.37" ry="1.37"/>
        <rect class="cls-4" x="291.8" y="31.55" width="16.76" height="16.01"/>
        <rect class="cls-4" x="325.33" y="31.55" width="16.76" height="16.01"/>
        <rect class="cls-4" x="358.85" y="31.55" width="16.76" height="16.01"/>
      </g>
      <g>
        <circle class="cls-4" cx="134.96" cy="201.59" r="118.08"/>
        <path class="cls-1" d="M105.03,228.99c3.59,1.86,11.84,5.32,20.08,5.32,10.51,0,15.83-5.05,15.83-11.57,0-8.51-8.51-12.37-17.42-12.37h-8.25v-14.5h7.85c6.78-.13,15.43-2.66,15.43-9.97,0-5.19-4.26-9.04-12.77-9.04-7.05,0-14.5,3.06-18.09,5.19l-4.12-14.63c5.19-3.32,15.56-6.52,26.73-6.52,18.49,0,28.73,9.71,28.73,21.55,0,9.18-5.19,16.36-15.83,20.08v.27c10.37,1.86,18.75,9.71,18.75,21.01,0,15.29-13.43,26.47-35.38,26.47-11.17,0-20.61-2.93-25.67-6.12l4.12-15.16Z"/>
      </g>
      <g>
        <path class="cls-2" d="M332.89,147.47v-3.51c-2.48-.11-4.88-.78-6.29-1.59l1.11-4.33c1.55.85,3.74,1.63,6.14,1.63,2.11,0,3.55-.81,3.55-2.29s-1.18-2.29-3.92-3.22c-3.96-1.33-6.66-3.18-6.66-6.77,0-3.26,2.29-5.81,6.25-6.59v-3.52h3.63v3.26c2.48.11,4.14.63,5.37,1.22l-1.07,4.18c-.96-.41-2.66-1.26-5.33-1.26-2.41,0-3.18,1.04-3.18,2.07,0,1.22,1.29,2,4.44,3.18,4.4,1.55,6.18,3.59,6.18,6.92s-2.33,6.11-6.59,6.85v3.77h-3.63Z"/>
        <path class="cls-2" d="M346.98,144.26v-3c1.96-.81,4.14-2.92,4.14-5.44,0-.52-.04-.96-.11-1.48h-3.63v-3.81h2.96c-.18-.93-.3-2-.3-3,0-4.66,3.4-7.73,8.36-7.73,2.04,0,3.55.44,4.37.89l-.93,4.25c-.7-.41-1.74-.67-3.11-.67-2.63,0-3.44,1.7-3.44,3.48,0,.96.11,1.85.33,2.78h5.07v3.81h-4.59c.04.93-.04,1.78-.33,2.63-.33.92-.92,1.85-1.81,2.63v.07h9.88v4.59h-16.87Z"/>
        <path class="cls-2" d="M385.09,143.26c-1.26.7-3.4,1.41-5.77,1.41-3.63,0-6.96-1.48-9.03-4.22-1-1.26-1.74-2.85-2.07-4.81h-2.41v-2.63h2.04v-.63c0-.37.04-.74.04-1.11h-2.07v-2.63h2.48c.48-2,1.37-3.7,2.55-5.07,2.11-2.37,5.07-3.77,8.55-3.77,2.26,0,4.22.52,5.55,1.11l-1.04,4.22c-.96-.41-2.48-.89-4.11-.89-1.78,0-3.4.59-4.55,2-.52.59-.93,1.44-1.18,2.41h9.21v2.63h-9.77c-.04.37-.04.78-.04,1.15v.59h9.81v2.63h-9.29c.26,1.11.67,1.96,1.22,2.59,1.18,1.33,2.92,1.89,4.77,1.89,1.7,0,3.44-.55,4.22-.96l.89,4.11Z"/>
        <path class="cls-2" d="M326.11,188.66v-3.4l3.11-2.81c5.25-4.7,7.81-7.4,7.88-10.21,0-1.96-1.18-3.52-3.96-3.52-2.07,0-3.89,1.04-5.14,2l-1.59-4.03c1.81-1.37,4.62-2.48,7.88-2.48,5.44,0,8.44,3.18,8.44,7.55,0,4.03-2.92,7.25-6.4,10.36l-2.22,1.85v.07h9.07v4.62h-17.06Z"/>
        <path class="cls-2" d="M356.6,188.66v-5.74h-10.66v-3.66l9.1-14.65h6.88v14.1h2.89v4.22h-2.89v5.74h-5.33ZM356.6,178.7v-5.33c0-1.44.07-2.92.18-4.48h-.15c-.78,1.55-1.41,2.96-2.22,4.48l-3.22,5.25v.07h5.4Z"/>
        <path class="cls-2" d="M367.89,162.38h5.62v10.32h.07c.59-.78,1.33-1.37,2.22-1.85.81-.44,1.89-.7,2.92-.7,3.59,0,6.33,2.48,6.33,7.92v10.58h-5.62v-9.95c0-2.37-.81-4-2.92-4-1.48,0-2.41.96-2.81,1.96-.15.37-.18.85-.18,1.26v10.73h-5.62v-26.27Z"/>
      </g>
      <g>
        <path class="cls-5" d="M518.72,146.08c-1.04.52-3.37,1.07-6.4,1.07-8.62,0-13.06-5.37-13.06-12.47,0-8.51,6.07-13.25,13.62-13.25,2.92,0,5.14.59,6.14,1.11l-1.15,4.48c-1.15-.48-2.74-.92-4.74-.92-4.48,0-7.96,2.7-7.96,8.25,0,5,2.96,8.14,7.99,8.14,1.7,0,3.59-.37,4.7-.81l.85,4.4Z"/>
        <path class="cls-5" d="M525.86,139.53c.18,2.33,2.48,3.44,5.11,3.44,1.92,0,3.48-.26,5-.74l.74,3.81c-1.85.74-4.11,1.11-6.55,1.11-6.14,0-9.66-3.55-9.66-9.21,0-4.59,2.85-9.66,9.14-9.66,5.85,0,8.07,4.55,8.07,9.03,0,.96-.11,1.81-.19,2.22h-11.66ZM532.48,135.68c0-1.37-.59-3.66-3.18-3.66-2.37,0-3.33,2.15-3.48,3.66h6.66Z"/>
        <path class="cls-5" d="M541.06,134.65c0-2.66-.07-4.4-.15-5.96h4.85l.19,3.33h.15c.93-2.63,3.15-3.74,4.88-3.74.52,0,.78,0,1.18.07v5.29c-.41-.07-.89-.15-1.52-.15-2.07,0-3.48,1.11-3.85,2.85-.07.37-.11.81-.11,1.26v9.18h-5.62v-12.14Z"/>
        <path class="cls-5" d="M562.19,123.51v5.18h4.03v4.14h-4.03v6.55c0,2.18.52,3.18,2.22,3.18.7,0,1.26-.07,1.67-.15l.04,4.25c-.74.3-2.07.48-3.66.48-1.81,0-3.33-.63-4.22-1.55-1.04-1.07-1.55-2.81-1.55-5.37v-7.4h-2.41v-4.14h2.41v-3.92l5.51-1.26Z"/>
        <path class="cls-5" d="M575.29,123.66c0,1.55-1.18,2.81-3.03,2.81s-2.96-1.26-2.92-2.81c-.04-1.63,1.15-2.85,2.96-2.85s2.96,1.22,3,2.85ZM569.48,146.78v-18.09h5.62v18.09h-5.62Z"/>
        <path class="cls-5" d="M580.25,146.78v-13.95h-2.37v-4.14h2.37v-.78c0-5,3.89-7.81,9.47-7.81,1.92,0,4.22.44,5.33,1.11l-1.07,4.25c-.89-.48-2.33-.92-4.11-.92-2.96,0-4,1.52-4,3.51v.63h10.99v18.09h-5.62v-13.95h-5.33v13.95h-5.66Z"/>
        <path class="cls-5" d="M605.7,139.53c.18,2.33,2.48,3.44,5.11,3.44,1.92,0,3.48-.26,5-.74l.74,3.81c-1.85.74-4.11,1.11-6.55,1.11-6.14,0-9.66-3.55-9.66-9.21,0-4.59,2.85-9.66,9.14-9.66,5.85,0,8.07,4.55,8.07,9.03,0,.96-.11,1.81-.19,2.22h-11.66ZM612.33,135.68c0-1.37-.59-3.66-3.18-3.66-2.37,0-3.33,2.15-3.48,3.66h6.66ZM615.43,120.81l-4.51,5.62h-3.88l3.18-5.62h5.22Z"/>
      </g>
      <path class="cls-5" d="M455.23,143.75v-20.18c0-1.68.59-3.11,1.78-4.29,1.18-1.18,2.62-1.78,4.29-1.78h20.18c1.66,0,3.08.59,4.26,1.78,1.18,1.18,1.78,2.62,1.78,4.29v20.18c0,1.68-.59,3.1-1.78,4.26-1.18,1.16-2.6,1.75-4.26,1.78h-20.18c-1.68,0-3.11-.59-4.29-1.78-1.18-1.18-1.78-2.6-1.78-4.26h0ZM459.26,143.75c0,.56.19,1.03.58,1.42s.87.58,1.45.58h20.18c.54,0,1.01-.19,1.42-.58.41-.39.6-.86.58-1.42v-20.18c0-.56-.19-1.03-.58-1.42-.39-.39-.86-.59-1.42-.61h-20.18c-.56,0-1.04.2-1.45.61-.41.41-.6.88-.58,1.42v20.18h0ZM462.88,133.65c0-.56.2-1.03.61-1.42.41-.39.88-.58,1.42-.58s1.01.19,1.42.58l2.87,2.84,7.14-7.1c.39-.41.86-.61,1.42-.61s1.03.2,1.42.61c.39.41.59.88.61,1.42.02.54-.18,1.01-.61,1.42l-8.56,8.56c-.39.41-.86.61-1.42.61s-1.03-.2-1.42-.61l-4.29-4.29c-.41-.39-.61-.86-.61-1.42h0Z"/>
      <path class="cls-5" d="M455.2,205.12v-20.18c0-1.68.59-3.11,1.78-4.29,1.18-1.18,2.62-1.78,4.29-1.78h20.18c1.66,0,3.08.59,4.26,1.78,1.18,1.18,1.78,2.62,1.78,4.29v20.18c0,1.68-.59,3.1-1.78,4.26-1.18,1.16-2.6,1.75-4.26,1.78h-20.18c-1.68,0-3.11-.59-4.29-1.78-1.18-1.18-1.78-2.6-1.78-4.26h0ZM459.23,205.12c0,.56.19,1.03.58,1.42s.87.58,1.45.58h20.18c.54,0,1.01-.19,1.42-.58.41-.39.6-.86.58-1.42v-20.18c0-.56-.19-1.03-.58-1.42-.39-.39-.86-.59-1.42-.61h-20.18c-.56,0-1.04.2-1.45.61-.41.41-.6.88-.58,1.42v20.18h0ZM462.85,195.01c0-.56.2-1.03.61-1.42.41-.39.88-.58,1.42-.58s1.01.19,1.42.58l2.87,2.84,7.14-7.1c.39-.41.86-.61,1.42-.61s1.03.2,1.42.61c.39.41.59.88.61,1.42.02.54-.18,1.01-.61,1.42l-8.56,8.56c-.39.41-.86.61-1.42.61s-1.03-.2-1.42-.61l-4.29-4.29c-.41-.39-.61-.86-.61-1.42h0Z"/>
      <path class="cls-7" d="M455.23,266.48v-20.18c0-1.68.59-3.11,1.78-4.29,1.18-1.18,2.62-1.78,4.29-1.78h20.18c1.66,0,3.08.59,4.26,1.78,1.18,1.18,1.78,2.62,1.78,4.29v20.18c0,1.68-.59,3.1-1.78,4.26-1.18,1.16-2.6,1.75-4.26,1.78h-20.18c-1.68,0-3.11-.59-4.29-1.78-1.18-1.18-1.78-2.6-1.78-4.26h0ZM459.27,266.48c0,.56.19,1.03.58,1.42s.87.58,1.45.58h20.18c.54,0,1.01-.19,1.42-.58.41-.39.6-.86.58-1.42v-20.18c0-.56-.19-1.03-.58-1.42-.39-.39-.86-.59-1.42-.61h-20.18c-.56,0-1.04.2-1.45.61-.41.41-.6.88-.58,1.42v20.18h0Z"/>
      <path class="cls-3" d="M419.49,315l15.23-15.19,4.65,4.64c4.76,4.75,7.14,7.12,9.7,6.56,2.56-.56,3.72-3.71,6.05-10.01l7.76-21.02c4.64-12.57,6.96-18.86,3.72-22.1-3.25-3.24-9.55-.92-22.15,3.71l-21.07,7.74c-6.32,2.32-9.48,3.48-10.04,6.03-.56,2.55,1.82,4.93,6.58,9.68l4.65,4.64-15.23,15.19c-1.58,1.57-2.37,2.36-2.73,3.24-.49,1.17-.49,2.48,0,3.65.36.88,1.15,1.66,2.73,3.24,1.58,1.57,2.37,2.36,3.24,2.72,1.17.48,2.49.48,3.66,0,.88-.36,1.67-1.15,3.24-2.72Z"/>
      <path class="cls-7" d="M455.17,327.84v-20.18c0-1.68.59-3.11,1.78-4.29,1.18-1.18,2.62-1.78,4.29-1.78h20.18c1.66,0,3.08.59,4.26,1.78,1.18,1.18,1.78,2.62,1.78,4.29v20.18c0,1.68-.59,3.1-1.78,4.26-1.18,1.16-2.6,1.75-4.26,1.78h-20.18c-1.68,0-3.11-.59-4.29-1.78-1.18-1.18-1.78-2.6-1.78-4.26h0ZM459.2,327.84c0,.56.19,1.03.58,1.42s.87.58,1.45.58h20.18c.54,0,1.01-.19,1.42-.58.41-.39.6-.86.58-1.42v-20.18c0-.56-.19-1.03-.58-1.42-.39-.39-.86-.59-1.42-.61h-20.18c-.56,0-1.04.2-1.45.61-.41.41-.6.88-.58,1.42v20.18h0Z"/>
      <g>
        <path class="cls-5" d="M500.4,182c1.81-.3,4.51-.52,7.51-.52,3.7,0,6.29.56,8.07,1.96,1.48,1.18,2.29,2.92,2.29,5.22,0,3.18-2.26,5.37-4.4,6.14v.11c1.74.7,2.7,2.37,3.33,4.66.78,2.81,1.55,6.07,2.04,7.03h-5.77c-.41-.7-1-2.74-1.74-5.81-.67-3.11-1.74-3.96-4.03-4h-1.7v9.81h-5.59v-24.61ZM505.99,192.73h2.22c2.81,0,4.48-1.41,4.48-3.59,0-2.29-1.55-3.44-4.14-3.48-1.37,0-2.15.11-2.55.18v6.88Z"/>
        <path class="cls-5" d="M526.49,199.35c.18,2.33,2.48,3.44,5.11,3.44,1.92,0,3.48-.26,5-.74l.74,3.81c-1.85.74-4.11,1.11-6.55,1.11-6.14,0-9.66-3.55-9.66-9.21,0-4.59,2.85-9.66,9.14-9.66,5.85,0,8.07,4.55,8.07,9.03,0,.96-.11,1.81-.19,2.22h-11.66ZM533.11,195.5c0-1.37-.59-3.66-3.18-3.66-2.37,0-3.33,2.15-3.48,3.66h6.66Z"/>
        <path class="cls-5" d="M541.69,180.33h5.62v26.27h-5.62v-26.27Z"/>
        <path class="cls-5" d="M568.93,200.79c0,2.37.07,4.29.15,5.81h-4.88l-.26-2.55h-.11c-.7,1.11-2.41,2.96-5.66,2.96-3.66,0-6.36-2.29-6.36-7.88v-10.62h5.66v9.73c0,2.63.85,4.22,2.81,4.22,1.55,0,2.44-1.07,2.81-1.96.15-.33.19-.78.19-1.22v-10.77h5.66v12.29Z"/>
      </g>
      <g>
        <path class="cls-7" d="M515.24,258.96h-9.18v5.92h10.25v4.62h-15.91v-24.94h15.39v4.62h-9.73v5.18h9.18v4.59Z"/>
        <path class="cls-7" d="M524.27,251.41l1.78,3c.52.92,1,1.85,1.48,2.7h.07c.48-.96.92-1.89,1.41-2.78l1.59-2.92h6.11l-5.96,8.62,6.03,9.47h-6.37l-1.81-3.26c-.52-.89-.96-1.81-1.41-2.74h-.11c-.44.96-.92,1.85-1.37,2.74l-1.7,3.26h-6.18l6.14-9.21-6-8.88h6.29Z"/>
        <path class="cls-7" d="M539.18,257.48c0-2.37-.07-4.4-.15-6.07h4.88l.26,2.52h.07c1.33-1.92,3.4-2.92,6.03-2.92,3.96,0,7.51,3.44,7.51,9.21,0,6.59-4.18,9.7-8.21,9.7-2.18,0-3.89-.89-4.7-2.07h-.07v8.99h-5.62v-19.35ZM544.8,261.73c0,.44.04.85.11,1.18.37,1.52,1.67,2.67,3.29,2.67,2.44,0,3.88-2.04,3.88-5.11,0-2.89-1.29-5.07-3.81-5.07-1.59,0-3,1.18-3.37,2.85-.07.3-.11.67-.11,1v2.48Z"/>
        <path class="cls-7" d="M561.3,257.37c0-2.66-.07-4.4-.15-5.96h4.85l.19,3.33h.15c.93-2.63,3.15-3.74,4.88-3.74.52,0,.78,0,1.18.07v5.29c-.41-.07-.89-.15-1.52-.15-2.07,0-3.48,1.11-3.85,2.85-.07.37-.11.81-.11,1.26v9.18h-5.62v-12.14Z"/>
        <path class="cls-7" d="M579.4,262.25c.18,2.33,2.48,3.44,5.11,3.44,1.92,0,3.48-.26,5-.74l.74,3.81c-1.85.74-4.11,1.11-6.55,1.11-6.14,0-9.66-3.55-9.66-9.21,0-4.59,2.85-9.66,9.14-9.66,5.85,0,8.07,4.55,8.07,9.03,0,.96-.11,1.81-.19,2.22h-11.66ZM586.02,258.4c0-1.37-.59-3.66-3.18-3.66-2.37,0-3.33,2.15-3.48,3.66h6.66Z"/>
        <path class="cls-7" d="M594.57,264.58c1.04.63,3.18,1.37,4.85,1.37s2.41-.59,2.41-1.52-.55-1.37-2.66-2.07c-3.74-1.26-5.18-3.29-5.14-5.44,0-3.37,2.89-5.92,7.36-5.92,2.11,0,4,.48,5.11,1.04l-1,3.88c-.81-.44-2.37-1.04-3.92-1.04-1.37,0-2.15.56-2.15,1.48,0,.85.7,1.29,2.92,2.07,3.44,1.18,4.88,2.92,4.92,5.59,0,3.37-2.66,5.85-7.84,5.85-2.37,0-4.48-.52-5.85-1.26l1-4.03Z"/>
        <path class="cls-7" d="M610.62,264.58c1.04.63,3.18,1.37,4.85,1.37s2.41-.59,2.41-1.52-.55-1.37-2.66-2.07c-3.74-1.26-5.18-3.29-5.14-5.44,0-3.37,2.89-5.92,7.36-5.92,2.11,0,4,.48,5.11,1.04l-1,3.88c-.81-.44-2.37-1.04-3.92-1.04-1.37,0-2.15.56-2.15,1.48,0,.85.7,1.29,2.92,2.07,3.44,1.18,4.88,2.92,4.92,5.59,0,3.37-2.66,5.85-7.84,5.85-2.37,0-4.48-.52-5.85-1.26l1-4.03Z"/>
      </g>
      <g>
        <path class="cls-7" d="M502.84,332.8v-24.94h6.59l5.18,9.14c1.48,2.63,2.96,5.74,4.07,8.55h.11c-.37-3.29-.48-6.66-.48-10.4v-7.29h5.18v24.94h-5.92l-5.33-9.62c-1.48-2.66-3.11-5.88-4.33-8.81l-.11.04c.15,3.29.22,6.81.22,10.88v7.51h-5.18Z"/>
        <path class="cls-7" d="M545.95,323.55c0,6.62-4.7,9.66-9.55,9.66-5.29,0-9.36-3.48-9.36-9.33s3.85-9.58,9.66-9.58,9.25,3.81,9.25,9.25ZM532.85,323.74c0,3.11,1.29,5.44,3.7,5.44,2.18,0,3.59-2.18,3.59-5.44,0-2.7-1.04-5.44-3.59-5.44-2.7,0-3.7,2.78-3.7,5.44Z"/>
        <path class="cls-7" d="M555.72,309.53v5.18h4.03v4.14h-4.03v6.55c0,2.18.52,3.18,2.22,3.18.7,0,1.26-.07,1.67-.15l.04,4.25c-.74.3-2.07.48-3.66.48-1.81,0-3.33-.63-4.22-1.55-1.04-1.07-1.55-2.81-1.55-5.37v-7.4h-2.41v-4.14h2.41v-3.92l5.51-1.26Z"/>
        <path class="cls-7" d="M573.29,332.8l-.33-1.81h-.11c-1.18,1.44-3.03,2.22-5.18,2.22-3.66,0-5.85-2.66-5.85-5.55,0-4.7,4.22-6.96,10.62-6.92v-.26c0-.96-.52-2.33-3.29-2.33-1.85,0-3.81.63-5,1.37l-1.04-3.63c1.26-.7,3.74-1.59,7.03-1.59,6.03,0,7.96,3.55,7.96,7.81v6.29c0,1.74.07,3.4.26,4.4h-5.07ZM572.62,324.26c-2.96-.04-5.25.67-5.25,2.85,0,1.44.96,2.15,2.22,2.15,1.41,0,2.55-.92,2.92-2.07.07-.3.11-.63.11-.96v-1.96Z"/>
        <path class="cls-7" d="M588.35,309.68c0,1.55-1.18,2.81-3.03,2.81s-2.96-1.26-2.92-2.81c-.04-1.63,1.15-2.85,2.96-2.85s2.96,1.22,3,2.85ZM582.54,332.8v-18.09h5.62v18.09h-5.62Z"/>
        <path class="cls-7" d="M592.68,320.67c0-2.66-.07-4.4-.15-5.96h4.85l.19,3.33h.15c.93-2.63,3.15-3.74,4.88-3.74.52,0,.78,0,1.18.07v5.29c-.41-.07-.89-.15-1.52-.15-2.07,0-3.48,1.11-3.85,2.85-.07.37-.11.81-.11,1.26v9.18h-5.62v-12.14Z"/>
        <path class="cls-7" d="M610.77,325.55c.18,2.33,2.48,3.44,5.11,3.44,1.92,0,3.48-.26,5-.74l.74,3.81c-1.85.74-4.11,1.11-6.55,1.11-6.14,0-9.66-3.55-9.66-9.21,0-4.59,2.85-9.66,9.14-9.66,5.85,0,8.07,4.55,8.07,9.03,0,.96-.11,1.81-.19,2.22h-11.66ZM617.39,321.7c0-1.37-.59-3.66-3.18-3.66-2.37,0-3.33,2.15-3.48,3.66h6.66Z"/>
      </g>
    </g>
  </g>
</svg>