<?xml version="1.0" encoding="UTF-8"?>
<svg xmlns="http://www.w3.org/2000/svg" version="1.1" viewBox="0 0 800 400">
  <defs>
    <style>
      .cls-1 {
        fill: #231f20;
      }

      .cls-2 {
        fill: #fff;
      }

      .cls-3 {
        fill: #6789b6;
      }

      .cls-4 {
        fill: #f7cb28;
      }

      .cls-5 {
        fill: #1a406e;
      }

      .cls-6 {
        fill: #dcdcdc;
      }

      .cls-7 {
        fill: none;
        stroke: #f7cb28;
        stroke-miterlimit: 10;
        stroke-width: 4px;
      }
    </style>
  </defs>
  <!-- Generator: Adobe Illustrator 28.7.4, SVG Export Plug-In . SVG Version: 1.2.0 Build 166)  -->
  <g>
    <g id="Layer_1">
      <g>
        <path class="cls-6" d="M787.35,37.63v327.31c0,15.69-13.33,28.41-29.76,28.41h-460.18c-16.43,0-29.76-12.72-29.76-28.41V37.63c0-15.69,13.33-28.41,29.76-28.41h460.18c16.43,0,29.76,12.72,29.76,28.41Z"/>
        <path class="cls-5" d="M787.35,73.24v291.7c0,15.69-13.33,28.41-29.76,28.41h-460.18c-16.43,0-29.76-12.72-29.76-28.41V73.24h519.7Z"/>
        <rect class="cls-2" x="301.18" y="105.25" width="452.64" height="256.09" rx="1.37" ry="1.37"/>
        <path class="cls-3" d="M414.16,249.37h0c0,6.98-5.93,12.64-13.24,12.64h-35.31c-7.31,0-13.24-5.66-13.24-12.64h0s0,0,0,0c-9.75,0-17.66,7.55-17.66,16.86v12.64h97.11v-12.64c0-9.31-7.91-16.86-17.66-16.86h0Z"/>
        <polygon class="cls-4" points="365.6 203.01 365.6 240.94 400.92 240.94 400.92 203.01 418.57 203.01 383.26 169.3 347.95 203.01 365.6 203.01"/>
        <rect class="cls-5" x="292.79" y="33.23" width="16.76" height="16.01"/>
        <rect class="cls-5" x="326.32" y="33.23" width="16.76" height="16.01"/>
        <rect class="cls-5" x="359.85" y="33.23" width="16.76" height="16.01"/>
      </g>
      <rect class="cls-7" x="469.51" y="129.21" width="263.06" height="43.9"/>
      <rect class="cls-7" x="470.73" y="281.03" width="263.06" height="43.9"/>
      <rect class="cls-7" x="469.51" y="205.12" width="263.06" height="43.9"/>
      <g>
        <path class="cls-1" d="M483.59,215.24h5.98v20.38h10.48v4.78h-16.46v-25.16Z"/>
        <path class="cls-1" d="M509.93,233.94l-1.88,6.46h-6.18l8.05-25.16h7.82l8.17,25.16h-6.41l-2.03-6.46h-7.54ZM516.62,229.69l-1.64-5.34c-.47-1.49-.94-3.36-1.33-4.85h-.08c-.39,1.49-.78,3.4-1.21,4.85l-1.56,5.34h5.82Z"/>
        <path class="cls-1" d="M529.44,240.4v-25.16h6.96l5.47,9.22c1.56,2.65,3.13,5.79,4.3,8.62h.12c-.39-3.32-.51-6.72-.51-10.49v-7.35h5.47v25.16h-6.25l-5.63-9.7c-1.56-2.69-3.28-5.93-4.57-8.88l-.12.04c.16,3.32.23,6.87.23,10.97v7.58h-5.47Z"/>
        <path class="cls-1" d="M578.42,239.24c-1.84.6-5.32,1.42-8.8,1.42-4.81,0-8.29-1.16-10.71-3.4-2.42-2.17-3.75-5.45-3.71-9.14.04-8.36,6.41-13.14,15.05-13.14,3.4,0,6.02.63,7.31,1.23l-1.25,4.55c-1.45-.6-3.25-1.08-6.14-1.08-4.96,0-8.72,2.69-8.72,8.14s3.4,8.25,8.29,8.25c1.37,0,2.46-.15,2.93-.37v-5.26h-4.07v-4.44h9.81v13.25Z"/>
        <path class="cls-1" d="M589.01,215.24v14.48c0,4.33,1.72,6.53,4.77,6.53s4.85-2.09,4.85-6.53v-14.48h5.94v14.11c0,7.76-4.1,11.46-10.99,11.46s-10.55-3.51-10.55-11.53v-14.03h5.98Z"/>
        <path class="cls-1" d="M614.69,233.94l-1.88,6.46h-6.18l8.05-25.16h7.82l8.17,25.16h-6.41l-2.03-6.46h-7.54ZM621.37,229.69l-1.64-5.34c-.47-1.49-.94-3.36-1.33-4.85h-.08c-.39,1.49-.78,3.4-1.21,4.85l-1.56,5.34h5.82Z"/>
        <path class="cls-1" d="M655.22,239.24c-1.84.6-5.32,1.42-8.8,1.42-4.81,0-8.29-1.16-10.71-3.4-2.42-2.17-3.75-5.45-3.71-9.14.04-8.36,6.41-13.14,15.05-13.14,3.4,0,6.02.63,7.31,1.23l-1.25,4.55c-1.45-.6-3.25-1.08-6.14-1.08-4.96,0-8.72,2.69-8.72,8.14s3.4,8.25,8.29,8.25c1.37,0,2.46-.15,2.93-.37v-5.26h-4.07v-4.44h9.81v13.25Z"/>
        <path class="cls-1" d="M675.55,229.76h-9.7v5.97h10.83v4.67h-16.81v-25.16h16.26v4.67h-10.28v5.23h9.7v4.63Z"/>
      </g>
      <g>
        <path class="cls-1" d="M489.57,290.62v25.16h-5.98v-25.16h5.98Z"/>
        <path class="cls-1" d="M494.73,315.78v-25.16h6.96l5.47,9.22c1.56,2.65,3.13,5.79,4.3,8.62h.12c-.39-3.32-.51-6.72-.51-10.49v-7.35h5.47v25.16h-6.26l-5.63-9.7c-1.56-2.69-3.28-5.93-4.57-8.88l-.12.04c.16,3.32.23,6.87.23,10.97v7.58h-5.47Z"/>
        <path class="cls-1" d="M521.89,309.92c1.6.78,4.07,1.57,6.61,1.57,2.74,0,4.18-1.08,4.18-2.72s-1.25-2.46-4.42-3.55c-4.38-1.46-7.23-3.77-7.23-7.43,0-4.29,3.75-7.58,9.97-7.58,2.97,0,5.16.6,6.72,1.27l-1.33,4.59c-1.06-.49-2.93-1.2-5.51-1.2s-3.83,1.12-3.83,2.43c0,1.6,1.49,2.31,4.89,3.55,4.65,1.64,6.84,3.96,6.84,7.5,0,4.22-3.4,7.8-10.63,7.8-3.01,0-5.98-.75-7.47-1.53l1.21-4.7Z"/>
        <path class="cls-1" d="M547.89,295.4h-7.08v-4.78h20.25v4.78h-7.19v20.38h-5.98v-20.38Z"/>
        <path class="cls-1" d="M570.21,290.62v25.16h-5.98v-25.16h5.98Z"/>
        <path class="cls-1" d="M580.45,295.4h-7.08v-4.78h20.25v4.78h-7.19v20.38h-5.98v-20.38Z"/>
        <path class="cls-1" d="M602.72,290.62v14.48c0,4.33,1.72,6.53,4.77,6.53s4.85-2.09,4.85-6.53v-14.48h5.94v14.11c0,7.76-4.1,11.46-10.99,11.46s-10.55-3.51-10.55-11.53v-14.03h5.98Z"/>
        <path class="cls-1" d="M628.52,295.4h-7.08v-4.78h20.25v4.78h-7.19v20.38h-5.98v-20.38Z"/>
        <path class="cls-1" d="M650.84,290.62v25.16h-5.98v-25.16h5.98Z"/>
        <path class="cls-1" d="M680.12,302.94c0,8.25-5.24,13.25-12.94,13.25s-12.39-5.64-12.39-12.8c0-7.54,5.04-13.17,12.82-13.17s12.51,5.79,12.51,12.73ZM661.08,303.28c0,4.93,2.42,8.4,6.41,8.4s6.33-3.66,6.33-8.55c0-4.52-2.27-8.4-6.37-8.4s-6.37,3.66-6.37,8.55Z"/>
        <path class="cls-1" d="M684.02,315.78v-25.16h6.96l5.47,9.22c1.56,2.65,3.13,5.79,4.3,8.62h.12c-.39-3.32-.51-6.72-.51-10.49v-7.35h5.47v25.16h-6.26l-5.63-9.7c-1.56-2.69-3.28-5.93-4.57-8.88l-.12.04c.16,3.32.23,6.87.23,10.97v7.58h-5.47Z"/>
      </g>
      <g>
        <circle class="cls-5" cx="138.39" cy="204.78" r="118.08"/>
        <path class="cls-2" d="M130.66,183.5h-.27l-16.49,7.85-3.32-15.16,22.88-10.64h16.76v86.45h-19.55v-68.49Z"/>
      </g>
      <g>
        <path class="cls-1" d="M482.44,163.62v-25.16h6.96l5.47,9.22c1.56,2.65,3.13,5.79,4.3,8.62h.12c-.39-3.32-.51-6.72-.51-10.49v-7.35h5.47v25.16h-6.26l-5.63-9.7c-1.56-2.69-3.28-5.93-4.57-8.88l-.12.04c.16,3.32.23,6.87.23,10.97v7.58h-5.47Z"/>
        <path class="cls-1" d="M515.55,157.16l-1.88,6.46h-6.18l8.05-25.16h7.82l8.17,25.16h-6.41l-2.03-6.46h-7.54ZM522.23,152.9l-1.64-5.34c-.47-1.49-.94-3.36-1.33-4.85h-.08c-.39,1.49-.78,3.4-1.21,4.85l-1.56,5.34h5.82Z"/>
        <path class="cls-1" d="M557.33,153.99c-.12-3.02-.23-6.68-.23-10.34h-.12c-.82,3.21-1.92,6.79-2.93,9.74l-3.21,9.82h-4.65l-2.81-9.74c-.86-2.95-1.76-6.53-2.38-9.82h-.08c-.16,3.4-.27,7.28-.47,10.41l-.47,9.55h-5.51l1.68-25.16h7.94l2.58,8.4c.82,2.91,1.64,6.05,2.23,8.99h.12c.74-2.91,1.64-6.23,2.5-9.03l2.81-8.36h7.78l1.45,25.16h-5.83l-.39-9.63Z"/>
        <path class="cls-1" d="M583.79,152.98h-9.7v5.97h10.83v4.67h-16.81v-25.16h16.26v4.67h-10.28v5.23h9.7v4.63Z"/>
      </g>
    </g>
  </g>
</svg>
