<?xml version="1.0" encoding="UTF-8"?>
<svg xmlns="http://www.w3.org/2000/svg" version="1.1" viewBox="0 0 800 400">
  <defs>
    <style>
      .cls-1 {
        fill: #231f20;
      }

      .cls-2 {
        fill: #fff;
      }

      .cls-3 {
        fill: #6789b6;
      }

      .cls-4 {
        fill: #f7cb28;
      }

      .cls-5 {
        fill: #1a406e;
      }

      .cls-6 {
        fill: #dcdcdc;
      }

      .cls-7 {
        fill: none;
        stroke: #f7cb28;
        stroke-miterlimit: 10;
        stroke-width: 4px;
      }
    </style>
  </defs>
  <!-- Generator: Adobe Illustrator 28.7.4, SVG Export Plug-In . SVG Version: 1.2.0 Build 166)  -->
  <g>
    <g id="Layer_1">
      <g>
        <path class="cls-6" d="M787.35,37.63v327.31c0,15.69-13.33,28.41-29.76,28.41h-460.18c-16.43,0-29.76-12.72-29.76-28.41V37.63c0-15.69,13.33-28.41,29.76-28.41h460.18c16.43,0,29.76,12.72,29.76,28.41Z"/>
        <path class="cls-5" d="M787.35,73.24v291.7c0,15.69-13.33,28.41-29.76,28.41h-460.18c-16.43,0-29.76-12.72-29.76-28.41V73.24h519.7Z"/>
        <rect class="cls-2" x="301.18" y="105.25" width="452.64" height="256.09" rx="1.37" ry="1.37"/>
        <path class="cls-3" d="M414.16,249.37h0c0,6.98-5.93,12.64-13.24,12.64h-35.31c-7.31,0-13.24-5.66-13.24-12.64h0s0,0,0,0c-9.75,0-17.66,7.55-17.66,16.86v12.64h97.11v-12.64c0-9.31-7.91-16.86-17.66-16.86h0Z"/>
        <polygon class="cls-4" points="365.6 203.01 365.6 240.94 400.92 240.94 400.92 203.01 418.57 203.01 383.26 169.3 347.95 203.01 365.6 203.01"/>
        <rect class="cls-5" x="292.79" y="33.23" width="16.76" height="16.01"/>
        <rect class="cls-5" x="326.32" y="33.23" width="16.76" height="16.01"/>
        <rect class="cls-5" x="359.85" y="33.23" width="16.76" height="16.01"/>
      </g>
      <rect class="cls-7" x="469.51" y="129.21" width="263.06" height="43.9"/>
      <rect class="cls-7" x="470.73" y="281.03" width="263.06" height="43.9"/>
      <rect class="cls-7" x="469.51" y="205.12" width="263.06" height="43.9"/>
      <g>
        <path class="cls-1" d="M489.57,215.24v25.16h-5.98v-25.16h5.98Z"/>
        <path class="cls-1" d="M494.73,215.58c2.19-.34,5.04-.52,8.05-.52,5,0,8.25.86,10.79,2.69,2.74,1.94,4.46,5.04,4.46,9.48,0,4.81-1.84,8.14-4.38,10.19-2.78,2.2-7,3.25-12.16,3.25-3.09,0-5.28-.19-6.76-.37v-24.71ZM500.71,236.11c.51.11,1.33.11,2.07.11,5.4.04,8.91-2.8,8.91-8.81.04-5.23-3.17-7.99-8.29-7.99-1.33,0-2.19.11-2.7.22v16.46Z"/>
        <path class="cls-1" d="M527.91,215.24v25.16h-5.98v-25.16h5.98Z"/>
        <path class="cls-1" d="M557.19,227.56c0,8.25-5.24,13.25-12.94,13.25s-12.39-5.64-12.39-12.8c0-7.54,5.04-13.17,12.82-13.17s12.51,5.79,12.51,12.73ZM538.15,227.89c0,4.93,2.42,8.4,6.41,8.4s6.33-3.66,6.33-8.55c0-4.52-2.27-8.4-6.37-8.4s-6.37,3.66-6.37,8.55Z"/>
        <path class="cls-1" d="M583.38,230.77c-.12-3.02-.23-6.68-.23-10.34h-.12c-.82,3.21-1.92,6.79-2.93,9.74l-3.21,9.82h-4.65l-2.81-9.74c-.86-2.95-1.76-6.53-2.38-9.82h-.08c-.16,3.4-.27,7.28-.47,10.41l-.47,9.55h-5.51l1.68-25.16h7.94l2.58,8.4c.82,2.91,1.64,6.05,2.23,9h.12c.74-2.91,1.64-6.23,2.5-9.03l2.81-8.36h7.78l1.45,25.16h-5.83l-.39-9.63Z"/>
        <path class="cls-1" d="M600.19,233.94l-1.88,6.46h-6.18l8.05-25.16h7.82l8.17,25.16h-6.41l-2.03-6.46h-7.54ZM606.87,229.69l-1.64-5.34c-.47-1.49-.94-3.36-1.33-4.85h-.08c-.39,1.49-.78,3.4-1.21,4.85l-1.56,5.34h5.82Z"/>
      </g>
      <g>
        <path class="cls-1" d="M489.57,290.62v25.16h-5.98v-25.16h5.98Z"/>
        <path class="cls-1" d="M494.73,315.78v-25.16h6.96l5.47,9.22c1.56,2.65,3.13,5.78,4.3,8.62h.12c-.39-3.32-.51-6.72-.51-10.49v-7.35h5.47v25.16h-6.26l-5.63-9.7c-1.56-2.69-3.28-5.93-4.57-8.88l-.12.04c.16,3.32.23,6.87.23,10.97v7.58h-5.47Z"/>
        <path class="cls-1" d="M521.89,309.92c1.6.78,4.07,1.57,6.61,1.57,2.74,0,4.18-1.08,4.18-2.72s-1.25-2.46-4.42-3.55c-4.38-1.46-7.23-3.77-7.23-7.43,0-4.29,3.75-7.58,9.97-7.58,2.97,0,5.16.6,6.72,1.27l-1.33,4.59c-1.06-.48-2.93-1.19-5.51-1.19s-3.83,1.12-3.83,2.43c0,1.6,1.49,2.31,4.89,3.54,4.65,1.64,6.84,3.96,6.84,7.5,0,4.22-3.4,7.8-10.63,7.8-3.01,0-5.98-.75-7.47-1.53l1.21-4.7Z"/>
        <path class="cls-1" d="M547.89,295.4h-7.08v-4.78h20.25v4.78h-7.19v20.38h-5.98v-20.38Z"/>
        <path class="cls-1" d="M570.21,290.62v25.16h-5.98v-25.16h5.98Z"/>
        <path class="cls-1" d="M580.45,295.4h-7.08v-4.78h20.25v4.78h-7.19v20.38h-5.98v-20.38Z"/>
        <path class="cls-1" d="M602.72,290.62v14.48c0,4.33,1.72,6.53,4.77,6.53s4.85-2.09,4.85-6.53v-14.48h5.94v14.11c0,7.76-4.1,11.46-10.99,11.46s-10.55-3.51-10.55-11.53v-14.03h5.98Z"/>
        <path class="cls-1" d="M642.79,315.07c-1.09.52-3.56,1.08-6.76,1.08-9.11,0-13.8-5.41-13.8-12.58,0-8.58,6.41-13.36,14.39-13.36,3.09,0,5.43.6,6.49,1.12l-1.21,4.52c-1.21-.49-2.89-.93-5-.93-4.73,0-8.41,2.72-8.41,8.32,0,5.04,3.13,8.21,8.44,8.21,1.8,0,3.79-.37,4.96-.82l.9,4.44Z"/>
        <path class="cls-1" d="M652.68,290.62v25.16h-5.98v-25.16h5.98Z"/>
        <path class="cls-1" d="M681.96,302.94c0,8.25-5.24,13.25-12.94,13.25s-12.39-5.64-12.39-12.8c0-7.54,5.04-13.17,12.82-13.17s12.51,5.79,12.51,12.73ZM662.92,303.27c0,4.93,2.42,8.4,6.41,8.4s6.33-3.66,6.33-8.55c0-4.52-2.27-8.4-6.37-8.4s-6.37,3.66-6.37,8.55ZM676.09,284.65l-4.77,4.59h-4.77l3.28-4.59h6.25Z"/>
        <path class="cls-1" d="M685.86,315.78v-25.16h6.96l5.47,9.22c1.56,2.65,3.13,5.78,4.3,8.62h.12c-.39-3.32-.51-6.72-.51-10.49v-7.35h5.47v25.16h-6.25l-5.63-9.7c-1.56-2.69-3.28-5.93-4.57-8.88l-.12.04c.16,3.32.23,6.87.23,10.97v7.58h-5.47Z"/>
      </g>
      <g>
        <circle class="cls-5" cx="138.39" cy="204.78" r="118.08"/>
        <path class="cls-2" d="M130.66,183.5h-.27l-16.49,7.85-3.32-15.16,22.88-10.64h16.76v86.45h-19.55v-68.49Z"/>
      </g>
      <g>
        <path class="cls-1" d="M482.44,163.62v-25.16h6.96l5.47,9.22c1.56,2.65,3.13,5.79,4.3,8.62h.12c-.39-3.32-.51-6.72-.51-10.49v-7.35h5.47v25.16h-6.26l-5.63-9.7c-1.56-2.69-3.28-5.93-4.57-8.88l-.12.04c.16,3.32.23,6.87.23,10.97v7.58h-5.47Z"/>
        <path class="cls-1" d="M533.53,150.78c0,8.25-5.24,13.25-12.94,13.25s-12.39-5.64-12.39-12.8c0-7.54,5.04-13.18,12.82-13.18s12.51,5.79,12.51,12.73ZM514.49,151.11c0,4.93,2.42,8.4,6.41,8.4s6.33-3.66,6.33-8.55c0-4.52-2.27-8.4-6.37-8.4s-6.37,3.66-6.37,8.55Z"/>
        <path class="cls-1" d="M559.72,153.99c-.12-3.02-.23-6.68-.23-10.34h-.12c-.82,3.21-1.92,6.79-2.93,9.74l-3.21,9.82h-4.65l-2.81-9.74c-.86-2.95-1.76-6.53-2.38-9.82h-.08c-.16,3.4-.27,7.28-.47,10.41l-.47,9.55h-5.51l1.68-25.16h7.94l2.58,8.4c.82,2.91,1.64,6.05,2.23,8.99h.12c.74-2.91,1.64-6.23,2.5-9.03l2.81-8.36h7.78l1.45,25.16h-5.83l-.39-9.63Z"/>
        <path class="cls-1" d="M570.5,138.8c1.56-.3,4.73-.52,7.7-.52,3.64,0,5.86.34,7.78,1.42,1.84.93,3.17,2.65,3.17,4.93s-1.37,4.33-4.34,5.37v.07c3.01.78,5.24,2.95,5.24,6.2,0,2.28-1.09,4.07-2.74,5.34-1.92,1.46-5.12,2.28-10.36,2.28-2.93,0-5.12-.19-6.45-.37v-24.71ZM576.41,148.42h1.95c3.13,0,4.81-1.23,4.81-3.1s-1.52-2.91-4.22-2.91c-1.29,0-2.03.07-2.54.15v5.86ZM576.41,159.58c.59.07,1.29.07,2.31.07,2.7,0,5.08-.97,5.08-3.62s-2.38-3.55-5.36-3.55h-2.03v7.09Z"/>
        <path class="cls-1" d="M594.11,138.8c1.92-.3,4.77-.52,7.94-.52,3.91,0,6.65.56,8.52,1.98,1.56,1.19,2.42,2.95,2.42,5.26,0,3.21-2.38,5.41-4.65,6.2v.11c1.84.71,2.85,2.39,3.52,4.7.82,2.84,1.64,6.12,2.15,7.09h-6.1c-.43-.71-1.06-2.76-1.84-5.86-.7-3.13-1.84-3.99-4.26-4.03h-1.8v9.89h-5.9v-24.82ZM600.01,149.62h2.35c2.97,0,4.73-1.42,4.73-3.62,0-2.31-1.64-3.47-4.38-3.51-1.45,0-2.27.11-2.7.19v6.94Z"/>
        <path class="cls-1" d="M632.96,152.98h-9.7v5.97h10.83v4.67h-16.81v-25.16h16.26v4.67h-10.28v5.23h9.7v4.63Z"/>
      </g>
    </g>
  </g>
</svg>