<?xml version="1.0" encoding="UTF-8"?>
<svg xmlns="http://www.w3.org/2000/svg" version="1.1" viewBox="0 0 800 400">
  <defs>
    <style>
      .cls-1, .cls-2 {
        stroke: #3cb54a;
      }

      .cls-1, .cls-2, .cls-3, .cls-4 {
        stroke-miterlimit: 10;
        stroke-width: 4px;
      }

      .cls-1, .cls-3 {
        fill: none;
      }

      .cls-5, .cls-2, .cls-4 {
        fill: #fff;
      }

      .cls-6 {
        fill: #6789b6;
      }

      .cls-7 {
        fill: #606161;
      }

      .cls-8 {
        fill: #1a406e;
      }

      .cls-9 {
        fill: #3cb54a;
      }

      .cls-10 {
        fill: #dcdcdc;
      }

      .cls-3, .cls-4 {
        stroke: #e03989;
      }

      .cls-11 {
        fill: #e03989;
      }
    </style>
  </defs>
  <!-- Generator: Adobe Illustrator 28.7.4, SVG Export Plug-In . SVG Version: 1.2.0 Build 166)  -->
  <g>
    <g id="Layer_1">
      <g>
        <path class="cls-10" d="M786.17,37.85v327.31c0,15.69-13.33,28.41-29.76,28.41h-460.18c-16.43,0-29.76-12.72-29.76-28.41V37.85c0-15.69,13.33-28.41,29.76-28.41h460.18c16.43,0,29.76,12.72,29.76,28.41Z"/>
        <path class="cls-8" d="M786.17,73.46v291.7c0,15.69-13.33,28.41-29.76,28.41h-460.18c-16.43,0-29.76-12.72-29.76-28.41V73.46h519.7Z"/>
        <rect class="cls-5" x="300" y="105.47" width="452.64" height="256.09" rx="1.37" ry="1.37"/>
        <rect class="cls-8" x="291.62" y="33.45" width="16.76" height="16.01"/>
        <rect class="cls-8" x="325.15" y="33.45" width="16.76" height="16.01"/>
        <rect class="cls-8" x="358.67" y="33.45" width="16.76" height="16.01"/>
      </g>
      <g>
        <circle class="cls-8" cx="134.78" cy="203.49" r="118.08"/>
        <path class="cls-5" d="M101.25,250.71v-12.24l11.17-10.11c18.89-16.89,28.06-26.6,28.33-36.71,0-7.05-4.26-12.63-14.23-12.63-7.45,0-13.96,3.72-18.49,7.18l-5.72-14.5c6.52-4.92,16.62-8.91,28.33-8.91,19.55,0,30.32,11.44,30.32,27.13,0,14.5-10.51,26.07-23.01,37.24l-7.98,6.65v.27h32.58v16.62h-61.31Z"/>
      </g>
      <rect class="cls-6" x="1127.41" y="243.85" width="16.76" height="16.01"/>
      <rect class="cls-6" x="1127.41" y="307.87" width="142.5" height="16.01"/>
      <rect class="cls-6" x="1160.94" y="243.85" width="108.97" height="16.01"/>
      <rect class="cls-6" x="1253.14" y="275.86" width="16.76" height="16.01"/>
      <rect class="cls-6" x="1127.41" y="275.86" width="108.97" height="16.01"/>
      <rect class="cls-6" x="1127.41" y="339.88" width="108.97" height="16.01"/>
      <g>
        <rect class="cls-1" x="465.91" y="185.91" width="263.06" height="65.9"/>
        <rect class="cls-6" x="472.7" y="211.45" width="248.72" height="14.1"/>
        <rect class="cls-6" x="530.8" y="192.02" width="190.39" height="14.1"/>
        <g>
          <rect class="cls-6" x="530.8" y="230.87" width="190.39" height="14.1"/>
          <rect class="cls-6" x="472.7" y="230.87" width="54.29" height="14.1"/>
        </g>
        <g>
          <circle class="cls-2" cx="442.04" cy="218.5" r="23.87"/>
          <path class="cls-9" d="M433.01,231.63v-3.4l3.11-2.81c5.25-4.7,7.81-7.4,7.88-10.21,0-1.96-1.18-3.52-3.96-3.52-2.07,0-3.89,1.04-5.14,2l-1.59-4.03c1.81-1.37,4.62-2.48,7.88-2.48,5.44,0,8.44,3.18,8.44,7.55,0,4.03-2.92,7.25-6.4,10.36l-2.22,1.85v.07h9.07v4.62h-17.06Z"/>
        </g>
      </g>
      <g>
        <rect class="cls-1" x="529.98" y="127.92" width="199.59" height="43.9"/>
        <rect class="cls-6" x="539.18" y="135.77" width="182.62" height="28.2"/>
        <g>
          <circle class="cls-2" cx="505.54" cy="149.88" r="23.87"/>
          <path class="cls-9" d="M503.69,143.95h-.07l-4.59,2.18-.92-4.22,6.36-2.96h4.66v24.05h-5.44v-19.06Z"/>
        </g>
      </g>
      <g>
        <rect class="cls-6" x="701.93" y="290.42" width="20.63" height="14.1"/>
        <g>
          <rect class="cls-3" x="465.91" y="265.29" width="264.27" height="65.11"/>
          <rect class="cls-6" x="474.06" y="290.42" width="41.26" height="14.1"/>
          <rect class="cls-6" x="474.37" y="270.99" width="114.98" height="14.1"/>
          <polyline class="cls-6" points="474.37 323.94 474.37 309.84 722.56 309.84 722.56 323.94"/>
          <rect class="cls-6" x="519.28" y="290.42" width="179.1" height="14.1"/>
          <polyline class="cls-6" points="593.62 285.1 593.62 270.99 721.49 270.99 721.49 285.1"/>
          <g>
            <circle class="cls-4" cx="442.04" cy="297.47" r="23.87"/>
            <path class="cls-11" d="M434.01,305.09c1,.52,3.29,1.48,5.59,1.48,2.92,0,4.4-1.41,4.4-3.22,0-2.37-2.37-3.44-4.85-3.44h-2.29v-4.03h2.18c1.89-.04,4.29-.74,4.29-2.78,0-1.44-1.18-2.52-3.55-2.52-1.96,0-4.03.85-5.03,1.44l-1.15-4.07c1.44-.92,4.33-1.81,7.44-1.81,5.14,0,7.99,2.7,7.99,6,0,2.55-1.44,4.55-4.4,5.59v.07c2.89.52,5.22,2.7,5.22,5.85,0,4.25-3.74,7.36-9.84,7.36-3.11,0-5.74-.81-7.14-1.7l1.15-4.22Z"/>
            <text/>
          </g>
        </g>
      </g>
      <path class="cls-6" d="M317.11,126.96h-.07l-4.59,2.18-.92-4.22,6.36-2.96h4.66v24.05h-5.44v-19.06Z"/>
      <path class="cls-6" d="M310.93,222.08c1,.52,3.29,1.48,5.59,1.48,2.92,0,4.4-1.41,4.4-3.22,0-2.37-2.37-3.44-4.85-3.44h-2.29v-4.03h2.18c1.89-.04,4.29-.74,4.29-2.78,0-1.44-1.18-2.52-3.55-2.52-1.96,0-4.03.85-5.03,1.44l-1.15-4.07c1.44-.92,4.33-1.81,7.44-1.81,5.14,0,7.99,2.7,7.99,6,0,2.55-1.44,4.55-4.4,5.59v.07c2.89.52,5.22,2.7,5.22,5.85,0,4.25-3.74,7.36-9.84,7.36-3.11,0-5.74-.81-7.14-1.7l1.15-4.22Z"/>
      <path class="cls-6" d="M309.94,186.88v-3.4l3.11-2.81c5.25-4.7,7.81-7.4,7.88-10.21,0-1.96-1.18-3.52-3.96-3.52-2.07,0-3.89,1.04-5.14,2l-1.59-4.03c1.81-1.37,4.62-2.48,7.88-2.48,5.44,0,8.44,3.18,8.44,7.55,0,4.03-2.92,7.25-6.4,10.36l-2.22,1.85v.07h9.07v4.62h-17.06Z"/>
      <path class="cls-9" d="M337.81,142.99v-20.18c0-1.68.59-3.11,1.78-4.29,1.18-1.18,2.62-1.78,4.29-1.78h20.18c1.66,0,3.08.59,4.26,1.78,1.18,1.18,1.78,2.62,1.78,4.29v20.18c0,1.68-.59,3.1-1.78,4.26-1.18,1.16-2.6,1.75-4.26,1.78h-20.18c-1.68,0-3.11-.59-4.29-1.78-1.18-1.18-1.78-2.6-1.78-4.26h0ZM341.85,142.99c0,.56.19,1.03.58,1.42s.87.58,1.45.58h20.18c.54,0,1.01-.19,1.42-.58.41-.39.6-.86.58-1.42v-20.18c0-.56-.19-1.03-.58-1.42-.39-.39-.86-.59-1.42-.61h-20.18c-.56,0-1.04.2-1.45.61-.41.41-.6.88-.58,1.42v20.18h0ZM345.46,132.88c0-.56.2-1.03.61-1.42.41-.39.88-.58,1.42-.58s1.01.19,1.42.58l2.87,2.84,7.14-7.1c.39-.41.86-.61,1.42-.61s1.03.2,1.42.61c.39.41.59.88.61,1.42.02.54-.18,1.01-.61,1.42l-8.56,8.56c-.39.41-.86.61-1.42.61s-1.03-.2-1.42-.61l-4.29-4.29c-.41-.39-.61-.86-.61-1.42h0Z"/>
      <path class="cls-9" d="M337.78,185.85v-20.18c0-1.68.59-3.11,1.78-4.29,1.18-1.18,2.62-1.78,4.29-1.78h20.18c1.66,0,3.08.59,4.26,1.78,1.18,1.18,1.78,2.62,1.78,4.29v20.18c0,1.68-.59,3.1-1.78,4.26-1.18,1.16-2.6,1.75-4.26,1.78h-20.18c-1.68,0-3.11-.59-4.29-1.78-1.18-1.18-1.78-2.6-1.78-4.26h0ZM341.82,185.85c0,.56.19,1.03.58,1.42s.87.58,1.45.58h20.18c.54,0,1.01-.19,1.42-.58.41-.39.6-.86.58-1.42v-20.18c0-.56-.19-1.03-.58-1.42-.39-.39-.86-.59-1.42-.61h-20.18c-.56,0-1.04.2-1.45.61-.41.41-.6.88-.58,1.42v20.18h0ZM345.43,175.74c0-.56.2-1.03.61-1.42.41-.39.88-.58,1.42-.58s1.01.19,1.42.58l2.87,2.84,7.14-7.1c.39-.41.86-.61,1.42-.61s1.03.2,1.42.61c.39.41.59.88.61,1.42.02.54-.18,1.01-.61,1.42l-8.56,8.56c-.39.41-.86.61-1.42.61s-1.03-.2-1.42-.61l-4.29-4.29c-.41-.39-.61-.86-.61-1.42h0Z"/>
      <path class="cls-11" d="M337.81,224.56v-20.18c0-1.68.59-3.11,1.78-4.29,1.18-1.18,2.62-1.78,4.29-1.78h20.18c1.66,0,3.08.59,4.26,1.78,1.18,1.18,1.78,2.62,1.78,4.29v20.18c0,1.68-.59,3.1-1.78,4.26-1.18,1.16-2.6,1.75-4.26,1.78h-20.18c-1.68,0-3.11-.59-4.29-1.78-1.18-1.18-1.78-2.6-1.78-4.26h0ZM341.85,224.56c0,.56.19,1.03.58,1.42s.87.58,1.45.58h20.18c.54,0,1.01-.19,1.42-.58.41-.39.6-.86.58-1.42v-20.18c0-.56-.19-1.03-.58-1.42-.39-.39-.86-.59-1.42-.61h-20.18c-.56,0-1.04.2-1.45.61-.41.41-.6.88-.58,1.42v20.18h0Z"/>
      <path class="cls-7" d="M402.39,272.74l-15.19-15.19-4.64,4.64c-4.75,4.75-7.12,7.12-9.68,6.56-2.55-.56-3.71-3.71-6.03-10.01l-7.74-21.02c-4.63-12.57-6.95-18.86-3.71-22.1,3.24-3.24,9.53-.92,22.1,3.71l21.02,7.74c6.3,2.32,9.45,3.48,10.01,6.03.56,2.55-1.81,4.93-6.56,9.68l-4.64,4.64,15.19,15.19c1.57,1.57,2.36,2.36,2.72,3.24.48,1.17.48,2.48,0,3.65-.36.88-1.15,1.66-2.72,3.24-1.57,1.57-2.36,2.36-3.24,2.72-1.17.48-2.48.48-3.65,0-.88-.36-1.66-1.15-3.24-2.72Z"/>
    </g>
  </g>
</svg>